<svg viewBox="0 0 64 64" xmlns="http://www.w3.org/2000/svg" aria-labelledby="title"
aria-describedby="desc" role="img" xmlns:xlink="http://www.w3.org/1999/xlink">
  <title>Fork</title>
  <desc>A line styled icon from Orion Icon Library.</desc>
  <path stroke-width="3"
  stroke-miterlimit="10" stroke-linecap="round" stroke="#2e2c2d" fill="none"
  d="M47.9 39.9a3 3 0 0 0 0 4.2l2.9 2.9h-8.6l-15-15 15-15h8.5l-2.9 2.9a3 3 0 1 0 4.2 4.2L62 14 52.1 3.9a3 3 0 1 0-4.2 4.2l2.9 2.9h-11l-18 18H5a3 3 0 0 0 0 6h16.8l18 18h11l-2.9 2.9a3 3 0 0 0 4.2 4.2L62 50l-9.9-10.1a3 3 0 0 0-4.2 0z"
  data-name="layer1" stroke-linejoin="round"></path>
</svg>