<svg xmlns="http://www.w3.org/2000/svg" viewBox="0 0 64 64" aria-labelledby="title"
aria-describedby="desc" role="img" xmlns:xlink="http://www.w3.org/1999/xlink">
  <title>Repeat</title>
  <desc>A line styled icon from Orion Icon Library.</desc>
  <path data-name="layer2"
  d="M8 32a15.016 15.016 0 0 1 15-15h20.712l-5.632 4.693 3.84 4.61L56.685 14 42 2l-3.92 4.302L43.715 11H23A21.011 21.011 0 0 0 3.197 39.002l5.657-2A14.96 14.96 0 0 1 8 32z"
  fill="none" stroke="#2e2c2d" stroke-miterlimit="10" stroke-width="3" stroke-linejoin="round"
  stroke-linecap="round"></path>
  <path data-name="layer1" d="M60.805 25l-5.657 2A15.015 15.015 0 0 1 41 47H20.284l5.637-4.697-3.842-4.61L7.314 50 22 62l3.92-4.306L20.287 53H41a21.014 21.014 0 0 0 19.805-28z"
  fill="none" stroke="#2e2c2d" stroke-miterlimit="10" stroke-width="3" stroke-linejoin="round"
  stroke-linecap="round"></path>
</svg>