<svg xmlns="http://www.w3.org/2000/svg" viewBox="0 0 64 64" aria-labelledby="title"
aria-describedby="desc" role="img" xmlns:xlink="http://www.w3.org/1999/xlink">
  <title>Stretch</title>
  <desc>A line styled icon from Orion Icon Library.</desc>
  <path data-name="layer2"
  d="M25.879 33.879L14 45.758V41a3 3 0 0 0-6 0v15h15a3 3 0 0 0 0-6h-4.758l11.88-11.879a3 3 0 0 0-4.243-4.242z"
  fill="none" stroke="#2e2c2d" stroke-miterlimit="10" stroke-width="3" stroke-linejoin="round"
  stroke-linecap="round"></path>
  <path data-name="layer1" d="M41 8a3 3 0 0 0 0 6h4.758l-11.88 11.879a3 3 0 1 0 4.243 4.242L50 18.243V23a3 3 0 0 0 6 0V8z"
  fill="none" stroke="#2e2c2d" stroke-miterlimit="10" stroke-width="3" stroke-linejoin="round"
  stroke-linecap="round"></path>
</svg>