<svg viewBox="0 0 64 64" xmlns="http://www.w3.org/2000/svg"><g fill="#2e2c2d"><path d="m62.4 47.6a2 2 0 0 0 -2.8 0l-1.5 1.5a14.1 14.1 0 0 0 -4-10 13.9 13.9 0 0 0 -16.4-2.4 2 2 0 0 0 1.9 3.5 9.8 9.8 0 0 1 11.7 1.7 10.1 10.1 0 0 1 2.7 6.9l-1.2-1.2a2 2 0 1 0 -2.8 2.8l6.2 6.3 6.2-6.3a2 2 0 0 0 0-2.8zm-13.5 10.2a9.9 9.9 0 0 1 -11.7-1.7 10.1 10.1 0 0 1 -2.9-6.9l1.2 1.2a2 2 0 0 0 2.8-2.8l-6.2-6.3-6.1 6.3a2 2 0 1 0 2.8 2.8l1.5-1.5a14.1 14.1 0 0 0 4 10 13.9 13.9 0 0 0 9.9 4.1 13.7 13.7 0 0 0 6.6-1.7 2 2 0 1 0 -1.9-3.5z"/><path d="m39 1h-16v16h16zm-4 10a2 2 0 0 1 -4 0v-4a2 2 0 0 1 4 0z"/><path d="m45 31.1a18 18 0 0 1 6 1.3v-24.7l-6.7-6.7h-1.3v16.3a3.7 3.7 0 0 1 -3.7 3.7h-16.6a3.7 3.7 0 0 1 -3.7-3.7v-16.3h-18v50h6v-26h38z"/><path d="m21.4 49a6 6 0 0 1 1.7-4.2l6.2-6.3a4 4 0 0 1 2.8-1.2h.5a6 6 0 0 1 3-4.2 17.6 17.6 0 0 1 5.4-1.8v-2.3h-30v22h10.7a6 6 0 0 1 -.3-2z"/></g></svg>