<svg viewBox="0 0 64 64" xmlns="http://www.w3.org/2000/svg"><g fill="#2e2c2d"><path d="m62.4 44.6-17.4-17.4-17.4 17.4a2 2 0 1 0 2.8 2.8l2.6-2.6v17.2h8v-12h8v12h8v-17.2l2.6 2.6a2 2 0 1 0 2.8-2.8z"/><path d="m39 2h-16v16h16zm-4 10a2 2 0 0 1 -4 0v-4a2 2 0 0 1 4 0z"/><path d="m42.2 24.3a4 4 0 0 1 5.7 0l3.1 3.2v-18.8l-6.7-6.7h-1.3v16.3a3.7 3.7 0 0 1 -3.7 3.7h-16.6a3.7 3.7 0 0 1 -3.7-3.7v-16.3h-18v50h6v-26h33.5z"/><path d="m24.8 50.3a6 6 0 0 1 0-8.5l11.7-11.8h-25.5v22h17.8a6 6 0 0 1 -4-1.7z"/></g></svg>