<svg viewBox="0 0 64 64" xmlns="http://www.w3.org/2000/svg"><g fill="#2e2c2d"><path d="m58.6 49.1a11.6 11.6 0 0 0 .2-2.1 11.9 11.9 0 0 0 -.2-2.3l3.1-1.7-4-6.9-3.1 1.8a12 12 0 0 0 -3.7-2.1v-3.8h-8v3.7a12 12 0 0 0 -3.7 2.1l-3.2-1.8-4 7 3 1.7a11.9 11.9 0 0 0 -.2 2.3 12.1 12.1 0 0 0 .2 2.1l-3.3 1.9 4 6.9 3.3-1.8a12 12 0 0 0 3.8 2.2v3.7h8v-3.7a12.1 12.1 0 0 0 3.9-2.3l3.3 2 4-7zm-11.8 2.9a5 5 0 1 1 5-5 5 5 0 0 1 -5 5z"/><path d="m40 2h-16v16h16zm-4 10a2 2 0 0 1 -4 0v-4a2 2 0 0 1 4 0zm-8.2 38a4 4 0 0 1 1.9-2.4l1.1-.6-.8-.5a4 4 0 0 1 -1.4-5.5l4-6.9a4 4 0 0 1 2.4-1.9h1a4 4 0 0 1 2 .5l.8.4v-1.1a4 4 0 0 1 .6-2h-27.4v22h15.8a4 4 0 0 1 0-2z"/><path d="m46 28h4.8l1.2.2v-19.5l-6.7-6.7h-1.3v16.3a3.7 3.7 0 0 1 -3.7 3.7h-16.6a3.7 3.7 0 0 1 -3.7-3.7v-16.3h-18v50h6v-26h38z"/></g></svg>