<svg viewBox="0 0 64 64" xmlns="http://www.w3.org/2000/svg"><g fill="#2e2c2d"><path d="m45 27v-18a2 2 0 0 0 -2-2h-6v4h3v16.7a17.9 17.9 0 0 0 -4 1.7v-14.4h-26v33h17.3a17.9 17.9 0 0 0 1.8 5.4l-.7-1.4h-22.4v-41h3v-4h-6a2 2 0 0 0 -2 2v46a2 2 0 0 0 2 2h28.6l.6.6h.2a18 18 0 1 0 12.6-30.6zm-28-8h12a2 2 0 0 1 0 4h-12a2 2 0 0 1 0-4zm0 10h12a2 2 0 0 1 0 4h-12a2 2 0 0 1 0-4zm10.1 14h-10.1a2 2 0 0 1 0-4h11.1s-.6 2-1 4zm3.9 2a14 14 0 0 1 22.4-11.2l-19.6 19.6a13.9 13.9 0 0 1 -2.8-8.4zm14 14a13.9 13.9 0 0 1 -8.4-2.8l19.6-19.6a14 14 0 0 1 -11.2 22.4z"/><path d="m33 7a2 2 0 0 0 -2-2h-3.1a5 5 0 0 0 -9.8 0h-3.1a2 2 0 0 0 -2 2v4h20z"/></g></svg>