<svg viewBox="0 0 64 64" xmlns="http://www.w3.org/2000/svg"><g fill="#2e2c2d"><path d="m31.5 4.8v12h12z"/><path d="m58.3 38.9a5.2 5.2 0 0 1 0-4 4.9 4.9 0 0 0 -3.7-6.4h-.2a3.8 3.8 0 0 1 -3-1.5 4.9 4.9 0 0 0 -7.9-.1h-.1a4.5 4.5 0 0 1 -2.9 1.6 4.9 4.9 0 0 0 -3.9 6.1.6.6 0 0 0 .1.3 4.7 4.7 0 0 1 0 4 4.9 4.9 0 0 0 3 6.2h-.2v16.1l8-5.3 8 5.3v-16.3a4.9 4.9 0 0 0 2.9-5.7.8.8 0 0 0 -.1-.3zm-10.8-6a4 4 0 1 1 -4 4 4 4 0 0 1 4-4.1z"/><path d="m35.5 47.1a8.9 8.9 0 0 1 -1.9-2.2 9 9 0 0 1 -.8-7.2 3.6 3.6 0 0 0 .2-.8v-.2a4.6 4.6 0 0 1 -.4-1.3 8.9 8.9 0 0 1 7.2-10.7h.5l.3-.3a8.9 8.9 0 0 1 4.8-3v-.2h-18v-18.4h-21.9v54h30z"/></g></svg>