<svg viewBox="0 0 64 64" xmlns="http://www.w3.org/2000/svg"><g fill="#2e2c2d"><path d="m46 30a16 16 0 1 0 16 16 16 16 0 0 0 -16-16zm8 18h-6v6a2 2 0 1 1 -4 0v-6h-6a2 2 0 0 1 0-4h6v-6a2 2 0 1 1 4 0v6h6a2 2 0 0 1 0 4z"/><path d="m27.3 53h-20.3v-41h3v-4h-6a2 2 0 0 0 -2 2v46a2 2 0 0 0 2 2h26a19.9 19.9 0 0 1 -2.7-5zm6.7-45a2 2 0 0 0 -2-2h-3.1a5 5 0 0 0 -9.8 0h-3.1a2 2 0 0 0 -2 2v4h20zm7 4v14.7a19.9 19.9 0 0 1 5-.7v-16a2 2 0 0 0 -2-2h-6v4z"/><path d="m26 46c0-.7 0-1.3.1-2h-8.1a2 2 0 0 1 0-4h8.9a19.9 19.9 0 0 1 3.1-6h-12a2 2 0 0 1 0-4h12a2 2 0 0 1 2 1.8 20.1 20.1 0 0 1 5-3.6v-12.2h-26v33h15.2a20 20 0 0 1 -.2-3zm-8-26h12a2 2 0 0 1 0 4h-12a2 2 0 0 1 0-4z"/></g></svg>