<svg viewBox="0 0 64 64" xmlns="http://www.w3.org/2000/svg"><g fill="#2e2c2d"><path d="m54.9 30-20.8 20.7-4.3 11.3 11.4-4.3 20.7-20.7z"/><path d="m34.1 8a2 2 0 0 0 -2-2h-3.1a5 5 0 0 0 -9.8 0h-3.1a2 2 0 0 0 -2 2v4h20zm7 4v26.1l5-5v-23.1a2 2 0 0 0 -2-2h-6v4zm-12.1 41h-21.9v-41h3v-4h-6a2 2 0 0 0 -2 2v46a2 2 0 0 0 2 2h22.9z"/><path d="m31.3 47.9 5.8-5.8v-26.1h-26v33h19.4a4 4 0 0 1 .8-1.1zm-13.2-27.9h12a2 2 0 0 1 0 4h-12a2 2 0 0 1 0-4zm0 10h12a2 2 0 0 1 0 4h-12a2 2 0 0 1 0-4zm-2 12a2 2 0 0 1 2-2h12a2 2 0 0 1 0 4h-12a2 2 0 0 1 -2-2z"/></g></svg>