<svg viewBox="0 0 64 64" xmlns="http://www.w3.org/2000/svg"><g fill="#2e2c2d"><path d="m60.6 43.1a11.7 11.7 0 0 0 0-4.3l3.1-1.8-4-6.9-3.1 1.8a12 12 0 0 0 -3.7-2.1v-3.8h-8v3.7a12 12 0 0 0 -3.7 2.1l-3.2-1.8-4 7 3 1.7a11.6 11.6 0 0 0 0 4.4l-3.3 1.9 4 6.9 3.3-1.8a12 12 0 0 0 3.8 2.2v3.7h8v-3.7a12.1 12.1 0 0 0 3.9-2.3l3.3 2 4-7zm-11.7 2.9a5 5 0 1 1 5-5 5 5 0 0 1 -5 5z"/><path d="m30.2 47a4 4 0 0 1 1.5-5.5l1.1-.6-.8-.5a4 4 0 0 1 -1.4-5.4l4-6.9a4 4 0 0 1 2.4-1.9h1a4 4 0 0 1 2 .5l.8.5v-1.2a4 4 0 0 1 4-4h8a4 4 0 0 1 3.2 1.6v-9.6h-32v-6h-20v40.3a1.7 1.7 0 0 0 1.7 1.7h26.2z"/></g></svg>