<svg viewBox="0 0 64 64" xmlns="http://www.w3.org/2000/svg"><g fill="#2e2c2d"><path d="m58.6 49.1a11.8 11.8 0 0 0 0-4.3l3.1-1.8-4-6.9-3.1 1.8a12 12 0 0 0 -3.7-2.1v-3.8h-8v3.7a12 12 0 0 0 -3.7 2.1l-3.2-1.8-4 7 3 1.7a11.6 11.6 0 0 0 0 4.4l-3.3 1.9 4 6.9 3.3-1.8a12 12 0 0 0 3.8 2.2v3.7h8v-3.7a12 12 0 0 0 3.9-2.3l3.3 2 4-7zm-11.7 2.9a5 5 0 1 1 5-5 5 5 0 0 1 -5 5z"/><path d="m28.2 53a4 4 0 0 1 1.5-5.5l1.1-.6-.8-.5a4 4 0 0 1 -1.4-5.4l4-6.9a4 4 0 0 1 5.4-1.5l.8.5v-1.1a4 4 0 0 1 4-4h3.2v-26h-8v6a2 2 0 0 1 0 4h-4a2 2 0 0 1 0-4v-6h-8v6a2 2 0 0 1 0 4h-4a2 2 0 0 1 0-4v-6h-8v6a2 2 0 0 1 0 4h-4a2 2 0 1 1 0-4v-6h-8v56h29.1z"/></g></svg>