<svg viewBox="0 0 64 64" xmlns="http://www.w3.org/2000/svg"><g fill="#2e2c2d"><path d="m45 27a18 18 0 0 0 -12.8 30.7h.1a18 18 0 1 0 12.7-30.7zm0 4a13.9 13.9 0 0 1 8.4 2.8l-19.6 19.6a14 14 0 0 1 11.2-22.4zm0 28a13.9 13.9 0 0 1 -8.4-2.8l19.6-19.6a14 14 0 0 1 -11.2 22.4z"/><path d="m39 1h-16v16h16zm-4 10a2 2 0 1 1 -4 0v-4a2 2 0 1 1 4 0z"/><path d="m45 28.8a16.1 16.1 0 0 1 6 1.2v-22.3l-6.7-6.7h-1.3v16.3a3.7 3.7 0 0 1 -3.7 3.7h-16.6a3.7 3.7 0 0 1 -3.7-3.7v-16.3h-18v50h6v-26h38z"/><path d="m28.8 45a16.3 16.3 0 0 1 12.2-15.7v-.3h-30v22h18.9a16.1 16.1 0 0 1 -1.1-6z"/></g></svg>