<svg viewBox="0 0 64 64" xmlns="http://www.w3.org/2000/svg"><g fill="#2e2c2d"><path d="m40 4v12h12z"/><path d="m36 20v-18h-26v60h44v-42zm1.7 26.6a11.7 11.7 0 0 1 -5.7 1.4 11.9 11.9 0 0 1 -8.5-3.5 12.1 12.1 0 0 1 -3.4-7.8l-.7.7a2 2 0 0 1 -2.8-2.8l5.4-5.5 5.4 5.5a2 2 0 0 1 -2.8 2.8l-.4-.4a8 8 0 0 0 2.2 4.7 7.9 7.9 0 0 0 9.4 1.3 2 2 0 0 1 1.9 3.5zm9.7-9.1-5.4 5.4-5.4-5.5a2 2 0 0 1 2.8-2.8l.4.4a8.1 8.1 0 0 0 -2.2-4.7 7.9 7.9 0 0 0 -9.3-1.3 2 2 0 1 1 -1.9-3.5 11.9 11.9 0 0 1 14.1 2.1 12.1 12.1 0 0 1 3.4 7.8l.7-.7a2 2 0 0 1 2.8 2.8z"/></g></svg>