<svg viewBox="0 0 64 64" xmlns="http://www.w3.org/2000/svg"><g fill="#2e2c2d"><path d="m9 13.007h38v-4h-28v-4h-18v41a2.981 2.981 0 0 0 1.068 2.277 4.007 4.007 0 0 1 2.932-3.152v-28.125a4 4 0 0 1 4-4z"/><path d="m62.407 43.586a2 2 0 0 0 -2.828.015l-1.512 1.527a14.135 14.135 0 0 0 -4.043-10.014 13.876 13.876 0 0 0 -16.432-2.421 2 2 0 0 0 1.916 3.507 9.858 9.858 0 0 1 11.672 1.727 10.085 10.085 0 0 1 2.871 6.912l-1.228-1.239a2 2 0 0 0 -2.842 2.815l6.219 6.285 6.219-6.283a2 2 0 0 0 -.012-2.831zm-13.512 10.223a9.845 9.845 0 0 1 -11.67-1.722 10.087 10.087 0 0 1 -2.871-6.914l1.229 1.24a2 2 0 1 0 2.841-2.813l-6.224-6.283-6.219 6.283a2 2 0 1 0 2.842 2.815l1.516-1.529a14.124 14.124 0 0 0 4.044 10.014 13.87 13.87 0 0 0 9.853 4.091 13.682 13.682 0 0 0 6.578-1.675 2 2 0 1 0 -1.92-3.509z"/><path d="m21.395 45.036a5.963 5.963 0 0 1 1.736-4.251l6.221-6.285a4 4 0 0 1 2.848-1.183 4.1 4.1 0 0 1 .451.045 5.987 5.987 0 0 1 3.02-4.179 17.752 17.752 0 0 1 8.492-2.16 18 18 0 0 1 8.837 2.354v-12.37h-44v29a3 3 0 0 1 -3 3h16.932a5.957 5.957 0 0 1 -1.537-3.971z"/></g></svg>