<svg viewBox="0 0 64 64" xmlns="http://www.w3.org/2000/svg"><g fill="#2e2c2d"><path d="m40 23.5h-16v32.7a1.3 1.3 0 0 0 1.3 1.3h35.4a1.3 1.3 0 0 0 1.3-1.3v-28.7h-22z"/><path d="m40 19.5v-12h-22v-4h-16v32.7a1.3 1.3 0 0 0 1.3 1.3h16.7v-18zm-22.6 32.6-5-5a2 2 0 0 0 -2.8 2.8l1.6 1.6h-5.2a2 2 0 0 1 -2-2v-2a2 2 0 1 0 -4 0v2a6 6 0 0 0 6 6h5.2l-1.6 1.6a2 2 0 0 0 2.8 2.8l5-5 1.4-1.4z"/><path d="m58 9.5h-5.2l1.6-1.6a2 2 0 0 0 -2.8-2.8l-5 5-1.4 1.4 1.4 1.4 5 5a2 2 0 0 0 2.8-2.8l-1.6-1.6h5.2a2 2 0 0 1 2 2v2a2 2 0 1 0 4 0v-2a6 6 0 0 0 -6-6z"/></g></svg>