<svg viewBox="0 0 64 64" xmlns="http://www.w3.org/2000/svg"><g fill="#2e2c2d"><path d="m40 2h-16v16h16zm-4 10a2 2 0 1 1 -4 0v-4a2 2 0 1 1 4 0zm-10 34a20 20 0 0 1 8.1-16h-22.1v22h14.9a19.9 19.9 0 0 1 -.9-6z"/><path d="m52 26.9v-18.2l-6.7-6.7h-1.3v16.3a3.7 3.7 0 0 1 -3.7 3.7h-16.6a3.7 3.7 0 0 1 -3.7-3.7v-16.3h-18v50h6v-26h38a19.9 19.9 0 0 1 6 .9z"/><path d="m46 30a16 16 0 1 0 16 16 16 16 0 0 0 -16-16zm7.4 15.4a2 2 0 0 1 -2.8 0l-2.6-2.6v11.2a2 2 0 1 1 -4 0v-11.2l-2.6 2.6a2 2 0 1 1 -2.8-2.8l7.4-7.4 7.4 7.4a2 2 0 0 1 0 2.8z"/></g></svg>