<svg viewBox="0 0 64 64" xmlns="http://www.w3.org/2000/svg"><g fill="#2e2c2d"><path d="m24.5 38h3l-1.5-5z"/><path d="m54.2 2h-44.4a7.8 7.8 0 0 0 -7.8 7.8v44.4a7.8 7.8 0 0 0 7.8 7.8h44.4a7.8 7.8 0 0 0 7.8-7.8v-44.4a7.8 7.8 0 0 0 -7.8-7.8zm-21.6 45.9h-.6a2 2 0 0 1 -1.9-1.4l-1.4-4.5h-5.4l-1.4 4.6a2 2 0 1 1 -3.8-1.1l6-20a2 2 0 0 1 3.8 0l6 20a2 2 0 0 1 -1.3 2.4zm7.4.1a4 4 0 0 1 -4-4v-18a2 2 0 1 1 4 0v18a2 2 0 0 1 0 4zm10-16h-2v12a2 2 0 0 1 0 4 4 4 0 0 1 -4-4v-12a2 2 0 0 1 0-4v-2a2 2 0 1 1 4 0v2h2a2 2 0 0 1 0 4z"/></g></svg>