<svg viewBox="0 0 64 64" xmlns="http://www.w3.org/2000/svg"><path d="m2 2v60h60v-60zm26 48h-16a2 2 0 0 1 0-4h16a2 2 0 0 1 0 4zm0-8h-16a2 2 0 0 1 0-4h16a2 2 0 0 1 0 4zm0-8h-16a2 2 0 0 1 0-4h16a2 2 0 0 1 0 4zm0-8h-16a2 2 0 0 1 0-4h16a2 2 0 0 1 0 4zm0-8h-12a2 2 0 0 1 0-4h12a2 2 0 1 1 0 4zm18 32h-10a2 2 0 0 1 0-4h10a2 2 0 0 1 0 4zm6-8h-16a2 2 0 0 1 0-4h16a2 2 0 0 1 0 4zm0-8h-16a2 2 0 0 1 0-4h16a2 2 0 0 1 0 4zm0-8h-16a2 2 0 0 1 0-4h16a2 2 0 0 1 0 4zm0-8h-16a2 2 0 0 1 0-4h16a2 2 0 0 1 0 4z" fill="#2e2c2d"/></svg>