<svg viewBox="0 0 64 64" xmlns="http://www.w3.org/2000/svg"><path d="m62 0h-60a2 2 0 0 0 -2 2v60a2 2 0 0 0 2 2h60a2 2 0 0 0 2-2v-60a2 2 0 0 0 -2-2zm-34.007 49.997h-15.988a2 2 0 1 1 0-4h15.988a2 2 0 0 1 0 4zm0-8h-15.988a2 2 0 1 1 0-4h15.988a2 2 0 0 1 0 4zm0-8h-15.992a2 2 0 0 1 0-4h15.992a2 2 0 0 1 0 4zm0-8h-15.988a2 2 0 0 1 0-4h15.988a2 2 0 0 1 0 4zm0-8h-11.986a2 2 0 1 1 0-4h11.986a2 2 0 0 1 0 4zm18.003 32h-9.985a2 2 0 0 1 0-4h9.985a2 2 0 0 1 0 4zm6.003-8h-15.988a2 2 0 0 1 0-4h15.988a2 2 0 0 1 0 4zm0-8h-15.992a2 2 0 0 1 0-4h15.992a2 2 0 1 1 0 4zm0-8h-15.988a2 2 0 0 1 0-4h15.988a2 2 0 0 1 0 4zm0-8h-15.988a2 2 0 1 1 0-4h15.988a2 2 0 0 1 0 4z" fill="#2e2c2d"/></svg>