<svg viewBox="0 0 64 64" xmlns="http://www.w3.org/2000/svg"><path d="m62 0h-60a2 2 0 0 0 -2 2v60a2 2 0 0 0 2 2h60a2 2 0 0 0 2-2v-60a2 2 0 0 0 -2-2zm-42.003 49.001h-1.535l.767 1.33a2 2 0 1 1 -3.464 2l-.768-1.331-.768 1.33a2 2 0 1 1 -3.464-2l.767-1.329h-1.535a2 2 0 1 1 0-4h1.537l-.769-1.331a2 2 0 1 1 3.464-2l.768 1.33.768-1.33a2 2 0 1 1 3.464 2l-.769 1.33h1.537a2 2 0 0 1 0 4zm0-16.004h-1.535l.767 1.33a2 2 0 1 1 -3.464 2l-.768-1.33-.768 1.33a2 2 0 0 1 -3.464-2l.767-1.33h-1.535a2 2 0 0 1 0-4h1.537l-.769-1.331a2 2 0 0 1 3.464-2l.768 1.33.768-1.33a2 2 0 0 1 3.464 2l-.769 1.331h1.537a2 2 0 0 1 0 4zm0-15.999h-1.535l.767 1.33a2 2 0 1 1 -3.464 2l-.768-1.33-.768 1.33a2 2 0 0 1 -3.464-2l.767-1.33h-1.535a2 2 0 0 1 0-4h1.537l-.769-1.331a2 2 0 1 1 3.464-2l.768 1.33.768-1.33a2 2 0 0 1 3.464 2l-.769 1.331h1.537a2 2 0 0 1 0 4zm35.003 32.002h-29.004a2 2 0 0 1 0-4h29.004a2 2 0 0 1 0 4zm0-16.001h-29.004a2 2 0 1 1 0-4h29.004a2 2 0 0 1 0 4zm0-16.003h-29.004a2 2 0 0 1 0-4h29.004a2 2 0 0 1 0 4z" fill="#2e2c2d"/></svg>