<svg viewBox="0 0 64 64" xmlns="http://www.w3.org/2000/svg"><path d="m62 0h-60a2 2 0 0 0 -2 2v60a2 2 0 0 0 2 2h60a2 2 0 0 0 2-2v-60a2 2 0 0 0 -2-2zm-48 10h36a1 1 0 0 1 0 2h-36a1 1 0 0 1 0-2zm34.5 12a1 1 0 0 1 0 2h-33a1 1 0 0 1 0-2zm-29.5-5a1 1 0 0 1 1-1h24a1 1 0 0 1 0 2h-24a1 1 0 0 1 -1-1zm-9.5 11h45a1 1 0 0 1 0 2h-45a1 1 0 0 1 0-2zm37.5 18a1 1 0 0 1 0 2h-30a1 1 0 0 1 0-2zm-26-5a1 1 0 0 1 1-1h20a1 1 0 0 1 0 2h-20a1 1 0 0 1 -1-1zm26-5h-30a1 1 0 0 1 0-2h30a1 1 0 0 1 0 2zm8 18h-46a1 1 0 0 1 0-2h46a1 1 0 0 1 0 2z" fill="#2e2c2d"/></svg>