<svg viewBox="0 0 64 64" xmlns="http://www.w3.org/2000/svg"><g fill="#2e2c2d"><path d="m40 19.618-2.431 6.382h4.862z"/><path d="m62 0h-60a2 2 0 0 0 -2 2v60a2 2 0 0 0 2 2h60a2 2 0 0 0 2-2v-60a2 2 0 0 0 -2-2zm-12.13 34.288a2 2 0 0 1 -3.74 1.424l-2.174-5.712h-7.91l-2.179 5.719a2 2 0 0 1 -3.738-1.424l9.871-25.913zm-37.614-25.145a2 2 0 0 1 2.6 1.114l6.144 15.358 6.143-15.358a2 2 0 1 1 3.714 1.486l-9.857 24.642-9.857-24.642a2 2 0 0 1 1.114-2.6zm39.157 41.271a2 2 0 1 1 -2.828-2.828l.586-.586h-34.342l.586.586a2 2 0 0 1 -2.83 2.828l-3.993-3.994-.011-.01-1.41-1.411 1.41-1.406.011-.011 3.995-3.984a2 2 0 0 1 2.825 2.832l-.573.571h34.324l-.573-.57a2 2 0 0 1 2.825-2.833l5.417 5.401z"/></g></svg>