<svg viewBox="0 0 64 64" xmlns="http://www.w3.org/2000/svg"><g fill="#2e2c2d"><path d="m43.462 36h5.076l-2.538-5.923z"/><path d="m62 0h-60a2 2 0 0 0 -2 2v60a2 2 0 0 0 2 2h60a2 2 0 0 0 2-2v-60a2 2 0 0 0 -2-2zm-53.857 21.743a2 2 0 0 1 3.714-1.486l6.143 15.358 6.143-15.358a2 2 0 1 1 3.714 1.486l-9.857 24.642zm16.857 31.257a2.002 2.002 0 0 1 -1.863-2.727l14.03-36a2 2 0 0 1 3.727 1.454l-14.03 36a2 2 0 0 1 -1.864 1.273zm30.787-5.162a2 2 0 0 1 -2.626-1.05l-2.909-6.788h-8.504l-2.91 6.788a2 2 0 0 1 -3.676-1.576l3.423-7.988.002-.005 7.413-17.296 7.411 17.294.004.009 3.422 7.986a2 2 0 0 1 -1.05 2.626z"/></g></svg>