<svg viewBox="0 0 64 64" xmlns="http://www.w3.org/2000/svg"><g fill="#2e2c2d"><path d="m62 0h-60a2 2 0 0 0 -2 2v60a2 2 0 0 0 2 2h60a2 2 0 0 0 2-2v-60a2 2 0 0 0 -2-2zm-27.838 24.212 2.138-4.988.001-.005 5.699-13.296 5.699 13.296.001.005 2.138 4.988a2 2 0 1 1 -3.676 1.576l-1.624-3.788h-5.076l-1.624 3.788a2 2 0 0 1 -3.676-1.576zm-13.576 22.374a2 2 0 0 1 2.828 2.828l-7.414 7.414-7.414-7.414a2 2 0 0 1 2.828-2.828l2.586 2.586v-26.344l-2.586 2.586a2 2 0 0 1 -2.828-2.828l7.414-7.414 7.414 7.414a2 2 0 1 1 -2.828 2.828l-2.586-2.586v26.344zm33.414-13.586h-11.967l5.667 13.22.001.004 2.138 4.988a2 2 0 1 1 -3.676 1.576l-1.625-3.788h-5.076l-1.624 3.788a2 2 0 0 1 -3.676-1.576l2.138-4.988.001-.005 5.666-13.219h-11.967a2 2 0 0 1 0-4h24a2 2 0 0 1 0 4z"/><path d="m41.176 45h1.648l-.824-1.923zm.824-28.923-.824 1.923h1.648z"/></g></svg>