<svg viewBox="0 0 64 64" xmlns="http://www.w3.org/2000/svg"><path d="m62 0h-60a2 2 0 0 0 -2 2v60a2 2 0 0 0 2 2h60a2 2 0 0 0 2-2v-60a2 2 0 0 0 -2-2zm-42.52 45.953-6.084 10.137-5.811-5.812a2 2 0 0 1 2.828-2.828l2.189 2.189 3.447-5.744a2 2 0 0 1 3.43 2.058zm0-15.962-6.083 10.137-5.811-5.812a2 2 0 0 1 2.828-2.828l2.189 2.189 3.447-5.744a2 2 0 1 1 3.43 2.058zm0-15.962-6.083 10.137-5.811-5.812a2 2 0 1 1 2.828-2.828l2.189 2.189 3.447-5.744a2 2 0 0 1 3.43 2.058zm35.524 36.915h-28.004a2 2 0 0 1 0-4h28.004a2 2 0 0 1 0 4zm0-16h-28.004a2 2 0 1 1 0-4h28.004a2 2 0 1 1 0 4zm0-16.004h-28.004a2 2 0 0 1 0-4h28.004a2 2 0 1 1 0 4z" fill="#2e2c2d"/></svg>