<svg viewBox="0 0 64 64" xmlns="http://www.w3.org/2000/svg"><path d="m54.2 2h-44.4a7.8 7.8 0 0 0 -7.8 7.8v44.4a7.8 7.8 0 0 0 7.8 7.8h44.4a7.8 7.8 0 0 0 7.8-7.8v-44.4a7.8 7.8 0 0 0 -7.8-7.8zm-34.2 46h-2a10 10 0 0 1 -10-10v-4a10 10 0 0 1 10-10h2a2 2 0 0 1 0 4h-2a6 6 0 0 0 -6 6v4a6 6 0 0 0 6 6h2a2 2 0 0 1 0 4zm10-16h-2v12a2 2 0 0 1 0 4 4 4 0 0 1 -4-4v-12a2 2 0 0 1 0-4v-2a2 2 0 1 1 4 0v2h2a2 2 0 0 1 0 4zm8 4h-2v10a2 2 0 1 1 -4 0v-10a4 4 0 0 1 4-4h2a2 2 0 0 1 0 4zm8 12a4 4 0 0 1 -4-4v-18a2 2 0 1 1 4 0v18a2 2 0 0 1 0 4z" fill="#2e2c2d"/></svg>