<svg viewBox="0 0 64 64" xmlns="http://www.w3.org/2000/svg"><path d="m62 0h-60a2 2 0 0 0 -2 2v60a2 2 0 0 0 2 2h60a2 2 0 0 0 2-2v-60a2 2 0 0 0 -2-2zm-42.293 41.707a1 1 0 0 1 -1.414 0l-9.707-9.707 9.707-9.707a1 1 0 0 1 1.414 1.414l-7.293 7.293h19.586a1 1 0 0 1 0 2h-19.586l7.293 7.293a1 1 0 0 1 0 1.414zm34.292 12.293h-28.999a1 1 0 0 1 0-2h28.999a1 1 0 0 1 0 2zm0-6h-28.999a1 1 0 0 1 0-2h28.999a1 1 0 0 1 0 2zm0-6h-15.999a1 1 0 0 1 0-2h15.999a1 1 0 0 1 0 2zm0-6h-15.999a1 1 0 0 1 0-2h15.999a1 1 0 0 1 0 2zm0-6h-15.999a1 1 0 0 1 0-2h15.999a1 1 0 0 1 0 2zm0-6h-15.999a1 1 0 0 1 0-2h15.999a1 1 0 0 1 0 2zm.001-6h-29a1 1 0 0 1 0-2h29a1 1 0 0 1 0 2zm0-6h-29a1 1 0 0 1 0-2h29a1 1 0 0 1 0 2z" fill="#2e2c2d"/></svg>