<svg viewBox="0 0 64 64" xmlns="http://www.w3.org/2000/svg"><g fill="#2e2c2d"><path d="m54 28.6v-22h-12v22l6-4z"/><path d="m24 10.6h-22v44h22a8 8 0 0 1 6 2.7v-44a8 8 0 0 0 -6-2.7zm0 36h-14a2 2 0 0 1 0-4h14a2 2 0 0 1 0 4zm0-8h-14a2 2 0 0 1 0-4h14a2 2 0 0 1 0 4zm0-8h-14a2 2 0 0 1 0-4h14a2 2 0 0 1 0 4zm0-8h-14a2 2 0 0 1 0-4h14a2 2 0 0 1 0 4zm34-12v25.5l-6.2-4.1-3.8-2.6-3.7 2.6-4 2.7h13.7a2 2 0 0 1 0 4h-14a2 2 0 0 1 -2-2 2 2 0 0 1 .1-.6h-.1v-25.2a8 8 0 0 0 -4 2.5v44a8 8 0 0 1 6-2.7h22v-44zm-4 36h-14a2 2 0 0 1 0-4h14a2 2 0 0 1 0 4z"/></g></svg>