<svg viewBox="0 0 64 64" xmlns="http://www.w3.org/2000/svg"><g fill="#2e2c2d"><path d="m45 41.3h18v7h-18z"/><path d="m63 9.3a6 6 0 0 1 -6 6h-6a6 6 0 0 1 -6-6v28h18zm-18 43v3a6 6 0 0 0 6 6h6a6 6 0 0 0 6-6v-3z"/><path d="m56.9 3.3h-6a9.8 9.8 0 0 1 -4-.6v4.6a4 4 0 0 0 4 4h6a4 4 0 0 0 4-4v-4.6a9.8 9.8 0 0 1 -4 .6z"/><path d="m23 41.3h18v7h-18z"/><path d="m41 9.3a6 6 0 0 1 -6 6h-6a6 6 0 0 1 -6-6v28h18zm-18 43v3a6 6 0 0 0 6 6h6a6 6 0 0 0 6-6v-3z"/><path d="m34.9 3.3h-6a9.8 9.8 0 0 1 -4-.6v4.6a4 4 0 0 0 4 4h6a4 4 0 0 0 4-4v-4.6a9.8 9.8 0 0 1 -4 .6z"/><path d="m1 41.3h18v7h-18z"/><path d="m19 9.3a6 6 0 0 1 -6 6h-6a6 6 0 0 1 -6-6v28h18zm-18 43v3a6 6 0 0 0 6 6h6a6 6 0 0 0 6-6v-3z"/><path d="m13 3.3h-6a9.8 9.8 0 0 1 -4-.6v4.6a4 4 0 0 0 4 4h6a4 4 0 0 0 4-4v-4.6a9.8 9.8 0 0 1 -4 .6z"/></g></svg>