<svg viewBox="0 0 64 64" xmlns="http://www.w3.org/2000/svg"><path d="m62 0h-60a2 2 0 0 0 -2 2v60a2 2 0 0 0 2 2h60a2 2 0 0 0 2-2v-60a2 2 0 0 0 -2-2zm-52 10h29a1 1 0 0 1 0 2h-29a1 1 0 0 1 0-2zm0 6h29a1 1 0 0 1 0 2h-29a1 1 0 0 1 0-2zm16 20h-15.999a1 1 0 0 1 0-2h15.999a1 1 0 0 1 0 2zm1 5a1 1 0 0 1 -1 1h-15.999a1 1 0 0 1 0-2h15.999a1 1 0 0 1 1 1zm-1-11h-15.999a1 1 0 0 1 0-2h15.999a1 1 0 0 1 0 2zm0-6h-15.999a1 1 0 0 1 0-2h15.999a1 1 0 0 1 0 2zm13 30h-28.999a1 1 0 0 1 0-2h28.999a1 1 0 0 1 0 2zm0-6h-28.999a1 1 0 0 1 0-2h28.999a1 1 0 0 1 0 2zm15.707-15.293-9 9a1 1 0 0 1 -1.414-1.414l7.293-7.293h-19.586a1 1 0 0 1 0-2h19.586l-7.293-7.293a1 1 0 0 1 1.414-1.414l9 9 .707.707z" fill="#2e2c2d"/></svg>