<svg viewBox="0 0 64 64" xmlns="http://www.w3.org/2000/svg"><path d="m62 0h-60a2 2 0 0 0 -2 2v60a2 2 0 0 0 2 2h60a2 2 0 0 0 2-2v-60a2 2 0 0 0 -2-2zm-31.016 54.001h-19.999a1 1 0 0 1 0-2h20a1 1 0 0 1 0 2zm0-6h-22a1 1 0 0 1 0-2h22a1 1 0 0 1 0 2zm0-6h-13.999a1 1 0 1 1 0-2h14a1 1 0 0 1 0 2zm0-6h-21.968a1 1 0 0 1 0-2h21.968a1 1 0 0 1 0 2zm0-6h-19.999a1 1 0 0 1 0-2h20a1 1 0 0 1 0 2zm0-6h-21.968a1 1 0 1 1 0-2h21.968a1 1 0 0 1 0 2zm0-6h-13.999a1 1 0 0 1 0-2h14a1 1 0 0 1 0 2zm0-6h-21.984a1 1 0 0 1 0-2h21.984a1 1 0 0 1 0 2zm7.016 42.015a1 1 0 0 1 -2 0v-43.996a1 1 0 0 1 2 0zm16-21.016h-8.586l3.293 3.293a1 1 0 1 1 -1.414 1.414l-5-5-.707-.707.707-.707 5-5a1 1 0 0 1 1.414 1.414l-3.293 3.293h8.586a1 1 0 0 1 0 2z" fill="#2e2c2d"/></svg>