<svg viewBox="0 0 64 64" xmlns="http://www.w3.org/2000/svg"><path d="m62 0h-60a2 2 0 0 0 -2 2v60a2 2 0 0 0 2 2h60a2 2 0 0 0 2-2v-60a2 2 0 0 0 -2-2zm-28.984 10.001h21.984a1 1 0 0 1 0 2h-21.984a1 1 0 0 1 0-2zm0 6h13.999a1 1 0 0 1 0 2h-14a1 1 0 0 1 0-2zm0 6h21.968a1 1 0 0 1 0 2h-21.968a1 1 0 0 1 0-2zm0 6h19.999a1 1 0 0 1 0 2h-20a1 1 0 0 1 0-2zm0 6h21.968a1 1 0 0 1 0 2h-21.968a1 1 0 0 1 0-2zm0 6h13.999a1 1 0 0 1 0 2h-14a1 1 0 0 1 0-2zm-11.309-7.294-5 5a1 1 0 0 1 -1.414-1.414l3.293-3.293h-8.586a1 1 0 0 1 0-2h8.586l-3.293-3.293a1 1 0 0 1 1.414-1.414l5 5 .707.707zm6.293 21.309a1 1 0 0 1 -2 0v-43.996a1 1 0 0 1 2 0zm25.015-.016h-20a1 1 0 0 1 0-2h20a1 1 0 0 1 0 2zm2-6h-22a1 1 0 0 1 0-2h22a1 1 0 0 1 0 2z" fill="#2e2c2d"/></svg>