<svg viewBox="0 0 64 64" xmlns="http://www.w3.org/2000/svg"><g fill="#2e2c2d"><path d="m42 27.3 6-4 6 4v-21.9a67.4 67.4 0 0 0 -12 1.7z"/><path d="m2 53c11 0 23.3 1.2 28 5.7v-44c-4.7-4.5-17-5.7-28-5.7zm8.1-35.8a62 62 0 0 1 14.5 2.4 2 2 0 0 1 -.6 3.9h-.6a58.1 58.1 0 0 0 -13.5-2.3 2 2 0 0 1 .3-4zm0 7.5a61.9 61.9 0 0 1 14.5 2.4 2 2 0 0 1 -.6 3.9h-.6a58 58 0 0 0 -13.5-2.3 2 2 0 1 1 .3-4zm0 8a61.9 61.9 0 0 1 14.5 2.3 2 2 0 0 1 -.6 3.9h-.6a58 58 0 0 0 -13.5-2.2 2 2 0 1 1 .3-4zm0 7.5a62 62 0 0 1 14.5 2.4 2 2 0 0 1 -.6 3.9h-.6a58.2 58.2 0 0 0 -13.5-2.3 2 2 0 1 1 .3-4zm47.9-31.2v25.8l-6.2-4.1-3.8-2.6-3.8 2.5-6.2 4.2v-22.6a13.4 13.4 0 0 0 -4 2.4v44c4.7-4.4 17-5.6 28-5.6v-44zm-3.8 35.2a58.2 58.2 0 0 0 -13.6 2.2h-.6a2 2 0 0 1 -.6-3.9 61.9 61.9 0 0 1 14.5-2.4 2 2 0 1 1 .3 4zm0-7.5a58 58 0 0 0 -13.6 2.2h-.6a2 2 0 0 1 -.6-3.9 61.9 61.9 0 0 1 14.5-2.4 2 2 0 0 1 .3 4z"/></g></svg>