<svg viewBox="0 0 64 64" xmlns="http://www.w3.org/2000/svg"><path d="m62 0h-60a2 2 0 0 0 -2 2v60a2 2 0 0 0 2 2h60a2 2 0 0 0 2-2v-60a2 2 0 0 0 -2-2zm-30.01 54h-21.99a1 1 0 0 1 0-2h21.99a1 1 0 0 1 0 2zm22.01-6h-44a1 1 0 0 1 0-2h44a1 1 0 0 1 0 2zm0-6h-44a1 1 0 0 1 0-2h44a1 1 0 0 1 0 2zm0-6h-44a1 1 0 0 1 0-2h44a1 1 0 0 1 0 2zm0-6h-44a1 1 0 0 1 0-2h44a1 1 0 0 1 0 2zm0-6h-44a1 1 0 0 1 0-2h44a1 1 0 0 1 0 2zm0-6h-44a1 1 0 0 1 0-2h44a1 1 0 0 1 0 2zm0-6h-44a1 1 0 0 1 0-2h44a1 1 0 0 1 0 2z" fill="#2e2c2d"/></svg>