<svg viewBox="0 0 64 64" xmlns="http://www.w3.org/2000/svg"><path d="m62 0h-60a2 2 0 0 0 -2 2v60a2 2 0 0 0 2 2h60a2 2 0 0 0 2-2v-60a2 2 0 0 0 -2-2zm-51.988 9.996 38.988.004a1 1 0 0 1 0 2l-38.988-.004a1 1 0 0 1 0-2zm0 6.001h31a1 1 0 0 1 0 2h-31a1 1 0 0 1 0-2zm0 6.001 35.988.002a1 1 0 0 1 0 2l-35.988-.002a1 1 0 0 1 0-2zm0 14.003a1 1 0 0 1 0-2l36.988-.001a1 1 0 0 1 0 2zm36.988 10.999a1 1 0 0 1 -1 1l-35.988.003v-2l35.988-.003a1 1 0 0 1 1 1zm-37.988-5.998a1 1 0 0 1 1-1h31a1 1 0 0 1 0 2h-31a1 1 0 0 1 -1-1zm44.988 12.998-43.988.004v-2l43.988-.004a1 1 0 0 1 0 2zm0-24h-43.988a1 1 0 0 1 0-2h43.988a1 1 0 0 1 0 2z" fill="#2e2c2d"/></svg>