<svg viewBox="0 0 64 64" xmlns="http://www.w3.org/2000/svg"><path d="m62 0h-60a2 2 0 0 0 -2 2v60a2 2 0 0 0 2 2h60a2 2 0 0 0 2-2v-60a2 2 0 0 0 -2-2zm-41.293 41.293a1 1 0 1 1 -1.414 1.414l-10.707-10.707 10.707-10.707a1 1 0 0 1 1.414 1.414l-9.293 9.293zm33.292 12.707h-34.999a1 1 0 0 1 0-2h34.999a1 1 0 0 1 0 2zm0-6h-25.999a1 1 0 0 1 0-2h25.999a1 1 0 0 1 0 2zm0-6h-25.999a1 1 0 0 1 0-2h25.999a1 1 0 0 1 0 2zm0-6h-25.999a1 1 0 0 1 0-2h25.999a1 1 0 0 1 0 2zm0-6h-25.999a1 1 0 0 1 0-2h25.999a1 1 0 0 1 0 2zm0-6h-25.999a1 1 0 0 1 0-2h25.999a1 1 0 0 1 0 2zm.001-6h-26a1 1 0 0 1 0-2h26a1 1 0 0 1 0 2zm0-6h-35a1 1 0 0 1 0-2h35a1 1 0 0 1 0 2z" fill="#2e2c2d"/></svg>