<svg viewBox="0 0 64 64" xmlns="http://www.w3.org/2000/svg"><path d="m62 0h-60a2 2 0 0 0 -2 2v60a2 2 0 0 0 2 2h60a2 2 0 0 0 2-2v-60a2 2 0 0 0 -2-2zm-32.932 10.001 19.932-.001a1 1 0 0 1 0 2l-19.932.001a1 1 0 0 1 0-2zm-7.775 37.292a1 1 0 0 1 1.414 1.414l-6.707 6.708-6.707-6.708a1 1 0 0 1 1.414-1.414l4.293 4.293v-39.171l-4.293 4.292a1 1 0 0 1 -1.414-1.414l5.999-5.999.003-.002.705-.706.705.706.003.002 5.999 5.999a1 1 0 1 1 -1.414 1.414l-4.293-4.292v39.17zm32.714 6.708h-24.94a1 1 0 1 1 0-2h24.94a1 1 0 0 1 0 2zm0-6h-24.94a1 1 0 1 1 0-2h24.94a1 1 0 0 1 0 2zm-25.94-7a1 1 0 0 1 1-1l19.933-.001a1 1 0 0 1 0 2l-19.932.001a1 1 0 0 1 -1-1zm25.94-11h-24.94a1 1 0 0 1 0-2h24.94a1 1 0 0 1 0 2zm0-6h-24.94a1 1 0 0 1 0-2h24.94a1 1 0 0 1 0 2zm0-6h-24.94a1 1 0 0 1 0-2h24.94a1 1 0 0 1 0 2z" fill="#2e2c2d"/></svg>