<svg viewBox="0 0 64 64" xmlns="http://www.w3.org/2000/svg"><path d="m62 0h-60a2 2 0 0 0 -2 2v60a2 2 0 0 0 2 2h60a2 2 0 0 0 2-2v-60a2 2 0 0 0 -2-2zm-52 10h35a1 1 0 0 1 0 2h-35a1 1 0 0 1 0-2zm0 6h26a1 1 0 0 1 0 2h-26a1 1 0 0 1 0-2zm26 26h-25.999a1 1 0 0 1 0-2h25.999a1 1 0 0 1 0 2zm1 5a1 1 0 0 1 -1 1h-25.999a1 1 0 0 1 0-2h25.999a1 1 0 0 1 1 1zm-1-11h-25.999a1 1 0 0 1 0-2h25.999a1 1 0 0 1 0 2zm0-6h-25.999a1 1 0 0 1 0-2h25.999a1 1 0 0 1 0 2zm0-6h-25.999a1 1 0 0 1 0-2h25.999a1 1 0 0 1 0 2zm9 30h-34.999a1 1 0 0 1 0-2h34.999a1 1 0 0 1 0 2zm-.293-11.293a1 1 0 0 1 -1.414-1.414l9.293-9.293-9.293-9.293a1 1 0 0 1 1.414-1.414l10.707 10.707z" fill="#2e2c2d"/></svg>