<svg viewBox="0 0 64 64" xmlns="http://www.w3.org/2000/svg"><g fill="#2e2c2d"><path d="m2 51.2c11 0 23.3 1.2 28 5.7v-44c-4.7-4.5-17-5.7-28-5.7zm8.1-35.8a61.9 61.9 0 0 1 14.5 2.4 2 2 0 0 1 -.6 3.9h-.6a58 58 0 0 0 -13.6-2.3 2 2 0 0 1 .3-4zm0 7.5a61.9 61.9 0 0 1 14.5 2.4 2 2 0 0 1 -.6 3.9h-.6a58.1 58.1 0 0 0 -13.6-2.3 2 2 0 0 1 .3-4zm0 8a61.9 61.9 0 0 1 14.5 2.4 2 2 0 0 1 -.6 3.9h-.6a58.1 58.1 0 0 0 -13.6-2.3 2 2 0 0 1 .3-4zm0 7.5a61.9 61.9 0 0 1 14.5 2.4 2 2 0 0 1 -.6 3.9h-.6a58 58 0 0 0 -13.6-2.3 2 2 0 0 1 .3-4z"/><path d="m34 12.8v44c4.7-4.4 17-5.7 28-5.7v-43.9c-11 0-23.3 1.2-28 5.6zm20.1 29.6a58 58 0 0 0 -13.6 2.2h-.5a2 2 0 0 1 -.6-3.9 61.9 61.9 0 0 1 14.5-2.4 2 2 0 0 1 .3 4zm0-7.5a58.1 58.1 0 0 0 -13.5 2.1h-.6a2 2 0 0 1 -.6-3.9 61.9 61.9 0 0 1 14.5-2.4 2 2 0 1 1 .3 4zm0-8a58.1 58.1 0 0 0 -13.6 2.2h-.5a2 2 0 0 1 -.6-3.9 61.9 61.9 0 0 1 14.5-2.4 2 2 0 1 1 .3 4zm0-7.5a58 58 0 0 0 -13.6 2.2h-.5a2 2 0 0 1 -.6-3.9 61.9 61.9 0 0 1 14.5-2.4 2 2 0 0 1 .3 4z"/></g></svg>