<svg viewBox="0 0 64 64" xmlns="http://www.w3.org/2000/svg"><g fill="#2e2c2d"><path d="m62 20.5-30-15.002-30 15.002 30 12.998z"/><path d="m2.154 29.314 29 13a2 2 0 0 0 1.691 0l29-13a2 2 0 0 0 -1.691-3.625l-28.154 12.606-28.154-12.606a2 2 0 0 0 -1.691 3.625z"/><path d="m60.154 33.688-28.154 12.603-28.154-12.603a2 2 0 1 0 -1.691 3.625l29 13a2 2 0 0 0 1.691 0l29-13a2 2 0 0 0 -1.691-3.625z"/><path d="m60.154 41.691-28.154 12.604-28.154-12.604a2 2 0 0 0 -1.691 3.625l29 13a2 2 0 0 0 1.691 0l29-13a2 2 0 0 0 -1.691-3.625z"/></g></svg>