<svg viewBox="0 0 64 64" xmlns="http://www.w3.org/2000/svg"><path d="m62 0h-60a2 2 0 0 0 -2 2v60a2 2 0 0 0 2 2h60a2 2 0 0 0 2-2v-60a2 2 0 0 0 -2-2zm-52 10 43.988-.004v2l-43.988.004a1 1 0 0 1 0-2zm43.988 44.004-37.988-.004a1 1 0 0 1 0-2l37.988.004a1 1 0 0 1 0 2zm0-6.001h-30.988a1 1 0 0 1 0-2h30.988a1 1 0 0 1 0 2zm0-6.001-35.988-.002a1 1 0 0 1 0-2l35.988.002a1 1 0 0 1 0 2zm0-6.002h-44.988a1 1 0 0 1 0-2h44.988a1 1 0 0 1 0 2zm0-6h-36.988a1 1 0 0 1 0-2h36.988a1 1 0 0 1 0 2zm0-6.002h-30.988a1 1 0 0 1 0-2h30.988a1 1 0 0 1 0 2zm0-6.001-34.988.003a1 1 0 0 1 0-2l34.988-.003a1 1 0 0 1 0 2z" fill="#2e2c2d"/></svg>