<svg viewBox="0 0 64 64" xmlns="http://www.w3.org/2000/svg"><path d="m62 0h-60a2 2 0 0 0 -2 2v60a2 2 0 0 0 2 2h60a2 2 0 0 0 2-2v-60a2 2 0 0 0 -2-2zm-29.999 59c-8.309 0-15.068-6.25-15.068-13.931a2 2 0 0 1 4 0c0 5.476 4.965 9.931 11.067 9.931s11.068-4.455 11.068-9.931a9.659 9.659 0 0 0 -2.589-6.27 2 2 0 0 1 3.047-2.591 13.53 13.53 0 0 1 3.542 8.86c.001 7.682-6.759 13.932-15.068 13.932zm22.999-25.002h-19.664l-.003.001-.005-.001h-26.328a2 2 0 0 1 0-4h18.544c-5.918-3.907-8.907-8.185-8.907-12.77 0-6.744 5.995-12.228 13.363-12.228 7.369 0 13.364 5.485 13.364 12.228a2 2 0 0 1 -4 0c.001-4.538-4.199-8.228-9.364-8.228-5.164 0-9.364 3.69-9.364 8.228 0 3.845 3.469 7.663 10.312 11.345l2.856 1.425h19.196a2 2 0 1 1 0 4z" fill="#2e2c2d"/></svg>