<svg viewBox="0 0 64 64" xmlns="http://www.w3.org/2000/svg"><path d="m54.2 2h-44.4a7.8 7.8 0 0 0 -7.8 7.8v44.4a7.8 7.8 0 0 0 7.8 7.8h44.4a7.8 7.8 0 0 0 7.8-7.8v-44.4a7.8 7.8 0 0 0 -7.8-7.8zm-40.2 28a2 2 0 1 1 -4 0v-12a2 2 0 1 1 4 0zm10.6-13.4a2 2 0 1 1 2.8 2.8l-2.6 2.6h19.2a2 2 0 0 1 0 4h-19.2l2.6 2.6a2 2 0 1 1 -2.8 2.8l-6-6-1.4-1.4zm20.8 24.8-6 6a2 2 0 1 1 -2.8-2.8l2.6-2.6h-19.2a2 2 0 0 1 0-4h19.2l-2.6-2.6a2 2 0 1 1 2.8-2.8l7.4 7.4zm8.6 4.6a2 2 0 1 1 -4 0v-12a2 2 0 0 1 4 0z" fill="#2e2c2d"/></svg>