<svg viewBox="0 0 64 64" xmlns="http://www.w3.org/2000/svg"><path d="m62 0h-60a2 2 0 0 0 -2 2v60a2 2 0 0 0 2 2h60a2 2 0 0 0 2-2v-60a2 2 0 0 0 -2-2zm-30 21.007a2 2 0 1 1 -4 0v-.998h-6v24.986h1.999a2 2 0 1 1 0 4h-3.98l-.019.002-.02-.002h-3.979a2 2 0 0 1 0-4h1.999v-24.985h-6.001v.998a2 2 0 0 1 -4 0v-4.998h11.914c.03-.002.057-.009.087-.009s.058.007.087.009h11.913zm24 0a2 2 0 1 1 -4 0v-.998h-6v24.986h1.999a2 2 0 0 1 0 4h-3.98l-.019.002-.02-.002h-3.979a2 2 0 0 1 0-4h1.999v-24.985h-4.999a2 2 0 0 1 0-4h6.912c.03-.002.057-.009.087-.009s.058.007.087.009h11.913z" fill="#2e2c2d"/></svg>