<svg viewBox="0 0 64 64" xmlns="http://www.w3.org/2000/svg"><path d="m62 0h-60a2 2 0 0 0 -2 2v60a2 2 0 0 0 2 2h60a2 2 0 0 0 2-2v-60a2 2 0 0 0 -2-2zm-43.916 47.09a2 2 0 1 1 2.829 2.829l-5.913 5.911-1.378-1.377a1.973 1.973 0 0 1 -.081-.082l-4.454-4.451a2 2 0 0 1 2.829-2.829l1.076 1.076v-32.323l-1.076 1.076a2 2 0 0 1 -2.829-2.83l4.455-4.453c.025-.028.052-.054.08-.08l1.377-1.378 5.914 5.91a2 2 0 1 1 -2.829 2.83l-1.092-1.093v32.357zm36.916-26.082a2 2 0 0 1 -4 0v-2.008h-8.994v27.996h5.002a2 2 0 0 1 0 4h-14.008a2 2 0 0 1 0-4h5.006v-27.996h-9.018v2.023a2 2 0 0 1 -4 0v-6.023h30.012z" fill="#2e2c2d"/></svg>