<svg width="0" height="0" class="hidden">
  <symbol xmlns="http://www.w3.org/2000/svg" viewBox="0 0 64 64" id="sun-1">
    <title>Sun</title>
    <desc>A solid styled icon from Orion Icon Library.</desc>
    <circle data-name="layer2"
    cx="32" cy="32" r="15" fill="#2e2c2d"></circle>
    <path data-name="layer1" d="M32 12a2 2 0 0 0 2-2V2a2 2 0 0 0-4 0v8a2 2 0 0 0 2 2zm0 40a2 2 0 0 0-2 2v8a2 2 0 0 0 4 0v-8a2 2 0 0 0-2-2zm30-22h-8a2 2 0 1 0 0 4h8a2 2 0 0 0 0-4zm-50 2a2 2 0 0 0-2-2H2a2 2 0 0 0 0 4h8a2 2 0 0 0 2-2zm3-14.1a2 2 0 1 0 2.9-2.9l-5.7-5.6a2 2 0 1 0-2.8 2.8zm34 28.2a2 2 0 0 0-2.9 2.9l5.7 5.7a2 2 0 1 0 2.8-2.8zm-1.4-27.7a2 2 0 0 0 1.4-.6l5.7-5.7a2 2 0 1 0-2.8-2.8L46.1 15a2 2 0 0 0 1.4 3.4zM15 46.1l-5.6 5.7a2 2 0 1 0 2.8 2.8l5.7-5.6a2 2 0 0 0-2.9-2.9z"
    fill="#2e2c2d"></path>
  </symbol>
  <symbol xmlns="http://www.w3.org/2000/svg" viewBox="0 0 64 64" id="sunny-1">
    <title>Sunny</title>
    <desc>A solid styled icon from Orion Icon Library.</desc>
    <path data-name="layer1"
    d="M62 30H47.9a15.9 15.9 0 0 0-3.2-7.8l10-10a2 2 0 0 0-2.8-2.8l-10 10a15.9 15.9 0 0 0-7.9-3.3V2a2 2 0 0 0-4 0v14.2a15.9 15.9 0 0 0-7.8 3.2l-10-10a2 2 0 1 0-2.8 2.8l10 10a15.9 15.9 0 0 0-3.2 7.8H2a2 2 0 1 0 0 4h14.2a15.9 15.9 0 0 0 3.2 7.8l-10 10a2 2 0 1 0 2.8 2.8l10-10a15.9 15.9 0 0 0 7.8 3.3V62a2 2 0 0 0 4 0V47.9a15.9 15.9 0 0 0 7.8-3.2l10 10a2 2 0 1 0 2.8-2.8l-10-10a15.9 15.9 0 0 0 3.3-7.9H62a2 2 0 1 0 0-4z"
    fill="#2e2c2d"></path>
  </symbol>
  <symbol xmlns="http://www.w3.org/2000/svg" viewBox="0 0 64 64" id="sun-and-moon-1">
    <title>Sun And Moon</title>
    <desc>A solid styled icon from Orion Icon Library.</desc>
    <path data-name="layer2"
    d="M35.9 15.9a2 2 0 0 0 2-2v-8a2 2 0 1 0-4 0v8a2 2 0 0 0 2 2zm-20 20a2 2 0 0 0-2-2h-8a2 2 0 0 0 0 4h8a2 2 0 0 0 2-2zm3-14.1a2 2 0 1 0 2.8-2.8L16 13.3a2 2 0 1 0-2.8 2.8z"
    fill="#2e2c2d"></path>
    <path data-name="layer1" d="M59.5 14.3a2 2 0 0 0-2.8 0l-9.9 9.9a16 16 0 0 0-22.6 22.6l-9.9 9.9a2 2 0 1 0 2.8 2.8l10.1-10.1a16 16 0 0 0 22.2-22.1l10.1-10.2a2 2 0 0 0 0-2.8zm-23.6 9.6a11.9 11.9 0 0 1 8 3.1L27 43.9a12 12 0 0 1 8.9-20z"
    fill="#2e2c2d"></path>
  </symbol>
  <symbol xmlns="http://www.w3.org/2000/svg" viewBox="0 0 64 64" id="half-sun-1">
    <title>Half Sun</title>
    <desc>A solid styled icon from Orion Icon Library.</desc>
    <path data-name="layer1"
    d="M35.9 15.9a2 2 0 0 0 2-2v-8a2 2 0 1 0-4 0v8a2 2 0 0 0 2 2zm-20 20a2 2 0 0 0-2-2h-8a2 2 0 0 0 0 4h8a2 2 0 0 0 2-2zm3-14.1a2 2 0 1 0 2.8-2.8L16 13.3a2 2 0 0 0-2.8 2.8z"
    fill="#2e2c2d"></path>
    <path data-name="layer2" d="M59.5 14.3a2 2 0 0 0-2.8 0L14.3 56.7a2 2 0 1 0 2.8 2.8l42.4-42.4a2 2 0 0 0 0-2.8z"
    fill="#2e2c2d"></path>
    <path data-name="layer1" d="M21.9 43.6l21.7-21.7a16 16 0 0 0-21.7 21.7z"
    fill="#2e2c2d"></path>
  </symbol>
  <symbol xmlns="http://www.w3.org/2000/svg" viewBox="0 0 64 64" id="sunrise-1">
    <title>Sunrise</title>
    <desc>A solid styled icon from Orion Icon Library.</desc>
    <path data-name="layer1"
    d="M32 25a2 2 0 0 0 2-2v-8a2 2 0 1 0-4 0v8a2 2 0 0 0 2 2zm16 16a2 2 0 0 0 2 2h8a2 2 0 0 0 0-4h-8a2 2 0 0 0-2 2zM6 43h8a2 2 0 0 0 0-4H6a2 2 0 0 0 0 4z"
    fill="#2e2c2d"></path>
    <path data-name="layer2" d="M62 47H2a2 2 0 1 0 0 4h60a2 2 0 0 0 0-4z"
    fill="#2e2c2d"></path>
    <path data-name="layer1" d="M19 30.8a2 2 0 1 0 2.9-2.8l-5.7-5.7a2 2 0 1 0-2.8 2.8zm24.6.6a2 2 0 0 0 1.4-.6l5.7-5.7a2 2 0 1 0-2.8-2.8L42.1 28a2 2 0 0 0 1.4 3.4zM20.2 43h23.6a12 12 0 1 0-23.6 0z"
    fill="#2e2c2d"></path>
  </symbol>
  <symbol xmlns="http://www.w3.org/2000/svg" viewBox="0 0 64 64" id="sunset-1">
    <title>Sunset</title>
    <desc>A solid styled icon from Orion Icon Library.</desc>
    <path data-name="layer2"
    d="M62 38H2a2 2 0 0 0 0 4h60a2 2 0 0 0 0-4z" fill="#2e2c2d"></path>
    <path data-name="layer1" d="M44 34a12 12 0 1 0-24 0h24z" fill="#2e2c2d"></path>
  </symbol>
  <symbol xmlns="http://www.w3.org/2000/svg" viewBox="0 0 64 64" id="sun-setting-down-1">
    <title>Sun Setting Down</title>
    <desc>A solid styled icon from Orion Icon Library.</desc>
    <path data-name="layer1"
    d="M32 16.6a2 2 0 0 0 2-2v-8a2 2 0 1 0-4 0v8a2 2 0 0 0 2 2zm16 16a2 2 0 0 0 2 2h8a2 2 0 0 0 0-4h-8a2 2 0 0 0-2 2zm-42 2h8a2 2 0 0 0 0-4H6a2 2 0 0 0 0 4z"
    fill="#2e2c2d"></path>
    <path data-name="layer2" d="M62 38.6H2a2 2 0 0 0 0 4h28v9.2l-2.6-2.6a2 2 0 0 0-2.8 2.8l7.4 7.4 1.4-1.4 6-6a2 2 0 1 0-2.8-2.8L34 51.8v-9.2h28a2 2 0 0 0 0-4z"
    fill="#2e2c2d"></path>
    <path data-name="layer1" d="M19 22.4a2 2 0 0 0 2.8-2.8l-5.7-5.7a2 2 0 1 0-2.8 2.8zm24.6.6a2 2 0 0 0 1.4-.6l5.7-5.7a2 2 0 0 0-2.8-2.8l-5.7 5.7a2 2 0 0 0 1.4 3.4zM20.2 34.6h23.6a12 12 0 1 0-23.6 0z"
    fill="#2e2c2d"></path>
  </symbol>
  <symbol xmlns="http://www.w3.org/2000/svg" viewBox="0 0 64 64" id="sun-rising-1">
    <title>Sun Rising</title>
    <desc>A solid styled icon from Orion Icon Library.</desc>
    <path data-name="layer1"
    d="M32 22a2 2 0 0 0 2-2v-8a2 2 0 1 0-4 0v8a2 2 0 0 0 2 2zm18 18a2 2 0 0 0 2 2h8a2 2 0 0 0 0-4h-8a2 2 0 0 0-2 2zM4 42h8a2 2 0 0 0 0-4H4a2 2 0 0 0 0 4z"
    fill="#2e2c2d"></path>
    <path data-name="layer2" d="M62 50H34v-9.2l2.6 2.6a2 2 0 1 0 2.8-2.8L32 33.2l-1.4 1.4-6 6a2 2 0 1 0 2.8 2.8l2.6-2.6V50H2a2 2 0 0 0 0 4h60a2 2 0 0 0 0-4z"
    fill="#2e2c2d"></path>
    <path data-name="layer1" d="M17 27.8a2 2 0 1 0 2.9-2.8l-5.7-5.7a2 2 0 0 0-2.8 2.8zm28.6.6a2 2 0 0 0 1.4-.6l5.7-5.7a2 2 0 0 0-2.8-2.8L44.1 25a2 2 0 0 0 1.4 3.4zM19.4 46h2.2a6 6 0 0 1 .2-8.2l6-6 .4-.4.9-.9 2.9-3 2.8 2.8 7.4 7.4a6 6 0 0 1 .2 8.2h2.2A13.9 13.9 0 0 0 46 40a14 14 0 1 0-28 0 13.9 13.9 0 0 0 1.4 6z"
    fill="#2e2c2d"></path>
  </symbol>
  <symbol xmlns="http://www.w3.org/2000/svg" viewBox="0 0 64 64" id="dawn-1">
    <title>Dawn</title>
    <desc>A solid styled icon from Orion Icon Library.</desc>
    <path data-name="layer1"
    d="M32 28a2 2 0 0 0 2-2v-8a2 2 0 1 0-4 0v8a2 2 0 0 0 2 2z" fill="#2e2c2d"></path>
    <path data-name="layer2" d="M56 44H8a2 2 0 0 0 0 4h48a2 2 0 0 0 0-4z"
    fill="#2e2c2d"></path>
    <path data-name="layer1" d="M44.6 40a14 14 0 0 0-25.3 0zM17 33.8a2 2 0 0 0 2.9-2.8l-5.7-5.7a2 2 0 1 0-2.8 2.8zm28.6.6a2 2 0 0 0 1.4-.6l5.7-5.7a2 2 0 0 0-2.8-2.8L44.1 31a2 2 0 0 0 1.4 3.4z"
    fill="#2e2c2d"></path>
  </symbol>
  <symbol xmlns="http://www.w3.org/2000/svg" viewBox="0 0 64 64" id="morning-1">
    <title>Morning</title>
    <desc>A solid styled icon from Orion Icon Library.</desc>
    <path data-name="layer2"
    d="M8 38h48a2 2 0 0 0 0-4H8a2 2 0 1 0 0 4zm54 4H2a2 2 0 1 0 0 4h60a2 2 0 0 0 0-4zm-14 8H18a2 2 0 0 0 0 4h30a2 2 0 0 0 0-4z"
    fill="#2e2c2d"></path>
    <path data-name="layer1" d="M49.9 30a18.2 18.2 0 0 0 .1-2 18 18 0 0 0-36 0 18.2 18.2 0 0 0 .1 2z"
    fill="#2e2c2d"></path>
  </symbol>
  <symbol xmlns="http://www.w3.org/2000/svg" viewBox="0 0 64 64" id="clear-weather-sun-1">
    <title>Clear Weather Sun</title>
    <desc>A solid styled icon from Orion Icon Library.</desc>
    <circle data-name="layer1"
    cx="32" cy="32" r="20" fill="#2e2c2d"></circle>
  </symbol>
  <symbol xmlns="http://www.w3.org/2000/svg" viewBox="0 0 64 64" id="crescent-moon-1">
    <title>Crescent Moon</title>
    <desc>A solid styled icon from Orion Icon Library.</desc>
    <path data-name="layer1"
    d="M33.9 11.9A16.8 16.8 0 0 1 12 35a20.1 20.1 0 1 0 21.9-23.1z" fill="#2e2c2d"></path>
  </symbol>
  <symbol xmlns="http://www.w3.org/2000/svg" viewBox="0 0 64 64" id="waning-crescent-moon-1">
    <title>Waning Crescent Moon</title>
    <desc>A solid styled icon from Orion Icon Library.</desc>
    <path data-name="layer1"
    d="M32 10a22 22 0 1 0 22 22 22 22 0 0 0-22-22zM14 32a18 18 0 0 1 23-17.3 18 18 0 0 0 0 34.6A18 18 0 0 1 14 32z"
    fill="#2e2c2d"></path>
  </symbol>
  <symbol xmlns="http://www.w3.org/2000/svg" viewBox="0 0 64 64" id="third-quarter-moon-1">
    <title>Third Quarter Moon</title>
    <desc>A solid styled icon from Orion Icon Library.</desc>
    <path data-name="layer1"
    d="M32 10a22 22 0 1 0 22 22 22 22 0 0 0-22-22zM14 32a18 18 0 0 1 18-18v36a18 18 0 0 1-18-18z"
    fill="#2e2c2d"></path>
  </symbol>
  <symbol xmlns="http://www.w3.org/2000/svg" viewBox="0 0 64 64" id="waning-gibbous-moon-1">
    <title>Waning Gibbous Moon</title>
    <desc>A solid styled icon from Orion Icon Library.</desc>
    <path data-name="layer1"
    d="M32 10a22 22 0 1 0 22 22 22 22 0 0 0-22-22zM14 32a18 18 0 0 1 13-17.3 18 18 0 0 1 0 34.6A18 18 0 0 1 14 32z"
    fill="#2e2c2d"></path>
  </symbol>
  <symbol xmlns="http://www.w3.org/2000/svg" viewBox="0 0 64 64" id="waxing-crescent-moon-1">
    <title>Waxing Crescent Moon</title>
    <desc>A solid styled icon from Orion Icon Library.</desc>
    <path data-name="layer1"
    d="M32 10a22 22 0 1 0 22 22 22 22 0 0 0-22-22zm0 40a17.9 17.9 0 0 1-5-.7 18 18 0 0 0 0-34.6A18 18 0 1 1 32 50z"
    fill="#2e2c2d"></path>
  </symbol>
  <symbol xmlns="http://www.w3.org/2000/svg" viewBox="0 0 64 64" id="first-quarter-moon-1">
    <title>First Quarter Moon</title>
    <desc>A solid styled icon from Orion Icon Library.</desc>
    <path data-name="layer1"
    d="M32 10a22 22 0 1 0 22 22 22 22 0 0 0-22-22zm0 40V14a18 18 0 0 1 0 36z"
    fill="#2e2c2d"></path>
  </symbol>
  <symbol xmlns="http://www.w3.org/2000/svg" viewBox="0 0 64 64" id="waxing-gibbous-moon-1">
    <title>Waxing Gibbous Moon</title>
    <desc>A solid styled icon from Orion Icon Library.</desc>
    <path data-name="layer1"
    d="M32 10a22 22 0 1 0 22 22 22 22 0 0 0-22-22zm5 39.3a18 18 0 0 1 0-34.6 18 18 0 0 1 0 34.6z"
    fill="#2e2c2d"></path>
  </symbol>
  <symbol xmlns="http://www.w3.org/2000/svg" viewBox="0 0 64 64" id="crescent-moon-2">
    <title>Crescent Moon</title>
    <desc>A solid styled icon from Orion Icon Library.</desc>
    <path data-name="layer1"
    d="M34.8 2.1a25 25 0 0 1-22 36.8 24.9 24.9 0 0 1-10.6-2.4A30 30 0 1 0 34.8 2.1z"
    fill="#2e2c2d"></path>
  </symbol>
  <symbol xmlns="http://www.w3.org/2000/svg" viewBox="0 0 64 64" id="full-moon-1">
    <title>Full Moon</title>
    <desc>A solid styled icon from Orion Icon Library.</desc>
    <path data-name="layer1"
    d="M32 12a20 20 0 1 0 20 20 20 20 0 0 0-20-20zm-6.6 17.4a2 2 0 0 1-2.8 0 2 2 0 0 1 0-2.8 2.1 2.1 0 0 1 2.8 0 2 2 0 0 1 0 2.8zm8-8a2 2 0 0 1-1.4.6 2 2 0 0 1-1.4-.6A2 2 0 0 1 30 20a2 2 0 0 1 .6-1.4 2.1 2.1 0 0 1 2.8 0A2 2 0 0 1 34 20a2 2 0 0 1-.6 1.4zm10 6a2 2 0 0 1-2.8 0A2.1 2.1 0 0 1 40 26a2 2 0 0 1 .6-1.4A2 2 0 0 1 44 26a2 2 0 0 1-.6 1.4z"
    fill="#2e2c2d"></path>
  </symbol>
  <symbol xmlns="http://www.w3.org/2000/svg" viewBox="0 0 64 64" id="moon-1">
    <title>Moon</title>
    <desc>A solid styled icon from Orion Icon Library.</desc>
    <path data-name="layer1"
    d="M32 2a30 30 0 1 0 30 30A30 30 0 0 0 32 2zM18.1 33a3 3 0 1 1 3-3 3 3 0 0 1-3 3zM36 15a3 3 0 1 1 3-3 3 3 0 0 1-3 3zm12 12a3 3 0 1 1 3-3 3 3 0 0 1-3 3z"
    fill="#2e2c2d"></path>
  </symbol>
  <symbol xmlns="http://www.w3.org/2000/svg" viewBox="0 0 64 64" id="quarter-moon-1">
    <title>Quarter Moon</title>
    <desc>A solid styled icon from Orion Icon Library.</desc>
    <path data-name="layer1"
    d="M39 32a20 20 0 0 1 8.7-16.5 20 20 0 1 0 0 33A20 20 0 0 1 39 32z" fill="#2e2c2d"></path>
  </symbol>
  <symbol xmlns="http://www.w3.org/2000/svg" viewBox="0 0 64 64" id="moon-2">
    <title>Moon</title>
    <desc>A solid styled icon from Orion Icon Library.</desc>
    <path data-name="layer1"
    d="M42.5 32a30 30 0 0 1 13-24.7 30 30 0 1 0 0 49.4 30 30 0 0 1-13-24.7z"
    fill="#2e2c2d"></path>
  </symbol>
  <symbol xmlns="http://www.w3.org/2000/svg" viewBox="0 0 64 64" id="half-moon-1">
    <title>Half Moon</title>
    <desc>A solid styled icon from Orion Icon Library.</desc>
    <path data-name="layer1"
    d="M63.4.6a2 2 0 0 0-2.8 0l-19.1 19A20.1 20.1 0 0 0 23.9 3.9 16.8 16.8 0 0 1 2 27a20.1 20.1 0 0 0 15.6 16.6l-17 17a2 2 0 1 0 2.8 2.8l60-60a2 2 0 0 0 0-2.8z"
    fill="#2e2c2d"></path>
  </symbol>
  <symbol xmlns="http://www.w3.org/2000/svg" viewBox="0 0 64 64" id="sun-and-moon-2">
    <title>Sun And Moon</title>
    <desc>A solid styled icon from Orion Icon Library.</desc>
    <path data-name="layer2"
    d="M36.4 20.4a16 16 0 1 0 16 16 16 16 0 0 0-16-16zm0 28a12 12 0 0 1-10.3-5.8l2.5.3A13.7 13.7 0 0 0 42 25.8a12 12 0 0 1-5.6 22.6z"
    fill="#2e2c2d"></path>
    <path data-name="layer1" d="M36.4 16.4a2 2 0 0 0 2-2v-8a2 2 0 1 0-4 0v8a2 2 0 0 0 2 2zm-20 20a2 2 0 0 0-2-2h-8a2 2 0 0 0 0 4h8a2 2 0 0 0 2-2zm3-14.1a2 2 0 0 0 2.8-2.8l-5.7-5.7a2 2 0 0 0-2.8 2.8zM59 13.8a2 2 0 0 0-2.8 0l-5.7 5.7a2 2 0 1 0 2.8 2.8l5.7-5.7a2 2 0 0 0 0-2.8zM19.4 50.5l-5.7 5.7a2 2 0 1 0 2.9 2.8l5.7-5.7a2 2 0 1 0-2.8-2.8z"
    fill="#2e2c2d"></path>
  </symbol>
  <symbol xmlns="http://www.w3.org/2000/svg" viewBox="0 0 64 64" id="cloud-1">
    <title>Cloud</title>
    <desc>A solid styled icon from Orion Icon Library.</desc>
    <path data-name="layer1"
    d="M49 24h-.5a17 17 0 0 0-32.3 4.4A11 11 0 1 0 13 50h36a13 13 0 0 0 0-26z"
    fill="#2e2c2d"></path>
  </symbol>
  <symbol xmlns="http://www.w3.org/2000/svg" viewBox="0 0 64 64" id="partly-cloudy-1">
    <title>Partly Cloudy</title>
    <desc>A solid styled icon from Orion Icon Library.</desc>
    <path data-name="layer1"
    d="M24.5 17.5a2 2 0 0 0 2-2v-6a2 2 0 1 0-4 0v6a2 2 0 0 0 2 2zm-13 13a2 2 0 0 0-2-2h-6a2 2 0 0 0 0 4h6a2 2 0 0 0 2-2zm1.3-8.9a2 2 0 1 0 2.8-2.8l-4.3-4.3a2 2 0 0 0-2.8 2.8zm22 .6a2 2 0 0 0 1.4-.6l4.3-4.3a2 2 0 1 0-2.8-2.8l-4.3 4.3a2 2 0 0 0 1.4 3.4zm-22 17.2l-4.3 4.3a2 2 0 1 0 2.8 2.8l4.3-4.3a2 2 0 0 0-2.8-2.8z"
    fill="#2e2c2d"></path>
    <path data-name="layer2" d="M52.5 36.5a13 13 0 0 0-25 4.1h-1a8 8 0 0 0 0 16h26a10 10 0 0 0 0-20z"
    fill="#2e2c2d"></path>
    <path data-name="layer1" d="M24.2 36.7A17.1 17.1 0 0 1 33.4 26a10 10 0 1 0-14.2 13 11.9 11.9 0 0 1 5-2.3z"
    fill="#2e2c2d"></path>
  </symbol>
  <symbol xmlns="http://www.w3.org/2000/svg" viewBox="0 0 64 64" id="cloudy-1">
    <title>Cloudy</title>
    <desc>A solid styled icon from Orion Icon Library.</desc>
    <path data-name="layer2"
    d="M50 29h-1.2a16 16 0 0 0-30.7 4H18a10 10 0 1 0 0 20h32.1a12 12 0 0 0-.1-24z"
    fill="#2e2c2d"></path>
    <path data-name="layer1" d="M24.6 17.4a12 12 0 1 0-16.7 16 14 14 0 0 1 6.9-4 20 20 0 0 1 9.8-12z"
    fill="#2e2c2d"></path>
  </symbol>
  <symbol xmlns="http://www.w3.org/2000/svg" viewBox="0 0 64 64" id="night-cloudy-1">
    <title>Night Cloudy</title>
    <desc>A solid styled icon from Orion Icon Library.</desc>
    <path data-name="layer2"
    d="M50 31h-1.2a16 16 0 0 0-30.7 4H18a10 10 0 1 0 0 20h32.1a12 12 0 0 0-.1-24z"
    fill="#2e2c2d"></path>
    <path data-name="layer1" d="M14.8 31.4a20.1 20.1 0 0 1 14.1-13.7A14 14 0 0 0 16 9h-.8A10 10 0 0 1 2 22.2v.8a14 14 0 0 0 6.4 11.8 14 14 0 0 1 6.4-3.4z"
    fill="#2e2c2d"></path>
  </symbol>
  <symbol xmlns="http://www.w3.org/2000/svg" viewBox="0 0 64 64" id="clouds-1">
    <title>Clouds</title>
    <desc>A solid styled icon from Orion Icon Library.</desc>
    <path data-name="layer2"
    d="M44 31h-1.2a16 16 0 0 0-30.7 4H12a10 10 0 1 0 0 20h32.1a12 12 0 0 0-.1-24z"
    fill="#2e2c2d"></path>
    <path data-name="layer1" d="M52 17a13 13 0 0 0-24 0 19.9 19.9 0 0 1 17.3 10.1 16 16 0 0 1 12.5 8A10 10 0 0 0 52 17z"
    fill="#2e2c2d"></path>
  </symbol>
  <symbol xmlns="http://www.w3.org/2000/svg" viewBox="0 0 64 64" id="fog-1">
    <title>Fog</title>
    <desc>A solid styled icon from Orion Icon Library.</desc>
    <path data-name="layer2"
    d="M49 18h-.5a17 17 0 0 0-32.3 4.4A11 11 0 0 0 2 32h60c0-7.2-5.8-14-13-14z"
    fill="#2e2c2d"></path>
    <path data-name="layer1" d="M62 36H2a2 2 0 0 0 0 4h60a2 2 0 0 0 0-4zm-4 8H8a2 2 0 0 0 0 4h50a2 2 0 0 0 0-4zm-30 8H12a2 2 0 0 0 0 4h16a2 2 0 0 0 0-4zm28 0H36a2 2 0 0 0 0 4h20a2 2 0 0 0 0-4z"
    fill="#2e2c2d"></path>
  </symbol>
  <symbol xmlns="http://www.w3.org/2000/svg" viewBox="0 0 64 64" id="cloudy-fog-1">
    <title>Cloudy Fog</title>
    <desc>A solid styled icon from Orion Icon Library.</desc>
    <path data-name="layer2"
    d="M59 39H3a2 2 0 0 0 0 4h56a2 2 0 0 0 0-4zm-4 8H7a2 2 0 0 0 0 4h48a2 2 0 0 0 0-4zm-4 8H13a2 2 0 0 0 0 4h38a2 2 0 0 0 0-4z"
    fill="#2e2c2d"></path>
    <path data-name="layer1" d="M45 25h-1.2a16 16 0 0 0-30.7 4H13a10 10 0 0 0-9.2 6h53A12 12 0 0 0 45 25zm1-4a15.9 15.9 0 0 1 13.4 9.6A10 10 0 0 0 53 13a13 13 0 0 0-23-2 19.9 19.9 0 0 1 16 10z"
    fill="#2e2c2d"></path>
  </symbol>
  <symbol xmlns="http://www.w3.org/2000/svg" viewBox="0 0 64 64" id="partly-cloudy-fog-1">
    <title>Partly Cloudy Fog</title>
    <desc>A solid styled icon from Orion Icon Library.</desc>
    <path data-name="layer2"
    d="M61.4 41.7H17.5a2 2 0 0 0 0 4h43.9a2 2 0 0 0 0-4zm-4 8H21.5a2 2 0 0 0 0 4h35.9a2 2 0 0 0 0-4zm-4 8H29.5a2 2 0 1 0 0 4h23.9a2 2 0 0 0 0-4zm-29.9 0h-3.9a2 2 0 0 0 0 4h3.9a2 2 0 0 0 0-4z"
    fill="#2e2c2d"></path>
    <path data-name="layer1" d="M23.6 12.3a2 2 0 0 0 2-2v-6a2 2 0 1 0-4 0v6a2 2 0 0 0 2 2zm-13 13a2 2 0 0 0-2-2h-6a2 2 0 0 0 0 4h6a2 2 0 0 0 2-2zm1.3-8.9a2 2 0 0 0 2.8-2.8l-4.3-4.3a2 2 0 0 0-2.8 2.8zm22 .6a2 2 0 0 0 1.4-.6l4.3-4.3a2 2 0 1 0-2.8-2.8l-4.3 4.3a2 2 0 0 0 1.4 3.4zm-22 17.2l-4.3 4.2a2 2 0 0 0 2.8 2.8l4.3-4.2a2 2 0 1 0-2.8-2.8zm14.7-1.8h-1a8 8 0 0 0-7.6 5.3h43.6a10 10 0 0 0-10-9.5 13 13 0 0 0-25 4.1zm-10-.1a12 12 0 0 1 6.7-3.9 17.1 17.1 0 0 1 7.7-9.8 10 10 0 1 0-14.4 13.7z"
    fill="#2e2c2d"></path>
  </symbol>
  <symbol xmlns="http://www.w3.org/2000/svg" viewBox="0 0 64 64" id="night-cloudy-fog-1">
    <title>Night Cloudy Fog</title>
    <desc>A solid styled icon from Orion Icon Library.</desc>
    <path data-name="layer2"
    d="M16.2 29H16a10 10 0 0 0-8 4h51.3A12 12 0 0 0 48 25h-1.1a16 16 0 0 0-30.7 4zm-9.5-.4a14.1 14.1 0 0 1 6.1-3.2 20.1 20.1 0 0 1 11.4-12.8A12 12 0 0 0 14 7h-.7A8.6 8.6 0 0 1 2 18.3v.7a12 12 0 0 0 4.7 9.6z"
    fill="#2e2c2d"></path>
    <path data-name="layer1" d="M60 37H6a2 2 0 0 0 0 4h54a2 2 0 1 0 0-4zm-6 8H10a2 2 0 1 0 0 4h44a2 2 0 0 0 0-4zm-4 8H18a2 2 0 0 0 0 4h32a2 2 0 0 0 0-4zm-38 0H8.1a2 2 0 0 0 0 4H12a2 2 0 0 0 0-4z"
    fill="#2e2c2d"></path>
  </symbol>
  <symbol xmlns="http://www.w3.org/2000/svg" viewBox="0 0 64 64" id="rain-1">
    <title>Rain</title>
    <desc>A solid styled icon from Orion Icon Library.</desc>
    <path data-name="layer2"
    d="M49 12h-.5a17 17 0 0 0-32.3 4.4A11 11 0 1 0 13 38h36a13 13 0 0 0 0-26z"
    fill="#2e2c2d"></path>
    <path data-name="layer1" d="M47 42a2 2 0 0 0-2 2v16a2 2 0 1 0 4 0V44a2 2 0 0 0-2-2zm-10 0a2 2 0 0 0-2 2v10a2 2 0 1 0 4 0V44a2 2 0 0 0-2-2zm-10 0a2 2 0 0 0-2 2v16a2 2 0 1 0 4 0V44a2 2 0 0 0-2-2zm-10 0a2 2 0 0 0-2 2v10a2 2 0 1 0 4 0V44a2 2 0 0 0-2-2z"
    fill="#2e2c2d"></path>
  </symbol>
  <symbol xmlns="http://www.w3.org/2000/svg" viewBox="0 0 64 64" id="drizzle-1">
    <title>Drizzle</title>
    <desc>A solid styled icon from Orion Icon Library.</desc>
    <path data-name="layer2"
    d="M49 12h-.5a17 17 0 0 0-32.3 4.4A11 11 0 1 0 13 38h36a13 13 0 0 0 0-26z"
    fill="#2e2c2d"></path>
    <path data-name="layer1" d="M47 42a2 2 0 0 0-2 2v10a2 2 0 1 0 4 0V44a2 2 0 0 0-2-2zm-10 0a2 2 0 0 0-2 2v4a2 2 0 1 0 4 0v-4a2 2 0 0 0-2-2zm-10 0a2 2 0 0 0-2 2v10a2 2 0 1 0 4 0V44a2 2 0 0 0-2-2zM17 52a2 2 0 0 0 2-2v-6a2 2 0 1 0-4 0v6a2 2 0 0 0 2 2zm-1.4 2.6a2 2 0 1 0 2.8 0 2.1 2.1 0 0 0-2.8 0zm10 4a2 2 0 0 0 0 2.8 2 2 0 0 0 1.4.6 2 2 0 0 0 1.4-.6 2 2 0 0 0 0-2.8 2.1 2.1 0 0 0-2.8 0zm10-6a2 2 0 0 0 0 2.8 2.1 2.1 0 0 0 1.4.6 2 2 0 0 0 2-2 2 2 0 0 0-.6-1.4 2.1 2.1 0 0 0-2.8 0zM47 58a2 2 0 0 0-2 2 2 2 0 1 0 2-2z"
    fill="#2e2c2d"></path>
  </symbol>
  <symbol xmlns="http://www.w3.org/2000/svg" viewBox="0 0 64 64" id="snow-flurry-1">
    <title>Snow Flurry</title>
    <desc>A solid styled icon from Orion Icon Library.</desc>
    <path data-name="layer1"
    d="M49 12h-.5a17 17 0 0 0-32.3 4.4A11 11 0 1 0 13 38h36a13 13 0 0 0 0-26z"
    fill="#2e2c2d"></path>
    <path data-name="layer2" d="M19 42a2 2 0 0 0-2 2 2 2 0 1 0 2-2zm-4 8a2 2 0 0 0-2 2 2 2 0 1 0 2-2zm4 8a2 2 0 0 0-2 2 2 2 0 1 0 2-2zm10-10a2 2 0 1 0-4 0 2 2 0 1 0 4 0zm0 6a2 2 0 0 0-2 2 2 2 0 1 0 2-2zm10-2a2 2 0 1 0-4 0 2 2 0 1 0 4 0zm0-10a2 2 0 0 0-2 2 2 2 0 1 0 2-2zm0 16a2 2 0 0 0-2 2 2 2 0 1 0 2-2zm8-4a2 2 0 0 0-2 2 2 2 0 1 0 2-2zm2-10a2 2 0 0 0-2 2 2 2 0 1 0 2-2z"
    fill="#2e2c2d"></path>
    <path data-name="layer1" d="M32 30a2 2 0 0 0-2 2 2 2 0 1 0 2-2z"
    fill="#2e2c2d"></path>
  </symbol>
  <symbol xmlns="http://www.w3.org/2000/svg" viewBox="0 0 64 64" id="heavy-rain-1">
    <title>Heavy Rain</title>
    <desc>A solid styled icon from Orion Icon Library.</desc>
    <path data-name="layer2"
    d="M49 12h-.5a17 17 0 0 0-32.3 4.4A11 11 0 1 0 13 38h36a13 13 0 0 0 0-26z"
    fill="#2e2c2d"></path>
    <path data-name="layer1" d="M6.6 54A2 2 0 0 1 5 50.8l6.4-8a2 2 0 1 1 3.1 2.5l-6.4 8a2 2 0 0 1-1.5.7zm5.6 8a2 2 0 0 1-1.6-3.2l12.8-16a2 2 0 1 1 3.1 2.5l-12.8 16a2 2 0 0 1-1.5.7zm18.4-8a2 2 0 0 1-1.6-3.2l6.4-8a2 2 0 1 1 3.1 2.5l-6.4 8a2 2 0 0 1-1.5.7zm5.6 8a2 2 0 0 1-1.6-3.2l12.8-16a2 2 0 1 1 3.1 2.5l-12.8 16a2 2 0 0 1-1.5.7z"
    fill="#2e2c2d"></path>
  </symbol>
  <symbol xmlns="http://www.w3.org/2000/svg" viewBox="0 0 64 64" id="light-rain-1">
    <title>Light Rain</title>
    <desc>A solid styled icon from Orion Icon Library.</desc>
    <path data-name="layer2"
    d="M49.5 12H49a17 17 0 0 0-32.3 4.4A11 11 0 1 0 13.5 38h36a13 13 0 1 0 0-26z"
    fill="#2e2c2d"></path>
    <path data-name="layer1" d="M3.5 58.5a2 2 0 0 1-1.6-3.2l2-2.5A2 2 0 0 1 7 55.3l-2 2.5a2 2 0 0 1-1.5.7zm6.5-8.1a2 2 0 0 1-1.6-3.2l3.5-4.4a2 2 0 0 1 3.1 2.5l-3.5 4.4a2 2 0 0 1-1.5.7zM12.7 62a2 2 0 0 1-1.6-3.2l1.6-2a2 2 0 0 1 3.1 2.5l-1.6 2a2 2 0 0 1-1.5.7zm6.4-8a2 2 0 0 1-1.6-3.2l6.4-8a2 2 0 1 1 3.1 2.5l-6.4 8a2 2 0 0 1-1.5.7zm8.4 4.5a2 2 0 0 1-1.6-3.2l3.7-4.6a2 2 0 0 1 3.1 2.5L29 57.8a2 2 0 0 1-1.5.7zM35.9 48a2 2 0 0 1-1.6-3.2l1.6-2a2 2 0 0 1 3.1 2.5l-1.6 2a2 2 0 0 1-1.5.7zm.8 14a2 2 0 0 1-1.6-3.2l4.2-5.2a2 2 0 0 1 3.1 2.5l-4.2 5.2a2 2 0 0 1-1.5.7zm8.9-11.1a2 2 0 0 1-1.6-3.3l3.9-4.9a2 2 0 1 1 3.1 2.5l-3.9 4.9a2 2 0 0 1-1.5.8z"
    fill="#2e2c2d"></path>
  </symbol>
  <symbol xmlns="http://www.w3.org/2000/svg" viewBox="0 0 64 64" id="few-showers-1">
    <title>Few Showers</title>
    <desc>A solid styled icon from Orion Icon Library.</desc>
    <path data-name="layer2"
    d="M49 12h-.5a17 17 0 0 0-32.3 4.4A11 11 0 1 0 13 38h36a13 13 0 1 0 0-26z"
    fill="#2e2c2d"></path>
    <path data-name="layer1" d="M10.5 49.2A2 2 0 0 1 8.9 46l2.5-3.2a2 2 0 1 1 3.1 2.5L12 48.4a2 2 0 0 1-1.5.8zm5.4 8.1a2 2 0 0 1-1.6-3.2l9.1-11.3a2 2 0 1 1 3.1 2.5l-9 11.3a2 2 0 0 1-1.6.7zm18.6-8.2a2 2 0 0 1-1.5-3.3l2.5-3.1a2 2 0 1 1 3.1 2.5l-2.5 3.1a2 2 0 0 1-1.6.8zm5.4 8.2a2 2 0 0 1-1.6-3.2l9.1-11.3a2 2 0 1 1 3.1 2.5l-9 11.3a2 2 0 0 1-1.6.7zM6.6 54a2 2 0 0 1-1.4-.6 2.1 2.1 0 0 1-.6-1.4 2 2 0 0 1 .6-1.4 2.1 2.1 0 0 1 2.8 0 2 2 0 0 1 .6 1.4 2 2 0 0 1-2 2zm5.6 8a2.1 2.1 0 0 1-1.4-.6 2 2 0 0 1 0-2.8 2.1 2.1 0 0 1 2.8 0 2 2 0 0 1 0 2.8 2 2 0 0 1-1.4.6zm18.4-8a2 2 0 0 1-1.4-.6 2 2 0 0 1 0-2.8 2.1 2.1 0 0 1 2.8 0 2 2 0 0 1 0 2.8 2 2 0 0 1-1.4.6zm5.6 8a2.1 2.1 0 0 1-1.4-.6 2 2 0 0 1 0-2.8 2.1 2.1 0 0 1 2.8 0 2 2 0 0 1-1.4 3.4z"
    fill="#2e2c2d"></path>
  </symbol>
  <symbol xmlns="http://www.w3.org/2000/svg" viewBox="0 0 64 64" id="cloud-lightning-1">
    <title>Cloud Lightning</title>
    <desc>A solid styled icon from Orion Icon Library.</desc>
    <path data-name="layer2"
    d="M24.4 61a2 2 0 0 1-1.6-3.2l7-8.7h-8l12.6-15.8a2 2 0 1 1 3.1 2.5L30.2 45h8L26 60.2a2 2 0 0 1-1.6.8z"
    fill="#2e2c2d"></path>
    <path data-name="layer1" d="M49 13h-.5a17 17 0 0 0-32.3 4.4A11 11 0 1 0 13 39h11.7l6.6-8.3a6 6 0 1 1 9.4 7.5l-.6.8H49a13 13 0 0 0 0-26z"
    fill="#2e2c2d"></path>
  </symbol>
  <symbol xmlns="http://www.w3.org/2000/svg" viewBox="0 0 64 64" id="lightning-drizzle-1">
    <title>Lightning Drizzle</title>
    <desc>A solid styled icon from Orion Icon Library.</desc>
    <path data-name="layer1"
    d="M30.2 44l7.4-9.2a2 2 0 1 0-3.1-2.5L21.8 48h8l-7 8.7a2 2 0 0 0 3.2 2.5L38.2 44z"
    fill="#2e2c2d"></path>
    <path data-name="layer2" d="M49 12h-.5a17 17 0 0 0-32.3 4.4A11 11 0 1 0 13 38h11.7l6.6-8.3a6 6 0 1 1 9.4 7.5l-.6.8H49a13 13 0 0 0 0-26z"
    fill="#2e2c2d"></path>
    <path data-name="layer1" d="M8.2 54.9a2 2 0 0 0-2.8.3l-2.8 3.5a2 2 0 1 0 3.1 2.5l2.8-3.5a2 2 0 0 0-.3-2.8zm10-12.5a2 2 0 0 0-2.8.3l-5.9 7.4a2 2 0 1 0 3.1 2.5l5.9-7.4a2 2 0 0 0-.3-2.8zm26 7.6a2 2 0 0 0-2.8.3l-6.8 8.5a2 2 0 1 0 3.1 2.5l6.8-8.5a2 2 0 0 0-.3-2.8zm6.1-7.6a2 2 0 0 0-2.8.3l-1.6 2a2 2 0 0 0 3.1 2.5l1.6-2a2 2 0 0 0-.3-2.8z"
    fill="#2e2c2d"></path>
  </symbol>
  <symbol xmlns="http://www.w3.org/2000/svg" viewBox="0 0 64 64" id="lightning-rain-1">
    <title>Lightning Rain</title>
    <desc>A solid styled icon from Orion Icon Library.</desc>
    <path data-name="layer1"
    d="M37.6 35.8a2 2 0 1 0-3.1-2.5L21.8 49h8l-7 8.7a2 2 0 0 0 3.2 2.5L38.2 45h-8z"
    fill="#2e2c2d"></path>
    <path data-name="layer2" d="M49 13h-.5a17 17 0 0 0-32.3 4.4A11 11 0 1 0 13 39h11.7l6.6-8.3a6 6 0 1 1 9.4 7.5l-.6.8H49a13 13 0 0 0 0-26z"
    fill="#2e2c2d"></path>
    <path data-name="layer1" d="M17.3 43.4a2 2 0 0 0-2.8.3l-6.4 8a2 2 0 0 0 3.1 2.5l6.4-8a2 2 0 0 0-.3-2.8zm32 0a2 2 0 0 0-2.8.3l-6.4 7.9a2 2 0 0 0 3.1 2.5l6.4-7.9a2 2 0 0 0-.3-2.8z"
    fill="#2e2c2d"></path>
  </symbol>
  <symbol viewBox="0 0 64 64" xmlns="http://www.w3.org/2000/svg" id="hail-1">
    <title>Hail</title>
    <desc>A solid styled icon from Orion Icon Library.</desc>
    <path fill="#2e2c2d"
    d="M49 12.015c-.168 0-.33.02-.5.025a16.98 16.98 0 0 0-32.293 4.447A11 11 0 1 0 13 38.009h35.882c.039 0 .076.006.115.006a13 13 0 0 0 0-26z"
    data-name="layer2"></path>
    <path fill="#2e2c2d" d="M20 42a2.006 2.006 0 0 0-2 2v10.43a11.986 11.986 0 0 0-8.132-2.324 2 2 0 0 0 .334 3.986 8.01 8.01 0 0 1 7.973 4.721c.005.012.014.02.02.031A2 2 0 0 0 22 60V44a2.006 2.006 0 0 0-2-2zm-1.948 18.436l.006.018zm36.082-8.331A12 12 0 0 0 46 54.427V44a2 2 0 0 0-4 0v16a2 2 0 0 0 3.806.844c.005-.011.015-.019.02-.031a8.03 8.03 0 0 1 7.974-4.721 2 2 0 0 0 .334-3.986zm-8.191 8.35l.006-.02z"
    data-name="layer1"></path>
    <rect fill="#2e2c2d" ry="2" rx="2" height="14" width="4" y="42"
    x="26" data-name="layer1"></rect>
    <rect fill="#2e2c2d" ry="2" rx="2" height="10" width="4" y="42"
    x="34" data-name="layer1"></rect>
    <circle fill="#2e2c2d" r="2" cy="60" cx="28" data-name="layer1"></circle>
    <circle fill="#2e2c2d" r="2" cy="56" cx="36" data-name="layer1"></circle>
    <circle fill="#2e2c2d" r="2" cy="54" cx="60" data-name="layer1"></circle>
    <circle fill="#2e2c2d" r="2" cy="54" cx="4" data-name="layer1"></circle>
  </symbol>
  <symbol xmlns="http://www.w3.org/2000/svg" viewBox="0 0 64 64" id="heavy-snow-1">
    <title>Heavy Snow</title>
    <desc>A solid styled icon from Orion Icon Library.</desc>
    <path data-name="layer2"
    d="M47.9 12.2h-.5a15.8 15.8 0 0 0-30.1 4.2 10.1 10.1 0 0 0-3-.5 10.4 10.4 0 0 0 0 20.8h33.6a12.3 12.3 0 0 0 0-24.5z"
    fill="#2e2c2d"></path>
    <circle data-name="layer1" cx="16" cy="42.7" r="2.5" fill="#2e2c2d"></circle>
    <circle data-name="layer1" cx="24" cy="50.8" r="2.5" fill="#2e2c2d"></circle>
    <circle data-name="layer1" cx="32" cy="42.7" r="2.5" fill="#2e2c2d"></circle>
    <circle data-name="layer1" cx="48" cy="42.7" r="2.5" fill="#2e2c2d"></circle>
    <circle data-name="layer1" cx="40" cy="50.8" r="2.5" fill="#2e2c2d"></circle>
    <circle data-name="layer1" cx="16" cy="58.7" r="2.5" fill="#2e2c2d"></circle>
    <circle data-name="layer1" cx="32" cy="58.7" r="2.5" fill="#2e2c2d"></circle>
    <circle data-name="layer1" cx="48" cy="58.7" r="2.5" fill="#2e2c2d"></circle>
  </symbol>
  <symbol xmlns="http://www.w3.org/2000/svg" viewBox="0 0 64 64" id="snow-1">
    <title>Snow</title>
    <desc>A solid styled icon from Orion Icon Library.</desc>
    <path data-name="layer2"
    d="M47.9 13.5h-.5a15.8 15.8 0 0 0-30.1 4.2 10.1 10.1 0 0 0-3-.5 10.4 10.4 0 0 0 0 20.8h33.6a12.3 12.3 0 0 0 0-24.5z"
    fill="#2e2c2d"></path>
    <path data-name="layer1" d="M22 46a2 2 0 0 0-2-2 2 2 0 1 0-4 0 2 2 0 0 0 0 4 2 2 0 1 0 4 0 2 2 0 0 0 2-2zm14 0a2 2 0 0 0-2-2 2 2 0 0 0-2-2 2 2 0 0 0-2 2 2 2 0 0 0 0 4 2 2 0 0 0 2 2 2 2 0 0 0 2-2 2 2 0 0 0 2-2zm-8.6 8a2 2 0 0 0-2-2 2 2 0 0 0-2 2 2 2 0 0 0 0 4 2 2 0 0 0 2 2 2 2 0 0 0 2-2 2 2 0 0 0 0-4zm13.2 0a2 2 0 0 0-4 0 2 2 0 0 0 0 4 2 2 0 0 0 4 0 2 2 0 0 0 0-4zM48 44a2 2 0 0 0-4 0 2 2 0 0 0 0 4 2 2 0 1 0 4 0 2 2 0 0 0 0-4z"
    fill="#2e2c2d"></path>
  </symbol>
  <symbol xmlns="http://www.w3.org/2000/svg" viewBox="0 0 64 64" id="electrical-storm-1">
    <title>Electrical Storm</title>
    <desc>A solid styled icon from Orion Icon Library.</desc>
    <path data-name="layer1"
    d="M30.2 45l7.4-9.2a2 2 0 1 0-3.1-2.5L21.8 49h8l-7 8.7a2 2 0 0 0 3.2 2.5L38.2 45z"
    fill="#2e2c2d"></path>
    <path data-name="layer2" d="M49 13h-.5a17 17 0 0 0-32.3 4.4A11 11 0 1 0 13 39h11.7l6.6-8.3a6 6 0 1 1 9.4 7.5l-.6.8H49a13 13 0 0 0 0-26z"
    fill="#2e2c2d"></path>
    <path data-name="layer1" d="M15 46.3a2 2 0 0 0-3.1-2.5L4.5 53h6l-2.2 2.8a2 2 0 0 0 3.1 2.5l7.4-9.3h-6zm33.4 0a2 2 0 0 0-3.1-2.5L37.8 53h6l-2.2 2.8a2 2 0 0 0 3.1 2.5l7.5-9.3h-6z"
    fill="#2e2c2d"></path>
  </symbol>
  <symbol xmlns="http://www.w3.org/2000/svg" viewBox="0 0 64 64" id="sleet-1">
    <title>Sleet</title>
    <desc>A solid styled icon from Orion Icon Library.</desc>
    <path data-name="layer2"
    d="M16.3 42.4a2 2 0 0 0-2.8.3L7 50.8a2 2 0 0 0 3.1 2.5l6.4-8a2 2 0 0 0-.2-2.9zm12 0a2 2 0 0 0-2.8.3l-12.8 16a2 2 0 0 0 3.1 2.5l12.8-16a2 2 0 0 0-.3-2.8zM41 46.1a2 2 0 0 0-2-2 2 2 0 0 0-2-2 2 2 0 0 0-2 2 2 2 0 0 0 0 4 2 2 0 0 0 2 2 2 2 0 0 0 2-2 2 2 0 0 0 2-2zm-8.6 8a2 2 0 0 0-2-2 2 2 0 0 0-2 2 2 2 0 0 0 0 4 2 2 0 0 0 2 2 2 2 0 0 0 2-2 2 2 0 0 0 0-4zm13.2 0a2 2 0 0 0-4 0 2 2 0 0 0 0 4 2 2 0 0 0 4 0 2 2 0 0 0 0-4zm7.4-10a2 2 0 0 0-4 0 2 2 0 0 0 0 4 2 2 0 1 0 4 0 2 2 0 0 0 0-4z"
    fill="#2e2c2d"></path>
    <path data-name="layer1" d="M49 12h-.5a17 17 0 0 0-32.3 4.4A11 11 0 1 0 13 38h36a13 13 0 0 0 0-26z"
    fill="#2e2c2d"></path>
  </symbol>
  <symbol viewBox="0 0 64 64" xmlns="http://www.w3.org/2000/svg" id="partly-cloudy-rain-1">
    <title>Partly Cloudy Rain</title>
    <desc>A solid styled icon from Orion Icon Library.</desc>
    <path fill="#2e2c2d"
    d="M24 9.027a2 2 0 0 0 2-2V2.01a2 2 0 1 0-4 0v5.017a2 2 0 0 0 2 2zm8.812 3.68a2 2 0 0 0 2.828 0l3.548-3.548A2 2 0 1 0 36.36 6.33l-3.548 3.548a2 2 0 0 0 0 2.829zm-24 24a2 2 0 0 0 2.828 0l3.548-3.548a2 2 0 1 0-2.828-2.829l-3.548 3.548a2 2 0 0 0 0 2.829zm2.204-14.689a2 2 0 0 0-2-2H4a2 2 0 0 0 0 4h5.016a2 2 0 0 0 2-2zm1.269-8.893a2 2 0 1 0 2.828-2.825l-3.255-3.259a2 2 0 1 0-2.828 2.83zm39.732 10.867A12.992 12.992 0 0 0 27.062 28.1 7.8 7.8 0 0 0 26 27.994a8 8 0 0 0 0 16h26a10 10 0 0 0 .012-20z"
    data-name="layer1"></path>
    <path fill="#2e2c2d" d="M52 47.994a2 2 0 0 0-2 2v12a2 2 0 1 0 4 0v-12a2 2 0 0 0-2-2zm-8 0a2 2 0 0 0-2 2v5.992a2 2 0 1 0 4 0v-5.992a2 2 0 0 0-2-2zm-8 0a2 2 0 0 0-2 2v12a2 2 0 1 0 4 0v-12a2 2 0 0 0-2-2zm-7.994 0a2 2 0 0 0-2 2v5.992a2 2 0 1 0 4 0v-5.992a2 2 0 0 0-2-2z"
    data-name="layer2"></path>
    <path fill="#2e2c2d" d="M30.816 14.727a9.972 9.972 0 0 0-14.27 13.908 12 12 0 0 1 7.171-4.422 17.092 17.092 0 0 1 7.099-9.486z"
    data-name="layer1"></path>
  </symbol>
  <symbol viewBox="0 0 64 64" xmlns="http://www.w3.org/2000/svg" id="partly-cloudy-drizzle-1">
    <title>Partly Cloudy Drizzle</title>
    <desc>A solid styled icon from Orion Icon Library.</desc>
    <path fill="#2e2c2d"
    d="M51.981 48a2 2 0 0 0-2 2v5.992a2 2 0 0 0 4 0V50a2 2 0 0 0-2-2zm-7.999-.014a2 2 0 0 0-2 2V52a2 2 0 1 0 4 0v-2.014a2 2 0 0 0-2-2zm-8 .014a2 2 0 0 0-2 2v5.992a2 2 0 1 0 4 0V50a2 2 0 0 0-2-2zm-7.998 0a2 2 0 0 0-2 2v1.99a2 2 0 1 0 4 0V50a2 2 0 0 0-2-2z"
    data-name="layer1"></path>
    <path fill="#2e2c2d" d="M24 9.026a2 2 0 0 0 2-2V2.008a2 2 0 0 0-4 0v5.018a2 2 0 0 0 2 2zm8.586 3.937a2 2 0 0 0 2.828 0l3.549-3.549a2 2 0 0 0-2.828-2.828l-3.549 3.549a2 2 0 0 0 0 2.828zm-24 24a2 2 0 0 0 2.828 0l3.549-3.549a2 2 0 0 0-2.828-2.828l-3.549 3.548a2 2 0 0 0 0 2.829zm2.43-14.947a2 2 0 0 0-2-2H4a2 2 0 0 0 0 4h5.016a2 2 0 0 0 2-2zm1.269-8.892a2 2 0 0 0 2.828-2.824l-3.255-3.26A2 2 0 1 0 9.03 9.869zm39.732 10.867A12.992 12.992 0 0 0 27.062 28.1 7.8 7.8 0 0 0 26 27.992a8 8 0 1 0 0 16h26a10 10 0 0 0 .012-20zm-21.201-9.265a9.972 9.972 0 0 0-14.27 13.906 12.007 12.007 0 0 1 7.171-4.421 17.092 17.092 0 0 1 7.099-9.485z"
    data-name="layer2"></path>
    <circle fill="#2e2c2d" r="2" cy="57.99" cx="27.983" data-name="layer1"></circle>
    <circle fill="#2e2c2d" r="2" cy="61.991" cx="35.982" data-name="layer1"></circle>
    <circle fill="#2e2c2d" r="2" cy="57.992" cx="43.981" data-name="layer1"></circle>
    <circle fill="#2e2c2d" r="2" cy="61.992" cx="51.981" data-name="layer1"></circle>
  </symbol>
  <symbol viewBox="0 0 64 64" xmlns="http://www.w3.org/2000/svg" id="partly-cloudy-snow-flurry-1">
    <title>Partly Cloudy Snow Flurry</title>
    <desc>A solid styled icon from Orion Icon Library.</desc>
    <path fill="#2e2c2d"
    d="M24 9.523a2 2 0 0 0 2-2V2.506a2 2 0 1 0-4 0v5.017a2 2 0 0 0 2 2zm8.812 3.677a2 2 0 0 0 2.828 0l3.548-3.548a2 2 0 0 0-2.828-2.826l-3.548 3.548a2 2 0 0 0 0 2.826zm-25 25a2 2 0 0 0 2.828 0l3.548-3.548a2 2 0 0 0-2.828-2.828l-3.548 3.55a2 2 0 0 0 0 2.826zm3.204-15.686a2 2 0 0 0-2-2H4a2 2 0 0 0 0 4h5.016a2 2 0 0 0 2-2zm1.269-8.893a2 2 0 1 0 2.828-2.828l-3.255-3.256a2 2 0 1 0-2.828 2.83zm39.732 10.867A12.992 12.992 0 0 0 27.061 28.6 7.8 7.8 0 0 0 26 28.49a8 8 0 1 0 0 16h26a10 10 0 0 0 .012-20zm-21.201-9.265a9.972 9.972 0 0 0-14.27 13.908 12 12 0 0 1 7.171-4.422 17.092 17.092 0 0 1 7.099-9.486z"
    data-name="layer2"></path>
    <circle fill="#2e2c2d" r="2" cy="49.491" cx="26.004" data-name="layer1"></circle>
    <circle fill="#2e2c2d" r="2" cy="57.494" cx="24.004" data-name="layer1"></circle>
    <circle fill="#2e2c2d" r="2" cy="53.491" cx="32" data-name="layer1"></circle>
    <circle fill="#2e2c2d" r="2" cy="61.494" cx="32" data-name="layer1"></circle>
    <circle fill="#2e2c2d" r="2" cy="57.488" cx="40.004" data-name="layer1"></circle>
    <circle fill="#2e2c2d" r="2" cy="49.488" cx="42.002" data-name="layer1"></circle>
    <circle fill="#2e2c2d" r="2" cy="51.488" cx="52" data-name="layer1"></circle>
    <circle fill="#2e2c2d" r="2" cy="59.488" cx="50" data-name="layer1"></circle>
  </symbol>
  <symbol viewBox="0 0 64 64" xmlns="http://www.w3.org/2000/svg" id="mostly-cloudy-rain-1">
    <title>Mostly Cloudy Rain</title>
    <desc>A solid styled icon from Orion Icon Library.</desc>
    <path fill="#2e2c2d"
    d="M23.249 48.433a2 2 0 0 0-2.811.313l-4.543 5.676a2 2 0 0 0 3.123 2.5l4.543-5.676a2 2 0 0 0-.312-2.813zm10 0a2 2 0 0 0-2.811.313l-9.607 12a2 2 0 0 0 3.123 2.5l9.607-12a2 2 0 0 0-.312-2.813zm10 0a2 2 0 0 0-2.812.313l-4.543 5.676a2 2 0 0 0 3.123 2.5l4.543-5.676a2 2 0 0 0-.311-2.813zm10 0a2 2 0 0 0-2.812.313l-9.605 12a2 2 0 0 0 3.123 2.5l9.605-12a2 2 0 0 0-.311-2.813z"
    data-name="layer2"></path>
    <path fill="#2e2c2d" d="M24 9.024a2 2 0 0 0 2-2V2.007a2 2 0 1 0-4 0v5.017a2 2 0 0 0 2 2zm8.812 3.676a2 2 0 0 0 2.828 0l3.548-3.548a2 2 0 0 0-2.828-2.825l-3.548 3.548a2 2 0 0 0 0 2.825zm-24.5 24.5a2 2 0 0 0 2.828 0l3.548-3.548a2 2 0 1 0-2.828-2.828l-3.548 3.551a2 2 0 0 0 0 2.825zm2.704-15.185a2 2 0 0 0-2-2H4a2 2 0 1 0 0 4h5.016a2 2 0 0 0 2-2zm1.269-8.893a2 2 0 0 0 2.828-2.828l-3.255-3.256a2 2 0 0 0-2.828 2.83zm39.732 10.867A12.992 12.992 0 0 0 27.062 28.1 7.8 7.8 0 0 0 26 27.991a8 8 0 0 0 0 16h26a10 10 0 0 0 .012-20zM16.546 28.63a12 12 0 0 1 7.171-4.42 17.092 17.092 0 0 1 7.1-9.486A9.972 9.972 0 0 0 16.546 28.63z"
    data-name="layer1"></path>
  </symbol>
  <symbol viewBox="0 0 64 64" xmlns="http://www.w3.org/2000/svg" id="mostly-cloudy-light-rain-1">
    <title>Mostly Cloudy Light Rain</title>
    <desc>A solid styled icon from Orion Icon Library.</desc>
    <path fill="#2e2c2d"
    d="M22.5 52.56l1.056-1.311a2 2 0 1 0-3.116-2.508l-1.056 1.311A2 2 0 1 0 22.5 52.56zm10.75-4.125a2 2 0 0 0-2.812.31l-5.912 7.383a2 2 0 0 0 3.123 2.5l5.912-7.383a2 2 0 0 0-.311-2.81zm9.266 4.119l1.047-1.31a2 2 0 1 0-3.125-2.5l-1.047 1.31a2 2 0 1 0 3.125 2.5zm10.734-4.121a2 2 0 0 0-2.812.313l-5.91 7.383a2 2 0 0 0 3.123 2.5l5.91-7.383a2 2 0 0 0-.311-2.813zm-37.214 5.82a2.043 2.043 0 0 0-.58 1.422 2.01 2.01 0 0 0 .58 1.408 2 2 0 0 0 2.84 0 2 2 0 0 0-.01-2.83 2.085 2.085 0 0 0-2.83 0zm4.941 6.33a2 2 0 0 0 1.42 3.41 1.981 1.981 0 0 0 1.41-.59 1.981 1.981 0 0 0 0-2.82 2.061 2.061 0 0 0-2.83 0zm15.069-6.33a2 2 0 1 0 2.82 0 2.073 2.073 0 0 0-2.82 0zm4.931 6.33a2 2 0 0 0 1.42 3.41 1.994 1.994 0 0 0 1.41-3.41 2.061 2.061 0 0 0-2.83 0z"
    data-name="layer2"></path>
    <path fill="#2e2c2d" d="M24 9.024a2 2 0 0 0 2-2V2.007a2 2 0 1 0-4 0v5.017a2 2 0 0 0 2 2zm8.812 3.676a2 2 0 0 0 2.828 0l3.548-3.548a2 2 0 1 0-2.828-2.825l-3.548 3.548a2 2 0 0 0 0 2.825zm-25 25a2 2 0 0 0 2.828 0l3.548-3.548a2 2 0 1 0-2.828-2.828l-3.548 3.551a2 2 0 0 0 0 2.825zm3.204-15.685a2 2 0 0 0-2-2H4a2 2 0 0 0 0 4h5.016a2 2 0 0 0 2-2zm1.269-8.893a2 2 0 0 0 2.828-2.828l-3.255-3.256a2 2 0 0 0-2.828 2.83zm39.732 10.867A12.992 12.992 0 0 0 27.062 28.1 7.8 7.8 0 0 0 26 27.991a8 8 0 0 0 0 16h26a10 10 0 0 0 .012-20zm-35.471 4.643a12 12 0 0 1 7.171-4.422 17.091 17.091 0 0 1 7.1-9.486 9.972 9.972 0 0 0-14.271 13.908z"
    data-name="layer1"></path>
  </symbol>
  <symbol viewBox="0 0 64 64" xmlns="http://www.w3.org/2000/svg" id="mostly-cloudy-lightning-1">
    <title>Mostly Cloudy Lightning</title>
    <desc>A solid styled icon from Orion Icon Library.</desc>
    <path fill="#2e2c2d"
    d="M32 63.979a2 2 0 0 1-1.561-3.25l6.961-8.694h-8L42 36.287a2 2 0 1 1 3.123 2.5l-7.4 9.248h8L33.562 63.229a2 2 0 0 1-1.562.75z"
    data-name="layer2"></path>
    <path fill="#2e2c2d" d="M24 9.039a2 2 0 0 0 2-2V2.021a2 2 0 0 0-4 0v5.018a2 2 0 0 0 2 2zm8.812 3.679a2 2 0 0 0 2.828 0l3.548-3.548a2 2 0 0 0-2.828-2.828L32.812 9.89a2 2 0 0 0 0 2.828zm-25 24a2 2 0 0 0 2.828 0l3.548-3.548a2 2 0 0 0-2.828-2.828L7.812 33.89a2 2 0 0 0 0 2.828zm3.204-14.689a2 2 0 0 0-2-2H4a2 2 0 0 0 0 4h5.016a2 2 0 0 0 2-2zm1.269-8.892a2 2 0 0 0 2.828-2.828l-3.255-3.256a2 2 0 0 0-2.828 2.83zm18.531 1.601a9.972 9.972 0 0 0-14.27 13.906 12 12 0 0 1 7.171-4.42 17.091 17.091 0 0 1 7.099-9.486zM52.017 24a12.992 12.992 0 0 0-24.955 4.107A7.8 7.8 0 0 0 26 28.006a8 8 0 1 0 0 16h4.7l8.172-10.215a6 6 0 1 1 9.371 7.494l-2.176 2.721H52a10 10 0 0 0 .012-20z"
    data-name="layer1"></path>
  </symbol>
  <symbol viewBox="0 0 64 64" xmlns="http://www.w3.org/2000/svg" id="partly-cloudy-thunderstorm-1">
    <title>Partly Cloudy Thunderstorm</title>
    <desc>A solid styled icon from Orion Icon Library.</desc>
    <path fill="#2e2c2d"
    d="M14.3 63.979a2 2 0 0 1-1.556-3.255l1.215-1.507a2 2 0 0 1 3.113 2.512l-1.215 1.506a2 2 0 0 1-1.557.744zm5.32-6.633a2 2 0 0 1-1.544-3.27l4.365-5.314a2 2 0 1 1 3.09 2.539l-4.365 5.315a2 2 0 0 1-1.546.73zm24.803 6.633a2 2 0 0 1-1.559-3.252l3.539-4.41a2 2 0 1 1 3.119 2.5l-3.539 4.413a2 2 0 0 1-1.56.749zm7.971-9.948a2 2 0 0 1-1.561-3.25l1.6-2a2 2 0 1 1 3.123 2.5l-1.6 2a1.994 1.994 0 0 1-1.562.75zM32 63.979a2 2 0 0 1-1.561-3.25l6.961-8.694h-8L42 36.287a2 2 0 0 1 3.123 2.5l-7.4 9.25h8L33.562 63.229a2 2 0 0 1-1.562.75z"
    data-name="layer2"></path>
    <path fill="#2e2c2d" d="M24 9.039a2 2 0 0 0 2-2V2.021a2 2 0 1 0-4 0v5.018a2 2 0 0 0 2 2zm8.812 3.679a2 2 0 0 0 2.828 0l3.548-3.548a2 2 0 1 0-2.828-2.828L32.812 9.89a2 2 0 0 0 0 2.828zm-24 24a2 2 0 0 0 2.828 0l3.548-3.548a2 2 0 1 0-2.828-2.828L8.812 33.89a2 2 0 0 0 0 2.828zm2.204-14.689a2 2 0 0 0-2-2H4a2 2 0 0 0 0 4h5.016a2 2 0 0 0 2-2zm1.269-8.892a2 2 0 1 0 2.828-2.828l-3.255-3.256a2 2 0 0 0-2.828 2.83zm18.531 1.601a9.972 9.972 0 0 0-14.27 13.906 12 12 0 0 1 7.171-4.42 17.091 17.091 0 0 1 7.099-9.486zM52.017 24a12.992 12.992 0 0 0-24.955 4.107A7.805 7.805 0 0 0 26 28.006a8 8 0 0 0 0 16h4.7l8.172-10.215a6 6 0 1 1 9.372 7.494l-2.174 2.721H52a10 10 0 0 0 .012-20z"
    data-name="layer1"></path>
  </symbol>
  <symbol viewBox="0 0 64 64" xmlns="http://www.w3.org/2000/svg" id="partly-cloudy-hail-1">
    <title>Partly Cloudy Hail</title>
    <desc>A solid styled icon from Orion Icon Library.</desc>
    <path fill="#2e2c2d"
    d="M23.507 8.988a2 2 0 0 0 2-2V1.971a2 2 0 1 0-4 0v5.017a2 2 0 0 0 2 2zm9.305 3.68a2 2 0 0 0 2.828 0l3.548-3.548a2 2 0 1 0-2.828-2.829l-3.548 3.548a2 2 0 0 0 0 2.829zm-22.294 9.311a2 2 0 0 0-2-2H3.5a2 2 0 0 0 0 4h5.018a2 2 0 0 0 2-2zm1.27-8.892a2 2 0 0 0 2.828-2.829L11.361 7a2 2 0 0 0-2.828 2.83zm0 17.782l-3.257 3.256a2 2 0 1 0 2.828 2.828l3.257-3.253a2 2 0 0 0-2.828-2.828zm39.731-6.916a12.992 12.992 0 0 0-24.955 4.107 7.8 7.8 0 0 0-1.057-.105 8 8 0 0 0 0 16h26a10 10 0 0 0 .012-20zm-21.2-9.265A9.972 9.972 0 0 0 16.048 28.6a12 12 0 0 1 7.171-4.422 17.091 17.091 0 0 1 7.1-9.49z"
    data-name="layer2"></path>
    <path fill="#2e2c2d" d="M26 48a2.006 2.006 0 0 0-2 2v6.43a11.986 11.986 0 0 0-8.132-2.324 2 2 0 0 0 .334 3.986 8.01 8.01 0 0 1 7.973 4.721c.005.012.014.02.02.031A2 2 0 0 0 28 62V50a2.006 2.006 0 0 0-2-2zm-1.948 14.436l.006.018zm36.082-8.331A12 12 0 0 0 52 56.427V50a2 2 0 0 0-4 0v12a2 2 0 0 0 3.806.844c.005-.011.015-.019.02-.031a8.03 8.03 0 0 1 7.974-4.721 2 2 0 0 0 .334-3.986zm-8.191 8.35l.006-.02z"
    data-name="layer1"></path>
    <rect fill="#2e2c2d" ry="2" rx="2" height="7" width="4" y="48"
    x="32" data-name="layer1"></rect>
    <rect fill="#2e2c2d" ry="2" rx="2" height="10" width="4" y="48"
    x="40" data-name="layer1"></rect>
    <circle fill="#2e2c2d" r="2" cy="59" cx="34" data-name="layer1"></circle>
    <circle fill="#2e2c2d" r="2" cy="62" cx="42" data-name="layer1"></circle>
    <circle fill="#2e2c2d" r="2" cy="56" cx="10" data-name="layer1"></circle>
  </symbol>
  <symbol viewBox="0 0 64 64" xmlns="http://www.w3.org/2000/svg" id="cloudy-hail-1">
    <title>Cloudy Hail</title>
    <desc>A solid styled icon from Orion Icon Library.</desc>
    <circle fill="#2e2c2d"
    r="2.5" cy="51.84" cx="26" data-name="layer2"></circle>
    <circle fill="#2e2c2d" r="2.5" cy="59.844" cx="32.999" data-name="layer2"></circle>
    <circle fill="#2e2c2d" r="2.5" cy="51.84" cx="40" data-name="layer2"></circle>
    <circle fill="#2e2c2d" r="2.5" cy="51.84" cx="53.996" data-name="layer2"></circle>
    <circle fill="#2e2c2d" r="2.5" cy="59.844" cx="46.999" data-name="layer2"></circle>
    <path fill="#2e2c2d" d="M24 10.675a2 2 0 0 0 2-2V3.656a2 2 0 1 0-4 0v5.019a2 2 0 0 0 2 2zm8.811 3.679a2 2 0 0 0 2.828 0l3.549-3.549a2 2 0 1 0-2.828-2.828l-3.549 3.549a2 2 0 0 0 0 2.828zm-24.5 24.5a2 2 0 0 0 2.828 0l3.549-3.549a2 2 0 1 0-2.828-2.828l-3.549 3.549a2 2 0 0 0 0 2.828zm2.705-15.19a2 2 0 0 0-2-2H4a2 2 0 0 0 0 4h5.016a2 2 0 0 0 2-2zm1.269-8.891a2 2 0 0 0 2.828-2.829l-3.255-3.255a2 2 0 0 0-2.828 2.829zM52.017 25.64a12.992 12.992 0 0 0-24.955 4.108A7.8 7.8 0 0 0 26 29.641a8 8 0 0 0 0 16h26a10 10 0 0 0 .012-20zm-21.201-9.267a9.972 9.972 0 0 0-14.27 13.908 12.01 12.01 0 0 1 7.171-4.422 17.092 17.092 0 0 1 7.099-9.486z"
    data-name="layer1"></path>
  </symbol>
  <symbol viewBox="0 0 64 64" xmlns="http://www.w3.org/2000/svg" id="cloudy-snowfall-1">
    <title>Cloudy Snowfall</title>
    <desc>A solid styled icon from Orion Icon Library.</desc>
    <path fill="#2e2c2d"
    d="M30 51.5a2 2 0 0 0-2-2 2 2 0 1 0-4 0 2 2 0 0 0 0 4 2 2 0 1 0 4 0 2 2 0 0 0 2-2zm14.006 0a2 2 0 0 0-2-2 2 2 0 0 0-2-2 2 2 0 0 0-2 2 2 2 0 0 0 0 4 2 2 0 0 0 2 2 2 2 0 0 0 2-2 2 2 0 0 0 2-2zm-8.588 6a2 2 0 0 0-2-2 2 2 0 0 0-2 2 2 2 0 0 0 0 4 2 2 0 0 0 2 2 2 2 0 0 0 2-2 2 2 0 0 0 0-4zm13.172 0a2 2 0 0 0-4 0 2 2 0 0 0 0 4 2 2 0 0 0 4 0 2 2 0 0 0 0-4zm7.41-8a2 2 0 0 0-4 0 2 2 0 0 0 0 4 2 2 0 1 0 4 0 2 2 0 0 0 0-4z"
    data-name="layer2"></path>
    <path fill="#2e2c2d" d="M24 9.52a2 2 0 0 0 2-2V2.5a2 2 0 1 0-4 0v5.02a2 2 0 0 0 2 2zm8.812 3.68a2 2 0 0 0 2.828 0l3.548-3.548a2 2 0 1 0-2.828-2.829l-3.548 3.548a2 2 0 0 0 0 2.829zm-25 25a2 2 0 0 0 2.828 0l3.548-3.548a2 2 0 1 0-2.828-2.828l-3.548 3.547a2 2 0 0 0 0 2.829zm3.204-15.69a2 2 0 0 0-2-2H4a2 2 0 1 0 0 4h5.016a2 2 0 0 0 2-2zm1.269-8.893a2 2 0 1 0 2.828-2.828l-3.255-3.256a2 2 0 0 0-2.828 2.83zm39.732 10.867a12.992 12.992 0 0 0-24.955 4.107A7.966 7.966 0 0 0 26 28.486a8 8 0 0 0 0 16h26a10 10 0 0 0 .012-20zm-21.201-9.265a9.972 9.972 0 0 0-14.27 13.907 12 12 0 0 1 7.171-4.421 17.092 17.092 0 0 1 7.099-9.486z"
    data-name="layer1"></path>
  </symbol>
  <symbol xmlns="http://www.w3.org/2000/svg" viewBox="0 0 64 64" id="cloudy-heavy-rain-1">
    <title>Cloudy Heavy Rain</title>
    <desc>A solid styled icon from Orion Icon Library.</desc>
    <path data-name="layer1"
    d="M46.8 18.2h-1A13.6 13.6 0 0 0 33.1 10a13.5 13.5 0 0 0-13.5 11.5h-.1a8.2 8.2 0 1 0 0 16.5h27.3A10.1 10.1 0 0 0 57 28.1a10.1 10.1 0 0 0-10.2-9.9z"
    fill="#2e2c2d"></path>
    <path data-name="layer2" d="M45 42a2 2 0 0 0-2 2v16a2 2 0 1 0 4 0V44a2 2 0 0 0-2-2zm-8 0a2 2 0 0 0-2 2v10a2 2 0 1 0 4 0V44a2 2 0 0 0-2-2zm-8 0a2 2 0 0 0-2 2v16a2 2 0 1 0 4 0V44a2 2 0 0 0-2-2zm-8 0a2 2 0 0 0-2 2v10a2 2 0 1 0 4 0V44a2 2 0 0 0-2-2z"
    fill="#2e2c2d"></path>
    <path data-name="layer1" d="M16.4 17.9a17.4 17.4 0 0 1 9.5-10.4 10 10 0 1 0-14.4 12.9 12.6 12.6 0 0 1 4.9-2.5z"
    fill="#2e2c2d"></path>
  </symbol>
  <symbol xmlns="http://www.w3.org/2000/svg" viewBox="0 0 64 64" id="cloudy-light-rain-1">
    <title>Cloudy Light Rain</title>
    <desc>A solid styled icon from Orion Icon Library.</desc>
    <path data-name="layer1"
    d="M45 56a2 2 0 0 1-2-2V44a2 2 0 0 1 4 0v10a2 2 0 0 1-2 2zm-8-6a2 2 0 0 1-2-2v-4a2 2 0 0 1 4 0v4a2 2 0 0 1-2 2zm-8 6a2 2 0 0 1-2-2V44a2 2 0 0 1 4 0v10a2 2 0 0 1-2 2zm-8-4a2 2 0 0 1-2-2v-6a2 2 0 1 1 4 0v6a2 2 0 0 1-2 2z"
    fill="#2e2c2d"></path>
    <path data-name="layer2" d="M46.8 18.2h-1A13.6 13.6 0 0 0 33.1 10a13.5 13.5 0 0 0-13.5 11.5h-.1a8.2 8.2 0 1 0 0 16.5h27.3A10.1 10.1 0 0 0 57 28.1a10.1 10.1 0 0 0-10.2-9.9zm-30.4-.3a17.4 17.4 0 0 1 9.5-10.4 10 10 0 1 0-14.4 12.9 12.6 12.6 0 0 1 4.9-2.5z"
    fill="#2e2c2d"></path>
    <circle data-name="layer1" cx="21" cy="56" r="2" fill="#2e2c2d"></circle>
    <circle data-name="layer1" cx="29" cy="60" r="2" fill="#2e2c2d"></circle>
    <circle data-name="layer1" cx="37" cy="54" r="2" fill="#2e2c2d"></circle>
    <circle data-name="layer1" cx="45" cy="60" r="2" fill="#2e2c2d"></circle>
  </symbol>
  <symbol xmlns="http://www.w3.org/2000/svg" viewBox="0 0 64 64" id="cloudy-snow-1">
    <title>Cloudy Snow</title>
    <desc>A solid styled icon from Orion Icon Library.</desc>
    <path data-name="layer2"
    d="M46.8 18.2h-1A13.6 13.6 0 0 0 33.1 10a13.5 13.5 0 0 0-13.5 11.5h-.1a8.2 8.2 0 1 0 0 16.5h27.3A10.1 10.1 0 0 0 57 28.1a10.1 10.1 0 0 0-10.2-9.9zm-30.4-.3a17.4 17.4 0 0 1 9.5-10.4 10 10 0 1 0-14.4 12.9 12.6 12.6 0 0 1 4.9-2.5z"
    fill="#2e2c2d"></path>
    <circle data-name="layer1" cx="19.1" cy="44" r="2" fill="#2e2c2d"></circle>
    <circle data-name="layer1" cx="15.1" cy="52" r="2" fill="#2e2c2d"></circle>
    <circle data-name="layer1" cx="19.1" cy="60" r="2" fill="#2e2c2d"></circle>
    <circle data-name="layer1" cx="27.1" cy="48" r="2" fill="#2e2c2d"></circle>
    <circle data-name="layer1" cx="29.1" cy="56" r="2" fill="#2e2c2d"></circle>
    <circle data-name="layer1" cx="37.1" cy="52" r="2" fill="#2e2c2d"></circle>
    <circle data-name="layer1" cx="39.1" cy="44" r="2" fill="#2e2c2d"></circle>
    <circle data-name="layer1" cx="39.1" cy="60" r="2" fill="#2e2c2d"></circle>
    <circle data-name="layer1" cx="47.1" cy="56" r="2" fill="#2e2c2d"></circle>
    <circle data-name="layer1" cx="49.1" cy="46" r="2" fill="#2e2c2d"></circle>
  </symbol>
  <symbol xmlns="http://www.w3.org/2000/svg" viewBox="0 0 64 64" id="cloudy-showers-1">
    <title>Cloudy Showers</title>
    <desc>A solid styled icon from Orion Icon Library.</desc>
    <path data-name="layer2"
    d="M10.7 54a2 2 0 0 1-1.6-3.2l6.4-8a2 2 0 1 1 3.1 2.5l-6.4 8a2 2 0 0 1-1.5.7zm3.6 8a2 2 0 0 1-1.6-3.2l12.8-16a2 2 0 1 1 3.1 2.5l-12.8 16a2 2 0 0 1-1.5.7zm16.4-8a2 2 0 0 1-1.6-3.2l6.4-8a2 2 0 1 1 3.1 2.5l-6.4 8a2 2 0 0 1-1.5.7zm3.6 8a2 2 0 0 1-1.6-3.2l12.8-16a2 2 0 1 1 3.1 2.5l-12.8 16a2 2 0 0 1-1.5.7z"
    fill="#2e2c2d"></path>
    <path data-name="layer1" d="M46.8 18.2h-1A13.6 13.6 0 0 0 33.1 10a13.5 13.5 0 0 0-13.5 11.5h-.1a8.2 8.2 0 1 0 0 16.5h27.3A10.1 10.1 0 0 0 57 28.1a10.1 10.1 0 0 0-10.2-9.9zm-30.4-.3a17.4 17.4 0 0 1 9.5-10.4 10 10 0 1 0-14.4 12.9 12.6 12.6 0 0 1 4.9-2.5z"
    fill="#2e2c2d"></path>
  </symbol>
  <symbol xmlns="http://www.w3.org/2000/svg" viewBox="0 0 64 64" id="cloudy-scattered-showers-1">
    <title>Cloudy Scattered Showers</title>
    <desc>A solid styled icon from Orion Icon Library.</desc>
    <path data-name="layer2"
    d="M14.5 49.2a2 2 0 0 1-1.6-3.2l2.5-3.2a2 2 0 1 1 3.1 2.5L16 48.4a2 2 0 0 1-1.5.8zm3.4 8.1a2 2 0 0 1-1.6-3.2l9.1-11.3a2 2 0 0 1 3.1 2.5l-9 11.3a2 2 0 0 1-1.6.7zm16.6-8.2a2 2 0 0 1-1.5-3.3l2.5-3.1a2 2 0 0 1 3.1 2.5l-2.5 3.1a2 2 0 0 1-1.6.8zm3.4 8.2a2 2 0 0 1-1.6-3.2l9.1-11.3a2 2 0 0 1 3.1 2.5l-9 11.3a2 2 0 0 1-1.6.7zM10.6 54a2 2 0 0 1-1.4-3.4 2.1 2.1 0 0 1 2.8 0 2 2 0 0 1 .6 1.4 2 2 0 0 1-2 2zm3.6 8a2 2 0 0 1-1.4-.6 2 2 0 0 1 0-2.8 2.1 2.1 0 0 1 2.8 0 2 2 0 0 1-1.4 3.4zm16.4-8a2 2 0 0 1-1.4-.6 2 2 0 0 1 0-2.8 2.1 2.1 0 0 1 2.8 0 2 2 0 0 1-1.4 3.4zm3.6 8a2 2 0 0 1-1.4-3.4 2.1 2.1 0 0 1 2.8 0 2 2 0 0 1-1.4 3.4z"
    fill="#2e2c2d"></path>
    <path data-name="layer1" d="M46.8 18.2h-1A13.6 13.6 0 0 0 33.1 10a13.5 13.5 0 0 0-13.5 11.5h-.1a8.2 8.2 0 1 0 0 16.5h27.3A10.1 10.1 0 0 0 57 28.1a10.1 10.1 0 0 0-10.2-9.9zm-30.4-.3a17.4 17.4 0 0 1 9.5-10.4 10 10 0 1 0-14.4 12.9 12.6 12.6 0 0 1 4.9-2.5z"
    fill="#2e2c2d"></path>
  </symbol>
  <symbol xmlns="http://www.w3.org/2000/svg" viewBox="0 0 64 64" id="cloudy-thunder-1">
    <title>Cloudy Thunder</title>
    <desc>A solid styled icon from Orion Icon Library.</desc>
    <path data-name="layer2"
    d="M25.4 61a2 2 0 0 1-1.6-3.2l7-8.7h-8l12.6-15.8a2 2 0 1 1 3.1 2.5L31.1 45h8L27 60.2a2 2 0 0 1-1.6.8z"
    fill="#2e2c2d"></path>
    <path data-name="layer1" d="M16.4 18.9a17.4 17.4 0 0 1 9.5-10.4 10 10 0 1 0-14.4 12.9 12.6 12.6 0 0 1 4.9-2.5zm30.4.4h-1A13.6 13.6 0 0 0 33.1 11a13.5 13.5 0 0 0-13.5 11.6h-.1a8.2 8.2 0 1 0 0 16.5h6.2l6.6-8.2a6 6 0 0 1 9.4 7.5l-.6.7h5.8a10.1 10.1 0 0 0 10.1-10 10.1 10.1 0 0 0-10.2-9.8z"
    fill="#2e2c2d"></path>
  </symbol>
  <symbol xmlns="http://www.w3.org/2000/svg" viewBox="0 0 64 64" id="cloudy-thunderstorm-1">
    <title>Cloudy Thunderstorm</title>
    <desc>A solid styled icon from Orion Icon Library.</desc>
    <path data-name="layer2"
    d="M7.1 62a2 2 0 0 1-1.6-3.2l2.8-3.5a2 2 0 0 1 3.1 2.5l-2.7 3.4a2 2 0 0 1-1.6.8zm6.9-8.6a2 2 0 0 1-1.6-3.2l5.9-7.4a2 2 0 0 1 3.1 2.5l-5.9 7.4a2 2 0 0 1-1.5.7zM39.1 62a2 2 0 0 1-1.6-3.2l6.8-8.5a2 2 0 0 1 3.1 2.5l-6.8 8.5a2 2 0 0 1-1.5.7zm11.2-14a2 2 0 0 1-1.6-3.2l1.6-2a2 2 0 0 1 3.1 2.5l-1.6 2a2 2 0 0 1-1.5.7zm-23 12a2 2 0 0 1-1.6-3.2l7-8.7h-8l12.6-15.8a2 2 0 1 1 3.1 2.5L33 44h8L28.9 59.2a2 2 0 0 1-1.6.8z"
    fill="#2e2c2d"></path>
    <path data-name="layer1" d="M18.3 17.9a17.4 17.4 0 0 1 9.5-10.4 10 10 0 1 0-14.4 12.9 12.6 12.6 0 0 1 4.9-2.5zm30.4.3h-1A13.6 13.6 0 0 0 35.1 10a13.5 13.5 0 0 0-13.6 11.5h-.1a8.2 8.2 0 1 0 0 16.5h6.2l6.6-8.2a6 6 0 0 1 9.4 7.5l-.6.7h5.8A10.1 10.1 0 0 0 59 28.1a10.1 10.1 0 0 0-10.3-9.9z"
    fill="#2e2c2d"></path>
  </symbol>
  <symbol viewBox="0 0 64 64" xmlns="http://www.w3.org/2000/svg" id="cloudy-hailstorm-1">
    <title>Cloudy Hailstorm</title>
    <desc>A solid styled icon from Orion Icon Library.</desc>
    <path fill="#2e2c2d"
    d="M43.8 18.233c-.332 0-.66.018-.984.05A13.628 13.628 0 0 0 30.165 10a13.474 13.474 0 0 0-13.516 11.54c-.039 0-.074-.013-.113-.013a8.241 8.241 0 1 0 0 16.473h27.316a10.055 10.055 0 0 0 10.164-9.882A10.059 10.059 0 0 0 43.8 18.233zm-30.412-.314a17.379 17.379 0 0 1 9.563-10.4 10 10 0 1 0-14.4 12.842 12.587 12.587 0 0 1 4.837-2.442z"
    data-name="layer2"></path>
    <path fill="#2e2c2d" d="M18 42a2.006 2.006 0 0 0-2 2v10.43a11.986 11.986 0 0 0-8.132-2.324 2 2 0 0 0 .332 3.986 8.01 8.01 0 0 1 7.973 4.721c.005.012.014.02.02.031A2 2 0 0 0 20 60V44a2.006 2.006 0 0 0-2-2zm-1.948 18.436l.006.018zm36.082-8.331A12 12 0 0 0 44 54.427V44a2 2 0 0 0-4 0v16a2 2 0 0 0 3.806.844c.005-.011.015-.019.02-.031a8.03 8.03 0 0 1 7.974-4.721 2 2 0 0 0 .334-3.986zm-8.191 8.35l.006-.02z"
    data-name="layer1"></path>
    <rect fill="#2e2c2d" ry="2" rx="2" height="14" width="4" y="42"
    x="24" data-name="layer1"></rect>
    <rect fill="#2e2c2d" ry="2" rx="2" height="10" width="4" y="42"
    x="32" data-name="layer1"></rect>
    <circle fill="#2e2c2d" r="2" cy="60" cx="26" data-name="layer1"></circle>
    <circle fill="#2e2c2d" r="2" cy="56" cx="34" data-name="layer1"></circle>
    <circle fill="#2e2c2d" r="2" cy="54" cx="58" data-name="layer1"></circle>
    <circle fill="#2e2c2d" r="2" cy="54" cx="2" data-name="layer1"></circle>
  </symbol>
  <symbol xmlns="http://www.w3.org/2000/svg" viewBox="0 0 64 64" id="partly-cloudy-snow-1">
    <title>Partly Cloudy Snow</title>
    <desc>A solid styled icon from Orion Icon Library.</desc>
    <circle data-name="layer2"
    cx="20.1" cy="47.8" r="2.5" fill="#2e2c2d"></circle>
    <circle data-name="layer2" cx="27.1" cy="55.8" r="2.5" fill="#2e2c2d"></circle>
    <circle data-name="layer2" cx="34.1" cy="47.8" r="2.5" fill="#2e2c2d"></circle>
    <circle data-name="layer2" cx="48.1" cy="47.8" r="2.5" fill="#2e2c2d"></circle>
    <circle data-name="layer2" cx="41.1" cy="55.8" r="2.5" fill="#2e2c2d"></circle>
    <path data-name="layer1" d="M46.8 22h-1a13.6 13.6 0 0 0-12.6-8.3 13.5 13.5 0 0 0-13.6 11.6h-.1a8.2 8.2 0 1 0 0 16.5h27.3A10.1 10.1 0 0 0 57 31.9 10.1 10.1 0 0 0 46.8 22zm-30.4-.3A17.4 17.4 0 0 1 26 11.3a10 10 0 1 0-14.5 12.8 12.6 12.6 0 0 1 4.9-2.4z"
    fill="#2e2c2d"></path>
  </symbol>
  <symbol xmlns="http://www.w3.org/2000/svg" viewBox="0 0 64 64" id="cloudy-snowflake-1">
    <title>Cloudy Snowflake</title>
    <desc>A solid styled icon from Orion Icon Library.</desc>
    <path data-name="layer2"
    d="M24 47a2 2 0 0 0-2-2 2 2 0 0 0-4 0 2 2 0 0 0 0 4 2 2 0 1 0 4 0 2 2 0 0 0 2-2zm14 0a2 2 0 0 0-2-2 2 2 0 0 0-2-2 2 2 0 0 0-2 2 2 2 0 0 0 0 4 2 2 0 0 0 2 2 2 2 0 0 0 2-2 2 2 0 0 0 2-2zm-8.6 8a2 2 0 0 0-2-2 2 2 0 0 0-2 2 2 2 0 0 0 0 4 2 2 0 0 0 2 2 2 2 0 0 0 2-2 2 2 0 0 0 0-4zm13.2 0a2 2 0 0 0-4 0 2 2 0 0 0 0 4 2 2 0 0 0 4 0 2 2 0 0 0 0-4zM50 45a2 2 0 0 0-4 0 2 2 0 0 0 0 4 2 2 0 1 0 4 0 2 2 0 0 0 0-4z"
    fill="#2e2c2d"></path>
    <path data-name="layer1" d="M46.8 19.2h-1A13.6 13.6 0 0 0 33.1 11a13.5 13.5 0 0 0-13.5 11.5h-.1a8.2 8.2 0 1 0 0 16.5h27.3A10.1 10.1 0 0 0 57 29.1a10.1 10.1 0 0 0-10.2-9.9zm-30.4-.3a17.4 17.4 0 0 1 9.5-10.4 10 10 0 1 0-14.4 12.9 12.6 12.6 0 0 1 4.9-2.5z"
    fill="#2e2c2d"></path>
  </symbol>
  <symbol xmlns="http://www.w3.org/2000/svg" viewBox="0 0 64 64" id="night-rain-1">
    <title>Night Rain</title>
    <desc>A solid styled icon from Orion Icon Library.</desc>
    <path data-name="layer1"
    d="M46.8 38A10.1 10.1 0 0 0 57 28.1a10.1 10.1 0 0 0-10.2-9.9h-1A13.6 13.6 0 0 0 33.1 10a13.5 13.5 0 0 0-13.5 11.5h-.1a8.2 8.2 0 1 0 0 16.5z"
    fill="#2e2c2d"></path>
    <path data-name="layer2" d="M45 62a2 2 0 0 1-2-2V44a2 2 0 1 1 4 0v16a2 2 0 0 1-2 2zm-8-6a2 2 0 0 1-2-2V44a2 2 0 1 1 4 0v10a2 2 0 0 1-2 2zm-8 6a2 2 0 0 1-2-2V44a2 2 0 1 1 4 0v16a2 2 0 0 1-2 2zm-8-6a2 2 0 0 1-2-2V44a2 2 0 1 1 4 0v10a2 2 0 0 1-2 2z"
    fill="#2e2c2d"></path>
    <path data-name="layer1" d="M11.5 20.4a12.6 12.6 0 0 1 4.8-2.4 17.4 17.4 0 0 1 9.6-10.5A10 10 0 0 0 17 2h-.7a6.9 6.9 0 0 1 .6 3 7 7 0 0 1-9.8 6.4c0 .2-.1.4-.1.6a10 10 0 0 0 4.5 8.4z"
    fill="#2e2c2d"></path>
  </symbol>
  <symbol xmlns="http://www.w3.org/2000/svg" viewBox="0 0 64 64" id="night-cloudy-rain-1">
    <title>Night Cloudy Rain</title>
    <desc>A solid styled icon from Orion Icon Library.</desc>
    <path data-name="layer1"
    d="M45.2 56a2 2 0 0 1-2-2V44a2 2 0 1 1 4 0v10a2 2 0 0 1-2 2zm-8-6a2 2 0 0 1-2-2v-4a2 2 0 0 1 4 0v4a2 2 0 0 1-2 2zm-8 6a2 2 0 0 1-2-2V44a2 2 0 0 1 4 0v10a2 2 0 0 1-2 2zm-8-4a2 2 0 0 1-2-2v-6a2 2 0 0 1 4 0v6a2 2 0 0 1-2 2z"
    fill="#2e2c2d"></path>
    <path data-name="layer2" d="M46.8 38A10.1 10.1 0 0 0 57 28.1a10.1 10.1 0 0 0-10.2-9.9h-1A13.6 13.6 0 0 0 33.1 10a13.5 13.5 0 0 0-13.5 11.6h-.1a8.2 8.2 0 1 0 0 16.5zM11.5 20.4a12.6 12.6 0 0 1 4.8-2.4 17.4 17.4 0 0 1 9.6-10.5A10 10 0 0 0 17 2h-.7a6.9 6.9 0 0 1 .6 3 7 7 0 0 1-9.8 6.4c0 .2-.1.4-.1.6a10 10 0 0 0 4.5 8.4z"
    fill="#2e2c2d"></path>
    <circle data-name="layer1" cx="21.2" cy="56" r="2" fill="#2e2c2d"></circle>
    <circle data-name="layer1" cx="29.2" cy="60" r="2" fill="#2e2c2d"></circle>
    <circle data-name="layer1" cx="37.2" cy="54" r="2" fill="#2e2c2d"></circle>
    <circle data-name="layer1" cx="45.2" cy="60" r="2" fill="#2e2c2d"></circle>
  </symbol>
  <symbol xmlns="http://www.w3.org/2000/svg" viewBox="0 0 64 64" id="night-cloudy-snow-1">
    <title>Night Cloudy Snow</title>
    <desc>A solid styled icon from Orion Icon Library.</desc>
    <path data-name="layer2"
    d="M46.8 38.5A10.1 10.1 0 0 0 57 28.6a10.1 10.1 0 0 0-10.2-9.9h-1a13.6 13.6 0 0 0-12.6-8.3A13.5 13.5 0 0 0 19.6 22h-.1a8.2 8.2 0 1 0 0 16.5zM11.5 20.9a12.6 12.6 0 0 1 4.8-2.4A17.4 17.4 0 0 1 25.9 8 10 10 0 0 0 17 2.5h-.7a6.9 6.9 0 0 1 .6 2.9 7 7 0 0 1-7 7 6.9 6.9 0 0 1-2.8-.6c0 .2-.1.4-.1.6a10 10 0 0 0 4.5 8.5z"
    fill="#2e2c2d"></path>
    <circle data-name="layer1" cx="19.1" cy="43.5" r="2" fill="#2e2c2d"></circle>
    <circle data-name="layer1" cx="15.1" cy="51.5" r="2" fill="#2e2c2d"></circle>
    <circle data-name="layer1" cx="19.1" cy="59.5" r="2" fill="#2e2c2d"></circle>
    <circle data-name="layer1" cx="27.1" cy="47.5" r="2" fill="#2e2c2d"></circle>
    <circle data-name="layer1" cx="29.1" cy="55.5" r="2" fill="#2e2c2d"></circle>
    <circle data-name="layer1" cx="37.1" cy="51.5" r="2" fill="#2e2c2d"></circle>
    <circle data-name="layer1" cx="39.1" cy="43.5" r="2" fill="#2e2c2d"></circle>
    <circle data-name="layer1" cx="39.1" cy="59.5" r="2" fill="#2e2c2d"></circle>
    <circle data-name="layer1" cx="47.1" cy="55.5" r="2" fill="#2e2c2d"></circle>
    <circle data-name="layer1" cx="49.1" cy="45.5" r="2" fill="#2e2c2d"></circle>
  </symbol>
  <symbol xmlns="http://www.w3.org/2000/svg" viewBox="0 0 64 64" id="night-heavy-rain-1">
    <title>Night Heavy Rain</title>
    <desc>A solid styled icon from Orion Icon Library.</desc>
    <path data-name="layer2"
    d="M10.8 54a2 2 0 0 1-1.6-3.2l6.4-8a2 2 0 0 1 3.1 2.5l-6.4 8a2 2 0 0 1-1.5.7zm3.6 8a2 2 0 0 1-1.6-3.2l12.8-16a2 2 0 0 1 3.1 2.5L16 61.3a2 2 0 0 1-1.6.7zm16.4-8a2 2 0 0 1-1.6-3.2l6.4-8a2 2 0 0 1 3.1 2.5l-6.4 8a2 2 0 0 1-1.5.7zm3.6 8a2 2 0 0 1-1.6-3.2l12.8-16a2 2 0 0 1 3.1 2.5L36 61.3a2 2 0 0 1-1.6.7z"
    fill="#2e2c2d"></path>
    <path data-name="layer1" d="M46.8 38A10.1 10.1 0 0 0 57 28.1a10.1 10.1 0 0 0-10.2-9.9h-1A13.6 13.6 0 0 0 33.1 10a13.5 13.5 0 0 0-13.5 11.5h-.1a8.2 8.2 0 1 0 0 16.5zM11.5 20.4a12.6 12.6 0 0 1 4.8-2.4 17.4 17.4 0 0 1 9.6-10.5A10 10 0 0 0 17 2h-.7a6.9 6.9 0 0 1 .6 3 7 7 0 0 1-7 7 6.9 6.9 0 0 1-2.8-.6c0 .2-.1.4-.1.6a10 10 0 0 0 4.5 8.4z"
    fill="#2e2c2d"></path>
  </symbol>
  <symbol xmlns="http://www.w3.org/2000/svg" viewBox="0 0 64 64" id="night-light-rain-1">
    <title>Night Light Rain</title>
    <desc>A solid styled icon from Orion Icon Library.</desc>
    <path data-name="layer2"
    d="M14.5 49.2a2 2 0 0 1-1.6-3.3l2.5-3.2a2 2 0 1 1 3.1 2.5L16 48.4a2 2 0 0 1-1.5.8zm3.4 8.1a2 2 0 0 1-1.6-3.2l9.1-11.3a2 2 0 0 1 3.1 2.5l-9 11.3a2 2 0 0 1-1.6.7zm16.6-8.2a2 2 0 0 1-1.5-3.3l2.5-3.1a2 2 0 0 1 3.1 2.5l-2.5 3.1a2 2 0 0 1-1.6.8zm3.4 8.2a2 2 0 0 1-1.6-3.2l9.1-11.3a2 2 0 0 1 3.1 2.5l-9 11.3a2 2 0 0 1-1.6.7zM10.6 54a2 2 0 0 1-1.4-3.4 2.1 2.1 0 0 1 2.8 0 2 2 0 0 1-1.4 3.4zm3.6 8a2 2 0 0 1-1.4-.6 2.1 2.1 0 0 1-.6-1.4 2 2 0 0 1 .6-1.4 2.1 2.1 0 0 1 2.8 0 2 2 0 0 1-1.4 3.4zm16.4-8a2 2 0 0 1-1.4-3.4 2.1 2.1 0 0 1 2.8 0 2 2 0 0 1 0 2.8 2 2 0 0 1-1.4.6zm3.6 8a2 2 0 0 1-1.4-.6 2 2 0 0 1 0-2.8 2.1 2.1 0 0 1 2.8 0 2 2 0 0 1 0 2.8 2 2 0 0 1-1.4.6z"
    fill="#2e2c2d"></path>
    <path data-name="layer1" d="M46.8 38A10.1 10.1 0 0 0 57 28.1a10.1 10.1 0 0 0-10.2-9.9h-1A13.6 13.6 0 0 0 33.1 10a13.5 13.5 0 0 0-13.5 11.5h-.1a8.2 8.2 0 1 0 0 16.5zM11.5 20.4a12.6 12.6 0 0 1 4.8-2.4 17.4 17.4 0 0 1 9.6-10.5A10 10 0 0 0 17 2h-.7a6.9 6.9 0 0 1 .6 3 7 7 0 0 1-7 7 6.9 6.9 0 0 1-2.8-.6c0 .2-.1.4-.1.6a10 10 0 0 0 4.5 8.4z"
    fill="#2e2c2d"></path>
  </symbol>
  <symbol xmlns="http://www.w3.org/2000/svg" viewBox="0 0 64 64" id="night-cloudy-lightning-1">
    <title>Night Cloudy Lightning</title>
    <desc>A solid styled icon from Orion Icon Library.</desc>
    <path data-name="layer2"
    d="M25.4 61a2 2 0 0 1-1.6-3.2l7-8.7h-8l12.6-15.8a2 2 0 1 1 3.1 2.5L31.1 45h8L27 60.2a2 2 0 0 1-1.6.8z"
    fill="#2e2c2d"></path>
    <path data-name="layer1" d="M11.5 21.4a12.6 12.6 0 0 1 4.8-2.4 17.4 17.4 0 0 1 9.6-10.5A10 10 0 0 0 17 3h-.7a6.9 6.9 0 0 1 .6 3 7 7 0 0 1-9.8 6.4c0 .2-.1.4-.1.6a10 10 0 0 0 4.5 8.4zm35.3-2.2h-1A13.6 13.6 0 0 0 33.1 11a13.5 13.5 0 0 0-13.5 11.6h-.1a8.2 8.2 0 1 0 0 16.5h6.2l6.6-8.2a6 6 0 1 1 9.4 7.5l-.6.7h5.7a10.1 10.1 0 0 0 10.2-10 10.1 10.1 0 0 0-10.2-9.9z"
    fill="#2e2c2d"></path>
  </symbol>
  <symbol xmlns="http://www.w3.org/2000/svg" viewBox="0 0 64 64" id="night-lightning-storm-1">
    <title>Night Lightning Storm</title>
    <desc>A solid styled icon from Orion Icon Library.</desc>
    <path data-name="layer2"
    d="M6.6 62A2 2 0 0 1 5 58.7l2.8-3.5a2 2 0 1 1 3.2 2.5l-2.8 3.5a2 2 0 0 1-1.6.8zm6.9-8.6a2 2 0 0 1-1.6-3.2l5.9-7.4a2 2 0 0 1 3.2 2.4l-5.9 7.4a2 2 0 0 1-1.6.8zM38.6 62a2 2 0 0 1-1.6-3.3l6.8-8.5a2 2 0 0 1 3.1 2.5l-6.8 8.5a2 2 0 0 1-1.5.8zm11.2-14a2 2 0 0 1-1.6-3.2l1.6-2a2 2 0 1 1 3.2 2.4l-1.6 2a2 2 0 0 1-1.6.8zm-22 12a2 2 0 0 1-1.6-3.2l7-8.7h-8l12.6-15.8a2 2 0 1 1 3.1 2.5L33.5 44h8L29.4 59.2a2 2 0 0 1-1.6.8z"
    fill="#2e2c2d"></path>
    <path data-name="layer1" d="M13.9 20.4a12.6 12.6 0 0 1 4.8-2.4 17.4 17.4 0 0 1 9.6-10.5A10 10 0 0 0 19.4 2h-.7a6.9 6.9 0 0 1 .6 3 7 7 0 0 1-9.8 6.4c0 .2-.1.4-.1.6a10 10 0 0 0 4.5 8.4zm35.3-2.2h-1A13.6 13.6 0 0 0 35.6 10 13.5 13.5 0 0 0 22 21.6h-.1a8.2 8.2 0 1 0 0 16.5h6.2l6.6-8.2a6 6 0 1 1 9.4 7.5l-.6.7h5.7a10.1 10.1 0 0 0 10.2-9.9 10.1 10.1 0 0 0-10.2-10z"
    fill="#2e2c2d"></path>
  </symbol>
  <symbol viewBox="0 0 64 64" xmlns="http://www.w3.org/2000/svg" id="night-hail-1">
    <title>Night Hail</title>
    <desc>A solid styled icon from Orion Icon Library.</desc>
    <path fill="#2e2c2d"
    d="M43.8 18.232c-.332 0-.66.019-.984.05A13.628 13.628 0 0 0 30.168 10a13.476 13.476 0 0 0-13.516 11.541c-.039 0-.074-.014-.113-.014a8.241 8.241 0 1 0 0 16.473h27.316a10.054 10.054 0 0 0 10.164-9.881A10.058 10.058 0 0 0 43.8 18.232zM8.55 20.361a12.6 12.6 0 0 1 4.84-2.442 17.386 17.386 0 0 1 9.563-10.4A9.992 9.992 0 0 0 14.019 2c-.256 0-.5.057-.748.076a6.914 6.914 0 0 1 .641 2.891 7 7 0 0 1-7 7 6.948 6.948 0 0 1-2.828-.606c-.014.217-.064.422-.064.641a9.985 9.985 0 0 0 4.53 8.359z"
    data-name="layer2"></path>
    <path fill="#2e2c2d" d="M18 42a2.006 2.006 0 0 0-2 2v10.43a11.986 11.986 0 0 0-8.132-2.324 2 2 0 0 0 .332 3.986 8.01 8.01 0 0 1 7.973 4.721c.005.012.014.02.02.031A2 2 0 0 0 20 60V44a2.006 2.006 0 0 0-2-2zm-1.948 18.436l.006.018zm36.082-8.331A12 12 0 0 0 44 54.427V44a2 2 0 0 0-4 0v16a2 2 0 0 0 3.806.844c.005-.011.015-.019.02-.031a8.03 8.03 0 0 1 7.974-4.721 2 2 0 0 0 .334-3.986zm-8.191 8.35l.006-.02z"
    data-name="layer1"></path>
    <rect fill="#2e2c2d" ry="2" rx="2" height="14" width="4" y="42"
    x="24" data-name="layer1"></rect>
    <rect fill="#2e2c2d" ry="2" rx="2" height="10" width="4" y="42"
    x="32" data-name="layer1"></rect>
    <circle fill="#2e2c2d" r="2" cy="60" cx="26" data-name="layer1"></circle>
    <circle fill="#2e2c2d" r="2" cy="56" cx="34" data-name="layer1"></circle>
    <circle fill="#2e2c2d" r="2" cy="54" cx="58" data-name="layer1"></circle>
    <circle fill="#2e2c2d" r="2" cy="54" cx="2" data-name="layer1"></circle>
  </symbol>
  <symbol xmlns="http://www.w3.org/2000/svg" viewBox="0 0 64 64" id="night-heavy-snow-1">
    <title>Night Heavy Snow</title>
    <desc>A solid styled icon from Orion Icon Library.</desc>
    <circle data-name="layer2"
    cx="20" cy="47.8" r="2.5" fill="#2e2c2d"></circle>
    <circle data-name="layer2" cx="27" cy="55.8" r="2.5" fill="#2e2c2d"></circle>
    <circle data-name="layer2" cx="34" cy="47.8" r="2.5" fill="#2e2c2d"></circle>
    <circle data-name="layer2" cx="48" cy="47.8" r="2.5" fill="#2e2c2d"></circle>
    <circle data-name="layer2" cx="41" cy="55.8" r="2.5" fill="#2e2c2d"></circle>
    <path data-name="layer1" d="M46.8 41.7A10.1 10.1 0 0 0 57 31.9 10.1 10.1 0 0 0 46.8 22h-1a13.6 13.6 0 0 0-12.6-8.3 13.5 13.5 0 0 0-13.6 11.6h-.1a8.2 8.2 0 1 0 0 16.5zM11.5 24.1a12.6 12.6 0 0 1 4.8-2.4 17.4 17.4 0 0 1 9.6-10.4A10 10 0 0 0 17 5.7h-.7a6.9 6.9 0 0 1 .6 2.9A7 7 0 0 1 7.1 15c0 .2-.1.4-.1.6a10 10 0 0 0 4.5 8.5z"
    fill="#2e2c2d"></path>
  </symbol>
  <symbol xmlns="http://www.w3.org/2000/svg" viewBox="0 0 64 64" id="night-snow-1">
    <title>Night Snow</title>
    <desc>A solid styled icon from Orion Icon Library.</desc>
    <path data-name="layer2"
    d="M24 47a2 2 0 0 0-2-2 2 2 0 0 0-4 0 2 2 0 1 0 0 4 2 2 0 1 0 4 0 2 2 0 0 0 2-2zm14 0a2 2 0 0 0-2-2 2 2 0 0 0-2-2 2 2 0 0 0-2 2 2 2 0 0 0 0 4 2 2 0 0 0 2 2 2 2 0 0 0 2-2 2 2 0 0 0 2-2zm-8.6 8a2 2 0 0 0-2-2 2 2 0 0 0-2 2 2 2 0 0 0 0 4 2 2 0 0 0 2 2 2 2 0 0 0 2-2 2 2 0 0 0 0-4zm13.2 0a2 2 0 0 0-4 0 2 2 0 0 0 0 4 2 2 0 0 0 4 0 2 2 0 0 0 0-4zM50 45a2 2 0 0 0-4 0 2 2 0 0 0 0 4 2 2 0 1 0 4 0 2 2 0 0 0 0-4z"
    fill="#2e2c2d"></path>
    <path data-name="layer1" d="M46.8 19.2h-1A13.6 13.6 0 0 0 33.1 11a13.5 13.5 0 0 0-13.5 11.5h-.1a8.2 8.2 0 1 0 0 16.5h27.3A10.1 10.1 0 0 0 57 29.1a10.1 10.1 0 0 0-10.2-9.9zm-30.4-.3a17.4 17.4 0 0 1 9.5-10.4A10 10 0 0 0 17 3h-.7a6.9 6.9 0 0 1 .6 3 7 7 0 0 1-9.8 6.4c0 .2-.1.4-.1.6a10 10 0 0 0 4.5 8.4 12.6 12.6 0 0 1 4.9-2.5z"
    fill="#2e2c2d"></path>
  </symbol>
  <symbol xmlns="http://www.w3.org/2000/svg" viewBox="0 0 64 64" id="windsock-1">
    <title>Windsock</title>
    <desc>A solid styled icon from Orion Icon Library.</desc>
    <path data-name="layer2"
    d="M29 3.9v27.3c5.4-.5 10-1.2 14-1.9V12l-7.4-4.8A31.3 31.3 0 0 0 29 3.9z"
    fill="#2e2c2d"></path>
    <path data-name="layer1" d="M13 2a2 2 0 0 0-4 0v58H3a2 2 0 0 0 0 4h16a2 2 0 0 0 0-4h-6V32c4.3 0 8.3-.2 12-.4V2.8A49.1 49.1 0 0 0 13 2zm46 16c-4.2 0-7.9-1.4-12-3.7v14.3L59 26c3.7-.6 4-2.9 4-4a3.8 3.8 0 0 0-4-4z"
    fill="#2e2c2d"></path>
  </symbol>
  <symbol xmlns="http://www.w3.org/2000/svg" viewBox="0 0 64 64" id="wind-turbine-1">
    <title>Wind Turbine</title>
    <desc>A solid styled icon from Orion Icon Library.</desc>
    <circle data-name="layer1"
    cx="32" cy="27" r="4" fill="#2e2c2d"></circle>
    <path data-name="layer2" d="M36 5.7C36 2.2 33.8 1 32 1c-1.8 0-4 1.2-4 4.7S30 19 32 19s4-9.8 4-13.3zM25.9 31.4c-1-1.7-10.5 1.4-13.5 3.2s-3 4.2-2.1 5.8c.9 1.6 3 2.9 6.1 1.1s10.5-8.3 9.5-10.1zm25.7 3.3c-3-1.8-12.5-4.9-13.5-3.2-1 1.7 6.5 8.4 9.5 10.1s5.1.5 6.1-1.1c.9-1.6 1-4.1-2.1-5.8z"
    fill="#2e2c2d"></path>
    <path data-name="layer1" d="M44 59H34V34.7l-2 .3-2-.3V59H20a2 2 0 1 0 0 4h24a2 2 0 0 0 0-4z"
    fill="#2e2c2d"></path>
  </symbol>
  <symbol xmlns="http://www.w3.org/2000/svg" viewBox="0 0 64 64" id="umbrella-1">
    <title>Umbrella</title>
    <desc>A solid styled icon from Orion Icon Library.</desc>
    <path data-name="layer2"
    d="M34 4.1V3a2 2 0 0 0-4 0v1.1A31 31 0 0 0 1 35v.4h.1l.2.2H2a1 1 0 0 0 .8-.4 8 8 0 0 1 13.3 0l.3.3a1 1 0 0 0 1.4-.3 8 8 0 0 1 13.3 0h.1l.2.2h.1l.5.2.5-.2.3-.4A8 8 0 0 1 46 35l.3.3.6.2a1 1 0 0 0 .8-.4 8 8 0 0 1 13.3 0h.3l.5.2a1 1 0 0 0 1-1A31 31 0 0 0 34 4.1z"
    fill="#2e2c2d"></path>
    <path data-name="layer1" d="M40 55a2 2 0 0 0-2 2 2 2 0 0 1-4 0V39.6a4.9 4.9 0 0 1-4 0V57a6 6 0 0 0 12 0 2 2 0 0 0-2-2z"
    fill="#2e2c2d"></path>
  </symbol>
  <symbol xmlns="http://www.w3.org/2000/svg" viewBox="0 0 64 64" id="water-1">
    <title>Water</title>
    <desc>A solid styled icon from Orion Icon Library.</desc>
    <path data-name="layer1"
    d="M51.9 40.1a20.6 20.6 0 0 0-1-4.9C46.9 20.8 32 2 32 2S17.1 20.8 13 35.2a20.6 20.6 0 0 0-1 4.9c0 .5-.1 1-.1 1.5A20.2 20.2 0 0 0 32 62a20.2 20.2 0 0 0 20-20.4c0-.5 0-1-.1-1.5z"
    fill="#2e2c2d"></path>
  </symbol>
  <symbol xmlns="http://www.w3.org/2000/svg" viewBox="0 0 64 64" id="humidity-1">
    <title>Humidity</title>
    <desc>A solid styled icon from Orion Icon Library.</desc>
    <circle data-name="layer1"
    cx="26" cy="32" r="2" fill="#2e2c2d"></circle>
    <circle data-name="layer1" cx="38" cy="48" r="2" fill="#2e2c2d"></circle>
    <path data-name="layer1" d="M51.9 40.1a20.6 20.6 0 0 0-1-4.9C46.9 20.8 32 2 32 2S17.1 20.8 13 35.2a20.6 20.6 0 0 0-1 4.9c0 .5-.1 1-.1 1.5A20.2 20.2 0 0 0 32 62a20.2 20.2 0 0 0 20-20.4c0-.5 0-1-.1-1.5zM20 32a6 6 0 1 1 6 6 6 6 0 0 1-6-6zm6 20a2 2 0 0 1-1.7-3l12-20a2 2 0 1 1 3.4 2l-12 20a2 2 0 0 1-1.7 1zm12 2a6 6 0 1 1 6-6 6 6 0 0 1-6 6z"
    fill="#2e2c2d"></path>
  </symbol>
  <symbol xmlns="http://www.w3.org/2000/svg" viewBox="0 0 64 64" id="water-droplet-1">
    <title>Water Droplet</title>
    <desc>A solid styled icon from Orion Icon Library.</desc>
    <path data-name="layer2"
    d="M24 51a10.4 10.4 0 0 0-.5-2.5C21.4 41.4 14 32 14 32s-7.4 9.4-9.5 16.6A10.4 10.4 0 0 0 4 51v.8A10.1 10.1 0 0 0 14 62a10.1 10.1 0 0 0 10-10.2V51zm36 0a10.4 10.4 0 0 0-.5-2.5C57.4 41.4 50 32 50 32s-7.4 9.4-9.5 16.6A10.4 10.4 0 0 0 40 51v.8a10 10 0 1 0 20 0V51z"
    fill="#2e2c2d"></path>
    <path data-name="layer1" d="M42 21a10.4 10.4 0 0 0-.5-2.5C39.4 11.4 32 2 32 2s-7.4 9.4-9.5 16.6A10.3 10.3 0 0 0 22 21v.8a10 10 0 1 0 20 0V21z"
    fill="#2e2c2d"></path>
  </symbol>
  <symbol xmlns="http://www.w3.org/2000/svg" viewBox="0 0 64 64" id="droplet-1">
    <title>Droplet</title>
    <desc>A solid styled icon from Orion Icon Library.</desc>
    <path data-name="layer2"
    d="M38 51.4a6.2 6.2 0 0 0-.3-1.5C36.5 45.6 32 40 32 40s-4.5 5.6-5.7 9.9a6.2 6.2 0 0 0-.3 1.5v.5a6 6 0 1 0 12 0v-.5z"
    fill="#2e2c2d"></path>
    <path data-name="layer1" d="M49 16h-.5a17 17 0 0 0-32.3 4.4A11 11 0 1 0 13 42h12.7a52.2 52.2 0 0 1 3.1-4.5l3.1-4 3.1 4a52.2 52.2 0 0 1 3.3 4.5H49a13 13 0 0 0 0-26z"
    fill="#2e2c2d"></path>
  </symbol>
  <symbol xmlns="http://www.w3.org/2000/svg" viewBox="0 0 64 64" id="thunder-1">
    <title>Thunder</title>
    <desc>A solid styled icon from Orion Icon Library.</desc>
    <path data-name="layer1"
    fill="#2e2c2d" d="M41 2L13 34h14.2L21 62l30-34H37l4-26z"></path>
  </symbol>
  <symbol xmlns="http://www.w3.org/2000/svg" viewBox="0 0 64 64" id="lightning-strike-1">
    <title>Lightning Strike</title>
    <desc>A solid styled icon from Orion Icon Library.</desc>
    <path data-name="layer1"
    fill="#2e2c2d" d="M48 2H26L14 32h16.4L20 62l30-38H36L48 2z"></path>
  </symbol>
  <symbol xmlns="http://www.w3.org/2000/svg" viewBox="0 0 64 64" id="download-cloud-1">
    <title>Download Cloud</title>
    <desc>A solid styled icon from Orion Icon Library.</desc>
    <path data-name="layer2"
    d="M41.4 41.2a2 2 0 0 0-2.8 0L34 45.8V28.6a2 2 0 1 0-4 0v17.2l-4.6-4.6a2 2 0 1 0-2.8 2.8l9.4 9.4 9.4-9.4a2 2 0 0 0 0-2.8z"
    fill="#2e2c2d"></path>
    <path data-name="layer1" d="M49 20.6h-.5A17 17 0 0 0 16.2 25 11 11 0 1 0 13 46.6h6.5a6 6 0 0 1 4.5-10 6 6 0 0 1 2 .3v-8.3a6 6 0 1 1 12 0v8.3a6 6 0 0 1 2-.3 6 6 0 0 1 4.5 10H49a13 13 0 0 0 0-26z"
    fill="#2e2c2d"></path>
  </symbol>
  <symbol xmlns="http://www.w3.org/2000/svg" viewBox="0 0 64 64" id="upload-to-cloud-1">
    <title>Upload To Cloud</title>
    <desc>A solid styled icon from Orion Icon Library.</desc>
    <path data-name="layer2"
    d="M41.4 35.6L32 26.2l-9.4 9.4a2 2 0 1 0 2.8 2.8l4.6-4.6V51a2 2 0 1 0 4 0V33.8l4.6 4.6a2 2 0 1 0 2.8-2.8z"
    fill="#2e2c2d"></path>
    <path data-name="layer1" d="M49 21h-.5a17 17 0 0 0-32.3 4.4A11 11 0 1 0 13 47h13v-4.3a6 6 0 0 1-6.2-9.9l9.4-9.4 2.8-2.9 2.8 2.8 9.4 9.4a6 6 0 0 1-6.2 10V47h11a13 13 0 0 0 0-26z"
    fill="#2e2c2d"></path>
  </symbol>
  <symbol xmlns="http://www.w3.org/2000/svg" viewBox="0 0 64 64" id="cloud-sync-1">
    <title>Cloud Sync</title>
    <desc>A solid styled icon from Orion Icon Library.</desc>
    <path data-name="layer2"
    d="M49.5 36.4a2 2 0 0 0-2.8.6l-.7 1a14 14 0 1 0-3.4 14.2 2 2 0 1 0-2.8-2.8A10 10 0 1 1 42 38.7l-1.2-1.1a2 2 0 1 0-2.7 3l6.9 6.2 5-7.5a2 2 0 0 0-.5-2.9z"
    fill="#2e2c2d"></path>
    <path data-name="layer1" d="M49 17.7h-.5a17 17 0 0 0-32.3 4.4A11 11 0 1 0 13 43.7h1.8c0-.5-.1-.9-.1-1.4a18 18 0 0 1 32.9-10.1h.8a6 6 0 0 1 5 9.3l-1.3 1.9.6-.2c5.3-2 9.3-6.6 9.3-12.5a13 13 0 0 0-13-13z"
    fill="#2e2c2d"></path>
  </symbol>
  <symbol xmlns="http://www.w3.org/2000/svg" viewBox="0 0 64 64" id="compass-1">
    <title>Compass</title>
    <desc>A solid styled icon from Orion Icon Library.</desc>
    <path data-name="layer1"
    d="M53.2 10.8a30 30 0 1 0 0 42.4 30 30 0 0 0 0-42.4zM36.5 36.5L23 41l4.5-13.5L41 23z"
    fill="#2e2c2d"></path>
  </symbol>
  <symbol xmlns="http://www.w3.org/2000/svg" viewBox="0 0 64 64" id="compass-north-1">
    <title>Compass North</title>
    <desc>A solid styled icon from Orion Icon Library.</desc>
    <path data-name="layer1"
    d="M32 8a24 24 0 1 0 24 24A24 24 0 0 0 32 8zm0 31.5a5 5 0 0 1-5-5 4.9 4.9 0 0 1 .7-2.5l4.3-7.5 4.3 7.5a4.9 4.9 0 0 1 .7 2.5 5 5 0 0 1-5 5z"
    fill="#2e2c2d"></path>
  </symbol>
  <symbol xmlns="http://www.w3.org/2000/svg" viewBox="0 0 64 64" id="compass-east-1">
    <title>Compass East</title>
    <desc>A solid styled icon from Orion Icon Library.</desc>
    <path data-name="layer1"
    d="M56 32a24 24 0 1 0-24 24 24 24 0 0 0 24-24zm-31.5 0a5 5 0 0 1 5-5 4.9 4.9 0 0 1 2.5.7l7.5 4.3-7.5 4.3a4.9 4.9 0 0 1-2.5.7 5 5 0 0 1-5-5z"
    fill="#2e2c2d"></path>
  </symbol>
  <symbol xmlns="http://www.w3.org/2000/svg" viewBox="0 0 64 64" id="compass-south-1">
    <title>Compass South</title>
    <desc>A solid styled icon from Orion Icon Library.</desc>
    <path data-name="layer1"
    d="M32 56A24 24 0 1 0 8 32a24 24 0 0 0 24 24zm0-31.5a5 5 0 0 1 5 5 4.9 4.9 0 0 1-.7 2.5L32 39.5 27.7 32a4.9 4.9 0 0 1-.7-2.5 5 5 0 0 1 5-5z"
    fill="#2e2c2d"></path>
  </symbol>
  <symbol xmlns="http://www.w3.org/2000/svg" viewBox="0 0 64 64" id="compass-west-1">
    <title>Compass West</title>
    <desc>A solid styled icon from Orion Icon Library.</desc>
    <path data-name="layer1"
    d="M8 32A24 24 0 1 0 32 8 24 24 0 0 0 8 32zm31.5 0a5 5 0 0 1-5 5 4.9 4.9 0 0 1-2.5-.7L24.5 32l7.5-4.3a4.9 4.9 0 0 1 2.5-.7 5 5 0 0 1 5 5z"
    fill="#2e2c2d"></path>
  </symbol>
  <symbol xmlns="http://www.w3.org/2000/svg" viewBox="0 0 64 64" id="thermometer-maximum-1">
    <title>Thermometer Maximum</title>
    <desc>A solid styled icon from Orion Icon Library.</desc>
    <path data-name="layer1"
    d="M40 36.5V10a8 8 0 1 0-16 0v26.5a14 14 0 1 0 16 0zM32 54a6 6 0 0 1-2-11.7V10a2 2 0 0 1 4 0v32.3A6 6 0 0 1 32 54z"
    fill="#2e2c2d"></path>
  </symbol>
  <symbol xmlns="http://www.w3.org/2000/svg" viewBox="0 0 64 64" id="thermometer-high-1">
    <title>Thermometer High</title>
    <desc>A solid styled icon from Orion Icon Library.</desc>
    <path data-name="layer1"
    d="M40 36.5V10a8 8 0 1 0-16 0v26.5a14 14 0 1 0 16 0zM32 54a6 6 0 0 1-2-11.7V18a2 2 0 1 1 4 0v24.3A6 6 0 0 1 32 54z"
    fill="#2e2c2d"></path>
  </symbol>
  <symbol xmlns="http://www.w3.org/2000/svg" viewBox="0 0 64 64" id="thermometer-medium-1">
    <title>Thermometer Medium</title>
    <desc>A solid styled icon from Orion Icon Library.</desc>
    <path data-name="layer1"
    d="M40 36.5V10a8 8 0 1 0-16 0v26.5a14 14 0 1 0 16 0zM32 54a6 6 0 0 1-2-11.7V26a2 2 0 1 1 4 0v16.3A6 6 0 0 1 32 54z"
    fill="#2e2c2d"></path>
  </symbol>
  <symbol xmlns="http://www.w3.org/2000/svg" viewBox="0 0 64 64" id="thermometer-low-1">
    <title>Thermometer Low</title>
    <desc>A solid styled icon from Orion Icon Library.</desc>
    <path data-name="layer1"
    d="M40 36.5V10a8 8 0 1 0-16 0v26.5a14 14 0 1 0 16 0zM32 54a6 6 0 0 1-2-11.7V34a2 2 0 1 1 4 0v8.3A6 6 0 0 1 32 54z"
    fill="#2e2c2d"></path>
  </symbol>
  <symbol xmlns="http://www.w3.org/2000/svg" viewBox="0 0 64 64" id="thermometer-1">
    <title>Thermometer</title>
    <desc>A solid styled icon from Orion Icon Library.</desc>
    <path data-name="layer1"
    d="M40 36.5V10a8 8 0 1 0-16 0v26.5a14 14 0 1 0 16 0zM32 54a6 6 0 1 1 6-6 6 6 0 0 1-6 6z"
    fill="#2e2c2d"></path>
  </symbol>
  <symbol xmlns="http://www.w3.org/2000/svg" viewBox="0 0 64 64" id="ice-freeze-1">
    <title>Ice Freeze</title>
    <desc>A solid styled icon from Orion Icon Library.</desc>
    <path data-name="layer2"
    d="M58 35h-8a2 2 0 0 1 0-4h-.004a4 4 0 0 0 0-8H24a2 2 0 0 1-.02-3.998h.002a4 4 0 0 0 0-8H8.002a4 4 0 0 0 0 8h6.017A2 2 0 0 1 14 23h-3.998a4 4 0 0 0 0 8H35a2 2 0 0 1 0 4H6a4 4 0 0 0 0 8h52a4 4 0 0 0 0-8z"
    fill="#2e2c2d"></path>
    <path data-name="layer1" d="M36.002 19.002h5.977a4 4 0 0 0 0-8h-5.977a4 4 0 0 0 0 8zm18 0h.973a4 4 0 0 0 0-8h-.973a4 4 0 0 0 0 8zM49.97 47H33.99a4 4 0 1 0 0 8h15.98a4 4 0 0 0 0-8zm-28 0h-2.976a4 4 0 1 0 0 8h2.977a4 4 0 0 0 0-8z"
    fill="#2e2c2d"></path>
  </symbol>
  <symbol xmlns="http://www.w3.org/2000/svg" viewBox="0 0 64 64" id="strong-wind-1">
    <title>Strong Wind</title>
    <desc>A solid styled icon from Orion Icon Library.</desc>
    <path data-name="layer2"
    d="M30.999 36.004H8.998a2.999 2.999 0 1 1 0-5.997h24.995a13 13 0 1 0 0-26 3 3 0 1 0 0 6 7 7 0 1 1 0 14H8.998a8.999 8.999 0 1 0 0 17.997h22.001a4.998 4.998 0 1 1 0 9.996 3 3 0 0 0 0 6 10.998 10.998 0 1 0 0-21.996z"
    fill="#2e2c2d"></path>
    <path data-name="layer1" d="M13.996 22.008H24.99a7 7 0 0 0 0-14 3 3 0 0 0 0 6 1 1 0 1 1 0 2H13.996a3 3 0 0 0 0 6zm37.996-4.002a4.999 4.999 0 1 1 0 9.998H45.99a3 3 0 0 0 0 6h6.003a10.999 10.999 0 1 0 0-21.998 3 3 0 0 0 0 6zM55 36.01H43.999a3 3 0 0 0 0 6H55a2.999 2.999 0 1 1 0 5.996 3 3 0 0 0 0 6 8.999 8.999 0 1 0 0-17.997z"
    fill="#2e2c2d"></path>
  </symbol>
  <symbol xmlns="http://www.w3.org/2000/svg" viewBox="0 0 64 64" id="sunny-wind-gust-1">
    <title>Sunny Wind Gust</title>
    <desc>A solid styled icon from Orion Icon Library.</desc>
    <path data-name="layer1"
    d="M31.998 11.997a2 2 0 0 0 2-2V4a2 2 0 1 0-4 0v5.997a2 2 0 0 0 2 2zM6 32h8a2 2 0 0 0 0-4H6a2 2 0 0 0 0 4zm12.587-14.583a2 2 0 0 0 2.83-2.828l-5.998-6a2 2 0 1 0-2.829 2.829zm25.419.573a1.993 1.993 0 0 0 1.414-.587l5.91-5.909a2 2 0 1 0-2.83-2.828l-5.91 5.909a2 2 0 0 0 1.415 3.414z"
    fill="#2e2c2d"></path>
    <path data-name="layer2" d="M56.002 35.998a1.999 1.999 0 1 1 0 3.998h-5.991a2 2 0 0 0 0 4h5.991a5.999 5.999 0 1 0 0-11.998 2 2 0 0 0 0 4zm2.001 11.999H46.009a2 2 0 0 0 0 4h11.994a1.999 1.999 0 1 1 0 3.998 2 2 0 0 0 0 4 5.999 5.999 0 1 0 0-11.998zm-23.995 0H2a2 2 0 0 0 0 4h32.008a3.999 3.999 0 1 1 0 7.997 2 2 0 0 0 0 4 7.999 7.999 0 1 0 0-15.997zm4.002-20.002a2 2 0 0 0 0 4 3.999 3.999 0 1 1 0 7.997H2a2 2 0 0 0 0 4h36.01a7.999 7.999 0 1 0 0-15.997z"
    fill="#2e2c2d"></path>
    <path data-name="layer1" d="M22.602 38H38.01a1.999 1.999 0 1 0 0-3.997 4 4 0 1 1 0-8 9.965 9.965 0 0 1 7.002 2.872L43.7 23.399A12.998 12.998 0 1 0 22.602 38z"
    fill="#2e2c2d"></path>
  </symbol>
  <symbol xmlns="http://www.w3.org/2000/svg" viewBox="0 0 64 64" id="night-wind-1">
    <title>Night Wind</title>
    <desc>A solid styled icon from Orion Icon Library.</desc>
    <path data-name="layer2"
    d="M55.999 38.001h-5.991a2 2 0 0 1 0-4h5.991a1.999 1.999 0 1 0 0-3.998 2 2 0 0 1 0-4 5.999 5.999 0 1 1 0 11.998zM58 54a2 2 0 0 1 0-4 1.999 1.999 0 1 0 0-3.998H46.006a2 2 0 1 1 0-4H58A5.999 5.999 0 1 1 58 54zm-23.995 4a2 2 0 0 1 0-4 3.999 3.999 0 1 0 0-7.997L2 46a2 2 0 1 1 0-4l32.005.003a7.999 7.999 0 1 1 0 15.997zm4.002-20.002H1.997a2 2 0 0 1 0-4h36.01a3.999 3.999 0 1 0 0-7.997 2 2 0 0 1 0-4 7.999 7.999 0 1 1 0 15.997z"
    fill="#2e2c2d"></path>
    <path data-name="layer1" d="M40.01 30.001a2.001 2.001 0 0 0-2-1.998 4 4 0 0 1 0-8 9.94 9.94 0 0 1 6.126 2.113 19.796 19.796 0 0 0-1.296-5.833A14.104 14.104 0 0 0 31.334 7.89a11.731 11.731 0 0 1-15.326 16.186A14.064 14.064 0 0 0 20.11 32h17.9a2.001 2.001 0 0 0 2-1.999z"
    fill="#2e2c2d"></path>
  </symbol>
  <symbol xmlns="http://www.w3.org/2000/svg" viewBox="0 0 64 64" id="partly-cloudy-wind-1">
    <title>Partly Cloudy Wind</title>
    <desc>A solid styled icon from Orion Icon Library.</desc>
    <path data-name="layer2"
    d="M23.999 10a2 2 0 0 0 2-2V2a2 2 0 0 0-4 0v6a2 2 0 0 0 2 2zM8 22H2a2 2 0 0 0 0 4h6a2 2 0 0 0 0-4zm3.586-7.586a2 2 0 0 0 2.828-2.828l-5-5a2 2 0 0 0-2.828 2.828zM35 15a1.993 1.993 0 0 0 1.414-.586l5-5a2 2 0 0 0-2.828-2.828l-5 5A2 2 0 0 0 35 15z"
    fill="#2e2c2d"></path>
    <path data-name="layer1" d="M48.004 45.994h5.99a5.999 5.999 0 1 0 0-11.998 2 2 0 1 0 0 4 1.999 1.999 0 1 1 0 3.998h-5.99a2 2 0 0 0 0 4zM58 47.992h-9.992a2 2 0 0 0 0 4H58a1.999 1.999 0 1 1 0 3.998 2 2 0 0 0 0 4 5.999 5.999 0 1 0 0-11.998z"
    fill="#2e2c2d"></path>
    <path data-name="layer2" d="M36.998 47.994l-16.194-.002a6.795 6.795 0 1 1 1.985-13.294l2.22.675.34-2.294a11.584 11.584 0 0 1 22.033-3.03l.557 1.237 1.664-.078a8.371 8.371 0 0 1 4.526 1.321 2 2 0 0 0 2.158-3.367 12.346 12.346 0 0 0-5.845-1.926 15.63 15.63 0 0 0-13.635-8.04 15.326 15.326 0 0 0-2.79.263A10.995 10.995 0 1 0 16.01 31.54a10.785 10.785 0 0 0 4.794 20.453l16.194.002a2.999 2.999 0 1 1 0 5.997 2 2 0 0 0 0 4 6.999 6.999 0 1 0 0-13.997z"
    fill="#2e2c2d"></path>
    <path data-name="layer1" d="M39.995 31.998a2 2 0 0 0 0 4 1.999 1.999 0 1 1 0 3.998H29.328a2 2 0 0 0 0 4h10.667a5.999 5.999 0 1 0 0-11.998z"
    fill="#2e2c2d"></path>
  </symbol>
  <symbol xmlns="http://www.w3.org/2000/svg" viewBox="0 0 64 64" id="night-cloudy-wind-gust-1">
    <title>Night Cloudy Wind Gust</title>
    <desc>A solid styled icon from Orion Icon Library.</desc>
    <path data-name="layer1"
    d="M48.004 42.003h5.99a5.999 5.999 0 1 0 0-11.998 2 2 0 0 0 0 4 1.999 1.999 0 1 1 0 3.998h-5.99a2 2 0 0 0 0 4zM58 44h-9.992a2 2 0 0 0 0 4H58a1.999 1.999 0 1 1 0 3.998 2 2 0 0 0 0 4A5.999 5.999 0 1 0 58 44z"
    fill="#2e2c2d"></path>
    <path data-name="layer2" d="M36.998 44.002L14.801 44a6.795 6.795 0 1 1 1.985-13.293l2.22.675.34-2.295a11.584 11.584 0 0 1 22.033-3.03l.557 1.238 1.665-.078a8.371 8.371 0 0 1 4.525 1.321 2 2 0 1 0 2.158-3.367 12.346 12.346 0 0 0-5.845-1.926 15.628 15.628 0 0 0-13.635-8.04 15.33 15.33 0 0 0-3.962.525A12.976 12.976 0 0 0 14.024 5.008c-.2 0-.396.012-.593.025l-1.6.094.568 1.313a7.518 7.518 0 0 1 .625 3.005 7.586 7.586 0 0 1-10.6 6.97l-1.311-.567-.095 1.616c-.014.19-.026.38-.026.575A12.958 12.958 0 0 0 7.47 29.302 10.777 10.777 0 0 0 14.801 48l22.197.002a2.999 2.999 0 1 1 0 5.998 2 2 0 0 0 0 4 6.999 6.999 0 1 0 0-13.998z"
    fill="#2e2c2d"></path>
    <path data-name="layer1" d="M39.995 28.006a2 2 0 1 0 0 4 1.999 1.999 0 1 1 0 3.998h-16.67a2 2 0 1 0 0 4h16.67a5.999 5.999 0 1 0 0-11.998z"
    fill="#2e2c2d"></path>
  </symbol>
  <symbol xmlns="http://www.w3.org/2000/svg" viewBox="0 0 64 64" id="cloudy-wind-1">
    <title>Cloudy Wind</title>
    <desc>A solid styled icon from Orion Icon Library.</desc>
    <path data-name="layer1"
    d="M48.012 41.995h5.99a5.999 5.999 0 1 0 0-11.998 2 2 0 0 0 0 4 1.999 1.999 0 1 1 0 3.998h-5.99a2 2 0 0 0 0 4zm9.996 1.998h-9.992a2 2 0 0 0 0 4h9.992a1.999 1.999 0 1 1 0 3.998 2 2 0 0 0 0 4 5.999 5.999 0 1 0 0-11.998z"
    fill="#2e2c2d"></path>
    <path data-name="layer2" d="M37.006 43.995l-22.197-.002a6.795 6.795 0 1 1 1.984-13.294l2.22.675.341-2.294a11.584 11.584 0 0 1 22.033-3.03l.557 1.237 1.664-.078a8.371 8.371 0 0 1 4.526 1.321 2 2 0 1 0 2.158-3.367 12.346 12.346 0 0 0-5.845-1.926 15.628 15.628 0 0 0-13.635-8.04 15.336 15.336 0 0 0-4.022.543A12.994 12.994 0 1 0 7.517 29.26a10.777 10.777 0 0 0 7.292 18.734l22.197.002a2.999 2.999 0 1 1 0 5.997 2 2 0 0 0 0 4 6.999 6.999 0 1 0 0-13.997z"
    fill="#2e2c2d"></path>
    <path data-name="layer1" d="M40.003 27.999a2 2 0 0 0 0 4 1.999 1.999 0 1 1 0 3.998h-16.67a2 2 0 1 0 0 4h16.67a5.999 5.999 0 1 0 0-11.998z"
    fill="#2e2c2d"></path>
  </symbol>
  <symbol xmlns="http://www.w3.org/2000/svg" viewBox="0 0 64 64" id="wind-1">
    <title>Wind</title>
    <desc>A solid styled icon from Orion Icon Library.</desc>
    <path data-name="layer2"
    d="M19.394 29.625a23.949 23.949 0 0 1-16.531-6.969 3 3 0 0 1 4.274-4.21c1.059 1.074 10.701 10.24 23.114 1.333 16.23-11.646 29.424.797 30.875 2.255a3 3 0 1 1-4.252 4.233c-1.765-1.773-11.178-10.184-23.125-1.613a24.36 24.36 0 0 1-14.355 4.97z"
    fill="#2e2c2d"></path>
    <path data-name="layer2" d="M19.87 41.318a23.237 23.237 0 0 1-8.801-1.789 3 3 0 0 1 2.263-5.557c5.813 2.368 11.506 1.599 16.92-2.284 13.277-9.527 25.654-3.197 30.874 2.046a3 3 0 1 1-4.252 4.233c-1.07-1.074-10.808-10.242-23.125-1.404a23.622 23.622 0 0 1-13.879 4.755z"
    fill="#2e2c2d"></path>
    <path data-name="layer1" d="M19.65 54.087a24.382 24.382 0 0 1-16.787-7.131 3 3 0 0 1 4.274-4.21c1.075 1.09 10.854 10.4 23.114 1.605 9.106-6.534 17.357-5.336 22.676-3.18a3 3 0 0 1-2.254 5.56c-5.702-2.31-11.396-1.471-16.924 2.495a23.911 23.911 0 0 1-14.1 4.86z"
    fill="#2e2c2d"></path>
  </symbol>
  <symbol xmlns="http://www.w3.org/2000/svg" viewBox="0 0 64 64" id="windsock-2">
    <title>Windsock</title>
    <desc>A solid styled icon from Orion Icon Library.</desc>
    <path data-name="layer2"
    d="M60.997 5a3 3 0 0 0-3-3H3a3 3 0 0 0 0 6h54.997a3 3 0 0 0 3-3zM61 10H12a3 3 0 0 0 0 6h49a3 3 0 0 0 0-6zm-9.002 8H8a3 3 0 0 0 0 6h43.998a3 3 0 1 0 0-6zm-7.001 11a3 3 0 0 0-3-3H12a3 3 0 0 0 0 6h29.997a3 3 0 0 0 3-3z"
    fill="#2e2c2d"></path>
    <path data-name="layer1" d="M48.997 37a3 3 0 0 0-3-3H18a3 3 0 0 0 0 6h27.997a3 3 0 0 0 3-3zm-2.998 5H26a3 3 0 0 0 0 6h19.999a3 3 0 0 0 0-6zm-6.001 8H30a3 3 0 0 0 0 6h9.998a3 3 0 1 0 0-6zm-8 8H28a3 3 0 0 0 0 6h3.998a3 3 0 0 0 0-6z"
    fill="#2e2c2d"></path>
  </symbol>
  <symbol xmlns="http://www.w3.org/2000/svg" viewBox="0 0 64 64" id="tornado-1">
    <title>Tornado</title>
    <desc>A solid styled icon from Orion Icon Library.</desc>
    <path data-name="layer1"
    d="M56 16.002H12.004a1 1 0 0 1 0-2L51.998 14a7 7 0 0 0 0-14H4a3 3 0 0 0 0 6h47.998a1 1 0 0 1 0 2l-39.994.001a7 7 0 1 0 0 14L56 22.002a1 1 0 0 1 0 2H24.01a7 7 0 0 0 0 14l17.983.002a1 1 0 0 1 0 2l-19.984.001a7 7 0 0 0 0 14l7.978.001a.997.997 0 0 1 .03 1.995L30.013 56a7.018 7.018 0 0 0-6.083 3.535 3 3 0 1 0 5.212 2.972.99.99 0 0 1 .832-.502l.013.001a7 7 0 0 0 0-14H22.01a1 1 0 1 1 0-2l19.984-.002a7 7 0 0 0 0-14l-17.983-.002a1 1 0 1 1 0-2H56a7 7 0 0 0 0-14z"
    fill="#2e2c2d"></path>
  </symbol>
  <symbol xmlns="http://www.w3.org/2000/svg" viewBox="0 0 64 64" id="fahrenheit-1">
    <title>Fahrenheit</title>
    <desc>A solid styled icon from Orion Icon Library.</desc>
    <path data-name="layer2"
    fill="#2e2c2d" d="M49.002 18v-6h-29v51h6V40.001h15v-6h-15V18h23z"></path>
    <path data-name="layer1" d="M9 17a8 8 0 1 1 8-8.001A8.01 8.01 0 0 1 9 17zM9 4.999a4 4 0 1 0 4 4 4.005 4.005 0 0 0-4-4z"
    fill="#2e2c2d"></path>
  </symbol>
  <symbol xmlns="http://www.w3.org/2000/svg" viewBox="0 0 64 64" id="celsius-1">
    <title>Celsius</title>
    <desc>A solid styled icon from Orion Icon Library.</desc>
    <path data-name="layer2"
    d="M9.002 17.002a8 8 0 1 1 8-8 8.01 8.01 0 0 1-8 8zm0-12a4 4 0 1 0 4 4 4.005 4.005 0 0 0-4-4z"
    fill="#2e2c2d"></path>
    <path data-name="layer1" d="M36.041 63A22.066 22.066 0 0 1 14 40.959v-9.918a22.043 22.043 0 0 1 34.736-18.02l-3.46 4.902A16.044 16.044 0 0 0 20 31.042v9.917a16.042 16.042 0 0 0 25.273 13.12l3.458 4.903A21.907 21.907 0 0 1 36.041 63z"
    fill="#2e2c2d"></path>
  </symbol>
</svg>