<svg viewBox="0 0 64 64" xmlns="http://www.w3.org/2000/svg"><g fill="none" stroke="#2e2c2d" stroke-linecap="round" stroke-linejoin="round" stroke-width="3"><rect height="60" rx="8" width="40" x="12" y="2"/><path d="m18 12h28v24h-28z"/><path d="m24 44a2 2 0 0 1 -2 2h-2a2 2 0 0 1 -2-2 2 2 0 0 1 2-2h2a2 2 0 0 1 2 2zm22 0a2 2 0 0 1 -2 2h-2a2 2 0 0 1 -2-2 2 2 0 0 1 2-2h2a2 2 0 0 1 2 2zm-11 0a2 2 0 0 1 -2 2h-2a2 2 0 0 1 -2-2 2 2 0 0 1 2-2h2a2 2 0 0 1 2 2zm-11 9a2 2 0 0 1 -2 2h-2a2 2 0 0 1 -2-2 2 2 0 0 1 2-2h2a2 2 0 0 1 2 2zm22 0a2 2 0 0 1 -2 2h-2a2 2 0 0 1 -2-2 2 2 0 0 1 2-2h2a2 2 0 0 1 2 2zm-11 0a2 2 0 0 1 -2 2h-2a2 2 0 0 1 -2-2 2 2 0 0 1 2-2h2a2 2 0 0 1 2 2z"/></g></svg>