<svg viewBox="0 0 64 64" xmlns="http://www.w3.org/2000/svg"><g fill="none" stroke="#2e2c2d" stroke-linecap="round" stroke-linejoin="round" stroke-width="3"><ellipse cx="24.959" cy="10" rx="23" ry="8"/><path d="m47.959 36.953v-26.993m0 12.059c0 4.4-10.3 7.962-23 7.962s-23-3.564-23-7.962m46 12.001c0 4.4-10.3 7.961-23 7.961s-23-3.565-23-7.961"/><path d="m55.018 30-20.754 20.707-4.383 11.293 11.406-4.266 20.754-20.707zm-20.754 20.707 7.023 7.027"/><path d="m33.205 53.433a62.991 62.991 0 0 1 -8.246.527c-12.7 0-23-3.564-23-7.961v-35.999"/></g></svg>