<svg viewBox="0 0 64 64" xmlns="http://www.w3.org/2000/svg"><g fill="none" stroke="#2e2c2d" stroke-linecap="round" stroke-linejoin="round" stroke-width="3"><ellipse cx="25" cy="11" rx="23" ry="8"/><path d="m48 34.624v-23.661m0 12.057c0 4.4-10.3 7.961-23 7.961s-23-3.565-23-7.961m38.766 17.796a52.715 52.715 0 0 1 -15.766 2.165c-12.7 0-23-3.565-23-7.961"/><path d="m33.08 54.455a63.143 63.143 0 0 1 -8.08.506c-12.7 0-23-3.561-23-7.961v-36"/><path d="m30 61 16-30 16 30zm16-18v6"/><circle cx="46" cy="55" r="1"/></g></svg>