<svg viewBox="0 0 64 64" xmlns="http://www.w3.org/2000/svg"><g fill="none" stroke="#2e2c2d" stroke-linecap="round" stroke-linejoin="round" stroke-width="3"><path d="m58 18c0 5.2-3.5 7.4-8 8.2m12 9.8h-12m-1.2 8c5.2 1.2 11.1 4 11.2 12m-54-38c0 5.2 3.5 7.4 8 8.2m-12 9.8h12m1.2 8c-5.2 1.2-11.2 4-11.2 12"/><path d="m18 22.6v-2a8.6 8.6 0 0 1 8.6-8.6h10.8a8.6 8.6 0 0 1 8.6 8.6v1.9m-21.8-10.1a8 8 0 0 1 15.7 0"/><path d="m43.3 22h-22.6a6.7 6.7 0 0 0 -6.7 6.7v7.8c.1 10.6 6 19.3 18 21.5 12-2.1 17.9-11 18-21.6v-7.7a6.7 6.7 0 0 0 -6.7-6.7zm-11.3 0v36"/></g></svg>