<svg viewBox="0 0 64 64" xmlns="http://www.w3.org/2000/svg"><g fill="none" stroke="#2e2c2d" stroke-linecap="round" stroke-linejoin="round" stroke-width="3"><path d="m2 32h44v30h-44z"/><path d="m46 52a16 16 0 0 0 16-16c0-11.4-4-18-4-18a28.1 28.1 0 0 1 .8 8.4 24.8 24.8 0 0 1 -4.4 13.1c1.6-3 1.1-13.6-2.4-21.5s-9.9-11.7-16-16c5.6 4.3 7.5 12.2 6.4 18.4a27.5 27.5 0 0 1 -4.6 11.6s2.4-3.9.4-10a15.4 15.4 0 0 0 -6.2-8c8 8.1.3 9.1-1.6 18"/><path d="m2 42h44m-44 10h44m-22-10v10m-10-20v10m20-10v10m-20 10v10m20-10v10"/></g></svg>