<svg viewBox="0 0 64 64" xmlns="http://www.w3.org/2000/svg"><g fill="none" stroke="#2e2c2d" stroke-linecap="round" stroke-linejoin="round" stroke-width="3"><ellipse cx="27" cy="10" rx="23" ry="8"/><path d="m50 30.344v-20.383m0 12.059c0 4.4-10.3 7.961-23 7.961s-23-3.564-23-7.961m37.9 18.064a54.274 54.274 0 0 1 -14.9 1.9c-12.7 0-23-3.564-23-7.961"/><path d="m36 53.329a62.346 62.346 0 0 1 -9 .633c-12.7 0-23-3.562-23-7.962v-36"/><path d="m36 46.001h24v16h-24zm6-.001v-10a6 6 0 0 1 6-6 6 6 0 0 1 6 6v10m-6 6.001v4"/></g></svg>