<svg viewBox="0 0 64 64" xmlns="http://www.w3.org/2000/svg"><path d="m51.2 21.2c-2.9-2.9.5-5.4 2.5-5.4a6 6 0 1 0 -5.7-5.7c0 2-2.5 5.4-5.4 2.5l-10.6-10.6-10.6 10.6c-2.9 2.9.5 5.4 2.5 5.4a6.1 6.1 0 1 1 -5.7 5.7c0-2-2.5-5.4-5.4-2.5l-10.8 10.8 10.8 10.8c2.9 2.9-.5 5.4-2.5 5.4a6.1 6.1 0 1 0 3.9 10.3 6 6 0 0 0 1.8-4.6c0-2 2.5-5.4 5.4-2.5l10.6 10.6 10.8-10.8c2.9-2.9-.5-5.4-2.5-5.4a6 6 0 1 1 5.7-5.7c0 2 2.5 5.4 5.4 2.5l10.6-10.6z" fill="none" stroke="#2e2c2d" stroke-linecap="round" stroke-linejoin="round" stroke-width="3"/></svg>