<svg viewBox="0 0 64 64" xmlns="http://www.w3.org/2000/svg"><g fill="none" stroke="#2e2c2d" stroke-linecap="round" stroke-linejoin="round" stroke-width="3"><ellipse cx="25" cy="11" rx="23" ry="8"/><path d="m48 37v-26m0 12c0 4.4-10.3 8-23 8s-23-3.6-23-8m22 20c-12.7 0-22-3.6-22-8"/><path d="m33.9 54.4a77.5 77.5 0 0 1 -8.9.6c-12.7 0-23-3.6-23-8v-36"/><path d="m52.4 49 4.8 4.8 4.8-4.8m-24 0-4.8-4.8-4.8 4.8"/><path d="m50.9 59.6a11.8 11.8 0 0 1 -14.1-2.1 12.1 12.1 0 0 1 -2.8-12.5m5.6-6.6a11.8 11.8 0 0 1 14.1 2.1 12.1 12.1 0 0 1 2.7 12.5"/></g></svg>