<svg viewBox="0 0 64 64" xmlns="http://www.w3.org/2000/svg"><g fill="none" stroke="#2e2c2d" stroke-linecap="round" stroke-linejoin="round" stroke-width="3"><path d="m52.4 48 4.8 4.8 4.8-4.8m-24 0-4.8-4.9-4.8 4.9"/><path d="m50.9 58.6a11.8 11.8 0 0 1 -14.1-2.1 12.1 12.1 0 0 1 -2.8-12.5m5.6-6.6a11.8 11.8 0 0 1 14.1 2.1 12.1 12.1 0 0 1 2.7 12.5"/><path d="m34 52h-30a2 2 0 0 1 -2-2v-44a2 2 0 0 1 2-2h48a2 2 0 0 1 2 2v33.9m-8-11.9h-16m16-16h-16"/><circle cx="11" cy="12" r="1"/><circle cx="11" cy="28" r="1"/><circle cx="11" cy="44" r="1"/><path d="m54 20h-52m33.4 16h-33.4"/></g></svg>