<svg viewBox="0 0 64 64" xmlns="http://www.w3.org/2000/svg"><g fill="none" stroke="#2e2c2d" stroke-linecap="round" stroke-linejoin="round" stroke-width="3"><path d="m52.4 46 4.8 4.8 4.8-4.8m-24 0-4.8-4.8-4.8 4.8"/><path d="m50.9 56.6a11.8 11.8 0 0 1 -14.1-2.1 12.1 12.1 0 0 1 -2.8-12.5m5.6-6.6a11.8 11.8 0 0 1 14.1 2.1 12.1 12.1 0 0 1 2.7 12.5"/><circle cx="8" cy="12" r="1"/><circle cx="15" cy="12" r="1"/><circle cx="22" cy="12" r="1"/><path d="m54 38v-20m-52 0v32h32m-32-44h52v12h-52z"/></g></svg>