<svg viewBox="0 0 64 64" xmlns="http://www.w3.org/2000/svg"><g fill="none" stroke="#2e2c2d" stroke-linecap="round" stroke-linejoin="round" stroke-width="3"><ellipse cx="26" cy="11" rx="23" ry="8"/><path d="m49 23.02c0 4.396-10.297 7.96-23 7.96s-23-3.564-23-7.96"/><path d="m51.402 49 4.797 4.848 4.801-4.848"/><path d="m44.656 61a12.005 12.005 0 1 1 11.657-12 12.282 12.282 0 0 1 -.739 4.215"/><path d="m49 37.656v-26.695m-14.133 31.407a61.167 61.167 0 0 1 -8.867.612c-12.703 0-23-3.564-23-7.96"/><path d="m34.25 54.52a79.154 79.154 0 0 1 -8.25.44c-12.703 0-23-3.563-23-7.96v-36"/></g></svg>