<svg viewBox="0 0 64 64" xmlns="http://www.w3.org/2000/svg"><g fill="none" stroke="#2e2c2d" stroke-linecap="round" stroke-linejoin="round" stroke-width="3"><path d="m58.6 49.1a11.8 11.8 0 0 0 .2-2.1 11.9 11.9 0 0 0 -.2-2.3l3.1-1.7-4-6.9-3 1.8a18.2 18.2 0 0 0 -3.7-2.2v-3.7h-8v3.7a7.8 7.8 0 0 0 -3.8 2.1l-3.1-1.8-4.1 7 3 1.7a11.7 11.7 0 0 0 -.2 2.3 11.9 11.9 0 0 0 .2 2.1l-3.3 1.9 4 6.9 3.4-1.9a8.3 8.3 0 0 0 3.9 2.3v3.7h8v-3.7a19.2 19.2 0 0 0 3.8-2.3l3.2 2 4-7zm-11.8 2.9a5 5 0 1 1 5-5 5 5 0 0 1 -5 5z"/><path d="m33.5 50h-29.5a2 2 0 0 1 -2-2v-44a2 2 0 0 1 2-2h48a2 2 0 0 1 2 2v33.4m-8-11.4h-16m16-16h-16"/><circle cx="11" cy="10" r="1"/><circle cx="11" cy="26" r="1"/><circle cx="11" cy="42" r="1"/><path d="m54 18h-52m41 16h-41"/></g></svg>