<svg viewBox="0 0 64 64" xmlns="http://www.w3.org/2000/svg"><g fill="none" stroke="#2e2c2d" stroke-linecap="round" stroke-linejoin="round" stroke-width="3"><circle cx="8" cy="12" r="1"/><circle cx="15" cy="12" r="1"/><circle cx="22" cy="12" r="1"/><path d="m2 6h52v12h-52zm52 27v-15m-52 0v32h31"/><circle cx="47" cy="43" r="5"/><path d="m62 47-3.4-2a11.8 11.8 0 0 0 .2-2.1 11.9 11.9 0 0 0 -.2-2.3l3.1-1.6-4-6.9-3.1 1.8c-1.2-1-2.6-1.9-3.6-1.9v-4h-8v4a7.9 7.9 0 0 0 -3.9 1.8l-3.1-1.8-4 7 3 1.7a11.7 11.7 0 0 0 -.2 2.3 11.9 11.9 0 0 0 .2 2.1l-3.3 1.9 4 6.9 3.3-1.8a8.2 8.2 0 0 0 4 1.9v4h8v-4c1 0 2.5-1 3.7-2l3.3 2z"/></g></svg>