<svg viewBox="0 0 64 64" xmlns="http://www.w3.org/2000/svg"><g fill="none" stroke="#2e2c2d" stroke-linecap="round" stroke-linejoin="round" stroke-width="3"><ellipse cx="25" cy="10" rx="23" ry="8"/><path d="m48 32v-22m0 12c0 4.4-10.3 8-23 8s-23-3.6-23-8m30.9 19.5a63.3 63.3 0 0 1 -7.9.5c-12.7 0-23-3.6-23-8"/><path d="m33.1 53.5a63.2 63.2 0 0 1 -8.1.5c-12.7 0-23-3.6-23-8v-36"/><circle cx="46.8" cy="47" r="5"/><path d="m62 51-3.4-2a11.8 11.8 0 0 0 .2-2.1 11.9 11.9 0 0 0 -.2-2.3l3.1-1.6-4-6.9-3.1 1.8a12 12 0 0 0 -3.7-2.1v-3.8h-8v3.7a12 12 0 0 0 -3.7 2.1l-3.2-1.8-4 7 3 1.7a11.7 11.7 0 0 0 -.2 2.3 11.9 11.9 0 0 0 .2 2.1l-3.3 1.9 4 6.9 3.3-1.8a12 12 0 0 0 3.8 2.2v3.7h8v-3.7a12.1 12.1 0 0 0 3.9-2.3l3.3 2z"/></g></svg>