<svg viewBox="0 0 64 64" xmlns="http://www.w3.org/2000/svg"><g fill="none" stroke="#2e2c2d" stroke-linecap="round" stroke-linejoin="round" stroke-width="3"><path d="m32 46.8a6.1 6.1 0 0 0 -4.5 2 1 1 0 0 0 0 1.4l3.7 3.8a1 1 0 0 0 1.4 0l3.7-3.8a1 1 0 0 0 0-1.4 6.1 6.1 0 0 0 -4.3-2z"/><path d="m18.4 39.9 4 4.5a14.6 14.6 0 0 1 19.2 0l4-4.5a20.6 20.6 0 0 0 -27.1 0z"/><path d="m10.2 30.4 4 4.5a27.2 27.2 0 0 1 35.8 0l4-4.5a33.2 33.2 0 0 0 -43.7 0z"/><path d="m32 9.8a45.6 45.6 0 0 0 -30 11.2l4 4.5a39.6 39.6 0 0 1 52.1 0l3.9-4.5a45.6 45.6 0 0 0 -30-11.2z"/></g></svg>