<svg xmlns="http://www.w3.org/2000/svg" viewBox="0 0 64 64" aria-labelledby="title"
aria-describedby="desc" role="img" xmlns:xlink="http://www.w3.org/1999/xlink"
width="64" height="64">
  <title>Compact</title>
  <desc>A solid styled icon from Orion Icon Library.</desc>
  <path data-name="layer2"
  fill="#2e2c2d" d="M10 43h6.25L3 57l4 4 14.004-14.477.003 7.473L27 54V37H10v6z"></path>
  <path data-name="layer1" fill="#2e2c2d" d="M53 42v-6H36v17h6v-6.757L56.758 61 61 56.758 46.242 42H53z"></path>
  <path data-name="layer2" fill="#2e2c2d" d="M53 21h-6.471L61 7l-4-4-15 14.151V10h-6v17h17v-6z"></path>
  <path data-name="layer1" fill="#2e2c2d" d="M22 17.806L7 3 3 7l14.81 15H11v6h17V11h-6v6.806z"></path>
</svg>