<svg xmlns="http://www.w3.org/2000/svg" viewBox="0 0 64 64" aria-labelledby="title"
aria-describedby="desc" role="img" xmlns:xlink="http://www.w3.org/1999/xlink"
width="64" height="64">
  <title>Expand</title>
  <desc>A solid styled icon from Orion Icon Library.</desc>
  <path data-name="layer1"
  d="M64 64H38V38h26z" fill="#2e2c2d"></path>
  <path data-name="layer2" d="M28.006 64H0V0h64v28a2 2 0 0 1-4 0V4H4v56h24.006a2 2 0 0 1 0 4z"
  fill="#2e2c2d"></path>
  <path data-name="layer1" d="M35.424 32.575L16.837 13.988H28.01a2 2 0 0 0 0-4h-18v18a2 2 0 0 0 4 0v-11.17l18.586 18.585a2 2 0 0 0 2.828-2.828z"
  fill="#2e2c2d"></path>
</svg>