<svg xmlns="http://www.w3.org/2000/svg" viewBox="0 0 64 64" aria-labelledby="title"
aria-describedby="desc" role="img" xmlns:xlink="http://www.w3.org/1999/xlink"
width="64" height="64">
  <title>Move Horizontal</title>
  <desc>A solid styled icon from Orion Icon Library.</desc>
  <path data-name="layer2"
  d="M49.477 21.758a3 3 0 0 0-3.986 4.485L48.595 29H35V6a2.999 2.999 0 1 0-5.997 0v52A2.999 2.999 0 1 0 35 58V35h13.594l-3.103 2.758a3 3 0 0 0 3.986 4.485L61 32z"
  fill="#2e2c2d"></path>
  <path data-name="layer1" d="M18.51 26.24a3 3 0 1 0-3.989-4.481L3 32.009l11.523 10.234a3 3 0 0 0 3.985-4.486L15.404 35H29v-6l-13.598.003z"
  fill="#2e2c2d"></path>
</svg>