<svg xmlns="http://www.w3.org/2000/svg" viewBox="0 0 64 64" aria-labelledby="title"
aria-describedby="desc" role="img" xmlns:xlink="http://www.w3.org/1999/xlink"
width="64" height="64">
  <title>Sorting</title>
  <desc>A solid styled icon from Orion Icon Library.</desc>
  <path data-name="layer1"
  d="M10 49.295V6a2 2 0 0 0-4 0v43.295a7 7 0 1 0 4 0zM63 8a7 7 0 1 0-9 6.705V58a2 2 0 0 0 4 0V14.705A7.01 7.01 0 0 0 63 8zM34 25.295V6a2 2 0 0 0-4 0v19.295a6.996 6.996 0 0 0 0 13.41V58a2 2 0 0 0 4 0V38.705a6.996 6.996 0 0 0 0-13.41z"
  fill="#2e2c2d"></path>
</svg>