<svg viewBox="0 0 64 64" xmlns="http://www.w3.org/2000/svg" aria-labelledby="title"
aria-describedby="desc" role="img" xmlns:xlink="http://www.w3.org/1999/xlink"
width="64" height="64">
  <title>Update</title>
  <desc>A solid styled icon from Orion Icon Library.</desc>
  <path fill="#2e2c2d"
  d="M31.933 49.458l17.256-18.406a3 3 0 1 0-4.377-4.1L35 37.414V5a3 3 0 0 0-6 0v32.066l-9.75-11.05a3 3 0 1 0-4.5 3.969z"
  data-name="layer2"></path>
  <path fill="#2e2c2d" d="M55 42a3 3 0 0 0-3 3v11H12V45a3 3 0 0 0-6 0v14a3 3 0 0 0 3 3h46a3 3 0 0 0 3-3V45a3 3 0 0 0-3-3z"
  data-name="layer1"></path>
</svg>