<svg viewBox="0 0 64 64" xmlns="http://www.w3.org/2000/svg"><g fill="#2e2c2d"><path d="m62.278 14.957h-3.03a13.673 13.673 0 0 0 -1.769-4.193l2.114-2.114a1.588 1.588 0 0 0 0-2.246l-2-2a1.588 1.588 0 0 0 -2.246 0l-2.111 2.117a13.669 13.669 0 0 0 -4.193-1.769v-3.03a1.588 1.588 0 0 0 -1.588-1.589h-3.177a1.588 1.588 0 0 0 -1.588 1.589v3.03a13.668 13.668 0 0 0 -4.19 1.769l-2.117-2.114a1.588 1.588 0 0 0 -2.246 0l-2 2a1.588 1.588 0 0 0 0 2.246l2.114 2.114a13.673 13.673 0 0 0 -1.77 4.193h-3.03a1.588 1.588 0 0 0 -1.588 1.588v3.176a1.588 1.588 0 0 0 1.588 1.588h3.03a13.671 13.671 0 0 0 1.77 4.193l-2.114 2.114a1.588 1.588 0 0 0 0 2.246l2 2a1.588 1.588 0 0 0 2.246 0l2.117-2.119a13.671 13.671 0 0 0 4.193 1.77v3.03a1.588 1.588 0 0 0 1.588 1.588h3.177a1.588 1.588 0 0 0 1.588-1.588v-3.03a13.671 13.671 0 0 0 4.193-1.77l2.111 2.114a1.588 1.588 0 0 0 2.246 0l2-2a1.588 1.588 0 0 0 0-2.246l-2.117-2.114a13.671 13.671 0 0 0 1.769-4.193h3.03a1.588 1.588 0 0 0 1.588-1.588v-3.174a1.588 1.588 0 0 0 -1.588-1.588zm-16.278 9.043a6 6 0 1 1 6-6 6 6 0 0 1 -6 6z"/><path d="m47.455 38.133h-3.177a3.592 3.592 0 0 1 -3.588-3.588v-1.532a15.628 15.628 0 0 1 -1.852-.78l-1.038 1.041a3.594 3.594 0 0 1 -3.9.782 9.505 9.505 0 1 1 -3.945-3.948 3.592 3.592 0 0 1 .778-3.906l1.041-1.041a15.628 15.628 0 0 1 -.78-1.852h-1.539a3.592 3.592 0 0 1 -3.588-3.588v-3.176a3.586 3.586 0 0 1 2.715-3.468 2.419 2.419 0 0 0 -.582-.077h-5a2.106 2.106 0 0 0 -2 1.4v4.192a21.673 21.673 0 0 0 -6.383 2.791l-2.971-2.97a1.6 1.6 0 0 0 -2.263 0l-3.771 3.771a1.6 1.6 0 0 0 0 2.263l2.971 2.97a19.077 19.077 0 0 0 -2.583 6.583h-4a2.106 2.106 0 0 0 -2 1.733v5.333a2.3 2.3 0 0 0 2 1.934h4a18.078 18.078 0 0 0 2.583 6.383l-2.971 2.971a1.6 1.6 0 0 0 0 2.263l3.771 3.771a1.6 1.6 0 0 0 2.263 0l2.97-2.971a18.078 18.078 0 0 0 6.384 2.583v4a2.3 2.3 0 0 0 1.933 2h5.333a2.106 2.106 0 0 0 1.734-2v-4a19.077 19.077 0 0 0 6.583-2.583l2.971 2.971a1.6 1.6 0 0 0 2.263 0l3.771-3.771a1.6 1.6 0 0 0 0-2.263l-2.971-2.971a20.133 20.133 0 0 0 2.791-6.716h4.192a1.5 1.5 0 0 0 1.4-1.667v-5a2.419 2.419 0 0 0 -.077-.582 3.586 3.586 0 0 1 -3.468 2.715z"/></g></svg>