<svg viewBox="0 0 64 64" xmlns="http://www.w3.org/2000/svg"><path d="m17.596 32.602a3 3 0 0 1 -.534-5.952l3.4-.619a6.962 6.962 0 0 0 -2.748-.645c-.039.002-.075.012-.114.012a9.61 9.61 0 0 0 -9.6 9.6c0 5.294 4.707 9.002 10 9.002 5.09 0 7.453-3.59 11.397-10.49 3.78-6.616 8.066-14.112 17.004-14.112a15.617 15.617 0 0 1 15.599 15.6c0 8.604-7.399 15.002-16 15.002-.168 0 .16.026 0 0a14.667 14.667 0 0 1 -11.742-5.932 3 3 0 1 1 4.697-3.733 9.46 9.46 0 0 0 8.045 3.665c.047 0-.047-.002 0 0a8.724 8.724 0 0 0 9-9.002 9.61 9.61 0 0 0 -9.599-9.6c-5.09 0-7.851 4.189-11.795 11.089-3.78 6.615-7.666 13.513-16.606 13.513-8.602 0-16-6.398-16-15.002a15.609 15.609 0 0 1 15.172-15.58 3.01 3.01 0 0 1 .428-.042 12.753 12.753 0 0 1 4.945.995l-.662-2.641a3 3 0 1 1 5.82-1.46l2.297 13.73z" fill="#2e2c2d"/></svg>