<svg viewBox="0 0 64 64" xmlns="http://www.w3.org/2000/svg"><g fill="#2e2c2d"><path d="m20.04 23.995h24v16h-24z"/><path d="m15.997 6.005a2 2 0 0 0 -2 2v7.168l-10.588-10.588a2 2 0 0 0 -2.828 2.828l10.588 10.588h-7.172a2 2 0 0 0 0 4h14v-13.996a2 2 0 0 0 -2-2zm44.006 15.996a2 2 0 0 0 0-4h-7.173l10.589-10.588a2 2 0 0 0 -2.828-2.828l-10.588 10.588v-7.168a2 2 0 1 0 -4 0v13.995zm-56.006 19.998a2 2 0 0 0 0 4h7.172l-10.589 10.588a2 2 0 1 0 2.828 2.828l10.588-10.588v7.168a2 2 0 1 0 4 0v-13.995zm48.834 4h7.172a2 2 0 0 0 0-4h-14v13.996a2 2 0 1 0 4 0v-7.168l10.587 10.588a2 2 0 1 0 2.828-2.828z"/></g></svg>