<svg viewBox="0 0 64 64" xmlns="http://www.w3.org/2000/svg"><path d="m32.635 16.084a15.144 15.144 0 0 1 11.365-5.084h5.758l-2.88-2.879 4.122-4.121 10 10-9.879 10.121-4.242-4.242 2.88-2.879h-6.33a7.93 7.93 0 0 0 -6.135 2.817l-6.726 9.183h-.003a17.166 17.166 0 0 1 -2.838 3 17.166 17.166 0 0 1 2.838 3h.003l6.726 9.183a7.93 7.93 0 0 0 6.136 2.817h6.327l-2.879-2.879 4.244-4.242 9.878 10.121-10 10-4.121-4.122 2.879-2.878h-6.328a13.964 13.964 0 0 1 -10.795-5.085l-6.943-9.525a8.276 8.276 0 0 0 -6.692-3.39h-17v-6h17v-.001a8.275 8.275 0 0 0 6.692-3.389z" fill="#2e2c2d"/></svg>