<svg viewBox="0 0 64 64" xmlns="http://www.w3.org/2000/svg"><g fill="#2e2c2d"><path d="m18.04 21.995h28v20h-28z"/><path d="m6.823 7.999h7.172a2 2 0 1 0 0-4h-14v13.996a2 2 0 0 0 4 0v-7.168l8.588 8.588a2 2 0 0 0 2.828-2.828zm43.182-4a2 2 0 0 0 0 4h7.172l-8.588 8.588a2 2 0 1 0 2.828 2.828l8.588-8.588v7.168a2 2 0 1 0 4 0v-13.995zm-34.594 40.586a2 2 0 0 0 -2.828 0l-8.588 8.588v-7.168a2 2 0 0 0 -4 0v13.995h14a2 2 0 1 0 0-4h-7.172l8.588-8.588a2 2 0 0 0 0-2.828zm46.594-.58a2 2 0 0 0 -2 2v7.168l-8.588-8.588a2 2 0 1 0 -2.828 2.828l8.588 8.588h-7.172a2 2 0 0 0 0 4h14v-13.996a2 2 0 0 0 -2-2z"/></g></svg>