<svg viewBox="0 0 64 64" xmlns="http://www.w3.org/2000/svg"><path d="m46.4 16.798c-8.937 0-13.222 7.496-17.003 14.111-3.944 6.901-6.707 11.091-11.798 11.091-5.293 0-9.599-4.706-9.599-10s4-9.202 10-9.202a6.087 6.087 0 0 1 2.661.634l-3.499.619 1.025 5.903 11.813-2.954-3-13-5.11 1.13.858 2.641a15.437 15.437 0 0 0 -4.748-.972c-9 0-16 6.6-16 15.202s7.098 16 15.7 16c8.94 0 13.175-7.498 16.956-14.113 3.944-6.9 6.68-11.09 11.77-11.09a9.257 9.257 0 0 1 9.574 9.202 9.841 9.841 0 0 1 -10 10v-.021c-2 0-4.882-1.269-7.245-4.244l-4.799 3.733c3.482 4.382 8.044 6.51 12.044 6.51v.022a16.045 16.045 0 0 0 16-16 15.282 15.282 0 0 0 -15.6-15.202z" fill="#2e2c2d"/></svg>