<svg viewBox="0 0 64 64" xmlns="http://www.w3.org/2000/svg"><g fill="#2e2c2d"><path d="m12 43.748v-23.256a5.269 5.269 0 0 1 5.004-5.496l13.38.002-3.378 3.002 3.986 4.484 11.523-10.241-11.515-10.243-3.993 4.484 2.83 2.516h-12.837a11.263 11.263 0 0 0 -11 11.492v23.256a11.195 11.195 0 0 0 10.908 11.245l.18-5.997a5.223 5.223 0 0 1 -5.088-5.248z"/><path d="m49.089 9.248-.178 5.997a5.222 5.222 0 0 1 5.089 5.247v23.256c0 2.895-1.105 5.252-4 5.252h-14.112l3.105-2.76-3.986-4.485-11.523 10.243 11.516 10.002 3.993-4.243-3.102-2.757h12.859a11.265 11.265 0 0 0 11.25-11.252v-23.256a11.194 11.194 0 0 0 -10.911-11.244z"/></g></svg>