<svg viewBox="0 0 64 64" xmlns="http://www.w3.org/2000/svg"><g fill="#2e2c2d"><path d="m63.128 26-8.128-6.5v-14.5a1 1 0 0 0 -1-1h-7a1 1 0 0 0 -1 1v7.3l-13.375-10.7a1 1 0 0 0 -1.249 0l-30.504 24.4a1 1 0 0 0 -.082 1.49l2.841 2.841a1 1 0 0 0 1.335.071l26.406-21.328a1 1 0 0 1 1.257 0l26.405 21.326a1 1 0 0 0 1.335-.071l2.841-2.839a1 1 0 0 0 -.082-1.49z"/><path d="m32 12-23 19v30a1 1 0 0 0 1 1h12v-21a1 1 0 0 1 1-1h18a1 1 0 0 1 1 1v21h12a1 1 0 0 0 1-1v-30zm0 21a5 5 0 1 1 5-5 5 5 0 0 1 -5 5z"/><path d="m25 42h14a1 1 0 0 1 1 1v19h-16v-19a1 1 0 0 1 1-1z"/></g></svg>