<svg viewBox="0 0 64 64" xmlns="http://www.w3.org/2000/svg"><path d="m61 50.002-9.879 10.12a3 3 0 0 1 -4.242-4.244l2.879-2.878h-6.328a13.964 13.964 0 0 1 -10.795-5.085c-.022-.027-.035-.059-.057-.086-.018-.021-.04-.037-.056-.06l-6.805-9.344-.012-.022-.013-.013a8.276 8.276 0 0 0 -6.692-3.39h-14a3 3 0 0 1 0-6h14a8.276 8.276 0 0 0 6.692-3.39l.014-.015.011-.02 6.805-9.345c.019-.026.043-.044.063-.07.018-.024.03-.051.05-.075a13.962 13.962 0 0 1 10.795-5.085h6.327l-2.878-2.878a3 3 0 0 1 4.242-4.243l9.879 10.121-9.879 10.121a3 3 0 1 1 -4.242-4.242l2.88-2.879h-6.33a7.98 7.98 0 0 0 -6.135 2.87l-6.726 9.237c-.008.01-.018.017-.025.027a13.61 13.61 0 0 1 -2.816 2.866 13.606 13.606 0 0 1 2.807 2.854c.01.014.024.024.034.04l6.726 9.235a7.98 7.98 0 0 0 6.136 2.871h6.327l-2.879-2.879a3 3 0 1 1 4.244-4.242z" fill="#2e2c2d"/></svg>