<svg viewBox="0 0 64 64" xmlns="http://www.w3.org/2000/svg"><path d="m51.001 16.015-38.001-.015a11.061 11.061 0 0 0 -11 11.26v9.5a11.09 11.09 0 0 0 10.998 11.24h1.002a2.998 2.998 0 1 0 0-5.995l-.912.002a5.222 5.222 0 0 1 -5.088-5.247v-9.5a5.057 5.057 0 0 1 5-5.26h38a5.16 5.16 0 0 1 5 5.26v9.5a5.256 5.256 0 0 1 -5.25 5.25l-14.505-.007 4.878-4.883a3 3 0 0 0 -4.246-4.24l-12.12 12.133 12.123 12.11a3 3 0 1 0 4.24-4.245l-4.883-4.878h14.763a11.042 11.042 0 0 0 11-11.24v-9.5a11.213 11.213 0 0 0 -10.999-11.245z" fill="#2e2c2d"/></svg>