<svg viewBox="0 0 64 64" xmlns="http://www.w3.org/2000/svg"><path d="m63 27-7.055-.333a24.381 24.381 0 0 0 -3.245-7.826l4.944-4.941a1.07 1.07 0 0 0 0-1.508l-6.034-6.036a1.07 1.07 0 0 0 -1.508 0l-4.943 4.944a24.378 24.378 0 0 0 -7.825-3.244l-.334-7.056a.959.959 0 0 0 -1-1h-8a.959.959 0 0 0 -1 1l-.333 7.055a24.378 24.378 0 0 0 -7.826 3.245l-4.941-4.944a1.07 1.07 0 0 0 -1.508 0l-6.036 6.034a1.07 1.07 0 0 0 0 1.508l4.944 4.943a24.381 24.381 0 0 0 -3.244 7.825l-7.056.334a.959.959 0 0 0 -1 1v8a.959.959 0 0 0 1 1l7.055.333a24.38 24.38 0 0 0 3.245 7.826l-4.944 4.941a1.07 1.07 0 0 0 0 1.508l6.034 6.034a1.07 1.07 0 0 0 1.508 0l4.943-4.942a24.385 24.385 0 0 0 7.825 3.244l.334 7.056a.959.959 0 0 0 1 1h8a.959.959 0 0 0 1-1l.333-7.055a24.385 24.385 0 0 0 7.826-3.245l4.941 4.944a1.07 1.07 0 0 0 1.508 0l6.034-6.034a1.07 1.07 0 0 0 0-1.508l-4.942-4.943a24.38 24.38 0 0 0 3.244-7.825l7.056-.334a.959.959 0 0 0 1-1v-8a.959.959 0 0 0 -1-1zm-31 17a12 12 0 1 1 12-12 12 12 0 0 1 -12 12z" fill="#2e2c2d"/></svg>