<svg viewBox="0 0 64 64" xmlns="http://www.w3.org/2000/svg"><g fill="#2e2c2d"><path d="m51 7-4.363 4.182 2.878 2.818h-5.515c-3.394 0-8.27.61-11.46 5.343l-15.94 21.947c-2.1 2.8-2.786 2.71-6.6 2.71h-8v6h8.003c4.189 0 7.498.12 11.423-5.114l16-22 .07-.1c.922-1.385 2.349-2.786 6.504-2.786h5.636l-3 3 4.243 4.243 10.121-10.123z"/><path d="m26.627 37.734 5.973 7.193c3.19 4.651 8.268 5.073 11.642 5.073h5.394l-3 3 4.364 4 10-9.879-10.121-10.121-4.242 4.243 2.757 2.757h-5.394c-4.155 0-5.582-1.16-6.504-2.543l-7.233-8.722m-3.257-5.723-5.606-7.69c-3.9-5.201-7.208-5.322-11.4-5.322h-8v6h8c3.81 0 4.5.122 6.574 2.886l6.717 9.235"/></g></svg>