<svg viewBox="0 0 64 64" xmlns="http://www.w3.org/2000/svg"><g fill="#2e2c2d"><path d="m27.198 38.204 6.355 6.534c3.927 3.845 8.057 5.262 11.447 5.262h6.758l-2.88 2.879a3 3 0 1 0 4.243 4.242l8-8a2.999 2.999 0 0 0 0-4.242l-8-8a3 3 0 0 0 -4.242 4.242l2.879 2.879h-6.758c-4.155 0-5.463-1.466-6.504-2.664-.036-.042-7.09-8.827-7.124-8.872m-3.372-5.464-5.6-7.8c-3.9-5.2-7.208-5.2-11.4-5.2h-6a3 3 0 1 0 0 6h7c3.81 0 3.501.001 5.657 2.874l6.343 9.126"/><path d="m38.496 22.664c.922-1.384 2.349-2.664 6.504-2.664h6.758l-2.88 2.879a3 3 0 1 0 4.243 4.242l8-8a2.999 2.999 0 0 0 0-4.242l-8-8a3 3 0 1 0 -4.242 4.242l2.879 2.879h-6.758c-3.395 0-8.27.549-11.46 5.282l-15.94 21.918c-2.099 2.8-1.786 2.8-5.6 2.8h-7a3 3 0 0 0 0 6h6.003c4.189 0 7.498 0 11.423-5.234l16-22c.024-.035.048-.067.07-.102z"/></g></svg>