<svg viewBox="0 0 64 64" xmlns="http://www.w3.org/2000/svg"><path d="m53.121 36.879a3 3 0 0 0 -4.242 4.242l2.879 2.879h-10.316l-9.264-12.42 9.264-11.58h10.316l-2.88 2.879a3 3 0 1 0 4.243 4.242l8-8a2.999 2.999 0 0 0 0-4.242l-8-8a3 3 0 1 0 -4.242 4.242l2.879 2.879h-11.758a3 3 0 0 0 -2.343 1.126l-9.492 11.865-9.822-11.865a3 3 0 0 0 -2.343-1.126h-11a3 3 0 0 0 0 6h9.558l9.62 11.976-9.621 12.024h-9.557a3 3 0 0 0 0 6h11a3 3 0 0 0 2.343-1.126l9.853-12.317 9.461 12.317a3 3 0 0 0 2.343 1.126h11.758l-2.88 2.879a3 3 0 1 0 4.243 4.242l8-8a2.999 2.999 0 0 0 0-4.242z" fill="#2e2c2d"/></svg>