<svg viewBox="0 0 64 64" xmlns="http://www.w3.org/2000/svg"><g fill="#2e2c2d"><path d="m13 35a3 3 0 0 0 0 6h4.995l-15.115 15.873a3.002 3.002 0 0 0 4.243 4.248l14.876-15.617.002 5.498a3 3 0 0 0 2.999 2.998h.001a3.003 3.003 0 0 0 2.999-3.006l-.007-15.994zm41-11a3 3 0 0 0 -3-3h-5.28l15.4-13.879a2.999 2.999 0 0 0 -4.24-4.242l-14.88 13.413v-4.292a3 3 0 1 0 -6 0v15h15a3 3 0 0 0 3-3z"/><path d="m25 8a3 3 0 0 0 -3 3v6.006l-14.879-14.128a3.002 3.002 0 0 0 -4.241 4.248l14.605 13.874h-4.485a3 3 0 0 0 0 6h15v-16a3 3 0 0 0 -3-3zm21 33h5a3 3 0 0 0 0-6h-15v16a3 3 0 0 0 6 0v-5.498l14.878 15.62a3 3 0 0 0 4.243-4.245z"/></g></svg>