<svg viewBox="0 0 64 64" xmlns="http://www.w3.org/2000/svg"><g fill="#2e2c2d"><path d="m32.6 41.1h-5.9v6.8h5.9a3.4 3.4 0 0 0 0-6.8zm1.7-6.5a2.6 2.6 0 0 0 -2.6-2.6h-5v5.1h5.1a2.6 2.6 0 0 0 2.5-2.5zm10.4-28.5c-5.9 0-6.3-4.1-10-4.1s-4.3 4-10 4c-4 0-12-5.6-12-2s6.3 8.8 9.8 12h16.1c4.9-5.2 8.1-9.9 6.1-9.9z"/><path d="m52.2 12.7a2 2 0 0 0 -2.8-.3 17.4 17.4 0 0 1 -10.8 3.6 3.8 3.8 0 0 0 .4 4 21.2 21.2 0 0 0 12.9-4.5 2 2 0 0 0 .3-2.8zm4.8 11.7a10 10 0 0 0 -8.3-4.4 2 2 0 0 0 0 4 6 6 0 0 1 5 2.6 2 2 0 0 0 3.3-2.2z"/><path d="m39 20.1h-16.6c-4.8 4.5-15.7 16.3-15.7 31.9a10 10 0 0 0 10 10h28a10 10 0 0 0 10-10c0-15.5-10.8-27.4-15.7-31.9zm-6.3 31.8v2.1a2 2 0 1 1 -4 0v-2.1h-6v-23.9h6v-2a2 2 0 1 1 4 0v2.1a6.6 6.6 0 0 1 4.3 10.5 7.4 7.4 0 0 1 -4.3 13.3z"/></g></svg>