<svg viewBox="0 0 64 64" xmlns="http://www.w3.org/2000/svg"><g fill="#2e2c2d"><path d="m47.6 29h-43.2a2.4 2.4 0 0 0 -2.4 2.4v25.2a2.4 2.4 0 0 0 2.4 2.4h43.2a2.4 2.4 0 0 0 2.4-2.4v-25.2a2.4 2.4 0 0 0 -2.4-2.4zm-35.6 24h-2a2 2 0 0 1 0-4h2a2 2 0 0 1 0 4zm10 0h-2a2 2 0 0 1 0-4h2a2 2 0 0 1 0 4zm2-8h-14a2 2 0 0 1 0-4h14a2 2 0 0 1 0 4zm8 8h-2a2 2 0 0 1 0-4h2a2 2 0 0 1 0 4zm10 0h-2a2 2 0 0 1 0-4h2a2 2 0 0 1 0 4zm0-14h-6a2 2 0 0 1 0-4h6a2 2 0 0 1 0 4z"/><path d="m61.9 30.6-8.7-24a2.4 2.4 0 0 0 -3.1-1.4l-40.5 14.7a2.4 2.4 0 0 0 -1.4 3.1l.7 2h4.1l41.4-15.1 1.4 3.8-31.1 11.3h22.9a6.4 6.4 0 0 1 6.4 6.4v4.6l6.4-2.3a2.4 2.4 0 0 0 1.5-3.1zm-10-8.7-4.5 1.6h-.7a2 2 0 0 1 -.7-3.9l4.5-1.6a2 2 0 1 1 1.4 3.8z"/></g></svg>