<svg viewBox="0 0 64 64" xmlns="http://www.w3.org/2000/svg"><g fill="#2e2c2d"><path d="m26.1 19.8a2 2 0 0 0 1.4-.6l9.7-9.7a1.7 1.7 0 0 1 1.2-.5 1.7 1.7 0 0 1 1.2.5l1.3 1.2-6 6 5.3 5.3 8.7-8.7a3.8 3.8 0 0 0 -5.2-5.3l-1.3-1.3a5.6 5.6 0 0 0 -4-1.7 5.7 5.7 0 0 0 -4 1.7l-9.7 9.7a2 2 0 0 0 1.4 3.4z"/><path d="m13.2 38.4-3.2 8.6 8.6-3.3 18.8-18.8-5.4-5.3z"/><path d="m42.9 25a4 4 0 0 1 -1.7 1 4 4 0 0 1 -1 1.8l-18.8 18.7a4 4 0 0 1 -1.4.9l-8.6 3.3-1.4.3a4 4 0 0 1 -3.7-5.4l3.2-8.6a4 4 0 0 1 .9-1.4l10.6-10.6h-19v34h60v-34zm11.1 26h-25.9a2 2 0 0 1 0-4h25.9a2 2 0 0 1 0 4zm0-8h-15.9a2 2 0 0 1 0-4h15.9a2 2 0 0 1 0 4z"/></g></svg>