<svg viewBox="0 0 64 64" xmlns="http://www.w3.org/2000/svg"><g fill="#2e2c2d"><path d="m50.3 42.8.3.4c6.3-3.3 10.5-8.2 11.4-13.7h-25z"/><path d="m32.1 47.5a42 42 0 0 0 14.6-2.5l-16-16-.2-.3v-.7a2 2 0 0 1 0-.4v-20.1c-15.6.7-28 9.4-28 20s13 20 29.6 20z"/><path d="m34.1 7.5v18h27.8c-1.4-9.7-13.2-17.3-27.8-18zm-25.5 37.5a27.1 27.1 0 0 1 -6.3-5.7c2 9.7 14.6 17.2 29.7 17.2a42 42 0 0 0 14.6-2.5v-4.8a46.5 46.5 0 0 1 -14.6 2.3c-8.7 0-17-2.3-23.4-6.5z"/><path d="m55.5 45a34.8 34.8 0 0 1 -4.8 2.7v4.6c5.9-3.1 10-7.7 11.1-12.9a27.2 27.2 0 0 1 -6.3 5.6z"/></g></svg>