<svg viewBox="0 0 64 64" xmlns="http://www.w3.org/2000/svg"><g fill="#2e2c2d"><path d="m60 20.5h-5.1l-16.4-18.3a2 2 0 1 0 -3 2.7l14 15.7h-35l14-15.7a2 2 0 1 0 -3-2.7l-16.3 18.3h-5.2a2 2 0 0 0 0 4h56a2 2 0 0 0 0-4z"/><path d="m34.7 35.2a16 16 0 1 0 22.6 0 16 16 0 0 0 -22.6 0zm18.4 7.1-4.2 4.2 4.2 4.2a2 2 0 0 1 -2.8 2.8l-4.3-4.2-4.2 4.2a2 2 0 1 1 -2.8-2.8l4.2-4.2-4.2-4.2a2 2 0 1 1 2.8-2.8l4.2 4.2 4.2-4.2a2 2 0 1 1 2.8 2.8z"/><path d="m56.6 29.6.2-1.1h-2.1zm-30.6 16.9a20 20 0 0 1 11.3-18h-30l4.8 24h14.8a20 20 0 0 1 -.9-6z"/></g></svg>