<svg viewBox="0 0 64 64" xmlns="http://www.w3.org/2000/svg"><g fill="#2e2c2d"><path d="m27 18.1a12 12 0 1 0 -12 12 12 12 0 0 0 12-12zm-6 4h-8v-10a2 2 0 1 1 4 0v6h4a2 2 0 0 1 0 4z"/><circle cx="25" cy="53.9" r="4"/><circle cx="55" cy="53.9" r="4"/><path d="m9 35.9h-6a2 2 0 0 0 0 4h6a2 2 0 0 0 0-4zm0 8h-2a2 2 0 0 0 0 4h2a2 2 0 0 0 0-4zm54-2.9-3.1-3.1-4.6-4h-6.3v12h14zm-30 12.9h14a8 8 0 0 1 2.7-6h-19.4a8 8 0 0 1 2.7 6zm-16-4.6v4.6a8 8 0 0 1 2.7-6h-2.7zm46 4.5v-6h-2.7a8 8 0 0 1 2.7 6zm-46-19.8v11.9h28v-22h-15.1a16 16 0 0 1 -12.9 10.1z"/></g></svg>