<svg viewBox="0 0 64 64" xmlns="http://www.w3.org/2000/svg"><g fill="#2e2c2d"><path d="m60 20.5h-5.1l-16.4-18.3a2 2 0 0 0 -3 2.7l14 15.7h-35l14-15.7a2 2 0 1 0 -3-2.7l-16.3 18.3h-5.2a2 2 0 0 0 0 4h56a2 2 0 0 0 0-4z"/><path d="m50 28.5a12 12 0 0 0 -12 12 12.2 12.2 0 0 0 .1 1.5c1.1 9.9 11.9 20.5 11.9 20.5s10.8-10.6 11.9-20.5a12.2 12.2 0 0 0 .1-1.5 12 12 0 0 0 -12-12zm0 15a3 3 0 1 1 3-3 3 3 0 0 1 -3 3z"/><path d="m34.1 42.5a15.8 15.8 0 0 1 5.3-14h-32.1l4.8 24h25.4a28.2 28.2 0 0 1 -3.4-10z"/></g></svg>