<svg viewBox="0 0 64 64" xmlns="http://www.w3.org/2000/svg"><g fill="#2e2c2d"><circle cx="9" cy="52" r="5"/><path d="m62 51h-12v-6h6.1a2 2 0 0 0 0-4h-6.1v-32a2 2 0 1 0 -4 0v46h16a2 2 0 0 0 0-4z"/><circle cx="30" cy="49" r="8"/><path d="m.1 53a8.9 8.9 0 0 1 -.1-1v1zm17.9-40h-14v20h-1a3 3 0 0 0 -3 3v16a9 9 0 1 1 18 0 9.3 9.3 0 0 1 -.1 1h.8a11.9 11.9 0 0 1 4.6-14l-5.3-6h-10v-16h10.1c.1 0 9.3-.5 15 5 3.2 3 4.8 7.4 4.8 13v2.5l-6.5-7.8a2 2 0 0 0 -3.1 2.6l4.2 5a12 12 0 0 1 7.9 17.7h1.6v-20c0-6.7-2.1-12.1-6.1-15.9-6.9-6.5-16.9-6.2-17.9-6.1z"/></g></svg>