<svg viewBox="0 0 64 64" xmlns="http://www.w3.org/2000/svg"><g fill="#2e2c2d"><path d="m50.6 18.5a10 10 0 0 0 -6.6-17.5 9.4 9.4 0 0 0 -7.8 3.7 27.1 27.1 0 0 0 -4.2 8.2 27.1 27.1 0 0 0 -4.2-8.2 9.3 9.3 0 0 0 -7.8-3.7 10 10 0 0 0 -6.6 17.5c2.7 2.4 8.3 4.1 12.6 5.2v11.3h12v-11.3c4.3-1.1 9.9-2.8 12.6-5.2zm-11.3-11.2h.1a5.4 5.4 0 0 1 4.6-2.3 6 6 0 0 1 4 10.5c-2.5 2.2-9.4 4.1-13.8 5 .7-5.2 3.3-11.2 5.1-13.2zm-25.3 3.7a6 6 0 0 1 6-6 5.3 5.3 0 0 1 4.6 2.2h.1c1.8 2 4.4 8 5.1 13.2-4.4-1-11.3-2.8-13.8-5a6 6 0 0 1 -2-4.4z"/><path d="m42 23h18v12h-18zm-38 0h18v12h-18zm4 16h14v24h-14zm34 0h14v24h-14z"/><path d="m26 39h12v24h-12z"/></g></svg>