<svg viewBox="0 0 64 64" xmlns="http://www.w3.org/2000/svg"><g fill="#2e2c2d"><path d="m60.2 3.8c-4.3-4.2-11.9-3.6-17 1.4a2 2 0 0 0 2.8 2.8c3.6-3.4 8.6-4 11.3-1.3a6.2 6.2 0 0 1 1.7 5.1 10.2 10.2 0 0 1 -3 6.1 10.2 10.2 0 0 1 -6.1 3 6.2 6.2 0 0 1 -5.1-1.6l-.3-.3a4.1 4.1 0 0 0 -5.3.3 4 4 0 1 0 5.5 5.7l.5-.7a10.6 10.6 0 0 0 3.8.7h1.2a14.2 14.2 0 0 0 8.5-4.2 14.2 14.2 0 0 0 4.2-8.5 10.1 10.1 0 0 0 -2.7-8.5zm-18.4 20.3v-2z"/><path d="m50.6 28.9h-1.6l-2.7-.2a8 8 0 1 1 -4.5-14.6 8.1 8.1 0 0 1 4.9 1.6l.8.7a2.1 2.1 0 0 0 1.5.6h.4a5.7 5.7 0 0 0 2.5-1l-.2-3.7-4.3-.3-8.2-.5-8.6-.6-29.6 29.6 22.5 22.5 29.6-29.6-.3-4.9z"/></g></svg>