<svg viewBox="0 0 64 64" xmlns="http://www.w3.org/2000/svg"><g fill="#2e2c2d"><path d="m2 40v9.5a40.1 40.1 0 0 1 10.1-2.9l-2.2.3a8 8 0 0 0 -7.9-6.9zm8-26a8.2 8.2 0 0 0 -.1-1.2c-5.8 1.2-7.9 3.4-7.9 3.4v5.8a8 8 0 0 0 8-8z"/><path d="m50.1 17.9 2-.3a48 48 0 0 1 -6.1.4c-12.8 0-16-6-28-6l-4.1.2a12.2 12.2 0 0 1 .1 1.8 12 12 0 0 1 -12 12v10a12 12 0 0 1 11.9 10.4 49.4 49.4 0 0 1 6.1-.4c10.8 0 18.4 6 28 6h2.2a12.1 12.1 0 0 1 -.2-2 12 12 0 0 1 12-12v-10a11.9 11.9 0 0 1 -11.9-10.1zm-16.3 23.7c-5.4 0-10.6-4.5-11.6-10s2.7-10 8.1-10 10.7 4.4 11.6 10-2.6 10-8.1 10z"/><path d="m54.1 17.3a8 8 0 0 0 7.9 6.7v-8.5a67.3 67.3 0 0 1 -7.9 1.8zm-.1 32.7a8.2 8.2 0 0 0 .1 1.5l-1.9.4c6.7-.6 9.8-2.3 9.8-2.3v-7.6a8 8 0 0 0 -8 8z"/></g></svg>