<svg viewBox="0 0 64 64" xmlns="http://www.w3.org/2000/svg"><g fill="#2e2c2d"><path d="m52.2 12.7a2 2 0 0 0 -2.8-.3 17.4 17.4 0 0 1 -10.8 3.6 3.8 3.8 0 0 0 .4 4 21.2 21.2 0 0 0 12.9-4.5 2 2 0 0 0 .3-2.8z"/><path d="m44.7 6.1c-5.9 0-6.3-4.1-10-4.1s-4.3 4-10 4c-4 0-12-5.6-12-2s6.3 8.8 9.8 12h16.1c4.9-5.2 8.1-9.9 6.1-9.9zm-5.7 14h-16.6c-4.8 4.5-15.7 16.3-15.7 31.9a10 10 0 0 0 10 10h28a10 10 0 0 0 10-10c0-15.5-10.8-27.4-15.7-31.9zm-6.3 15.9a2 2 0 0 1 0 4h-8.5a11 11 0 0 0 -.1 1.1v.9h8.5a2 2 0 0 1 0 4h-7.3a10.9 10.9 0 0 0 9.7 6h1.7a2 2 0 0 1 0 4h-1.7a14.9 14.9 0 0 1 -14-10h-2.3a2 2 0 0 1 0-4h1.5v-.9c0-.3 0-.8.1-1.1h-1.6a2 2 0 0 1 0-4h2.4a14.9 14.9 0 0 1 13.9-9.7h1.7a2 2 0 0 1 0 4h-1.7a10.9 10.9 0 0 0 -9.6 5.7z"/><path d="m57 24.4a10 10 0 0 0 -8.3-4.4 2 2 0 0 0 0 4 6 6 0 0 1 5 2.6 2 2 0 0 0 3.3-2.2z"/></g></svg>