<svg viewBox="0 0 64 64" xmlns="http://www.w3.org/2000/svg"><g fill="#2e2c2d"><path d="m59 21.5h-5.1l-16.4-18.3a2 2 0 1 0 -3 2.7l14 15.7h-35l14-15.7a2 2 0 1 0 -3-2.7l-16.3 18.3h-5.2a2 2 0 0 0 0 4h56a2 2 0 0 0 0-4z"/><path d="m61 51.5h-2v-4a2 2 0 0 0 -4 0v4h-5l4.8-11.2a2 2 0 1 0 -3.7-1.6l-7.1 16.8h11v4a2 2 0 0 0 4 0v-4h2a2 2 0 0 0 0-4z"/><path d="m43 57.5h-7.7l5.9-6.9a8 8 0 0 0 -11.5-11 2 2 0 1 0 2.7 3 4 4 0 0 1 6.7 3 3.9 3.9 0 0 1 -.9 2.5l-11.5 13.4h16.3a2 2 0 0 0 0-4z"/><path d="m35.2 45.5a6 6 0 0 1 -8-8.9 12 12 0 0 1 19 4.1l1.5-3.5a6 6 0 0 1 5.5-3.6l1.8.3.9-4.3h-49.7l4.8 24h17.4z"/></g></svg>