<svg viewBox="0 0 64 64" xmlns="http://www.w3.org/2000/svg"><path d="m62 3h-60a2 2 0 0 0 0 4h6v54l6-4 6.1 4 6-4 6 4 6-4 6 4 6-4 6 4v-54h6a2 2 0 0 0 0-4zm-32 40h-12a2 2 0 1 1 0-4h12a2 2 0 0 1 0 4zm4-8h-16a2 2 0 0 1 0-4h16a2 2 0 1 1 0 4zm-18-14a2 2 0 0 1 2-2h12a2 2 0 0 1 0 4h-12a2 2 0 0 1 -2-2zm18-6h-16a2 2 0 1 1 0-4h16a2 2 0 0 1 0 4zm12 28h-4a2 2 0 0 1 0-4h4a2 2 0 0 1 0 4zm0-8h-4a2 2 0 0 1 0-4h4a2 2 0 1 1 0 4zm0-12h-4a2 2 0 0 1 0-4h4a2 2 0 0 1 0 4zm0-8h-4a2 2 0 0 1 0-4h4a2 2 0 0 1 0 4z" fill="#2e2c2d"/></svg>