<svg viewBox="0 0 64 64" xmlns="http://www.w3.org/2000/svg"><g fill="#2e2c2d"><path d="m59 19.5h-5.1l-16.4-18.3a2 2 0 0 0 -3 2.7l14 15.7h-35l14-15.7a2 2 0 1 0 -3-2.7l-16.3 18.3h-5.2a2 2 0 0 0 0 4h56a2 2 0 0 0 0-4z"/><path d="m62.4 48.1a2 2 0 0 0 -2.8 0l-1.3 1.3a13.7 13.7 0 1 0 -13.6 14.1 2 2 0 0 0 0-4 10 10 0 1 1 9.7-10l-1.5-1.5a2 2 0 1 0 -2.9 2.9l6.2 6.3 6.2-6.3a2 2 0 0 0 0-2.8z"/><path d="m27 49.5a17.9 17.9 0 0 1 17.7-18 17.3 17.3 0 0 1 9.7 3l1.4-7h-49.5l4.8 24h16a18.3 18.3 0 0 1 -.1-2z"/></g></svg>