<svg viewBox="0 0 64 64" xmlns="http://www.w3.org/2000/svg"><g fill="#2e2c2d"><path d="m60 21.5h-5.1l-16.4-18.3a2 2 0 1 0 -3 2.7l14 15.7h-35l14-15.7a2 2 0 0 0 -3-2.7l-16.3 18.3h-5.2a2 2 0 0 0 0 4h56a2 2 0 0 0 0-4z"/><path d="m55.3 50.6a2.4 2.4 0 0 0 -3.3.6c-1.2 1.5-1.7 3.4-7.2-2.1s-4-6.5-2.6-7.7a2.4 2.4 0 0 0 .6-3.3l-3.3-5.1c-.4-.7-1.1-1.7-2.5-1.5a7.2 7.2 0 0 0 -5 6.8c0 4.5 3.5 10 8.4 14.8s10.3 8.4 14.8 8.4a7.2 7.2 0 0 0 6.8-5c.2-1.4-.9-2-1.5-2.5z"/><path d="m42.7 30.7h.1l2.6 3.9.9 1.3a6.4 6.4 0 0 1 -.7 7.9 26.2 26.2 0 0 0 2.2 2.4l1.8 1.7a6.4 6.4 0 0 1 3.9-1.8l3.4-16.8h-15zm-14.7 7.6a11 11 0 0 1 4.4-8.8h-25.1l4.8 24h23.2c-3.4-3.9-7.3-9.5-7.3-15.2z"/></g></svg>