<svg viewBox="0 0 64 64" xmlns="http://www.w3.org/2000/svg"><g fill="#2e2c2d"><path d="m58.5 27.8c0-4.8-3.9-6.7-8.1-8.1-5.9-1.9-6.2-2.4-6.2-3.9s2.5-3.1 4.9-3.1 4.5 1.3 5.3 4.1a2 2 0 0 0 3.8-1.1c-1.1-3.8-3.6-6.2-7.1-6.8v-1.9a2 2 0 1 0 -4 0v2c-3.6.6-6.9 3-6.9 6.9s3.8 6.1 8.9 7.7 5.4 2.9 5.4 4.3-2.8 3.3-5.4 3.3-5.4-2.8-5.6-4.4a2 2 0 0 0 -4 .5 9 9 0 0 0 7.6 7.7v2a2 2 0 1 0 4 0v-2c5.1-.6 7.4-3.9 7.4-7.2z"/><circle cx="25" cy="55" r="4"/><circle cx="51" cy="55" r="4"/><path d="m55 38.2a6 6 0 0 1 -11.8-.2 13 13 0 0 1 -7.6-10.2 6 6 0 0 1 1.2-4.4l.3-.3h-16.3l-3.8-16.6a2 2 0 0 0 -2-1.5h-8a2 2 0 0 0 0 4h6.4l9 38h33l3.6-11.2a12.2 12.2 0 0 1 -4 2.4z"/></g></svg>