<svg viewBox="0 0 64 64" xmlns="http://www.w3.org/2000/svg"><g fill="#2e2c2d"><path d="m63.4 17.6a2 2 0 0 0 -2.8 0l-1.5 1.5a14.1 14.1 0 0 0 -4-10 13.9 13.9 0 0 0 -16.5-2.4 2 2 0 1 0 1.9 3.5 9.9 9.9 0 0 1 11.7 1.7 10.1 10.1 0 0 1 2.9 6.9l-1.2-1.2a2 2 0 1 0 -2.9 2.8l6.2 6.3 6.2-6.3a2 2 0 0 0 0-2.8zm-33.6 2.8 1.5-1.5a14.1 14.1 0 0 0 4 10 13.9 13.9 0 0 0 9.9 4.1 13.7 13.7 0 0 0 6.6-1.7 2 2 0 0 0 -1.9-3.5 9.9 9.9 0 0 1 -11.7-1.7 10.1 10.1 0 0 1 -2.9-6.9l1.2 1.2a2 2 0 1 0 2.8-2.8l-6.2-6.3-6.1 6.3a2 2 0 0 0 2.8 2.8z"/><circle cx="20" cy="55" r="4"/><circle cx="46" cy="55" r="4"/><path d="m45.2 37a17.8 17.8 0 0 1 -16.8-12 6 6 0 0 1 -4.2-1.7l-.2-.3h-8.2l-3.9-16.5a2 2 0 0 0 -1.9-1.5h-8a2 2 0 0 0 0 4h6.4l9 38h33l4.2-12.8-.9.6a17.8 17.8 0 0 1 -8.5 2.2z"/></g></svg>