<svg viewBox="0 0 64 64" xmlns="http://www.w3.org/2000/svg"><path d="m45 41.903c0-3.68-1.704-10.234-13.104-12.818-.01-.002-.018-.007-.027-.009-8.469-1.935-8.469-5.728-8.469-6.975 0-4.74 4.043-6.9 7.8-6.9a7.77 7.77 0 0 1 7.692 6.496 3 3 0 0 0 5.917-.994 13.733 13.733 0 0 0 -10.609-11.163v-4.54a3 3 0 0 0 -6 0v4.488c-6.326 1.214-10.8 6.229-10.8 12.613 0 3.668 1.706 10.21 13.12 12.822l.02.007c5.615 1.265 8.46 3.61 8.46 6.973 0 4.74-4.043 6.899-7.8 6.899a7.809 7.809 0 0 1 -7.8-7.8 3 3 0 0 0 -6 0 13.817 13.817 0 0 0 10.8 13.461v4.537a3 3 0 0 0 6 0v-4.485c6.326-1.213 10.8-6.228 10.8-12.612z" fill="#2e2c2d"/></svg>