<svg viewBox="0 0 64 64" xmlns="http://www.w3.org/2000/svg"><g fill="#2e2c2d"><path d="m34 26a6 6 0 1 0 6 6 6 6 0 0 0 -6-6zm1.4 7.4a2 2 0 0 1 -1.4.6 2 2 0 0 1 -1.4-3.4 2.1 2.1 0 0 1 2.8 0 2 2 0 0 1 0 2.8z"/><path d="m12 12v2a2 2 0 0 1 2 2v8a2 2 0 0 1 -2 2v12a2 2 0 0 1 2 2v8a2 2 0 0 1 -2 2v2h40v-40zm34 22h-2.2a9.9 9.9 0 0 1 -1.5 3.5l1.6 1.6a2 2 0 1 1 -2.8 2.8l-1.6-1.6a9.9 9.9 0 0 1 -3.5 1.5v2.2a2 2 0 1 1 -4 0v-2.2a9.9 9.9 0 0 1 -3.5-1.5l-1.6 1.6a2 2 0 0 1 -2.8-2.8l1.6-1.6a9.9 9.9 0 0 1 -1.5-3.5h-2.2a2 2 0 0 1 0-4h2.2a9.9 9.9 0 0 1 1.5-3.5l-1.6-1.6a2 2 0 0 1 2.8-2.8l1.6 1.6a9.9 9.9 0 0 1 3.5-1.5v-2.2a2 2 0 1 1 4 0v2.2a9.9 9.9 0 0 1 3.5 1.5l1.6-1.6a2 2 0 0 1 2.8 2.8l-1.6 1.6a9.9 9.9 0 0 1 1.5 3.5h2.2a2 2 0 0 1 0 4z"/><path d="m59 2h-54a3 3 0 0 0 -3 3v54a3 3 0 0 0 3 3h54a3 3 0 0 0 3-3v-54a3 3 0 0 0 -3-3zm-3 54h-48v-6a2 2 0 0 1 -2-2v-8a2 2 0 0 1 2-2v-12a2 2 0 0 1 -2-2v-8a2 2 0 0 1 2-2v-6h48z"/></g></svg>