<svg width="0" height="0" class="hidden">
  <symbol xmlns="http://www.w3.org/2000/svg" viewBox="0 0 64 64" id="doctor-1">
    <title>Doctor</title>
    <desc>A solid styled icon from Orion Icon Library.</desc>
    <path data-name="layer1"
    d="M50 45c-8.4-1.6-8.4-3.4-8.4-4.6v-.8a20.4 20.4 0 0 0 4.7-7.9c3.1-1 4.2-5.1 4.2-7.1 0-3.9-1.5-5.5-2.9-6.2v-1.3a1.9 1.9 0 0 0 0-.2v-.4c0-11.3-8-16.4-16-16.4s-16 5.1-16 16.4v2c-1.4.7-2.9 2.3-2.9 6.3 0 2 1.1 6 4.2 7a20.1 20.1 0 0 0 4.7 7.8v.9c0 .2.1 2.9-8.4 4.5C2.8 47 0 54.4 0 58v6h30V44.3L26.5 42a2 2 0 0 0 .8-.7 2 2 0 0 0-.7-2.7 15.3 15.3 0 0 1-6.3-9.1L20 28h-1.6c-1.2 0-1.8-2.6-1.8-3.3 0-2.6.7-2.6.9-2.6h2v-2.2c6-.5 9-2.9 11.5-5s3.7-2.9 6.6-2.9a5.6 5.6 0 0 1 6 5v5h2c.3 0 .9 0 .9 2.6 0 .6-.6 3.3-1.8 3.3h-1.5l-.4 1.5a15.3 15.3 0 0 1-6.3 9.1 2 2 0 0 0-.7 2.8 2 2 0 0 0 1 .8l-3 2.1V64H64v-6c0-3.6-2.9-10.9-14-13zm-26 5.5V52h1.5a2 2 0 0 1 0 4H24v1.5a2 2 0 0 1-4 0V56h-1.5a2 2 0 0 1 0-4H20v-1.5a2 2 0 0 1 4 0zM40.1 54H40a2 2 0 0 1 0-4 2 2 0 0 1 2 2 2 2 0 0 1-1.9 2z"
    fill="#2e2c2d"></path>
  </symbol>
  <symbol xmlns="http://www.w3.org/2000/svg" viewBox="0 0 64 64" id="surgeon-1">
    <title>Surgeon</title>
    <desc>A solid styled icon from Orion Icon Library.</desc>
    <path data-name="layer1"
    d="M16.9 33.8a20.6 20.6 0 0 0 3.6 6.6A15.6 15.6 0 0 0 32 45.6a13 13 0 0 0 9.7-4.1 20.1 20.1 0 0 0 4.6-7.7c3.1-1 4.2-5.1 4.2-7.1 0-3.9-1.5-5.5-2.9-6.2V12c0-6.3-4.7-9.7-9.6-10a9.9 9.9 0 0 0-12 0 10.4 10.4 0 0 0-10.4 10v8.4c-1.4.7-2.9 2.3-2.9 6.3 0 2 1.1 6 4.2 7.1zM41.7 7.4a5.6 5.6 0 0 1 1.9 4.6v2.7l-2.3-1.2a9.8 9.8 0 0 0 .3-6.1zM32 8a2 2 0 0 1 2 2 2 2 0 0 1-2 2 2 2 0 0 1 0-4zm-12.4 4a6.4 6.4 0 0 1 2.8-4.9 9.9 9.9 0 0 0 .3 6.6l-3.1 1.7zm-2.9 14.6c0-2.6.7-2.6.9-2.6h2v-4.1l5.3-2.9a10 10 0 0 0 14.3 0l4.4 2.3V24h2c.3 0 .9 0 .9 2.6 0 .6-.4 2.5-1.3 3.1A23.8 23.8 0 0 0 32 26a27.5 27.5 0 0 0-14 3.9c-.9-.5-1.3-2.6-1.3-3.2z"
    fill="#2e2c2d"></path>
    <path data-name="layer1" d="M49.9 45a31.7 31.7 0 0 1-5.2-1.4s-4.1 5.5-12.7 5.5a18.8 18.8 0 0 1-13-5.5 40.1 40.1 0 0 1-5.8 1.4C2.8 47 0 54.4 0 58v6h64v-6c0-3.6-2.9-10.9-14.1-13zM25.5 56H24v1.5a2 2 0 1 1-4 0V56h-1.5a2 2 0 0 1 0-4H20v-1.5a2 2 0 1 1 4 0V52h1.5a2 2 0 0 1 0 4zm14.6-2H40a2 2 0 0 1 0-4 2 2 0 0 1 2 2 2 2 0 0 1-1.9 2z"
    fill="#2e2c2d"></path>
  </symbol>
  <symbol xmlns="http://www.w3.org/2000/svg" viewBox="0 0 64 64" id="nurse-1">
    <title>Nurse</title>
    <desc>A solid styled icon from Orion Icon Library.</desc>
    <path data-name="layer2"
    d="M50 49l-3.8-.9H46c-2.4-.7-3.5-1.5-4-2.1 3.6-.2 11.8-.9 15.4-4.5l1.8-1.8-2.1-1.3C51.8 35 52 25.7 52 25.6V22a19.9 19.9 0 0 0-8-16 5.5 5.5 0 0 0-1.3-4.2A5.4 5.4 0 0 0 38.6 0H25.3a5.2 5.2 0 0 0-3.9 1.7A5.6 5.6 0 0 0 20 6a20 20 0 0 0-8 16v3.7c0 .1.2 9.3-5.1 12.7l-2.1 1.2 1.8 1.8c3.4 3.4 10.9 4.3 14.7 4.5-.4.6-1.4 1.4-3.6 2.1h-.1l-4.4 1C2.8 50.9 0 58.4 0 62v2h64v-2c0-.4-.2-10.2-14-13zm-27.9 1.5l6.7 5.5-4 3-3.9-8zm3.4-4.2h.1a2 2 0 0 0 1-3.7c-4.3-2.6-7-8.3-7-14.6v-1.3a18.1 18.1 0 0 0 7.5-6.7h9.8a18.5 18.5 0 0 0 6.7 6.3V28c0 6.2-2.8 11.9-7 14.6a2 2 0 0 0 1 3.7h.2a5.5 5.5 0 0 0 .6 1.6L32 53.4l-7-5.7a5.5 5.5 0 0 0 .5-1.4zm15.9 4.2l1.5.7-3.6 7.7-4.1-3zM24.3 4.3a1.3 1.3 0 0 1 1-.3h13.3a1.4 1.4 0 0 1 1.1.4 1.6 1.6 0 0 1 .3 1.3c-.1 1.2-1.2 7.3-1.7 10.3H25.7c-.5-2.8-1.5-8.3-1.7-10.2a1.9 1.9 0 0 1 .3-1.5z"
    fill="#2e2c2d"></path>
    <path data-name="layer1" d="M28.4 12H30v1.6a2 2 0 1 0 4 0V12h1.6a2 2 0 0 0 0-4H34V6.4a2 2 0 0 0-4 0V8h-1.6a2 2 0 0 0 0 4z"
    fill="#2e2c2d"></path>
  </symbol>
  <symbol xmlns="http://www.w3.org/2000/svg" viewBox="0 0 64 64" id="physician-1">
    <title>Physician</title>
    <desc>A solid styled icon from Orion Icon Library.</desc>
    <path data-name="layer1"
    d="M50.1 44.1A5 5 0 0 1 52 48v6a5 5 0 0 1-2.6 4.4 2 2 0 0 1-1.9-3.5 1 1 0 0 0 .5-.9v-6a1 1 0 0 0-1-1h-4a1 1 0 0 0-1 1v6a1 1 0 0 0 .6.9 2 2 0 0 1-.9 3.8l-.9-.2A5 5 0 0 1 38 54v-6a5 5 0 0 1 5-5 3.3 3.3 0 0 0-.3-.9 7.7 7.7 0 0 1-1.9-1.1l-.7-.9a19.2 19.2 0 0 0 6.4-9.3c3.1-1 4.2-5.1 4.2-7.1s-1.3-3.9-2.9-4.3v-2c0-11.3-8-16.4-16-16.4s-16 5.1-16 16.4v1.9c-1.6.5-2.9 1.7-2.9 4.5s1.1 6 4.2 7a18.9 18.9 0 0 0 6.9 9.8 2 2 0 0 1 .1.4v10.6a4 4 0 1 1-4 0v-9.2a39.6 39.6 0 0 1-6.5 1.6C2 46.2 2 55 2 55v8h28V43.7l-3.9-2.5a2 2 0 0 0 .5-3.6 15.3 15.3 0 0 1-6.3-9.1L20 27h-1.6c-1.2 0-1.8-2.6-1.8-3.3a4 4 0 0 1 0-.5h2.9v-2.3c6-.5 9-2.9 11.5-5s3.7-2.9 6.6-2.9a5.6 5.6 0 0 1 6 5v5h2.9a4.1 4.1 0 0 1 0 .5c0 .6-.6 3.3-1.8 3.3h-1.5l-.4 1.5a15.3 15.3 0 0 1-6.3 9.1 2 2 0 0 0-.7 2.7 2 2 0 0 0 1.5.9L34 43.6V63h28v-8s0-8.4-11.9-10.9z"
    fill="#2e2c2d"></path>
  </symbol>
  <symbol xmlns="http://www.w3.org/2000/svg" viewBox="0 0 64 64" id="first-aid-kit-1">
    <title>First Aid Kit</title>
    <desc>A solid styled icon from Orion Icon Library.</desc>
    <path data-name="layer2"
    d="M58 15H6a6 6 0 0 0-6 6v32a6 6 0 0 0 6 6h52a6 6 0 0 0 6-6V21a6 6 0 0 0-6-6zM43 40h-8v8h-6v-8h-8v-6h8v-8h6v8h8z"
    fill="#2e2c2d"></path>
    <path data-name="layer1" d="M24 13v-3a2 2 0 0 1 2-2h12a2 2 0 0 1 2 2v3h4v-3a6.007 6.007 0 0 0-6-6H26a6.007 6.007 0 0 0-6 6v3z"
    fill="#2e2c2d"></path>
  </symbol>
  <symbol xmlns="http://www.w3.org/2000/svg" viewBox="0 0 64 64" id="medical-bag-1">
    <title>Medical Bag</title>
    <desc>A solid styled icon from Orion Icon Library.</desc>
    <rect data-name="layer2"
    x="49" y="21" width="7" height="10" rx="1" ry="1" fill="#2e2c2d"></rect>
    <rect data-name="layer2" x="8" y="21" width="7" height="10" rx="1"
    ry="1" fill="#2e2c2d"></rect>
    <path data-name="layer1" d="M60 11H43V8a6.007 6.007 0 0 0-6-6H27a6.007 6.007 0 0 0-6 6v3H4a4 4 0 0 0-4 4v9a1 1 0 0 0 1 1h5v-3a3 3 0 0 1 3-3h5a3 3 0 0 1 3 3v3h30v-3a3 3 0 0 1 3-3h5a3 3 0 0 1 3 3v3h5a1 1 0 0 0 1-1v-9a4 4 0 0 0-4-4zM25 8a2 2 0 0 1 2-2h10a2 2 0 0 1 2 2v3H25zm30 25h-5a3 3 0 0 1-3-3v-3H17v3a3 3 0 0 1-3 3H9a3 3 0 0 1-3-3v-3H2v28a6 6 0 0 0 6 6h46c3.314 0 8-2.686 8-6V27h-4v3a3 3 0 0 1-3 3zM43 45h-8v8h-6v-8h-8v-6h8v-8h6v8h8z"
    fill="#2e2c2d"></path>
  </symbol>
  <symbol xmlns="http://www.w3.org/2000/svg" viewBox="0 0 64 64" id="health-1">
    <title>Health</title>
    <desc>A solid styled icon from Orion Icon Library.</desc>
    <path data-name="layer1"
    d="M32 0a32 32 0 1 0 32 32A32 32 0 0 0 32 0zm16 36a1 1 0 0 1-1 1h-9a1 1 0 0 0-1 1v9a1 1 0 0 1-1 1h-8a1 1 0 0 1-1-1v-9a1 1 0 0 0-1-1h-9a1 1 0 0 1-1-1v-8a1 1 0 0 1 1-1h9a1 1 0 0 0 1-1v-9a1 1 0 0 1 1-1h8a1 1 0 0 1 1 1v9a1 1 0 0 0 1 1h9a1 1 0 0 1 1 1z"
    fill="#2e2c2d"></path>
  </symbol>
  <symbol xmlns="http://www.w3.org/2000/svg" viewBox="0 0 64 64" id="hospital-1">
    <title>Hospital</title>
    <desc>A solid styled icon from Orion Icon Library.</desc>
    <path data-name="layer2"
    fill="#2e2c2d" d="M40 47h6v12h-6zm8 0h6v12h-6z"></path>
    <path data-name="layer1" d="M62 29H33V7a2 2 0 0 0-2-2H2a2 2 0 0 0-2 2v52h38V45h18v14h8V31a2 2 0 0 0-2-2zM12 12a1 1 0 0 1 2 0v5h6v-5a1 1 0 0 1 2 0v12a1 1 0 0 1-2 0v-5h-6v5a1 1 0 0 1-2 0zm16 35v4H4v-4zm0-9v4H4v-4zm0-9v4H4v-4zm30 7v4H36v-4z"
    fill="#2e2c2d"></path>
  </symbol>
  <symbol xmlns="http://www.w3.org/2000/svg" viewBox="0 0 64 64" id="hospital-2">
    <title>Hospital</title>
    <desc>A solid styled icon from Orion Icon Library.</desc>
    <path data-name="layer2"
    d="M62 0H2a2 2 0 0 0-2 2v60a2 2 0 0 0 2 2h14V18h32v46h14a2 2 0 0 0 2-2V2a2 2 0 0 0-2-2zM11 50H5v-6h6zm0-12H5v-6h6zm0-12H5v-6h6zm0-12H5V8h6zm16 0h-6V8h6zm16 0h-6V8h6zm16 36h-6v-6h6zm0-12h-6v-6h6zm0-12h-6v-6h6zm0-12h-6V8h6z"
    fill="#2e2c2d"></path>
    <path data-name="layer2" fill="#2e2c2d" d="M27 45h10v19H27z"></path>
    <path data-name="layer1" d="M18 20v44h7V43h14v21h7V20zm20 14h-4v4h-4v-4h-4v-4h4v-4h4v4h4z"
    fill="#2e2c2d"></path>
  </symbol>
  <symbol xmlns="http://www.w3.org/2000/svg" viewBox="0 0 64 64" id="hospital-3">
    <title>Hospital</title>
    <desc>A solid styled icon from Orion Icon Library.</desc>
    <path data-name="layer2"
    d="M2 16h18a12.86 12.86 0 0 1-.638-8H2a1 1 0 0 0-1 1v6a1 1 0 0 0 1 1zm60-8H44.638A12.86 12.86 0 0 1 44 16h18a1 1 0 0 0 1-1V9a1 1 0 0 0-1-1zm0 49h-2V18H42.943a13.085 13.085 0 0 1-4.068 4H42v7h-7v-5.367a12.459 12.459 0 0 1-6 0V29h-7v-7h3.125a13.085 13.085 0 0 1-4.068-4H4v39H2a1 1 0 0 0-1 1v5a1 1 0 0 0 1 1h18V44h24v20h18a1 1 0 0 0 1-1v-5a1 1 0 0 0-1-1zM9 22h7v7H9zm0 11h7v7H9zm0 11h7v7H9zm20-4h-7v-7h7zm13 0h-7v-7h7zm6-18h7v7h-7zm0 11h7v7h-7zm0 11h7v7h-7z"
    fill="#2e2c2d"></path>
    <path data-name="layer1" d="M32 22a11 11 0 1 0-11-11 11 11 0 0 0 11 11zM25 9h5V4h4v5h5v4h-5v5h-4v-5h-5zm-3 37h9v18h-9zm11 0h9v18h-9z"
    fill="#2e2c2d"></path>
  </symbol>
  <symbol xmlns="http://www.w3.org/2000/svg" viewBox="0 0 64 64" id="syringe-1">
    <title>Syringe</title>
    <desc>A solid styled icon from Orion Icon Library.</desc>
    <path data-name="layer1"
    d="M63.708 62.324L51.271 49.888l1.436-1.436a2.012 2.012 0 0 0 0-2.843l-2.725-2.725a6.022 6.022 0 0 0-1.562-5.847L24.565 13.181l-4.293-4.293 2.15-2.15a1 1 0 0 0-1.414-1.414L18.152 8.18 16 10.331 9.557 3.888l2.15-2.15A1 1 0 0 0 10.293.324l-2.15 2.15-5.7 5.7-2.15 2.15a1 1 0 1 0 1.414 1.414l2.15-2.15 6.443 6.443-2.149 2.149-2.858 2.858a1 1 0 1 0 1.414 1.414l2.15-2.15 17.15 17.15 11 11a6.022 6.022 0 0 0 5.847 1.561l2.724 2.725a2.012 2.012 0 0 0 2.843 0l1.436-1.438 12.436 12.438a1 1 0 0 0 1.414-1.414zM11.714 17.445l2.85-2.85 4.294-4.295 3.586 3.586-2.436 2.436a1 1 0 1 0 1.414 1.414l2.435-2.436 2.872 2.872-3.864 3.864a1 1 0 1 0 1.414 1.414l3.864-3.864 2.872 2.872-2.436 2.442a1 1 0 1 0 1.414 1.414l2.436-2.436 2.871 2.867-8.586 8.586-16.442-16.444zm35.279 33.879l-2.214-2.215a6.113 6.113 0 0 0 .786-.657l2.857-2.857a6.114 6.114 0 0 0 .655-.784l2.217 2.227z"
    fill="#2e2c2d"></path>
  </symbol>
  <symbol xmlns="http://www.w3.org/2000/svg" viewBox="0 0 64 64" id="needle-1">
    <title>Needle</title>
    <desc>A solid styled icon from Orion Icon Library.</desc>
    <path data-name="layer1"
    d="M63.707 62.293l-13.15-13.15.721-.721a3.025 3.025 0 0 0 0-4.271L48 40.87a3.015 3.015 0 0 0-.577-3.435L36.129 26.144a.565.565 0 0 0-.31-.31L28.1 18.117a4.993 4.993 0 0 0 2.891-1.41 5.041 5.041 0 1 0-7.129-7.128l-5.436 5.436L6.985 3.571 8.85 1.707A1 1 0 0 0 7.436.293L.293 7.436A1 1 0 1 0 1.707 8.85l1.864-1.865 11.444 11.444-5.436 5.435a5.041 5.041 0 0 0 7.128 7.129 4.992 4.992 0 0 0 1.41-2.891l19.319 19.319A2.981 2.981 0 0 0 40.87 48l3.279 3.28a3.025 3.025 0 0 0 4.271 0l.722-.722 13.15 13.15a1 1 0 0 0 1.414-1.414zM13.818 22.454l8.636-8.636a4.987 4.987 0 0 0 1.411 2.889l1.435 1.436-3.578 3.579a1 1 0 1 0 1.414 1.414l3.578-3.579 2.872 2.872-2.15 2.15a1 1 0 1 0 1.414 1.414l2.15-2.15 2.856 2.857-3.566 3.6a1 1 0 1 0 1.42 1.4l3.56-3.591 3.594 3.594-2.15 2.15-5.007 5.007-15-15a4.987 4.987 0 0 0-2.889-1.406zm15.761-11.46a3.044 3.044 0 1 1-2.15-.89 3.045 3.045 0 0 1 2.15.889zM15.293 29.579a3.041 3.041 0 1 1 0-4.3 3.042 3.042 0 0 1 0 4.3zm30.271 20.285l-3.15-3.15 4.3-4.3 3.15 3.151a1.023 1.023 0 0 1 0 1.441l-2.858 2.857a1.048 1.048 0 0 1-1.442.001z"
    fill="#2e2c2d"></path>
  </symbol>
  <symbol xmlns="http://www.w3.org/2000/svg" viewBox="0 0 64 64" id="forceps-1">
    <title>Forceps</title>
    <desc>A solid styled icon from Orion Icon Library.</desc>
    <path data-name="layer2"
    d="M63.123 57.891L47.646 41.413a22.721 22.721 0 0 1-3.4-4.767L32.58 19.518a10 10 0 1 0-6.519-.268l-2.7 2.7 40.3 40.3a4.432 4.432 0 0 0-.538-4.359zM25.48 5.749a5.973 5.973 0 1 1 0 8.447 5.957 5.957 0 0 1 0-8.447z"
    fill="#2e2c2d"></path>
    <path data-name="layer1" d="M19.25 26.061a9.975 9.975 0 1 0 .268 6.519l17.144 11.676a30.967 30.967 0 0 1 4.725 3.364l16.5 15.5a5.822 5.822 0 0 0 3.12.88 3 3 0 0 0 1.279-.3L21.948 23.362zm-5.05 7.867a5.97 5.97 0 1 1 0-8.447 5.935 5.935 0 0 1 0 8.447z"
    fill="#2e2c2d"></path>
  </symbol>
  <symbol xmlns="http://www.w3.org/2000/svg" viewBox="0 0 64 64" id="scalpel-1">
    <title>Scalpel</title>
    <desc>A solid styled icon from Orion Icon Library.</desc>
    <path data-name="layer2"
    d="M41.429 33.492L11.98 4.043a7.027 7.027 0 0 0-9.937 9.937l29.449 29.449a7.015 7.015 0 0 0 9.9 0l.037-.037a7.015 7.015 0 0 0 0-9.9z"
    fill="#2e2c2d"></path>
    <path data-name="layer1" d="M63.251 59.569L45 41.316a8.926 8.926 0 0 1-2.156 3.489l-.037.037a8.972 8.972 0 0 1-2.286 1.658 28.859 28.859 0 0 1 2.029 2.141 2.009 2.009 0 0 1 .277 2.213l-.064.128a2.48 2.48 0 0 0 .8 3.057c9.079 6.177 16.647 6.511 19.37 6.388a.5.5 0 0 0 .318-.858z"
    fill="#2e2c2d"></path>
  </symbol>
  <symbol xmlns="http://www.w3.org/2000/svg" viewBox="0 0 64 64" id="hospital-stretcher-1">
    <title>Hospital Stretcher</title>
    <desc>A solid styled icon from Orion Icon Library.</desc>
    <rect data-name="layer2"
    y="32" width="64" height="7" rx="1" ry="1" fill="#2e2c2d"></rect>
    <path data-name="layer2" d="M43 28a3 3 0 0 0-3-3H21a3 3 0 0 0-3 3v2h25zM42 7a1 1 0 0 0 1-1 3 3 0 0 1 3-3h8a3 3 0 0 1 3 3v18h-5a5 5 0 0 0-5 5v1h15v-1a5 5 0 0 0-3-4.578V6a5.006 5.006 0 0 0-5-5h-8a5.006 5.006 0 0 0-5 5 1 1 0 0 0 1 1z"
    fill="#2e2c2d"></path>
    <rect data-name="layer1" x="39" y="8" width="6" height="8" rx="1"
    ry="1" fill="#2e2c2d"></rect>
    <path data-name="layer1" d="M53 53a4.958 4.958 0 0 0-2.9.94l-15.808-7.667L45.167 41h-4.584L32 45.162 23.417 41h-4.584l10.875 5.273L13.9 53.94A4.995 4.995 0 1 0 11 63a5.008 5.008 0 0 0 4.9-4h32.2a5 5 0 1 0 4.9-6zm-4.9 4H15.9a4.939 4.939 0 0 0-.6-1.517l16.7-8.1 16.7 8.1A4.939 4.939 0 0 0 48.1 57z"
    fill="#2e2c2d"></path>
  </symbol>
  <symbol xmlns="http://www.w3.org/2000/svg" viewBox="0 0 64 64" id="hospital-bed-1">
    <title>Hospital Bed</title>
    <desc>A solid styled icon from Orion Icon Library.</desc>
    <path data-name="layer2"
    d="M62 32a2 2 0 0 0-2 2v17H4v-2h54v-5a3.009 3.009 0 0 0-3-3H7a3.009 3.009 0 0 0-3 3v-5h15a7 7 0 0 0-7-7H7a4.955 4.955 0 0 0-3 1.023V22a2 2 0 0 0-4 0v40a2 2 0 0 0 4 0v-5h56v5a2 2 0 0 0 4 0V34a2 2 0 0 0-2-2z"
    fill="#2e2c2d"></path>
    <path data-name="layer1" d="M34 33h16a2.006 2.006 0 0 0 2-2V15a2.006 2.006 0 0 0-2-2H34a2.006 2.006 0 0 0-2 2v16a2.006 2.006 0 0 0 2 2zm3-15a1 1 0 0 1 2 0v4h6v-4a1 1 0 0 1 2 0v10a1 1 0 0 1-2 0v-4h-6v4a1 1 0 0 1-2 0z"
    fill="#2e2c2d"></path>
  </symbol>
  <symbol xmlns="http://www.w3.org/2000/svg" viewBox="0 0 64 64" id="hospital-sign-1">
    <title>Hospital Sign</title>
    <desc>A solid styled icon from Orion Icon Library.</desc>
    <path data-name="layer1"
    d="M32 0a32 32 0 1 0 32 32A32 32 0 0 0 32 0zm14 47h-9V36H27v11h-9V17h9v10h10V17h9z"
    fill="#2e2c2d"></path>
  </symbol>
  <symbol xmlns="http://www.w3.org/2000/svg" viewBox="0 0 64 64" id="hospital-4">
    <title>Hospital</title>
    <desc>A solid styled icon from Orion Icon Library.</desc>
    <path data-name="layer2"
    d="M62 0a2 2 0 0 0-2 2v11.084H46v4h14V40H46v4h14v18a2 2 0 0 0 4 0V2a2 2 0 0 0-2-2z"
    fill="#2e2c2d"></path>
    <path data-name="layer1" d="M39 6H5a5.015 5.015 0 0 0-5 5v34a5.015 5.015 0 0 0 5 5h34a5.015 5.015 0 0 0 5-5V11a5.015 5.015 0 0 0-5-5zm-3 37h-9V32H17v11H8V13h9v10h10V13h9z"
    fill="#2e2c2d"></path>
  </symbol>
  <symbol xmlns="http://www.w3.org/2000/svg" viewBox="0 0 64 64" id="hospital-sign-2">
    <title>Hospital Sign</title>
    <desc>A solid styled icon from Orion Icon Library.</desc>
    <path data-name="layer1"
    d="M61.487 20.477l-5-8.66a1 1 0 0 0-1.376-.36l-15.6 9.254a1 1 0 0 1-1.51-.86V1a1 1 0 0 0-1-1H27a1 1 0 0 0-1 1v18.878a1 1 0 0 1-1.5.867L8.449 11.5a1 1 0 0 0-1.365.367l-5 8.66a1 1 0 0 0 .367 1.367l16.03 9.233a1 1 0 0 1-.007 1.737L2.879 41.67a1 1 0 0 0-.379 1.371l5 8.66a1 1 0 0 0 1.358.371l15.646-8.837a1 1 0 0 1 1.496.871V63a1 1 0 0 0 1 1h10a1 1 0 0 0 1-1V44.077a1 1 0 0 1 1.479-.878l15.645 8.53a1 1 0 0 0 1.345-.378l5-8.66a1 1 0 0 0-.387-1.378l-15.539-8.472a1 1 0 0 1-.031-1.738l15.619-9.266a1 1 0 0 0 .356-1.36z"
    fill="#2e2c2d"></path>
  </symbol>
  <symbol xmlns="http://www.w3.org/2000/svg" viewBox="0 0 64 64" id="caduceus-1">
    <title>Caduceus</title>
    <desc>A solid styled icon from Orion Icon Library.</desc>
    <path data-name="layer1"
    d="M38.262 27.342a3.327 3.327 0 0 1 1.7 3.557c-.386 2.048-2.566 3.581-5.961 4.283v-8.1c-1.333.054-2.672.06-4 .019V35.2c-3.433-.7-5.639-2.235-6.028-4.3a3.327 3.327 0 0 1 1.7-3.557 1.483 1.483 0 0 0 .549-.48 49.571 49.571 0 0 1-3.911-.539 6.351 6.351 0 0 0-1.284 5.133c.322 1.711 1.858 5.584 8.976 6.792v6.848c-2.207-.634-3.468-1.74-3.9-2.65a1.581 1.581 0 0 1 .088-1.652 1.5 1.5 0 1 0-2.512-1.643 4.607 4.607 0 0 0-.29 4.574 7.637 7.637 0 0 0 3.622 3.414 4.7 4.7 0 0 0-2.175 4.078c.119 2.149 1.944 4.405 5.163 5.078v1.783a1.5 1.5 0 0 0-2.383 1.818A6.867 6.867 0 0 0 30 61.841V62a2 2 0 0 0 4 0v-.168c2.112-1.1 3.5-3.117 3.261-5.024a3.322 3.322 0 0 0-.677-1.6 5.984 5.984 0 0 0 1.648-1.562 4.472 4.472 0 0 0 .608-4.137 1.5 1.5 0 0 0-2.816 1.035 1.5 1.5 0 0 1-.252 1.385A3.643 3.643 0 0 1 34 53.161V48.17c3.146-.721 5.536-2.311 6.543-4.446a4.6 4.6 0 0 0-.292-4.574 6.5 6.5 0 0 0-2.327-2.063c3.746-1.677 4.734-4.3 4.984-5.631a6.349 6.349 0 0 0-1.379-5.247 43.182 43.182 0 0 1-3.853.6 1.484 1.484 0 0 0 .586.533zM30 53.175c-1.317-.451-2.123-1.305-2.168-2.125-.041-.739.644-1.558 2.168-2.089zm7.829-10.73c-.425.9-1.663 2-3.829 2.633v-6.249a9.6 9.6 0 0 1 2.321.79 3.759 3.759 0 0 1 1.42 1.173 1.585 1.585 0 0 1 .088 1.652z"
    fill="#2e2c2d"></path>
    <path data-name="layer2" d="M34 24.947a39.4 39.4 0 0 0 6.675-.859l-3.431-3.381a1 1 0 0 1 1.414-1.414l4.284 4.222a32.761 32.761 0 0 0 5.922-2.357L42.5 17.895a1 1 0 1 1 .895-1.789l7.548 3.872a31.837 31.837 0 0 0 3.848-2.792l-7.249-3.271a1 1 0 0 1 .813-1.828l8.053 3.634a33.925 33.925 0 0 0 3.2-3.582l-6.8-1.148a1 1 0 1 1 .283-1.979l7.831 1.322a35.758 35.758 0 0 0 1.9-3.13 1.478 1.478 0 0 0-.036-1.469A1.5 1.5 0 0 0 61.492 5H41.568a1.493 1.493 0 0 0-1.5 1.351C39.881 8.35 38.714 13 32 13s-7.881-4.65-8.071-6.65A1.493 1.493 0 0 0 22.432 5H2.508a1.5 1.5 0 0 0-1.295.732A1.478 1.478 0 0 0 1.178 7.2c.465.865 1.02 1.808 1.671 2.791l8.01-.984a1 1 0 1 1 .283 1.979l-6.978.857a33.995 33.995 0 0 0 3.373 3.821l8.057-3.581a1 1 0 0 1 .813 1.828l-7.255 3.227a31.856 31.856 0 0 0 3.612 2.662l7.789-3.69a1 1 0 1 1 .895 1.789l-6.583 3.118a32.682 32.682 0 0 0 6.19 2.5l4.239-4.221a1 1 0 0 1 1.414 1.414l-3.393 3.379a39.4 39.4 0 0 0 6.685.858z"
    fill="#2e2c2d"></path>
    <circle data-name="layer1" cx="32" cy="5" r="5" fill="#2e2c2d"></circle>
  </symbol>
  <symbol xmlns="http://www.w3.org/2000/svg" viewBox="0 0 64 64" id="hospital-symbol-1">
    <title>Hospital Symbol</title>
    <desc>A solid styled icon from Orion Icon Library.</desc>
    <path data-name="layer1"
    d="M60 0H4a4 4 0 0 0-4 4v56a4 4 0 0 0 4 4h56a4 4 0 0 0 4-4V4a4 4 0 0 0-4-4zM50 51H38V38H26v13H14V13h12v13h12V13h12z"
    fill="#2e2c2d"></path>
  </symbol>
  <symbol xmlns="http://www.w3.org/2000/svg" viewBox="0 0 64 64" id="surgery-1">
    <title>Surgery</title>
    <desc>A solid styled icon from Orion Icon Library.</desc>
    <path data-name="layer2"
    d="M62.534 7.286l-2.842-2.832a5.034 5.034 0 0 0-7.095 0L28.708 28.28l6.392 6.372a4.022 4.022 0 0 0 2.847 1.173 3.954 3.954 0 0 0 2.8-1.149L62.51 14.391l.024-.023a5.009 5.009 0 0 0 0-7.081z"
    fill="#2e2c2d"></path>
    <path data-name="layer1" d="M36.384 37.615a5.983 5.983 0 0 1-2.695-1.547L27.3 29.7.4 56.492a1.1 1.1 0 0 0-.312.986l.155.6.488.212a23.722 23.722 0 0 0 8.956 1.7h.2c.017 0 .031.01.048.01H34a1 1 0 0 0 0-2H19.188a26.755 26.755 0 0 0 8.091-5.642c6.085-6.07 8.306-11.383 9.105-14.743zM47 57.994h-6a1 1 0 0 0 0 2h6a1 1 0 0 0 0-2zm13 0h-6a1 1 0 0 0 0 2h6a1 1 0 0 0 0-2z"
    fill="#2e2c2d"></path>
  </symbol>
  <symbol xmlns="http://www.w3.org/2000/svg" viewBox="0 0 64 64" id="surgical-instruments-1">
    <title>Surgical Instruments</title>
    <desc>A solid styled icon from Orion Icon Library.</desc>
    <path data-name="layer2"
    d="M53 22.994h-7v36a5 5 0 0 0 10 0v-33a3 3 0 0 0-3-3zm-6-23h-1v21h7a3 3 0 0 0 3-3v-5c0-6.148-3.7-13-9-13z"
    fill="#2e2c2d"></path>
    <path data-name="layer1" d="M14-.006a8 8 0 1 0 0 16c.106 0 .209-.012.314-.016l5.039 16.391A3.925 3.925 0 0 0 20 36.612v24.382c0 1.339 1.536 2.463 3 2.847V7.994h-1a8.009 8.009 0 0 0-8-8zm-4 8a4 4 0 1 1 4 4 4 4 0 0 1-4-4zm24-8a8.009 8.009 0 0 0-8 8h-1v55.848c1.464-.384 3-1.508 3-2.847V36.612a3.925 3.925 0 0 0 .647-4.243l5.043-16.39c.1 0 .205.016.31.016a8 8 0 1 0 0-16zm0 12a4 4 0 1 1 4-4 4 4 0 0 1-4 4z"
    fill="#2e2c2d"></path>
  </symbol>
  <symbol xmlns="http://www.w3.org/2000/svg" viewBox="0 0 64 64" id="medical-record-1">
    <title>Medical Record</title>
    <desc>A solid styled icon from Orion Icon Library.</desc>
    <path data-name="layer2"
    fill="#2e2c2d" d="M51 1v12h12L51 1zM27 27h8v8h-8zm10 20h18v8H37zm0-10h18v8H37zm0-10h18v8H37zM27 47h8v8h-8zm0-10h8v8h-8z"></path>
    <path data-name="layer2" d="M51 15a2 2 0 0 1-2-2V0H19a1 1 0 0 0-1 1v62a1 1 0 0 0 1 1h44a1 1 0 0 0 1-1V15zm-25-5h4V6h4v4h4v4h-4v4h-4v-4h-4zm31 47H25V25h32z"
    fill="#2e2c2d"></path>
    <path data-name="layer1" d="M10 8H9V7a4 4 0 0 0-8 0v3h9a1 1 0 0 1 1 1v14a1 1 0 0 0 2 0V11a3 3 0 0 0-3-3zM1 53.974a5.958 5.958 0 0 0 .485 2.363l2.5 5.837a1.1 1.1 0 0 0 2.024 0l2.5-5.842A5.958 5.958 0 0 0 9 53.974V53H1z"
    fill="#2e2c2d"></path>
    <path data-name="layer1" fill="#2e2c2d" d="M1 12h8v39H1z"></path>
  </symbol>
  <symbol xmlns="http://www.w3.org/2000/svg" viewBox="0 0 64 64" id="healthcare-1">
    <title>Healthcare</title>
    <desc>A solid styled icon from Orion Icon Library.</desc>
    <path data-name="layer2"
    d="M35.282 44.29a7.781 7.781 0 0 0 2.287-3.354A1.976 1.976 0 0 0 39 39a2.014 2.014 0 0 0-.961-1.734C37.835 33.192 35.886 30 31 30s-6.835 3.192-7.039 7.266A2.014 2.014 0 0 0 23 39a1.976 1.976 0 0 0 1.431 1.936 7.781 7.781 0 0 0 2.287 3.354A10.022 10.022 0 0 0 21 53.308V58h20v-4.692a10.022 10.022 0 0 0-5.718-9.018z"
    fill="#2e2c2d"></path>
    <path data-name="layer1" d="M53 31.366V29.3c.2-.094.385-.2.572-.311h.009c2.381.989 7.259.037 9.32-1.9a.1.1 0 0 0-.022-.159A9.542 9.542 0 0 1 58 19c0-3.922-1.923-8.805-7.654-8.994A9.193 9.193 0 0 0 41 19.055c-.014 4.795-1.877 6.813-3.8 7.842a.1.1 0 0 0 .018.176c2.8.972 4.712 2.4 9.784 2.429v1.868a17.334 17.334 0 0 0-7.237 3.681c.084.4.157.813.2 1.245A4.064 4.064 0 0 1 41 39a4.017 4.017 0 0 1-1.872 3.417 9.811 9.811 0 0 1-.795 1.422A12.056 12.056 0 0 1 43 53.308V58h21V44c0-6.117-5.286-11.269-11-12.634zM23.667 43.839a9.809 9.809 0 0 1-.795-1.422A4.017 4.017 0 0 1 21 39a4.064 4.064 0 0 1 1.033-2.7 11.329 11.329 0 0 1 .9-3.439A19.3 19.3 0 0 0 17 30.363v-1.312a8.822 8.822 0 0 0 4.038-4.4 17.308 17.308 0 0 0 .771-1.671c.064.006.126.019.192.019a1.994 1.994 0 0 0 .967-3.74c.826-3.617.927-7.734-.967-10.26-1.7-2.263-8.451-2.549-11 0-1 1-6-1-6 5a39.493 39.493 0 0 0 .336 5.122A2 2 0 0 0 6 23c.062 0 .121-.013.182-.018a5.674 5.674 0 0 0 .641 1.339l.015.017A8.92 8.92 0 0 0 11 29.043v1.322C5.286 31.731 0 36.883 0 43v15h19v-4.692a12.056 12.056 0 0 1 4.667-9.469z"
    fill="#2e2c2d"></path>
  </symbol>
  <symbol xmlns="http://www.w3.org/2000/svg" viewBox="0 0 64 64" id="pill-1">
    <title>Pill</title>
    <desc>A solid styled icon from Orion Icon Library.</desc>
    <path data-name="layer1"
    d="M63.34 11.484a15.949 15.949 0 0 0-4.033-6.79A15.952 15.952 0 0 0 52.516.66q-.747-.22-1.51-.367a15.788 15.788 0 0 0-8.046.5 15.722 15.722 0 0 0-6.409 3.9L20.622 20.622 4.693 36.551a16.138 16.138 0 0 0 0 22.756 16.138 16.138 0 0 0 22.755 0l31.859-31.858a15.972 15.972 0 0 0 4.4-8.3 16.282 16.282 0 0 0-.367-7.665zm-6.412.417a2 2 0 0 1-2.828 0 8.74 8.74 0 0 0-12.342 0l-1.741 1.741a2 2 0 0 1-2.828-2.828l1.741-1.742a12.738 12.738 0 0 1 18 0 2 2 0 0 1-.002 2.828zM24.62 56.478a12.091 12.091 0 0 1-17.1-17.1l15.931-15.927 17.1 17.1z"
    fill="#2e2c2d"></path>
  </symbol>
  <symbol xmlns="http://www.w3.org/2000/svg" viewBox="0 0 64 64" id="pills-1">
    <title>Pills</title>
    <desc>A solid styled icon from Orion Icon Library.</desc>
    <path data-name="layer2"
    d="M43 52c-9.478 0-17.441-3.561-21-8.786V45c0 7.168 9.421 13 21 13s21-5.832 21-13v-1.786C60.441 48.439 52.478 52 43 52z"
    fill="#2e2c2d"></path>
    <path data-name="layer2" d="M31.714 26.055C25.883 28.368 22 32.4 22 37c0 7.168 9.421 13 21 13a31.087 31.087 0 0 0 10.729-1.846zM43 24a32.423 32.423 0 0 0-7.608.9l21.656 21.735C61.3 44.254 64 40.822 64 37c0-7.168-9.421-13-21-13z"
    fill="#2e2c2d"></path>
    <path data-name="layer1" d="M20.012 36.744a10.212 10.212 0 0 1 .2-1.762C11.087 34.79 3.46 31.294 0 26.214V28c0 6.959 8.887 12.642 20 12.969v-4.243z"
    fill="#2e2c2d"></path>
    <path data-name="layer1" d="M30.977 24.2l3.946-1.243a34.249 34.249 0 0 1 6.793-.915A8.2 8.2 0 0 0 42 20c0-4.6-3.883-8.632-9.714-10.945l-22.016 22.1A31.046 31.046 0 0 0 20.821 33c1.511-3.645 5.073-6.788 10.156-8.8zM6.952 29.635L28.608 7.9A32.423 32.423 0 0 0 21 7C9.421 7 0 12.832 0 20c0 3.822 2.7 7.254 6.952 9.635z"
    fill="#2e2c2d"></path>
  </symbol>
  <symbol xmlns="http://www.w3.org/2000/svg" viewBox="0 0 64 64" id="pill-bottle-1">
    <title>Pill Bottle</title>
    <desc>A solid styled icon from Orion Icon Library.</desc>
    <path data-name="layer1"
    fill="#2e2c2d" d="M29 49.006h6v-6h6v-6h-6v-6h-6v6h-6v6h6v6z"></path>
    <path data-name="layer2" d="M44 16.006H19a7.008 7.008 0 0 0-7 7v34a7.008 7.008 0 0 0 7 7h25a7.008 7.008 0 0 0 7-7v-34a7.008 7.008 0 0 0-7-7zm4 39H15v-29h33z"
    fill="#2e2c2d"></path>
    <path data-name="layer1" d="M23 6.006a1 1 0 0 1 2 0v8h6v-8a1 1 0 0 1 2 0v8h6v-8a1 1 0 0 1 2 0v8h5v-10a4 4 0 0 0-4-4H21a4 4 0 0 0-4 4v10h6z"
    fill="#2e2c2d"></path>
  </symbol>
  <symbol xmlns="http://www.w3.org/2000/svg" viewBox="0 0 64 64" id="prescription-1">
    <title>Prescription</title>
    <desc>A solid styled icon from Orion Icon Library.</desc>
    <path data-name="layer2"
    d="M62 19H47.657L58.833 8.824a4 4 0 0 0-5.657-5.657L38.343 19H2a2.006 2.006 0 0 0-2 2v2a2.006 2.006 0 0 0 2 2h60a2.006 2.006 0 0 0 2-2v-2a2.006 2.006 0 0 0-2-2zM5 27v2a27 27 0 0 0 54 0v-2zm27 21a9 9 0 1 1 9-9 9 9 0 0 1-9 9z"
    fill="#2e2c2d"></path>
    <path data-name="layer1" fill="#2e2c2d" d="M33 38v-4h-2v4h-4v2h4v4h2v-4h4v-2h-4zm9.133 18.169a28.961 28.961 0 0 1-20.266 0 25.2 25.2 0 0 0-7.319 4.98.5.5 0 0 0 .359.851h34.187a.5.5 0 0 0 .359-.851 25.2 25.2 0 0 0-7.32-4.98z"></path>
  </symbol>
  <symbol xmlns="http://www.w3.org/2000/svg" viewBox="0 0 64 64" id="tablets-1">
    <title>Tablets</title>
    <desc>A solid styled icon from Orion Icon Library.</desc>
    <path data-name="layer1"
    d="M62.424 19.843L44.175 1.594a4.012 4.012 0 0 0-5.657 0L1.594 38.519a4.012 4.012 0 0 0 0 5.657l18.249 18.248a4.012 4.012 0 0 0 5.657 0L62.424 25.5a4.012 4.012 0 0 0 0-5.657zM13 45a4 4 0 1 1 4-4 4 4 0 0 1-4 4zm9-17a4 4 0 1 1-4 4 4 4 0 0 1 4-4zm1 27a4 4 0 1 1 4-4 4 4 0 0 1-4 4zm8-36a4 4 0 1 1-4 4 4 4 0 0 1 4-4zm1 27a4 4 0 1 1 4-4 4 4 0 0 1-4 4zm8-36a4 4 0 1 1-4 4 4 4 0 0 1 4-4zm1 27a4 4 0 1 1 4-4 4 4 0 0 1-4 4zm9-9a4 4 0 1 1 4-4 4 4 0 0 1-4 4z"
    fill="#2e2c2d"></path>
  </symbol>
  <symbol xmlns="http://www.w3.org/2000/svg" viewBox="0 0 64 64" id="medecine-tablets-1">
    <title>Medecine Tablets</title>
    <desc>A solid styled icon from Orion Icon Library.</desc>
    <path data-name="layer1"
    d="M54 0H10a4.012 4.012 0 0 0-4 4v56a4.012 4.012 0 0 0 4 4h44a4.012 4.012 0 0 0 4-4V4a4.012 4.012 0 0 0-4-4zM39 7h3v8h-3a4 4 0 0 1 0-8zm0 14h3v8h-3a4 4 0 0 1 0-8zm0 14h3v8h-3a4 4 0 0 1 0-8zM17 7h3v8h-3a4 4 0 0 1 0-8zm0 14h3v8h-3a4 4 0 0 1 0-8zm0 14h3v8h-3a4 4 0 0 1 0-8zm-4 18a4.012 4.012 0 0 1 4-4h3v8h-3a4.012 4.012 0 0 1-4-4zm12 4h-3v-8h3a4 4 0 0 1 0 8zm0-14h-3v-8h3a4 4 0 0 1 0 8zm0-14h-3v-8h3a4 4 0 0 1 0 8zm0-14h-3V7h3a4 4 0 0 1 0 8zm10 38a4.012 4.012 0 0 1 4-4h3v8h-3a4.012 4.012 0 0 1-4-4zm12 4h-3v-8h3a4 4 0 0 1 0 8zm0-14h-3v-8h3a4 4 0 0 1 0 8zm0-14h-3v-8h3a4 4 0 0 1 0 8zm0-14h-3V7h3a4 4 0 0 1 0 8z"
    fill="#2e2c2d"></path>
  </symbol>
  <symbol xmlns="http://www.w3.org/2000/svg" viewBox="0 0 64 64" id="medicine-dropper-1">
    <title>Medicine Dropper</title>
    <desc>A solid styled icon from Orion Icon Library.</desc>
    <path data-name="layer2"
    d="M62.4 3.141a8.122 8.122 0 0 0-12.112-.809L35.579 16.9l-1.439-1.426a1 1 0 1 0-1.408 1.42l1.426 1.413-12.13 12.016a7.912 7.912 0 0 0-2.158 3.9 18.873 18.873 0 0 1-5.324 9.167l-.367.363a4 4 0 0 0 1.046 6.416 3.763 3.763 0 0 0 1.728.408 4.3 4.3 0 0 0 3.009-1.253l.274-.271a19.158 19.158 0 0 1 9.258-5.279 8.007 8.007 0 0 0 3.934-2.136l12.141-12.024L47 31.036a1 1 0 1 0 1.408-1.42l-1.418-1.409 14.51-14.37a8.116 8.116 0 0 0 .9-10.696zM37.291 35H21.732c.027-.112.064-.223.089-.336a5.924 5.924 0 0 1 1.615-2.921l12.143-12.028 8.569 8.492z"
    fill="#2e2c2d"></path>
    <path data-name="layer1" d="M11.636 50.483A1.947 1.947 0 0 0 10 49.722a1.974 1.974 0 0 0-1.569.853C7.148 52.412 5 55.949 5 59a5 5 0 0 0 5.01 5A4.988 4.988 0 0 0 15 58.728a14.628 14.628 0 0 0-3.364-8.245z"
    fill="#2e2c2d"></path>
  </symbol>
  <symbol xmlns="http://www.w3.org/2000/svg" viewBox="0 0 64 64" id="remove-prescription-1">
    <title>Remove Prescription</title>
    <desc>A solid styled icon from Orion Icon Library.</desc>
    <path data-name="layer2"
    d="M47 30a17 17 0 1 0 17 17 17.019 17.019 0 0 0-17-17zm-8 19a2 2 0 0 1 0-4h16a2 2 0 0 1 0 4z"
    fill="#2e2c2d"></path>
    <path data-name="layer1" d="M28 47c0-.223.026-.44.034-.661l-4.287 4.287A11.577 11.577 0 0 1 7.374 34.254L19.4 22.228l12.837 12.837a18.83 18.83 0 0 1 19.237-6.511l1.98-1.98A15.576 15.576 0 0 0 31.426 4.546l-26.88 26.88a15.576 15.576 0 0 0 22.028 22.028l1.98-1.98A18.922 18.922 0 0 1 28 47zm4.686-36.315l1.94-1.939a11.062 11.062 0 0 1 15.628 0 2 2 0 0 1-2.828 2.828 7.062 7.062 0 0 0-9.972 0l-1.94 1.94a2 2 0 1 1-2.828-2.83z"
    fill="#2e2c2d"></path>
  </symbol>
  <symbol xmlns="http://www.w3.org/2000/svg" viewBox="0 0 64 64" id="delete-prescription-1">
    <title>Delete Prescription</title>
    <desc>A solid styled icon from Orion Icon Library.</desc>
    <path data-name="layer2"
    d="M47 30a17 17 0 1 0 17 17 17.019 17.019 0 0 0-17-17zm7.071 12.757L49.828 47l4.243 4.243a2 2 0 0 1-2.828 2.828L47 49.828l-4.243 4.243a2 2 0 0 1-2.828-2.828L44.172 47l-4.243-4.243a2 2 0 0 1 2.828-2.828L47 44.172l4.243-4.243a2 2 0 0 1 2.828 2.828z"
    fill="#2e2c2d"></path>
    <path data-name="layer1" d="M28 47c0-.223.026-.44.034-.661l-4.287 4.287A11.577 11.577 0 0 1 7.374 34.254L19.4 22.228l12.837 12.837a18.83 18.83 0 0 1 19.237-6.511l1.98-1.98A15.576 15.576 0 0 0 31.426 4.546l-26.88 26.88a15.576 15.576 0 0 0 22.028 22.028l1.98-1.98A18.922 18.922 0 0 1 28 47zm4.686-36.315l1.94-1.939a11.062 11.062 0 0 1 15.628 0 2 2 0 0 1-2.828 2.828 7.062 7.062 0 0 0-9.972 0l-1.94 1.94a2 2 0 1 1-2.828-2.83z"
    fill="#2e2c2d"></path>
  </symbol>
  <symbol xmlns="http://www.w3.org/2000/svg" viewBox="0 0 64 64" id="prescription-taken-1">
    <title>Prescription Taken</title>
    <desc>A solid styled icon from Orion Icon Library.</desc>
    <path data-name="layer2"
    d="M28 47c0-.223.026-.44.034-.661l-4.287 4.287A11.577 11.577 0 0 1 7.374 34.254L19.4 22.228l12.837 12.837a18.83 18.83 0 0 1 19.237-6.511l1.98-1.98A15.576 15.576 0 0 0 31.426 4.546l-26.88 26.88a15.576 15.576 0 0 0 22.028 22.028l1.98-1.98A18.922 18.922 0 0 1 28 47zm4.686-36.315l1.94-1.939a11.062 11.062 0 0 1 15.628 0 2 2 0 0 1-2.828 2.828 7.062 7.062 0 0 0-9.972 0l-1.94 1.94a2 2 0 1 1-2.828-2.83z"
    fill="#2e2c2d"></path>
    <path data-name="layer1" d="M47 30a17 17 0 1 0 17 17 17.019 17.019 0 0 0-17-17zm8.487 14.321l-8 9a2 2 0 0 1-1.437.671H46a2 2 0 0 1-1.415-.586l-5-5a2 2 0 1 1 2.83-2.828l3.5 3.5 6.585-7.413a2 2 0 0 1 2.99 2.656z"
    fill="#2e2c2d"></path>
  </symbol>
  <symbol xmlns="http://www.w3.org/2000/svg" viewBox="0 0 64 64" id="medication-1">
    <title>Medication</title>
    <desc>A solid styled icon from Orion Icon Library.</desc>
    <path data-name="layer2"
    d="M33.715 35.924l18.833 18.8C56.512 52.7 59 49.623 59 46.125 59 39.887 51.094 35 41 35a28.334 28.334 0 0 0-7.285.924zM23 46.125c0 6.238 7.906 11.125 18 11.125a27.624 27.624 0 0 0 8.649-1.324l-18.99-18.954C26 38.963 23 42.285 23 46.125z"
    fill="#2e2c2d"></path>
    <path data-name="layer2" d="M41 59.25c-8.136 0-14.824-2.881-18-7.246v.871C23 59.113 30.906 64 41 64s18-4.887 18-11.125V52c-3.176 4.369-9.864 7.25-18 7.25z"
    fill="#2e2c2d"></path>
    <path data-name="layer1" d="M8.934 45.065a10.081 10.081 0 0 1 0-14.238l10.532-10.533L33.172 34l.027-.009A30.244 30.244 0 0 1 40.891 33l9-9A14.068 14.068 0 0 0 30 4.105L6.105 28a14.1 14.1 0 0 0 0 19.895A14.081 14.081 0 0 0 21 51.089v-4.137a1.99 1.99 0 0 0-.813.171 10.149 10.149 0 0 1-11.253-2.058zm22.6-36.809l1.309-1.306a10.057 10.057 0 0 1 14.207 0 2 2 0 0 1-2.828 2.828 6.054 6.054 0 0 0-8.55 0l-1.3 1.307a2 2 0 1 1-2.83-2.828z"
    fill="#2e2c2d"></path>
  </symbol>
  <symbol xmlns="http://www.w3.org/2000/svg" viewBox="0 0 64 64" id="add-medication-1">
    <title>Add Medication</title>
    <desc>A solid styled icon from Orion Icon Library.</desc>
    <path data-name="layer2"
    d="M47 30a17 17 0 1 0 17 17 17.019 17.019 0 0 0-17-17zm8 19h-6v6a2 2 0 0 1-4 0v-6h-6a2 2 0 0 1 0-4h6v-6a2 2 0 0 1 4 0v6h6a2 2 0 0 1 0 4z"
    fill="#2e2c2d"></path>
    <path data-name="layer1" d="M28 47c0-.223.026-.44.034-.661l-4.287 4.287A11.577 11.577 0 0 1 7.374 34.254L19.4 22.228l12.837 12.837a18.83 18.83 0 0 1 19.237-6.511l1.98-1.98A15.576 15.576 0 0 0 31.426 4.546l-26.88 26.88a15.576 15.576 0 0 0 22.028 22.028l1.98-1.98A18.922 18.922 0 0 1 28 47zm4.686-36.315l1.94-1.939a11.062 11.062 0 0 1 15.628 0 2 2 0 0 1-2.828 2.828 7.062 7.062 0 0 0-9.972 0l-1.94 1.94a2 2 0 1 1-2.828-2.83z"
    fill="#2e2c2d"></path>
  </symbol>
  <symbol xmlns="http://www.w3.org/2000/svg" viewBox="0 0 64 64" id="medical-chart-1">
    <title>Medical Chart</title>
    <desc>A solid styled icon from Orion Icon Library.</desc>
    <path data-name="layer2"
    d="M39 4h-2.1a5 5 0 0 0-9.8 0H25a4.724 4.724 0 0 0-5 5v3h24V9a4.774 4.774 0 0 0-5-5z"
    fill="#2e2c2d"></path>
    <path data-name="layer1" d="M54 5h-9.147A7.208 7.208 0 0 1 46 9h3.5a1.5 1.5 0 0 1 1.5 1.5v47a1.5 1.5 0 0 1-1.5 1.5h-35a1.5 1.5 0 0 1-1.5-1.5v-47A1.5 1.5 0 0 1 14.5 9H18a7.3 7.3 0 0 1 1.113-4H10a2 2 0 0 0-2 2v55a2 2 0 0 0 2 2h44a2 2 0 0 0 2-2V7a2 2 0 0 0-2-2z"
    fill="#2e2c2d"></path>
    <path data-name="layer1" d="M46 11v3H18v-3h-3v46h34V11zM25 26h5v-5h4v5h5v4h-5v5h-4v-5h-5zm18 24H22a1 1 0 0 1 0-2h21a1 1 0 0 1 0 2zm0-7H22a1 1 0 0 1 0-2h21a1 1 0 0 1 0 2z"
    fill="#2e2c2d"></path>
  </symbol>
  <symbol xmlns="http://www.w3.org/2000/svg" viewBox="0 0 64 64" id="health-record-1">
    <title>Health Record</title>
    <desc>A solid styled icon from Orion Icon Library.</desc>
    <path data-name="layer1"
    fill="#2e2c2d" d="M36 24h-4v-4h-4v4h-4v4h4v4h4v-4h4v-4z"></path>
    <path data-name="layer2" d="M57 8h3a2.006 2.006 0 0 1 2 2v6a2.006 2.006 0 0 1-2 2h-3m0 2h2a2.006 2.006 0 0 1 2 2v6a2.006 2.006 0 0 1-2 2h-2zm0 12h2a2.006 2.006 0 0 1 2 2v6a2.006 2.006 0 0 1-2 2h-2zm0 12h2a2.006 2.006 0 0 1 2 2v6a2.006 2.006 0 0 1-2 2h-2z"
    fill="#2e2c2d"></path>
    <path data-name="layer1" d="M48 0H7a2 2 0 0 0-2 2v60a2 2 0 0 0 2 2h41a7.008 7.008 0 0 0 7-7V7a7.008 7.008 0 0 0-7-7zM30 13a13 13 0 1 1-13 13 13 13 0 0 1 13-13zm13 42H18a1 1 0 0 1 0-2h25a1 1 0 0 1 0 2zm0-7H18a1 1 0 0 1 0-2h25a1 1 0 0 1 0 2z"
    fill="#2e2c2d"></path>
  </symbol>
  <symbol xmlns="http://www.w3.org/2000/svg" viewBox="0 0 64 64" id="electronic-medical-record-1">
    <title>Electronic Medical Record</title>
    <desc>A solid styled icon from Orion Icon Library.</desc>
    <path data-name="layer2"
    d="M5 57a1 1 0 0 0 1-1V21a4 4 0 0 1 4-4h46v-2a2 2 0 0 0-2-2H18V9a2 2 0 0 0-2-2H2a2 2 0 0 0-2 2v47a3 3 0 0 0 3 3h2z"
    fill="#2e2c2d"></path>
    <path data-name="layer1" d="M62 19H10a2 2 0 0 0-2 2v35a3 3 0 0 1-3 3h56a3 3 0 0 0 3-3V21a2 2 0 0 0-2-2zM47 42h-8v8h-6v-8h-8v-6h8v-8h6v8h8z"
    fill="#2e2c2d"></path>
  </symbol>
  <symbol xmlns="http://www.w3.org/2000/svg" viewBox="0 0 64 64" id="health-2">
    <title>Health</title>
    <desc>A solid styled icon from Orion Icon Library.</desc>
    <path data-name="layer1"
    d="M57.225 5.821l-25-5.769a1 1 0 0 0-.45 0l-25 5.769A1 1 0 0 0 6 6.8v19.265a41.966 41.966 0 0 0 25.589 37.764 1.046 1.046 0 0 0 .811 0A41.978 41.978 0 0 0 58 26.065V6.8a1 1 0 0 0-.775-.979zM32 43c-8.233-5.778-13-11.556-13-17.334A6.584 6.584 0 0 1 25.5 19a7.009 7.009 0 0 1 6.5 4.444A7.009 7.009 0 0 1 38.5 19a6.584 6.584 0 0 1 6.5 6.666C45 31.444 40.233 37.222 32 43z"
    fill="#2e2c2d"></path>
  </symbol>
  <symbol xmlns="http://www.w3.org/2000/svg" viewBox="0 0 64 64" id="medical-chart-2">
    <title>Medical Chart</title>
    <desc>A solid styled icon from Orion Icon Library.</desc>
    <path data-name="layer2"
    d="M39 4h-2.1a5 5 0 0 0-9.8 0H25a4.724 4.724 0 0 0-5 5v3h24V9a4.774 4.774 0 0 0-5-5z"
    fill="#2e2c2d"></path>
    <path data-name="layer1" d="M54 5h-9.147A7.208 7.208 0 0 1 46 9h3.5a1.5 1.5 0 0 1 1.5 1.5v47a1.5 1.5 0 0 1-1.5 1.5h-35a1.5 1.5 0 0 1-1.5-1.5v-47A1.5 1.5 0 0 1 14.5 9H18a7.3 7.3 0 0 1 1.113-4H10a2 2 0 0 0-2 2v55a2 2 0 0 0 2 2h44a2 2 0 0 0 2-2V7a2 2 0 0 0-2-2z"
    fill="#2e2c2d"></path>
    <path data-name="layer1" d="M18.352 35.041l3.287-4.109a1.457 1.457 0 0 1 1.213-.562 1.488 1.488 0 0 1 1.178.63l3.718 5.2 5.713-9.791a1.5 1.5 0 0 1 2.682.186l5.778 14.032L44.8 34.87a1.491 1.491 0 0 1 1.342-.829H49V11h-3v3H18v-3h-3v24.041z"
    fill="#2e2c2d"></path>
    <path data-name="layer1" d="M46.451 36.041L43.219 42.5a1.5 1.5 0 0 1-1.342.829h-.055a1.482 1.482 0 0 1-1.332-.929l-5.811-14.108-5.593 9.585a1.491 1.491 0 0 1-1.226.742 1.457 1.457 0 0 1-1.291-.628L22.788 32.7l-3.023 3.78a1.49 1.49 0 0 1-1.172.563H15V57h34V36.041z"
    fill="#2e2c2d"></path>
  </symbol>
  <symbol xmlns="http://www.w3.org/2000/svg" viewBox="0 0 64 64" id="blood-pressure-monitor-1">
    <title>Blood Pressure Monitor</title>
    <desc>A solid styled icon from Orion Icon Library.</desc>
    <rect data-name="layer1"
    x="45" width="19" height="45" rx="5" ry="5" fill="#2e2c2d"></rect>
    <path data-name="layer2" d="M30 32a10 10 0 1 0 10 10 10 10 0 0 0-10-10zm4.447 7.2l-2.7 4.491-.288.2-4.259 2.555a1.2 1.2 0 0 1-1.647-1.646l2.7-4.491.288-.2 4.264-2.56a1.2 1.2 0 0 1 1.642 1.651z"
    fill="#2e2c2d"></path>
    <path data-name="layer1" d="M22 5v6h-4.5A9.511 9.511 0 0 0 8 20.5V39H7a2 2 0 0 0-2 2v1.692A10.381 10.381 0 0 0 1 51a10.026 10.026 0 0 0 5.57 9.237.708.708 0 0 1 .43.641A3.272 3.272 0 0 0 10 64a3.007 3.007 0 0 0 3-3v-.122a.708.708 0 0 1 .43-.641A10.026 10.026 0 0 0 19 51a10.381 10.381 0 0 0-4-8.308V41a2 2 0 0 0-2-2h-2V20.5a6.508 6.508 0 0 1 6.5-6.5H22v19.081A11.98 11.98 0 0 1 42 42c0 .338-.023.669-.051 1H43V2H25a3 3 0 0 0-3 3z"
    fill="#2e2c2d"></path>
  </symbol>
  <symbol xmlns="http://www.w3.org/2000/svg" viewBox="0 0 64 64" id="liver-1">
    <title>Liver</title>
    <desc>A solid styled icon from Orion Icon Library.</desc>
    <path data-name="layer2"
    d="M20.022 10C9.926 10 0 14.887 0 25.979 0 36.632 1.923 44.418 2.046 48.35s.114 9.569 6.421 8.522c6.42-1.065 5.247-11.222 17.12-13.849 9.63-2.131 11.672-3.9 11.8-7.1s.212-17.283-3.235-20.6A20.832 20.832 0 0 0 20.022 10z"
    fill="#2e2c2d"></path>
    <path data-name="layer1" d="M50.2 13.2c-6.594 0-11.06 1.3-13.061 3.162C39.8 22.431 39.44 34.447 39.38 36a6.8 6.8 0 0 1-.633 2.705c2.862.4 7.379-.156 10.379-3.142 4.28-4.261 7.391-12.4 11.77-13.849 3.21-1.061 7.958-8.514-10.696-8.514z"
    fill="#2e2c2d"></path>
  </symbol>
  <symbol xmlns="http://www.w3.org/2000/svg" viewBox="0 0 64 64" id="stomach-1">
    <title>Stomach</title>
    <desc>A solid styled icon from Orion Icon Library.</desc>
    <path data-name="layer2"
    d="M10.241 62.073a1.991 1.991 0 0 0 1.492-2.873C9.434 54.739 8.026 47.238 12 47c4.83-.29 5.88 13.724 20 15s32-7.465 32-27c0-20-12.408-25-19-25-8.729 0-13.929 8.522-13 18s2.137 13.838-5.481 13.838S19.246 37 12 37c-7.06 0-16.726 7.885-8.674 24.658a2.016 2.016 0 0 0 2.108 1.129z"
    fill="#2e2c2d"></path>
    <path data-name="layer1" d="M34.578 12.61a21.915 21.915 0 0 1-4.568-9.327 1 1 0 0 0-1.215-.739l-6.859 1.714a1 1 0 0 0-.736 1.185 48.759 48.759 0 0 0 8.833 17.929 18.8 18.8 0 0 1 4.527-10.743z"
    fill="#2e2c2d"></path>
  </symbol>
</svg>