<svg xmlns="http://www.w3.org/2000/svg" viewBox="0 0 64 64" aria-labelledby="title"
aria-describedby="desc" role="img" xmlns:xlink="http://www.w3.org/1999/xlink"
width="64" height="64">
  <title>Alcohol Bottle</title>
  <desc>A solid styled icon from Orion Icon Library.</desc>
  <path data-name="layer2"
  d="M37 2a1 1 0 0 0-1-1h-8a1 1 0 0 0-1 1v8h10z" fill="#2e2c2d"></path>
  <path data-name="layer1" d="M40.1 24.9C38.5 23.1 37 21.4 37 20v-6H27v6c0 1.4-1.5 3.1-3.1 4.9S19 30.3 19 34v25c0 3.5 4.3 4 8 4h10c2 0 8 0 8-4V34c0-3.7-2.6-6.6-4.9-9.1zm.8 29.1h-18V42h18z"
  fill="#2e2c2d"></path>
</svg>