<svg viewBox="0 0 64 64" xmlns="http://www.w3.org/2000/svg"><path d="m59 5a16 16 0 0 0 -26.2 5.5l-11.9 29.8-3.9 3.9a5 5 0 0 0 -5.4 1.1l-9.8 9.9a5 5 0 0 0 7.1 7.1l9.9-9.9a5 5 0 0 0 1.1-5.4l3.8-3.8 29.8-12a16 16 0 0 0 5.5-26.2zm-7 15.5a21.2 21.2 0 0 1 -4.1 3.2l-12.2 7.4 21.4-21.3c.3 2.7-1.3 6.9-5.1 10.7zm1.5-13.6h.7l-21.3 21.4 7.4-12.1a21 21 0 0 1 3.2-4.1c3.2-3.2 7-5.2 10-5.2zm-17 5.1a12 12 0 0 1 11.2-7.7 24 24 0 0 0 -7 4.9 25 25 0 0 0 -3.8 4.9l-3.4 5.6zm19.7 12.8a11.9 11.9 0 0 1 -4.2 2.7l-7.7 3.1 5.6-3.4a25.1 25.1 0 0 0 4.9-3.8 23.8 23.8 0 0 0 4.9-7 12 12 0 0 1 -3.5 8.4z" fill="#2e2c2d"/></svg>