<svg viewBox="0 0 64 64" xmlns="http://www.w3.org/2000/svg"><g fill="#2e2c2d"><path d="m62 56.5h-60a2 2 0 0 0 0 4h60a2 2 0 0 0 0-4zm-46-44a3 3 0 0 0 2.9-2.1 2.6 2.6 0 0 0 .1-.9 7.3 7.3 0 0 0 -3-6s-3 2.7-3 6a3 3 0 0 0 3 3zm16 0a3 3 0 0 0 2.9-2.1 2.6 2.6 0 0 0 .1-.9 7.3 7.3 0 0 0 -3-6s-3 2.7-3 6a3 3 0 0 0 3 3zm16 0a3 3 0 0 0 2.9-2.1 2.6 2.6 0 0 0 .1-.9 7.3 7.3 0 0 0 -3-6s-3 2.7-3 6a3 3 0 0 0 3 3zm-40 21a5 5 0 0 0 5 5c2.4 0 5-1.1 5-4a2 2 0 0 1 2-2 2 2 0 0 1 2 2c0 2.9 2.6 4 5 4s5-1.1 5-4a2 2 0 1 1 4 0c0 2.9 2.6 4 5 4s5-1.1 5-4a2 2 0 1 1 4 0c0 2.9 2.6 4 5 4a4.9 4.9 0 0 0 2.1-.5l.9-.2 1-.7v-8.6a3 3 0 0 0 -3-3h-6v-9a2 2 0 1 0 -4 0v9h-12v-9a2 2 0 1 0 -4 0v9h-12v-9a2 2 0 1 0 -4 0v9h-6a3 3 0 0 0 -3 3v3.3a2 2 0 0 1 1-.3 2 2 0 0 1 2 2z"/><path d="m59 41.8a10.8 10.8 0 0 1 -4 .7 9.4 9.4 0 0 1 -7-2.7 9.4 9.4 0 0 1 -7 2.7 9.4 9.4 0 0 1 -7-2.7 9.4 9.4 0 0 1 -7 2.7 9.4 9.4 0 0 1 -7-2.7 9.4 9.4 0 0 1 -7 2.7 9 9 0 0 1 -6.7-3l-1.3 1.1v11.9h54z"/></g></svg>