<svg viewBox="0 0 64 64" xmlns="http://www.w3.org/2000/svg"><g fill="#2e2c2d"><path d="m15.6 4.5h26a2 2 0 0 0 0-4h-26a2 2 0 0 0 0 4z"/><path d="m44.6 12.5h-.2l.3-6h-32.2l2 35h28.2v-1h1.8a10 10 0 0 0 10-10v-8a10 10 0 0 0 -9.9-10zm-4.1-2-.6 10h-22.6l-.6-10zm10.1 20a6 6 0 0 1 -6 6h-1.6l1.1-20h.4a6 6 0 0 1 6 6z"/><circle cx="28.6" cy="54.5" r="2"/><path d="m44.4 45.5h-31.6l-3.1 12.6a4.5 4.5 0 0 0 .5 3.9 4.1 4.1 0 0 0 3.4 1.4h30a4.2 4.2 0 0 0 3.4-1.4 4.1 4.1 0 0 0 .5-3.7zm-15.8 15a6 6 0 1 1 6-6 6 6 0 0 1 -6 6z"/></g></svg>