<svg viewBox="0 0 64 64" xmlns="http://www.w3.org/2000/svg"><g fill="#2e2c2d"><path d="m56 60h-15.7a14.1 14.1 0 0 0 4.5-8h1.2a8 8 0 0 0 0-16h-1v-1h-28v15a13.7 13.7 0 0 0 4.6 10h-13.6a2 2 0 0 0 0 4h48a2 2 0 0 0 0-4zm-10-20a4 4 0 0 1 0 8h-1v-8z"/><path d="m36 32a2 2 0 0 0 2-2c0-5.3 2.7-9 5.6-12.8s6.4-8.5 6.4-15.2a2 2 0 1 0 -4 0c0 5.3-2.7 9-5.6 12.8s-6.4 8.5-6.4 15.2a2 2 0 0 0 2 2zm-10 0a2 2 0 0 0 2-2c0-2.6 1.4-4.5 2.8-6.5s3.2-4.4 3.2-7.5a2 2 0 1 0 -4 0c0 1.8-1.1 3.4-2.4 5.2s-3.6 5-3.6 8.8a2 2 0 0 0 2 2z"/></g></svg>