<svg viewBox="0 0 64 64" xmlns="http://www.w3.org/2000/svg"><g fill="#2e2c2d"><path d="m44 22h8a6 6 0 0 0 0-12h-2v-8a2 2 0 0 0 -4 0v8h-2a6 6 0 1 0 0 12z"/><path d="m46 29.9v4.1h-2a6 6 0 0 0 0 12h8a6 6 0 1 0 0-12h-2v-4.1c5.1-.7 9.8-3.8 11.7-8a2 2 0 0 0 -3.6-1.7c-1.5 3.3-5.9 5.8-10.1 5.8s-8.6-2.5-10.1-5.8a2 2 0 1 0 -3.6 1.7c1.9 4.1 6.6 7.3 11.7 8z"/><path d="m60.7 43.2a2 2 0 0 0 -2.7 1c-1.4 3.3-5.8 5.8-10 5.8s-8.6-2.5-10.1-5.8a2 2 0 1 0 -3.6 1.7c1.9 4.2 6.7 7.3 11.7 8v8.1a2 2 0 1 0 4 0v-8.1c5.1-.7 9.8-3.8 11.7-8a2 2 0 0 0 -1-2.7z"/><path d="m12 22h8a6 6 0 0 0 0-12h-2v-8a2 2 0 0 0 -4 0v8h-2a6 6 0 0 0 0 12z"/><path d="m28.7 19.2a2 2 0 0 0 -2.7 1c-1.4 3.3-5.8 5.8-10 5.8s-8.6-2.5-10.1-5.8a2 2 0 0 0 -3.6 1.7c1.9 4.2 6.7 7.3 11.7 8v4.1h-2a6 6 0 0 0 0 12h8a6 6 0 0 0 0-12h-2v-4.1c5.1-.7 9.8-3.8 11.7-8a2 2 0 0 0 -1-2.7z"/><path d="m28.7 43.2a2 2 0 0 0 -2.7 1c-1.4 3.3-5.8 5.8-10 5.8s-8.6-2.5-10.1-5.8a2 2 0 1 0 -3.6 1.7c1.9 4.2 6.7 7.3 11.7 8v8.1a2 2 0 0 0 4 0v-8.1c5.1-.7 9.8-3.8 11.7-8a2 2 0 0 0 -1-2.7z"/></g></svg>