<svg viewBox="0 0 64 64" xmlns="http://www.w3.org/2000/svg"><g fill="#2e2c2d"><path d="m19 16a2 2 0 0 0 2 2h21.966a2 2 0 0 0 0-4h-6.948a3 3 0 1 0 -.039 0h-8.151l-5.412-5.414a2 2 0 0 0 -2.828 2.828l2.583 2.586h-1.171a2 2 0 0 0 -2 2z"/><circle cx="33.999" cy="2.999" r="3"/><circle cx="42.001" cy="6.999" r="3"/><path d="m45.379 22h-26.758s-1.175.8-1.546 1.092a2.518 2.518 0 0 0 -1.075 1.908v32.937a2.983 2.983 0 0 0 .731 2.08c.146.146.982.909 1.808 1.663.772.7 1.533 1.4 1.72 1.584a2.016 2.016 0 0 0 1.492.736h20.5a2.1 2.1 0 0 0 1.551-.8c.128-.128.89-.821 1.661-1.524.825-.754 1.662-1.518 1.808-1.663a2.983 2.983 0 0 0 .729-2.076v-32.937a2.518 2.518 0 0 0 -1.075-1.914c-.371-.286-1.546-1.086-1.546-1.086zm-1.4 19.629c-1.132 1.047-5.292 2.711-9.111 3.94-5.964 1.92-11.046 3.882-14.888 6.486v-14.055c0-3.114 10.134-6.7 16.115-8.626a63.5 63.5 0 0 0 7.741-3.108l.076.068c.021.02.043.037.065.057z"/></g></svg>