<svg viewBox="0 0 64 64" xmlns="http://www.w3.org/2000/svg"><g fill="#2e2c2d"><path d="m61.2 24.1a2 2 0 0 0 -2.6 1.1l-7.9 19.8h-24.2a1 1 0 0 0 -1 1.1 18 18 0 0 0 35.9 0 1 1 0 0 0 -1-1.1h-5.3l7.3-18.3a2 2 0 0 0 -1.2-2.6z"/><path d="m50.4 35.2a9 9 0 0 0 -13.6 2.2 6.7 6.7 0 0 0 -2.3-.4 7 7 0 0 0 -6.3 4h19.8z"/><path d="m7.5 20.3 36-8.7v-1.8l5.4-5.4a2 2 0 0 0 -2.8-2.8l-5.4 5.4h-30.4l-5.4-5.4a2 2 0 1 0 -2.8 2.8l5.4 5.4z"/><path d="m43.5 29v-13.3l-36 8.7v14.1l30-7.4a13 13 0 0 1 6-2.1z"/><path d="m22.9 42.6.2-.2 1.5-3.1.6-1-17.7 4.3v15.4a1 1 0 0 0 1 1h18a21.9 21.9 0 0 1 -5-12.7 5 5 0 0 1 1.4-3.7z"/></g></svg>