<svg xmlns="http://www.w3.org/2000/svg" viewBox="0 0 64 64" aria-labelledby="title"
aria-describedby="desc" role="img" xmlns:xlink="http://www.w3.org/1999/xlink"
width="64" height="64">
  <title>Chef Hat</title>
  <desc>A solid styled icon from Orion Icon Library.</desc>
  <path data-name="layer2"
  d="M18 28v22h6V38a2 2 0 1 1 4 0v12h6V34a2 2 0 1 1 4 0v16h8V28a10 10 0 1 0-3.3-19.4 12 12 0 0 0-21.4 0A9.9 9.9 0 0 0 18 8a10 10 0 0 0 0 20z"
  fill="#2e2c2d"></path>
  <path data-name="layer1" fill="#2e2c2d" d="M18 54h28v8H18z"></path>
</svg>