<svg viewBox="0 0 64 64" xmlns="http://www.w3.org/2000/svg"><g fill="#2e2c2d"><path d="m62.2 24.8-5.6-5.6-6.3 6.3 6.3 6.3 5.6-5.6a1 1 0 0 0 0-1.4zm-29.968.708 6.152-6.152 6.173 6.173-6.152 6.152zm9.098 9.029 6.153-6.152 6.293 6.293-6.152 6.152zm-18.096-18.2 6.151-6.152 6.294 6.293-6.152 6.152zm18.098.143 6.294-6.294 6.173 6.173-6.294 6.294zm3.468-9.08-5.6-5.6a1 1 0 0 0 -1.4 0l-5.6 5.6 6.3 6.3z"/><path d="m22.8 31.5v-9.9l-2.4-2.4-18.6 18.6a1 1 0 0 0 0 1.4l23 23a1 1 0 0 0 1.4 0l18.6-18.6-7.2-7.2z"/></g></svg>