<svg viewBox="0 0 64 64" xmlns="http://www.w3.org/2000/svg"><path d="m61.9 32.3-1-2.6a15.9 15.9 0 0 1 -.9-2.6 7.5 7.5 0 0 1 2.9-2.3 2 2 0 0 0 -.9-3.8h-42.6a2 2 0 0 0 -1.3.5 27.9 27.9 0 0 0 -10 19.5c-2.2-.3-4.1-1.6-4.1-6s7.3-14.4 10.8-18h41.2a2 2 0 0 0 0-4h-35.2l-5.4-5.4a2 2 0 1 0 -2.8 2.8l2.6 2.6h-2l-.6.6c-1.3 1.2-12.6 12.6-12.6 21.4 0 4.2 1.5 9.2 8.1 10a27.6 27.6 0 0 0 3.1 10.9 2 2 0 0 0 1.7 1.1h46.2a2 2 0 0 0 1.8-1.1 27.9 27.9 0 0 0 1-23.6zm-41.8-7.3h36.5a4 4 0 0 0 -.6 2 12.2 12.2 0 0 0 1.2 4.2l.7 1.8h-43.7a24 24 0 0 1 5.9-8z" fill="#2e2c2d"/></svg>