<svg viewBox="0 0 64 64" xmlns="http://www.w3.org/2000/svg"><path d="m60 19h-4.1c.1-.7.1-1.3.1-2h-48c0 .7 0 1.3.1 2h-4.1a2 2 0 0 0 0 4h4.7a24 24 0 0 0 23.3 18 10 10 0 0 0 -9.1 6h18.2a10 10 0 0 0 -9.1-6 24 24 0 0 0 23.3-18h4.7a2 2 0 0 0 0-4zm-24 2a2 2 0 1 1 -2 2 2 2 0 0 1 2-2zm-8 0a2 2 0 1 1 -2 2 2 2 0 0 1 2-2zm-8 4a2 2 0 1 1 2-2 2 2 0 0 1 -2 2zm4 6a2 2 0 1 1 2-2 2 2 0 0 1 -2 2zm4 6a2 2 0 1 1 2-2 2 2 0 0 1 -2 2zm4-6a2 2 0 1 1 2-2 2 2 0 0 1 -2 2zm4 6a2 2 0 1 1 2-2 2 2 0 0 1 -2 2zm4-6a2 2 0 1 1 2-2 2 2 0 0 1 -2 2zm4-6a2 2 0 1 1 2-2 2 2 0 0 1 -2 2z" fill="#2e2c2d"/></svg>