<svg xmlns="http://www.w3.org/2000/svg" viewBox="0 0 64 64" aria-labelledby="title"
aria-describedby="desc" role="img" xmlns:xlink="http://www.w3.org/1999/xlink"
width="64" height="64">
  <title>Condiment</title>
  <desc>A solid styled icon from Orion Icon Library.</desc>
  <path data-name="layer2"
  d="M55.9 11.7a1 1 0 0 0-1-.7h-2.1l-2.4-9.2a1 1 0 0 0-1-.8h-2.7a1 1 0 0 0-1 .7L43.2 11h-2.1a1 1 0 0 0-1 .7L38 18.4h19.9zM60 22.4H36a3.9 3.9 0 0 0-1 2.6v34a4 4 0 0 0 4 4h18a4 4 0 0 0 4-4V25a3.9 3.9 0 0 0-1-2.6z"
  fill="#2e2c2d"></path>
  <path data-name="layer1" d="M23.9 11.7a1 1 0 0 0-1-.7h-2.1l-2.4-9.2a1 1 0 0 0-1-.8h-2.7a1 1 0 0 0-1 .7L11.2 11H9.1a1 1 0 0 0-1 .7l-2 6.7h19.8zM4 22.4A3.9 3.9 0 0 0 3 25v34a4 4 0 0 0 4 4h18a4 4 0 0 0 4-4V25a3.9 3.9 0 0 0-1-2.6z"
  fill="#2e2c2d"></path>
</svg>