<svg viewBox="0 0 64 64" xmlns="http://www.w3.org/2000/svg"><g fill="#2e2c2d"><path d="m55.9 11.7a1 1 0 0 0 -1-.7h-2.1l-2.4-9.2a1 1 0 0 0 -1-.8h-2.7a1 1 0 0 0 -1 .7l-2.5 9.3h-2.1a1 1 0 0 0 -1 .7l-2.1 6.7h19.9zm4.1 10.7h-24a3.9 3.9 0 0 0 -1 2.6v34a4 4 0 0 0 4 4h18a4 4 0 0 0 4-4v-34a3.9 3.9 0 0 0 -1-2.6z"/><path d="m23.9 11.7a1 1 0 0 0 -1-.7h-2.1l-2.4-9.2a1 1 0 0 0 -1-.8h-2.7a1 1 0 0 0 -1 .7l-2.5 9.3h-2.1a1 1 0 0 0 -1 .7l-2 6.7h19.8zm-19.9 10.7a3.9 3.9 0 0 0 -1 2.6v34a4 4 0 0 0 4 4h18a4 4 0 0 0 4-4v-34a3.9 3.9 0 0 0 -1-2.6z"/></g></svg>