<svg xmlns="http://www.w3.org/2000/svg" viewBox="0 0 64 64" aria-labelledby="title"
aria-describedby="desc" role="img" xmlns:xlink="http://www.w3.org/1999/xlink"
width="64" height="64">
  <title>Cooking Pot</title>
  <desc>A solid styled icon from Orion Icon Library.</desc>
  <path data-name="layer2"
  d="M54 24.3c-5.5-4.1-11.3-6.8-18.2-7.5a4 4 0 1 0-7.6 0 36.9 36.9 0 0 0-18.3 7.5z"
  fill="#2e2c2d"></path>
  <path data-name="layer1" d="M61 26.3a6 6 0 0 0-5.6 4H54v-2H10v2H8.7a6 6 0 0 0-5.6-4 2 2 0 0 0 0 4 2 2 0 0 1 2 2 2 2 0 0 0 2 2h3v6a12 12 0 0 0 12 12H42a12 12 0 0 0 12-12v-6h3a2 2 0 0 0 2-2 2 2 0 0 1 2-2 2 2 0 0 0 0-4z"
  fill="#2e2c2d"></path>
</svg>