<svg viewBox="0 0 64 64" xmlns="http://www.w3.org/2000/svg"><g fill="#2e2c2d"><path d="m38.4 14.7 14.5-4.2a29.8 29.8 0 0 0 -17.1-8.3c-4.7-.5-7.3 2.9-6.7 4.3s5.9 3.4 9.3 8.2zm-27.7 38.4 4.2-15c-4.5-3.5-7.2-9-8.5-9s-4.5 3.8-4.3 6.6a29.8 29.8 0 0 0 8.5 17.4z"/><path d="m40.4 18.3a11.7 11.7 0 0 1 0 8.1l21.4 7.6a29.9 29.9 0 0 0 -6-20.2z"/><path d="m38.6 30a28.4 28.4 0 0 1 -3.9 4.8 28.4 28.4 0 0 1 -4.7 3.8l8.2 22.6a30 30 0 0 0 23-23.1z"/><path d="m26.4 40.4a10.9 10.9 0 0 1 -7.9-.2l-4.5 15.8a29.9 29.9 0 0 0 20.1 5.8z"/></g></svg>