<svg viewBox="0 0 64 64" xmlns="http://www.w3.org/2000/svg"><g fill="#2e2c2d"><circle cx="33" cy="33.99" r="8"/><path d="m33 14.99a19 19 0 1 0 19 19 19 19 0 0 0 -19-19zm0 31a12 12 0 1 1 12-12 12 12 0 0 1 -12 12z"/><path d="m16 20.056v-7.056a2 2 0 0 0 -4 0v7.057a2.6 2.6 0 0 1 -2 2.657v-9.714a2 2 0 0 0 -4 0v9.63a3.381 3.381 0 0 1 -2-2.2v-7.43a2 2 0 1 0 -4 0v7.428c0 2.328 2.12 5.555 6 6.372v24.2a2 2 0 0 0 4 0v-24.191c3.7-.674 6-3.172 6-6.753zm41.626-8.223a2 2 0 0 0 -3.626 1.167v38a2 2 0 0 0 4 0v-14h4a2 2 0 0 0 2-2c0-14.114-6.113-22.8-6.374-23.167z"/></g></svg>