<svg xmlns="http://www.w3.org/2000/svg" viewBox="0 0 64 64" aria-labelledby="title"
aria-describedby="desc" role="img" xmlns:xlink="http://www.w3.org/1999/xlink"
width="64" height="64">
  <title>Dome Plate Cover</title>
  <desc>A solid styled icon from Orion Icon Library.</desc>
  <path data-name="layer2"
  d="M61 42.5H3a2 2 0 0 0 0 4h1.8l1.2 3c.8 1.7 2.3 3 4 3h44a4.2 4.2 0 0 0 4-3l1.2-3H61a2 2 0 0 0 0-4z"
  fill="#2e2c2d"></path>
  <path data-name="layer1" d="M35.8 16.8a4 4 0 1 0-7.6 0A26 26 0 0 0 6.3 38.5h51.4a26 26 0 0 0-21.9-21.7z"
  fill="#2e2c2d"></path>
</svg>