<svg viewBox="0 0 64 64" xmlns="http://www.w3.org/2000/svg"><path d="m58.5 24.9-5-16.1a10.5 10.5 0 0 0 -10.5-7.8h-38v32h8v6c0 .8-1.3 3.6-2.3 5.6a47.4 47.4 0 0 0 -3.4 8.5v.6a7.8 7.8 0 0 0 -.2 1.3 8 8 0 0 0 2.5 5.9 2 2 0 0 0 2.7-2.9 4 4 0 0 1 -1.2-3 4.2 4.2 0 0 1 .1-.6v-.4a46.1 46.1 0 0 1 3.1-7.7c1.8-3.7 2.7-5.8 2.7-7.3v-6h4v6h-.1c0 .8-1.3 3.6-2.3 5.6a47.4 47.4 0 0 0 -3.4 8.5v.6a7.8 7.8 0 0 0 -.2 1.3 8 8 0 0 0 16 0 7.5 7.5 0 0 0 -.1-1.2v-.8a48.3 48.3 0 0 0 -3.5-8.5 47.5 47.5 0 0 1 -2.4-5.1v-6.4h28c4 0 7.1-2.9 5.5-8.1zm-39.5 30.1a4.2 4.2 0 0 1 .1-.6v-.4a29.3 29.3 0 0 1 1.9-5v9.4a4 4 0 0 1 -2-3.4zm7.9-1v.4a3.9 3.9 0 0 1 .1.6 4 4 0 0 1 -2 3.4v-9.3a28.9 28.9 0 0 1 1.9 4.9zm-12.9-27a3 3 0 1 1 3-3 3 3 0 0 1 -3 3zm0-8a3 3 0 1 1 3-3 3 3 0 0 1 -3 3zm26-2h-14a5 5 0 0 1 0-10h14a5 5 0 1 1 0 10z" fill="#2e2c2d"/></svg>