<svg viewBox="0 0 64 64" xmlns="http://www.w3.org/2000/svg"><path d="m47 1h-26a1 1 0 0 0 -1 1 10 10 0 0 0 2.5 6.6 8.7 8.7 0 0 0 6.5 2.4h10c2.1 0 3 .9 3 2.9v7.1h-25a11 11 0 0 0 -11 11v4a1 1 0 0 0 1 1h10v8.3a8 8 0 0 0 -6 7.7v2a8 8 0 1 0 16 0v-2a8 8 0 0 0 -6-7.7v-8.3h16v8.3a8 8 0 0 0 -6 7.7v2a8 8 0 1 0 16 0v-2a8 8 0 0 0 -6-7.7v-8.3h16a1 1 0 0 0 1-1v-24a11 11 0 0 0 -11-11zm-32 54v-2a4 4 0 0 1 2-3.4v8.9a4 4 0 0 1 -2-3.5zm8-2v2a4 4 0 0 1 -2 3.4v-8.8a4 4 0 0 1 2 3.4zm12 2v-2a4 4 0 0 1 2-3.4v8.9a4 4 0 0 1 -2-3.5zm8-2v2a4 4 0 0 1 -2 3.4v-8.8a4 4 0 0 1 2 3.4z" fill="#2e2c2d"/></svg>