<svg viewBox="0 0 64 64" xmlns="http://www.w3.org/2000/svg"><g fill="#2e2c2d"><path d="m62.9 33.7c-2.2-6.8-13.1-16.7-26.9-16.7a28.7 28.7 0 0 0 -24 12.9c-4.1-6.9-9.4-8.8-9.7-8.8a1 1 0 0 0 -1.3.9v20a1 1 0 0 0 1.3.9c.3 0 5.7-1.9 9.7-8.9 3.7 5.3 13.3 13 24 13s24.8-6.3 26.9-12.7a1 1 0 0 0 0-.6zm-13.9.3a3 3 0 1 1 3-3 3 3 0 0 1 -3 3z"/><path d="m41.5 13.5-8.8-8.2a1 1 0 0 0 -1.7.7v7.4a32.8 32.8 0 0 1 10.5.1zm-12.5 36.6v7.9a1 1 0 0 0 .6.9h.4l.6-.2 10.4-8.1a38.4 38.4 0 0 1 -5 .4 28.4 28.4 0 0 1 -7-.9z"/></g></svg>