<svg viewBox="0 0 64 64" xmlns="http://www.w3.org/2000/svg"><g fill="#2e2c2d"><path d="m14 43h24c12 0 22 .6 22-10 0-8.4-4.5-15.7-15.9-18.6 1.9 3.3 3.6 7.2 3.9 10.4a2 2 0 0 1 -1.8 2.2h-.2a2 2 0 0 1 -2-1.8c-.3-3.5-3-8.6-5.3-11.8l-5.6-.4c2.4 3.5 4.5 8.2 4.9 11.8a2 2 0 0 1 -1.8 2.2h-.2a2 2 0 0 1 -2-1.8c-.4-4-3.5-9.5-5.8-12a35.6 35.6 0 0 0 -6.5 1.2c3 3.1 6.3 7.8 6.3 12.6a2 2 0 1 1 -4 0c0-4.3-3.9-8.8-6.6-11.1-9.5 4.3-13.4 12.5-13.4 17.1 0 7.4 7 10 10 10z"/><path d="m62 47h-60a2 2 0 0 0 0 4h60a2 2 0 0 0 0-4z"/></g></svg>