<svg viewBox="0 0 64 64" xmlns="http://www.w3.org/2000/svg"><g fill="#2e2c2d"><path d="m10 40h-8a1 1 0 0 0 -1 1v18a1 1 0 0 0 .8 1l8 2h.2l.6-.2a1 1 0 0 0 .4-.8v-20a1 1 0 0 0 -1-1zm51-11h-50a2 2 0 0 0 0 4h2l.7 1.4a4.2 4.2 0 0 0 3.5 2.6h37.6a3.7 3.7 0 0 0 3.5-2.6l.7-1.4h2a2 2 0 0 0 0-4z"/><path d="m39.8 7.3a4 4 0 1 0 -7.5 0 22 22 0 0 0 -17.9 17.7h43.2a22 22 0 0 0 -17.8-17.7zm13.6 45.7h-25.6a2 2 0 0 1 0-4h8.5c-3.6-6-19.5-6-21.3-6v14a39.2 39.2 0 0 0 10.6 2h28.8c3.6 0 2.7-3.2 1.9-4a10.4 10.4 0 0 0 -2.9-2z"/></g></svg>