<svg viewBox="0 0 64 64" xmlns="http://www.w3.org/2000/svg"><path d="m32 2a30 30 0 1 0 26.5 44l.2-.3a30 30 0 0 0 -26.7-43.7zm14.8 31.9a2 2 0 0 1 2-2 2 2 0 0 1 2 2v3.7a2 2 0 0 1 -2 2 2 2 0 0 1 -2-2zm-8.7-16.4 3.7-3.7a2 2 0 0 1 2.8 2.8l-3.7 3.7a2 2 0 0 1 -2.8-2.8zm3.9 14.4a10 10 0 1 1 -10-10 10 10 0 0 1 10 10zm-15.6-22.4h7.5a2 2 0 0 1 0 4h-7.5a2 2 0 0 1 0-4zm-8.9 4.3a2 2 0 0 1 2.8 0l3.7 3.7a2 2 0 1 1 -2.8 2.8l-3.7-3.7a2 2 0 0 1 0-2.8zm-7.4 17.7a2 2 0 0 1 0-2.8l3.7-3.7a2 2 0 0 1 2.8 2.8l-3.7 3.7a2 2 0 0 1 -2.8 0zm1.3 6.1a2 2 0 0 1 2-2h3.7a2 2 0 0 1 0 4h-3.8a2 2 0 0 1 -2-2zm20.6 20.4a25.9 25.9 0 0 1 -17.7-6.9 17.3 17.3 0 0 0 2.6-4.9v-.3a1.3 1.3 0 0 1 1.5-.5c.2.1.5.2.3 1.1a6.6 6.6 0 0 0 1.8 6.9 6.2 6.2 0 0 0 4 1.5 5.8 5.8 0 0 0 2.3-.5 16.2 16.2 0 0 0 2.2-1.2 2.6 2.6 0 0 1 2.5-.5c1.8.3 6.7 1.2 9.4-3.2h.1l.3.2a9.9 9.9 0 0 0 3.1 1.2c2.2.4 3.6-1.2 4.7-2.4s2.3-2.6 4.5-2.3a26 26 0 0 1 -21.6 11.8zm22.3-30.7a2 2 0 0 1 -1.8 1.1l-.9-.2-3.7-1.9a2 2 0 1 1 1.8-3.6l3.7 1.9a2 2 0 0 1 .9 2.7z" fill="#2e2c2d"/></svg>