<svg xmlns="http://www.w3.org/2000/svg" viewBox="0 0 64 64" aria-labelledby="title"
aria-describedby="desc" role="img" xmlns:xlink="http://www.w3.org/1999/xlink"
width="64" height="64">
  <title>Grape</title>
  <desc>A solid styled icon from Orion Icon Library.</desc>
  <path data-name="layer2"
  d="M28 18.5c0-10.3-6.2-14-18-14 0 12 7.5 14 18 14zm26-14c-11.8 0-18 3.7-18 14 10.5 0 18-2 18-14z"
  fill="#2e2c2d"></path>
  <circle data-name="layer1" cx="16" cy="30.5" r="7" fill="#2e2c2d"></circle>
  <path data-name="layer1" d="M25 28.5a7 7 0 1 0 9-6.7V2.5a2 2 0 1 0-4 0v19.3a7 7 0 0 0-5 6.7z"
  fill="#2e2c2d"></path>
  <circle data-name="layer1" cx="48" cy="30.5" r="7" fill="#2e2c2d"></circle>
  <circle data-name="layer1" cx="24" cy="42.5" r="7" fill="#2e2c2d"></circle>
  <circle data-name="layer1" cx="40" cy="42.5" r="7" fill="#2e2c2d"></circle>
  <circle data-name="layer1" cx="32" cy="56.5" r="7" fill="#2e2c2d"></circle>
</svg>