<svg viewBox="0 0 64 64" xmlns="http://www.w3.org/2000/svg"><g fill="#2e2c2d"><path d="m52.8 11.2c-9.7-9.7-22.5-12.6-28.6-6.5s-3.1 18.8 6.6 28.6 22.5 12.7 28.6 6.6 3.1-19-6.6-28.7zm-5.9 16.1c-2 2-6 1.4-8.8-1.5s-3.5-6.8-1.5-8.8 6-1.4 8.8 1.5 3.5 6.8 1.5 8.8z"/><path d="m17.7 18.5a24.7 24.7 0 0 1 -.6-4.2c-3.5 6.2-5.9 14.2-4.6 22.6 0 0 1 4.9 0 5.9a4.1 4.1 0 0 0 0 5.9l2.9 2.9a4.1 4.1 0 0 0 5.9 0c1-1 5.9 0 5.9 0 8.5 1.3 16.4-1.1 22.7-4.6-7.4-.5-15.4-4.5-21.9-11a37.6 37.6 0 0 1 -10.3-17.5z"/><path d="m12.6 54.3-2.9-2.9a8.1 8.1 0 0 1 -1.5-2.2 4.1 4.1 0 0 0 -5.4 6.2c2.1 2.1 2.9 1.5 3.7 2.2s.4 1.9 2.2 3.7a4.1 4.1 0 0 0 6.2-5.4 8.1 8.1 0 0 1 -2.3-1.6z"/></g></svg>