<svg viewBox="0 0 64 64" xmlns="http://www.w3.org/2000/svg"><g fill="#2e2c2d"><path d="m56 26h-48c-2 0-9.6 5.4-4 9 3.3 1.9 6.7-2.8 8-2.8s6 3.8 12 3.8 9.1-4 12-4 5.1 4 8 4 4.8-2 8-2 9.2 1.9 10-2-6-6-6-6z"/><path d="m62 39a5 5 0 0 0 -.2-1.3 10.5 10.5 0 0 1 -4 .7l-3.7-.3-2.1-.1a7.3 7.3 0 0 0 -2.7.7 13.6 13.6 0 0 1 -5.3 1.3c-2.8 0-4.9-1.6-6.5-2.8l-1.6-1.2-1.9 1a19.9 19.9 0 0 1 -10 3c-5 0-9.2-2.1-11.6-3.4-1.6 1.2-3.8 2.8-6.7 2.8a7.2 7.2 0 0 1 -3.6-1 5 5 0 0 0 4.9 5.6 5 5 0 0 0 0 10h50a5 5 0 0 0 0-10 5 5 0 0 0 5-5zm-30 5h24l-8 8zm-24.6 15a3.7 3.7 0 0 0 3.6 3h42a3.7 3.7 0 0 0 3.4-3v-1h-49.1zm24.6-57a24 24 0 0 0 -23.7 20h47.3a24 24 0 0 0 -23.6-20zm-10 12a2 2 0 1 1 2-2 2 2 0 0 1 -2 2zm6 4a2 2 0 1 1 2-2 2 2 0 0 1 -2 2zm4-6a2 2 0 1 1 2-2 2 2 0 0 1 -2 2zm6 4a2 2 0 1 1 2-2 2 2 0 0 1 -2 2zm6-2a2 2 0 1 1 2-2 2 2 0 0 1 -2 2z"/></g></svg>