<svg viewBox="0 0 64 64" xmlns="http://www.w3.org/2000/svg"><g fill="#2e2c2d"><path d="m56.2 19.2a8.1 8.1 0 1 0 -11.4-11.4l-37 37a8.1 8.1 0 1 0 11.4 11.4zm-39.8 29.8c-.9-.2-1.3-.1-1.4 0s-.2.5.1 1.2a2 2 0 0 1 -1.3 2.5h-.6a2 2 0 0 1 -1.9-1.4 5.1 5.1 0 0 1 .9-5.2 5.3 5.3 0 0 1 5.3-1.1 2.1 2.1 0 0 0 1.4.1 2.1 2.1 0 0 0 -.1-1.4c-.6-2.2-.1-4.2 1.2-5.4a5 5 0 0 1 5.2-.7c.6.2 1.1.2 1.2 0a.9.9 0 0 0 .1-.7l-.3-.6a5.2 5.2 0 0 1 1.1-5.3 5.1 5.1 0 0 1 5.1-.9c.7.2 1.2.1 1.3 0s.2-.5 0-1.3a5.1 5.1 0 0 1 .9-5.2 5.3 5.3 0 0 1 5.3-1.1 2.1 2.1 0 0 0 1.4.1 2.1 2.1 0 0 0 -.1-1.4c-.6-2.2-.1-4.2 1.2-5.4a5 5 0 0 1 5.2-.7c.6.2 1.1.2 1.2 0s.2-.6 0-1.3a2 2 0 1 1 3.8-1.3 5.1 5.1 0 0 1 -1 5.4 5 5 0 0 1 -5.3.9c-.7-.2-1-.2-1.1-.1s-.2.6 0 1.5c.8 2.9-.3 4.5-1 5.2s-2.3 1.7-5.2 1c-.9-.2-1.3-.1-1.4 0s-.2.5.1 1.2a5.1 5.1 0 0 1 -.9 5.3 5.1 5.1 0 0 1 -5.3 1c-.7-.2-1.1-.1-1.2 0a1.1 1.1 0 0 0 -.1.7l.2.4a5.1 5.1 0 0 1 -1 5.4 5 5 0 0 1 -5.3.9c-.7-.2-1-.2-1.1-.1s-.2.6 0 1.5c.8 2.9-.3 4.5-1 5.2s-2.7 1.9-5.6 1.1z"/><path d="m61.3 18.9a12 12 0 0 1 -2.3 3.1l-37 37a12.1 12.1 0 0 1 -3.2 2.3 10.1 10.1 0 0 0 12.7-1.2l28.6-28.5a10.1 10.1 0 0 0 1.2-12.7zm-16.2-16.2a10.1 10.1 0 0 0 -12.7 1.2l-28.5 28.5a10.1 10.1 0 0 0 -1.2 12.7 12 12 0 0 1 2.3-3.1l37-37a12.1 12.1 0 0 1 3.1-2.3z"/></g></svg>