<svg viewBox="0 0 64 64" xmlns="http://www.w3.org/2000/svg"><g fill="#2e2c2d"><path d="m60 60h-55.993a2 2 0 0 0 0 4h55.993a2 2 0 0 0 0-4z"/><path d="m19.308 57h25.392a17.228 17.228 0 0 0 7.136-11.035h.185a10.983 10.983 0 0 0 0-21.967h-.021v-1.031h-40v20.855c0 5.299 3 10.035 7.308 13.178zm32.709-29a6.983 6.983 0 0 1 0 13.967h-.017v-13.967z"/><path d="m32 19a2 2 0 0 0 2-2v-15a2 2 0 1 0 -4 0v15a2 2 0 0 0 2 2zm-12 0a2 2 0 0 0 2-2v-9a2 2 0 1 0 -4 0v9a2 2 0 0 0 2 2zm24 0a2 2 0 0 0 2-2v-9a2 2 0 1 0 -4 0v9a2 2 0 0 0 2 2z"/></g></svg>