<svg viewBox="0 0 64 64" xmlns="http://www.w3.org/2000/svg"><path d="m6 0v59.4a4.6 4.6 0 0 0 4.6 4.6h42.8a4.6 4.6 0 0 0 4.6-4.6v-59.4zm32.4 25a3.1 3.1 0 0 1 1.6.4l7.4 4.3a3.1 3.1 0 0 1 1.2 4.3l-4.3 7.4a3.1 3.1 0 0 1 -4.3 1.2l-7.4-4.3a3.1 3.1 0 0 1 -1.2-4.3l4.3-7.4a3.2 3.2 0 0 1 2.7-1.6zm-23.3-7.4a3.1 3.1 0 0 1 1.5-1.9l7.4-4.3a3.1 3.1 0 0 1 4.3 1.2l4.3 7.4a3.2 3.2 0 0 1 -1.2 4.3l-7.4 4.3a3.1 3.1 0 0 1 -4.3-1.1l-4.3-7.5a3.1 3.1 0 0 1 -.3-2.4zm38.9 41.8a.6.6 0 0 1 -.6.6h-42.8a.6.6 0 0 1 -.6-.6v-9.4h44z" fill="#2e2c2d"/></svg>