<svg viewBox="0 0 64 64" xmlns="http://www.w3.org/2000/svg"><g fill="#2e2c2d"><path d="m18 20.9a9.5 9.5 0 0 0 -4.9 7.1h18.9a9.5 9.5 0 0 0 -9.4-8.3h-.7l-8-18.5a2 2 0 1 0 -3.7 1.6z"/><path d="m54 32h-43.9a22 22 0 0 0 19.9 19.9v8.1h-4a2 2 0 0 0 0 4h12a2 2 0 0 0 0-4h-4v-8.1a22 22 0 0 0 20-19.9z"/><path d="m34.2 28h16.8a8.4 8.4 0 0 0 -16.9 0z"/><path d="m32.5 20.2h.5a12.5 12.5 0 0 1 7.8-4.4 12 12 0 0 0 -5.7-3.4 4 4 0 0 0 .9-2.4 4 4 0 1 0 -7.1 2.5 12 12 0 0 0 -5.6 3.3 13.5 13.5 0 0 1 9.2 4.4z"/></g></svg>