<svg xmlns="http://www.w3.org/2000/svg" viewBox="0 0 64 64" aria-labelledby="title"
aria-describedby="desc" role="img" xmlns:xlink="http://www.w3.org/1999/xlink"
width="64" height="64">
  <title>Kitchen Stove</title>
  <desc>A solid styled icon from Orion Icon Library.</desc>
  <path data-name="layer1"
  d="M58 14V2H6v12zm-9-8a3 3 0 1 1-3 3 3 3 0 0 1 3-3zm-8 0a3 3 0 1 1-3 3 3 3 0 0 1 3-3zM14 8h8a2 2 0 0 1 0 4h-8a2 2 0 0 1 0-4z"
  fill="#2e2c2d"></path>
  <path data-name="layer2" d="M58 52V18H6v34zM18 24h28a4 4 0 0 1 4 4v14a4 4 0 0 1-4 4H18a4 4 0 0 1-4-4V28a4 4 0 0 1 4-4z"
  fill="#2e2c2d"></path>
  <path data-name="layer1" fill="#2e2c2d" d="M6 56h52v6H6z"></path>
</svg>