<svg viewBox="0 0 64 64" xmlns="http://www.w3.org/2000/svg"><path d="m14 0v59.4a4.6 4.6 0 0 0 4.6 4.6h26.8a4.6 4.6 0 0 0 4.6-4.6v-59.4zm23.2 21.4 4.3 2.5a3 3 0 0 1 1.1 4.1l-2.5 4.3a3 3 0 0 1 -2.6 1.5 3 3 0 0 1 -1.5-.4l-4.3-2.5a3 3 0 0 1 -1.1-4.1l2.5-4.3a3 3 0 0 1 4.1-1.1zm-2.9 22.7-4.3 2.5a3 3 0 0 1 -4.1-1.1l-2.5-4.3a3 3 0 0 1 1.1-4.1l4.3-2.5a3 3 0 0 1 4.1 1.1l2.5 4.3a3 3 0 0 1 -1.1 4.1zm-13.2-30.4a3 3 0 0 1 1.4-1.8l4.3-2.5a3 3 0 0 1 4.1 1.1l2.5 4.3a3 3 0 0 1 -1.1 4.1l-4.3 2.5a3 3 0 0 1 -4.1-1.1l-2.5-4.3a3 3 0 0 1 -.3-2.3zm24.9 45.7a.6.6 0 0 1 -.6.6h-26.8a.6.6 0 0 1 -.6-.6v-5.4h28z" fill="#2e2c2d"/></svg>