<svg viewBox="0 0 64 64" xmlns="http://www.w3.org/2000/svg"><path d="m59.1 9h-52a3.9 3.9 0 0 0 -3.3 1.5c-1.4 1.8-.8 4.3-.6 5s1.8 8.2 3.2 13.1c.7 2.7 1.8 6.4 5.3 6.4h1.4a2 2 0 0 0 0-4h-1.5c-.3-.2-.8-1.3-1.4-3.4-1.4-5-3.1-13-3.2-13.1a3.5 3.5 0 0 1 0-1.5h6.4l5.8 40.3a2 2 0 0 0 2 1.7h26a2 2 0 0 0 2-1.8c0-.2 2.6-22.1 3.7-30.8a6 6 0 0 1 6.1-5.4 2 2 0 0 0 1.5-.6 2 2 0 0 0 .6-1.4v-4a2 2 0 0 0 -2-2zm-24 38h-8a2 2 0 0 1 0-4h8a2 2 0 0 1 0 4zm0-8h-8a2 2 0 1 1 0-4h8a2 2 0 0 1 0 4zm0-8h-8a2 2 0 0 1 0-4h8a2 2 0 0 1 0 4zm0-8h-8a2 2 0 0 1 0-4h8a2 2 0 0 1 0 4z" fill="#2e2c2d"/></svg>