<svg viewBox="0 0 64 64" xmlns="http://www.w3.org/2000/svg"><g fill="#2e2c2d"><path d="m40 6c-9.6 0-16.2 2-22 10s-16 8.9-16 22 13.2 20 26 20 34-5.5 34-26-13.8-26-22-26zm-12.2 46.8c-12.8 0-20.8-5.6-20.8-14.5a12.7 12.7 0 0 1 4.2-9.3l2.6-2.3a41.9 41.9 0 0 0 8.2-8.4c3.2-4.7 9.4-7.2 18.4-7.2s16.6 8.3 16.6 20.9c0 15.3-15.1 20.8-29.2 20.8z"/><path d="m40.4 15.2c-7.6 0-12.7 1.8-15.1 5.4a45.2 45.2 0 0 1 -8.8 9.1l-2.5 2.2a8.7 8.7 0 0 0 -3 6.4c0 6.6 6.3 10.5 16.8 10.5 5.9 0 25.2-1.2 25.2-16.8 0-10.4-4.8-16.8-12.6-16.8zm-.4 20.8a6 6 0 1 1 6-6 6 6 0 0 1 -6 6z"/></g></svg>