<svg xmlns="http://www.w3.org/2000/svg" viewBox="0 0 64 64" aria-labelledby="title"
aria-describedby="desc" role="img" xmlns:xlink="http://www.w3.org/1999/xlink"
width="64" height="64">
  <title>Milkshake</title>
  <desc>A solid styled icon from Orion Icon Library.</desc>
  <path data-name="layer2"
  d="M17 34a15 15 0 0 0 13 14.9V60h-6a2 2 0 0 0 0 4h16a2 2 0 0 0 0-4h-6V48.9A15 15 0 0 0 47 34a41.3 41.3 0 0 0-1.3-9.5H18.3A41.3 41.3 0 0 0 17 34z"
  fill="#2e2c2d"></path>
  <path data-name="layer1" d="M45 18a9 9 0 0 0-4.4-7.7l3.2-7.5a2 2 0 0 0-3.7-1.6L36.8 9H36a9 9 0 0 0-7.7 4.4A6.7 6.7 0 0 0 26 13a7 7 0 0 0-7 7v.5h25.6A9 9 0 0 0 45 18z"
  fill="#2e2c2d"></path>
</svg>