<svg xmlns="http://www.w3.org/2000/svg" viewBox="0 0 64 64" aria-labelledby="title"
aria-describedby="desc" role="img" xmlns:xlink="http://www.w3.org/1999/xlink"
width="64" height="64">
  <title>Milk Carton</title>
  <desc>A solid styled icon from Orion Icon Library.</desc>
  <path data-name="layer1"
  fill="#2e2c2d" d="M34 25.4l23-5.8V16H34v9.4zM22 1.2L32.8 12h22.6L44.7 1.3A1 1 0 0 0 44 1H22z"></path>
  <path data-name="layer2" fill="#2e2c2d" d="M34 49.5l23-5.6V23.7l-23 5.9v19.9z"></path>
  <path data-name="layer1" fill="#2e2c2d" d="M30 14.8l-8-8V63h8V14.8zm4 38.8V63h22a1 1 0 0 0 1-1V48zm-16-51L7.3 13.3a1 1 0 0 0-.3.7v48a1 1 0 0 0 1 1h10z"></path>
</svg>