<svg xmlns="http://www.w3.org/2000/svg" viewBox="0 0 64 64" aria-labelledby="title"
aria-describedby="desc" role="img" xmlns:xlink="http://www.w3.org/1999/xlink"
width="64" height="64">
  <title>Mustard</title>
  <desc>A solid styled icon from Orion Icon Library.</desc>
  <path data-name="layer2"
  d="M39.9 11.7a1 1 0 0 0-1-.7h-2.1l-2.4-9.2a1 1 0 0 0-1-.8h-2.7a1 1 0 0 0-1 .7L27.2 11h-2.1a1 1 0 0 0-1 .7L21.9 19h20.2z"
  fill="#2e2c2d"></path>
  <path data-name="layer1" d="M44.4 23H19.6a4 4 0 0 0-.6 2v34a4 4 0 0 0 4 4h18a4 4 0 0 0 4-4V25a3.9 3.9 0 0 0-.6-2zM32 48c-3.3 0-6-3.6-6-8s2.7-8 6-8 6 3.6 6 8-2.7 8-6 8z"
  fill="#2e2c2d"></path>
</svg>