<svg viewBox="0 0 64 64" xmlns="http://www.w3.org/2000/svg"><g fill="#2e2c2d"><path d="m59.6 32.3c-5.9-14.2-21.3-27.6-34.4-30s-18.8 7.2-12.9 21.4 21.3 27.5 34.4 29.9 18.9-7.2 12.9-21.3zm-6.5 17.3a2 2 0 0 1 -2.8-.5l-12.3-17.6-4.2 9.3a2 2 0 0 1 -1.8 1.2l-.8-.2a2 2 0 0 1 -1-2.6l4.2-9.4-14.7-1.8a2 2 0 0 1 .5-4l13.7 1.7-11.6-16.6a2 2 0 1 1 3.3-2.3l11.7 16.7 2.9-6.3a2 2 0 0 1 3.6 1.7l-3.5 7.7 11.9 1.4a2 2 0 0 1 -.2 4h-.3l-9.3-1.2 11.2 16a2 2 0 0 1 -.5 2.8z"/><path d="m46 57.5c-14.5-2.6-30.9-16.8-37.4-32.3a31.1 31.1 0 0 1 -2.6-11.4 34.7 34.7 0 0 0 -4 16.2 32 32 0 0 0 32 32 34 34 0 0 0 16.2-4 25.5 25.5 0 0 1 -4.2-.5z"/></g></svg>