<svg xmlns="http://www.w3.org/2000/svg" viewBox="0 0 64 64" aria-labelledby="title"
aria-describedby="desc" role="img" xmlns:xlink="http://www.w3.org/1999/xlink"
width="64" height="64">
  <title>Orange Slice</title>
  <desc>A solid styled icon from Orion Icon Library.</desc>
  <path data-name="layer1"
  d="M32 2a30 30 0 1 0 30 30A30 30 0 0 0 32 2zm24 32H36.8l13.6 13.6a2 2 0 1 1-2.8 2.8L34 36.8V56a2 2 0 1 1-4 0V36.8L16.4 50.4a2 2 0 0 1-2.8-2.8L27.2 34H8a2 2 0 0 1 0-4h19.2L13.6 16.4a2 2 0 0 1 2.8-2.8L30 27.2V8a2 2 0 1 1 4 0v19.2l13.6-13.6a2 2 0 1 1 2.8 2.8L36.8 30H56a2 2 0 0 1 0 4z"
  fill="#2e2c2d"></path>
</svg>