<svg xmlns="http://www.w3.org/2000/svg" viewBox="0 0 64 64" aria-labelledby="title"
aria-describedby="desc" role="img" xmlns:xlink="http://www.w3.org/1999/xlink"
width="64" height="64">
  <title>Paper Cup</title>
  <desc>A solid styled icon from Orion Icon Library.</desc>
  <path data-name="layer2"
  d="M51.5 13.5H23.2l-8-12a2 2 0 1 0-3.3 2.2l6.6 9.9h-3a1 1 0 0 0-1 1v8a1 1 0 0 0 1 1h36a1 1 0 0 0 1-1v-8a1 1 0 0 0-1-1.1z"
  fill="#2e2c2d"></path>
  <path data-name="layer1" d="M20.5 62.6a1 1 0 0 0 1 .9h24a1 1 0 0 0 1-.9l3.5-35H17z"
  fill="#2e2c2d"></path>
</svg>