<svg viewBox="0 0 64 64" xmlns="http://www.w3.org/2000/svg"><g fill="#2e2c2d"><path d="m5 32.3v7.6a18.8 18.8 0 0 0 8.8 1.2 17.3 17.3 0 0 1 10.3 2.6c3 1.9 5.2 1.9 9.4 1.9h5.4c5.9.3 7.5 1 10 2.4l2.6 1.4a8.3 8.3 0 0 0 7.5-.4v-6.1z"/><path d="m49.7 53-2.9-1.5c-2-1.1-2.9-1.7-8.2-1.9h-5.1c-4.4 0-7.6 0-11.6-2.5a13.4 13.4 0 0 0 -7.7-1.9 23.3 23.3 0 0 1 -9.2-1v6.3a1 1 0 0 0 .8 1l52 12h.2l.6-.2a1 1 0 0 0 .4-.8v-9.2a12.7 12.7 0 0 1 -4.3.8 11.7 11.7 0 0 1 -5-1.1zm-13.7-31.1v-19.4a2 2 0 1 0 -4 0v16.1l-3.3-2.8a1 1 0 0 0 -.8-.2c-12.9 2.3-19.4 9.6-21.7 12.8l50.8 10c-3.8-2.9-13.2-10.2-21-16.5z"/></g></svg>