<svg viewBox="0 0 64 64" xmlns="http://www.w3.org/2000/svg"><g fill="#2e2c2d"><path d="m32 18c0-9.8-13.6-8-13.6-8s1.6 8 13.6 8zm14-16c-11.4 0-12 10-12 16 12.7 0 12-10.9 12-16z"/><path d="m26.766 33.844 5.162-5.162 5.176 5.176-5.162 5.162zm-10.866 5.256 5.2-5.2-4.6-4.6a24.6 24.6 0 0 0 -2.3 8.7 2 2 0 0 1 1.3.6zm10.95 10.828 5.162-5.162 5.176 5.176-5.162 5.162zm21.05-5.228-5.2 5.2 3.9 3.9v.2a22.8 22.8 0 0 0 2.8-8.2 2 2 0 0 1 -1.2-.6zm-32 0-.3.3a2 2 0 0 1 -1.2.6 22.9 22.9 0 0 0 2.8 8.2h.1l3.8-3.8zm2.866-2.843 5.162-5.162 5.176 5.176-5.162 5.162zm1.334 14.643-.6.4a15.6 15.6 0 0 0 6.8 4.2 2 2 0 0 1 .5-1l2.2-2.2-5.2-5.2zm19.8-3.8-9.2 9.2h1.3a16.6 16.6 0 0 0 12.4-4.9l-.6-.4zm-5.12-10.856 5.161-5.162 5.176 5.176-5.162 5.162zm-16.18-15.844.7.5 4.6 4.6 10.9-10.9-2.8-.2c-5.9 0-10.4 2.3-13.4 6zm26 .4.7-.5a15.6 15.6 0 0 0 -6.4-4.7 2 2 0 0 1 -.5 1l-3.7 3.7 5.2 5.2zm3.3 12.7.6-.6a2 2 0 0 1 1.3-.6 24.5 24.5 0 0 0 -2.4-8.7l-4.7 4.7z"/></g></svg>