<svg viewBox="0 0 64 64" xmlns="http://www.w3.org/2000/svg"><path d="m48.9 1.4-.5-1.4h-32.8l-.5 1.4a45.3 45.3 0 0 0 -2.1 12.6c0 4.7 2.3 13.4 3.7 18.6l.5 1.7a46.2 46.2 0 0 1 1.8 11.7v14a4 4 0 0 0 4.1 4h17.8a4 4 0 0 0 4.1-4v-14a46.2 46.2 0 0 1 1.9-11.6l.5-1.7c1.3-5.3 3.6-14 3.6-18.7a45.3 45.3 0 0 0 -2.1-12.6zm-18.9 50.6a3 3 0 1 1 3-3 3 3 0 0 1 -3 3zm0-22a3 3 0 1 1 -3 3 3 3 0 0 1 3-3zm-1-9a3 3 0 1 1 3 3 3 3 0 0 1 -3-3zm5 23a3 3 0 1 1 3-3 3 3 0 0 1 -3 3zm4-14a3 3 0 1 1 3-3 3 3 0 0 1 -3 3zm-20.9-18a43.5 43.5 0 0 1 1.4-8h27a43.4 43.4 0 0 1 1.4 8z" fill="#2e2c2d"/></svg>