<svg viewBox="0 0 64 64" xmlns="http://www.w3.org/2000/svg"><g fill="#2e2c2d"><path d="m49 26.1-6.2 2.9-12.7 5.9v-20.9a2 2 0 0 0 -2-2 26 26 0 1 0 26 26 25.8 25.8 0 0 0 -2.5-11 2 2 0 0 0 -2.6-.9zm-10.9 16.9a3 3 0 1 1 -3-3 3 3 0 0 1 3 3zm-13 1a3 3 0 1 1 -3 3 3 3 0 0 1 3-3zm-4-6a3 3 0 1 1 3-3 3 3 0 0 1 -3 3zm7 22a22 22 0 0 1 -2-43.9v2.9a19.1 19.1 0 1 0 21.1 19 18.8 18.8 0 0 0 -1-6.2l2.7-1.2a21.7 21.7 0 0 1 1.2 7.4 22 22 0 0 1 -22 22z"/><path d="m61.7 15a26.1 26.1 0 0 0 -23.6-15 2 2 0 0 0 -2 1.7l-4 26a2 2 0 0 0 2 2.3l.9-.2 25.7-12.1a2 2 0 0 0 1-2.7zm-7.1 1.1a19.6 19.6 0 0 0 -15.2-9.5l.4-2.6a22.1 22.1 0 0 1 17.3 10.9z"/></g></svg>