<svg viewBox="0 0 64 64" xmlns="http://www.w3.org/2000/svg"><path d="m58.8 31.2c-5.9-13.8-18-25.1-33.1-31.1a2 2 0 0 0 -2.6 1.2l-18 52a2 2 0 0 0 1.9 2.7l.8-.2 7.2-3.1v5.3a2 2 0 1 0 4 0v-7.1l4-1.8v12.9a2 2 0 1 0 4 0v-14.6l12-5.3v9.9a2 2 0 1 0 4 0v-11.7l14.8-6.5a2 2 0 0 0 1-2.6zm-34.8-7.2a5 5 0 1 1 5 5 5 5 0 0 1 -5-5zm.5 13.5a3.5 3.5 0 1 1 -3.5-3.5 3.5 3.5 0 0 1 3.5 3.5zm10.5-6.5a3 3 0 1 1 -3 3 3 3 0 0 1 3-3zm16 1.5c-5.2-10.6-14.5-19.3-26-24.3l1.2-3.5c12.6 5.4 22.6 14.9 28.1 26.3z" fill="#2e2c2d"/></svg>