<svg viewBox="0 0 64 64" xmlns="http://www.w3.org/2000/svg"><path d="m49.2 21.3c-14.5-9.3-17.7-11.7-22.5-15.9s-12.8-4.5-18.5-.8c-8.3 5.6-10.8 30.7 8.9 47.7s35 8.1 41.2.9 5.4-22.6-9.1-31.9zm-35.8.1-2 2a2 2 0 1 1 -2.8-2.8l2-2a2 2 0 1 1 2.8 2.8zm8 20-2 2a2 2 0 1 1 -2.8-2.8l2-2a2 2 0 0 1 2.8 2.8zm0-8-2 2a2 2 0 1 1 -2.8-2.8l2-2a2 2 0 1 1 2.8 2.8zm6-8-2 2a2 2 0 0 1 -2.8-2.8l2-2a2 2 0 1 1 2.8 2.8zm8 26-2 2a2 2 0 0 1 -2.8-2.8l2-2a2 2 0 0 1 2.8 2.8zm0-12-2 2a2 2 0 0 1 -2.8-2.8l2-2a2 2 0 0 1 2.8 2.8zm8.6 6.6a2 2 0 0 1 -1.4-3.4l2-2a2 2 0 0 1 2.8 2.8l-2 2a2 2 0 0 1 -1.4.6zm7.4 5.4-2 2a2 2 0 0 1 -2.8-2.8l2-2a2 2 0 1 1 2.8 2.8z" fill="#2e2c2d"/></svg>