<svg viewBox="0 0 64 64" xmlns="http://www.w3.org/2000/svg"><g fill="#2e2c2d"><path d="m22 36.739c0 2.591-3.942 2.261-3.942.261 0-8.539 2.342-15.767 6.042-20-.03 0-.059-.007-.089-.007-6.621 0-11.987 8.954-11.987 20s5.366 20 11.987 20a15.407 15.407 0 0 0 4.989-.925c10.815 5.256 13-12.568 13-19.068 0-9-5.206-23.777-13.217-18.932-4.846 2.932-6.783 12.973-6.783 18.671z"/><path d="m35.442 13.642a31.523 31.523 0 0 1 -1.442-6.642h-4a16.977 16.977 0 0 1 -1.781 6.847c1.156-.363 4.51-1.147 7.223-.205z"/><path d="m14.828 17.217c-7.247 1.364-12.828 9.683-12.828 19.783s5.581 18.415 12.828 19.779c-4.15-4.292-6.828-11.479-6.828-19.779s2.678-15.491 6.828-19.783zm28.246.455a7.552 7.552 0 0 0 -3.038-.672h-.028c3.7 4.228 6.05 11.457 6.05 20s-2.346 15.771-6.05 20h.028c6.621 0 11.987-8.954 11.987-20 0-2.758 3.976-2.492 3.976 0 0 8.3-2.674 15.488-6.825 19.781 7.246-1.368 12.826-9.691 12.826-19.781 0-10.208-5.643-22.615-18.926-19.328z"/></g></svg>