<svg viewBox="0 0 64 64" xmlns="http://www.w3.org/2000/svg"><g fill="#2e2c2d"><path d="m3.9 44.9c1.9 5.5 4.3 11-2.4 17.6 6.7-6.7 11.4-4.2 17.6-2.4a22.5 22.5 0 0 0 14.3.5l-30-30.1a22.5 22.5 0 0 0 .5 14.4z"/><path d="m8.2 22.5a19.2 19.2 0 0 0 -3.1 4.1l32.3 32.3a18.3 18.3 0 0 0 5.8-5.2l-33-33z"/><path d="m62.3 19.3a2 2 0 0 0 -2.6-1l-17.9 8.1-.6-.8 14-14a2 2 0 1 0 -2.8-2.8l-14 14-.8-.7 8.1-17.8a2 2 0 1 0 -3.7-1.6l-7.8 17.2a22.6 22.6 0 0 0 -20.4-1.3l31.6 31.6a22.6 22.6 0 0 0 -1.3-20.4l17.2-7.8a2 2 0 0 0 1-2.7z"/></g></svg>