<svg viewBox="0 0 64 64" xmlns="http://www.w3.org/2000/svg"><g fill="#2e2c2d"><path d="m46.7 31.1-7.1-7.1a1 1 0 0 0 -1.4 0l-14.2 14.2a1 1 0 0 0 0 1.4l7.1 7.1a1 1 0 0 0 1.4 0l14.2-14.2a1 1 0 0 0 0-1.4zm3.9 5.4a2 2 0 0 0 -2.8 2.8l1.4 1.4a2 2 0 1 0 2.8-2.8zm-4.2 7a2 2 0 0 0 -2.8 2.8l4.2 4.2a2 2 0 0 0 2.8-2.8zm-7.1 4.3a2 2 0 0 0 -2.8 2.8l4.2 4.2a2 2 0 0 0 2.8-2.8zm22.6 0-4.2-4.2a2 2 0 1 0 -2.8 2.8l4.2 4.2a2 2 0 1 0 2.8-2.8zm-5.6 5.6a2 2 0 1 0 -2.8 2.8l1.4 1.4a2 2 0 0 0 2.8-2.8zm-8.5 2.9a2 2 0 0 0 -2.8 2.8l2.8 2.8a2 2 0 1 0 2.8-2.8z"/><path d="m33.2 13.4-8.5-8.5c-5.4-5.4-12.9-4-18.3 1.5s-6.9 12.9-1.5 18.3l8.5 8.5a14.3 14.3 0 0 0 6.5 3.4l16.7-16.7a14.3 14.3 0 0 0 -3.4-6.5z"/></g></svg>