<svg viewBox="0 0 64 64" xmlns="http://www.w3.org/2000/svg"><path d="m63.2 4.7a2 2 0 0 0 -2.7-.7l-8.5 5a14 14 0 0 0 -3.3-4.9c-2.3-2.2-5.4-3.3-9.5-3.3-9.5 0-20.8 6.2-26.6 12-14.2 14.2-14.2 30.3-8.7 36.1a11.2 11.2 0 0 0 5.1 3.3l-4.7 8a2 2 0 0 0 .7 2.8l1 .3a2 2 0 0 0 1.7-1l4.3-7.4 5.4 6.1a2 2 0 0 0 3-2.6l-5.9-6.8a13.2 13.2 0 0 0 5.6-6.1 24.7 24.7 0 0 0 2.3-8.3c.5-3.5.9-6.5 4.4-10s8.5-4.4 12.6-4.8a19 19 0 0 0 6.2-1.3c1.2-.6 5.1-2.8 6.4-6.6l6.6 5.7a2 2 0 1 0 2.6-3l-6.2-5.4 7.4-4.3a2 2 0 0 0 .8-2.8z" fill="#2e2c2d"/></svg>