<svg viewBox="0 0 64 64" xmlns="http://www.w3.org/2000/svg"><g fill="#2e2c2d"><path d="m19 16a2 2 0 0 0 2 2h21.966a2 2 0 0 0 0-4h-6.948a3 3 0 1 0 -.039 0h-8.151l-5.412-5.414a2 2 0 0 0 -2.828 2.828l2.583 2.586h-1.171a2 2 0 0 0 -2 2z"/><path d="m46.925 23.09a2.518 2.518 0 0 1 1.075 1.91v32.937a2.983 2.983 0 0 1 -.731 2.08c-.145.146-.982.909-1.808 1.663-.771.7-1.533 1.4-1.661 1.524a2.1 2.1 0 0 1 -1.551.8h-20.5a2.016 2.016 0 0 1 -1.492-.737 98.134 98.134 0 0 0 -1.72-1.584c-.825-.754-1.662-1.518-1.808-1.663a2.983 2.983 0 0 1 -.729-2.083v-32.937a2.518 2.518 0 0 1 1.075-1.914c.371-.286 1.546-1.086 1.546-1.086h26.758s1.175.8 1.546 1.09z"/><circle cx="33.999" cy="2.999" r="3"/><circle cx="42.001" cy="6.999" r="3"/></g></svg>