<svg viewBox="0 0 64 64" xmlns="http://www.w3.org/2000/svg"><g fill="#2e2c2d"><path d="m44.9 8a3 3 0 1 0 -3-3 3 3 0 0 0 3 3zm0-4a1 1 0 0 1 1 1 1 1 0 1 0 -2 0 1 1 0 0 1 1-1zm-10 8a3 3 0 1 0 -3-3 3 3 0 0 0 3 3zm0-4a1 1 0 0 1 1 1 1 1 0 1 0 -2 0 1 1 0 0 1 1-1z"/><circle cx="45.9" cy="12" r="2"/><path d="m28.7 16c-.4-4-.6-7.1-.8-8.3-.9-6.1-6.6-7.7-9.5-7.7h-6.5a2 2 0 1 0 0 4h6.5s4.9 0 5.5 4.3c.2 1.1.4 3.9.8 7.7h-7l4.4 48h27.6l4.4-48zm20.5 10h-19.7c1.1 13.2 2.3 28.8 2.4 29.8a2 2 0 0 1 -1.8 2.2h-.2a2 2 0 0 1 -2-1.8c0-.3-1.3-16.6-2.4-30.2h-2.9l-.5-6h2.9l.2 2.9h4l-.2-2.9h20.7z"/></g></svg>