<svg viewBox="0 0 64 64" xmlns="http://www.w3.org/2000/svg"><g fill="#2e2c2d"><path d="m19 16a2 2 0 0 0 2 2h21.966a2 2 0 0 0 0-4h-6.948a3 3 0 1 0 -.039 0h-8.151l-5.412-5.414a2 2 0 0 0 -2.828 2.828l2.583 2.586h-1.171a2 2 0 0 0 -2 2z"/><circle cx="33.999" cy="2.999" r="3"/><circle cx="42" cy="6.999" r="3"/><path d="m45.379 22h-26.758s-1.175.8-1.546 1.092a2.518 2.518 0 0 0 -1.075 1.908v32.937a2.983 2.983 0 0 0 .731 2.08c.146.145.982.909 1.808 1.663.771.7 1.533 1.4 1.72 1.584a2.015 2.015 0 0 0 1.491.736h20.5a2.1 2.1 0 0 0 1.551-.8c.128-.128.89-.821 1.661-1.524.825-.754 1.662-1.518 1.808-1.663a2.983 2.983 0 0 0 .73-2.076v-32.937a2.518 2.518 0 0 0 -1.075-1.914c-.371-.286-1.546-1.086-1.546-1.086zm-13.379 32c-3.866 0-7-5.373-7-12s3.134-12 7-12 7 5.373 7 12-3.133 12-7 12z"/></g></svg>