<svg xmlns="http://www.w3.org/2000/svg" viewBox="0 0 64 64" aria-labelledby="title"
aria-describedby="desc" role="img" xmlns:xlink="http://www.w3.org/1999/xlink"
width="64" height="64">
  <title>Spatula</title>
  <desc>A solid styled icon from Orion Icon Library.</desc>
  <path data-name="layer1"
  d="M45.5 1.5L31.4 15.6A12 12 0 0 0 30.1 31H30L19.6 41.6a5 5 0 0 0-5.4 1.1L2.9 54a5 5 0 0 0 7.1 7.1l11.3-11.4a5 5 0 0 0 1.1-5.4L32.8 34h.1a12 12 0 0 0 15.4-1.3l14.2-14.2zM38.8 28a2 2 0 1 1-2.8-2.8l10.8-10.8a2 2 0 1 1 2.8 2.8z"
  fill="#2e2c2d"></path>
</svg>