<svg viewBox="0 0 64 64" xmlns="http://www.w3.org/2000/svg"><path d="m61.6 18.3-15.9-15.9a3.1 3.1 0 0 0 -4.3 0l-18.8 18.8a3.1 3.1 0 0 0 0 4.3l6.5 6.5-10.8 10.9a3.1 3.1 0 0 0 -4.3 0l-11.6 11.5a3 3 0 0 0 0 4.3l2.9 2.9a3 3 0 0 0 4.3 0l11.5-11.5a3 3 0 0 0 0-4.3l10.9-10.9 6.5 6.5a3.1 3.1 0 0 0 4.3 0l18.8-18.8a3.1 3.1 0 0 0 0-4.3zm-28.2 8.5a2 2 0 0 1 -1.4-3.4l11.6-11.6a2 2 0 0 1 2.8 2.8l-11.6 11.6a2 2 0 0 1 -1.4.6zm18.7-6.4-11.5 11.6a2 2 0 0 1 -2.8-2.8l11.6-11.6a2 2 0 1 1 2.8 2.8z" fill="#2e2c2d"/></svg>