<svg viewBox="0 0 64 64" xmlns="http://www.w3.org/2000/svg"><g fill="#2e2c2d"><path d="m28 51.4c18.9 0 34-16 34-27.3 0-2.1.6-20.7-10-20.7s-11.4 8-28.2 8c-8 0-7.6-2-11.8-2s-10 3.8-10 18c0 15.7 7.1 24 26 24zm-13.7-33.1a2 2 0 0 1 2.8-.6l11.1 7.4 14.9-7.5a2 2 0 0 1 1.8 3.6l-15.3 7.6-3.7 11.2a2 2 0 0 1 -1.9 1.4h-.6a2 2 0 0 1 -1.3-2.5l3.5-10.6-10.7-7.3a2 2 0 0 1 -.6-2.7z"/><path d="m28 55.4c-17.9 0-25.2-7.4-25.9-21.5 0 .9-.1 1.8-.1 2.7 0 15.8 7.1 24 26 24s34-16 34-27.3c0-.5 0-2-.1-4-1 11.2-15.7 26.1-33.9 26.1z"/></g></svg>