<svg viewBox="0 0 64 64" xmlns="http://www.w3.org/2000/svg"><g fill="#2e2c2d"><path d="m17.2 49a2 2 0 0 0 1.8 1l1-.2 40-22a2 2 0 1 0 -2-3.5l-40 22a2 2 0 0 0 -.8 2.7zm45.7-7.6a2 2 0 0 0 -2.5-1.3l-46 14a2 2 0 0 0 .6 3.9h.6l46-14a2 2 0 0 0 1.3-2.6zm-49.9-13.4c6.6 0 12-2.7 12-6s-5.4-6-12-6-12 2.7-12 6 5.4 6 12 6zm0-7.9c1.7 0 3.6.5 3.6 1.9s-1.8 1.9-3.6 1.9-3.6-.5-3.6-1.9 1.9-1.9 3.6-1.9z"/><path d="m25 34v-5.2c-2.9 2-7.1 3.2-12 3.2s-9.1-1.2-12-3.2v5.2c0 3.3 5.4 6 12 6s12-2.7 12-6z"/><path d="m27.2 17.2a21.9 21.9 0 0 0 5.8.8c6.6 0 12-2.7 12-6s-5.4-6-12-6-12 2.7-12 6a3.2 3.2 0 0 0 .3 1.4 13.2 13.2 0 0 1 5.9 3.8zm5.8-7.1c1.7 0 3.6.5 3.6 1.9s-1.8 1.9-3.6 1.9-3.6-.5-3.6-1.9 1.9-1.9 3.6-1.9z"/><path d="m45 24v-5.2c-2.9 2-7.1 3.2-12 3.2a27.7 27.7 0 0 1 -4-.3v7.9a23 23 0 0 0 4 .3c6.6.1 12-2.6 12-5.9z"/></g></svg>