<svg viewBox="0 0 64 64" xmlns="http://www.w3.org/2000/svg"><g fill="#2e2c2d"><path d="m26 27.043c-7.732 0-14 3.134-14 7s6.268 7 14 7 14-3.133 14-7-6.267-7-14-7zm0 8.97c-1.934 0-4-.525-4-2s2.066-2 4-2 4 .525 4 2-2.065 2-4 2z"/><path d="m12 41.2v6.847c0 3.865 6.268 7 14 7s14-3.135 14-7v-6.847c-3.22 2.4-8.16 3.847-14 3.847s-10.779-1.455-14-3.847z"/><path d="m16 22.957c7.732 0 14-3.133 14-7s-6.268-7-14-7-14 3.134-14 7 6.264 7 14 7zm0-9.03c1.118 0 4 .525 4 2s-2.066 2-4 2-4-.525-4-2 2.878-2 4-2z"/><path d="m2 23.11v6.847c0 2.379 2.378 4.476 6 5.742v-2.464c0-2.532 1.813-4.769 4.235-6.5a21.344 21.344 0 0 1 -10.235-3.625z"/><path d="m62 21.987c0-3.866-6.268-7-14-7s-14 3.134-14 7a4.04 4.04 0 0 0 .821 2.345 15.979 15.979 0 0 1 6.623 3.839 25.735 25.735 0 0 0 6.556.816c7.736 0 14-3.133 14-7zm-18-.03c0-1.475 2.066-2 4-2s4 .525 4 2-2.066 2-4 2-4-.525-4-2z"/><path d="m43.851 32.728a1.376 1.376 0 0 1 .15.508v9.458a27.17 27.17 0 0 0 4 .294c7.732 0 14-3.135 14-7v-6.847c-3.22 2.395-8.16 3.847-14 3.847a32.588 32.588 0 0 1 -4.15-.26z"/></g></svg>