<svg viewBox="0 0 64 64" xmlns="http://www.w3.org/2000/svg"><g fill="#2e2c2d"><path d="m63.9 26.9a2 2 0 0 0 -2.5-1.3l-34.6 11.5a29.8 29.8 0 0 1 -6.5-2 17.9 17.9 0 0 1 -3.1-1.5l-1.2-.8a14.3 14.3 0 0 1 -2.1-2l-12.9 6.9a2 2 0 0 0 1 3.8l1-.2 13-7.1v6.5l-14.6 4.9a2 2 0 0 0 .6 3.9h.6l60-20a2 2 0 0 0 1.3-2.6z"/><path d="m28 32.5c7.2 0 13-4 13-9s-5.8-9-13-9-13 4-13 9 5.8 9 13 9zm0-12c3.9 0 6 1 6 3s-2.1 3-6 3-6-1-6-3 2.1-3 6-3z"/><path d="m51 15.3a2 2 0 1 0 -2-3.6l-7.4 4a12.2 12.2 0 0 1 2.4 3.3zm-23 37.2c6.6 0 12-3.6 12-8v-3.3l-22.3 7.4c2.1 2.3 5.9 3.9 10.3 3.9z"/></g></svg>