<svg viewBox="0 0 64 64" xmlns="http://www.w3.org/2000/svg"><g fill="#2e2c2d"><path d="m63.9 36.5c-.1-.4-2.6-10.3-5.9-16.5-2.1-4-8.7-12.7-23.1-7.5-12.6 4.6-14.9 16.3-16.2 26.8s-3 15.4-6.2 17.1l-.8.3-1.7.3c-4.5 0-6-3-6-12a41.1 41.1 0 0 1 15.3-32.5 2 2 0 0 0 -2.6-3.1 45 45 0 0 0 -16.7 35.6c0 5.2 0 16 10 16a9.2 9.2 0 0 0 4.8-1.2l48-21a2 2 0 0 0 1.1-2.3z"/><path d="m18.8 19.4-1.3.5c-1.5.6-3.6 1.3-4.5 3.4a5.7 5.7 0 0 0 .1 4.5c1.1 2.9.2 3.6-1.4 4.4a7.3 7.3 0 0 0 -3.9 4.4 6.4 6.4 0 0 0 .8 5.1 13.5 13.5 0 0 0 1.7 2.1c1.4 1.5 1.3 1.6.9 2.1s-3 1.1-3 1.1a2 2 0 1 0 -.4 4h.6a7.6 7.6 0 0 0 6-2.7c2.5-3.2.1-5.8-1.1-7.2a10.3 10.3 0 0 1 -1.3-1.4 2.6 2.6 0 0 1 -.4-1.9 3.7 3.7 0 0 1 1.9-1.9c3.8-2 4.8-5.2 3.2-9.4a2.1 2.1 0 0 1 -.2-1.4c.2-.5 1.4-.9 2.3-1.3a8.7 8.7 0 0 0 2.3-1.1c2.7-2.1 2.7-3.9 2.7-6.4 0-.6 0-1.4.1-2.3a3 3 0 0 1 1.3-2.4 4.9 4.9 0 0 1 4-.6c2.8.9 5 .8 6.5-.4s2.3-4.4 2.3-5.6a2 2 0 0 0 -2-2 2 2 0 0 0 -2 2c0 1.6-.2 2.1-.5 2.3s-1.3.3-2.9-.2a8.8 8.8 0 0 0 -7.5 1.1 7 7 0 0 0 -3.1 5.5c-.1 1-.1 1.8-.1 2.4 0 2.3 0 2.4-1.1 3.3z"/></g></svg>