<svg viewBox="0 0 64 64" xmlns="http://www.w3.org/2000/svg"><g fill="#2e2c2d"><path d="m4 24.7 6 6.1 7.8-7.8-9.4-9.5a29.9 29.9 0 0 0 -5.4 10.7 2 2 0 0 1 1 .5z"/><path d="m20.7 20.1 7.9-7.9-7.3-7.3a2 2 0 0 1 -.5-.8 30 30 0 0 0 -9.8 6.4zm-18.5 8.5a29.9 29.9 0 0 0 .4 9.6l4.6-4.6zm40-8.5 10.2-10.1a30 30 0 0 0 -10-6.1 2 2 0 0 1 -.5.8l-7.6 7.6zm18.9 19a30 30 0 0 0 .5-11.5l-6 6zm-26.92-5.44 7.919-7.92 7.806 7.807-7.92 7.92zm7.92 13.54-7.8 7.8 5.1 5.1a2 2 0 0 1 .5.9 29.9 29.9 0 0 0 10.7-5.3zm-21.3 0-7.9 7.9a29.9 29.9 0 0 0 10.4 5.6 2 2 0 0 1 .5-.9l4.8-4.8z"/><path d="m31.4 57.8-3.8 3.8a30.2 30.2 0 0 0 4.4.4l3.4-.2zm27.7-15.1-6.2-6.2-7.9 7.9 8.5 8.6a30 30 0 0 0 6.4-9.8zm-14.1-19.7 7.8 7.8 7-7 .8-.5a29.9 29.9 0 0 0 -5.6-10.4zm-13.6-13.6 6.8-6.8a30.1 30.1 0 0 0 -13.3.2z"/><path d="m12.918 33.622 7.778-7.778 7.927 7.926-7.779 7.778z"/><path d="m23.547 22.96 7.92-7.92 7.926 7.927-7.92 7.92zm-5.547 21.44-8-8-5.4 5.5-.8.5a30 30 0 0 0 6.1 10zm5.55-.078 7.778-7.778 7.806 7.806-7.778 7.778z"/></g></svg>