<svg viewBox="0 0 64 64" xmlns="http://www.w3.org/2000/svg"><g style="fill:none;stroke:#2e2c2d;stroke-miterlimit:10;stroke-width:3;stroke-linejoin:round;stroke-linecap:round"><path d="m40.8 25h-28.8m-10-16h6l10 40h32l5.2-16"/><circle cx="20" cy="57" r="4"/><circle cx="46" cy="57" r="4"/><path d="m55.3 22.1a2.4 2.4 0 0 0 -3.3.6c-1.2 1.5-1.7 3.4-7.2-2.1s-4-6.5-2.6-7.7a2.4 2.4 0 0 0 .6-3.3l-3.3-5.1c-.5-.6-1.1-1.7-2.5-1.5a7.2 7.2 0 0 0 -5 6.8c0 4.5 3.5 10 8.4 14.8s10.3 8.4 14.8 8.4a7.2 7.2 0 0 0 6.8-5c.2-1.4-.9-2-1.5-2.5z"/></g></svg>