<svg viewBox="0 0 64 64" xmlns="http://www.w3.org/2000/svg"><g style="stroke-width:3;stroke-miterlimit:10;stroke:#2e2c2d;fill:none;stroke-linejoin:round;stroke-linecap:round"><path d="m14 26h-9a3 3 0 0 1 -3-3v-18a3 3 0 0 1 3-3h54a3 3 0 0 1 3 3v18a3 3 0 0 1 -3 3h-9"/><path d="m14 17.996h-4v-7.996h43.998v7.996h-3.996"/><path d="m49.996 10.004v43.992h-35.998v-43.992m26.002 43.996a10 10 0 0 1 10-10m-36 0a10 10 0 0 1 10 10"/><path d="m12 62h40"/><path d="m27 30.488a5 5 0 0 0 5 5c2.762 0 5-1.821 5-4.584s-2.5-4.018-5-4.582-5-1.824-5-4.584 2.238-4.584 5-4.584a5.006 5.006 0 0 1 4.93 4.166"/><path d="m31.996 17.154v-2.5m0 23.334v-2.5"/></g></svg>