<svg viewBox="0 0 64 64" xmlns="http://www.w3.org/2000/svg"><g fill="none" stroke="#2e2c2d" stroke-linecap="round" stroke-linejoin="round" stroke-width="3"><g stroke-miterlimit="10"><path d="m32 47c-16.568 0-30-8.953-30-20v10c0 11.046 13.432 20 30 20a40.987 40.987 0 0 0 17-3.523v-10a41 41 0 0 1 -17 3.523z"/><path d="m62 27c0-11.045-13.432-20-30-20s-30 8.955-30 20 13.432 20 30 20a41 41 0 0 0 17-3.523v-.477m-17-16v-19.992z"/><path d="m49 43.477v10c7.851-3.607 13-9.64 13-16.477v-10c0 6.838-5.149 12.87-13 16.477z"/></g><path d="m49 43v.477c7.851-3.607 13-9.639 13-16.477h-30l8 7.529z"/></g></svg>