<svg viewBox="0 0 64 64" xmlns="http://www.w3.org/2000/svg"><g style="fill:none;stroke:#2e2c2d;stroke-miterlimit:10;stroke-width:3;stroke-linejoin:round;stroke-linecap:round"><ellipse cx="42" cy="33" rx="12" ry="4"/><path d="m54 41c0 2.2-5.4 4-12 4s-12-1.8-12-4m24 8c0 2.2-5.4 4-12 4s-12-1.8-12-4"/><path d="m30 39h-28v-36h60v36h-8"/><circle cx="32" cy="21" r="8"/><path d="m12 21h4m32 0h4m-40-18a10 10 0 0 1 -10 10m60 0a10 10 0 0 1 -10-10m-50 26a10 10 0 0 1 10 10"/><path d="m30 33v24c0 2.2 5.4 4 12 4s12-1.8 12-4v-24"/></g></svg>