<svg viewBox="0 0 64 64" xmlns="http://www.w3.org/2000/svg"><g style="stroke-width:3;stroke-miterlimit:10;stroke:#2e2c2d;fill:none;stroke-linejoin:round;stroke-linecap:round"><path d="m42 22a20 20 0 1 1 -20 20"/><circle cx="22" cy="22.001" r="20"/><path d="m26.949 17a5.006 5.006 0 0 0 -4.932-4.167c-2.762 0-5 1.822-5 4.583s2.5 4.012 5 4.584 5 1.822 5 4.584-2.238 4.584-5 4.584a5 5 0 0 1 -5-5"/><path d="m22.018 12.832v-2.831m0 23.998v-2.832"/><path d="m42 53.999v-2.834"/><path d="m37 46.165a5 5 0 0 0 5 5c2.762 0 5-1.822 5-4.582s-2.5-4.021-5-4.583a9.814 9.814 0 0 1 -2.887-1.1"/><path d="m46.93 37a4.993 4.993 0 0 0 -1.535-2.835"/></g></svg>