<svg viewBox="0 0 64 64" xmlns="http://www.w3.org/2000/svg"><g style="fill:none;stroke:#2e2c2d;stroke-miterlimit:10;stroke-width:3;stroke-linejoin:round;stroke-linecap:round"><path d="m2 49.5v-33.3s4-4.2 16-4.2 15.2 6 28 6a63.4 63.4 0 0 0 16-2.5v34s-4.4 2.5-14 2.5-17.2-6-28-6a44.8 44.8 0 0 0 -18 3.5z"/><path d="m41.9 31.6c1 5.5-2.7 10-8.1 10s-10.6-4.5-11.6-10 2.7-10 8.1-10 10.7 4.4 11.6 10z"/><path d="m11.9 12.4a10 10 0 0 1 -9.9 11.6m0 14a10 10 0 0 1 9.9 8.7m50.1-20.7a10 10 0 0 1 -9.9-8.4m.1 34.2a10.1 10.1 0 0 1 -.2-1.8 10 10 0 0 1 10-10"/></g></svg>