<svg viewBox="0 0 64 64" xmlns="http://www.w3.org/2000/svg"><g style="fill:none;stroke:#2e2c2d;stroke-miterlimit:10;stroke-width:3;stroke-linejoin:round;stroke-linecap:round"><path d="m38 18s18 14 18 34a10 10 0 0 1 -10 10h-28a10 10 0 0 1 -10-10c0-20 18-34 18-34s-12-10.4-12-14 8 2 12 2c5.7 0 6.3-4 10-4s4.1 4.1 10 4.1c2.3 0-2 6-8 11.9z"/><path d="m26 18h13a19.2 19.2 0 0 0 13-4m-2 8a6.5 6.5 0 0 1 6 3"/><path d="m37.9 34a6 6 0 0 0 -5.9-5c-3.3 0-6 2.2-6 5.5s3 4.8 6 5.5m-6 5a6 6 0 0 0 6 6c3.3 0 6-2.2 6-5.5s-3-4.8-6-5.5m0-11v-3m0 28v-3"/></g></svg>