<svg viewBox="0 0 64 64" xmlns="http://www.w3.org/2000/svg"><g style="stroke-width:3;stroke-miterlimit:10;stroke:#2e2c2d;fill:none;stroke-linejoin:round;stroke-linecap:round"><path d="m38 18.031s18 13.969 18 33.969a10 10 0 0 1 -10 10h-28a10 10 0 0 1 -10-10c0-20 18-33.969 18-33.969s-12-10.449-12-14.031 8 2 12 2c5.666 0 6.334-4 10-4s4.084 4.06 10 4.06c2.248 0-2 6.006-8 11.971z"/><path d="m26 18.031h13a19.166 19.166 0 0 0 13-4.031m-2 8a6.479 6.479 0 0 1 6 3"/><path d="m26 39h7a4.492 4.492 0 0 0 4.615-4.426 4.564 4.564 0 0 0 -4.564-4.564h-7.051v19.99h8a5.359 5.359 0 0 0 5.275-5.469 5.514 5.514 0 0 0 -5.394-5.531h-.881m-1 14.998v-4.09m0-19.899v-4.011"/></g></svg>