<svg viewBox="0 0 64 64" xmlns="http://www.w3.org/2000/svg"><g style="fill:none;stroke:#2e2c2d;stroke-miterlimit:10;stroke-width:3;stroke-linejoin:round;stroke-linecap:round"><path d="m38 18s18 14 18 34a10 10 0 0 1 -10 10h-28a10 10 0 0 1 -10-10c0-20 18-34 18-34s-12-10.4-12-14 8 2 12 2c5.7 0 6.3-4 10-4s4.1 4.1 10 4.1c2.2 0-2 6-8 11.9z"/><path d="m26 18h13a19.2 19.2 0 0 0 13-4m-2 8a6.5 6.5 0 0 1 6 3"/><path d="m20 38h14m-14 6h14m4-16h-1.7a13.4 13.4 0 0 0 -13.3 13c0 7.1 6.2 13 13.3 13h1.7"/></g></svg>