<svg viewBox="0 0 64 64" xmlns="http://www.w3.org/2000/svg"><g style="fill:none;stroke:#2e2c2d;stroke-miterlimit:10;stroke-width:3;stroke-linejoin:round;stroke-linecap:round"><circle cx="14" cy="26" r="4"/><path d="m17.6 27.8 18.4 8.2"/><circle cx="36" cy="36" r="2"/><path d="m37 22.6 4.2-6.6m-2.9-1.8 5.7 3.5m1.4 11.7 6.6-5.4m-2.3-2.7 4.6 5.4m-3.1 12 6.4-2.4m-1.1-3.1 2.2 6.2"/><path d="m59 46h-5.6a34 34 0 0 0 -21.4-25.8v-15.2a3 3 0 0 0 -3-3h-24a3 3 0 0 0 -3 3v54a3 3 0 0 0 3 3h54a3 3 0 0 0 3-3v-10a3 3 0 0 0 -3-3zm-5.6 0h-51.4"/></g></svg>