<svg viewBox="0 0 64 64" xmlns="http://www.w3.org/2000/svg"><g style="fill:none;stroke:#2e2c2d;stroke-miterlimit:10;stroke-width:3;stroke-linejoin:round;stroke-linecap:round"><path d="m55 37.6 3-15.6m-51.9 0 5.9 30h20m-6-50-17.9 20m29.9-20 18 20m-54 0h60"/><circle cx="47" cy="47" r="5"/><path d="m62 51-3.4-2a11.8 11.8 0 0 0 .2-2.1 11.9 11.9 0 0 0 -.2-2.3l3.1-1.6-4-6.9-3.1 1.8a11 11 0 0 0 -3.6-2.2v-3.7h-8v3.7a13 13 0 0 0 -3.9 2.1l-3.1-1.8-4 7 3 1.7a11.7 11.7 0 0 0 -.2 2.3 11.9 11.9 0 0 0 .2 2.1l-3.3 1.9 4 6.9 3.3-1.8a12.3 12.3 0 0 0 4 1.9v4h8v-4a10.5 10.5 0 0 0 3.7-2l3.3 2z"/></g></svg>