<svg viewBox="0 0 64 64" xmlns="http://www.w3.org/2000/svg"><g style="fill:none;stroke:#2e2c2d;stroke-miterlimit:10;stroke-width:3;stroke-linejoin:round;stroke-linecap:round"><path d="m32.2 24h-20.2m-10-16h6l10 40h32l6.4-18.7"/><circle cx="20" cy="56" r="4"/><circle cx="46" cy="56" r="4"/><circle cx="47" cy="19" r="5"/><path d="m62 23-3.4-2a11.8 11.8 0 0 0 .2-2.1 11.9 11.9 0 0 0 -.2-2.3l3.1-1.6-4-7-3.2 1.8a11.1 11.1 0 0 0 -3.5-2.1v-3.7h-8v3.7a13 13 0 0 0 -3.9 2.1l-3.1-1.8-4 7 3 1.7a11.7 11.7 0 0 0 -.2 2.3 11.9 11.9 0 0 0 .2 2.1l-3.3 1.9 4 6.9 3.3-1.8a13 13 0 0 0 4 2.2v3.7h8v-3.7a11.2 11.2 0 0 0 3.7-2.3l3.3 2z"/></g></svg>