<svg viewBox="0 0 64 64" xmlns="http://www.w3.org/2000/svg"><g style="fill:none;stroke:#2e2c2d;stroke-miterlimit:10;stroke-width:3;stroke-linejoin:round;stroke-linecap:round"><circle cx="21" cy="23" r="5"/><circle cx="43" cy="41" r="5"/><path d="m46 18-28 28"/><path d="m32 4.5 6-2.5 4.5 4.6h6.5l2.5 5.9 5.9 2.5v6.5l4.6 4.5-2.5 6 2.5 6-4.6 4.5v6.5l-5.9 2.5-2.5 5.9h-6.5l-4.5 4.6-6-2.5-6 2.5-4.5-4.6h-6.5l-2.5-5.9-5.9-2.5v-6.5l-4.6-4.5 2.5-6-2.5-6 4.6-4.5v-6.5l5.9-2.5 2.5-5.9h6.5l4.5-4.6z"/></g></svg>