<svg viewBox="0 0 64 64" xmlns="http://www.w3.org/2000/svg"><g style="fill:none;stroke:#2e2c2d;stroke-miterlimit:10;stroke-width:3;stroke-linejoin:round;stroke-linecap:round"><path d="m52.4 50.3 5.6-27.3m-51.9 0 5.9 30h28.5m-14.5-50-17.9 20m29.9-20 18 20m-54 0h60"/><path d="m55.3 50.1a2.4 2.4 0 0 0 -3.3.6c-1.2 1.5-1.7 3.4-7.2-2.1s-4-6.5-2.6-7.7a2.4 2.4 0 0 0 .6-3.3l-3.4-5.2c-.4-.7-1.1-1.7-2.5-1.5a7.2 7.2 0 0 0 -5 6.8c0 4.5 3.5 10 8.4 14.8s10.4 8.5 14.9 8.5a7.2 7.2 0 0 0 6.8-5c.2-1.4-.9-2-1.5-2.5z"/></g></svg>