<svg viewBox="0 0 64 64" xmlns="http://www.w3.org/2000/svg"><path d="m58 39h-2v-6.4a5.9 5.9 0 0 1 -2 .3h-8v6h2v8h-2v4a2 2 0 1 1 -4 0v-3.9h-2v-8h2v-6h-19.9v6h2v8h-2v4a2 2 0 1 1 -4 0v-4h-2v-8h2v-6h-8.1a5.9 5.9 0 0 1 -2-.3v6.5h-2a4 4 0 0 0 -4 4v15.8a4 4 0 0 0 4 4h52a4 4 0 0 0 4-4v-16a4 4 0 0 0 -4-4zm-48-10h8.1v-18h-6.1a4 4 0 0 0 -4 4v12a2 2 0 0 0 2 2zm12.1 0h19.9v-18a10 10 0 1 0 -20 0h.1zm9.9-24a6 6 0 0 1 6 6h-12a6 6 0 0 1 6-6zm24 22v-12a4 4 0 0 0 -4-4h-6v18h8a2 2 0 0 0 2-2z" fill="#2e2c2d"/></svg>