<svg viewBox="0 0 64 64" xmlns="http://www.w3.org/2000/svg"><g fill="#2e2c2d"><path d="m64 40a9.7 9.7 0 0 0 -4.9 1.2l-.5.3h-.1l-1 .3h-1.5a5.8 5.8 0 0 1 -3.1-.8 10.5 10.5 0 0 0 -9.8 0 6.5 6.5 0 0 1 -6.2 0 9.7 9.7 0 0 0 -4.9-1 9.7 9.7 0 0 0 -4.9 1.2 5.8 5.8 0 0 1 -3.1.8 5.8 5.8 0 0 1 -3.1-.8 9.7 9.7 0 0 0 -4.9-1.2 9.7 9.7 0 0 0 -4.9 1.2 5.8 5.8 0 0 1 -3.1.8 5.8 5.8 0 0 1 -3.1-.8 9.7 9.7 0 0 0 -4.9-1.2 2 2 0 0 0 -2 2 2 2 0 0 0 2 2 5.8 5.8 0 0 1 3.1.8 9.7 9.7 0 0 0 4.9 1.2 9.7 9.7 0 0 0 4.9-1.2 5.8 5.8 0 0 1 3.1-.8 5.8 5.8 0 0 1 3.1.8 9.7 9.7 0 0 0 4.9 1.2 9.7 9.7 0 0 0 4.9-1.2 5.8 5.8 0 0 1 3.1-.8 5.8 5.8 0 0 1 3.1.8 10.5 10.5 0 0 0 9.8 0 6.5 6.5 0 0 1 6.2 0 9.7 9.7 0 0 0 4.9 1.2h.9l1.4-.2h.1l.6-.2.5-.2h.7l.7-.3a5.8 5.8 0 0 1 3.1-1.1 2 2 0 0 0 0-4zm-15.5-16-4.5-6h-12.6l3.6 6z"/><path d="m3.6 36.4a14.9 14.9 0 0 1 3.1 1.2 2 2 0 0 0 1.3.4 2 2 0 0 0 1.3-.4 13.7 13.7 0 0 1 6.7-1.6 13.7 13.7 0 0 1 6.7 1.6 2 2 0 0 0 1.3.4 2 2 0 0 0 1.3-.4 13.7 13.7 0 0 1 6.7-1.6 13.7 13.7 0 0 1 6.7 1.6 2.6 2.6 0 0 0 2.6 0 13.7 13.7 0 0 1 6.7-1.6 13.5 13.5 0 0 1 5.9 1.3l4.9-5c1.3-1.3 1.1-2.9-.1-3.3l-2.9-1h-21a2 2 0 0 1 -1.7-1l-5.5-9h-8.6l6 10h-25z"/></g></svg>