<svg viewBox="0 0 64 64" xmlns="http://www.w3.org/2000/svg"><g fill="#2e2c2d"><path d="m56.1 14v-8a4 4 0 0 0 -4-4h-40a4 4 0 0 0 -4 4v8zm-26.9-8h5.9a2 2 0 0 1 0 4h-5.9a2 2 0 0 1 0-4zm-21.1 34v14h48v-14zm13.9 8h-5.8a2 2 0 0 1 0-4h5.9a2 2 0 0 1 0 4zm26.1 0h-5.8a2 2 0 0 1 0-4h5.9a2 2 0 0 1 0 4z"/><path d="m10.1 60a2 2 0 0 0 2 2h6a2 2 0 0 0 2-2v-3h-10z"/><path d="m44.1 60a2 2 0 0 0 2 2h6a2 2 0 0 0 2-2v-3h-10z"/><path d="m8.1 18v18h25.2l9.4-9.4a2 2 0 0 1 2.8 2.8l-6.6 6.6h17.2v-18zm53.9 10a2 2 0 0 0 -2 2v1.2l-3.9 3.8v5a2 2 0 0 0 1.3-.6l2.6-2.6v1.2a2 2 0 0 0 4 0v-8a2 2 0 0 0 -2-2zm-53.9 7.3-4.1-4.1v-1.2a2 2 0 1 0 -4 0v8a2 2 0 1 0 4 0v-1.2l2.6 2.6a2 2 0 0 0 1.4.6h.1z"/></g></svg>