<svg viewBox="0 0 64 64" xmlns="http://www.w3.org/2000/svg"><g fill="#2e2c2d"><path d="m56 51a2 2 0 0 0 -2 2 4 4 0 0 1 -8 .1 2 2 0 0 0 -2-2 2 2 0 0 0 -2 2 4 4 0 0 1 -8-.1 2 2 0 0 0 -2-2 2 2 0 0 0 -2 2 4 4 0 0 1 -8 .1 2 2 0 0 0 -2-2 2 2 0 0 0 -2 2 4 4 0 0 1 -8-.1 2 2 0 1 0 -4 0 8 8 0 0 0 14 5.3 8 8 0 0 0 12 0 8 8 0 0 0 12 0 8 8 0 0 0 14-5.3 2 2 0 0 0 -2-2z"/><path d="m10.4 31 21.6-4 21.7 4h.3a2 2 0 0 0 .4-4l-8.4-1.5v-12.6a1.9 1.9 0 0 0 -1.9-1.9h-8.1v-8h-8v8h-8.1a1.9 1.9 0 0 0 -1.9 1.9v12.6l-8.3 1.5a2 2 0 1 0 .7 3.9zm15.6-14h12a2 2 0 0 1 0 4h-12a2 2 0 0 1 0-4zm-12 17.3a56.6 56.6 0 0 0 4.1 13.1 5.9 5.9 0 0 1 1.9-.3 6 6 0 0 1 6 5.9 6 6 0 0 1 5.5-6h1a6 6 0 0 1 5.5 6 6 6 0 0 1 6-5.9 5.9 5.9 0 0 1 1.9.3 56.5 56.5 0 0 0 4.1-13.1l-18-3.2zm10 6.7a2 2 0 1 1 2-2 2 2 0 0 1 -2 2zm16-4a2 2 0 1 1 -2 2 2 2 0 0 1 2-2z"/></g></svg>