<svg viewBox="0 0 64 64" xmlns="http://www.w3.org/2000/svg"><g fill="#2e2c2d"><path d="m51.3 51.5a31.9 31.9 0 0 0 -6.6-8.5 17.5 17.5 0 0 0 4.3-11.5 17.9 17.9 0 0 0 -.2-2.6 19.9 19.9 0 0 1 -15.8 7.6 19.9 19.9 0 0 1 -15.8-7.6 18.2 18.2 0 0 0 -.2 2.6 17.5 17.5 0 0 0 4.3 11.5 31.9 31.9 0 0 0 -6.5 8.5 5 5 0 1 0 3.8 1.4 27.9 27.9 0 0 1 5.7-7.2 15.2 15.2 0 0 0 17.5 0 27.8 27.8 0 0 1 5.7 7.2 5 5 0 1 0 3.8-1.4z"/><path d="m62 6.5h-27v-2a2 2 0 1 0 -4 0v2h-29a2 2 0 0 0 0 4h29v4.1a16.1 16.1 0 0 0 -12.3 9.2 15.6 15.6 0 0 0 14.3 8.7 15.6 15.6 0 0 0 14.3-8.7 16.1 16.1 0 0 0 -12.3-9.2v-4.1h27a2 2 0 0 0 0-4z"/></g></svg>