<svg viewBox="0 0 64 64" xmlns="http://www.w3.org/2000/svg"><g fill="#2e2c2d"><path d="m62.1 14.5h-46.6a1.9 1.9 0 0 0 0 3.9h21.3v4h3.9v-4h21.4a1.9 1.9 0 0 0 0-3.9z"/><path d="m54.3 45.6h-27.1a1.9 1.9 0 0 0 0 3.9h27.1a1.9 1.9 0 0 0 0-3.9z"/><path d="m30.3 26.2h-20.6a3.2 3.2 0 0 1 -2.4-1.1l-3.7-5.8a1.9 1.9 0 0 0 -3.3 2.1l3.8 5.9a7.1 7.1 0 0 0 5.5 2.7h19.6c-.1.7-.1 1.4-.1 1.9 0 3.1 1.2 9.7 8.2 9.7h13a5.8 5.8 0 0 0 5.6-3.9h-11.5c-4.9 0-7.5-2.8-7.5-7.8v-7.5c-3.7.4-5.6 2-6.6 3.8z"/><path d="m44.4 33.9h11.5c-1.4-4.9-7.6-10.7-15.2-11.5v7.6c0 2.9 1 3.9 3.7 3.9z"/></g></svg>