<svg viewBox="0 0 64 64" xmlns="http://www.w3.org/2000/svg"><g fill="#2e2c2d"><path d="m3.1 11.8 12 6 .9.2a2 2 0 0 0 .9-3.8l-12-6a2 2 0 0 0 -1.8 3.6zm14.7 9.3a2 2 0 0 0 -2.7-.9l-12 6a2 2 0 0 0 .9 3.8l.9-.2 12-6a2 2 0 0 0 .9-2.7zm43.1 5.1-12-6a2 2 0 0 0 -1.8 3.6l12 6 .9.2a2 2 0 0 0 .9-3.8zm-12.9-8.2.9-.2 12-6a2 2 0 1 0 -1.8-3.6l-12 6a2 2 0 0 0 .9 3.8z"/><path d="m25 17h14a2 2 0 0 0 0-4h-1a6 6 0 0 0 -4-5.7 1.9 1.9 0 0 0 0-.3v-5a2 2 0 1 0 -4 0v5a1.9 1.9 0 0 0 0 .3 6 6 0 0 0 -4 5.7h-1a2 2 0 0 0 0 4zm-3 16h20v23.99h-20zm-2-3h24a2 2 0 0 0 0-4h-6v-6h-12v6h-6a2 2 0 0 0 0 4zm28 30h-32a2 2 0 1 0 0 4h32a2 2 0 0 0 0-4z"/></g></svg>