<svg viewBox="0 0 64 64" xmlns="http://www.w3.org/2000/svg"><g fill="#2e2c2d"><path d="m56 53a2 2 0 0 0 -2 2 4 4 0 0 1 -8 .1 2 2 0 0 0 -2-2 2 2 0 0 0 -2 2 4 4 0 0 1 -8-.1 2 2 0 0 0 -2-2 2 2 0 0 0 -2 2 4 4 0 0 1 -8 .1 2 2 0 0 0 -2-2 2 2 0 0 0 -2 2 4 4 0 0 1 -8-.1 2 2 0 1 0 -4 0 8 8 0 0 0 14 5.3 8 8 0 0 0 12 0 8 8 0 0 0 12 0 8 8 0 0 0 14-5.3 2 2 0 0 0 -2-2z"/><path d="m10.4 31 3-.5a96.2 96.2 0 0 0 4.5 19.1 5.9 5.9 0 0 1 2.1-.4 6 6 0 0 1 6 5.8 6 6 0 0 1 4-5.7v-26h4v26a6 6 0 0 1 4 5.7 6 6 0 0 1 6-5.9 5.9 5.9 0 0 1 2.1.4 96.4 96.4 0 0 0 4.5-19.1l3 .5h.4a2 2 0 0 0 .4-4l-8.4-1.4v-10.6a1.9 1.9 0 0 0 -1.9-1.9h-24.2a1.9 1.9 0 0 0 -1.9 1.9v10.6l-8.4 1.5a2 2 0 0 0 .7 3.9zm15.6-14h12a2 2 0 0 1 0 4h-12a2 2 0 0 1 0-4z"/><path d="m28 1h8v8h-8z"/></g></svg>