<svg viewBox="0 0 64 64" xmlns="http://www.w3.org/2000/svg"><g fill="#2e2c2d"><path d="m61.9 2.1s-14.4-2.3-30.6 13.9c-9.8 9.8-17.9 24-17.9 24l10.6 10.6s14.2-8.1 24-17.9c16.2-16.2 13.9-30.6 13.9-30.6zm-19.5 25.1a3.9 3.9 0 1 1 0-5.6 3.9 3.9 0 0 1 0 5.6zm9.7-9.7a3.9 3.9 0 1 1 0-5.6 3.9 3.9 0 0 1 0 5.5z"/><path d="m26.1 54.1-2.7 1.5-.4-.4-1.5 6.8a50.9 50.9 0 0 0 12.9-6.7c5-3.5 5.7-6.6 5.4-10.4a150.7 150.7 0 0 1 -13.7 9.2zm-6.9-30c-3.9-.3-7 .4-10.5 5.4a51 51 0 0 0 -6.7 13l6.8-1.5-.4-.4 1.6-2.6a149.6 149.6 0 0 1 9.2-13.9z"/></g></svg>