<svg viewBox="0 0 64 64" xmlns="http://www.w3.org/2000/svg"><g fill="#2e2c2d"><path d="m62 43.5s-.2-9.9-10-9.9h-4v-18.1c0-4.2-4-6-6-6h-4a2 2 0 0 0 0 4h4c.2 0 2 .5 2 2v18.2c0 1.7-1.8 8.5-10.1 8.5h-.2a14 14 0 0 0 -13.7-10.7h-4a14 14 0 0 0 -14 14h30.3a2 2 0 0 0 1.5.7 14.3 14.3 0 0 0 8.8-2.7z"/><path d="m16 31.5h4a21 21 0 0 0 9-1.7c3.1-1.8 3.3-6.3-5.1-6.3h-21.7c1 6.1 6.8 8 13.8 8z"/><path d="m52 23.5a2 2 0 0 0 2-2v-6a2 2 0 1 0 -4 0v6a2 2 0 0 0 2 2zm-38 31a8 8 0 0 0 7.4-5h-14.8a8 8 0 0 0 7.4 5zm38 0a8 8 0 0 0 7.9-7h-15.9a8 8 0 0 0 8 7z"/></g></svg>