<svg viewBox="0 0 64 64" xmlns="http://www.w3.org/2000/svg"><g fill="#2e2c2d"><path d="m56.4 32.5a1 1 0 0 0 -.5-1.4c-8.4-3.3-11.8-4.8-13.2-5.4l-7.7-8a2 2 0 0 0 -2.9 2.8l4.4 4.5h-3a1 1 0 0 0 -.8.4c-1.8 2.6-6.7 5.6-14.9 5.6a43 43 0 0 1 -9.1-1l-1.2-6.4a2 2 0 1 0 -3.9.8l1.3 6.6v.4l-4.2 5.4v.5a1 1 0 0 0 .1.3c1 3 4.1 9.4 6.7 9.4h19.7a1 1 0 0 0 .8-.4l4.1-5.6c18.7-.6 23.3-6.6 24.3-8.5z"/><path d="m62.1 37.1a2 2 0 0 0 -2.5 1.3c-1.2 3.6-6.1 4.6-8.8 4.6h-15.3a2 2 0 0 0 0 4h15.3c4.7 0 10.8-1.9 12.6-7.4a2 2 0 0 0 -1.3-2.5z"/></g></svg>