<svg viewBox="0 0 64 64" xmlns="http://www.w3.org/2000/svg"><g fill="#2e2c2d"><path d="m45 33.5a13 13 0 0 0 -9-12.4v-6.6a2 2 0 0 0 0-4h-8a2 2 0 0 0 0 4v6.6a13 13 0 1 0 17 12.4zm-13 4.3a4.3 4.3 0 1 1 4.3-4.3 4.3 4.3 0 0 1 -4.3 4.3zm24.9 21.9-9.8-5.3 2.9-1-3.3-11.4a17 17 0 0 1 -12.7 8.4v8.5l7.9-2.6 13.2 7.1.9.2a2 2 0 0 0 .9-3.8zm-39.6-17.7-3.3 11.5 3.1 1-10 5.2a2 2 0 0 0 .9 3.8l.9-.2 13.5-7 7.6 2.5v-8.4a17 17 0 0 1 -12.7-8.4z"/><path d="m28 6.5h8a6 6 0 0 1 4 10.5v4.2a8.2 8.2 0 0 0 2.1-1 4.8 4.8 0 0 0 7.8-5 4.5 4.5 0 0 0 -.9-8.9l-1.5.3a3 3 0 0 0 -4.3-1.9 4.9 4.9 0 0 0 -9.4-.7 4.2 4.2 0 0 0 -7.7 2.3 4.2 4.2 0 0 0 0 .5 6 6 0 0 1 1.9-.3z"/></g></svg>