<svg viewBox="0 0 64 64" xmlns="http://www.w3.org/2000/svg"><g fill="#2e2c2d"><path d="m46 58a2 2 0 0 0 2 2h8a2 2 0 0 0 2-2v-3h-12zm-40 0a2 2 0 0 0 2 2h8a2 2 0 0 0 2-2v-3h-12z"/><path d="m60 42v-6h-10a2 2 0 0 1 -2-2v-4a2 2 0 0 1 2-2h10v-.621c0-2.008-1.639-3.979-3.16-5.379h-49.686c-1.522 1.4-3.16 3.371-3.16 5.379v.621h10.006a2 2 0 0 1 2 2v4a2 2 0 0 1 -2 2h-10v6a2 2 0 0 0 -2 2v6a2 2 0 0 0 2 2h56a2 2 0 0 0 2-2v-6a2 2 0 0 0 -2-2zm-34-8a2 2 0 1 1 -4 0v-4a2 2 0 1 1 4 0zm8 0a2 2 0 1 1 -4 0v-4a2 2 0 1 1 4 0zm8 0a2 2 0 1 1 -4 0v-4a2 2 0 1 1 4 0z"/><path d="m60 16h-7.277l-4.723-12h-32l-4.725 12h-7.275a2 2 0 0 0 0 4h5.664l.851-2h42.96l.765 2h5.76a2 2 0 0 0 0-4z"/></g></svg>