<svg viewBox="0 0 64 64" xmlns="http://www.w3.org/2000/svg"><g fill="#2e2c2d"><path d="m54.6 13.8a5.7 5.7 0 0 0 -5.5-5.3h-9.1v-7h-16v7h-9.1a5.7 5.7 0 0 0 -5.5 5.3c-.2 1.9-.7 7.4-1.1 11.2h47.4c-.4-3.8-.9-9.3-1.1-11.2zm6.1 19.4-2-2a11.3 11.3 0 0 0 -2.7-2.2h-48a11.4 11.4 0 0 0 -2.7 2.2l-2 2a5 5 0 0 0 -1.3 3.5v15.8h60v-15.8a5 5 0 0 0 -1.3-3.5zm-40.7 9.3a2 2 0 0 1 -2 2h-6a2 2 0 0 1 -2-2v-2a2 2 0 0 1 2-2h6a2 2 0 0 1 2 2zm16 2h-8a2 2 0 0 1 0-4h8a2 2 0 0 1 0 4zm18-2a2 2 0 0 1 -2 2h-6a2 2 0 0 1 -2-2v-2a2 2 0 0 1 2-2h6a2 2 0 0 1 2 2z"/><path d="m6 59.5a3 3 0 0 0 3 3h4a3 3 0 0 0 3-3v-3h-10zm42 0a3 3 0 0 0 3 3h4a3 3 0 0 0 3-3v-3h-10z"/></g></svg>