<svg viewBox="0 0 64 64" xmlns="http://www.w3.org/2000/svg"><path d="m62 51h-2v-12h-16v12h-4v-30h4v14h16v-14h2a2 2 0 0 0 0-4h-25l3.8-3.8-6.1-6.2h13.3a2 2 0 0 0 0-4h-32a2 2 0 0 0 0 4h13.3l-6.2 6.2 3.9 3.8h-25a2 2 0 0 0 0 4h2v14h16v-14h4v30h-4v-12h-16v12h-2a2 2 0 0 0 0 4h.6a4 4 0 0 0 -.6 2 4 4 0 1 0 8 0 4 4 0 0 0 -.6-2h3.1a3.9 3.9 0 0 0 -.6 2 4 4 0 0 0 8 0 4 4 0 0 0 -.6-2h25.3a4 4 0 0 0 -.6 2 4 4 0 1 0 8 0 4 4 0 0 0 -.6-2h3.1a4 4 0 0 0 -.6 2 4 4 0 1 0 8 0 4 4 0 0 0 -.6-2h.7a2 2 0 0 0 0-4zm-30-41 3.2 3.2-3.2 3.1-3.2-3.2zm2 11v30h-4v-30z" fill="#2e2c2d"/></svg>