<svg viewBox="0 0 64 64" xmlns="http://www.w3.org/2000/svg"><path d="m46.9 2-5.9 4-6-4-6 4-6-4-6 4-6-4v54l6.1 6 6-4 6 4 6-4 6 4 6-4 6 4v-54zm-23.9 44h-4a2 2 0 0 1 0-4h4a2 2 0 0 1 0 4zm4-8h-8a2 2 0 0 1 0-4h8a2 2 0 0 1 0 4zm0-8h-8a2 2 0 0 1 0-4h8a2 2 0 0 1 0 4zm2-8h-10a2 2 0 0 1 0-4h10a2 2 0 0 1 0 4zm13 16.6v.8a2 2 0 1 1 -4 0v-.8a7 7 0 0 1 -5-6.7 2 2 0 1 1 4 0 3 3 0 0 0 3 3c1.5 0 3-.8 3-2.6s0-1.9-3.4-2.6c-5.8-1.4-6.6-4.7-6.6-6.6a6.5 6.5 0 0 1 5-6.3v-.8a2 2 0 1 1 4 0v.8a7 7 0 0 1 4.9 5.5 2 2 0 1 1 -3.9.7 3 3 0 0 0 -3-2.5c-1.5 0-3 .8-3 2.6s0 1.8 3.4 2.6c5.7 1.3 6.6 4.7 6.6 6.6a6.5 6.5 0 0 1 -5 6.3z" fill="#2e2c2d"/></svg>