<svg viewBox="0 0 64 64" xmlns="http://www.w3.org/2000/svg"><g fill="#2e2c2d"><path d="m34 30h26v-18a8 8 0 0 0 -8-8h-18zm7-14h12a2 2 0 0 1 0 4h-12a2 2 0 0 1 0-4zm-11 18h-26v18a8 8 0 0 0 8 8h18zm-7.6 18.4a2 2 0 0 1 -2.8 0l-2.6-2.6-2.6 2.6a2 2 0 1 1 -2.8-2.8l2.6-2.6-2.6-2.6a2 2 0 1 1 2.8-2.8l2.6 2.6 2.6-2.6a2 2 0 0 1 2.8 2.8l-2.6 2.6 2.6 2.6a2 2 0 0 1 0 2.8z"/><path d="m30 30v-26h-18a8 8 0 0 0 -8 8v18zm-19-15h4v-4a2 2 0 1 1 4 0v4h4a2 2 0 0 1 0 4h-4v4a2 2 0 0 1 -4 0v-4h-4a2 2 0 0 1 0-4zm23 19v26h18a8 8 0 0 0 8-8v-18zm17 19h-8a2 2 0 0 1 0-4h8a2 2 0 0 1 0 4zm0-8h-8a2 2 0 0 1 0-4h8a2 2 0 0 1 0 4z"/></g></svg>