<svg viewBox="0 0 64 64" xmlns="http://www.w3.org/2000/svg"><g fill="#2e2c2d"><path d="m56.7 35h-49.4l-4.6 14h58.6zm-37.7 12h-4v-4h4zm5-6h-4v-4h4zm5 6h-4v-4h4zm5-6h-4v-4h4zm5 6h-4v-4h4zm5-6h-4v-4h4zm5 6h-4v-4h4z"/><path d="m2 53h60v10h-60z"/><path d="m56 23a4 4 0 0 0 -4-4h-6v-6h3a5 5 0 0 0 5-5v-2a5 5 0 0 0 -5-5h-10a5 5 0 0 0 -5 5v2a5 5 0 0 0 5 5h3v6h-10v6h-4v-14h-12v14h-4v-6a4 4 0 0 0 -4 4v8h48zm-17-14a1 1 0 0 1 -1-1v-2a1 1 0 0 1 1-1h10a1 1 0 0 1 1 1v2a1 1 0 0 1 -1 1zm9 19h-12a2 2 0 0 1 0-4h12a2 2 0 0 1 0 4z"/></g></svg>