<svg viewBox="0 0 64 64" xmlns="http://www.w3.org/2000/svg"><g fill="#2e2c2d"><path d="m10 3h-8v8a8 8 0 0 0 8-8zm44 0a8 8 0 0 0 8 8v-8zm-52 28v8h8a8 8 0 0 0 -8-8z"/><ellipse cx="42" cy="33" rx="12" ry="4"/><path d="m30 38.7v2.7h.1c.6 2 5.7 3.6 11.9 3.6s11.3-1.6 11.9-3.6h.1v-2.7c-3.1 1.6-7.6 2.3-12 2.3s-8.9-.7-12-2.3zm0 8v2.7h.1c.6 2 5.7 3.6 11.9 3.6s11.3-1.6 11.9-3.6h.1v-2.7c-3.1 1.6-7.6 2.3-12 2.3s-8.9-.7-12-2.3zm0 8v2.7h.1c.6 2 5.7 3.6 11.9 3.6s11.3-1.6 11.9-3.6h.1v-2.7c-3.1 1.6-7.6 2.3-12 2.3s-8.9-.7-12-2.3z"/><path d="m50 3h-36a12 12 0 0 1 -12 12v12a12 12 0 0 1 12 12h12v-.3a4 4 0 0 1 1-2.6 5.5 5.5 0 0 1 -1-3.1 5.8 5.8 0 0 1 2.6-4.8 8 8 0 1 1 10.3-3.1h3.1c7.7 0 16 2.1 16 8a5.5 5.5 0 0 1 -1 3.1 4 4 0 0 1 1 2.6v.2h4v-24a12 12 0 0 1 -12-12zm-34 20h-4a2 2 0 0 1 0-4h4a2 2 0 0 1 0 4zm36 0h-4a2 2 0 0 1 0-4h4a2 2 0 0 1 0 4z"/></g></svg>