<svg viewBox="0 0 64 64" xmlns="http://www.w3.org/2000/svg"><path d="m46.9 2-5.9 4-6-4-6 4-6-4-6 4-6-4v54l6.1 6 6-4 6 4 6-4 6 4 6-4 6 4v-54zm-15.9 44h-12a2 2 0 0 1 0-4h12a2 2 0 0 1 0 4zm4-8h-16a2 2 0 0 1 0-4h16a2 2 0 0 1 0 4zm-18-10a2 2 0 0 1 2-2h12a2 2 0 0 1 0 4h-12a2 2 0 0 1 -2-2zm18-6h-16a2 2 0 0 1 0-4h16a2 2 0 0 1 0 4zm10 24h-2a2 2 0 0 1 0-4h2a2 2 0 0 1 0 4zm0-8h-2a2 2 0 0 1 0-4h2a2 2 0 0 1 0 4zm0-8h-2a2 2 0 0 1 0-4h2a2 2 0 0 1 0 4zm0-8h-2a2 2 0 0 1 0-4h2a2 2 0 0 1 0 4z" fill="#2e2c2d"/></svg>