<svg viewBox="0 0 64 64" xmlns="http://www.w3.org/2000/svg"><g fill="#2e2c2d"><path d="m52.2 12.7a2 2 0 0 0 -2.8-.3 17.4 17.4 0 0 1 -10.8 3.6 3.8 3.8 0 0 0 .4 4 21.2 21.2 0 0 0 12.9-4.5 2 2 0 0 0 .3-2.8zm4.8 11.7a10 10 0 0 0 -8.3-4.4 2 2 0 0 0 0 4 6 6 0 0 1 5 2.6 2 2 0 0 0 3.3-2.2z"/><path d="m39 20.1h-16.6c-4.8 4.5-15.7 16.3-15.7 31.9a10 10 0 0 0 10 10h28a10 10 0 0 0 10-10c0-15.5-10.8-27.4-15.7-31.9zm1.3 11.2-7 8.8h2.9a2 2 0 0 1 0 4h-3.5v2h3.6a2 2 0 0 1 0 4h-3.6v4a2 2 0 1 1 -4 0v-4.1h-3.6a2 2 0 0 1 0-4h3.6v-2h-3.6a2 2 0 0 1 0-4h2.9l-6.9-8.8a2 2 0 1 1 3.1-2.5l6.4 8.1 6.5-8.2a2 2 0 0 1 3.1 2.5zm4.4-25.2c-5.9 0-6.3-4.1-10-4.1s-4.3 4-10 4c-4 0-12-5.6-12-2s6.3 8.8 9.8 12h16.1c4.9-5.2 8.1-9.9 6.1-9.9z"/></g></svg>