<svg viewBox="0 0 64 64" xmlns="http://www.w3.org/2000/svg"><g fill="#2e2c2d"><path d="m52.2 12.7a2 2 0 0 0 -2.8-.3 17.4 17.4 0 0 1 -10.8 3.6 3.8 3.8 0 0 0 .4 4 21.2 21.2 0 0 0 12.9-4.5 2 2 0 0 0 .3-2.8zm4.8 11.7a10 10 0 0 0 -8.3-4.4 2 2 0 0 0 0 4 6 6 0 0 1 5 2.6 2 2 0 0 0 3.3-2.2z"/><path d="m39 20.1h-16.6c-4.8 4.5-15.7 16.3-15.7 31.9a10 10 0 0 0 10 10h28a10 10 0 0 0 10-10c0-15.5-10.8-27.4-15.7-31.9zm-.3 15.9a2 2 0 0 1 -2-2 4 4 0 1 0 -8 0v6h8a2 2 0 0 1 0 4h-8v3.2a8.6 8.6 0 0 1 -.4 2.8h9.6a2 2 0 0 1 0 4h-16a2 2 0 0 1 0-4c2.1 0 2.8-.7 2.8-2.8v-3.2h-2a2 2 0 0 1 0-4h2v-6a8 8 0 1 1 16 0 2 2 0 0 1 -2 2zm6-29.9c-5.9 0-6.3-4.1-10-4.1s-4.3 4-10 4c-4 0-12-5.6-12-2s6.3 8.8 9.8 12h16.1c4.9-5.2 8.1-9.9 6.1-9.9z"/></g></svg>