<svg viewBox="0 0 64 64" xmlns="http://www.w3.org/2000/svg"><g fill="#2e2c2d"><path d="m22 2a20 20 0 1 0 20 20 20 20 0 0 0 -20-20zm2 30.9v1.1a2 2 0 1 1 -4 0v-1.1a7 7 0 0 1 -5-6.7 2 2 0 1 1 4 0 3 3 0 0 0 3 3c1.4 0 3-.8 3-2.6s0-1.9-3.4-2.6c-5.7-1.3-6.5-4.7-6.5-6.5a6.5 6.5 0 0 1 5-6.3v-1.2a2 2 0 1 1 4 0v1.1a7 7 0 0 1 4.9 5.5 2 2 0 0 1 -3.9.7 3 3 0 0 0 -3-2.5c-1.4 0-3 .8-3 2.6s0 1.8 3.4 2.6c5.7 1.3 6.5 4.6 6.5 6.5a6.5 6.5 0 0 1 -5 6.4z"/><path d="m46 22.4a23.9 23.9 0 0 1 -7 16.5 2 2 0 0 1 1.1.3 7.9 7.9 0 0 0 2.3.9c5.7 1.3 6.5 4.6 6.5 6.5a6.5 6.5 0 0 1 -5 6.3v1.1a2 2 0 1 1 -4 0v-1.1a7 7 0 0 1 -5-6.7 2 2 0 1 1 4 0 3 3 0 0 0 3 3c1.4 0 3-.8 3-2.6s0-1.9-3.4-2.6a11.8 11.8 0 0 1 -3.5-1.3 2 2 0 0 1 -.9-2 23.9 23.9 0 0 1 -14.7 5.3 20 20 0 1 0 23.6-23.6zm1.3 16.6h-.3a2 2 0 0 1 -2-1.7 3 3 0 0 0 -.9-1.7 2 2 0 0 1 2.7-2.9 7 7 0 0 1 2.2 4 2 2 0 0 1 -1.7 2.3z"/></g></svg>