<svg viewBox="0 0 64 64" xmlns="http://www.w3.org/2000/svg"><g fill="#2e2c2d"><path d="m59 46h-57v13a3 3 0 0 0 3 3h54a3 3 0 0 0 3-3v-10a3 3 0 0 0 -3-3z"/><path d="m14 20a6 6 0 1 0 4.2 10.3l13.8 6.1a4 4 0 1 0 1.6-3.7l-13.6-6a6 6 0 0 0 -6-6.7zm0 8a2 2 0 1 1 2-2 2 2 0 0 1 -2 2z"/><path d="m28.8 39.3-10.1-4.4a10 10 0 1 1 5.1-10.9l9.8 4.4a7.9 7.9 0 0 1 2.4-.4 8 8 0 0 1 5.3 14h11.2l-.5-1.4 4.4-1.7.4 1.2a2 2 0 0 0 1.9 1.3h.7a2 2 0 0 0 1.2-2.6l-2.3-6.2a2 2 0 1 0 -3.8 1.4l.5 1.2-4.5 1.7h-.1a33.9 33.9 0 0 0 -3.8-5.9l5.1-4.1 1 1.2a2 2 0 1 0 3.1-2.6l-2.2-2.7-2.3-2.8a2 2 0 1 0 -3.1 2.6l1 1.2-5.1 4.1h-.1a34.1 34.1 0 0 0 -5.3-4.3l3.2-4.9 1.1.7a2 2 0 0 0 2.1-3.4l-5.7-3.5a2 2 0 0 0 -2.1 3.4l1.2.7-3.2 4.9h-.1l-3.2-1.3v-15.2a3 3 0 0 0 -3-3h-24a3 3 0 0 0 -3 3v37h28.7a8 8 0 0 1 -1.9-2.7z"/></g></svg>