<svg viewBox="0 0 64 64" xmlns="http://www.w3.org/2000/svg"><g fill="#2e2c2d"><path d="m62 19h-2v-4a2 2 0 0 0 -4 0v4h-5l4.8-11.2a2 2 0 1 0 -3.7-1.6l-7.1 16.8h11v4a2 2 0 0 0 4 0v-4h2a2 2 0 0 0 0-4z"/><path d="m44 25h-7.7l5.9-6.9a8 8 0 0 0 -11.5-11 2 2 0 1 0 2.7 3 4 4 0 0 1 6.6 2.9 3.9 3.9 0 0 1 -.9 2.5l-11.4 13.5h16.3a2 2 0 0 0 0-4z"/><circle cx="20" cy="55" r="4"/><circle cx="46" cy="55" r="4"/><path d="m55.1 32.3a6 6 0 0 1 -3.1-5.3h-2a6 6 0 0 1 -6 6h-16.3a4 4 0 0 1 -3-6.6l2.8-3.4h-11.7l-3.9-16.5a2 2 0 0 0 -1.9-1.5h-8a2 2 0 0 0 0 4h6.4l9 38h33l1.6-4.9z"/></g></svg>