<svg viewBox="0 0 64 64" xmlns="http://www.w3.org/2000/svg"><g fill="#2e2c2d"><path d="m44 18h8v36h-8zm15 0h-3v36h3a3 3 0 0 0 3-3v-30a3 3 0 0 0 -3-3z"/><path d="m37 2h-32a3 3 0 0 0 -3 3v54a3 3 0 0 0 3 3h32a3 3 0 0 0 3-3v-54a3 3 0 0 0 -3-3zm-27 8h22v16h-22zm2 44h-2a2 2 0 0 1 0-4h2a2 2 0 1 1 0 4zm0-8h-2a2 2 0 0 1 0-4h2a2 2 0 1 1 0 4zm0-8h-2a2 2 0 0 1 0-4h2a2 2 0 1 1 0 4zm10 16h-2a2 2 0 1 1 0-4h2a2 2 0 0 1 0 4zm0-8h-2a2 2 0 0 1 0-4h2a2 2 0 1 1 0 4zm0-8h-2a2 2 0 1 1 0-4h2a2 2 0 0 1 0 4zm10 16h-2a2 2 0 1 1 0-4h2a2 2 0 0 1 0 4zm0-8h-2a2 2 0 0 1 0-4h2a2 2 0 0 1 0 4zm0-8h-2a2 2 0 1 1 0-4h2a2 2 0 0 1 0 4z"/></g></svg>