<svg viewBox="0 0 64 64" xmlns="http://www.w3.org/2000/svg"><g fill="#2e2c2d"><path d="m30 40h-22v18a4 4 0 0 0 4 4h18zm-5.6 16.4a2 2 0 0 1 -2.8 0l-2.6-2.6-2.6 2.6a2 2 0 0 1 -2.8-2.8l2.6-2.6-2.6-2.6a2 2 0 0 1 2.8-2.8l2.6 2.6 2.6-2.6a2 2 0 0 1 2.8 2.8l-2.6 2.6 2.6 2.6a2 2 0 0 1 0 2.8z"/><path d="m8 36h22v-20h-22zm5-12h4v-4a2 2 0 0 1 4 0v4h4a2 2 0 0 1 0 4h-4v4a2 2 0 1 1 -4 0v-4h-4a2 2 0 1 1 0-4z"/><path d="m56 36v-20h-22v20zm-17-12h12a2 2 0 0 1 0 4h-12a2 2 0 0 1 0-4z"/><path d="m56 12v-6a4 4 0 0 0 -4-4h-40a4 4 0 0 0 -4 4v6zm-22 28v22h18a4 4 0 0 0 4-4v-18zm15 16h-8a2 2 0 0 1 0-4h8a2 2 0 0 1 0 4zm0-6h-8a2 2 0 0 1 0-4h8a2 2 0 1 1 0 4z"/></g></svg>