<svg viewBox="0 0 64 64" xmlns="http://www.w3.org/2000/svg"><g fill="#2e2c2d"><path d="m63.4 17.6a2 2 0 0 0 -2.8 0l-1.3 1.3a13.7 13.7 0 1 0 -27.3.1 13.8 13.8 0 0 0 13.7 14 2 2 0 0 0 0-4 9.8 9.8 0 0 1 -9.7-10 9.7 9.7 0 1 1 19.3 0l-1.5-1.5a2 2 0 1 0 -2.8 2.9l6.2 6.3 6.2-6.3a2 2 0 0 0 0-2.8z"/><circle cx="20" cy="55" r="4"/><circle cx="46" cy="55" r="4"/><path d="m50.9 33.9a6 6 0 0 1 -5.2 3.1 17.8 17.8 0 0 1 -17.2-14h-12.7l-3.9-16.5a2 2 0 0 0 -1.9-1.5h-8a2 2 0 0 0 0 4h6.4l9 38h33l5.2-16.2a6.2 6.2 0 0 0 -4.7 3.1z"/></g></svg>