<svg viewBox="0 0 64 64" xmlns="http://www.w3.org/2000/svg"><g fill="#2e2c2d"><path d="m59.6 21.1a11.8 11.8 0 0 0 .2-2.1 11.9 11.9 0 0 0 -.2-2.3l3.1-1.7-4-7-3.2 1.8a12 12 0 0 0 -3.7-2.1v-3.7h-8v3.7a12 12 0 0 0 -3.7 2.1l-3.1-1.8-4 7 3 1.7a11.7 11.7 0 0 0 -.2 2.3 11.9 11.9 0 0 0 .2 2.1l-3.3 1.9 4 6.9 3.3-1.8a12 12 0 0 0 3.8 2.2v3.7h8v-3.7a12.1 12.1 0 0 0 3.9-2.3l3.3 2 4-7zm-11.8 2.9a5 5 0 1 1 5-5 5 5 0 0 1 -5 5z"/><circle cx="21" cy="56" r="4"/><circle cx="47" cy="56" r="4"/><path d="m51.8 38h-8a4 4 0 0 1 -4-4v-1.2h-.1l-1.1.6a4 4 0 0 1 -2 .5h-1a4 4 0 0 1 -2.4-1.9l-4-6.9a4 4 0 0 1 -.4-1h-12l-3.9-16.6a2 2 0 0 0 -1.9-1.5h-8a2 2 0 0 0 0 4h6.4l9 38h33l3.7-11.7a4 4 0 0 1 -3.3 1.7z"/></g></svg>