<svg viewBox="0 0 64 64" xmlns="http://www.w3.org/2000/svg"><g fill="#2e2c2d"><path d="m44.1 20-4-13.4-.2-.6h-5.9v14zm-28.4 0 4.2-14h-8.5l-8 14zm32.6 0h12.3l-8-14h-8.5zm-28.5 0h10.2v-14h-5.9l-.2.6z"/><path d="m47.2 24a7.5 7.5 0 0 0 14.7 0zm-45 0a7.5 7.5 0 0 0 14.7 0zm30 0a7.5 7.5 0 0 0 14.7 0zm-15 0a7.5 7.5 0 0 0 14.7 0z"/><path d="m54.5 34a11.5 11.5 0 0 1 -7.5-2.8 11.5 11.5 0 0 1 -15 0 11.5 11.5 0 0 1 -15 0 11.5 11.5 0 0 1 -7.5 2.8h-1.5v24h28v-22h12v22h8v-24.1zm-24.5 14h-14v-12h14z"/></g></svg>