<svg viewBox="0 0 64 64" xmlns="http://www.w3.org/2000/svg"><g fill="#2e2c2d"><path d="m59 19.5h-5.1l-16.4-18.3a2 2 0 0 0 -3 2.7l14 15.7h-35l14-15.7a2 2 0 1 0 -3-2.7l-16.3 18.3h-5.2a2 2 0 0 0 0 4h56a2 2 0 0 0 0-4z"/><path d="m62.4 48.1a2 2 0 0 0 -2.8 0l-1.5 1.5a14.1 14.1 0 0 0 -4-10 13.9 13.9 0 0 0 -16.4-2.4 2 2 0 1 0 1.9 3.5 9.9 9.9 0 0 1 11.7 1.7 10.1 10.1 0 0 1 2.7 6.9l-1.2-1.2a2 2 0 1 0 -2.8 2.8l6.2 6.3 6.2-6.3a2 2 0 0 0 0-2.8zm-33.6 2.8 1.5-1.5a14.1 14.1 0 0 0 4 10 13.9 13.9 0 0 0 9.9 4.1 13.7 13.7 0 0 0 6.6-1.7 2 2 0 1 0 -1.9-3.5 9.9 9.9 0 0 1 -11.7-1.7 10.1 10.1 0 0 1 -2.9-6.9l1.2 1.2a2 2 0 1 0 2.8-2.8l-6.2-6.3-6.1 6.3a2 2 0 1 0 2.8 2.8z"/><path d="m21.4 49.5a6 6 0 0 1 1.7-4.3l6.3-6.2a4 4 0 0 1 2.8-1.2h.4v-.6a6 6 0 0 1 2.9-3.6 17.7 17.7 0 0 1 8.5-2.2 18 18 0 0 1 10.2 3.2l1.4-7.2h-49.3l4.8 24h10.6a6 6 0 0 1 -.3-1.9z"/></g></svg>