<svg viewBox="0 0 64 64" xmlns="http://www.w3.org/2000/svg"><g fill="#2e2c2d"><path d="m10 12h44v-5a3 3 0 0 0 -3-3h-41a4 4 0 0 0 0 8zm50 20h-16a2 2 0 0 0 -2 2v8a2 2 0 0 0 2 2h16a2 2 0 0 0 2-2v-8a2 2 0 0 0 -2-2zm-13 8a2 2 0 1 1 2-2 2 2 0 0 1 -2 2z"/><path d="m38 42v-8a6 6 0 0 1 6-6h14v-9a3 3 0 0 0 -3-3h-49a4 4 0 0 1 -4-4v45a3 3 0 0 0 3 3h50a3 3 0 0 0 3-3v-9h-14a6 6 0 0 1 -6-6zm4-22h2a2 2 0 0 1 0 4h-2a2 2 0 0 1 0-4zm-30 4a2 2 0 0 1 0-4h2a2 2 0 0 1 0 4zm6 32h-2a2 2 0 0 1 0-4h2a2 2 0 0 1 0 4zm4-32a2 2 0 0 1 0-4h2a2 2 0 0 1 0 4zm6 32h-2a2 2 0 0 1 0-4h2a2 2 0 0 1 0 4zm4-32a2 2 0 0 1 0-4h2a2 2 0 0 1 0 4zm6 32h-2a2 2 0 0 1 0-4h2a2 2 0 0 1 0 4zm8-4h2a2 2 0 0 1 0 4h-2a2 2 0 0 1 0-4z"/></g></svg>