<svg viewBox="0 0 64 64" xmlns="http://www.w3.org/2000/svg"><g fill="#2e2c2d"><path d="m9.939 25.061a1.5 1.5 0 0 0 2.121-2.121l-9-9a1.5 1.5 0 0 0 -2.121 2.121zm12.638-9.586a1.5 1.5 0 0 0 2.846-.949l-4-12a1.5 1.5 0 1 0 -2.846.949zm30.423 10.025a1.5 1.5 0 0 0 1.061-.439l9-9a1.5 1.5 0 0 0 -2.121-2.121l-9 9a1.5 1.5 0 0 0 1.06 2.56zm-13.475-9.077a1.5 1.5 0 0 0 1.9-.948l4-12a1.5 1.5 0 1 0 -2.846-.949l-4 12a1.5 1.5 0 0 0 .946 1.897zm18.475 39.577h-52a6 6 0 0 0 -6 6h64a6 6 0 0 0 -6-6z"/><circle cx="32" cy="38" r="2"/><path d="m11 54h20v-12.142a4 4 0 1 1 2 0v12.142h20v-14a21 21 0 0 0 -42 0z"/></g></svg>