<svg viewBox="0 0 64 64" xmlns="http://www.w3.org/2000/svg"><g fill="#2e2c2d"><circle cx="16" cy="54" r="5"/><circle cx="55" cy="54" r="5"/><path d="m0 49v3a1 1 0 0 0 1 1h8.08a6.994 6.994 0 0 1 2.041-4zm61.92 4h1.08a1 1 0 0 0 1-1v-3h-4.121a6.994 6.994 0 0 1 2.041 4zm-19.92-4h-21.121a6.994 6.994 0 0 1 2.041 4h25.16a6.994 6.994 0 0 1 2.041-4zm-7-38a1 1 0 0 0 1-1v-4a1 1 0 0 0 -2 0v4a1 1 0 0 0 1 1zm-6.293 1.121a1 1 0 0 0 1.414-1.414l-2.828-2.828a1 1 0 0 0 -1.414 1.414zm11.879.293a1 1 0 0 0 .707-.293l2.828-2.828a1 1 0 0 0 -1.414-1.414l-2.828 2.828a1 1 0 0 0 .707 1.707zm20.679 25.674-3.265-1.088-3.246-8.114a3 3 0 0 0 -2.785-1.886h-9.969v-6a2 2 0 0 0 -2-2h-2v-3a2 2 0 0 0 -2-2h-2a2 2 0 0 0 -2 2v3h-30a2 2 0 0 0 -2 2v26h64v-5.117a4 4 0 0 0 -2.735-3.795zm-34.265-2.088h-4v4h-4v-4h-4v-4h4v-4h4v4h4zm17 1v-8h7.969a1 1 0 0 1 .929.629l2.948 7.371z"/></g></svg>