<svg viewBox="0 0 64 64" xmlns="http://www.w3.org/2000/svg"><g fill="#2e2c2d"><path d="m50.3 33.409-16.886 16.891 12.243 12.241a4.988 4.988 0 0 0 7.042 0l9.848-9.848a4.987 4.987 0 0 0 0-7.042zm-31.957-31.961a4.985 4.985 0 0 0 -7.042 0l-9.848 9.852a4.987 4.987 0 0 0 0 7.042l12.247 12.238 16.886-16.889z"/><path d="m62.531 11.281-9.817-9.818a5.006 5.006 0 0 0 -7.071 0l-44.174 44.174a5.006 5.006 0 0 0 0 7.071l9.817 9.817a5.006 5.006 0 0 0 7.071 0l44.174-44.173a5.006 5.006 0 0 0 0-7.071zm-52.743 38.683a2 2 0 1 1 0-2.828 2 2 0 0 1 -.001 2.829zm7.069 7.072a2 2 0 1 1 0-2.831 1.995 1.995 0 0 1 -.001 2.832zm0-7.071a2 2 0 1 1 0-2.828 1.995 1.995 0 0 1 0 2.828zm0-7.071a2 2 0 1 1 0-2.828 1.995 1.995 0 0 1 0 2.828zm23.921-29.577a2 2 0 1 1 0 2.828 2 2 0 0 1 0-2.828zm-16.849 36.648a2 2 0 1 1 0-2.828 1.995 1.995 0 0 1 0 2.828zm3.965-4.6a1 1 0 0 1 -1.414 0l-7.8-7.8a1 1 0 0 1 1.414-1.414l7.8 7.8a1 1 0 0 1 0 1.412zm16.474-16.477a1 1 0 0 1 -1.414 0l-7.848-7.848a1 1 0 0 1 1.414-1.414l7.848 7.848a1 1 0 0 1 0 1.414zm6.31-5.672a2 2 0 1 1 0-2.828 1.995 1.995 0 0 1 0 2.828zm0-7.071a2 2 0 1 1 0-2.828 1.995 1.995 0 0 1 0 2.828zm0-7.07a2 2 0 1 1 0-2.83 1.995 1.995 0 0 1 -.001 2.831zm7.071 7.07a2 2 0 1 1 0-2.828 2 2 0 0 1 0 2.828z"/></g></svg>