<svg viewBox="0 0 64 64" xmlns="http://www.w3.org/2000/svg"><g fill="#2e2c2d"><circle cx="34" cy="30" r="3"/><circle cx="39" cy="39" r="3"/><circle cx="28" cy="39" r="4"/><path d="m40.334 25.837a3.864 3.864 0 0 1 -2.334-3.506v-14.331h1a1 1 0 0 0 0-2h-1v-3a3 3 0 0 0 -3-3h-6a3 3 0 0 0 -3 3v3h-1a1 1 0 0 0 0 2h1v14.315a3.89 3.89 0 0 1 -2.347 3.527 19.963 19.963 0 0 0 -11.635 17.958.993.993 0 0 0 0 .215 20.349 20.349 0 0 0 .129 2.444 20.075 20.075 0 0 0 17.547 17.412 20.986 20.986 0 0 0 2.338.129 19.768 19.768 0 0 0 13.295-5.089 20.037 20.037 0 0 0 6.073-10.069.955.955 0 0 0 .027-.113 19.929 19.929 0 0 0 -11.09-22.892zm-4.334 29.163a3 3 0 1 1 3-3 3 3 0 0 1 -3 3zm13.767-8.278c-3.925-2.64-10.347-4.249-18.084-1.671-6.623 2.206-13.888.783-17.666-1.724a17.977 17.977 0 0 1 10.472-15.668 5.943 5.943 0 0 0 3.511-5.344v-14.315h8v14.331a5.92 5.92 0 0 0 3.5 5.324 17.746 17.746 0 0 1 10.267 19.067z"/></g></svg>