<svg viewBox="0 0 64 64" xmlns="http://www.w3.org/2000/svg"><g fill="#2e2c2d"><path d="m55 46a8.946 8.946 0 0 0 -5.087 1.583l-8.089-8.712a12 12 0 1 0 -20.455-1.325l-6.783 6.41a9.051 9.051 0 1 0 2.508 3.134l6.715-6.345a11.926 11.926 0 0 0 15.2.974l8.191 8.816a8.993 8.993 0 1 0 7.8-4.535zm-22-20a1 1 0 0 1 0-2 7.008 7.008 0 0 1 7 7 1 1 0 0 1 -2 0 5.006 5.006 0 0 0 -5-5z"/><path d="m45 0a7.994 7.994 0 0 0 -5.625 13.681l-2.681 5.146a13.955 13.955 0 0 1 3.534 1.873l2.607-5a8 8 0 1 0 2.165-15.7zm-23 14a6.008 6.008 0 1 0 -3.618 5.5l3.076 3.313a14.091 14.091 0 0 1 3.033-2.613l-3.179-3.423a5.959 5.959 0 0 0 .688-2.777z"/></g></svg>