<svg viewBox="0 0 64 64" xmlns="http://www.w3.org/2000/svg"><g fill="#2e2c2d"><path d="m47 30a17 17 0 1 0 17 17 17.019 17.019 0 0 0 -17-17zm7.071 12.757-4.243 4.243 4.243 4.243a2 2 0 0 1 -2.828 2.828l-4.243-4.243-4.243 4.243a2 2 0 0 1 -2.828-2.828l4.243-4.243-4.243-4.243a2 2 0 0 1 2.828-2.828l4.243 4.243 4.243-4.243a2 2 0 0 1 2.828 2.828z"/><path d="m28 47c0-.223.026-.44.034-.661l-4.287 4.287a11.577 11.577 0 0 1 -16.373-16.372l12.026-12.026 12.837 12.837a18.83 18.83 0 0 1 19.237-6.511l1.98-1.98a15.576 15.576 0 0 0 -22.028-22.028l-26.88 26.88a15.576 15.576 0 0 0 22.028 22.028l1.98-1.98a18.922 18.922 0 0 1 -.554-4.474zm4.686-36.315 1.94-1.939a11.062 11.062 0 0 1 15.628 0 2 2 0 0 1 -2.828 2.828 7.062 7.062 0 0 0 -9.972 0l-1.94 1.94a2 2 0 1 1 -2.828-2.83z"/></g></svg>