<svg viewBox="0 0 64 64" xmlns="http://www.w3.org/2000/svg"><g fill="#2e2c2d"><rect height="25" rx="2" width="11" y="24"/><path d="m60.054 37.073a1.091 1.091 0 0 0 -2.106 0 21.745 21.745 0 0 1 -1.982 4.425c-1.278 2.362-2.486 4.593-1.736 7.045a4.913 4.913 0 0 0 3.6 3.328 5.22 5.22 0 0 0 1.164.129 5 5 0 0 0 5.006-5c0-1.878-.955-3.641-1.966-5.508a21.828 21.828 0 0 1 -1.98-4.419z"/><path d="m43 32h17a4 4 0 0 0 0-8h-22a1 1 0 0 1 0-2h6.674a5.636 5.636 0 0 0 1.22-2.3 3.358 3.358 0 0 0 -.894-3.24c-2.289-2.29-6.134-.458-8.43.638-2.312 1.102-7.598 1.902-12.57 1.902-4.552 0-7.111 1.826-11 5.6v21.563a24.15 24.15 0 0 1 3.962 1.884c.48.258 1 .537 1.571.838a16.862 16.862 0 0 0 8.467 2.115h12a4 4 0 0 0 3.858-3h-3.858a1 1 0 0 1 0-2h3.856a3.974 3.974 0 0 0 -.128-.447 4.547 4.547 0 0 0 2.272-4.053 4.894 4.894 0 0 0 -.041-.5h-4.959a1 1 0 0 1 0-2h4.3a4.54 4.54 0 0 0 -.3-.463 5.724 5.724 0 0 0 2.933-4.537h-3.933a1 1 0 0 1 0-2z"/></g></svg>