<svg viewBox="0 0 64 64" xmlns="http://www.w3.org/2000/svg"><g fill="#2e2c2d"><path d="m47.5 34h-32a1.5 1.5 0 0 1 0-3h32a1.5 1.5 0 0 1 0 3zm-4-24h-24a1.5 1.5 0 0 1 0-3h24a1.5 1.5 0 0 1 0 3zm1 48h-26a1.5 1.5 0 0 1 0-3h26a1.5 1.5 0 0 1 0 3z"/><path d="m26.9 48.012c-6.7 2.847-12.9 6.573-12.9 14.488a1.5 1.5 0 0 0 3 0c0-5.847 4.237-8.822 11.073-11.727a1.5 1.5 0 0 0 -1.173-2.761z"/><path d="m49 32.5c0-8.968-6.418-12.92-13.323-15.773 6.961-2.727 13.323-6.104 13.323-14.227a1.5 1.5 0 0 0 -3 0c0 7.181-6.636 9.663-14.319 12.537l-.181.063-.18-.068c-7.684-2.869-14.32-5.351-14.32-12.532a1.5 1.5 0 0 0 -3 0c0 8.174 6.443 11.543 13.455 14.278a1.5 1.5 0 0 0 -.542.112c-6.386 2.678-12.913 6.627-12.913 15.61 0 9.933 9.134 13.558 17.191 16.756 7.616 3.023 14.809 5.878 14.809 13.244a1.5 1.5 0 0 0 3 0c0-8.179-6.426-11.793-13.5-14.741 6.887-2.91 13.5-6.75 13.5-15.259zm-20.927-12.842a1.5 1.5 0 0 0 .457-2.466q.868.33 1.738.655c4.032 1.508 7.953 2.975 10.872 5.153h-19.279a29.866 29.866 0 0 1 6.212-3.342zm-9.19 6.342h25.208a11.08 11.08 0 0 1 1.909 6.5 9.758 9.758 0 0 1 -2.253 6.525 1.494 1.494 0 0 0 -.247-.025h-24a1.48 1.48 0 0 0 -.194.02 9.85 9.85 0 0 1 -2.306-6.52 11.071 11.071 0 0 1 1.883-6.5zm12.617 20.149a51.347 51.347 0 0 1 -8.738-4.149h17.462a54.1 54.1 0 0 1 -8.724 4.149z"/></g></svg>