<svg viewBox="0 0 64 64" xmlns="http://www.w3.org/2000/svg"><g fill="#2e2c2d"><path d="m35 22h-2l-2 2-20 2-5.7-7.6a1 1 0 0 0 -.8-.4h-3.057a1 1 0 0 0 -.936 1.351l2.493 6.649a3.87 3.87 0 0 0 2.766 5.416l.052.008 13.818 1.531s2.364.045 3.364 3.045c.575 1.726 3 11 12 11h4.7l-.571 4h-15.129a1 1 0 0 0 0 2h36a4.188 4.188 0 0 0 4-4 1 1 0 0 0 -2 0 2.189 2.189 0 0 1 -2 2h-4.847l.6-4.2c3.792-.79 8.247-3.914 8.247-7.8 0-7-10-15-22-15l-2-2zm16 6a3.118 3.118 0 0 1 .016-.334c5.843 2.234 10.242 6.411 10.899 10.334h-9.915a.9.9 0 0 1 -1-1zm2.7 19-.571 4h-11.976l.571-4zm-11.7-16v4h-4v4h-4v-4h-4v-4h4v-4h4v4z"/><path d="m37 17h23a1 1 0 0 0 0-2h-48a1 1 0 0 0 0 2h23v5h2z"/></g></svg>