<svg viewBox="0 0 64 64" xmlns="http://www.w3.org/2000/svg"><g fill="#2e2c2d"><path d="m63.123 57.891-15.477-16.478a22.721 22.721 0 0 1 -3.4-4.767l-11.666-17.128a10 10 0 1 0 -6.519-.268l-2.7 2.7 40.3 40.3a4.432 4.432 0 0 0 -.538-4.359zm-37.643-52.142a5.973 5.973 0 1 1 0 8.447 5.957 5.957 0 0 1 0-8.447z"/><path d="m19.25 26.061a9.975 9.975 0 1 0 .268 6.519l17.144 11.676a30.967 30.967 0 0 1 4.725 3.364l16.5 15.5a5.822 5.822 0 0 0 3.12.88 3 3 0 0 0 1.279-.3l-40.338-40.338zm-5.05 7.867a5.97 5.97 0 1 1 0-8.447 5.935 5.935 0 0 1 0 8.447z"/></g></svg>