<svg viewBox="0 0 64 64" xmlns="http://www.w3.org/2000/svg"><g fill="#2e2c2d"><path d="m36 24h-4v-4h-4v4h-4v4h4v4h4v-4h4z"/><path d="m57 8h3a2.006 2.006 0 0 1 2 2v6a2.006 2.006 0 0 1 -2 2h-3m0 2h2a2.006 2.006 0 0 1 2 2v6a2.006 2.006 0 0 1 -2 2h-2zm0 12h2a2.006 2.006 0 0 1 2 2v6a2.006 2.006 0 0 1 -2 2h-2zm0 12h2a2.006 2.006 0 0 1 2 2v6a2.006 2.006 0 0 1 -2 2h-2z"/><path d="m48 0h-41a2 2 0 0 0 -2 2v60a2 2 0 0 0 2 2h41a7.008 7.008 0 0 0 7-7v-50a7.008 7.008 0 0 0 -7-7zm-18 13a13 13 0 1 1 -13 13 13 13 0 0 1 13-13zm13 42h-25a1 1 0 0 1 0-2h25a1 1 0 0 1 0 2zm0-7h-25a1 1 0 0 1 0-2h25a1 1 0 0 1 0 2z"/></g></svg>