<svg viewBox="0 0 64 64" xmlns="http://www.w3.org/2000/svg"><g fill="#2e2c2d"><path d="m35.282 44.29a7.781 7.781 0 0 0 2.287-3.354 1.976 1.976 0 0 0 1.431-1.936 2.014 2.014 0 0 0 -.961-1.734c-.204-4.074-2.153-7.266-7.039-7.266s-6.835 3.192-7.039 7.266a2.014 2.014 0 0 0 -.961 1.734 1.976 1.976 0 0 0 1.431 1.936 7.781 7.781 0 0 0 2.287 3.354 10.022 10.022 0 0 0 -5.718 9.018v4.692h20v-4.692a10.022 10.022 0 0 0 -5.718-9.018z"/><path d="m53 31.366v-2.066c.2-.094.385-.2.572-.311h.009c2.381.989 7.259.037 9.32-1.9a.1.1 0 0 0 -.022-.159 9.542 9.542 0 0 1 -4.879-7.93c0-3.922-1.923-8.805-7.654-8.994a9.193 9.193 0 0 0 -9.346 9.049c-.014 4.795-1.877 6.813-3.8 7.842a.1.1 0 0 0 .018.176c2.8.972 4.712 2.4 9.784 2.429v1.868a17.334 17.334 0 0 0 -7.237 3.681c.084.4.157.813.2 1.245a4.064 4.064 0 0 1 1.035 2.704 4.017 4.017 0 0 1 -1.872 3.417 9.811 9.811 0 0 1 -.795 1.422 12.056 12.056 0 0 1 4.667 9.469v4.692h21v-14c0-6.117-5.286-11.269-11-12.634zm-29.333 12.473a9.809 9.809 0 0 1 -.795-1.422 4.017 4.017 0 0 1 -1.872-3.417 4.064 4.064 0 0 1 1.033-2.7 11.329 11.329 0 0 1 .9-3.439 19.3 19.3 0 0 0 -5.933-2.498v-1.312a8.822 8.822 0 0 0 4.038-4.4 17.308 17.308 0 0 0 .771-1.671c.064.006.126.019.192.019a1.994 1.994 0 0 0 .967-3.74c.826-3.617.927-7.734-.967-10.26-1.7-2.263-8.451-2.549-11 0-1 1-6-1-6 5a39.493 39.493 0 0 0 .336 5.122 2 2 0 0 0 .663 3.879c.062 0 .121-.013.182-.018a5.674 5.674 0 0 0 .641 1.339l.015.017a8.92 8.92 0 0 0 4.162 4.705v1.322c-5.714 1.366-11 6.518-11 12.635v15h19v-4.692a12.056 12.056 0 0 1 4.667-9.469z"/></g></svg>