<svg viewBox="0 0 64 64" xmlns="http://www.w3.org/2000/svg"><g fill="#2e2c2d"><path d="m61 7h-58a3.009 3.009 0 0 0 -3 3v46a3.009 3.009 0 0 0 3 3h58a3.009 3.009 0 0 0 3-3v-46a3.009 3.009 0 0 0 -3-3zm-3 48h-15a1 1 0 0 1 0-2h15a1 1 0 0 1 0 2zm1-6h-54v-37h54z"/><path d="m17 25c3.167-1.926 5-3.852 5-5.778a2.373 2.373 0 0 0 -2.5-2.222 2.716 2.716 0 0 0 -2.5 1.481 2.716 2.716 0 0 0 -2.5-1.481 2.373 2.373 0 0 0 -2.5 2.222c0 1.926 1.833 3.852 5 5.778zm2.321 10.249 2.611-3.763 3.4 4.758a2.02 2.02 0 0 0 1.72.834 1.994 1.994 0 0 0 1.635-.99l5.082-8.713 5.427 13.18a2.006 2.006 0 0 0 1.777 1.238h.072a2 2 0 0 0 1.789-1.105l3.093-5.688h11.073v-3h-11.691a1.992 1.992 0 0 0 -1.789 1.105l-2.388 4.275-5.36-13.015a2 2 0 0 0 -3.578-.248l-5.321 9.124-3.273-4.576a2 2 0 0 0 -3.188-.085l-3.133 4.42h-10.279v3h10.76a1.99 1.99 0 0 0 1.561-.751zm26.679-10.249a3 3 0 0 0 0-6 2.956 2.956 0 0 0 -.4.04 1.837 1.837 0 0 1 1.419-1.04 1 1 0 0 0 -.019-2c-.04 0-4 .069-4 6a3 3 0 0 0 3 3zm0-4a1 1 0 1 1 -1 1 1 1 0 0 1 1-1zm6 4a1 1 0 0 0 1-1v-7a1 1 0 0 0 -2 0v7a1 1 0 0 0 1 1z"/></g></svg>