<svg viewBox="0 0 64 64" xmlns="http://www.w3.org/2000/svg"><g fill="#2e2c2d"><path d="m40.009 41.859h-.04a1.1 1.1 0 0 1 -.975-.674l-6.149-14.935-6.178 10.592-.627.073a1.121 1.121 0 0 1 -.945-.462l-4.141-5.8-3.444 4.309-.558.038h-16.952v-2h16.519l3.928-4.91.577-.024a1.106 1.106 0 0 1 .864.458l4.027 5.637 6.119-10.49a1.1 1.1 0 0 1 1.966.139l6.085 14.779 2.99-5.98a1.1 1.1 0 0 1 .987-.609h19.938v2h-19.382l-3.625 7.251a1.108 1.108 0 0 1 -.984.608zm4.861-8.359v.01zm-12.718-8.932v.005z"/><path d="m25.746 30.483c-1.349-1.888-2.523-4.4-5.18-4.4a2.491 2.491 0 0 0 -1.95 1.095c-.781 1.042-1.627 2.034-2.441 3.051-.436.545-.443.75-1.074.771-.96.032-1.926 0-2.886 0h-5.657a22.354 22.354 0 0 1 -1.558-8c0-17.836 20.354-18.929 26.1-7.341a1 1 0 0 0 1.806 0c5.74-11.596 26.094-10.592 26.094 6.341a24.213 24.213 0 0 1 -1.414 8h-13.27c-2.414 0-3.125 1.912-4.051 3.764l-3.972-9.648c-.179-.435-.333-.9-.552-1.314a3.008 3.008 0 0 0 -3.909-1.455c-1.269.674-3.841 5.118-6.086 9.136z"/><path d="m28.522 37.631a2.206 2.206 0 0 1 -2.029 1.245c-2.809 0-4.239-2.959-5.628-4.9a29.013 29.013 0 0 1 -2.126 2.657c-.464.45-1.075.367-1.739.367h-7.237a10.51 10.51 0 0 0 .591 1.036c7.046 9.994 18.654 17.206 21.216 18.708a1 1 0 0 0 1.017 0c2.613-1.544 14.633-9.03 21.524-19.732a6.361 6.361 0 0 0 .568-1.006h-8.491a.818.818 0 0 0 -.363.053c-.178.136-.322.644-.419.839l-.7 1.391-1.519 3.039a4.266 4.266 0 0 1 -1.806 2.211 3.127 3.127 0 0 1 -3.9-.992 7.488 7.488 0 0 1 -.715-1.518l-4.231-10.278z"/></g></svg>