<svg viewBox="0 0 64 64" xmlns="http://www.w3.org/2000/svg"><g fill="#2e2c2d"><path d="m62 32a2 2 0 0 0 -2 2v17h-56v-2h54v-5a3.009 3.009 0 0 0 -3-3h-48a3.009 3.009 0 0 0 -3 3v-5h15a7 7 0 0 0 -7-7h-5a4.955 4.955 0 0 0 -3 1.023v-11.023a2 2 0 0 0 -4 0v40a2 2 0 0 0 4 0v-5h56v5a2 2 0 0 0 4 0v-28a2 2 0 0 0 -2-2z"/><path d="m34 33h16a2.006 2.006 0 0 0 2-2v-16a2.006 2.006 0 0 0 -2-2h-16a2.006 2.006 0 0 0 -2 2v16a2.006 2.006 0 0 0 2 2zm3-15a1 1 0 0 1 2 0v4h6v-4a1 1 0 0 1 2 0v10a1 1 0 0 1 -2 0v-4h-6v4a1 1 0 0 1 -2 0z"/></g></svg>