<svg viewBox="0 0 64 64" xmlns="http://www.w3.org/2000/svg"><g fill="#2e2c2d"><path d="m2 16h18a12.86 12.86 0 0 1 -.638-8h-17.362a1 1 0 0 0 -1 1v6a1 1 0 0 0 1 1zm60-8h-17.362a12.86 12.86 0 0 1 -.638 8h18a1 1 0 0 0 1-1v-6a1 1 0 0 0 -1-1zm0 49h-2v-39h-17.057a13.085 13.085 0 0 1 -4.068 4h3.125v7h-7v-5.367a12.459 12.459 0 0 1 -6 0v5.367h-7v-7h3.125a13.085 13.085 0 0 1 -4.068-4h-17.057v39h-2a1 1 0 0 0 -1 1v5a1 1 0 0 0 1 1h18v-20h24v20h18a1 1 0 0 0 1-1v-5a1 1 0 0 0 -1-1zm-53-35h7v7h-7zm0 11h7v7h-7zm0 11h7v7h-7zm20-4h-7v-7h7zm13 0h-7v-7h7zm6-18h7v7h-7zm0 11h7v7h-7zm0 11h7v7h-7z"/><path d="m32 22a11 11 0 1 0 -11-11 11 11 0 0 0 11 11zm-7-13h5v-5h4v5h5v4h-5v5h-4v-5h-5zm-3 37h9v18h-9zm11 0h9v18h-9z"/></g></svg>