<svg viewBox="0 0 64 64" xmlns="http://www.w3.org/2000/svg"><g fill="#2e2c2d"><rect height="7" rx="1" width="64" y="32"/><path d="m43 28a3 3 0 0 0 -3-3h-19a3 3 0 0 0 -3 3v2h25zm-1-21a1 1 0 0 0 1-1 3 3 0 0 1 3-3h8a3 3 0 0 1 3 3v18h-5a5 5 0 0 0 -5 5v1h15v-1a5 5 0 0 0 -3-4.578v-18.422a5.006 5.006 0 0 0 -5-5h-8a5.006 5.006 0 0 0 -5 5 1 1 0 0 0 1 1z"/><rect height="8" rx="1" width="6" x="39" y="8"/><path d="m53 53a4.958 4.958 0 0 0 -2.9.94l-15.808-7.667 10.875-5.273h-4.584l-8.583 4.162-8.583-4.162h-4.584l10.875 5.273-15.808 7.667a4.995 4.995 0 1 0 -2.9 9.06 5.008 5.008 0 0 0 4.9-4h32.2a5 5 0 1 0 4.9-6zm-4.9 4h-32.2a4.939 4.939 0 0 0 -.6-1.517l16.7-8.1 16.7 8.1a4.939 4.939 0 0 0 -.6 1.517z"/></g></svg>