<svg viewBox="0 0 64 64" xmlns="http://www.w3.org/2000/svg"><path d="m61.487 20.477-5-8.66a1 1 0 0 0 -1.376-.36l-15.6 9.254a1 1 0 0 1 -1.51-.86v-18.851a1 1 0 0 0 -1-1h-10.001a1 1 0 0 0 -1 1v18.878a1 1 0 0 1 -1.5.867l-16.051-9.245a1 1 0 0 0 -1.365.367l-5 8.66a1 1 0 0 0 .367 1.367l16.03 9.233a1 1 0 0 1 -.007 1.737l-15.595 8.806a1 1 0 0 0 -.379 1.371l5 8.66a1 1 0 0 0 1.358.371l15.646-8.837a1 1 0 0 1 1.496.871v18.894a1 1 0 0 0 1 1h10a1 1 0 0 0 1-1v-18.923a1 1 0 0 1 1.479-.878l15.645 8.53a1 1 0 0 0 1.345-.378l5-8.66a1 1 0 0 0 -.387-1.378l-15.539-8.472a1 1 0 0 1 -.031-1.738l15.619-9.266a1 1 0 0 0 .356-1.36z" fill="#2e2c2d"/></svg>