<svg viewBox="0 0 64 64" xmlns="http://www.w3.org/2000/svg"><g fill="#2e2c2d"><path d="m48 25h6a1 1 0 0 0 0-2h-6a1 1 0 0 0 0 2zm-12 0h2v2a1 1 0 0 0 2 0v-2h2a1 1 0 0 0 0-2h-2v-2a1 1 0 0 0 -2 0v2h-2a1 1 0 0 0 0 2zm2 20v8a9 9 0 0 1 -18 0v-31a7 7 0 0 0 -14 0v4a3 3 0 0 0 -3 3v8a3 3 0 0 0 3 3v5a1 1 0 0 0 2 0v-5a3 3 0 0 0 3-3v-8a3 3 0 0 0 -3-3v-4a5 5 0 0 1 10 0v31a11 11 0 0 0 22 0v-8z"/><path d="m57 5h-5.3a7 7 0 0 0 -13.4 0h-5.3a6.007 6.007 0 0 0 -6 6v26a6.007 6.007 0 0 0 6 6h24a6.007 6.007 0 0 0 6-6v-26a6.007 6.007 0 0 0 -6-6zm-12-3a4.969 4.969 0 0 1 4.567 3h-9.134a4.969 4.969 0 0 1 4.567-3zm16 31h-32v-18h32z"/><path d="m46 45v18a1 1 0 0 0 2 0v-18z"/></g></svg>