<svg viewBox="0 0 64 64" xmlns="http://www.w3.org/2000/svg"><g fill="#2e2c2d"><path d="m17 6c-8.375 0-16.981 7.545-16.981 22.4s9.974 17.6 13.981 17.6 7-2 7-8c0-3.5-3.058-6.23-3.826-6.862a.1.1 0 0 1 .051-.17c.844-.144 3.775-.868 3.775-3.968a4.317 4.317 0 0 0 -2.685-3.871.1.1 0 0 1 .022-.185c1.52-.283 7.663-1.81 7.663-7.944 0-5-2.2-9-9-9zm30.019 0c8.375 0 16.981 7.545 16.981 22.4s-9.974 17.6-13.981 17.6-7-2-7-8c0-3.5 3.058-6.23 3.826-6.862a.1.1 0 0 0 -.051-.17c-.844-.144-3.775-.866-3.775-3.968a4.317 4.317 0 0 1 2.681-3.871.1.1 0 0 0 -.022-.185c-1.52-.284-7.663-1.811-7.663-7.945.004-4.999 2.207-8.999 9.004-8.999z"/><path d="m41.019 27c0-.028.005-.054.006-.082h-.024c-2.829-.479-6-2.956-6-5.916v-19.002h-6.001v19c0 2.96-3.172 5.437-6 5.916 0 .028.006.055.006.084a5.521 5.521 0 0 1 -1.585 4h1.579a6.018 6.018 0 0 1 6 6v22h6v-22a6.018 6.018 0 0 1 6-6h1.6a5.521 5.521 0 0 1 -1.581-4z"/></g></svg>