<svg viewBox="0 0 64 64" xmlns="http://www.w3.org/2000/svg"><g fill="#2e2c2d"><path d="m37 20h6v3h-6zm-16 0h6v3h-6z"/><path d="m63 22a1 1 0 0 0 0-2h-10v3h4v27h-50v-27h4v-3h-10a1 1 0 0 0 0 2h3v28h-2a2 2 0 0 0 -2 2v7a2 2 0 0 0 2 2h60a2 2 0 0 0 2-2v-7a2 2 0 0 0 -2-2h-2v-28z"/><path d="m11 26.438v14.562a5 5 0 0 0 10 0v-32h1a1 1 0 0 0 0-2h-12a1 1 0 0 0 0 2h1zm2-17.438h6v8h-6zm41 0a1 1 0 0 0 0-2h-12a1 1 0 0 0 0 2h1v32a5 5 0 0 0 10 0v-32zm-3 15h-6v-15h6zm-24-1v18a5 5 0 0 0 10 0v-32h1a1 1 0 0 0 0-2h-12a1 1 0 0 0 0 2h1zm2-14h6v20.083h-6z"/></g></svg>