<svg viewBox="0 0 64 64" xmlns="http://www.w3.org/2000/svg"><g fill="#2e2c2d"><path d="m20.022 10c-10.096 0-20.022 4.887-20.022 15.979 0 10.653 1.923 18.439 2.046 22.371s.114 9.569 6.421 8.522c6.42-1.065 5.247-11.222 17.12-13.849 9.63-2.131 11.672-3.9 11.8-7.1s.212-17.283-3.235-20.6a20.832 20.832 0 0 0 -14.13-5.323z"/><path d="m50.2 13.2c-6.594 0-11.06 1.3-13.061 3.162 2.661 6.069 2.301 18.085 2.241 19.638a6.8 6.8 0 0 1 -.633 2.705c2.862.4 7.379-.156 10.379-3.142 4.28-4.261 7.391-12.4 11.77-13.849 3.21-1.061 7.958-8.514-10.696-8.514z"/></g></svg>