<svg viewBox="0 0 64 64" xmlns="http://www.w3.org/2000/svg"><g fill="#2e2c2d"><path d="m19 13c-9.176 0-19 10.447-19 26 0 1.28 0 2-.007 3.61-.037 8.748-.04 12.74 1.712 14.5a3.111 3.111 0 0 0 2.295.89c2.325 0 3.973-1.461 5.565-2.874 1.56-1.384 3.173-2.814 5.567-3.135l.206-.027c5.217-.698 8.662-1.164 8.662-5.964v-27c0-1.484 0-6-5-6zm44.993 29.617q0-1.695-.007-3.617c0-15.553-9.824-26-19-26-5 0-5 4.516-5 6v27c0 4.8 3.445 5.266 8.661 5.964l.206.027c2.395.32 4.008 1.751 5.567 3.135 1.594 1.413 3.241 2.874 5.566 2.874a3.115 3.115 0 0 0 2.3-.893c1.747-1.756 1.735-5.747 1.707-14.49z"/><path d="m38 29.678a9.91 9.91 0 0 1 -3-6.678v-23h-6v23a9.909 9.909 0 0 1 -3 6.678v8.251l2.423-2.423a5.059 5.059 0 0 1 7.154 0l2.423 2.423z"/></g></svg>