<svg viewBox="0 0 64 64" xmlns="http://www.w3.org/2000/svg"><path d="m54 0h-44a4.012 4.012 0 0 0 -4 4v56a4.012 4.012 0 0 0 4 4h44a4.012 4.012 0 0 0 4-4v-56a4.012 4.012 0 0 0 -4-4zm-15 7h3v8h-3a4 4 0 0 1 0-8zm0 14h3v8h-3a4 4 0 0 1 0-8zm0 14h3v8h-3a4 4 0 0 1 0-8zm-22-28h3v8h-3a4 4 0 0 1 0-8zm0 14h3v8h-3a4 4 0 0 1 0-8zm0 14h3v8h-3a4 4 0 0 1 0-8zm-4 18a4.012 4.012 0 0 1 4-4h3v8h-3a4.012 4.012 0 0 1 -4-4zm12 4h-3v-8h3a4 4 0 0 1 0 8zm0-14h-3v-8h3a4 4 0 0 1 0 8zm0-14h-3v-8h3a4 4 0 0 1 0 8zm0-14h-3v-8h3a4 4 0 0 1 0 8zm10 38a4.012 4.012 0 0 1 4-4h3v8h-3a4.012 4.012 0 0 1 -4-4zm12 4h-3v-8h3a4 4 0 0 1 0 8zm0-14h-3v-8h3a4 4 0 0 1 0 8zm0-14h-3v-8h3a4 4 0 0 1 0 8zm0-14h-3v-8h3a4 4 0 0 1 0 8z" fill="#2e2c2d"/></svg>