<svg viewBox="0 0 64 64" xmlns="http://www.w3.org/2000/svg"><g fill="#2e2c2d"><path d="m51 1v12h12zm-24 26h8v8h-8zm10 20h18v8h-18zm0-10h18v8h-18zm0-10h18v8h-18zm-10 20h8v8h-8zm0-10h8v8h-8z"/><path d="m51 15a2 2 0 0 1 -2-2v-13h-30a1 1 0 0 0 -1 1v62a1 1 0 0 0 1 1h44a1 1 0 0 0 1-1v-48zm-25-5h4v-4h4v4h4v4h-4v4h-4v-4h-4zm31 47h-32v-32h32z"/><path d="m10 8h-1v-1a4 4 0 0 0 -8 0v3h9a1 1 0 0 1 1 1v14a1 1 0 0 0 2 0v-14a3 3 0 0 0 -3-3zm-9 45.974a5.958 5.958 0 0 0 .485 2.363l2.5 5.837a1.1 1.1 0 0 0 2.024 0l2.5-5.842a5.958 5.958 0 0 0 .491-2.358v-.974h-8z"/><path d="m1 12h8v39h-8z"/></g></svg>