<svg viewBox="0 0 64 64" xmlns="http://www.w3.org/2000/svg"><g fill="#2e2c2d"><path d="m39 4h-2.1a5 5 0 0 0 -9.8 0h-2.1a4.724 4.724 0 0 0 -5 5v3h24v-3a4.774 4.774 0 0 0 -5-5z"/><path d="m54 5h-9.147a7.208 7.208 0 0 1 1.147 4h3.5a1.5 1.5 0 0 1 1.5 1.5v47a1.5 1.5 0 0 1 -1.5 1.5h-35a1.5 1.5 0 0 1 -1.5-1.5v-47a1.5 1.5 0 0 1 1.5-1.5h3.5a7.3 7.3 0 0 1 1.113-4h-9.113a2 2 0 0 0 -2 2v55a2 2 0 0 0 2 2h44a2 2 0 0 0 2-2v-55a2 2 0 0 0 -2-2z"/><path d="m46 11v3h-28v-3h-3v46h34v-46zm-21 15h5v-5h4v5h5v4h-5v5h-4v-5h-5zm18 24h-21a1 1 0 0 1 0-2h21a1 1 0 0 1 0 2zm0-7h-21a1 1 0 0 1 0-2h21a1 1 0 0 1 0 2z"/></g></svg>