<svg viewBox="0 0 64 64" xmlns="http://www.w3.org/2000/svg"><g fill="#2e2c2d"><path d="m33.715 35.924 18.833 18.8c3.964-2.024 6.452-5.101 6.452-8.599 0-6.238-7.906-11.125-18-11.125a28.334 28.334 0 0 0 -7.285.924zm-10.715 10.201c0 6.238 7.906 11.125 18 11.125a27.624 27.624 0 0 0 8.649-1.324l-18.99-18.954c-4.659 1.991-7.659 5.313-7.659 9.153z"/><path d="m41 59.25c-8.136 0-14.824-2.881-18-7.246v.871c0 6.238 7.906 11.125 18 11.125s18-4.887 18-11.125v-.875c-3.176 4.369-9.864 7.25-18 7.25z"/><path d="m8.934 45.065a10.081 10.081 0 0 1 0-14.238l10.532-10.533 13.706 13.706.027-.009a30.244 30.244 0 0 1 7.692-.991l9-9a14.068 14.068 0 0 0 -19.891-19.895l-23.895 23.895a14.1 14.1 0 0 0 0 19.895 14.081 14.081 0 0 0 14.895 3.194v-4.137a1.99 1.99 0 0 0 -.813.171 10.149 10.149 0 0 1 -11.253-2.058zm22.6-36.809 1.309-1.306a10.057 10.057 0 0 1 14.207 0 2 2 0 0 1 -2.828 2.828 6.054 6.054 0 0 0 -8.55 0l-1.3 1.307a2 2 0 1 1 -2.83-2.828z"/></g></svg>