<svg viewBox="0 0 64 64" xmlns="http://www.w3.org/2000/svg"><g fill="#2e2c2d"><path d="m39 4h-2.1a5 5 0 0 0 -9.8 0h-2.1a4.724 4.724 0 0 0 -5 5v3h24v-3a4.774 4.774 0 0 0 -5-5z"/><path d="m54 5h-9.147a7.208 7.208 0 0 1 1.147 4h3.5a1.5 1.5 0 0 1 1.5 1.5v47a1.5 1.5 0 0 1 -1.5 1.5h-35a1.5 1.5 0 0 1 -1.5-1.5v-47a1.5 1.5 0 0 1 1.5-1.5h3.5a7.3 7.3 0 0 1 1.113-4h-9.113a2 2 0 0 0 -2 2v55a2 2 0 0 0 2 2h44a2 2 0 0 0 2-2v-55a2 2 0 0 0 -2-2z"/><path d="m18.352 35.041 3.287-4.109a1.457 1.457 0 0 1 1.213-.562 1.488 1.488 0 0 1 1.178.63l3.718 5.2 5.713-9.791a1.5 1.5 0 0 1 2.682.186l5.778 14.032 2.879-5.757a1.491 1.491 0 0 1 1.342-.829h2.858v-23.041h-3v3h-28v-3h-3v24.041z"/><path d="m46.451 36.041-3.232 6.459a1.5 1.5 0 0 1 -1.342.829h-.055a1.482 1.482 0 0 1 -1.332-.929l-5.811-14.108-5.593 9.585a1.491 1.491 0 0 1 -1.226.742 1.457 1.457 0 0 1 -1.291-.628l-3.781-5.291-3.023 3.78a1.49 1.49 0 0 1 -1.172.563h-3.593v19.957h34v-20.959z"/></g></svg>