<svg viewBox="0 0 64 64" xmlns="http://www.w3.org/2000/svg"><g fill="#2e2c2d"><path d="m22.539 28.376.02-.069c.125-.44.281-.987.492-1.622.949-2.844 3.949-9.861 11.349-13.585l5.153-2.48c-1.633-3.489-6.774-4.72-10.553-3.62v-2a2 2 0 0 0 -2-2h-3a2 2 0 0 0 -2 2v6s-5 4-3 12a10.358 10.358 0 0 0 3.539 5.376z"/><path d="m57.284 47.563c-.785-2.736-2.546-7.64-3.716-10.829-4.384-.929-15.568-3.873-15.568-9.734 0-2.679 1.278-6.085 6.852-8.125 3.934-1.542 6.148-2.625 7.148-4.187s-.083-2.771-3.167-4.6-8.75 2.5-13.531 4.8c-6.593 3.312-9.372 9.483-10.354 12.428a36.084 36.084 0 0 0 -.466 1.537 11.412 11.412 0 0 1 -1.6 3.7 13.538 13.538 0 0 1 -3 2.555 51.213 51.213 0 0 0 -10.024 9.162c4.598 10.665 19.768 19.61 33.761 19.73h.237c5.364 0 9.279-1.572 11.637-4.674 2.769-3.643 2.695-8.614 1.791-11.763z"/><path d="m47.027 20.276c-4.665 1.289-7.027 3.545-7.027 6.724s6.224 5.98 12.743 7.5l-.232-.62c.065-1.447.106-9.031-5.484-13.604zm-29.967 3.209a18.124 18.124 0 0 1 -.436-2.436 30.141 30.141 0 0 0 -4.364 4.519c-.7.688-6.272 6.572-3.2 16.53a54.279 54.279 0 0 1 9.64-8.598 14.987 14.987 0 0 0 2.516-2.055 8.544 8.544 0 0 0 .606-1.061l-.564-.471a12.33 12.33 0 0 1 -4.198-6.428zm13.924-18.848q.43-.029.869-.029c4.158 0 7.76 1.9 9.33 4.847q.411-.207.817-.4v-6.055a3 3 0 0 0 -3-3h-10a2.982 2.982 0 0 0 -2.22 1h.22a4.006 4.006 0 0 1 3.984 3.637zm-15.644 14.878a1.994 1.994 0 0 1 1.195-.458 13.29 13.29 0 0 1 3.465-8.904v-3.147l-1-.006a7.008 7.008 0 0 0 -7 7v8.769a31.8 31.8 0 0 1 3.34-3.254z"/></g></svg>