<svg viewBox="0 0 64 64" xmlns="http://www.w3.org/2000/svg"><g fill="#2e2c2d"><path d="m60.719 47.389-.264-.178c-.948-.649-5.233-3.44-8.068-5.287-1.12-.729-2-1.3-2.348-1.531a5.818 5.818 0 0 0 -7.857 1.485c-1.018 1.257-2.268 2.606-4.233 2.709-2.87.168-6.708-2.219-11.521-7.033s-7.183-8.691-7.034-11.521c.1-1.966 1.453-3.215 2.709-4.232a5.815 5.815 0 0 0 1.486-7.857c-.227-.345-.8-1.229-1.531-2.349-1.847-2.835-4.638-7.12-5.287-8.068l-.178-.264c-.923-1.373-2.466-3.679-5.715-3.203-2.308.333-10.896 4.806-10.896 14.501 0 8.352 6.748 20.086 18.05 31.388s23.035 18.051 31.388 18.051c9.7 0 14.168-8.589 14.5-10.9.47-3.243-1.828-4.788-3.201-5.711z"/><path d="m47-.006a17 17 0 1 0 17 17 17.019 17.019 0 0 0 -17-17zm9 20h-6v6h-6v-6h-6v-6h6v-6h6v6h6z"/></g></svg>