<svg viewBox="0 0 64 64" xmlns="http://www.w3.org/2000/svg"><g fill="#2e2c2d"><rect height="10" rx="1" width="7" x="49" y="21"/><rect height="10" rx="1" width="7" x="8" y="21"/><path d="m60 11h-17v-3a6.007 6.007 0 0 0 -6-6h-10a6.007 6.007 0 0 0 -6 6v3h-17a4 4 0 0 0 -4 4v9a1 1 0 0 0 1 1h5v-3a3 3 0 0 1 3-3h5a3 3 0 0 1 3 3v3h30v-3a3 3 0 0 1 3-3h5a3 3 0 0 1 3 3v3h5a1 1 0 0 0 1-1v-9a4 4 0 0 0 -4-4zm-35-3a2 2 0 0 1 2-2h10a2 2 0 0 1 2 2v3h-14zm30 25h-5a3 3 0 0 1 -3-3v-3h-30v3a3 3 0 0 1 -3 3h-5a3 3 0 0 1 -3-3v-3h-4v28a6 6 0 0 0 6 6h46c3.314 0 8-2.686 8-6v-28h-4v3a3 3 0 0 1 -3 3zm-12 12h-8v8h-6v-8h-8v-6h8v-8h6v8h8z"/></g></svg>