<svg viewBox="0 0 64 64" xmlns="http://www.w3.org/2000/svg"><g fill="#2e2c2d"><circle cx="31" cy="20.994" r="3"/><circle cx="35" cy="32.994" r="3"/><path d="m53.953 50.793-12.534-25.193a4.017 4.017 0 0 1 -.419-1.781v-19.825h1a2 2 0 0 0 0-4h-20a2 2 0 0 0 0 4h1v19.825a4.017 4.017 0 0 1 -.419 1.782l-12.523 25.178a8.926 8.926 0 0 0 -.951 5.6 9.209 9.209 0 0 0 9.158 7.612h27.444a9.182 9.182 0 0 0 9.27-8.371 8.961 8.961 0 0 0 -1.026-4.827zm-31.953 1.201a3 3 0 1 1 3-3 3 3 0 0 1 -3 3zm16 5a5 5 0 1 1 5-5 5.006 5.006 0 0 1 -5 5zm-20.346-16.994 6.718-13.5a6.026 6.026 0 0 0 .628-2.681v-19.825h14v19.825a6.026 6.026 0 0 0 .628 2.673l6.72 13.508z"/></g></svg>