<svg viewBox="0 0 64 64" xmlns="http://www.w3.org/2000/svg"><g fill="#2e2c2d"><path d="m36 19h-4v-4h-4v4h-4v4h4v4h4v-4h4z"/><path d="m57.285 34.424c-.511-1.235-4.976-6.838-4.976-7.764 0-1.069 1.069-4.355 1.069-6.414 0-9.368-5.216-20.246-23.378-20.246-17.8 0-23.656 13.04-23.656 20.246s2.025 12.6 4.276 14.965 4.28 4.537 4.28 8.552a10.643 10.643 0 0 1 -1.584 5.643.991.991 0 0 0 .287 1.346l18.463 12.635a1 1 0 0 0 1.48-.423c1.279-2.929 4.763-10.65 5.936-10.65 2.138 0 6.347 2.138 9.621 2.138s2.659-7.572 3.682-10.66 1.662-4.9 1.662-6.443c4.091-.412 3.353-1.69 2.838-2.925zm-27.285-1.424a12 12 0 1 1 12-12 12 12 0 0 1 -12 12z"/></g></svg>