<svg viewBox="0 0 64 64" xmlns="http://www.w3.org/2000/svg"><g fill="#2e2c2d"><path d="m29 42a2 2 0 0 0 2 2h30a2 2 0 0 0 0-4h-30a2 2 0 0 0 -2 2zm-18-28.524a2.932 2.932 0 0 0 .863 2.088l18.574 18.574a2.956 2.956 0 0 0 4.176 0l5.525-5.525a2.959 2.959 0 0 0 0-4.176l-18.575-18.575a2.957 2.957 0 0 0 -4.176 0l-5.524 5.524a2.933 2.933 0 0 0 -.863 2.09z"/><circle cx="14" cy="43" r="6"/><path d="m9.741 10.892a4.946 4.946 0 0 1 .708-.919l5.524-5.524a4.944 4.944 0 0 1 .918-.708l-2.649-2.65a1.536 1.536 0 0 0 -2.121 0l-5.031 5.029a1.5 1.5 0 0 0 0 2.121z"/><path d="m15.41 21.939a20.922 20.922 0 0 0 -5.41 14.061v.08a7.956 7.956 0 0 1 9.04.717c-.018-.266-.044-.531-.044-.8a12.044 12.044 0 0 1 2.793-7.678zm48.442 38.9a8.452 8.452 0 0 0 -7.59-4.839h-18.862a20.866 20.866 0 0 0 12.063-10h-11.838a11.981 11.981 0 0 1 -15.675-2.126 8.012 8.012 0 0 1 -5.911 6.853 20.963 20.963 0 0 0 8.581 5.273h-4.979a23.127 23.127 0 0 1 -5.028-3.871l-1.137-1.156a7.965 7.965 0 0 1 -4.476-1.75v6.777h-1.262a8.452 8.452 0 0 0 -7.59 4.839 1.521 1.521 0 0 0 .083 1.461 1.474 1.474 0 0 0 1.255.7h61.027a1.474 1.474 0 0 0 1.255-.7 1.523 1.523 0 0 0 .084-1.461z"/></g></svg>