<svg viewBox="0 0 64 64" xmlns="http://www.w3.org/2000/svg"><path d="m63.707 62.293-13.15-13.15.721-.721a3.025 3.025 0 0 0 0-4.271l-3.278-3.281a3.015 3.015 0 0 0 -.577-3.435l-11.294-11.291a.565.565 0 0 0 -.31-.31l-7.719-7.717a4.993 4.993 0 0 0 2.891-1.41 5.041 5.041 0 1 0 -7.129-7.128l-5.436 5.436-11.441-11.444 1.865-1.864a1 1 0 0 0 -1.414-1.414l-7.143 7.143a1 1 0 1 0 1.414 1.414l1.864-1.865 11.444 11.444-5.436 5.435a5.041 5.041 0 0 0 7.128 7.129 4.992 4.992 0 0 0 1.41-2.891l19.319 19.319a2.981 2.981 0 0 0 3.434.579l3.279 3.28a3.025 3.025 0 0 0 4.271 0l.722-.722 13.15 13.15a1 1 0 0 0 1.414-1.414zm-49.889-39.839 8.636-8.636a4.987 4.987 0 0 0 1.411 2.889l1.435 1.436-3.578 3.579a1 1 0 1 0 1.414 1.414l3.578-3.579 2.872 2.872-2.15 2.15a1 1 0 1 0 1.414 1.414l2.15-2.15 2.856 2.857-3.566 3.6a1 1 0 1 0 1.42 1.4l3.56-3.591 3.594 3.594-2.15 2.15-5.007 5.007-15-15a4.987 4.987 0 0 0 -2.889-1.406zm15.761-11.46a3.044 3.044 0 1 1 -2.15-.89 3.045 3.045 0 0 1 2.15.889zm-14.286 18.585a3.041 3.041 0 1 1 0-4.3 3.042 3.042 0 0 1 0 4.3zm30.271 20.285-3.15-3.15 4.3-4.3 3.15 3.151a1.023 1.023 0 0 1 0 1.441l-2.858 2.857a1.048 1.048 0 0 1 -1.442.001z" fill="#2e2c2d"/></svg>