<svg viewBox="0 0 64 64" xmlns="http://www.w3.org/2000/svg"><g fill="#2e2c2d"><path d="m30 48.954v-9.054a23.074 23.074 0 0 0 20.782-19.771 1 1 0 0 0 -.991-1.135h-43.582a1 1 0 0 0 -.991 1.135 23.074 23.074 0 0 0 20.782 19.771v12.094h4zm-4 11.04h-11a2 2 0 1 0 0 4h26a2 2 0 0 0 0-4h-11v-4h-4z"/><path d="m64 16.994c0-5.913-2.074-10.388-6.165-13.3-7.824-5.571-21.024-3.569-28.546-1.24a5.156 5.156 0 0 0 -2.125-1.262 4.989 4.989 0 0 0 -3.966.517l-4.031 2.4c-4.154 2.472-4.8 6.042-3.638 8.314a4.647 4.647 0 0 0 2.882 2.362 5.507 5.507 0 0 0 1.525.208 8.724 8.724 0 0 0 4.387-1.354l4.033-2.4a5.5 5.5 0 0 0 2.628-5.124c8.212-2.472 18.857-3.2 24.531.836 3.018 2.149 4.485 5.435 4.485 10.043 0 15.9-12.236 27.165-30 27.952v4.008c20.122-.802 34-13.717 34-31.96z"/><path d="m45 61.994a2 2 0 0 0 4 0c0-5.794-4.626-10-11-10h-18.5a1.5 1.5 0 1 1 0-3h3.5a2 2 0 0 0 0-4h-3.5a5.5 5.5 0 1 0 0 11h18.5c3.484 0 7 1.856 7 6z"/></g></svg>