<svg viewBox="0 0 64 64" xmlns="http://www.w3.org/2000/svg"><path d="m63.34 11.484a15.949 15.949 0 0 0 -4.033-6.79 15.952 15.952 0 0 0 -6.791-4.034q-.747-.22-1.51-.367a15.788 15.788 0 0 0 -8.046.5 15.722 15.722 0 0 0 -6.409 3.9l-15.929 15.929-15.929 15.929a16.138 16.138 0 0 0 0 22.756 16.138 16.138 0 0 0 22.755 0l31.859-31.858a15.972 15.972 0 0 0 4.4-8.3 16.282 16.282 0 0 0 -.367-7.665zm-6.412.417a2 2 0 0 1 -2.828 0 8.74 8.74 0 0 0 -12.342 0l-1.741 1.741a2 2 0 0 1 -2.828-2.828l1.741-1.742a12.738 12.738 0 0 1 18 0 2 2 0 0 1 -.002 2.828zm-32.308 44.577a12.091 12.091 0 0 1 -17.1-17.1l15.931-15.927 17.1 17.1z" fill="#2e2c2d"/></svg>