<svg viewBox="0 0 64 64" xmlns="http://www.w3.org/2000/svg"><g fill="#2e2c2d"><path d="m43 52c-9.478 0-17.441-3.561-21-8.786v1.786c0 7.168 9.421 13 21 13s21-5.832 21-13v-1.786c-3.559 5.225-11.522 8.786-21 8.786z"/><path d="m31.714 26.055c-5.831 2.313-9.714 6.345-9.714 10.945 0 7.168 9.421 13 21 13a31.087 31.087 0 0 0 10.729-1.846zm11.286-2.055a32.423 32.423 0 0 0 -7.608.9l21.656 21.735c4.252-2.381 6.952-5.813 6.952-9.635 0-7.168-9.421-13-21-13z"/><path d="m20.012 36.744a10.212 10.212 0 0 1 .2-1.762c-9.125-.192-16.752-3.688-20.212-8.768v1.786c0 6.959 8.887 12.642 20 12.969v-4.243z"/><path d="m30.977 24.2 3.946-1.243a34.249 34.249 0 0 1 6.793-.915 8.2 8.2 0 0 0 .284-2.042c0-4.6-3.883-8.632-9.714-10.945l-22.016 22.1a31.046 31.046 0 0 0 10.551 1.845c1.511-3.645 5.073-6.788 10.156-8.8zm-24.025 5.435 21.656-21.735a32.423 32.423 0 0 0 -7.608-.9c-11.579 0-21 5.832-21 13 0 3.822 2.7 7.254 6.952 9.635z"/></g></svg>