<svg viewBox="0 0 64 64" xmlns="http://www.w3.org/2000/svg"><g fill="#2e2c2d"><path d="m62 19h-14.343l11.176-10.176a4 4 0 0 0 -5.657-5.657l-14.833 15.833h-36.343a2.006 2.006 0 0 0 -2 2v2a2.006 2.006 0 0 0 2 2h60a2.006 2.006 0 0 0 2-2v-2a2.006 2.006 0 0 0 -2-2zm-57 8v2a27 27 0 0 0 54 0v-2zm27 21a9 9 0 1 1 9-9 9 9 0 0 1 -9 9z"/><path d="m33 38v-4h-2v4h-4v2h4v4h2v-4h4v-2zm9.133 18.169a28.961 28.961 0 0 1 -20.266 0 25.2 25.2 0 0 0 -7.319 4.98.5.5 0 0 0 .359.851h34.187a.5.5 0 0 0 .359-.851 25.2 25.2 0 0 0 -7.32-4.98z"/></g></svg>