<svg viewBox="0 0 64 64" xmlns="http://www.w3.org/2000/svg"><g fill="#2e2c2d"><path d="m36 45v4a13 13 0 0 1 -26 0v-15h.561a3 3 0 0 0 2.939-3.589l-1.2-6a3 3 0 0 0 -2.3-2.334v-2.952a1 1 0 0 0 -2 0v2.952a3 3 0 0 0 -2.3 2.334l-1.2 6a3 3 0 0 0 2.939 3.589h.561v15a15 15 0 0 0 30 0v-4z"/><path d="m56 5h-6.3a7 7 0 0 0 -13.4 0h-6.3a5.006 5.006 0 0 0 -5 5v22a11.012 11.012 0 0 0 11 11h6v3a3 3 0 0 0 3 3h2a3 3 0 0 0 3-3v-3a11.012 11.012 0 0 0 11-11v-22a5.006 5.006 0 0 0 -5-5zm-13-3a4.969 4.969 0 0 1 4.567 3h-9.134a4.969 4.969 0 0 1 4.567-3zm-7.947 30.891a3.942 3.942 0 0 1 -2.869-2.646c-1.025-3.351 2.5-6.531 3.726-10.909a.091.091 0 0 1 .178 0c1.079 3.833 3.912 6.749 3.912 9.664a4.006 4.006 0 0 1 -4.947 3.891zm12.947 13.109a1 1 0 0 1 -1 1h-2a1 1 0 0 1 -1-1v-3h4zm9-12h-5a1 1 0 0 1 0-2h5a1 1 0 0 1 0 2zm0-6h-6a1 1 0 0 1 0-2h6a1 1 0 0 1 0 2zm0-6h-5a1 1 0 0 1 0-2h5a1 1 0 0 1 0 2zm2-8h-32v-4a3 3 0 0 1 3-3h26a3 3 0 0 1 3 3z"/></g></svg>