<svg viewBox="0 0 64 64" xmlns="http://www.w3.org/2000/svg"><g fill="#2e2c2d"><path d="m61 23h-4a1 1 0 0 0 -1 1 12 12 0 0 1 -24 0 1 1 0 0 0 -1-1h-4a1 1 0 0 0 -1 1 18 18 0 0 0 15 17.739v1.261a1.994 1.994 0 0 0 1 1.722v6.278a9 9 0 0 1 -18 0v-25a8 8 0 0 0 -16 0v20.232a9 9 0 1 0 4 0v-20.232a4 4 0 0 1 8 0v25a13 13 0 0 0 26 0v-6.278a1.994 1.994 0 0 0 1-1.722v-1.261a18 18 0 0 0 15-17.739 1 1 0 0 0 -1-1zm-46 32a5 5 0 1 1 -5-5 5.006 5.006 0 0 1 5 5z"/><path d="m55 4a2 2 0 0 1 2 2v15h4v-15a6.007 6.007 0 0 0 -6-6 2 2 0 0 0 0 4zm-24 2a2 2 0 0 1 2-2 2 2 0 0 0 0-4 6.007 6.007 0 0 0 -6 6v15h4z"/><circle cx="10" cy="55" r="3"/></g></svg>