<svg viewBox="0 0 64 64" xmlns="http://www.w3.org/2000/svg"><g fill="#2e2c2d"><path d="m62.534 7.286-2.842-2.832a5.034 5.034 0 0 0 -7.095 0l-23.889 23.826 6.392 6.372a4.022 4.022 0 0 0 2.847 1.173 3.954 3.954 0 0 0 2.8-1.149l21.763-20.285.024-.023a5.009 5.009 0 0 0 0-7.081z"/><path d="m36.384 37.615a5.983 5.983 0 0 1 -2.695-1.547l-6.389-6.368-26.9 26.792a1.1 1.1 0 0 0 -.312.986l.155.6.488.212a23.722 23.722 0 0 0 8.956 1.7h.2c.017 0 .031.01.048.01h24.065a1 1 0 0 0 0-2h-14.812a26.755 26.755 0 0 0 8.091-5.642c6.085-6.07 8.306-11.383 9.105-14.743zm10.616 20.379h-6a1 1 0 0 0 0 2h6a1 1 0 0 0 0-2zm13 0h-6a1 1 0 0 0 0 2h6a1 1 0 0 0 0-2z"/></g></svg>