<svg viewBox="0 0 64 64" xmlns="http://www.w3.org/2000/svg"><path d="m63.708 62.324-12.437-12.436 1.436-1.436a2.012 2.012 0 0 0 0-2.843l-2.725-2.725a6.022 6.022 0 0 0 -1.562-5.847l-23.855-23.856-4.293-4.293 2.15-2.15a1 1 0 0 0 -1.414-1.414l-2.856 2.856-2.152 2.151-6.443-6.443 2.15-2.15a1 1 0 0 0 -1.414-1.414l-2.15 2.15-5.7 5.7-2.15 2.15a1 1 0 1 0 1.414 1.414l2.15-2.15 6.443 6.443-2.149 2.149-2.858 2.858a1 1 0 1 0 1.414 1.414l2.15-2.15 17.15 17.15 11 11a6.022 6.022 0 0 0 5.847 1.561l2.724 2.725a2.012 2.012 0 0 0 2.843 0l1.436-1.438 12.436 12.438a1 1 0 0 0 1.414-1.414zm-51.994-44.879 2.85-2.85 4.294-4.295 3.586 3.586-2.436 2.436a1 1 0 1 0 1.414 1.414l2.435-2.436 2.872 2.872-3.864 3.864a1 1 0 1 0 1.414 1.414l3.864-3.864 2.872 2.872-2.436 2.442a1 1 0 1 0 1.414 1.414l2.436-2.436 2.871 2.867-8.586 8.586-16.442-16.444zm35.279 33.879-2.214-2.215a6.113 6.113 0 0 0 .786-.657l2.857-2.857a6.114 6.114 0 0 0 .655-.784l2.217 2.227z" fill="#2e2c2d"/></svg>