<svg viewBox="0 0 64 64" xmlns="http://www.w3.org/2000/svg"><path d="m62.424 19.843-18.249-18.249a4.012 4.012 0 0 0 -5.657 0l-36.924 36.925a4.012 4.012 0 0 0 0 5.657l18.249 18.248a4.012 4.012 0 0 0 5.657 0l36.924-36.924a4.012 4.012 0 0 0 0-5.657zm-49.424 25.157a4 4 0 1 1 4-4 4 4 0 0 1 -4 4zm9-17a4 4 0 1 1 -4 4 4 4 0 0 1 4-4zm1 27a4 4 0 1 1 4-4 4 4 0 0 1 -4 4zm8-36a4 4 0 1 1 -4 4 4 4 0 0 1 4-4zm1 27a4 4 0 1 1 4-4 4 4 0 0 1 -4 4zm8-36a4 4 0 1 1 -4 4 4 4 0 0 1 4-4zm1 27a4 4 0 1 1 4-4 4 4 0 0 1 -4 4zm9-9a4 4 0 1 1 4-4 4 4 0 0 1 -4 4z" fill="#2e2c2d"/></svg>