<svg viewBox="0 0 64 64" xmlns="http://www.w3.org/2000/svg"><g fill="#2e2c2d"><path d="m62.828 57.152-8.816-8.816a1 1 0 0 0 .226-1.066l-1.9-4.93a22.724 22.724 0 0 0 -5.138-7.914l-33.25-33.254a4.013 4.013 0 0 0 -5.676 0l-7.1 7.1a4.013 4.013 0 0 0 0 5.676l33.252 33.252a22.724 22.724 0 0 0 7.912 5.141l4.93 1.9a1 1 0 0 0 1.066-.226l8.816 8.816a4.013 4.013 0 0 0 5.676-5.676zm-15.45-5.012-4.321-1.662a20.608 20.608 0 0 1 -7.219-4.69l-33.252-33.252a2.016 2.016 0 0 1 0-2.848l7.1-7.1a2.016 2.016 0 0 1 2.848 0l8.827 8.827-1.424 1.424a1 1 0 1 0 1.414 1.414l1.424-1.424 4.257 4.257-1.422 1.422a1 1 0 1 0 1.414 1.414l1.424-1.422 4.258 4.258-1.424 1.423a1 1 0 1 0 1.418 1.412l1.42-1.423 4.257 4.257-1.424 1.424a1 1 0 1 0 1.414 1.414l1.424-1.424 4.257 4.259-1.424 1.424a1 1 0 1 0 1.414 1.414l1.424-1.424.326.326a20.608 20.608 0 0 1 4.69 7.219l1.662 4.321z"/><path d="m9.988 9.988a2 2 0 0 0 0 2.828l36.391 36.391 2.828-2.828-36.391-36.391a2 2 0 0 0 -2.828 0z"/></g></svg>