<svg viewBox="0 0 64 64" xmlns="http://www.w3.org/2000/svg"><path d="m59-.006h-54a5.015 5.015 0 0 0 -5 5v54a5.015 5.015 0 0 0 5 5h54a5.015 5.015 0 0 0 5-5v-54a5.015 5.015 0 0 0 -5-5zm-35.831 56.906a7.025 7.025 0 0 1 -8.07-5.772l-2-11.909a7 7 0 1 1 13.8-2.351l2 11.909a7.062 7.062 0 0 1 -5.73 8.123zm27.723-17.616-2.092 11.899a6.982 6.982 0 0 1 -8.066 5.7 7.064 7.064 0 0 1 -5.622-8.18l2.095-11.9a6.982 6.982 0 0 1 8.066-5.7 7.064 7.064 0 0 1 5.619 8.181zm-8.892-13.29h-8.953l3.91-12.706a1 1 0 0 0 -1.912-.588l-4 13a.973.973 0 0 0 -.029.294h-9.016l-9-15a40.878 40.878 0 0 1 18-3.987v3.987a1 1 0 0 0 2 0v-3.973c6.459.129 12.621 1.146 18 3.974z" fill="#2e2c2d"/></svg>