<svg viewBox="0 0 64 64" xmlns="http://www.w3.org/2000/svg"><g fill="#2e2c2d"><path d="m22 37a10 10 0 1 0 10 10 10.012 10.012 0 0 0 -10-10z"/><path d="m59.55 57h-6.64a5.964 5.964 0 0 0 -.925-2.335 1.475 1.475 0 0 0 .015-.155v-21.51h-.087a13.515 13.515 0 0 0 -13.413-12.01h-18.081l-1.498-5.99h.986a4 4 0 0 0 3.881-4.97l-.871-3.485a5.992 5.992 0 0 0 -5.817-4.545h-11.6a1.5 1.5 0 0 0 0 3h7.829l6.3 25.186a16.99 16.99 0 1 0 19.243 18.814h10.128v3.35a6 6 0 1 0 3.65 7.65h6.9a1.5 1.5 0 0 0 0-3zm-21.05-33.01a10.507 10.507 0 0 1 10.382 9.01h-17.26a16.889 16.889 0 0 0 -8.943-2.966l-1.51-6.044zm-16.5 36.01a13 13 0 1 1 13-13 13.014 13.014 0 0 1 -13 13zm16.949-14a16.858 16.858 0 0 0 -1.475-6h11.526v6z"/></g></svg>