<svg viewBox="0 0 64 64" xmlns="http://www.w3.org/2000/svg"><g fill="#2e2c2d"><path d="m2 0h60a2 2 0 0 1 2 2v3h-64v-3a2 2 0 0 1 2-2z"/><path d="m37.4 16.193a5.637 5.637 0 0 1 4.494.695c1.484.913 4.164 3.275 6.623 2.617l15.483-3.968v-8.537h-64v45.929l11.235-11.4c1.913-1.913 1.264-3.962 1.263-7.322a6.134 6.134 0 0 1 11.626-2.807c1.286 2.668 1.7 3.143 4.57 4.521a6.135 6.135 0 0 1 -2.9 11.58c-1.808 0-5.439-.62-7.322 1.263l-14.632 15.236h58.16a2.006 2.006 0 0 0 2-2v-35.985l-13.061 3.315c-2.5.668-2.959 2.745-4.589 5.614a5.771 5.771 0 0 1 -10.737-1.516 6.308 6.308 0 0 1 -.168-1.952c.239-2.927.125-3.544-1.557-6.167a6.212 6.212 0 0 1 -.7-1.707 6.11 6.11 0 0 1 4.212-7.409zm1.6 31.807h17a1 1 0 0 1 0 2h-17a1 1 0 0 1 0-2zm0 6h11a1 1 0 0 1 0 2h-11a1 1 0 0 1 0-2z"/></g></svg>