<svg viewBox="0 0 64 64" xmlns="http://www.w3.org/2000/svg"><g fill="#2e2c2d"><path d="m51.8 23.1a2 2 0 0 0 -1.1 2.6 20.1 20.1 0 0 1 0 14.5 2 2 0 0 0 1.1 2.6h.7a2 2 0 0 0 1.9-1.3 24.1 24.1 0 0 0 0-17.5 2 2 0 0 0 -2.6-.9zm-39.6 0a2 2 0 0 0 -2.6 1.1 24.1 24.1 0 0 0 0 17.5 2 2 0 0 0 1.9 1.3h.7a2 2 0 0 0 1.1-2.6 20.1 20.1 0 0 1 0-14.5 2 2 0 0 0 -1.1-2.8zm49.1-3a2 2 0 1 0 -3.7 1.6 28.1 28.1 0 0 1 0 22.4 2 2 0 0 0 1 2.6l.8.2a2 2 0 0 0 1.8-1.2 32.1 32.1 0 0 0 0-25.6zm-56-1a2 2 0 0 0 -2.6 1 32.1 32.1 0 0 0 0 25.6 2 2 0 0 0 1.8 1.2l.8-.2a2 2 0 0 0 1-2.6 28.1 28.1 0 0 1 0-22.4 2 2 0 0 0 -1-2.6z"/><path d="m40 7h-14v-4a2 2 0 1 0 -4 0v4.3a8 8 0 0 0 -6 7.7v40a8 8 0 0 0 8 8h16a8 8 0 0 0 8-8v-40a8 8 0 0 0 -8-8zm4 28h-24v-20h24zm-19.4 10.6a2.1 2.1 0 0 1 2.8 0 2 2 0 0 1 .6 1.4 2 2 0 1 1 -3.4-1.4zm-.6-4.6a2 2 0 0 1 .6-1.4 2.1 2.1 0 0 1 2.8 0 2 2 0 0 1 .6 1.4 2 2 0 0 1 -2 2 2 2 0 0 1 -2-2zm.6 10.6a2.1 2.1 0 0 1 2.8 0 2 2 0 0 1 .6 1.4 2 2 0 1 1 -3.4-1.4zm6-6a2.1 2.1 0 0 1 2.8 0 2 2 0 0 1 .6 1.4 2 2 0 0 1 -2 2 2 2 0 0 1 -2-2 2 2 0 0 1 .6-1.4zm-.6-4.6a2 2 0 0 1 .6-1.4 2.1 2.1 0 0 1 2.8 0 2 2 0 0 1 .6 1.4 2 2 0 0 1 -2 2 2 2 0 0 1 -2-2zm.6 10.6a2.1 2.1 0 0 1 2.8 0 2 2 0 0 1 .6 1.4 2 2 0 0 1 -2 2 2 2 0 0 1 -2-2 2 2 0 0 1 .6-1.4zm6-6a2.1 2.1 0 0 1 2.8 0 2 2 0 0 1 .6 1.4 2 2 0 0 1 -2 2 2 2 0 0 1 -2-2 2 2 0 0 1 .6-1.4zm-.6-4.6a2 2 0 0 1 .6-1.4 2.1 2.1 0 0 1 2.8 0 2 2 0 0 1 .6 1.4 2 2 0 0 1 -2 2 2 2 0 0 1 -2-2zm.6 10.6a2.1 2.1 0 0 1 2.8 0 2 2 0 0 1 .6 1.4 2 2 0 0 1 -2 2 2 2 0 0 1 -2-2 2 2 0 0 1 .6-1.4z"/></g></svg>