<svg viewBox="0 0 64 64" xmlns="http://www.w3.org/2000/svg"><path d="m41 11h-16v-8a2 2 0 0 0 -4 0v8.3a6 6 0 0 0 -4 5.7v40a6 6 0 0 0 6 6h18a6 6 0 0 0 6-6v-40a6 6 0 0 0 -6-6zm-14.6 45.4a2 2 0 0 1 -1.4.6 2 2 0 0 1 -1.4-.6 2 2 0 0 1 -.6-1.4 2 2 0 0 1 .6-1.4 2.1 2.1 0 0 1 2.8 0 2.1 2.1 0 0 1 .6 1.4 2 2 0 0 1 -.6 1.4zm0-6a2 2 0 0 1 -1.4.6 2 2 0 0 1 -1.4-.6 2 2 0 0 1 -.6-1.4 2 2 0 0 1 .6-1.4 2.1 2.1 0 0 1 2.8 0 2.1 2.1 0 0 1 .6 1.4 2 2 0 0 1 -.6 1.4zm0-6a2 2 0 0 1 -1.4.6 2 2 0 0 1 -1.4-.6 2 2 0 0 1 0-2.8 2.1 2.1 0 0 1 2.8 0 2.1 2.1 0 0 1 .6 1.4 2 2 0 0 1 -.6 1.4zm7 12a2 2 0 0 1 -1.4.6 2 2 0 0 1 -1.4-.6 2 2 0 0 1 -.6-1.4 2 2 0 0 1 .6-1.4 2 2 0 0 1 3.4 1.4 2 2 0 0 1 -.6 1.4zm0-6a2 2 0 0 1 -1.4.6 2 2 0 0 1 -1.4-.6 2 2 0 0 1 -.6-1.4 2 2 0 0 1 .6-1.4 2.1 2.1 0 0 1 2.8 0 2.1 2.1 0 0 1 .6 1.4 2 2 0 0 1 -.6 1.4zm0-6a2 2 0 0 1 -1.4.6 2 2 0 0 1 -1.4-3.4 2.1 2.1 0 0 1 2.8 0 2.1 2.1 0 0 1 .6 1.4 2 2 0 0 1 -.6 1.4zm7 12a2 2 0 0 1 -2.8-2.8 2.1 2.1 0 0 1 2.8 0 2.1 2.1 0 0 1 .6 1.4 2 2 0 0 1 -.6 1.4zm0-6a2 2 0 0 1 -2.8-2.8 2.1 2.1 0 0 1 2.8 0 2.1 2.1 0 0 1 .6 1.4 2 2 0 0 1 -.6 1.4zm0-6a2 2 0 0 1 -2.8 0 2 2 0 0 1 -.6-1.4 2 2 0 0 1 .6-1.4 2.1 2.1 0 0 1 2.8 0 2.1 2.1 0 0 1 .6 1.4 2 2 0 0 1 -.6 1.4zm2.6-9.4h-22v-16h22z" fill="#2e2c2d"/></svg>