<svg viewBox="0 0 64 64" xmlns="http://www.w3.org/2000/svg"><g fill="#2e2c2d"><path d="m32 20.1a8 8 0 0 0 -2 15.7v22.3a2 2 0 0 0 4 0v-22.3a8 8 0 0 0 -2-15.7z"/><path d="m46.4 11.5a2 2 0 0 0 -2.6 3 18 18 0 0 1 0 27.2 2 2 0 1 0 2.6 3 22 22 0 0 0 0-33.2zm-32.4 16.6a18 18 0 0 1 6.2-13.6 2 2 0 0 0 -2.6-3 22 22 0 0 0 0 33.2 2 2 0 0 0 2.6-3 18 18 0 0 1 -6.2-13.6z"/><path d="m53.5 4.4a2 2 0 0 0 -2.7 3 28 28 0 0 1 0 41.4 2 2 0 1 0 2.7 3 32 32 0 0 0 0-47.3zm-49.5 23.7a28.1 28.1 0 0 1 9.2-20.7 2 2 0 0 0 -2.7-3 32 32 0 0 0 0 47.3 2 2 0 1 0 2.7-3 28.1 28.1 0 0 1 -9.2-20.6z"/></g></svg>