<svg viewBox="0 0 64 64" xmlns="http://www.w3.org/2000/svg"><g fill="#2e2c2d"><path d="m37.4 54.3c-8.2-1.4-7.4-3.5-7.4-4.9v-2.5a13.9 13.9 0 0 0 4-10.1v-6.7c0-7.3-5.3-10.1-10-10.1s-10 2.8-10 10.1v6.7a13.9 13.9 0 0 0 4.1 10.1v2.5c0 1.4.7 3.5-7.4 4.9s-8.7 5.7-8.7 7.7h44c0-2-1.3-6.4-8.6-7.7z"/><path d="m49 2h-12a13 13 0 0 0 -13 13c0 .3 0 .7.1 1 6.2 0 12.9 3.8 13.8 12h4.1v7l7.6-7a13 13 0 0 0 -.6-26zm-12.6 14.4a2 2 0 0 1 -2.8-2.8 2.1 2.1 0 0 1 2.8 0 2 2 0 0 1 .6 1.4 2 2 0 0 1 -.6 1.4zm8 0a2.1 2.1 0 0 1 -1.4.6 2 2 0 0 1 -2-2 2 2 0 0 1 .6-1.4 2.1 2.1 0 0 1 2.8 0 2 2 0 0 1 .6 1.4 2 2 0 0 1 -.6 1.4zm8 0a2 2 0 0 1 -1.4.6 2 2 0 0 1 -2-2 2 2 0 0 1 .6-1.4 2.1 2.1 0 0 1 2.8 0 2 2 0 0 1 .6 1.4 2 2 0 0 1 -.6 1.4z"/></g></svg>