<svg viewBox="0 0 64 64" xmlns="http://www.w3.org/2000/svg"><g fill="#2e2c2d"><path d="m33.5 39.4a2 2 0 0 0 2.8 0l7.1-7 1.4-1.4-1.4-1.4-7.1-7a2 2 0 0 0 -2.8 2.8l3.6 3.6h-13.1a2 2 0 0 0 0 4h13.1l-3.6 3.6a2 2 0 0 0 0 2.8z"/><path d="m52.5 8h-10.5v8h12v38h-12.7a9.5 9.5 0 0 1 -8.8 6h-6.3a5.5 5.5 0 0 0 5.3 4h21a5.5 5.5 0 0 0 5.5-5.5v-45a5.5 5.5 0 0 0 -5.5-5.5z"/><path d="m38 50.5v-7.4a6 6 0 0 1 -3.1.9h-.9v2h-24v-38h24v10.1h.9a6 6 0 0 1 3.1.9v-13.5a5.5 5.5 0 0 0 -5.5-5.5h-21a5.5 5.5 0 0 0 -5.5 5.5v45a5.5 5.5 0 0 0 5.5 5.5h21a5.5 5.5 0 0 0 5.5-5.5z"/></g></svg>