<svg viewBox="0 0 64 64" xmlns="http://www.w3.org/2000/svg"><g fill="#2e2c2d"><path d="m16 11h-6v-8a2 2 0 0 0 -4 0v8a4 4 0 0 0 -4 4v44a4 4 0 0 0 4 4h10a4 4 0 0 0 4-4v-44a4 4 0 0 0 -4-4z"/><path d="m58 9-6-6h-26v12h32zm0 10h-34v44h34a4 4 0 0 0 4-4v-36a4 4 0 0 0 -4-4zm-21.6 39.4a2 2 0 0 1 -1.4.6 2.1 2.1 0 0 1 -1.4-.6 2 2 0 0 1 -.6-1.4 2 2 0 0 1 .6-1.4 2.1 2.1 0 0 1 2.8 0 2 2 0 0 1 0 2.8zm0-8a2 2 0 0 1 -1.4.6 2.1 2.1 0 0 1 -1.4-.6 2 2 0 0 1 -.6-1.4 2 2 0 0 1 .6-1.4 2.1 2.1 0 0 1 2.8 0 2 2 0 0 1 0 2.8zm0-8a2 2 0 0 1 -1.4.6 2.1 2.1 0 0 1 -1.4-.6 2 2 0 0 1 -.6-1.4 2 2 0 0 1 .6-1.4 2.1 2.1 0 0 1 2.8 0 2 2 0 0 1 .6 1.4 2 2 0 0 1 -.6 1.4zm8 16a2 2 0 0 1 -1.4.6 2.1 2.1 0 0 1 -1.4-.6 2 2 0 0 1 0-2.8 2.1 2.1 0 0 1 2.8 0 2 2 0 0 1 .6 1.4 2 2 0 0 1 -.6 1.4zm0-8a2 2 0 0 1 -1.4.6 2.1 2.1 0 0 1 -1.4-.6 2 2 0 0 1 -.6-1.4 2 2 0 0 1 .6-1.4 2.1 2.1 0 0 1 2.8 0 2 2 0 0 1 .6 1.4 2 2 0 0 1 -.6 1.4zm0-8a2 2 0 0 1 -2.8 0 2 2 0 0 1 -.6-1.4 2 2 0 0 1 .6-1.4 2.1 2.1 0 0 1 2.8 0 2 2 0 0 1 0 2.8zm8 16a2 2 0 0 1 -1.4.6 2.1 2.1 0 0 1 -1.4-.6 2 2 0 0 1 0-2.8 2.1 2.1 0 0 1 2.8 0 2 2 0 0 1 .6 1.4 2 2 0 0 1 -.6 1.4zm0-8a2 2 0 0 1 -1.4.6 2.1 2.1 0 0 1 -1.4-.6 2 2 0 0 1 -.6-1.4 2 2 0 0 1 .6-1.4 2.1 2.1 0 0 1 2.8 0 2 2 0 0 1 .6 1.4 2 2 0 0 1 -.6 1.4zm0-8a2 2 0 0 1 -1.4.6 2.1 2.1 0 0 1 -1.4-.6 2 2 0 0 1 0-2.8 2.1 2.1 0 0 1 2.8 0 2 2 0 0 1 0 2.8zm1.6-7.4h-22v-8h22z"/></g></svg>