<svg viewBox="0 0 64 64" xmlns="http://www.w3.org/2000/svg"><g fill="#2e2c2d"><path d="m51.3 49.8-9.2-6a4.3 4.3 0 0 0 -5.8 1.1c-2.1 2.6-4.6 6.8-14.3-2.9s-5.4-12.3-2.9-14.3a4.3 4.3 0 0 0 1.1-5.8l-6-9.2c-.8-1.2-1.9-3-4.3-2.7s-8.9 4-8.9 12 6.3 17.7 14.8 26.2 18.3 14.8 26.2 14.8 11.7-7 12-8.9-1.6-3.5-2.7-4.3z"/><path d="m61 15h-2v-4a2 2 0 1 0 -4 0v4h-5l4.8-11.2a2 2 0 1 0 -3.7-1.6l-7.1 16.8h11v4a2 2 0 1 0 4 0v-4h2a2 2 0 0 0 0-4z"/><path d="m26.7 25h16.3a2 2 0 0 0 0-4h-7.7l5.9-6.9a8 8 0 0 0 -11.5-11 2 2 0 0 0 2.7 3 4 4 0 0 1 6.6 2.9 3.9 3.9 0 0 1 -.9 2.5z"/></g></svg>