<svg viewBox="0 0 64 64" xmlns="http://www.w3.org/2000/svg"><g fill="#2e2c2d"><path d="m58.4 3h-28.8a2.6 2.6 0 0 0 -2.6 2.6v18.8a2.6 2.6 0 0 0 2.6 2.6h7.4v7l7-7h14.4a2.6 2.6 0 0 0 2.6-2.6v-18.8a2.6 2.6 0 0 0 -2.6-2.6zm-20 13.4a2 2 0 0 1 -2.8 0 2 2 0 1 1 2.8-2.8 2 2 0 0 1 .6 1.4 2 2 0 0 1 -.6 1.4zm7 0a2 2 0 0 1 -1.4.6 2 2 0 0 1 -2-2 2.1 2.1 0 0 1 .6-1.4 2 2 0 0 1 3.4 1.4 2 2 0 0 1 -.6 1.4zm7 0a2 2 0 0 1 -3.4-1.4 2 2 0 0 1 .6-1.4 2.1 2.1 0 0 1 2.8 0 2 2 0 0 1 .6 1.4 2 2 0 0 1 -.6 1.4z"/><path d="m37 39.7v10.3h-30v-42h16v-2.4a6.6 6.6 0 0 1 3.1-5.6h-17.1a6 6 0 0 0 -6 6v52a6 6 0 0 0 6 6h26a6 6 0 0 0 6-6v-22.3l-1.2 1.2zm-12.9 19.4a3 3 0 0 1 -2.1.9 3 3 0 0 1 -2.1-5.1 3.1 3.1 0 0 1 4.2 0 3 3 0 0 1 0 4.2z"/></g></svg>