<svg viewBox="0 0 64 64" xmlns="http://www.w3.org/2000/svg"><g fill="#2e2c2d"><path d="m45 33v-9.869l-19.471 19.7 2.671 1.169a12.006 12.006 0 0 0 16.8-11z"/><path d="m51 21a2 2 0 0 0 -2 2v10a16 16 0 0 1 -24.891 13.307 2 2 0 0 0 -2.225 3.324 19.869 19.869 0 0 0 9.116 3.258v7.111h-8a2 2 0 0 0 0 4h20a2 2 0 0 0 0-4h-8v-7.1a20.027 20.027 0 0 0 18-19.9v-10a2 2 0 0 0 -2-2zm7.414-19.414a2 2 0 0 0 -2.828 0l-10.627 10.627a11.992 11.992 0 0 0 -23.959.787v20a12.029 12.029 0 0 0 .344 2.828l-3.172 3.172a16.018 16.018 0 0 1 -1.172-6v-10a2 2 0 1 0 -4 0v10a19.972 19.972 0 0 0 2.152 9.02l-9.566 9.566a2 2 0 1 0 2.828 2.828l29.18-29.181 7.406-7.403 13.414-13.416a2 2 0 0 0 0-2.828z"/></g></svg>