<svg viewBox="0 0 64 64" xmlns="http://www.w3.org/2000/svg"><g fill="#2e2c2d"><path d="m58.7 11.4c-5.2-5.1-15.6-7.4-26.7-7.4s-21.5 2.3-26.7 7.4a11.2 11.2 0 0 0 -2 13.2c1.4 1.8 3.3 1.3 4.6 1.1l7.1-1.7a3.9 3.9 0 0 0 3-4.5c-.3-3 1.4-7.5 14-7.5s14.3 4.4 14 7.5 2.9 4.3 4 4.5 4.8 1.5 6.1 1.8 3.2.8 4.6-1.1a11.2 11.2 0 0 0 -2-13.3z"/><path d="m40 26.8v-6.8a2 2 0 1 0 -4 0v6.1h-8v-6.1a2 2 0 0 0 -4 0v6.8a22 22 0 0 0 -16 21.2v12h48v-12a22 22 0 0 0 -16-21.2zm-17 27.2h-2a2 2 0 0 1 0-4h2a2 2 0 0 1 0 4zm0-8h-2a2 2 0 0 1 0-4h2a2 2 0 0 1 0 4zm0-8h-2a2 2 0 0 1 0-4h2a2 2 0 0 1 0 4zm10 16h-2a2 2 0 0 1 0-4h2a2 2 0 0 1 0 4zm0-8h-2a2 2 0 0 1 0-4h2a2 2 0 0 1 0 4zm0-8h-2a2 2 0 0 1 0-4h2a2 2 0 0 1 0 4zm10 16h-2a2 2 0 0 1 0-4h2a2 2 0 0 1 0 4zm0-8h-2a2 2 0 0 1 0-4h2a2 2 0 0 1 0 4zm0-8h-2a2 2 0 0 1 0-4h2a2 2 0 0 1 0 4z"/></g></svg>