<svg viewBox="0 0 64 64" xmlns="http://www.w3.org/2000/svg"><g fill="#2e2c2d"><circle cx="32" cy="32" r="4"/><path d="m25.8 24.2a2 2 0 1 0 -2.4-3.2 14 14 0 0 0 0 22 2 2 0 0 0 2.5-3.1 10 10 0 0 1 0-15.7zm14.9-3.2a2 2 0 0 0 -2.5 3.1 10 10 0 0 1 0 15.7 2 2 0 1 0 2.5 3.2 14 14 0 0 0 0-22z"/><path d="m13 32a19 19 0 0 1 6.5-14.3 2 2 0 1 0 -2.6-3 23 23 0 0 0 0 34.7 2 2 0 0 0 2.6-3 19 19 0 0 1 -6.5-14.4zm34.1-17.3a2 2 0 1 0 -2.6 3 19 19 0 0 1 0 28.6 2 2 0 1 0 2.6 3 23 23 0 0 0 0-34.7z"/><path d="m4 32a28.1 28.1 0 0 1 9.1-20.7 2 2 0 1 0 -2.7-3 32 32 0 0 0 0 47.3 2 2 0 1 0 2.7-3 28.1 28.1 0 0 1 -9.1-20.6zm49.5-23.7a2 2 0 1 0 -2.7 3 28 28 0 0 1 0 41.4 2 2 0 1 0 2.7 3 32 32 0 0 0 0-47.3z"/></g></svg>