<svg viewBox="0 0 64 64" xmlns="http://www.w3.org/2000/svg"><g fill="#2e2c2d"><path d="m47.5 50-8.3-5.4a3.9 3.9 0 0 0 -5.2 1c-1.9 2.3-4.2 6.2-13-2.6s-4.9-11.1-2.6-13a3.9 3.9 0 0 0 1-5.2l-5.4-8.3c-.7-1.1-1.7-2.8-3.9-2.4a11.5 11.5 0 0 0 -8.1 10.7c0 7.2 5.7 16 13.4 23.7s16.6 13.5 23.8 13.5a11.5 11.5 0 0 0 10.8-8c.3-2.3-1.4-3.3-2.5-4z"/><path d="m59.4 2h-28.8a2.6 2.6 0 0 0 -2.6 2.6v18.8a2.6 2.6 0 0 0 2.6 2.6h7.4v7l7-7h14.4a2.6 2.6 0 0 0 2.6-2.6v-18.8a2.6 2.6 0 0 0 -2.6-2.6zm-20 13.4a2 2 0 0 1 -1.4.6 2 2 0 0 1 -1.4-3.4 2.1 2.1 0 0 1 2.8 0 2 2 0 0 1 0 2.8zm7 0a2 2 0 0 1 -1.4.6 2.1 2.1 0 0 1 -1.4-.6 2 2 0 0 1 0-2.8 2.1 2.1 0 0 1 2.8 0 2 2 0 0 1 .6 1.4 2 2 0 0 1 -.6 1.4zm7 0a2 2 0 0 1 -1.4.6 2.1 2.1 0 0 1 -1.4-.6 2 2 0 0 1 0-2.8 2.1 2.1 0 0 1 2.8 0 2 2 0 0 1 .6 1.4 2 2 0 0 1 -.6 1.4z"/></g></svg>