<svg viewBox="0 0 64 64" xmlns="http://www.w3.org/2000/svg"><g fill="#2e2c2d"><path d="m49.4 50.3-8.8-5.8a4.1 4.1 0 0 0 -5.6 1.1c-2 2.5-4.5 6.6-13.8-2.8s-5.3-11.8-2.8-13.8a4.1 4.1 0 0 0 1.1-5.5l-5.8-8.8c-.8-1.1-1.8-2.9-4.2-2.6s-8.5 3.8-8.5 11.4 6 17 14.2 25.2 17.6 14.3 25.3 14.3 11.2-6.8 11.5-8.5-1.5-3.5-2.6-4.2z"/><path d="m29 1a2 2 0 0 0 0 4 30 30 0 0 1 30 30 2 2 0 1 0 4 0 34 34 0 0 0 -34-34z"/><path d="m29 11a2 2 0 1 0 0 4 20 20 0 0 1 20 20 2 2 0 1 0 4 0 24 24 0 0 0 -24-24z"/><path d="m38 35a2 2 0 1 0 4 0 13 13 0 0 0 -13-13 2 2 0 0 0 0 4 9 9 0 0 1 9 9z"/></g></svg>