<svg viewBox="0 0 64 64" xmlns="http://www.w3.org/2000/svg"><g fill="#2e2c2d"><path d="m39.3 40.6a2 2 0 0 0 -2.8-.1l-.7.6a10 10 0 0 1 16.6-4.1 2 2 0 0 0 2.8-2.8 14 14 0 0 0 -23.4 6.3l-.4-.6a2 2 0 1 0 -3.4 2.1l4.8 7.1 6.3-5.7a2 2 0 0 0 .2-2.8zm23.4 4.7-4.8-7.1-6.3 5.7a2 2 0 0 0 2.7 3l.8-.8a10 10 0 0 1 -16.8 5 2 2 0 1 0 -2.8 2.8 14 14 0 0 0 23.5-6.9l.4.5a2 2 0 0 0 3.3-2.2z"/><path d="m51.3 6h-46.4l23.1 18.1z"/><path d="m29.8 34.9a18 18 0 0 1 25.2-6v-20.7l-27 21-27-21.1v33.9h22.8a6 6 0 0 1 5.9-7.1z"/></g></svg>