<svg viewBox="0 0 64 64" xmlns="http://www.w3.org/2000/svg"><path d="m63.6 61.6a16.5 16.5 0 0 0 -13.3-12.6c-8.4-1.6-8.4-3.4-8.4-4.6v-3.9a9.9 9.9 0 0 0 5.9-7.3h3.5a2.6 2.6 0 0 0 2.7-2.6v-8a2.6 2.6 0 0 0 -2.6-2.6h-3.4v-3.6c0-11.3-8-16.4-16-16.4s-16 5.1-16 16.4v3.6h-3.3a2.6 2.6 0 0 0 -2.7 2.6v7.9a2.6 2.6 0 0 0 2.6 2.6h4.4a20.1 20.1 0 0 0 5 8.5v2.9c0 .1.1 3-8.4 4.5a16.5 16.5 0 0 0 -13.2 12.6l-.4 2.4h64zm-43.6-41.7c6-.5 9-2.9 11.5-5s3.6-2.9 6.5-2.9a5.6 5.6 0 0 1 6 5.1v14.9c0 2.8-3.1 4.9-4 4.9h-.7a2.9 2.9 0 0 0 -2.2-.9h-2.2a2.9 2.9 0 0 0 -2.9 2.9 3 3 0 0 0 2.9 3.1h2.1l.9-.2v2.5a6.2 6.2 0 0 0 1.3 4.3l-7.2 10-7.3-9.9a6 6 0 0 0 1.3-4.3 2 2 0 0 0 1-3.7c-4.3-2.6-7-8.3-7-14.6z" fill="#2e2c2d"/></svg>