<svg viewBox="0 0 64 64" xmlns="http://www.w3.org/2000/svg"><g fill="#2e2c2d"><path d="m42 4h-20a6 6 0 0 0 -6 6v44a6 6 0 0 0 6 6h20a6 6 0 0 0 6-6v-44a6 6 0 0 0 -6-6zm-11 52a2 2 0 0 1 0-4h2a2 2 0 0 1 0 4zm-11-8v-36h24v36z"/><path d="m51.8 20.1a2 2 0 0 0 -1.1 2.6 20.1 20.1 0 0 1 0 14.5 2 2 0 0 0 1.1 2.6h.7a2 2 0 0 0 1.9-1.3 24.1 24.1 0 0 0 0-17.5 2 2 0 0 0 -2.6-.9zm-39.6 0a2 2 0 0 0 -2.6 1.1 24.1 24.1 0 0 0 0 17.5 2 2 0 0 0 1.9 1.3h.7a2 2 0 0 0 1.1-2.6 20.1 20.1 0 0 1 0-14.5 2 2 0 0 0 -1.1-2.8zm49.1-2.9a2 2 0 0 0 -3.7 1.6 28.1 28.1 0 0 1 0 22.4 2 2 0 0 0 1 2.6l.8.2a2 2 0 0 0 1.8-1.2 32.1 32.1 0 0 0 0-25.6zm-56-1a2 2 0 0 0 -2.6 1 32.1 32.1 0 0 0 0 25.6 2 2 0 0 0 1.8 1.2l.8-.2a2 2 0 0 0 1-2.6 28.1 28.1 0 0 1 0-22.4 2 2 0 0 0 -1-2.6z"/></g></svg>