<svg width="0" height="0" class="hidden">
  <symbol viewBox="0 0 64 64" xmlns="http://www.w3.org/2000/svg" id="browser-window-1">
    <title>Browser Window</title>
    <desc>A solid styled icon from Orion Icon Library.</desc>
    <path d="M2 22h60v34H2z"
    fill="#2e2c2d" data-name="layer2"></path>
    <path fill="#2e2c2d" d="M2 8v10h60V8zm6 7a2 2 0 1 1 2-2 2 2 0 0 1-2 2zm6 0a2 2 0 1 1 2-2 2 2 0 0 1-2 2zm6 0a2 2 0 1 1 2-2 2 2 0 0 1-2 2z"
    data-name="layer1"></path>
  </symbol>
  <symbol viewBox="0 0 64 64" xmlns="http://www.w3.org/2000/svg" id="new-window-1">
    <title>New Window</title>
    <desc>A solid styled icon from Orion Icon Library.</desc>
    <path fill="#2e2c2d"
    d="M46 26a16 16 0 1 0 16 16 16 16 0 0 0-16-16zm8 18h-6v6a2 2 0 0 1-4 0v-6h-6a2 2 0 1 1 0-4h6v-6a2 2 0 0 1 4 0v6h6a2 2 0 0 1 0 4z"
    data-name="layer3"></path>
    <path fill="#2e2c2d" d="M26 42a19.977 19.977 0 0 1 28-18.318V20H2v30h25.682A19.87 19.87 0 0 1 26 42z"
    data-name="layer2"></path>
    <path fill="#2e2c2d" d="M2 6v10h52V6zm6 7a2 2 0 1 1 2-2 2 2 0 0 1-2 2zm6 0a2 2 0 1 1 2-2 2 2 0 0 1-2 2zm6 0a2 2 0 1 1 2-2 2 2 0 0 1-2 2z"
    data-name="layer1"></path>
  </symbol>
  <symbol viewBox="0 0 64 64" xmlns="http://www.w3.org/2000/svg" id="delete-window-1">
    <title>Delete Window</title>
    <desc>A solid styled icon from Orion Icon Library.</desc>
    <path fill="#2e2c2d"
    d="M46 26a16 16 0 1 0 16 16 16 16 0 0 0-16-16zm8 18H38a2 2 0 0 1 0-4h16a2 2 0 0 1 0 4z"
    data-name="layer3"></path>
    <path fill="#2e2c2d" d="M2 50h25.682A19.977 19.977 0 0 1 54 23.682V20H2z"
    data-name="layer2"></path>
    <path fill="#2e2c2d" d="M2 6v10h52V6zm6 7a2 2 0 1 1 2-2 2 2 0 0 1-2 2zm6 0a2 2 0 1 1 2-2 2 2 0 0 1-2 2zm6 0a2 2 0 1 1 2-2 2 2 0 0 1-2 2z"
    data-name="layer1"></path>
  </symbol>
  <symbol viewBox="0 0 64 64" xmlns="http://www.w3.org/2000/svg" id="close-window-1">
    <title>Close Window</title>
    <desc>A solid styled icon from Orion Icon Library.</desc>
    <path fill="#2e2c2d"
    d="M46 26a16 16 0 1 0 16 16 16 16 0 0 0-16-16zm7.414 20.586a2 2 0 1 1-2.828 2.828L46 44.828l-4.586 4.586a2 2 0 0 1-2.828-2.828L43.172 42l-4.586-4.586a2 2 0 0 1 2.828-2.828L46 39.172l4.586-4.586a2 2 0 0 1 2.828 2.828L48.828 42z"
    data-name="layer3"></path>
    <path fill="#2e2c2d" d="M2 50h25.682A19.977 19.977 0 0 1 54 23.682V20H2z"
    data-name="layer2"></path>
    <path fill="#2e2c2d" d="M2 6v10h52V6zm6 7a2 2 0 1 1 2-2 2 2 0 0 1-2 2zm6 0a2 2 0 1 1 2-2 2 2 0 0 1-2 2zm6 0a2 2 0 1 1 2-2 2 2 0 0 1-2 2z"
    data-name="layer1"></path>
  </symbol>
  <symbol viewBox="0 0 64 64" xmlns="http://www.w3.org/2000/svg" id="disable-window-1">
    <title>Disable Window</title>
    <desc>A solid styled icon from Orion Icon Library.</desc>
    <path fill="#2e2c2d"
    d="M57.806 28.37c-.027-.031-.049-.066-.079-.1s-.065-.052-.1-.079A18.077 18.077 0 0 0 53 24.9V19H1v30h27.9a17.985 17.985 0 1 0 28.906-20.63zM31 41a13.973 13.973 0 0 1 22.369-11.2L33.8 49.368A13.9 13.9 0 0 1 31 41zm14 14a13.91 13.91 0 0 1-8.369-2.8L56.2 32.632A13.973 13.973 0 0 1 45 55z"
    data-name="layer2"></path>
    <path fill="#2e2c2d" d="M1 5v10h52V5zm6 7a2 2 0 1 1 2-2 2 2 0 0 1-2 2zm6 0a2 2 0 1 1 2-2 2 2 0 0 1-2 2zm6 0a2 2 0 1 1 2-2 2 2 0 0 1-2 2z"
    data-name="layer1"></path>
  </symbol>
  <symbol viewBox="0 0 64 64" xmlns="http://www.w3.org/2000/svg" id="checked-window-1">
    <title>Checked Window</title>
    <desc>A solid styled icon from Orion Icon Library.</desc>
    <path fill="#2e2c2d"
    d="M46 26a16 16 0 1 0 16 16 16 16 0 0 0-16-16zm8.488 13.321l-9.406 10.587-6.5-6.5a2 2 0 1 1 2.83-2.828l3.5 3.5 6.588-7.415a2 2 0 0 1 2.99 2.656z"
    data-name="layer3"></path>
    <path fill="#2e2c2d" d="M2 50h25.682A19.977 19.977 0 0 1 54 23.682V20H2z"
    data-name="layer2"></path>
    <path fill="#2e2c2d" d="M2 6v10h52V6zm6 7a2 2 0 1 1 2-2 2 2 0 0 1-2 2zm6 0a2 2 0 1 1 2-2 2 2 0 0 1-2 2zm6 0a2 2 0 1 1 2-2 2 2 0 0 1-2 2z"
    data-name="layer1"></path>
  </symbol>
  <symbol viewBox="0 0 64 64" xmlns="http://www.w3.org/2000/svg" id="save-1">
    <title>Save</title>
    <desc>A solid styled icon from Orion Icon Library.</desc>
    <path fill="#2e2c2d"
    d="M46 26a16 16 0 1 0 16 16 16 16 0 0 0-16-16zm7.422 19.411L46 52.827l-7.422-7.416a2 2 0 0 1 2.828-2.83L44 45.174V34a2 2 0 1 1 4 0v11.174l2.594-2.593a2 2 0 1 1 2.828 2.83z"
    data-name="layer3"></path>
    <path fill="#2e2c2d" d="M2 50h25.682A19.977 19.977 0 0 1 54 23.682V20H2z"
    data-name="layer2"></path>
    <path fill="#2e2c2d" d="M2 6v10h52V6zm6 7a2 2 0 1 1 2-2 2 2 0 0 1-2 2zm6 0a2 2 0 1 1 2-2 2 2 0 0 1-2 2zm6 0a2 2 0 1 1 2-2 2 2 0 0 1-2 2z"
    data-name="layer1"></path>
  </symbol>
  <symbol viewBox="0 0 64 64" xmlns="http://www.w3.org/2000/svg" id="restore-1">
    <title>Restore</title>
    <desc>A solid styled icon from Orion Icon Library.</desc>
    <path fill="#2e2c2d"
    d="M46 26a16 16 0 1 0 16 16 16 16 0 0 0-16-16zm7.424 15.417a2 2 0 0 1-2.83 0L48 38.826V50a2 2 0 1 1-4 0V38.826l-2.594 2.593a2 2 0 0 1-2.828-2.83L46 31.173l7.422 7.416a2 2 0 0 1 .002 2.828z"
    data-name="layer3"></path>
    <path fill="#2e2c2d" d="M2 50h25.682A19.977 19.977 0 0 1 54 23.682V20H2z"
    data-name="layer2"></path>
    <path fill="#2e2c2d" d="M2 6v10h52V6zm6 7a2 2 0 1 1 2-2 2 2 0 0 1-2 2zm6 0a2 2 0 1 1 2-2 2 2 0 0 1-2 2zm6 0a2 2 0 1 1 2-2 2 2 0 0 1-2 2z"
    data-name="layer1"></path>
  </symbol>
  <symbol viewBox="0 0 64 64" xmlns="http://www.w3.org/2000/svg" id="download-1">
    <title>Download</title>
    <desc>A solid styled icon from Orion Icon Library.</desc>
    <path fill="#2e2c2d"
    d="M40.572 48.585L34 55.294V29.03a2 2 0 1 0-4 0v26.264l-6.57-6.709a2 2 0 1 0-2.857 2.8l10.013 10.223L32 63.051l1.414-1.443L43.43 51.384a2 2 0 1 0-2.857-2.8z"
    data-name="layer3"></path>
    <path fill="#2e2c2d" d="M6 14.949v26h20V29.03a6 6 0 1 1 12 0v11.919h20v-26z"
    data-name="layer2"></path>
    <path fill="#2e2c2d" d="M6 .949v10h52v-10zM12 8a2 2 0 1 1 2-2 2 2 0 0 1-2 2zm6 0a2 2 0 1 1 2-2 2 2 0 0 1-2 2zm6 0a2 2 0 1 1 2-2 2 2 0 0 1-2 2z"
    data-name="layer1"></path>
  </symbol>
  <symbol viewBox="0 0 64 64" xmlns="http://www.w3.org/2000/svg" id="upload-1">
    <title>Upload</title>
    <desc>A solid styled icon from Orion Icon Library.</desc>
    <path fill="#2e2c2d"
    d="M43.43 35.6L33.414 25.377 32 23.933l-1.414 1.444L20.572 35.6a2 2 0 0 0 2.857 2.8L30 31.69V61a2 2 0 0 0 4 0V31.69l6.572 6.71a2 2 0 0 0 2.857-2.8z"
    data-name="layer3"></path>
    <path fill="#2e2c2d" d="M21.828 38.983A1.721 1.721 0 0 0 22 39h.01c-.063 0-.121-.011-.182-.017z"
    data-name="layer2"></path>
    <path fill="#2e2c2d" d="M6 15v26h11.537a5.984 5.984 0 0 1 .178-8.2l10.014-10.222 1.414-1.444L32 18.216l2.857 2.918 1.414 1.444L46.285 32.8a5.988 5.988 0 0 1 .18 8.2H58V15z"
    data-name="layer2"></path>
    <path fill="#2e2c2d" d="M6 1v10h52V1zm6 7a2 2 0 1 1 2-2 2 2 0 0 1-2 2zm6 0a2 2 0 1 1 2-2 2 2 0 0 1-2 2zm6 0a2 2 0 1 1 2-2 2 2 0 0 1-2 2z"
    data-name="layer1"></path>
  </symbol>
  <symbol viewBox="0 0 64 64" xmlns="http://www.w3.org/2000/svg" id="lock-window-1">
    <title>Lock Window</title>
    <desc>A solid styled icon from Orion Icon Library.</desc>
    <path fill="#2e2c2d"
    d="M57.5 40.5v-9a8 8 0 0 0-16 0v9h-5v18h26v-18zm-6 11a2 2 0 0 1-4 0v-4a2 2 0 0 1 4 0zm2-11h-8v-9a4 4 0 0 1 8 0z"
    data-name="layer3"></path>
    <path fill="#2e2c2d" d="M32.5 40.5v-4h5v-5a12.014 12.014 0 0 1 12-12h-48v30h31z"
    data-name="layer2"></path>
    <path fill="#2e2c2d" d="M1.5 5.5v10h52v-10zM7 13a2 2 0 1 1 2-2 2 2 0 0 1-2 2zm6 0a2 2 0 1 1 2-2 2 2 0 0 1-2 2zm6 0a2 2 0 1 1 2-2 2 2 0 0 1-2 2z"
    data-name="layer1"></path>
  </symbol>
  <symbol viewBox="0 0 64 64" xmlns="http://www.w3.org/2000/svg" id="edit-window-1">
    <title>Edit Window</title>
    <desc>A solid styled icon from Orion Icon Library.</desc>
    <path d="M54.977 27L34.223 47.707 29.84 59l11.406-4.266L62 34.027 54.977 27z"
    fill="#2e2c2d" data-name="layer3"></path>
    <path d="M30.494 46.26l.305-.788.598-.596 20.754-20.707L54 22.324V19H2v30h27.431l1.063-2.74z"
    fill="#2e2c2d" data-name="layer2"></path>
    <path fill="#2e2c2d" d="M2 5v10h52V5zm6 7a2 2 0 1 1 2-2 2 2 0 0 1-2 2zm6 0a2 2 0 1 1 2-2 2 2 0 0 1-2 2zm6 0a2 2 0 1 1 2-2 2 2 0 0 1-2 2z"
    data-name="layer1"></path>
  </symbol>
  <symbol viewBox="0 0 64 64" xmlns="http://www.w3.org/2000/svg" id="search-window-1">
    <title>Search Window</title>
    <desc>A solid styled icon from Orion Icon Library.</desc>
    <path fill="#2e2c2d"
    d="M62.414 55.586l-7.645-7.646a12.042 12.042 0 1 0-2.825 2.832l7.643 7.642a2 2 0 0 0 2.828-2.828zM36.988 41.012a8 8 0 1 1 8 8 8.009 8.009 0 0 1-8-8z"
    data-name="layer3"></path>
    <path fill="#2e2c2d" d="M28.988 41.012A15.971 15.971 0 0 1 53 27.184V19H1v30h30.146a15.88 15.88 0 0 1-2.158-7.988z"
    data-name="layer2"></path>
    <path fill="#2e2c2d" d="M1 5v10h52V5zm6 7a2 2 0 1 1 2-2 2 2 0 0 1-2 2zm6 0a2 2 0 1 1 2-2 2 2 0 0 1-2 2zm6 0a2 2 0 1 1 2-2 2 2 0 0 1-2 2z"
    data-name="layer1"></path>
  </symbol>
  <symbol viewBox="0 0 64 64" xmlns="http://www.w3.org/2000/svg" id="settings-window-1">
    <title>Settings Window</title>
    <desc>A solid styled icon from Orion Icon Library.</desc>
    <path fill="#2e2c2d"
    d="M58.613 45.082A11.793 11.793 0 0 0 58.8 43a11.92 11.92 0 0 0-.223-2.254l3.086-1.781-4-6.93-3.133 1.809A12.012 12.012 0 0 0 50.8 31.7V28h-8v3.7a12 12 0 0 0-3.7 2.117l-3.082-1.781-4 6.93 3.013 1.734A11.747 11.747 0 0 0 34.8 43a11.911 11.911 0 0 0 .2 2.125l-3.312 1.91 4 6.93 3.281-1.894A12.012 12.012 0 0 0 42.8 54.3V58h8v-3.7a12.1 12.1 0 0 0 3.871-2.262L58 53.965l4-6.93zM46.842 48a5 5 0 1 1 5-5 5 5 0 0 1-5 5z"
    data-name="layer3"></path>
    <path fill="#2e2c2d" d="M28.22 49.034a4 4 0 0 1 1.466-5.464l.366-.212a16.231 16.231 0 0 1-.05-.941 4 4 0 0 1-1.446-5.451l4-6.93a3.983 3.983 0 0 1 5.089-1.65c.385-.236.778-.458 1.184-.662A3.989 3.989 0 0 1 42.8 24h8a3.983 3.983 0 0 1 3.2 1.621V20H2v30h26.777z"
    data-name="layer2"></path>
    <path fill="#2e2c2d" d="M2 6v10h52V6zm6 7a2 2 0 1 1 2-2 2 2 0 0 1-2 2zm6 0a2 2 0 1 1 2-2 2 2 0 0 1-2 2zm6 0a2 2 0 1 1 2-2 2 2 0 0 1-2 2z"
    data-name="layer1"></path>
  </symbol>
  <symbol viewBox="0 0 64 64" xmlns="http://www.w3.org/2000/svg" id="home-page-1">
    <title>Home Page</title>
    <desc>A solid styled icon from Orion Icon Library.</desc>
    <path fill="#2e2c2d"
    d="M62.417 40.584L45 23.171 27.583 40.6a2 2 0 1 0 2.828 2.828L33 40.835V58h8V46h8v12h8V40.822l2.591 2.59a2 2 0 1 0 2.827-2.828z"
    data-name="layer3"></path>
    <path fill="#2e2c2d" d="M29 48.01a6 6 0 0 1-4.242-10.242l17.419-17.425.342-.343H1v30h28zm18.833-27.667l5.164 5.164V20H47.49l.343.343z"
    data-name="layer2"></path>
    <path fill="#2e2c2d" d="M1 6v10h52V6zm6 7a2 2 0 1 1 2-2 2 2 0 0 1-2 2zm6 0a2 2 0 1 1 2-2 2 2 0 0 1-2 2zm6 0a2 2 0 1 1 2-2 2 2 0 0 1-2 2z"
    data-name="layer1"></path>
  </symbol>
  <symbol viewBox="0 0 64 64" xmlns="http://www.w3.org/2000/svg" id="favorite-window-1">
    <title>Favorite Window</title>
    <desc>A solid styled icon from Orion Icon Library.</desc>
    <path d="M46 50.887L36.113 58l3.809-11.469L30 40h12.242L46 28l3.758 12H62l-9.918 6.531L55.891 58 46 50.887z"
    fill="#2e2c2d" data-name="layer3"></path>
    <path fill="#2e2c2d" d="M34.557 50l.6-1.815-7.357-4.844A4 4 0 0 1 30 36h9.3l2.881-9.2a4 4 0 0 1 7.635 0L52.7 36H54V20H2v30h32.557z"
    data-name="layer2"></path>
    <path fill="#2e2c2d" d="M2 6v10h52V6zm6 7a2 2 0 1 1 2-2 2 2 0 0 1-2 2zm6 0a2 2 0 1 1 2-2 2 2 0 0 1-2 2zm6 0a2 2 0 1 1 2-2 2 2 0 0 1-2 2z"
    data-name="layer1"></path>
  </symbol>
  <symbol viewBox="0 0 64 64" xmlns="http://www.w3.org/2000/svg" id="warning-window-1">
    <title>Warning Window</title>
    <desc>A solid styled icon from Orion Icon Library.</desc>
    <path fill="#2e2c2d"
    d="M45.978 28l-16 30h32zm-2 12a2 2 0 1 1 4 0v6a2 2 0 1 1-4 0zm2 14a2 2 0 0 1-1.41-3.41 2.071 2.071 0 0 1 2.83 0A2 2 0 0 1 45.975 54z"
    data-name="layer3"></path>
    <path fill="#2e2c2d" d="M29.7 50.03l12.749-23.912a4 4 0 0 1 7.059 0l4.514 8.463V20h-52v30h21.406v.03z"
    data-name="layer2"></path>
    <path fill="#2e2c2d" d="M2.021 6v10h52V6zM8 13a2 2 0 1 1 2-2 2 2 0 0 1-2 2zm6 0a2 2 0 1 1 2-2 2 2 0 0 1-2 2zm6 0a2 2 0 1 1 2-2 2 2 0 0 1-2 2z"
    data-name="layer1"></path>
  </symbol>
  <symbol viewBox="0 0 64 64" xmlns="http://www.w3.org/2000/svg" id="refresh-window-1">
    <title>Refresh Window</title>
    <desc>A solid styled icon from Orion Icon Library.</desc>
    <path fill="#2e2c2d"
    d="M62.408 43.586a2 2 0 0 0-2.828.014l-1.514 1.527a14.123 14.123 0 0 0-4.043-10.011 13.874 13.874 0 0 0-16.43-2.424 2 2 0 1 0 1.916 3.508 9.856 9.856 0 0 1 11.672 1.73 10.087 10.087 0 0 1 2.869 6.91l-1.226-1.24a2 2 0 1 0-2.844 2.813L56.2 52.7l6.223-6.283a2 2 0 0 0-.015-2.831zM48.9 53.811a9.862 9.862 0 0 1-11.674-1.722 10.078 10.078 0 0 1-2.867-6.915l1.228 1.24a2 2 0 1 0 2.838-2.814L32.2 37.317 25.982 43.6a2 2 0 1 0 2.842 2.814l1.516-1.53A14.121 14.121 0 0 0 34.38 54.9a13.882 13.882 0 0 0 9.857 4.089 13.693 13.693 0 0 0 6.576-1.672 2 2 0 1 0-1.918-3.51z"
    data-name="layer3"></path>
    <path fill="#2e2c2d" d="M21.408 45.036a5.96 5.96 0 0 1 1.736-4.251l6.223-6.285a4 4 0 0 1 2.842-1.185 3.873 3.873 0 0 1 .451.045 5.989 5.989 0 0 1 3.021-4.18 17.76 17.76 0 0 1 8.488-2.159A18 18 0 0 1 53 29.37V19.008H1v30h21.947a5.95 5.95 0 0 1-1.539-3.972z"
    data-name="layer2"></path>
    <path fill="#2e2c2d" d="M1 5.008v10h52v-10zM7 12a2 2 0 1 1 2-2 2 2 0 0 1-2 2zm6 0a2 2 0 1 1 2-2 2 2 0 0 1-2 2zm6 0a2 2 0 1 1 2-2 2 2 0 0 1-2 2z"
    data-name="layer1"></path>
  </symbol>
  <symbol viewBox="0 0 64 64" xmlns="http://www.w3.org/2000/svg" id="reload-window-1">
    <title>Reload Window</title>
    <desc>A solid styled icon from Orion Icon Library.</desc>
    <path fill="#2e2c2d"
    d="M62.478 43.579a2 2 0 0 0-2.828.014l-1.273 1.285A13.659 13.659 0 1 0 44.726 59a2 2 0 0 0 0-4 10.006 10.006 0 1 1 9.656-10v.094l-1.484-1.5a2 2 0 1 0-2.844 2.813l6.219 6.284 6.223-6.283a2 2 0 0 0-.018-2.829z"
    data-name="layer3"></path>
    <path fill="#2e2c2d" d="M27.07 45a17.851 17.851 0 0 1 17.656-18 17.208 17.208 0 0 1 8.2 2.084V19h-52v30h26.6a18.248 18.248 0 0 1-.456-4z"
    data-name="layer2"></path>
    <path fill="#2e2c2d" d="M.929 5v10h52V5zM7 12a2 2 0 1 1 2-2 2 2 0 0 1-2 2zm6 0a2 2 0 1 1 2-2 2 2 0 0 1-2 2zm6 0a2 2 0 1 1 2-2 2 2 0 0 1-2 2z"
    data-name="layer1"></path>
  </symbol>
  <symbol viewBox="0 0 64 64" xmlns="http://www.w3.org/2000/svg" id="schedule-window-1">
    <title>Schedule Window</title>
    <desc>A solid styled icon from Orion Icon Library.</desc>
    <path fill="#2e2c2d"
    d="M46 26a16 16 0 1 0 16 16 16 16 0 0 0-16-16zm8 20H44V34a2 2 0 0 1 4 0v8h6a2 2 0 0 1 0 4z"
    data-name="layer3"></path>
    <path fill="#2e2c2d" d="M26 42a19.977 19.977 0 0 1 28-18.318V20H2v30h25.682A19.887 19.887 0 0 1 26 42z"
    data-name="layer2"></path>
    <path fill="#2e2c2d" d="M2 6v10h52V6zm6 7a2 2 0 1 1 2-2 2 2 0 0 1-2 2zm6 0a2 2 0 1 1 2-2 2 2 0 0 1-2 2zm6 0a2 2 0 1 1 2-2 2 2 0 0 1-2 2z"
    data-name="layer1"></path>
  </symbol>
  <symbol viewBox="0 0 64 64" xmlns="http://www.w3.org/2000/svg" id="code-window-1">
    <title>Code Window</title>
    <desc>A solid styled icon from Orion Icon Library.</desc>
    <path fill="#2e2c2d"
    d="M2 22v34h60V22zm25.543 22.685a2 2 0 1 1-3.012 2.631l-8.151-9.33 8.153-9.3a2 2 0 1 1 3.008 2.635l-5.847 6.669zm12 2.631a2 2 0 1 1-3.012-2.631l5.849-6.695-5.847-6.673a2 2 0 1 1 3.008-2.635l8.153 9.3z"
    data-name="layer2"></path>
    <path fill="#2e2c2d" d="M2 8v10h60V8zm6 7a2 2 0 1 1 2-2 2 2 0 0 1-2 2zm6 0a2 2 0 1 1 2-2 2 2 0 0 1-2 2zm6 0a2 2 0 1 1 2-2 2 2 0 0 1-2 2z"
    data-name="layer1"></path>
  </symbol>
  <symbol viewBox="0 0 64 64" xmlns="http://www.w3.org/2000/svg" id="source-code-1">
    <title>Source Code</title>
    <desc>A solid styled icon from Orion Icon Library.</desc>
    <path fill="#2e2c2d"
    d="M2 22v34h60V22zm19.543 22.685a2 2 0 1 1-3.012 2.631l-8.151-9.33 8.153-9.3a2 2 0 1 1 3.008 2.635l-5.847 6.669zm16.314-15.942l-8 20a2 2 0 0 1-3.715-1.486l8-20a2 2 0 0 1 3.715 1.486zm7.685 18.572a2 2 0 1 1-3.012-2.631l5.85-6.694-5.847-6.673a2 2 0 1 1 3.008-2.635l8.153 9.3z"
    data-name="layer2"></path>
    <path fill="#2e2c2d" d="M2 8v10h60V8zm6 7a2 2 0 1 1 2-2 2 2 0 0 1-2 2zm6 0a2 2 0 1 1 2-2 2 2 0 0 1-2 2zm6 0a2 2 0 1 1 2-2 2 2 0 0 1-2 2z"
    data-name="layer1"></path>
  </symbol>
  <symbol viewBox="0 0 64 64" xmlns="http://www.w3.org/2000/svg" id="code-1">
    <title>Code</title>
    <desc>A solid styled icon from Orion Icon Library.</desc>
    <path fill="#2e2c2d"
    d="M2 22v34h60V22zm13.543 23.315a2 2 0 1 1-3.012-2.631l5.849-6.694-5.847-6.673a2 2 0 1 1 3.008-2.635l8.153 9.3zM42 38H30a2 2 0 0 1 0-4h12a2 2 0 0 1 0 4z"
    data-name="layer2"></path>
    <path fill="#2e2c2d" d="M2 8v10h60V8zm6 7a2 2 0 1 1 2-2 2 2 0 0 1-2 2zm6 0a2 2 0 1 1 2-2 2 2 0 0 1-2 2zm6 0a2 2 0 1 1 2-2 2 2 0 0 1-2 2z"
    data-name="layer1"></path>
  </symbol>
  <symbol viewBox="0 0 64 64" xmlns="http://www.w3.org/2000/svg" id="page-1">
    <title>Page</title>
    <desc>A solid styled icon from Orion Icon Library.</desc>
    <path fill="#2e2c2d"
    d="M2 22v34h60V22zm32 26H14a2 2 0 0 1 0-4h20a2 2 0 0 1 0 4zm16-8H14a2 2 0 0 1 0-4h36a2 2 0 0 1 0 4zm0-8H14a2 2 0 0 1 0-4h36a2 2 0 0 1 0 4z"
    data-name="layer2"></path>
    <path fill="#2e2c2d" d="M2 8v10h60V8zm6 7a2 2 0 1 1 2-2 2 2 0 0 1-2 2zm6 0a2 2 0 1 1 2-2 2 2 0 0 1-2 2zm6 0a2 2 0 1 1 2-2 2 2 0 0 1-2 2z"
    data-name="layer1"></path>
  </symbol>
  <symbol viewBox="0 0 64 64" xmlns="http://www.w3.org/2000/svg" id="list-details-1">
    <title>List Details</title>
    <desc>A solid styled icon from Orion Icon Library.</desc>
    <path fill="#2e2c2d"
    d="M2 22v34h60V22zm16 26h-4a2 2 0 0 1 0-4h4a2 2 0 0 1 0 4zm0-8h-4a2 2 0 0 1 0-4h4a2 2 0 0 1 0 4zm0-8h-4a2 2 0 0 1 0-4h4a2 2 0 0 1 0 4zm32 16H26a2 2 0 0 1 0-4h24a2 2 0 0 1 0 4zm0-8H26a2 2 0 0 1 0-4h24a2 2 0 0 1 0 4zm0-8H26a2 2 0 0 1 0-4h24a2 2 0 0 1 0 4z"
    data-name="layer2"></path>
    <path fill="#2e2c2d" d="M2 8v10h60V8zm6 7a2 2 0 1 1 2-2 2 2 0 0 1-2 2zm6 0a2 2 0 1 1 2-2 2 2 0 0 1-2 2zm6 0a2 2 0 1 1 2-2 2 2 0 0 1-2 2z"
    data-name="layer1"></path>
  </symbol>
  <symbol viewBox="0 0 64 64" xmlns="http://www.w3.org/2000/svg" id="new-window-2">
    <title>New Window</title>
    <desc>A solid styled icon from Orion Icon Library.</desc>
    <path d="M12 20h50v28H12z"
    fill="#2e2c2d" data-name="layer2"></path>
    <path d="M8 20v-4H2v10h6v-6z" fill="#2e2c2d" data-name="layer1"></path>
    <path d="M12 52H8V30H2v28h50v-6H12z" fill="#2e2c2d" data-name="layer2"></path>
    <path fill="#2e2c2d" d="M12 6v10h50V6zm6 7a2 2 0 1 1 2-2 2 2 0 0 1-2 2zm6 0a2 2 0 1 1 2-2 2 2 0 0 1-2 2zm6 0a2 2 0 1 1 2-2 2 2 0 0 1-2 2z"
    data-name="layer1"></path>
  </symbol>
  <symbol viewBox="0 0 64 64" xmlns="http://www.w3.org/2000/svg" id="restore-window-1">
    <title>Restore Window</title>
    <desc>A solid styled icon from Orion Icon Library.</desc>
    <path d="M2 31h50v28H2zm54.125-4v20H62V19h-5.875v8z"
    fill="#2e2c2d" data-name="layer2"></path>
    <path fill="#2e2c2d" d="M12 5v8h44.125v2H62V5zm6 7a2 2 0 1 1 2-2 2 2 0 0 1-2 2zm6 0a2 2 0 1 1 2-2 2 2 0 0 1-2 2zm6 0a2 2 0 1 1 2-2 2 2 0 0 1-2 2zM2 17v10h50V17zm6 7a2 2 0 1 1 2-2 2 2 0 0 1-2 2zm6 0a2 2 0 1 1 2-2 2 2 0 0 1-2 2zm6 0a2 2 0 1 1 2-2 2 2 0 0 1-2 2z"
    data-name="layer1"></path>
  </symbol>
  <symbol viewBox="0 0 64 64" xmlns="http://www.w3.org/2000/svg" id="multiple-windows-1">
    <title>Multiple Windows</title>
    <desc>A solid styled icon from Orion Icon Library.</desc>
    <path d="M18 18h44v26H18z"
    fill="#2e2c2d" data-name="layer2"></path>
    <path d="M6 26v-6H2v10h4v-4z" fill="#2e2c2d" data-name="layer1"></path>
    <path d="M10 56H6V34H2v26h44v-4H10z" fill="#2e2c2d" data-name="layer2"></path>
    <path d="M14 18v-6h-4v10h4v-4z" fill="#2e2c2d" data-name="layer1"></path>
    <path d="M18 48h-4V26h-4v26h44v-4H18z" fill="#2e2c2d" data-name="layer2"></path>
    <path fill="#2e2c2d" d="M18 4v10h44V4zm6 7a2 2 0 1 1 2-2 2 2 0 0 1-2 2zm6 0a2 2 0 1 1 2-2 2 2 0 0 1-2 2zm6 0a2 2 0 1 1 2-2 2 2 0 0 1-2 2z"
    data-name="layer1"></path>
  </symbol>
  <symbol viewBox="0 0 64 64" xmlns="http://www.w3.org/2000/svg" id="software-service-1">
    <title>Software Service</title>
    <desc>A solid styled icon from Orion Icon Library.</desc>
    <path fill="#2e2c2d"
    d="M41.779 52.019c-.361.018-1.3.057-2.574.057-3.463 0-9.344-.287-12.451-2.062a2 2 0 0 1 1.984-3.473c2.371 1.355 8.594 1.639 12.346 1.5C38.5 42.745 28.906 42 23.746 42c-6 0-8 2-12 2v-2h-10v18h10v-4c4 0 8 4 12 4h36c1.954 0 8.043-7.6-17.967-7.981z"
    data-name="layer3"></path>
    <path fill="#2e2c2d" d="M15.746 38v1.2a26.758 26.758 0 0 1 8-1.2c7.592 0 17.287 1.407 20.766 8h17.742V18h-50v20z"
    data-name="layer2"></path>
    <path fill="#2e2c2d" d="M12.254 4v10h50V4zM18 11a2 2 0 1 1 2-2 2 2 0 0 1-2 2zm6 0a2 2 0 1 1 2-2 2 2 0 0 1-2 2zm6 0a2 2 0 1 1 2-2 2 2 0 0 1-2 2z"
    data-name="layer1"></path>
  </symbol>
  <symbol viewBox="0 0 64 64" xmlns="http://www.w3.org/2000/svg" id="app-layout-1">
    <title>App Layout</title>
    <desc>A solid styled icon from Orion Icon Library.</desc>
    <path d="M20 22h42v12H20z"
    fill="#2e2c2d" data-name="layer3"></path>
    <path d="M2 22h14v34H2zm18 16h42v18H20z" fill="#2e2c2d" data-name="layer2"></path>
    <path fill="#2e2c2d" d="M2 8v10h60V8zm6 7a2 2 0 1 1 2-2 2 2 0 0 1-2 2zm6 0a2 2 0 1 1 2-2 2 2 0 0 1-2 2zm6 0a2 2 0 1 1 2-2 2 2 0 0 1-2 2z"
    data-name="layer1"></path>
  </symbol>
  <symbol viewBox="0 0 64 64" xmlns="http://www.w3.org/2000/svg" id="loading-1">
    <title>Loading</title>
    <desc>A solid styled icon from Orion Icon Library.</desc>
    <path fill="#2e2c2d"
    d="M32 42.556A29.961 29.961 0 0 0 28.406 48h7.186a30.616 30.616 0 0 0-3.538-5.386z"
    data-name="layer2"></path>
    <path fill="#2e2c2d" d="M2 18v42h60V18zm33.157 17.919c-1.449 1.443-1.311 2.883-.193 3.947a.315.315 0 0 1 .024.029C38.448 43.718 42 52 42 52H22s3.7-8.644 7.233-12.346v-.007c.922-1.073.651-2.475-.435-3.775A52.66 52.66 0 0 1 22 24h20a42.217 42.217 0 0 1-6.817 11.894"
    data-name="layer2"></path>
    <path fill="#2e2c2d" d="M2 4v10h60V4zm6 7a2 2 0 1 1 2-2 2 2 0 0 1-2 2zm6 0a2 2 0 1 1 2-2 2 2 0 0 1-2 2zm6 0a2 2 0 1 1 2-2 2 2 0 0 1-2 2z"
    data-name="layer1"></path>
  </symbol>
  <symbol viewBox="0 0 64 64" xmlns="http://www.w3.org/2000/svg" id="refresh-1">
    <title>Refresh</title>
    <desc>A solid styled icon from Orion Icon Library.</desc>
    <path fill="#2e2c2d"
    d="M2 20v38h60V20zm36.614 30.313a13.692 13.692 0 0 1-6.577 1.673 13.866 13.866 0 0 1-9.856-4.092 14.12 14.12 0 0 1-4.044-10.018l-1.516 1.53a2 2 0 1 1-2.842-2.814L20 30.31l6.222 6.282a2 2 0 1 1-2.842 2.814l-1.229-1.24a10.075 10.075 0 0 0 2.871 6.913A9.845 9.845 0 0 0 36.694 46.8a2 2 0 0 1 1.92 3.51zm11.607-10.908L44 45.689l-6.22-6.283a2 2 0 1 1 2.842-2.814l1.228 1.24a10.08 10.08 0 0 0-2.87-6.91A9.855 9.855 0 0 0 27.308 29.2a2 2 0 1 1-1.916-3.512 13.877 13.877 0 0 1 16.431 2.424 14.121 14.121 0 0 1 4.042 10.008l1.512-1.527a2 2 0 1 1 2.844 2.813z"
    data-name="layer2"></path>
    <path fill="#2e2c2d" d="M2 6v10h60V6zm6 7a2 2 0 1 1 2-2 2 2 0 0 1-2 2zm6 0a2 2 0 1 1 2-2 2 2 0 0 1-2 2zm6 0a2 2 0 1 1 2-2 2 2 0 0 1-2 2z"
    data-name="layer1"></path>
  </symbol>
  <symbol viewBox="0 0 64 64" xmlns="http://www.w3.org/2000/svg" id="files-1">
    <title>Files</title>
    <desc>A solid styled icon from Orion Icon Library.</desc>
    <path d="M2 2h26v6H2z"
    fill="#2e2c2d" data-name="layer2"></path>
    <path d="M36 2h26v6H36zm0 10h26v16H36z" fill="#2e2c2d" data-name="layer1"></path>
    <path d="M2 12h26v16H2z" fill="#2e2c2d" data-name="layer2"></path>
    <path d="M2 36h26v6H2z" fill="#2e2c2d" data-name="layer1"></path>
    <path d="M36 36h26v6H36zm0 10h26v16H36z" fill="#2e2c2d" data-name="layer2"></path>
    <path d="M2 46h26v16H2z" fill="#2e2c2d" data-name="layer1"></path>
  </symbol>
  <symbol viewBox="0 0 64 64" xmlns="http://www.w3.org/2000/svg" id="statistics-1">
    <title>Statistics</title>
    <desc>A solid styled icon from Orion Icon Library.</desc>
    <path fill="#2e2c2d"
    d="M2 22v34h60V22zm52 16h-4a2 2 0 0 1-1.414-.586l-4.038-4.037-4.759 9.518a2 2 0 0 1-3.417.268l-8.16-11.425-8.464 15.233A2 2 0 0 1 18 48h-.127a2 2 0 0 1-1.73-1.254L12.646 38H10a2 2 0 0 1 0-4h4a2 2 0 0 1 1.857 1.258l2.437 6.094 7.957-14.322A2 2 0 0 1 27.887 26a1.972 1.972 0 0 1 1.741.834l8.068 11.3 4.515-9.029a2 2 0 0 1 3.2-.52L50.828 34H54a2 2 0 0 1 0 4z"
    data-name="layer2"></path>
    <path fill="#2e2c2d" d="M2 8v10h60V8zm6 7a2 2 0 1 1 2-2 2 2 0 0 1-2 2zm6 0a2 2 0 1 1 2-2 2 2 0 0 1-2 2zm6 0a2 2 0 1 1 2-2 2 2 0 0 1-2 2z"
    data-name="layer1"></path>
  </symbol>
  <symbol viewBox="0 0 64 64" xmlns="http://www.w3.org/2000/svg" id="table-content-1">
    <title>Table Content</title>
    <desc>A solid styled icon from Orion Icon Library.</desc>
    <path d="M28 40h8v8h-8zm0-12h8v8h-8zm12 12h8v8h-8zm0-12h8v8h-8z"
    fill="#2e2c2d" data-name="layer2"></path>
    <path fill="#2e2c2d" d="M2 20v38h60V20zm50 32H12V24h40z" data-name="layer2"></path>
    <path d="M16 40h8v8h-8zm0-12h8v8h-8z" fill="#2e2c2d" data-name="layer2"></path>
    <path fill="#2e2c2d" d="M2 6v10h60V6zm6 7a2 2 0 1 1 2-2 2 2 0 0 1-2 2zm6 0a2 2 0 1 1 2-2 2 2 0 0 1-2 2zm6 0a2 2 0 1 1 2-2 2 2 0 0 1-2 2z"
    data-name="layer1"></path>
  </symbol>
  <symbol viewBox="0 0 64 64" xmlns="http://www.w3.org/2000/svg" id="item-grid-1">
    <title>Item Grid</title>
    <desc>A solid styled icon from Orion Icon Library.</desc>
    <path fill="#2e2c2d"
    d="M2 20v38h60V20zm18 30h-8v-8h8zm0-16h-8v-8h8zm16 16h-8v-8h8zm0-16h-8v-8h8zm16 16h-8v-8h8zm0-16h-8v-8h8z"
    data-name="layer2"></path>
    <path fill="#2e2c2d" d="M2 6v10h60V6zm6 7a2 2 0 1 1 2-2 2 2 0 0 1-2 2zm6 0a2 2 0 1 1 2-2 2 2 0 0 1-2 2zm6 0a2 2 0 1 1 2-2 2 2 0 0 1-2 2z"
    data-name="layer1"></path>
  </symbol>
  <symbol viewBox="0 0 64 64" xmlns="http://www.w3.org/2000/svg" id="new-1">
    <title>New</title>
    <desc>A solid styled icon from Orion Icon Library.</desc>
    <path fill="#2e2c2d"
    d="M2 20v38h60V20zm40 19.982h-8V48a2 2 0 1 1-4 0v-8.018h-8a2 2 0 0 1 0-4h8V28a2 2 0 1 1 4 0v7.982h8a2 2 0 0 1 0 4z"
    data-name="layer2"></path>
    <path fill="#2e2c2d" d="M2 6v10h60V6zm6 7a2 2 0 1 1 2-2 2 2 0 0 1-2 2zm6 0a2 2 0 1 1 2-2 2 2 0 0 1-2 2zm6 0a2 2 0 1 1 2-2 2 2 0 0 1-2 2z"
    data-name="layer1"></path>
  </symbol>
  <symbol viewBox="0 0 64 64" xmlns="http://www.w3.org/2000/svg" id="delete-1">
    <title>Delete</title>
    <desc>A solid styled icon from Orion Icon Library.</desc>
    <path fill="#2e2c2d"
    d="M2 20v38h60V20zm40 19.982H22a2 2 0 0 1 0-4h20a2 2 0 0 1 0 4z" data-name="layer2"></path>
    <path fill="#2e2c2d" d="M2 6v10h60V6zm6 7a2 2 0 1 1 2-2 2 2 0 0 1-2 2zm6 0a2 2 0 1 1 2-2 2 2 0 0 1-2 2zm6 0a2 2 0 1 1 2-2 2 2 0 0 1-2 2z"
    data-name="layer1"></path>
  </symbol>
  <symbol viewBox="0 0 64 64" xmlns="http://www.w3.org/2000/svg" id="close-1">
    <title>Close</title>
    <desc>A solid styled icon from Orion Icon Library.</desc>
    <path fill="#2e2c2d"
    d="M2 20v38h60V20zm35.67 26.473l-5.656-5.656-5.67 5.669a2 2 0 1 1-2.828-2.829l5.668-5.669-5.657-5.658a2 2 0 1 1 2.829-2.83l5.658 5.657 5.644-5.645a2 2 0 0 1 2.828 2.828l-5.644 5.645 5.658 5.66a2 2 0 0 1-2.828 2.828z"
    data-name="layer2"></path>
    <path fill="#2e2c2d" d="M2 6v10h60V6zm6 7a2 2 0 1 1 2-2 2 2 0 0 1-2 2zm6 0a2 2 0 1 1 2-2 2 2 0 0 1-2 2zm6 0a2 2 0 1 1 2-2 2 2 0 0 1-2 2z"
    data-name="layer1"></path>
  </symbol>
  <symbol viewBox="0 0 64 64" xmlns="http://www.w3.org/2000/svg" id="accept-1">
    <title>Accept</title>
    <desc>A solid styled icon from Orion Icon Library.</desc>
    <path fill="#2e2c2d"
    d="M2 20v38h60V20zm41.42 11.43L28.037 46.808 19.631 38.4a2 2 0 0 1 2.828-2.828l5.578 5.578L40.592 28.6a2 2 0 0 1 2.828 2.83z"
    data-name="layer2"></path>
    <path fill="#2e2c2d" d="M2 6v10h60V6zm6 7a2 2 0 1 1 2-2 2 2 0 0 1-2 2zm6 0a2 2 0 1 1 2-2 2 2 0 0 1-2 2zm6 0a2 2 0 1 1 2-2 2 2 0 0 1-2 2z"
    data-name="layer1"></path>
  </symbol>
  <symbol xmlns="http://www.w3.org/2000/svg" viewBox="0 0 64 64" id="data-app-1">
    <title>Data App</title>
    <desc>A solid styled icon from Orion Icon Library.</desc>
    <path data-name="layer2"
    fill="#2e2c2d" d="M34 36.6v22l28-13.2v-22L34 36.6zm-4 0L2 23.4v22l28 13.1V36.6z"></path>
    <path data-name="layer1" d="M20 19.4c0 2.2-3.1 4-7 4s-7-1.8-7-4 3.1-4 7-4 7 1.8 7 4zm12 2c-3.9 0-7 1.8-7 4s3.1 4 7 4 7-1.8 7-4-3.1-4-7-4zm0-16c-3.9 0-7 1.8-7 4s3.1 4 7 4 7-1.8 7-4-3.1-4-7-4zm19 10c-3.9 0-7 1.8-7 4s3.1 4 7 4 7-1.8 7-4-3.1-4-7-4z"
    fill="#2e2c2d"></path>
  </symbol>
  <symbol xmlns="http://www.w3.org/2000/svg" viewBox="0 0 64 64" id="puzzle-1">
    <title>Puzzle</title>
    <desc>A solid styled icon from Orion Icon Library.</desc>
    <path data-name="layer1"
    d="M56 38a5.9 5.9 0 0 0-4.5 2c-1.4 1.4-5.5 2-5.5-2V18H30c-4 0-3.4-4.1-2-5.5a6 6 0 1 0-8 0c1.4 1.4 2 5.5-2 5.5H2v8c0 4 4.1 3.4 5.5 2a5.9 5.9 0 0 1 4.5-2 6 6 0 1 1-4.5 10C6.1 34.6 2 34 2 38v24h24c4 0 3.4-4.1 2-5.5a5.9 5.9 0 0 1-2-4.5 6 6 0 1 1 10 4.5c-1.4 1.4-2 5.5 2 5.5h8V50c0-4 4.1-3.4 5.5-2A6 6 0 1 0 56 38z"
    fill="#2e2c2d"></path>
  </symbol>
  <symbol xmlns="http://www.w3.org/2000/svg" viewBox="0 0 64 64" id="puzzle-2">
    <title>Puzzle</title>
    <desc>A solid styled icon from Orion Icon Library.</desc>
    <path data-name="layer1"
    d="M51 21.3c-2.8-2.8.5-5.3 2.5-5.3a6 6 0 1 0-5.6-5.6c0 2-2.5 5.3-5.3 2.5L32 2.3 21.5 12.8c-2.8 2.8.5 5.3 2.5 5.3a5.9 5.9 0 0 1 4.6 1.7 6 6 0 1 1-10.2 3.9c0-2-2.5-5.3-5.3-2.5L2.3 32 13 42.7c2.8 2.8-.5 5.3-2.5 5.3a6 6 0 1 0 3.9 10.2 5.9 5.9 0 0 0 1.7-4.6c0-2 2.5-5.3 5.3-2.5L32 61.7 42.7 51c2.8-2.8-.5-5.3-2.5-5.3a6 6 0 1 1 5.7-5.7c0 2 2.5 5.3 5.3 2.5L61.7 32z"
    fill="#2e2c2d"></path>
  </symbol>
  <symbol xmlns="http://www.w3.org/2000/svg" viewBox="0 0 64 64" id="firewall-1">
    <title>Firewall</title>
    <desc>A solid styled icon from Orion Icon Library.</desc>
    <path data-name="layer2"
    fill="#2e2c2d" d="M15.5 32.5h16v8h-16zm0 22h16v8h-16zm-14-10h20v6h-20zm24 0h20v6h-20zm10-12h10v8h-10zm0 22h10v8h-10zm-34 0h10v8h-10zm0-22h10v8h-10z"></path>
    <path data-name="layer1" d="M58.4 18a1 1 0 0 0-1.8.8 27.4 27.4 0 0 1 .7 8 25 25 0 0 1-1.5 7.4 42.3 42.3 0 0 0-3.4-16.1c-3.2-7.2-9.1-11.4-14.9-15.4L36 1.6a1 1 0 0 0-1 1.7l1 .7.4.3c4.4 3.4 5.9 8.9 4.6 16.5a29.4 29.4 0 0 1-1.5 5.5 16.7 16.7 0 0 0-.8-4 16.4 16.4 0 0 0-6.6-8.6 1 1 0 0 0-1.3 1.5c4.7 4.7 3.6 6.4 1.5 9.7a30.2 30.2 0 0 0-2 3.6h19.2V53a17 17 0 0 0 13-16.5c0-11.6-4-18.2-4.1-18.5z"
    fill="#2e2c2d"></path>
  </symbol>
  <symbol xmlns="http://www.w3.org/2000/svg" viewBox="0 0 64 64" id="shield-1">
    <title>Shield</title>
    <desc>A solid styled icon from Orion Icon Library.</desc>
    <path data-name="layer1"
    d="M56 12.3a33.3 33.3 0 0 1-24-9.8 33.3 33.3 0 0 1-24 9.8S5.9 47.7 32 61.5c26.1-13.8 24-49.2 24-49.2z"
    fill="#2e2c2d"></path>
  </symbol>
  <symbol xmlns="http://www.w3.org/2000/svg" viewBox="0 0 64 64" id="shield-security-1">
    <title>Shield Security</title>
    <desc>A solid styled icon from Orion Icon Library.</desc>
    <path data-name="layer1"
    d="M56 12.3a33.3 33.3 0 0 1-24-9.8 33.3 33.3 0 0 1-24 9.8S5.9 47.7 32 61.5c26.1-13.8 24-49.2 24-49.2zm-9.6 11.9L31 39.6l-8.4-8.4a2 2 0 0 1 2.8-2.8l5.6 5.5 12.5-12.5a2 2 0 0 1 2.8 2.8z"
    fill="#2e2c2d"></path>
  </symbol>
  <symbol viewBox="0 0 64 64" xmlns="http://www.w3.org/2000/svg" id="code-bug-1">
    <title>Code Bug</title>
    <desc>A solid styled icon from Orion Icon Library.</desc>
    <path fill="#2e2c2d"
    d="M14.01 38H2a2 2 0 0 0 0 4h12.263a28.729 28.729 0 0 0 2.875 9.563c-6.078 1.841-8.9 9.429-9.019 9.762a2 2 0 0 0 1.2 2.56A2.026 2.026 0 0 0 10 64a2 2 0 0 0 1.881-1.32c.6-1.646 3.107-6.539 6.723-7.395a2.006 2.006 0 0 0 .66-.3 16.686 16.686 0 0 0 10.758 6.938V32a26.454 26.454 0 0 1-13.934-5.128A30.432 30.432 0 0 0 14.01 38zm25.658-21.636L46.75 4.038a2 2 0 1 0-3.42-2.074l-7.078 12.322a1.98 1.98 0 0 0-.186.407 13.656 13.656 0 0 0-8.1-.007 1.932 1.932 0 0 0-.182-.4L20.711 1.963a2 2 0 1 0-3.42 2.074l7.074 12.316a20.08 20.08 0 0 0-6.48 6.854 22.532 22.532 0 0 0 14.137 4.868 22.464 22.464 0 0 0 14.094-4.9 20.087 20.087 0 0 0-6.448-6.811zM62 38H50.006a30.47 30.47 0 0 0-2.09-11.157A26.41 26.41 0 0 1 34.021 32v29.922a16.693 16.693 0 0 0 10.727-6.928 1.994 1.994 0 0 0 .652.291c3.619.856 6.125 5.746 6.719 7.393A2 2 0 0 0 54 64a1.975 1.975 0 0 0 .678-.119 2 2 0 0 0 1.205-2.559c-.121-.332-2.932-7.911-9.008-9.76A28.738 28.738 0 0 0 49.754 42H62a2 2 0 0 0 0-4zM14.455 25.5a27.84 27.84 0 0 1 1.9-3.693 20.063 20.063 0 0 1-4.512-6.584 2 2 0 1 0-3.686 1.554 24.151 24.151 0 0 0 6.298 8.723zm35.045-.033a24.7 24.7 0 0 0 6.33-8.67 2 2 0 1 0-3.664-1.597 20.656 20.656 0 0 1-4.566 6.581 27.819 27.819 0 0 1 1.9 3.686z"
    data-name="layer1"></path>
  </symbol>
  <symbol xmlns="http://www.w3.org/2000/svg" viewBox="0 0 64 64" id="error-bug-1">
    <title>Error Bug</title>
    <desc>A solid styled icon from Orion Icon Library.</desc>
    <path data-name="layer1"
    d="M20.7 22a6.6 6.6 0 0 0-5.3 2.7 2 2 0 0 0-1-.5C8.7 23.2 8 20.4 8 18a2 2 0 0 0-4 0c0 3.9 1.7 8.8 9.7 10.1h.3V34H2a2 2 0 0 0 0 4h12.1a25.8 25.8 0 0 0 .6 4.1C6.3 44 2 48.7 2 56a2 2 0 0 0 2 2 2 2 0 0 0 2-2c0-5.3 3.1-8.5 9.6-10.1h.3c2.4 5.6 7 9.9 14.1 11.7V22h-9.3zM62 34H50v-5.9h.4c8-1.3 9.7-6.2 9.7-10.1a2 2 0 1 0-4 0c0 2.4-.7 5.3-6.3 6.2a2 2 0 0 0-1 .5 6.6 6.6 0 0 0-5.5-2.7H34v35.6c7.1-1.8 11.7-6.1 14.1-11.7h.3C54.9 47.5 58 50.7 58 56a2 2 0 0 0 2 2 2 2 0 0 0 2-2c-.1-7.3-4.3-12-12.7-13.9a25.9 25.9 0 0 0 .6-4.1H62a2 2 0 0 0 0-4zM20.6 18h22.7l2.3.3a8.6 8.6 0 0 0-8.2-6.3H26.6a8.6 8.6 0 0 0-8.3 6.3zM37.3 8a8 8 0 0 0-10.6 0z"
    fill="#2e2c2d"></path>
  </symbol>
  <symbol xmlns="http://www.w3.org/2000/svg" viewBox="0 0 64 64" id="bug-1">
    <title>Bug</title>
    <desc>A solid styled icon from Orion Icon Library.</desc>
    <path data-name="layer1"
    d="M60.9 7.2C49.6 1.4 41.7-.3 36.8 2.1A8.9 8.9 0 0 0 32 8.9a8.9 8.9 0 0 0-4.8-6.8C22.3-.3 14.4 1.4 3.1 7.2a2 2 0 1 0 1.8 3.6C18 4 23.4 4.7 25.4 5.7a5 5 0 0 1 2.6 4 2 2 0 0 0 .2.6 11.5 11.5 0 0 0-2.5 2.4h.3a9.4 9.4 0 0 0 12 0h.2a11.5 11.5 0 0 0-2.4-2.4 2 2 0 0 0 .2-.6 5.1 5.1 0 0 1 2.6-4c2-1 7.4-1.7 20.5 5.1a2 2 0 0 0 1.8-3.6z"
    fill="#2e2c2d"></path>
    <path data-name="layer1" d="M49.1 18.1l3.1 7.7A2 2 0 0 0 54 27h.7a2 2 0 0 0 1.1-2.6l-4-10a2 2 0 0 0-3-.9l-7.5 5.3c-.3-.9-.7-1.7-1.1-2.5A12.9 12.9 0 0 1 32 19a13.3 13.3 0 0 1-8.3-2.9c-.4.8-.7 1.6-1.1 2.5l-7.5-5.3a2 2 0 0 0-3 .9l-4 10a2 2 0 0 0 1.1 2.6h.8a2 2 0 0 0 1.9-1.3l3.1-7.7 5.9 4.2.6.3c-.2.8-.4 1.6-.5 2.5h22.1c-.2-.8-.3-1.7-.5-2.5l.6-.3zM56 32.6a2 2 0 0 0-2.7-1.5L44 34.9a55.4 55.4 0 0 0-.3-5.9H34v31.6c2.6-1 5-3.8 6.7-7.8h9.7l1.6 8.6a2 2 0 0 0 2 1.6h.4a2 2 0 0 0 1.6-2.4l-2-10a2 2 0 0 0-2-1.6h-9.9a47.4 47.4 0 0 0 1.8-10h1l7.7-3.1 1.4 7.5a2 2 0 0 0 2 1.6h.4a2 2 0 0 0 1.6-2.4zM20.3 29a54.8 54.8 0 0 0-.3 5.9l-9.3-3.7A2 2 0 0 0 8 32.6l-2 10A2 2 0 0 0 7.6 45H8a2 2 0 0 0 2-1.6l1.5-7.6 7.7 3.1h1a47.4 47.4 0 0 0 1.7 10H12a2 2 0 0 0-2 1.6l-2 10a2 2 0 0 0 1.6 2.4h.4a2 2 0 0 0 2-1.6l1.6-8.3h9.7c1.8 4 4.1 6.8 6.7 7.8V29h-9.7z"
    fill="#2e2c2d"></path>
  </symbol>
  <symbol xmlns="http://www.w3.org/2000/svg" viewBox="0 0 64 64" id="scroll-1">
    <title>Scroll</title>
    <desc>A solid styled icon from Orion Icon Library.</desc>
    <path data-name="layer1"
    d="M24 50v2a10 10 0 0 1-10 10h36a10 10 0 0 0 10-10v-2z" fill="#2e2c2d"></path>
    <path data-name="layer1" d="M4 2v50a10 10 0 0 0 6.1 9.2A4 4 0 0 1 14 58a6 6 0 0 0 6-6v-2a4 4 0 0 1 4-4h20V2zm30 42H14a2 2 0 0 1 0-4h20a2 2 0 0 1 0 4zm0-10H14a2 2 0 0 1 0-4h20a2 2 0 0 1 0 4zm0-10H14a2 2 0 0 1 0-4h20a2 2 0 0 1 0 4zm0-10H14a2 2 0 0 1 0-4h20a2 2 0 0 1 0 4z"
    fill="#2e2c2d"></path>
  </symbol>
  <symbol xmlns="http://www.w3.org/2000/svg" viewBox="0 0 64 64" id="certificate-1">
    <title>Certificate</title>
    <desc>A solid styled icon from Orion Icon Library.</desc>
    <path data-name="layer1"
    d="M54 46H24a8 8 0 0 1 0 16h30a8 8 0 0 0 0-16z" fill="#2e2c2d"></path>
    <path data-name="layer1" d="M42 2H9.2c4.4 0 6.8 3.6 6.8 8v44a8 8 0 0 0 4.1 7 4 4 0 0 1 3.9-3 4 4 0 0 0 0-8 4 4 0 0 1 0-8h26V10a8 8 0 0 0-8-8zm-2 34H26a2 2 0 0 1 0-4h14a2 2 0 0 1 0 4zm0-10H26a2 2 0 0 1 0-4h14a2 2 0 0 1 0 4zm0-10H26a2 2 0 0 1 0-4h14a2 2 0 0 1 0 4z"
    fill="#2e2c2d"></path>
    <path data-name="layer1" d="M9.2 6a4 4 0 0 1-3.8-2.9A8 8 0 0 0 2 10h10c0-1.5-.4-4-2.8-4z"
    fill="#2e2c2d"></path>
  </symbol>
  <symbol xmlns="http://www.w3.org/2000/svg" viewBox="0 0 64 64" id="css3-1">
    <title>Css3</title>
    <desc>A solid styled icon from Orion Icon Library.</desc>
    <path data-name="layer1"
    d="M6 2l4 54 22 6 22-6 4-54zm40.9 15.8L27.2 28h17.7a2 2 0 0 1 2 2.1l-.9 14a2 2 0 0 1-1.4 1.8l-12 4h-1.2l-11.7-4a2 2 0 0 1-1.3-1.7l-.6-5.8a2 2 0 0 1 4-.4l.4 4.5 9.8 3.4 10.1-3.4.7-10.5H19a2 2 0 0 1-.9-3.8L37.8 18H18a2 2 0 0 1 0-4h28a2 2 0 0 1 .9 3.8z"
    fill="#2e2c2d"></path>
  </symbol>
  <symbol xmlns="http://www.w3.org/2000/svg" viewBox="0 0 64 64" id="html5-1">
    <title>Html5</title>
    <desc>A solid styled icon from Orion Icon Library.</desc>
    <path data-name="layer1"
    d="M6 2l4 54 22 6 22-6 4-54zm40 16H20.1l.7 10h24.1a2 2 0 0 1 2 2.1l-.9 14a2 2 0 0 1-1.4 1.8l-12 4h-1.2l-11.7-4a2 2 0 0 1-1.3-1.7l-.6-5.8a2 2 0 0 1 4-.4l.4 4.5 9.8 3.4 10.1-3.4.7-10.5H19a2 2 0 0 1-2-1.9l-1-14a2 2 0 0 1 2-2.1h28a2 2 0 0 1 0 4z"
    fill="#2e2c2d"></path>
  </symbol>
  <symbol xmlns="http://www.w3.org/2000/svg" viewBox="0 0 64 64" id="data-1">
    <title>Data</title>
    <desc>A solid styled icon from Orion Icon Library.</desc>
    <path data-name="layer1"
    d="M32 2a30 30 0 1 0 30 30A30 30 0 0 0 32 2zm-4.1 6.4a22.5 22.5 0 0 1 8.1 0L38.5 22a12 12 0 0 0-13.1 0zM13.4 47.2a24 24 0 0 1-4.1-7.3L20 31.2v.8a12 12 0 0 0 6 10.4zM32 38a6 6 0 1 1 6-6 6 6 0 0 1-6 6zm18.5 9.2L38 42.4A12 12 0 0 0 44 32v-.6L54.6 40a24 24 0 0 1-4.1 7.2z"
    fill="#2e2c2d"></path>
  </symbol>
  <symbol xmlns="http://www.w3.org/2000/svg" viewBox="0 0 64 64" id="modem-1">
    <title>Modem</title>
    <desc>A solid styled icon from Orion Icon Library.</desc>
    <path data-name="layer2"
    d="M8 46v16h48V46zm16 10h-8a2 2 0 0 1 0-4h8a2 2 0 0 1 0 4z" fill="#2e2c2d"></path>
    <path data-name="layer1" fill="#2e2c2d" d="M40 38h12v4H40zM18 17.7V42h4V17.7a8 8 0 1 0-4 0z"></path>
  </symbol>
  <symbol xmlns="http://www.w3.org/2000/svg" viewBox="0 0 64 64" id="joystick-1">
    <title>Joystick</title>
    <desc>A solid styled icon from Orion Icon Library.</desc>
    <path data-name="layer1"
    fill="#2e2c2d" d="M62.2 32zM34 35v-7a7 7 0 0 1 7-7h5a10 10 0 0 0 10-10V3a2 2 0 1 0-4 0v8a6 6 0 0 1-6 6h-5a11 11 0 0 0-11 11v7H2v6h60v-6zM16 49h4v4h-4v4h-4v-4H8v-4h4v-4H2v18h60V45H16zm36 0a4 4 0 1 1-4 4 4 4 0 0 1 4-4zm-12 0a4 4 0 1 1-4 4 4 4 0 0 1 4-4z"></path>
  </symbol>
  <symbol xmlns="http://www.w3.org/2000/svg" viewBox="0 0 64 64" id="gamepad-1">
    <title>Gamepad</title>
    <desc>A solid styled icon from Orion Icon Library.</desc>
    <path data-name="layer1"
    d="M34 35v-7a7 7 0 0 1 7-7h5a10 10 0 0 0 10-10V3a2 2 0 1 0-4 0v8a6 6 0 0 1-6 6h-5a11 11 0 0 0-11 11v7H2v28h60V35zM20 51h-4v4h-4v-4H8v-4h4v-4h4v4h4zm28-11a3 3 0 1 1-3 3 3 3 0 0 1 3-3zm-6 12a3 3 0 1 1 3-3 3 3 0 0 1-3 3zm6 6a3 3 0 1 1 3-3 3 3 0 0 1-3 3zm6-6a3 3 0 1 1 3-3 3 3 0 0 1-3 3z"
    fill="#2e2c2d"></path>
  </symbol>
  <symbol xmlns="http://www.w3.org/2000/svg" viewBox="0 0 64 64" id="videogame-controller-1">
    <title>Videogame Controller</title>
    <desc>A solid styled icon from Orion Icon Library.</desc>
    <path data-name="layer1"
    d="M48 35H34v-7a7 7 0 0 1 7-7h5a10 10 0 0 0 10-10V3a2 2 0 1 0-4 0v8a6 6 0 0 1-6 6h-5a11 11 0 0 0-11 11v7H16a14 14 0 1 0 11.5 22h9A14 14 0 1 0 48 35zM22 51h-4v4h-4v-4h-4v-4h4v-4h4v4h4zm7.4-6.6a2 2 0 0 1-2.8 0A2 2 0 0 1 26 43a2 2 0 0 1 .6-1.4 2.1 2.1 0 0 1 2.8 0A2 2 0 0 1 30 43a2 2 0 0 1-.6 1.4zm8 0a2 2 0 0 1-1.4.6 2.1 2.1 0 0 1-1.4-.6A2 2 0 0 1 34 43a2 2 0 0 1 .6-1.4 2.1 2.1 0 0 1 2.8 0A2 2 0 0 1 38 43a2 2 0 0 1-.6 1.4zM45 55a3 3 0 1 1 3-3 3 3 0 0 1-3 3zm8-4a3 3 0 1 1 3-3 3 3 0 0 1-3 3z"
    fill="#2e2c2d"></path>
  </symbol>
  <symbol xmlns="http://www.w3.org/2000/svg" viewBox="0 0 64 64" id="gameboy-1">
    <title>Gameboy</title>
    <desc>A solid styled icon from Orion Icon Library.</desc>
    <path data-name="layer1"
    d="M12 2v60h40V2zm8 8h24v24H20zm10 40h-4v4h-4v-4h-4v-4h4v-4h4v4h4zm7 4a3 3 0 1 1 3-3 3 3 0 0 1-3 3zm8-4a3 3 0 1 1 3-3 3 3 0 0 1-3 3z"
    fill="#2e2c2d"></path>
  </symbol>
  <symbol viewBox="0 0 64 64" xmlns="http://www.w3.org/2000/svg" id="game-controller-1">
    <title>Game Controller</title>
    <desc>A solid styled icon from Orion Icon Library.</desc>
    <circle fill="#2e2c2d"
    r="5" cy="37" cx="21" data-name="layer2"></circle>
    <circle fill="#2e2c2d" r="5" cy="37" cx="43" data-name="layer2"></circle>
    <path fill="#2e2c2d" d="M57.834 22a11.977 11.977 0 0 0-11.178-9.94l-.344-.06H18A12 12 0 0 0 6.166 22L2.15 43.555a7 7 0 0 0 12.656 5.355l2.633-3.646A8.993 8.993 0 0 1 16 29.522V26h-4v-4h4v-4h4v4h4v4h-4v2.06a8.85 8.85 0 0 1 1-.06 8.986 8.986 0 0 1 7.555 13.873h6.889a9 9 0 1 1 11.117 3.39l2.633 3.646A7 7 0 0 0 62 45c0-2-4.166-23-4.166-23zM39 26a3 3 0 1 1 3-3 3 3 0 0 1-3 3zm10 0a3 3 0 1 1 3-3 3 3 0 0 1-3 3z"
    data-name="layer1"></path>
  </symbol>
  <symbol xmlns="http://www.w3.org/2000/svg" viewBox="0 0 64 64" id="imac-screen-1">
    <title>iMac Screen</title>
    <desc>A solid styled icon from Orion Icon Library.</desc>
    <path data-name="layer1"
    d="M60 3H4a2 2 0 0 0-2 2v42a2 2 0 0 0 2 2h26v8h-8a2 2 0 0 0 0 4h20a2 2 0 0 0 0-4h-8v-8h26a2 2 0 0 0 2-2V5a2 2 0 0 0-2-2zM6 7h52v30H6z"
    fill="#2e2c2d"></path>
  </symbol>
  <symbol xmlns="http://www.w3.org/2000/svg" viewBox="0 0 64 64" id="terminal-1">
    <title>Terminal</title>
    <desc>A solid styled icon from Orion Icon Library.</desc>
    <path data-name="layer1"
    d="M60 3H4a2 2 0 0 0-2 2v42a2 2 0 0 0 2 2h22v8H16a2 2 0 0 0 0 4h32a2 2 0 1 0 0-4H38v-8h22a2 2 0 0 0 2-2V5a2 2 0 0 0-2-2zm-6 36H10V11h44z"
    fill="#2e2c2d"></path>
  </symbol>
  <symbol xmlns="http://www.w3.org/2000/svg" viewBox="0 0 64 64" id="classic-computer-1">
    <title>Classic Computer</title>
    <desc>A solid styled icon from Orion Icon Library.</desc>
    <path data-name="layer1"
    d="M6 46v16h52V46zm44 8H38a2 2 0 0 1 0-4h12a2 2 0 0 1 0 4zM6 2v40h52V2zm44 32a2 2 0 0 1-2 2H16a2 2 0 0 1-2-2V12a2 2 0 0 1 2-2h32a2 2 0 0 1 2 2z"
    fill="#2e2c2d"></path>
  </symbol>
  <symbol xmlns="http://www.w3.org/2000/svg" viewBox="0 0 64 64" id="computer-display-1">
    <title>Computer Display</title>
    <desc>A solid styled icon from Orion Icon Library.</desc>
    <path data-name="layer1"
    d="M60 5H4a2 2 0 0 0-2 2v36a2 2 0 0 0 2 2h26v10h-8a2 2 0 0 0 0 4h20a2 2 0 0 0 0-4h-8V45h26a2 2 0 0 0 2-2V7a2 2 0 0 0-2-2zm-4 34H8V11h48z"
    fill="#2e2c2d"></path>
  </symbol>
  <symbol xmlns="http://www.w3.org/2000/svg" viewBox="0 0 64 64" id="tv-display-1">
    <title>TV display</title>
    <desc>A solid styled icon from Orion Icon Library.</desc>
    <path data-name="layer1"
    d="M62 43.5v-38H2v38h28v6.1a41.9 41.9 0 0 0-19 5.6l2 3.5a38 38 0 0 1 38 0l2-3.5a42 42 0 0 0-19-5.6v-6.1zm-54-32h48v26H8z"
    fill="#2e2c2d"></path>
  </symbol>
  <symbol xmlns="http://www.w3.org/2000/svg" viewBox="0 0 64 64" id="pro-laptop-1">
    <title>Pro Laptop</title>
    <desc>A solid styled icon from Orion Icon Library.</desc>
    <path data-name="layer1"
    d="M60 46V14a4 4 0 0 0-4-4H8a4 4 0 0 0-4 4v32H0v6a2 2 0 0 0 2 2h60a2 2 0 0 0 2-2v-6zm-22 0v2H26v-2H8V14h48v32z"
    fill="#2e2c2d"></path>
  </symbol>
  <symbol xmlns="http://www.w3.org/2000/svg" viewBox="0 0 64 64" id="laptop-1">
    <title>Laptop</title>
    <desc>A solid styled icon from Orion Icon Library.</desc>
    <path data-name="layer1"
    d="M56 35V7a2 2 0 0 0-2-2H10a2 2 0 0 0-2 2v28L2.7 51h58.6zM12 9h40v22H12zm38 38H14a2 2 0 0 1 0-4h36a2 2 0 0 1 0 4zM2 55v2a2 2 0 0 0 2 2h56a2 2 0 0 0 2-2v-2z"
    fill="#2e2c2d"></path>
  </symbol>
  <symbol xmlns="http://www.w3.org/2000/svg" viewBox="0 0 64 64" id="remote-control-1">
    <title>Remote Control</title>
    <desc>A solid styled icon from Orion Icon Library.</desc>
    <path data-name="layer2"
    d="M36 30.5a6 6 0 0 1 7.9 0 2 2 0 0 0 2.6-3 10 10 0 0 0-13.2 0 2 2 0 0 0 2.6 3z"
    fill="#2e2c2d"></path>
    <path data-name="layer2" d="M51.6 21.3a18 18 0 0 0-23.4.1 2 2 0 1 0 2.6 3 14 14 0 0 1 18.2-.1 2 2 0 1 0 2.6-3.1zM46 35H34a2 2 0 0 0-2 2v24a2 2 0 0 0 2 2h12a2 2 0 0 0 2-2V37a2 2 0 0 0-2-2zm-4.6 9.4a2 2 0 1 1-2.8-2.8 2.1 2.1 0 0 1 2.8 0A2 2 0 0 1 42 43a2 2 0 0 1-.6 1.4z"
    fill="#2e2c2d"></path>
    <path data-name="layer1" d="M62 1H2a2 2 0 0 0-2 2v44a2 2 0 0 0 2 2h26v-4H4V5h56v40h-8v4h10a2 2 0 0 0 2-2V3a2 2 0 0 0-2-2z"
    fill="#2e2c2d"></path>
  </symbol>
  <symbol xmlns="http://www.w3.org/2000/svg" viewBox="0 0 64 64" id="wireless-1">
    <title>Wireless</title>
    <desc>A solid styled icon from Orion Icon Library.</desc>
    <path data-name="layer2"
    d="M31.8 26a17.1 17.1 0 0 0-12.5 5.5 2 2 0 1 0 2.9 2.7 13 13 0 0 1 19.2.1 2 2 0 0 0 3-2.7A17 17 0 0 0 31.8 26z"
    fill="#2e2c2d"></path>
    <path data-name="layer2" d="M50 25.9a2 2 0 0 0 2.9-2.7 29.1 29.1 0 0 0-42.1-.3 2 2 0 1 0 2.9 2.8A25.1 25.1 0 0 1 50 26z"
    fill="#2e2c2d"></path>
    <path data-name="layer2" d="M5.2 17.2a37.8 37.8 0 0 1 53.7 0 2 2 0 0 0 2.8-2.8 41.8 41.8 0 0 0-59.3 0 2 2 0 0 0 2.8 2.8z"
    fill="#2e2c2d"></path>
    <path data-name="layer1" d="M60 42H4a2 2 0 0 0-2 2v16a2 2 0 0 0 2 2h56a2 2 0 0 0 2-2V44a2 2 0 0 0-2-2zm-8.6 12.9a3.4 3.4 0 1 1 3.4-3.4 3.4 3.4 0 0 1-3.4 3.4z"
    fill="#2e2c2d"></path>
  </symbol>
  <symbol xmlns="http://www.w3.org/2000/svg" viewBox="0 0 64 64" id="wifi-router-1">
    <title>Wifi Router</title>
    <desc>A solid styled icon from Orion Icon Library.</desc>
    <path data-name="layer2"
    d="M43 17a4 4 0 0 1 8 0 2 2 0 0 0 4 0 8 8 0 0 0-16 0 2 2 0 0 0 4 0z" fill="#2e2c2d"></path>
    <path data-name="layer2" d="M47 1a16 16 0 0 0-16 16 2 2 0 1 0 4 0 12 12 0 0 1 24 0 2 2 0 1 0 4 0A16 16 0 0 0 47 1z"
    fill="#2e2c2d"></path>
    <path data-name="layer1" d="M59 39H49V19a2 2 0 0 0-4 0v20H3a2 2 0 0 0-2 2v14a2 2 0 0 0 2 2h2v4a2 2 0 0 0 4 0v-4h44v4a2 2 0 0 0 4 0v-4h2a2 2 0 0 0 2-2V41a2 2 0 0 0-2-2zM10 51a3 3 0 1 1 3-3 3 3 0 0 1-3 3zm10 0a3 3 0 1 1 3-3 3 3 0 0 1-3 3zm10 0a3 3 0 1 1 3-3 3 3 0 0 1-3 3z"
    fill="#2e2c2d"></path>
  </symbol>
  <symbol xmlns="http://www.w3.org/2000/svg" viewBox="0 0 64 64" id="wifi-modem-1">
    <title>Wifi Modem</title>
    <desc>A solid styled icon from Orion Icon Library.</desc>
    <path data-name="layer1"
    d="M60 36h-4V4a2 2 0 0 0-4 0v32H12V4a2 2 0 1 0-4 0v32H4a2 2 0 0 0-2 2v16a2 2 0 0 0 2 2h4v4a2 2 0 1 0 4 0v-4h40v4a2 2 0 0 0 4 0v-4h4a2 2 0 0 0 2-2V38a2 2 0 0 0-2-2zM28 48H10a2 2 0 0 1 0-4h18a2 2 0 0 1 0 4zm23 0a3 3 0 1 1 3-3 3 3 0 0 1-3 3z"
    fill="#2e2c2d"></path>
  </symbol>
  <symbol xmlns="http://www.w3.org/2000/svg" viewBox="0 0 64 64" id="router-1">
    <title>Router</title>
    <desc>A solid styled icon from Orion Icon Library.</desc>
    <path data-name="layer2"
    d="M25.1 22.1l1-.3a2 2 0 0 0 .7-2.7 6 6 0 0 1 0-6 2 2 0 0 0-3.5-2 10 10 0 0 0 0 10 2 2 0 0 0 1.8 1zm12.8-.3l1 .3a2 2 0 0 0 1.7-1 10 10 0 0 0 0-10 2 2 0 0 0-3.5 2 6 6 0 0 1 0 6 2 2 0 0 0 .8 2.7zm-20.2 3.4l.9-.2a2 2 0 0 0 .9-2.7 14 14 0 0 1 0-12.4 2 2 0 1 0-3.6-1.8 18 18 0 0 0 0 16 2 2 0 0 0 1.8 1.1zm27.8-.2l.9.2a2 2 0 0 0 1.8-1.1 18 18 0 0 0 0-16 2 2 0 1 0-3.6 1.8 14.1 14.1 0 0 1 0 12.4 2 2 0 0 0 .9 2.7zm-35.2 3.3l.8-.2a2 2 0 0 0 1-2.7 22 22 0 0 1 0-18.7 2 2 0 1 0-3.6-1.6 26 26 0 0 0 0 22.1 2 2 0 0 0 1.8 1.1zm42.6-.2l.8.2a2 2 0 0 0 1.8-1.1 26.1 26.1 0 0 0 0-22.1 2 2 0 1 0-3.6 1.7 22.1 22.1 0 0 1 0 18.7 2 2 0 0 0 1 2.6z"
    fill="#2e2c2d"></path>
    <path data-name="layer1" d="M60 36.1H34v-20a2 2 0 1 0-4 0v20H4a2 2 0 0 0-2 2v14a2 2 0 0 0 2 2h2v4a2 2 0 1 0 4 0v-4h44v4a2 2 0 0 0 4 0v-4h2a2 2 0 0 0 2-2v-14a2 2 0 0 0-2-2zm-49 12a3 3 0 1 1 3-3 3 3 0 0 1-3 3zm10 0a3 3 0 1 1 3-3 3 3 0 0 1-3 3zm10 0a3 3 0 1 1 3-3 3 3 0 0 1-3 3z"
    fill="#2e2c2d"></path>
  </symbol>
  <symbol xmlns="http://www.w3.org/2000/svg" viewBox="0 0 64 64" id="ssd-storage-1">
    <title>SSD Storage</title>
    <desc>A solid styled icon from Orion Icon Library.</desc>
    <path data-name="layer2"
    d="M60.8 33l-6.2-20A5.1 5.1 0 0 0 50 9H14c-2 0-3.7 1.3-4.6 4L3.2 33z" fill="#2e2c2d"></path>
    <path data-name="layer1" d="M2 53a2 2 0 0 0 2 2h56a2 2 0 0 0 2-2V37H2zm48.6-13.4a2.1 2.1 0 0 1 2.8 0A2 2 0 0 1 54 41a2 2 0 0 1-2 2 2 2 0 0 1-2-2 2 2 0 0 1 .6-1.4zM12 45h40a2 2 0 0 1 0 4H12a2 2 0 0 1 0-4z"
    fill="#2e2c2d"></path>
  </symbol>
  <symbol xmlns="http://www.w3.org/2000/svg" viewBox="0 0 64 64" id="network-drive-1">
    <title>Network Drive</title>
    <desc>A solid styled icon from Orion Icon Library.</desc>
    <circle data-name="layer2"
    cx="32" cy="32" r="4" fill="#2e2c2d"></circle>
    <path data-name="layer1" d="M32 42a10 10 0 0 1-3.3-.6 10.1 10.1 0 0 1-6.1-6.1 2 2 0 1 0-3.8 1.3 14.1 14.1 0 0 0 8.5 8.5 14 14 0 0 0 4.7.9 2 2 0 0 0 0-4zm4.7-23.2A14 14 0 0 0 32 18a2 2 0 0 0 0 4 10 10 0 0 1 9.4 6.7 2 2 0 0 0 1.9 1.3h.7a2 2 0 0 0 1.2-2.6 13.9 13.9 0 0 0-8.5-8.6z"
    fill="#2e2c2d"></path>
    <path data-name="layer1" d="M2 2v60h60V2zm30 52a22 22 0 1 1 22-22 22 22 0 0 1-22 22z"
    fill="#2e2c2d"></path>
  </symbol>
  <symbol xmlns="http://www.w3.org/2000/svg" viewBox="0 0 64 64" id="compact-disc-1">
    <title>Compact Disc</title>
    <desc>A solid styled icon from Orion Icon Library.</desc>
    <circle data-name="layer2"
    cx="32" cy="32" r="3" fill="#2e2c2d"></circle>
    <path data-name="layer1" d="M32 2a30 30 0 1 0 30 30A30 30 0 0 0 32 2zm0 40a10 10 0 1 1 10-10 10 10 0 0 1-10 10z"
    fill="#2e2c2d"></path>
  </symbol>
  <symbol xmlns="http://www.w3.org/2000/svg" viewBox="0 0 64 64" id="cd-1">
    <title>CD</title>
    <desc>A solid styled icon from Orion Icon Library.</desc>
    <circle data-name="layer1"
    cx="32" cy="32" r="3" fill="#2e2c2d"></circle>
    <path data-name="layer1" d="M41.8 34a9.9 9.9 0 0 1-2.1 4.3l13.6 14.8A29.9 29.9 0 0 0 61.9 34z"
    fill="#2e2c2d"></path>
    <path data-name="layer2" d="M27.4 23.1A10 10 0 0 1 41.8 30h20.1A30 30 0 0 0 13.7 8.3zm9.2 17.8A10 10 0 0 1 22.2 34H2.1a30 30 0 0 0 48.3 21.7z"
    fill="#2e2c2d"></path>
    <path data-name="layer1" d="M10.7 10.9A29.9 29.9 0 0 0 2.1 30h20.1a10 10 0 0 1 2.1-4.4z"
    fill="#2e2c2d"></path>
  </symbol>
  <symbol xmlns="http://www.w3.org/2000/svg" viewBox="0 0 64 64" id="hard-disk-drive-hdd-1">
    <title>Hard Disk Drive HDD</title>
    <desc>A solid styled icon from Orion Icon Library.</desc>
    <circle data-name="layer2"
    cx="32" cy="26" r="3" fill="#2e2c2d"></circle>
    <path data-name="layer1" d="M54 2H10a2 2 0 0 0-2 2v56a2 2 0 0 0 2 2h44a2 2 0 0 0 2-2V4a2 2 0 0 0-2-2zM32 42a15.9 15.9 0 0 1-9.8-3.4l-4.1 4.1 17.9 8V56H14V44a.7.7 0 0 1 0-.1v-2.7l5.4-5.4A16 16 0 1 1 32 42z"
    fill="#2e2c2d"></path>
    <path data-name="layer1" d="M24.6 30.6l-3.2 3.2a14.1 14.1 0 0 0 2.8 2.8l3.2-3.2a2 2 0 1 0-2.8-2.8z"
    fill="#2e2c2d"></path>
  </symbol>
  <symbol xmlns="http://www.w3.org/2000/svg" viewBox="0 0 64 64" id="mouse-1">
    <title>Mouse</title>
    <desc>A solid styled icon from Orion Icon Library.</desc>
    <path data-name="layer1"
    d="M34 2h-4a18 18 0 0 0-18 18v24a18 18 0 0 0 18 18h4a18 18 0 0 0 18-18V20A18 18 0 0 0 34 2zm2 18a4 4 0 1 1-8 0v-4a4 4 0 1 1 8 0z"
    fill="#2e2c2d"></path>
  </symbol>
  <symbol xmlns="http://www.w3.org/2000/svg" viewBox="0 0 64 64" id="mouse-2">
    <title>Mouse</title>
    <desc>A solid styled icon from Orion Icon Library.</desc>
    <path data-name="layer2"
    d="M49 17v-1a15 15 0 1 0-30 0v8a7 7 0 1 1-14 0V5a2 2 0 1 0-4 0v19a11 11 0 1 0 22 0v-8a11 11 0 1 1 22 0v1a14 14 0 0 0-14 14v2h12v-2a4 4 0 1 1 8 0v2h12v-2a14 14 0 0 0-14-14z"
    fill="#2e2c2d"></path>
    <path data-name="layer1" d="M47 39a4 4 0 0 1-3.4-2H31v12a14 14 0 0 0 14 14h4a14 14 0 0 0 14-14V37H50.4a4 4 0 0 1-3.4 2z"
    fill="#2e2c2d"></path>
  </symbol>
  <symbol xmlns="http://www.w3.org/2000/svg" viewBox="0 0 64 64" id="mouse-3">
    <title>Mouse</title>
    <desc>A solid styled icon from Orion Icon Library.</desc>
    <path data-name="layer2"
    d="M59 17H49v12h14v-8a4 4 0 0 0-4-4zm-28 4v8h14V17H35a4 4 0 0 0-4 4zm0 28a14 14 0 0 0 14 14h4a14 14 0 0 0 14-14V33H31z"
    fill="#2e2c2d"></path>
    <path data-name="layer1" d="M44.6 13h4.1A15 15 0 0 0 19 16v8a7 7 0 0 1-14 0V5a2 2 0 0 0-4 0v19a11 11 0 0 0 22 0v-8a11 11 0 0 1 21.6-3z"
    fill="#2e2c2d"></path>
  </symbol>
  <symbol xmlns="http://www.w3.org/2000/svg" viewBox="0 0 64 64" id="keyboard-1">
    <title>Keyboard</title>
    <desc>A solid styled icon from Orion Icon Library.</desc>
    <path data-name="layer1"
    d="M59 14H5a2 2 0 0 0-2 2v32a2 2 0 0 0 2 2h54a2 2 0 0 0 2-2V16a2 2 0 0 0-2-2zm-20 8a2 2 0 0 1 2-2h2a2 2 0 0 1 2 2v2a2 2 0 0 1-2 2h-2a2 2 0 0 1-2-2zm0 10a2 2 0 0 1 2-2h2a2 2 0 0 1 2 2v2a2 2 0 0 1-2 2h-2a2 2 0 0 1-2-2zM29 22a2 2 0 0 1 2-2h2a2 2 0 0 1 2 2v2a2 2 0 0 1-2 2h-2a2 2 0 0 1-2-2zm0 10a2 2 0 0 1 2-2h2a2 2 0 0 1 2 2v2a2 2 0 0 1-2 2h-2a2 2 0 0 1-2-2zM19 22a2 2 0 0 1 2-2h2a2 2 0 0 1 2 2v2a2 2 0 0 1-2 2h-2a2 2 0 0 1-2-2zm0 10a2 2 0 0 1 2-2h2a2 2 0 0 1 2 2v2a2 2 0 0 1-2 2h-2a2 2 0 0 1-2-2zm-6 12h-2a2 2 0 1 1 0-4h2a2 2 0 0 1 0 4zm2-10a2 2 0 0 1-2 2h-2a2 2 0 0 1-2-2v-2a2 2 0 0 1 2-2h2a2 2 0 0 1 2 2zm0-10a2 2 0 0 1-2 2h-2a2 2 0 0 1-2-2v-2a2 2 0 0 1 2-2h2a2 2 0 0 1 2 2zm38 20H21a2 2 0 0 1 0-4h32a2 2 0 1 1 0 4zm2-10a2 2 0 0 1-2 2h-2a2 2 0 0 1-2-2v-2a2 2 0 0 1 2-2h2a2 2 0 0 1 2 2zm0-10a2 2 0 0 1-2 2h-2a2 2 0 0 1-2-2v-2a2 2 0 0 1 2-2h2a2 2 0 0 1 2 2z"
    fill="#2e2c2d"></path>
  </symbol>
  <symbol xmlns="http://www.w3.org/2000/svg" viewBox="0 0 64 64" id="keyboard-2">
    <title>Keyboard</title>
    <desc>A solid styled icon from Orion Icon Library.</desc>
    <path data-name="layer1"
    d="M58 27H32v-1.3a4.7 4.7 0 0 1 4.7-4.7H54a8 8 0 1 0 0-16H26a2 2 0 0 1-2-2 2 2 0 0 0-4 0 6 6 0 0 0 6 6h28a4 4 0 1 1 0 8H36.7a8.7 8.7 0 0 0-8.7 8.7V27H4a2 2 0 0 0-2 2v32a2 2 0 0 0 2 2h54a2 2 0 0 0 2-2V29a2 2 0 0 0-2-2zm-20 8a2 2 0 0 1 2-2h2a2 2 0 0 1 2 2v2a2 2 0 0 1-2 2h-2a2 2 0 0 1-2-2zm0 10a2 2 0 0 1 2-2h2a2 2 0 0 1 2 2v2a2 2 0 0 1-2 2h-2a2 2 0 0 1-2-2zM28 35a2 2 0 0 1 2-2h2a2 2 0 0 1 2 2v2a2 2 0 0 1-2 2h-2a2 2 0 0 1-2-2zm0 10a2 2 0 0 1 2-2h2a2 2 0 0 1 2 2v2a2 2 0 0 1-2 2h-2a2 2 0 0 1-2-2zM18 35a2 2 0 0 1 2-2h2a2 2 0 0 1 2 2v2a2 2 0 0 1-2 2h-2a2 2 0 0 1-2-2zm0 10a2 2 0 0 1 2-2h2a2 2 0 0 1 2 2v2a2 2 0 0 1-2 2h-2a2 2 0 0 1-2-2zm-6 12h-2a2 2 0 0 1 0-4h2a2 2 0 1 1 0 4zm2-10a2 2 0 0 1-2 2h-2a2 2 0 0 1-2-2v-2a2 2 0 0 1 2-2h2a2 2 0 0 1 2 2zm0-10a2 2 0 0 1-2 2h-2a2 2 0 0 1-2-2v-2a2 2 0 0 1 2-2h2a2 2 0 0 1 2 2zm38 20H20a2 2 0 1 1 0-4h32a2 2 0 0 1 0 4zm2-10a2 2 0 0 1-2 2h-2a2 2 0 0 1-2-2v-2a2 2 0 0 1 2-2h2a2 2 0 0 1 2 2zm0-10a2 2 0 0 1-2 2h-2a2 2 0 0 1-2-2v-2a2 2 0 0 1 2-2h2a2 2 0 0 1 2 2z"
    fill="#2e2c2d"></path>
  </symbol>
  <symbol xmlns="http://www.w3.org/2000/svg" viewBox="0 0 64 64" id="print-1">
    <title>Print</title>
    <desc>A solid styled icon from Orion Icon Library.</desc>
    <path data-name="layer2"
    fill="#2e2c2d" d="M14 4h36v12H14zm0 56h36V36H14zm8-18h20a2 2 0 0 1 0 4H22a2 2 0 0 1 0-4zm0 8h20a2 2 0 0 1 0 4H22a2 2 0 0 1 0-4z"></path>
    <path data-name="layer1" d="M2 20v26h8V32h44v14h8V20zm9.4 9.4a2 2 0 0 1-1.4.6 2 2 0 0 1-1.4-.6A2 2 0 0 1 8 28a2 2 0 0 1 .6-1.4 2.1 2.1 0 0 1 2.8 0A2 2 0 0 1 12 28a2 2 0 0 1-.6 1.4zM54 30h-4a2 2 0 0 1 0-4h4a2 2 0 0 1 0 4z"
    fill="#2e2c2d"></path>
  </symbol>
  <symbol xmlns="http://www.w3.org/2000/svg" viewBox="0 0 64 64" id="usb-1">
    <title>USB</title>
    <desc>A solid styled icon from Orion Icon Library.</desc>
    <path data-name="layer2"
    fill="#2e2c2d" d="M14 32h36v30H14z"></path>
    <path data-name="layer1" d="M46 2H18v26h28zM30 12h-2v4h2v4h-6V8h6zm10 0h-2v4h2v4h-6V8h6z"
    fill="#2e2c2d"></path>
  </symbol>
  <symbol xmlns="http://www.w3.org/2000/svg" viewBox="0 0 64 64" id="usb-connected-1">
    <title>USB Connected</title>
    <desc>A solid styled icon from Orion Icon Library.</desc>
    <path data-name="layer1"
    d="M36 2H12v20h24zM22 16a2 2 0 1 1-4 0v-6a2 2 0 1 1 4 0zm8 0a2 2 0 1 1-4 0v-6a2 2 0 1 1 4 0z"
    fill="#2e2c2d"></path>
    <path data-name="layer2" d="M40 30a16 16 0 1 0 16 16 16 16 0 0 0-16-16zm8.5 13.3l-9.4 10.6-6.5-6.5a2 2 0 0 1 2.8-2.8l3.5 3.5 6.6-7.4a2 2 0 1 1 3 2.7z"
    fill="#2e2c2d"></path>
    <path data-name="layer1" d="M40 26H8v32h16a20 20 0 0 1 16-32z"
    fill="#2e2c2d"></path>
  </symbol>
  <symbol xmlns="http://www.w3.org/2000/svg" viewBox="0 0 64 64" id="plug-1">
    <title>Plug</title>
    <desc>A solid styled icon from Orion Icon Library.</desc>
    <path data-name="layer2"
    d="M28 54h2v8a2 2 0 1 0 4 0v-7.9h2V50h-8z" fill="#2e2c2d"></path>
    <path data-name="layer1" d="M48 16h-6V2a2 2 0 1 0-4 0v14H26V2a2 2 0 1 0-4 0v14h-6a2 2 0 0 0 0 4h2v16a10 10 0 0 0 10 10h8a10 10 0 0 0 10-10V20h2a2 2 0 0 0 0-4z"
    fill="#2e2c2d"></path>
  </symbol>
  <symbol xmlns="http://www.w3.org/2000/svg" viewBox="0 0 64 64" id="power-cord-1">
    <title>Power Cord</title>
    <desc>A solid styled icon from Orion Icon Library.</desc>
    <path data-name="layer2"
    d="M35.1 23.3L27 15.2l1.3-1.3a2 2 0 0 0-2.9-2.9l-3.7 3.7-8.5-8.4a2 2 0 0 0-2.8 2.8l8.5 8.5-6.5 6.5-8.5-8.5a2 2 0 1 0-2.8 2.8l8.5 8.5-3.7 3.7a2 2 0 1 0 2.8 2.8l1.3-1.3 8.2 8.2a8.5 8.5 0 0 0 12 0l5-5a8.5 8.5 0 0 0-.1-12z"
    fill="#2e2c2d"></path>
    <path data-name="layer1" d="M62.9 37l-3.3-3.3a7 7 0 1 0-9.9 9.9l5.7 5.7a3 3 0 1 1-4.2 4.2L39.7 42l1.4-1.4-2.7-2.6-5.7 5.7 2.7 2.7 1.4-1.4 11.5 11.3a7 7 0 0 0 9.9-9.9l-5.7-5.7a3 3 0 0 1 0-4.2 3.1 3.1 0 0 1 4.2 0l3.3 3.3a2 2 0 1 0 2.9-2.8z"
    fill="#2e2c2d"></path>
  </symbol>
  <symbol viewBox="0 0 64 64" xmlns="http://www.w3.org/2000/svg" id="iphone-1">
    <title>Iphone</title>
    <desc>A solid styled icon from Orion Icon Library.</desc>
    <path fill="#2e2c2d"
    d="M47 2H17a3.009 3.009 0 0 0-3 3v54a3.009 3.009 0 0 0 3 3h30a3.009 3.009 0 0 0 3-3V5a3.009 3.009 0 0 0-3-3zM33.359 57.414a2.047 2.047 0 0 1-1.42.59 2.017 2.017 0 0 1-1.41-.59 1.992 1.992 0 0 1 0-2.83 2.083 2.083 0 0 1 2.83 0A2.045 2.045 0 0 1 33.94 56a2.017 2.017 0 0 1-.581 1.414zM46 50H18V8h28z"
    data-name="layer1"></path>
  </symbol>
  <symbol xmlns="http://www.w3.org/2000/svg" viewBox="0 0 64 64" id="smartphone-1">
    <title>Smartphone</title>
    <desc>A solid styled icon from Orion Icon Library.</desc>
    <path data-name="layer1"
    d="M49 2H15a3 3 0 0 0-3 3v54a3 3 0 0 0 3 3h34a3 3 0 0 0 3-3V5a3 3 0 0 0-3-3zM36 56a2 2 0 0 1-2 2h-4a2 2 0 0 1 0-4h4a2 2 0 0 1 2 2zm12-6H16V10h32z"
    fill="#2e2c2d"></path>
  </symbol>
  <symbol xmlns="http://www.w3.org/2000/svg" viewBox="0 0 64 64" id="cellphone-1">
    <title>Cellphone</title>
    <desc>A solid styled icon from Orion Icon Library.</desc>
    <path data-name="layer1"
    d="M44 2H20a8 8 0 0 0-8 8v44a8 8 0 0 0 8 8h24a8 8 0 0 0 8-8V10a8 8 0 0 0-8-8zM24 54h-2a2 2 0 0 1 0-4h2a2 2 0 0 1 0 4zm0-8h-2a2 2 0 0 1 0-4h2a2 2 0 0 1 0 4zm9 8h-2a2 2 0 0 1 0-4h2a2 2 0 0 1 0 4zm0-8h-2a2 2 0 0 1 0-4h2a2 2 0 0 1 0 4zm9 8h-2a2 2 0 0 1 0-4h2a2 2 0 0 1 0 4zm0-8h-2a2 2 0 0 1 0-4h2a2 2 0 0 1 0 4zm4-10H18V12h28z"
    fill="#2e2c2d"></path>
  </symbol>
  <symbol xmlns="http://www.w3.org/2000/svg" viewBox="0 0 64 64" id="music-player-ipod-1">
    <title>Music Player iPod</title>
    <desc>A solid styled icon from Orion Icon Library.</desc>
    <path data-name="layer2"
    d="M29.2 43.1A4 4 0 0 0 32 50a4 4 0 0 0 2.8-6.9 4.1 4.1 0 0 0-5.6 0z" fill="#2e2c2d"></path>
    <path data-name="layer1" d="M49 2H15a3 3 0 0 0-3 3v54a3 3 0 0 0 3 3h34a3 3 0 0 0 3-3V5a3 3 0 0 0-3-3zM32 56a10 10 0 1 1 10-10 10 10 0 0 1-10 10zm14-26H18V8h28z"
    fill="#2e2c2d"></path>
  </symbol>
  <symbol xmlns="http://www.w3.org/2000/svg" viewBox="0 0 64 64" id="ipad-1">
    <title>iPad</title>
    <desc>A solid styled icon from Orion Icon Library.</desc>
    <path data-name="layer1"
    d="M52 2H12a2 2 0 0 0-2 2v56a2 2 0 0 0 2 2h40a2 2 0 0 0 2-2V4a2 2 0 0 0-2-2zM33.4 57.4a2.1 2.1 0 0 1-1.4.6 2 2 0 0 1-1.4-3.4 2.1 2.1 0 0 1 2.8 0 2 2 0 0 1 0 2.8zM50 50H14V8h36z"
    fill="#2e2c2d"></path>
  </symbol>
  <symbol xmlns="http://www.w3.org/2000/svg" viewBox="0 0 64 64" id="tablet-1">
    <title>Tablet</title>
    <desc>A solid styled icon from Orion Icon Library.</desc>
    <rect data-name="layer2"
    x="16" y="11.5" width="8" height="8" rx="2" ry="2" fill="#2e2c2d"></rect>
    <rect data-name="layer2" x="28" y="11.5" width="8" height="8" rx="2"
    ry="2" fill="#2e2c2d"></rect>
    <rect data-name="layer2" x="40" y="11.5" width="8" height="8" rx="2"
    ry="2" fill="#2e2c2d"></rect>
    <rect data-name="layer2" x="16" y="23.5" width="8" height="8" rx="2"
    ry="2" fill="#2e2c2d"></rect>
    <rect data-name="layer2" x="28" y="23.5" width="8" height="8" rx="2"
    ry="2" fill="#2e2c2d"></rect>
    <path data-name="layer1" d="M52 2H12a2 2 0 0 0-2 2v56a2 2 0 0 0 2 2h40a2 2 0 0 0 2-2V4a2 2 0 0 0-2-2zM33.4 57.4a2.1 2.1 0 0 1-1.4.6 2 2 0 0 1-1.4-3.4 2.1 2.1 0 0 1 2.8 0 2 2 0 0 1 0 2.8zM50 50H14V8h36z"
    fill="#2e2c2d"></path>
  </symbol>
  <symbol xmlns="http://www.w3.org/2000/svg" viewBox="0 0 64 64" id="ereader-kindle-1">
    <title>E-reader Kindle</title>
    <desc>A solid styled icon from Orion Icon Library.</desc>
    <path data-name="layer2"
    d="M22 22h20a2 2 0 0 0 0-4H22a2 2 0 0 0 0 4zm0 8h20a2 2 0 0 0 0-4H22a2 2 0 0 0 0 4zm0 8h14a2 2 0 0 0 0-4H22a2 2 0 0 0 0 4z"
    fill="#2e2c2d"></path>
    <path data-name="layer1" d="M54 2H10a2 2 0 0 0-2 2v56a2 2 0 0 0 2 2h44a2 2 0 0 0 2-2V4a2 2 0 0 0-2-2zM20 56h-2a2 2 0 0 1 0-4h2a2 2 0 0 1 0 4zm16 0h-8a2 2 0 0 1 0-4h8a2 2 0 0 1 0 4zm10 0h-2a2 2 0 0 1 0-4h2a2 2 0 0 1 0 4zm4-10H14V10h36z"
    fill="#2e2c2d"></path>
  </symbol>
  <symbol xmlns="http://www.w3.org/2000/svg" viewBox="0 0 64 64" id="ram-memory-1">
    <title>RAM memory</title>
    <desc>A solid styled icon from Orion Icon Library.</desc>
    <path d="M2 15v24h4v10h8.1v-6h4v6H22v-6h4v6h4v-6h4v6h4v-6h4v6h4v-6h4v6h8V39h4V15zm40 8h12v12H42zm-16 0h12v12H26zm-16 0h12v12H10z"
    fill="#2e2c2d" data-name="layer1"></path>
  </symbol>
  <symbol xmlns="http://www.w3.org/2000/svg" viewBox="0 0 64 64" id="memory-sd-card-1">
    <title>Memory SD Card</title>
    <desc>A solid styled icon from Orion Icon Library.</desc>
    <path data-name="layer2"
    fill="#2e2c2d" d="M26 36h12l-6-10-6 10z"></path>
    <path data-name="layer1" d="M42 2H8v14h4v16H8v30h48V16zm4 48a2 2 0 0 1-2 2H20a2 2 0 0 1-2-2V18a2 2 0 0 1 2-2h24a2 2 0 0 1 2 2z"
    fill="#2e2c2d"></path>
  </symbol>
  <symbol xmlns="http://www.w3.org/2000/svg" viewBox="0 0 64 64" id="processor-cpu-1">
    <title>Processor CPU</title>
    <desc>A solid styled icon from Orion Icon Library.</desc>
    <path data-name="layer1"
    d="M62 34a2 2 0 0 0 0-4H52v-6h10a2 2 0 0 0 0-4H52v-6a2 2 0 0 0-2-2h-6V2a2 2 0 1 0-4 0v10h-6V2a2 2 0 1 0-4 0v10h-6V2a2 2 0 1 0-4 0v10h-6a2 2 0 0 0-2 2v6H2a2 2 0 0 0 0 4h10v6H2a2 2 0 0 0 0 4h10v6H2a2 2 0 0 0 0 4h10v6a2 2 0 0 0 2 2h6v10a2 2 0 1 0 4 0V52h6v10a2 2 0 1 0 4 0V52h6v10a2 2 0 1 0 4 0V52h6a2 2 0 0 0 2-2v-6h10a2 2 0 0 0 0-4H52v-6zm-18 8a2 2 0 0 1-2 2H22a2 2 0 0 1-2-2V22a2 2 0 0 1 2-2h20a2 2 0 0 1 2 2z"
    fill="#2e2c2d"></path>
  </symbol>
  <symbol xmlns="http://www.w3.org/2000/svg" viewBox="0 0 64 64" id="low-battery-1">
    <title>Low Battery</title>
    <desc>A solid styled icon from Orion Icon Library.</desc>
    <path data-name="layer1"
    fill="#2e2c2d" d="M62 26h-6v-8H2v28h54v-8h6V26z"></path>
  </symbol>
  <symbol xmlns="http://www.w3.org/2000/svg" viewBox="0 0 64 64" id="low-power-1">
    <title>Low Power</title>
    <desc>A solid styled icon from Orion Icon Library.</desc>
    <path data-name="layer1"
    d="M56 26v-8H2v28h54v-8h6V26zM22 40H10V24h12z" fill="#2e2c2d"></path>
  </symbol>
  <symbol xmlns="http://www.w3.org/2000/svg" viewBox="0 0 64 64" id="half-battery-1">
    <title>Half Battery</title>
    <desc>A solid styled icon from Orion Icon Library.</desc>
    <path data-name="layer1"
    d="M56 26v-8H2v28h54v-8h6V26zM36 40H10V24h26z" fill="#2e2c2d"></path>
  </symbol>
  <symbol xmlns="http://www.w3.org/2000/svg" viewBox="0 0 64 64" id="full-battery-1">
    <title>Full Battery</title>
    <desc>A solid styled icon from Orion Icon Library.</desc>
    <path data-name="layer1"
    d="M56 26v-8H2v28h54v-8h6V26zm-8 14H10V24h38z" fill="#2e2c2d"></path>
  </symbol>
  <symbol xmlns="http://www.w3.org/2000/svg" viewBox="0 0 64 64" id="charging-battery-1">
    <title>Charging Battery</title>
    <desc>A solid styled icon from Orion Icon Library.</desc>
    <path data-name="layer2"
    fill="#2e2c2d" d="M30 16L20 36h10v12l10-20H30V16z"></path>
    <path data-name="layer1" d="M26 40h-6a4 4 0 0 1-3.6-5.8L24.5 18H2v28h24zm30-14v-8H34v6h6a4 4 0 0 1 3.6 5.8L35.5 46H56v-8h6V26z"
    fill="#2e2c2d"></path>
  </symbol>
  <symbol xmlns="http://www.w3.org/2000/svg" viewBox="0 0 64 64" id="empty-battery-1">
    <title>Empty Battery</title>
    <desc>A solid styled icon from Orion Icon Library.</desc>
    <path data-name="layer1"
    d="M47.8 18L60.4 5.4a2 2 0 1 0-2.8-2.8L42.2 18H3v28h11.2L1.6 58.6a2 2 0 1 0 2.8 2.8L19.8 46zm9.2 8v-8h-3.5l-28 28H57v-8h6V26h-6z"
    fill="#2e2c2d"></path>
  </symbol>
  <symbol xmlns="http://www.w3.org/2000/svg" viewBox="0 0 64 64" id="filter-data-1">
    <title>Filter Data</title>
    <desc>A solid styled icon from Orion Icon Library.</desc>
    <path data-name="layer1"
    fill="#2e2c2d" d="M2 6h60L38 32v20l-12 6V32L2 6z"></path>
  </symbol>
  <symbol xmlns="http://www.w3.org/2000/svg" viewBox="0 0 64 64" id="database-1">
    <title>Database</title>
    <desc>A solid styled icon from Orion Icon Library.</desc>
    <ellipse data-name="layer1"
    cx="32" cy="11" rx="26" ry="9" fill="#2e2c2d"></ellipse>
    <path data-name="layer1" d="M6 26c0 2.9 11.3 7 26 7s26-4.1 26-7v-8.1C52.4 22.1 42 24 32 24s-20.4-1.9-26-6.1V26z"
    fill="#2e2c2d"></path>
    <path data-name="layer1" d="M32 47c14.7 0 26-4.1 26-7v-9.6C53.6 34.8 42.8 37 32 37s-21.6-2.2-26-6.6V40c0 2.9 11.3 7 26 7z"
    fill="#2e2c2d"></path>
    <path data-name="layer1" d="M32 51c-10.8 0-21.6-2.3-26-6.6V53c0 5 11.6 9 26 9s26-4 26-9v-8.6C53.6 48.7 42.8 51 32 51z"
    fill="#2e2c2d"></path>
  </symbol>
  <symbol xmlns="http://www.w3.org/2000/svg" viewBox="0 0 64 64" id="add-database-1">
    <title>Add Database</title>
    <desc>A solid styled icon from Orion Icon Library.</desc>
    <path data-name="layer2"
    d="M42 30a16 16 0 1 0 16 16 16 16 0 0 0-16-16zm8 18h-6v6a2 2 0 1 1-4 0v-6h-6a2 2 0 0 1 0-4h6v-6a2 2 0 1 1 4 0v6h6a2 2 0 0 1 0 4z"
    fill="#2e2c2d"></path>
    <ellipse data-name="layer1" cx="29" cy="10" rx="23" ry="8" fill="#2e2c2d"></ellipse>
    <path data-name="layer1" d="M29 29h2.6a19.7 19.7 0 0 1 14.7-2.4C49.9 25.3 52 24 52 23v-6.2C47 20.3 38 22 29 22s-18-1.7-23-5.2V23c0 2 9.4 6 23 6zm-7 17c0-.5 0-.9.1-1.4C15.2 43.9 9 42 6 39.2V46c0 3.8 7.5 6.9 17.6 7.8A19.9 19.9 0 0 1 22 46zm.7-5.3a19.9 19.9 0 0 1 4.1-7.7c-8.6-.3-17.1-2.3-20.8-5.8V35c0 1.7 6.6 4.7 16.7 5.7z"
    fill="#2e2c2d"></path>
  </symbol>
  <symbol xmlns="http://www.w3.org/2000/svg" viewBox="0 0 64 64" id="delete-database-1">
    <title>Delete Database</title>
    <desc>A solid styled icon from Orion Icon Library.</desc>
    <path data-name="layer2"
    d="M42 30a16 16 0 1 0 16 16 16 16 0 0 0-16-16zm8 18H34a2 2 0 0 1 0-4h16a2 2 0 0 1 0 4z"
    fill="#2e2c2d"></path>
    <ellipse data-name="layer1" cx="29" cy="10" rx="23" ry="8" fill="#2e2c2d"></ellipse>
    <path data-name="layer1" d="M29 29h2.6a19.7 19.7 0 0 1 14.7-2.4C49.9 25.3 52 24 52 23v-6.2C47 20.3 38 22 29 22s-18-1.7-23-5.2V23c0 2 9.4 6 23 6zm-7 17c0-.5 0-.9.1-1.4C15.2 43.9 9 42 6 39.2V46c0 3.8 7.5 6.9 17.6 7.8A19.9 19.9 0 0 1 22 46zm.7-5.3a19.9 19.9 0 0 1 4.1-7.7c-8.6-.3-17.1-2.3-20.8-5.8V35c0 1.7 6.6 4.7 16.7 5.7z"
    fill="#2e2c2d"></path>
  </symbol>
  <symbol xmlns="http://www.w3.org/2000/svg" viewBox="0 0 64 64" id="remove-database-1">
    <title>Remove Database</title>
    <desc>A solid styled icon from Orion Icon Library.</desc>
    <path data-name="layer2"
    d="M42 30a16 16 0 1 0 16 16 16 16 0 0 0-16-16zm7.4 20.6a2 2 0 1 1-2.8 2.8L42 48.8l-4.6 4.6a2 2 0 0 1-2.8-2.8l4.6-4.6-4.6-4.6a2 2 0 0 1 2.8-2.8l4.6 4.6 4.6-4.6a2 2 0 0 1 2.8 2.8L44.8 46z"
    fill="#2e2c2d"></path>
    <ellipse data-name="layer1" cx="29" cy="10" rx="23" ry="8" fill="#2e2c2d"></ellipse>
    <path data-name="layer1" d="M29 29h2.6a19.7 19.7 0 0 1 14.7-2.4C49.9 25.3 52 24 52 23v-6.2C47 20.3 38 22 29 22s-18-1.7-23-5.2V23c0 2 9.4 6 23 6zm-7 17c0-.5 0-.9.1-1.4C15.2 43.9 9 42 6 39.2V46c0 3.8 7.5 6.9 17.6 7.8A19.9 19.9 0 0 1 22 46zm.7-5.3a20 20 0 0 1 4.1-7.7c-8.6-.3-17.1-2.3-20.8-5.8V35c0 1.7 6.6 4.7 16.7 5.7z"
    fill="#2e2c2d"></path>
  </symbol>
  <symbol xmlns="http://www.w3.org/2000/svg" viewBox="0 0 64 64" id="disable-database-1">
    <title>Disable Database</title>
    <desc>A solid styled icon from Orion Icon Library.</desc>
    <path data-name="layer1"
    d="M53.7 32.3A18.2 18.2 0 0 0 51 30v-3.8a13.4 13.4 0 0 1-3.2 2.2A17.9 17.9 0 0 0 28.6 32H28c-9.4 0-19-2-23-5.8V34c0 1.8 7.5 5.1 18.8 5.8a17.8 17.8 0 0 0-.7 4c-7.7-.6-14.8-2.5-18.1-5.6V45c0 4 8.6 7.4 19.9 7.9a18 18 0 1 0 28.8-20.6zM29.5 53a13.9 13.9 0 0 1-2.5-8c0-.4 0-.7.1-1.1a14 14 0 0 1 22.3-10.1l-3.5 3.5-5.4 5.4L30.2 53zM41 59a13.9 13.9 0 0 1-8.4-2.8l3.2-3.2 13.7-13.7 2.7-2.7A14 14 0 0 1 41 59z"
    fill="#2e2c2d"></path>
    <ellipse data-name="layer1" cx="28" cy="9" rx="23" ry="8" fill="#2e2c2d"></ellipse>
    <path data-name="layer1" d="M28 28c13.6 0 23-3.9 23-6v-6.2C46 19.3 37 21 28 21s-18-1.7-23-5.2V22c0 2 9.4 6 23 6z"
    fill="#2e2c2d"></path>
  </symbol>
  <symbol xmlns="http://www.w3.org/2000/svg" viewBox="0 0 64 64" id="checked-database-1">
    <title>Checked Database</title>
    <desc>A solid styled icon from Orion Icon Library.</desc>
    <path data-name="layer2"
    d="M42 30a16 16 0 1 0 16 16 16 16 0 0 0-16-16zm8.5 13.3l-9.4 10.6-6.5-6.5a2 2 0 1 1 2.8-2.8l3.5 3.5 6.6-7.4a2 2 0 0 1 3 2.7z"
    fill="#2e2c2d"></path>
    <ellipse data-name="layer1" cx="29" cy="10" rx="23" ry="8" fill="#2e2c2d"></ellipse>
    <path data-name="layer1" d="M29 29h2.6a19.7 19.7 0 0 1 14.7-2.4C49.9 25.3 52 24 52 23v-6.2C47 20.3 38 22 29 22s-18-1.7-23-5.2V23c0 2 9.4 6 23 6zm-7 17c0-.5 0-.9.1-1.4C15.2 43.9 9 42 6 39.2V46c0 3.8 7.5 6.9 17.6 7.8A19.9 19.9 0 0 1 22 46zm.7-5.3a19.9 19.9 0 0 1 4.1-7.7c-8.6-.3-17.1-2.3-20.8-5.8V35c0 1.7 6.6 4.7 16.7 5.7z"
    fill="#2e2c2d"></path>
  </symbol>
  <symbol xmlns="http://www.w3.org/2000/svg" viewBox="0 0 64 64" id="export-database-1">
    <title>Export Database</title>
    <desc>A solid styled icon from Orion Icon Library.</desc>
    <path data-name="layer2"
    d="M42 30a16 16 0 1 0 16 16 16 16 0 0 0-16-16zm7.4 19.4L42 56.8l-7.4-7.4a2 2 0 1 1 2.8-2.8l2.6 2.6V38a2 2 0 0 1 4 0v11.2l2.6-2.6a2 2 0 1 1 2.8 2.8z"
    fill="#2e2c2d"></path>
    <ellipse data-name="layer1" cx="29" cy="10" rx="23" ry="8" fill="#2e2c2d"></ellipse>
    <path data-name="layer1" d="M29 29h2.6a19.7 19.7 0 0 1 14.7-2.4C49.9 25.3 52 24 52 23v-6.2C47 20.3 38 22 29 22s-18-1.7-23-5.2V23c0 2 9.4 6 23 6zm-7 17c0-.5 0-.9.1-1.4C15.2 43.9 9 42 6 39.2V46c0 3.7 7.5 6.9 17.6 7.8A19.9 19.9 0 0 1 22 46zm.7-5.3a19.9 19.9 0 0 1 4.1-7.7c-8.6-.3-17.1-2.3-20.8-5.8V35c0 1.7 6.6 4.7 16.7 5.7z"
    fill="#2e2c2d"></path>
  </symbol>
  <symbol xmlns="http://www.w3.org/2000/svg" viewBox="0 0 64 64" id="import-database-1">
    <title>Import Database</title>
    <desc>A solid styled icon from Orion Icon Library.</desc>
    <path data-name="layer2"
    d="M41.9 30a16 16 0 1 0 16 16 16 16 0 0 0-16-16zm7.4 15.4a2 2 0 0 1-2.8 0l-2.6-2.6V54a2 2 0 0 1-4 0V42.8l-2.6 2.6a2 2 0 1 1-2.8-2.8l7.4-7.4 7.4 7.4a2 2 0 0 1 0 2.8z"
    fill="#2e2c2d"></path>
    <ellipse data-name="layer1" cx="29.1" cy="10" rx="23" ry="8" fill="#2e2c2d"></ellipse>
    <path data-name="layer1" d="M29.1 29h2.6a19.7 19.7 0 0 1 14.7-2.4c3.6-1.2 5.6-2.5 5.6-3.5v-6.3C47 20.4 38 22 29 22s-18-1.7-23-5.2V23c.1 2 9.6 6 23.1 6zm-7 17c0-.5 0-.9.1-1.4-6.9-.7-13-2.6-16.1-5.4V46c0 3.7 7.5 6.9 17.6 7.8a19.9 19.9 0 0 1-1.6-7.8zm.8-5.3a19.9 19.9 0 0 1 4.1-7.8c-8.7-.3-17.2-2.2-20.9-5.8V35c0 1.7 6.7 4.7 16.8 5.7z"
    fill="#2e2c2d"></path>
  </symbol>
  <symbol xmlns="http://www.w3.org/2000/svg" viewBox="0 0 64 64" id="lock-database-1">
    <title>Lock Database</title>
    <desc>A solid styled icon from Orion Icon Library.</desc>
    <path data-name="layer2"
    d="M55.5 44.5v-9a8 8 0 1 0-16 0v9h-5v18h26v-18zm-6 11a2 2 0 1 1-4 0v-4a2 2 0 1 1 4 0zm2-11h-8v-9a4 4 0 1 1 8 0z"
    fill="#2e2c2d"></path>
    <path data-name="layer1" d="M26.5 28.5a63.4 63.4 0 0 0 12.2-1.1 12 12 0 0 1 8.8-3.8h1.3a1.6 1.6 0 0 0 .7-1.1v-6.2c-5 3.6-14 5.2-23 5.2s-18-1.7-23-5.2v6.2c0 2 9.4 6 23 6z"
    fill="#2e2c2d"></path>
    <ellipse data-name="layer1" cx="26.5" cy="9.5" rx="23" ry="8" fill="#2e2c2d"></ellipse>
    <path data-name="layer1" d="M30.5 44.5v-.2h-4c-9.4 0-19-2-23-5.8v6.8c0 4.3 9.8 7.8 22.1 8h4.9zm-4-4a66.2 66.2 0 0 0 9-.6v-4.4a11.9 11.9 0 0 1 .6-3.7 64 64 0 0 1-9.6.7c-9.4 0-19-2-23-5.8v7.8c0 2 9.4 6 23 6z"
    fill="#2e2c2d"></path>
  </symbol>
  <symbol xmlns="http://www.w3.org/2000/svg" viewBox="0 0 64 64" id="edit-database-1">
    <title>Edit Database</title>
    <desc>A solid styled icon from Orion Icon Library.</desc>
    <path data-name="layer2"
    fill="#2e2c2d" d="M55 30L34.3 50.7 29.9 62l11.4-4.3L62 37l-7-7z"></path>
    <ellipse data-name="layer1" cx="25" cy="10" rx="23" ry="8" fill="#2e2c2d"></ellipse>
    <path data-name="layer1" d="M25 29c13.6 0 23-3.9 23-6v-6.2C43 20.4 34 22 25 22S7 20.3 2 16.8V23c0 2 9.4 6 23 6zm5.5 20.3a4 4 0 0 1 .9-1.4l3.7-3.7A63.6 63.6 0 0 1 25 45c-9.4 0-19-2-23-5.8V46c0 4.3 9.8 7.8 22.1 8h4.6z"
    fill="#2e2c2d"></path>
    <path data-name="layer1" d="M25 41a60.1 60.1 0 0 0 15.3-1.8l7.7-7.8v-4.2C43.9 31 34.4 33 25 33S6 31 2 27.2V35c0 2 9.4 6 23 6z"
    fill="#2e2c2d"></path>
  </symbol>
  <symbol xmlns="http://www.w3.org/2000/svg" viewBox="0 0 64 64" id="search-database-1">
    <title>Search Database</title>
    <desc>A solid styled icon from Orion Icon Library.</desc>
    <path data-name="layer2"
    d="M62.4 59.6L54.8 52a12 12 0 1 0-2.8 2.8l7.6 7.6a2 2 0 1 0 2.8-2.8zM37 45a8 8 0 1 1 8 8 8 8 0 0 1-8-8z"
    fill="#2e2c2d"></path>
    <path data-name="layer1" d="M40.5 29.7A15.9 15.9 0 0 1 45 29h2v-3a17.5 17.5 0 0 1-6.5 3.7z"
    fill="#2e2c2d"></path>
    <ellipse data-name="layer1" cx="24" cy="9" rx="23" ry="8" fill="#2e2c2d"></ellipse>
    <path data-name="layer1" d="M29 45c0-.4 0-.8.1-1.3L24 44c-9.4 0-19-2-23-5.8V45c0 4.3 9.8 7.8 22.1 8h8a15.9 15.9 0 0 1-2.1-8zm-5-17c13.6 0 23-3.9 23-6v-6.2C42 19.3 33 21 24 21S6 19.3 1 15.8V22c0 2 9.4 6 23 6z"
    fill="#2e2c2d"></path>
    <path data-name="layer1" d="M24 40l5.9-.3A16.1 16.1 0 0 1 40 29.8 55.7 55.7 0 0 1 24 32c-9.4 0-19-2-23-5.8V34c0 2 9.4 6 23 6z"
    fill="#2e2c2d"></path>
  </symbol>
  <symbol xmlns="http://www.w3.org/2000/svg" viewBox="0 0 64 64" id="settings-database-1">
    <title>Settings Database</title>
    <desc>A solid styled icon from Orion Icon Library.</desc>
    <path data-name="layer2"
    d="M58.6 49.1a11.8 11.8 0 0 0 .2-2.1 11.9 11.9 0 0 0-.2-2.3l3.1-1.7-4-6.9-3.1 1.8a12 12 0 0 0-3.7-2.1V32h-8v3.7a12 12 0 0 0-3.7 2.1L36 36l-4 7 3 1.7a11.7 11.7 0 0 0-.2 2.3 11.9 11.9 0 0 0 .2 2.1L31.7 51l4 6.9 3.3-1.8a12 12 0 0 0 3.8 2.2V62h8v-3.7a12.1 12.1 0 0 0 3.9-2.3l3.3 2 4-7zM46.8 52a5 5 0 1 1 5-5 5 5 0 0 1-5 5z"
    fill="#2e2c2d"></path>
    <ellipse data-name="layer1" cx="25" cy="10" rx="23" ry="8" fill="#2e2c2d"></ellipse>
    <path data-name="layer1" d="M28.2 53a4 4 0 0 1 1.5-5.5l1.1-.6-.8-.5a4 4 0 0 1-1.5-1.6H25c-9.4 0-19-2-23-5.8v7c0 4.3 9.8 7.8 22.1 8h4.6zM25 29c13.6 0 23-3.9 23-6v-6.2C43 20.3 34 22 25 22S7 20.3 2 16.8V23c0 2 9.4 6 23 6zm0 12h3.6l4-7a4 4 0 0 1 2.3-1.8 63.9 63.9 0 0 1-9.9.8c-9.4 0-19-2-23-5.8V35c0 2 9.4 6 23 6z"
    fill="#2e2c2d"></path>
  </symbol>
  <symbol xmlns="http://www.w3.org/2000/svg" viewBox="0 0 64 64" id="error-database-1">
    <title>Error Database</title>
    <desc>A solid styled icon from Orion Icon Library.</desc>
    <path data-name="layer2"
    d="M46 31L30 61h32zm-2 12a2 2 0 1 1 4 0v6a2 2 0 1 1-4 0zm2 14a2 2 0 0 1-1.4-.6 2 2 0 0 1 0-2.8 2.1 2.1 0 0 1 2.8 0 2 2 0 0 1 0 2.8 2 2 0 0 1-1.4.6z"
    fill="#2e2c2d"></path>
    <ellipse data-name="layer1" cx="25" cy="11" rx="23" ry="8" fill="#2e2c2d"></ellipse>
    <path data-name="layer1" d="M25 30c13.6 0 23-3.9 23-6v-6.2C43 21.3 34 23 25 23S7 21.3 2 17.8V24c0 2 9.4 6 23 6zm8.8 15.4a64.9 64.9 0 0 1-8.8.6c-9.4 0-19-2-23-5.8V47c0 4.3 9.8 7.8 22.1 8h4.5z"
    fill="#2e2c2d"></path>
    <path data-name="layer1" d="M25 42a64.4 64.4 0 0 0 11.1-1l4.9-9.2A55.6 55.6 0 0 1 25 34c-9.4 0-19-2-23-5.8V36c0 2 9.4 6 23 6z"
    fill="#2e2c2d"></path>
  </symbol>
  <symbol xmlns="http://www.w3.org/2000/svg" viewBox="0 0 64 64" id="refresh-database-1">
    <title>Refresh Database</title>
    <desc>A solid styled icon from Orion Icon Library.</desc>
    <path data-name="layer2"
    d="M62.4 47a2 2 0 0 0-2.8 0l-1.5 1.5a14.1 14.1 0 0 0-4-10 13.9 13.9 0 0 0-16.4-2.4 2 2 0 1 0 1.9 3.5 9.9 9.9 0 0 1 11.7 1.7 10.1 10.1 0 0 1 2.7 6.9L52.8 47a2 2 0 0 0-2.8 2.8l6.2 6.3 6.2-6.3a2 2 0 0 0 0-2.8zM48.9 57.2a9.9 9.9 0 0 1-11.7-1.7 10.1 10.1 0 0 1-2.9-6.9l1.2 1.2a2 2 0 0 0 2.9-2.8l-6.2-6.3L26 47a2 2 0 0 0 2.8 2.8l1.5-1.5a14.1 14.1 0 0 0 4 10 13.9 13.9 0 0 0 9.9 4.1 13.7 13.7 0 0 0 6.6-1.7 2 2 0 1 0-1.9-3.5z"
    fill="#2e2c2d"></path>
    <ellipse data-name="layer1" cx="24" cy="9.6" rx="23" ry="8" fill="#2e2c2d"></ellipse>
    <path data-name="layer1" d="M24 28.6c13.6 0 23-3.9 23-6v-6.2c-5 3.6-14 5.2-23 5.2S6 19.9 1 16.4v6.2c0 2 9.4 6 23 6z"
    fill="#2e2c2d"></path>
    <path data-name="layer1" d="M24 40.6h2.8l2.6-2.6a4 4 0 0 1 2.8-1.2h.5a6 6 0 0 1 3-4.2 17.8 17.8 0 0 1 8.5-2.2l2.8.3v-3.9c-4 3.8-13.6 5.8-23 5.8s-19-2-23-5.8v7.8c0 2 9.4 6 23 6zm-.8 12.1a6 6 0 0 1-.4-8.1c-9-.2-18-2.1-21.8-5.8v6.8c0 4.3 9.8 7.8 22.1 8h1.2z"
    fill="#2e2c2d"></path>
  </symbol>
  <symbol xmlns="http://www.w3.org/2000/svg" viewBox="0 0 64 64" id="reload-database-1">
    <title>Reload Database</title>
    <desc>A solid styled icon from Orion Icon Library.</desc>
    <path data-name="layer2"
    d="M61.4 46.5a2 2 0 0 0-2.8 0l-1.3 1.3a13.7 13.7 0 1 0-13.6 14.1 2 2 0 0 0 0-4 10 10 0 1 1 9.7-10l-1.5-1.5a2 2 0 1 0-2.9 2.9l6.2 6.3 6.2-6.3a2 2 0 0 0 0-2.8z"
    fill="#2e2c2d"></path>
    <ellipse data-name="layer1" cx="25" cy="10.1" rx="23" ry="8" fill="#2e2c2d"></ellipse>
    <path data-name="layer1" d="M43.7 29.9a17.2 17.2 0 0 1 4.3.6v-3.2a14.7 14.7 0 0 1-4.3 2.6zM26 47.9a18.3 18.3 0 0 1 .3-2.9H25c-9.4 0-19-2-23-5.8V46c0 4.3 9.8 7.8 22.1 8H27a18.2 18.2 0 0 1-1-6.1zM25 41h2.4a18 18 0 0 1 7.5-8.7 63.8 63.8 0 0 1-9.9.8c-9.4 0-19-2-23-5.8v7.8c0 2 9.4 5.9 23 5.9zm0-11.9c13.6 0 23-3.9 23-6v-6.2c-5 3.6-14 5.2-23 5.2S7 20.4 2 16.9v6.2c0 2 9.4 6 23 6z"
    fill="#2e2c2d"></path>
  </symbol>
  <symbol xmlns="http://www.w3.org/2000/svg" viewBox="0 0 64 64" id="schedule-database-1">
    <title>Schedule Database</title>
    <desc>A solid styled icon from Orion Icon Library.</desc>
    <path data-name="layer2"
    d="M42 29.9a16 16 0 1 0 16 16 16 16 0 0 0-16-16zm8 20H40v-12a2 2 0 0 1 4 0v8h6a2 2 0 0 1 0 4z"
    fill="#2e2c2d"></path>
    <ellipse data-name="layer1" cx="29" cy="10.1" rx="23" ry="8" fill="#2e2c2d"></ellipse>
    <path data-name="layer1" d="M29 29.1h2.3a19.7 19.7 0 0 1 15.3-2.5C50 25.3 52 24 52 23.1v-6.2c-5 3.6-14 5.2-23 5.2s-18-1.7-23-5.2v6.2c0 2 9.4 6 23 6zm-7 16.8c0-.4 0-.8.1-1.2C15.2 43.9 9 42.1 6 39.2V46c0 3.8 7.5 6.9 17.7 7.8a19.9 19.9 0 0 1-1.7-7.9zm.7-5.2a19.9 19.9 0 0 1 4-7.7c-8.7-.3-17-2.2-20.7-5.8V35c0 1.8 6.6 4.8 16.7 5.7z"
    fill="#2e2c2d"></path>
  </symbol>
  <symbol xmlns="http://www.w3.org/2000/svg" viewBox="0 0 64 64" id="data-storage-1">
    <title>Data Storage</title>
    <desc>A solid styled icon from Orion Icon Library.</desc>
    <ellipse data-name="layer1"
    cx="32" cy="9" rx="22" ry="8" fill="#2e2c2d"></ellipse>
    <path data-name="layer1" d="M10 25.3V31c0 2.4 10 6 22 6s22-3.6 22-6v-5.7C50.1 29 41 31 32 31s-18.1-2-22-5.7z"
    fill="#2e2c2d"></path>
    <path data-name="layer1" d="M10 15.8V21c0 2.4 10 6 22 6s22-3.6 22-6v-5.2C49.1 19.3 40.3 21 32 21s-17.1-1.7-22-5.2zm0 19.5V39c0 4.4 9.8 8 22 8s22-3.6 22-8v-3.7C50.1 39 41 41 32 41s-18.1-2-22-5.7zM30 59H20v4h24v-4H34V47h-4v12zm-18 0h4v4h-4zm-8 0h4v4H4zm44 0h4v4h-4zm8 0h4v4h-4z"
    fill="#2e2c2d"></path>
  </symbol>
  <symbol xmlns="http://www.w3.org/2000/svg" viewBox="0 0 64 64" id="repository-1">
    <title>Repository</title>
    <desc>A solid styled icon from Orion Icon Library.</desc>
    <path data-name="layer1"
    d="M2 15v12h60V15zm9 9a3 3 0 1 1 3-3 3 3 0 0 1-3 3zm43-1H34a2 2 0 0 1 0-4h20a2 2 0 0 1 0 4zm2.5-20A2.9 2.9 0 0 0 54 1H10a3 3 0 0 0-2.6 2l-3.7 8h56.6zM2 43a2 2 0 0 0 2 2h26v14H20v4h24v-4H34V45h26a2 2 0 0 0 2-2V31H2zm32-8h20a2 2 0 0 1 0 4H34a2 2 0 0 1 0-4zm-23-1a3 3 0 1 1-3 3 3 3 0 0 1 3-3zm1 25h4v4h-4zm-8 0h4v4H4zm44 0h4v4h-4zm8 0h4v4h-4z"
    fill="#2e2c2d"></path>
  </symbol>
  <symbol xmlns="http://www.w3.org/2000/svg" viewBox="0 0 64 64" id="server-1">
    <title>Server</title>
    <desc>A solid styled icon from Orion Icon Library.</desc>
    <path data-name="layer1"
    d="M2 60a2 2 0 0 0 2 2h56a2 2 0 0 0 2-2V48H2zm32-8h20a2 2 0 0 1 0 4H34a2 2 0 0 1 0-4zm-23-1a3 3 0 1 1-3 3 3 3 0 0 1 3-3zM56.5 4A2.9 2.9 0 0 0 54 2H10a3 3 0 0 0-2.6 2l-3.7 8h56.6zM2 44h60V32H2zm32-8h20a2 2 0 0 1 0 4H34a2 2 0 0 1 0-4zm-23-1a3 3 0 1 1-3 3 3 3 0 0 1 3-3zM2 16v12h60V16zm9 9a3 3 0 1 1 3-3 3 3 0 0 1-3 3zm43-1H34a2 2 0 0 1 0-4h20a2 2 0 0 1 0 4z"
    fill="#2e2c2d"></path>
  </symbol>
  <symbol xmlns="http://www.w3.org/2000/svg" viewBox="0 0 64 64" id="add-server-1">
    <title>Add Server</title>
    <desc>A solid styled icon from Orion Icon Library.</desc>
    <path data-name="layer2"
    d="M46 30a16 16 0 1 0 16 16 16 16 0 0 0-16-16zm8 18h-6v6a2 2 0 1 1-4 0v-6h-6a2 2 0 0 1 0-4h6v-6a2 2 0 1 1 4 0v6h6a2 2 0 0 1 0 4z"
    fill="#2e2c2d"></path>
    <path data-name="layer1" d="M26 46a19.9 19.9 0 0 1 2.7-10H2v12a2 2 0 0 0 2 2h22.4a20 20 0 0 1-.4-4zm-15-1a3 3 0 1 1 3-3 3 3 0 0 1-3 3zm26.3-17H30a2 2 0 0 1 0-4h16a2 2 0 0 1 2 2 19.8 19.8 0 0 1 6 1.6V20H2v12h29.7a20.1 20.1 0 0 1 5.6-4zM11 29a3 3 0 1 1 3-3 3 3 0 0 1-3 3zM54 4a2 2 0 0 0-2-2H4a2 2 0 0 0-2 2v12h52zm-43 9a3 3 0 1 1 3-3 3 3 0 0 1-3 3zm35-1H30a2 2 0 0 1 0-4h16a2 2 0 0 1 0 4z"
    fill="#2e2c2d"></path>
  </symbol>
  <symbol xmlns="http://www.w3.org/2000/svg" viewBox="0 0 64 64" id="delete-server-1">
    <title>Delete Server</title>
    <desc>A solid styled icon from Orion Icon Library.</desc>
    <path data-name="layer2"
    d="M46 30a16 16 0 1 0 16 16 16 16 0 0 0-16-16zm8 18H38a2 2 0 0 1 0-4h16a2 2 0 0 1 0 4z"
    fill="#2e2c2d"></path>
    <path data-name="layer1" d="M37.3 28H30a2 2 0 0 1 0-4h16a2 2 0 0 1 2 2 19.8 19.8 0 0 1 6 1.6V20H2v12h29.7a20.1 20.1 0 0 1 5.6-4zM11 29a3 3 0 1 1 3-3 3 3 0 0 1-3 3zm15 17a19.9 19.9 0 0 1 2.7-10H2v12a2 2 0 0 0 2 2h22.4a20 20 0 0 1-.4-4zm-15-1a3 3 0 1 1 3-3 3 3 0 0 1-3 3zM54 4a2 2 0 0 0-2-2H4a2 2 0 0 0-2 2v12h52zm-43 9a3 3 0 1 1 3-3 3 3 0 0 1-3 3zm35-1H30a2 2 0 0 1 0-4h16a2 2 0 0 1 0 4z"
    fill="#2e2c2d"></path>
  </symbol>
  <symbol xmlns="http://www.w3.org/2000/svg" viewBox="0 0 64 64" id="remove-server-1">
    <title>Remove Server</title>
    <desc>A solid styled icon from Orion Icon Library.</desc>
    <path data-name="layer2"
    d="M46 30a16 16 0 1 0 16 16 16 16 0 0 0-16-16zm7.4 20.6a2 2 0 1 1-2.8 2.8L46 48.8l-4.6 4.6a2 2 0 1 1-2.8-2.8l4.6-4.6-4.6-4.6a2 2 0 1 1 2.8-2.8l4.6 4.6 4.6-4.6a2 2 0 0 1 2.8 2.8L48.8 46z"
    fill="#2e2c2d"></path>
    <path data-name="layer1" d="M37.3 28H30a2 2 0 0 1 0-4h16a2 2 0 0 1 2 2 19.8 19.8 0 0 1 6 1.6V20H2v12h29.7a20 20 0 0 1 5.6-4zM11 29a3 3 0 1 1 3-3 3 3 0 0 1-3 3zm15 17a19.8 19.8 0 0 1 2.7-10H2v12a2 2 0 0 0 2 2h22.4a20 20 0 0 1-.4-4zm-15-1a3 3 0 1 1 3-3 3 3 0 0 1-3 3zM54 4a2 2 0 0 0-2-2H4a2 2 0 0 0-2 2v12h52zm-43 9a3 3 0 1 1 3-3 3 3 0 0 1-3 3zm35-1H30a2 2 0 0 1 0-4h16a2 2 0 0 1 0 4z"
    fill="#2e2c2d"></path>
  </symbol>
  <symbol xmlns="http://www.w3.org/2000/svg" viewBox="0 0 64 64" id="disable-server-1">
    <title>Disable Server</title>
    <desc>A solid styled icon from Orion Icon Library.</desc>
    <path data-name="layer1"
    d="M57.8 33.3h-.1a18.1 18.1 0 0 0-4.7-3.4V20H1v12h32.7a18.1 18.1 0 0 0-3.7 4H1v12a2 2 0 0 0 2 2h24.5a18 18 0 1 0 30.3-16.7zM10 29a3 3 0 1 1 3-3 3 3 0 0 1-3 3zm19-1a2 2 0 0 1 0-4h16a2 2 0 0 1 0 4zm-1.1 12.3a17.7 17.7 0 0 0-.7 2.7 2 2 0 0 1-.3-1 2 2 0 0 1 1-1.7zM10 45a3 3 0 1 1 3-3 3 3 0 0 1-3 3zm21.6 5a13.7 13.7 0 0 1-.6-4 14.1 14.1 0 0 1 .2-2 13.8 13.8 0 0 1 1.2-4 13.9 13.9 0 0 1 21-5.2L52.2 36l-5.3 5.3-2.7 2.7-6 6-4.4 4.4a14 14 0 0 1-2.2-4.4zM45 60a13.9 13.9 0 0 1-8.4-2.8l7.2-7.2 9.2-9.2 3.2-3.2A14 14 0 0 1 45 60zm8-56a2 2 0 0 0-2-2H3a2 2 0 0 0-2 2v12h52zm-43 9a3 3 0 1 1 3-3 3 3 0 0 1-3 3zm35-1H29a2 2 0 0 1 0-4h16a2 2 0 0 1 0 4z"
    fill="#2e2c2d"></path>
  </symbol>
  <symbol xmlns="http://www.w3.org/2000/svg" viewBox="0 0 64 64" id="checked-server-1">
    <title>Checked Server</title>
    <desc>A solid styled icon from Orion Icon Library.</desc>
    <path data-name="layer2"
    d="M37.3 28H30a2 2 0 0 1 0-4h16a2 2 0 0 1 2 2 19.8 19.8 0 0 1 6 1.6V20H2v12h29.7a20 20 0 0 1 5.6-4zM11 29a3 3 0 1 1 3-3 3 3 0 0 1-3 3zm15 17a19.8 19.8 0 0 1 2.7-10H2v12a2 2 0 0 0 2 2h22.4a20 20 0 0 1-.4-4zm-15-1a3 3 0 1 1 3-3 3 3 0 0 1-3 3zM54 4a2 2 0 0 0-2-2H4a2 2 0 0 0-2 2v12h52zm-43 9a3 3 0 1 1 3-3 3 3 0 0 1-3 3zm35-1H30a2 2 0 0 1 0-4h16a2 2 0 0 1 0 4z"
    fill="#2e2c2d"></path>
    <path data-name="layer1" d="M46 30a16 16 0 1 0 16 16 16 16 0 0 0-16-16zm8.5 13.3l-9.4 10.6-6.5-6.5a2 2 0 1 1 2.8-2.8l3.5 3.5 6.6-7.4a2 2 0 0 1 3 2.7z"
    fill="#2e2c2d"></path>
  </symbol>
  <symbol xmlns="http://www.w3.org/2000/svg" viewBox="0 0 64 64" id="export-server-1">
    <title>Export Server</title>
    <desc>A solid styled icon from Orion Icon Library.</desc>
    <path data-name="layer2"
    d="M37.3 28H30a2 2 0 0 1 0-4h16a2 2 0 0 1 2 2 19.8 19.8 0 0 1 6 1.6V20H2v12h29.7a20 20 0 0 1 5.6-4zM11 29a3 3 0 1 1 3-3 3 3 0 0 1-3 3zm15 17a19.8 19.8 0 0 1 2.7-10H2v12a2 2 0 0 0 2 2h22.4a20 20 0 0 1-.4-4zm-15-1a3 3 0 1 1 3-3 3 3 0 0 1-3 3zM54 4a2 2 0 0 0-2-2H4a2 2 0 0 0-2 2v12h52zm-43 9a3 3 0 1 1 3-3 3 3 0 0 1-3 3zm35-1H30a2 2 0 0 1 0-4h16a2 2 0 0 1 0 4z"
    fill="#2e2c2d"></path>
    <path data-name="layer1" d="M46 30a16 16 0 1 0 16 16 16 16 0 0 0-16-16zm7.4 19.4L46 56.8l-7.4-7.4a2 2 0 0 1 2.8-2.8l2.6 2.6V38a2 2 0 1 1 4 0v11.2l2.6-2.6a2 2 0 1 1 2.8 2.8z"
    fill="#2e2c2d"></path>
  </symbol>
  <symbol xmlns="http://www.w3.org/2000/svg" viewBox="0 0 64 64" id="import-server-1">
    <title>Import Server</title>
    <desc>A solid styled icon from Orion Icon Library.</desc>
    <path data-name="layer2"
    d="M37.3 28H30a2 2 0 0 1 0-4h16a2 2 0 0 1 2 2 19.8 19.8 0 0 1 6 1.6V20H2v12h29.7a20 20 0 0 1 5.6-4zM11 29a3 3 0 1 1 3-3 3 3 0 0 1-3 3zm15 17a19.8 19.8 0 0 1 2.7-10H2v12a2 2 0 0 0 2 2h22.4a20 20 0 0 1-.4-4zm-15-1a3 3 0 1 1 3-3 3 3 0 0 1-3 3zM54 4a2 2 0 0 0-2-2H4a2 2 0 0 0-2 2v12h52zm-43 9a3 3 0 1 1 3-3 3 3 0 0 1-3 3zm35-1H30a2 2 0 0 1 0-4h16a2 2 0 0 1 0 4z"
    fill="#2e2c2d"></path>
    <path data-name="layer1" d="M46 30a16 16 0 1 0 16 16 16 16 0 0 0-16-16zm7.4 15.4a2 2 0 0 1-2.8 0L48 42.8V54a2 2 0 0 1-4 0V42.8l-2.6 2.6a2 2 0 1 1-2.8-2.8l7.4-7.4 7.4 7.4a2 2 0 0 1 0 2.8z"
    fill="#2e2c2d"></path>
  </symbol>
  <symbol xmlns="http://www.w3.org/2000/svg" viewBox="0 0 64 64" id="lock-server-1">
    <title>Lock Server</title>
    <desc>A solid styled icon from Orion Icon Library.</desc>
    <path data-name="layer2"
    d="M57.5 41v-9a8 8 0 0 0-16 0v9h-5v18h26V41zm-6 11a2 2 0 0 1-4 0v-4a2 2 0 0 1 4 0zm2-11h-8v-9a4 4 0 0 1 8 0z"
    fill="#2e2c2d"></path>
    <path data-name="layer1" d="M53.5 4a2 2 0 0 0-2-2h-48a2 2 0 0 0-2 2v12h52zm-43 9a3 3 0 1 1 3-3 3 3 0 0 1-3 3zm35-1h-16a2 2 0 0 1 0-4h16a2 2 0 0 1 0 4zm-13 32h-3a2 2 0 0 1 0-4h3v-3h5v-1h-36v12a2 2 0 0 0 2 2h29zm-22 1a3 3 0 1 1 3-3 3 3 0 0 1-3 3zm27.7-17h-8.7a2 2 0 0 1 0-4h11.1a12 12 0 0 1 8.9-4h-48v12h36a11.9 11.9 0 0 1 .7-4zm-27.7 1a3 3 0 1 1 3-3 3 3 0 0 1-3 3zm43-9h-4a11.9 11.9 0 0 1 4 .7z"
    fill="#2e2c2d"></path>
  </symbol>
  <symbol xmlns="http://www.w3.org/2000/svg" viewBox="0 0 64 64" id="edit-server-1">
    <title>Edit Server</title>
    <desc>A solid styled icon from Orion Icon Library.</desc>
    <path data-name="layer2"
    fill="#2e2c2d" d="M55 28L34.3 48.7 29.9 60l11.4-4.3L62 35l-7-7z"></path>
    <path data-name="layer1" d="M54 4a2 2 0 0 0-2-2H4a2 2 0 0 0-2 2v12h52zm-43 9a3 3 0 1 1 3-3 3 3 0 0 1-3 3zm35-1H30a2 2 0 0 1 0-4h16a2 2 0 0 1 0 4zm6.2 13.2a4 4 0 0 1 1.8-1V20H2v12h43.3zM11 29a3 3 0 1 1 3-3 3 3 0 0 1-3 3zm17-3a2 2 0 0 1 2-2h16a2 2 0 0 1 0 4H30a2 2 0 0 1-2-2zm2.5 21.3a4 4 0 0 1 .9-1.4l1.9-1.9H30a2 2 0 0 1 0-4h7.4l4-4H2v12a2 2 0 0 0 2 2h25.5zM11 45a3 3 0 1 1 3-3 3 3 0 0 1-3 3z"
    fill="#2e2c2d"></path>
  </symbol>
  <symbol xmlns="http://www.w3.org/2000/svg" viewBox="0 0 64 64" id="search-server-1">
    <title>Search Server</title>
    <desc>A solid styled icon from Orion Icon Library.</desc>
    <path data-name="layer2"
    d="M62.4 58.6L54.8 51a12 12 0 1 0-2.8 2.8l7.6 7.6a2 2 0 0 0 2.8-2.8zM37 44a8 8 0 1 1 8 8 8 8 0 0 1-8-8z"
    fill="#2e2c2d"></path>
    <path data-name="layer1" d="M45 28a15.9 15.9 0 0 1 8 2.2V20H1v12h33.5A15.9 15.9 0 0 1 45 28zm-35 1a3 3 0 1 1 3-3 3 3 0 0 1-3 3zm17-3a2 2 0 0 1 2-2h16a2 2 0 0 1 0 4H29a2 2 0 0 1-2-2zm2 18a2 2 0 0 1 0-4h.5a15.9 15.9 0 0 1 1.6-4H1v12a2 2 0 0 0 2 2h27.2a15.9 15.9 0 0 1-1.2-6zm-19 1a3 3 0 1 1 3-3 3 3 0 0 1-3 3zM53 4a2 2 0 0 0-2-2H3a2 2 0 0 0-2 2v12h52zm-43 9a3 3 0 1 1 3-3 3 3 0 0 1-3 3zm35-1H29a2 2 0 0 1 0-4h16a2 2 0 0 1 0 4z"
    fill="#2e2c2d"></path>
  </symbol>
  <symbol viewBox="0 0 64 64" xmlns="http://www.w3.org/2000/svg" id="settings-server-1">
    <title>Settings Server</title>
    <desc>A solid styled icon from Orion Icon Library.</desc>
    <path fill="#2e2c2d"
    d="M58.614 49.088a11.8 11.8 0 0 0 .188-2.082 11.92 11.92 0 0 0-.223-2.254l3.086-1.781-4-6.93-3.133 1.809a12.01 12.01 0 0 0-3.73-2.145v-3.7h-8v3.7a12 12 0 0 0-3.7 2.117l-3.082-1.781-4 6.93 3.012 1.738a11.748 11.748 0 0 0-.23 2.3 11.91 11.91 0 0 0 .2 2.125l-3.312 1.91 4 6.93 3.281-1.895a12.01 12.01 0 0 0 3.829 2.232v3.7h8v-3.7a12.1 12.1 0 0 0 3.871-2.262L58 57.971l4-6.93zm-11.771 2.918a5 5 0 1 1 5-5 5 5 0 0 1-5 5z"
    data-name="layer2"></path>
    <path fill="#2e2c2d" d="M28.938 40.311L31.426 36H2v12a2 2 0 0 0 2 2h23.823a4 4 0 0 1 1.863-2.424l1.115-.643v-.046l-.781-.451a4.21 4.21 0 0 1-1.864-2.43 4.892 4.892 0 0 1 .782-3.695zM11 45a3 3 0 1 1 3-3 3 3 0 0 1-3 3zm31.8-16.994h8a3.981 3.981 0 0 1 3.2 1.619V20H2v12h36.8a4 4 0 0 1 4-3.994zM11 29a3 3 0 1 1 3-3 3 3 0 0 1-3 3zm17-3a2 2 0 0 1 2-2h16a2 2 0 0 1 0 4H30a2 2 0 0 1-2-2zM54 4a2 2 0 0 0-2-2H4a2 2 0 0 0-2 2v12h52zm-43 9a3 3 0 1 1 3-3 3 3 0 0 1-3 3zm35-1H30a2 2 0 0 1 0-4h16a2 2 0 0 1 0 4z"
    data-name="layer1"></path>
  </symbol>
  <symbol xmlns="http://www.w3.org/2000/svg" viewBox="0 0 64 64" id="error-server-1">
    <title>Error Server</title>
    <desc>A solid styled icon from Orion Icon Library.</desc>
    <path data-name="layer2"
    d="M46 32L30 62h32zm-2 12a2 2 0 1 1 4 0v6a2 2 0 1 1-4 0zm2 14a2 2 0 0 1-2-2 2 2 0 0 1 .6-1.4 2.1 2.1 0 0 1 2.8 0 2 2 0 0 1 0 2.8 2 2 0 0 1-1.4.6z"
    fill="#2e2c2d"></path>
    <path data-name="layer1" d="M31.9 50l3.2-6H30a2 2 0 0 1 0-4h7.2l2.1-4H2v12a2 2 0 0 0 2 2h27.9zM11 45a3 3 0 1 1 3-3 3 3 0 0 1-3 3zM54 4a2 2 0 0 0-2-2H4a2 2 0 0 0-2 2v12h52zm-43 9a3 3 0 1 1 3-3 3 3 0 0 1-3 3zm35-1H30a2 2 0 0 1 0-4h16a2 2 0 0 1 0 4zm-3.5 18.1a4 4 0 0 1 7.1 0l1 1.9H54V20H2v12h39.5zM11 29a3 3 0 1 1 3-3 3 3 0 0 1-3 3zm17-3a2 2 0 0 1 2-2h16a2 2 0 0 1 0 4H30a2 2 0 0 1-2-2z"
    fill="#2e2c2d"></path>
  </symbol>
  <symbol xmlns="http://www.w3.org/2000/svg" viewBox="0 0 64 64" id="refresh-server-1">
    <title>Refresh Server</title>
    <desc>A solid styled icon from Orion Icon Library.</desc>
    <path data-name="layer2"
    d="M62.4 44.6a2 2 0 0 0-2.8 0L58 46.1a14.1 14.1 0 0 0-4-10 13.9 13.9 0 0 0-16.4-2.4 2 2 0 1 0 1.9 3.5 9.9 9.9 0 0 1 11.7 1.7 10.1 10.1 0 0 1 2.8 6.9l-1.2-1.2a2 2 0 0 0-2.8 2.8l6.2 6.3 6.2-6.3a2 2 0 0 0 0-2.8zM48.9 54.8a9.9 9.9 0 0 1-11.7-1.7 10.1 10.1 0 0 1-2.9-6.9l1.2 1.2a2 2 0 0 0 2.8-2.8l-6.2-6.3-6.1 6.3a2 2 0 0 0 2.8 2.8l1.5-1.5a14.1 14.1 0 0 0 4 10 13.9 13.9 0 0 0 9.9 4.1 13.7 13.7 0 0 0 6.6-1.7 2 2 0 1 0-1.9-3.5z"
    fill="#2e2c2d"></path>
    <path data-name="layer1" d="M53 4a2 2 0 0 0-2-2H3a2 2 0 0 0-2 2v12h52zm-43 9a3 3 0 1 1 3-3 3 3 0 0 1-3 3zm35-1H29a2 2 0 0 1 0-4h16a2 2 0 0 1 0 4zM21.2 46a6 6 0 0 1 1.7-4.3l5.8-5.7H1v12a2 2 0 0 0 2 2h19.7a6 6 0 0 1-1.5-4zM10 45a3 3 0 1 1 3-3 3 3 0 0 1-3 3zm25.5-14.8A17.8 17.8 0 0 1 44 28a18 18 0 0 1 9 2.5V20H1v12h32.4a5.9 5.9 0 0 1 2.1-1.8zM10 29a3 3 0 1 1 3-3 3 3 0 0 1-3 3zm17-3a2 2 0 0 1 2-2h16a2 2 0 0 1 0 4H29a2 2 0 0 1-2-2z"
    fill="#2e2c2d"></path>
  </symbol>
  <symbol xmlns="http://www.w3.org/2000/svg" viewBox="0 0 64 64" id="reload-server-1">
    <title>Reload Server</title>
    <desc>A solid styled icon from Orion Icon Library.</desc>
    <path data-name="layer2"
    d="M62.4 44.6a2 2 0 0 0-2.8 0l-1.3 1.3A13.7 13.7 0 1 0 44.6 60a2 2 0 0 0 0-4 10 10 0 1 1 9.7-10l-1.5-1.5a2 2 0 0 0-2.8 2.9l6.2 6.3 6.2-6.3a2 2 0 0 0 0-2.8z"
    fill="#2e2c2d"></path>
    <path data-name="layer1" d="M53 4a2 2 0 0 0-2-2H3a2 2 0 0 0-2 2v12h52zm-43 9a3 3 0 1 1 3-3 3 3 0 0 1-3 3zm35-1H29a2 2 0 0 1 0-4h16a2 2 0 0 1 0 4zM27 46a18.2 18.2 0 0 1 .3-3.1 2 2 0 0 1-.3-.9 2 2 0 0 1 .8-1.6A18.1 18.1 0 0 1 30 36H1v12a2 2 0 0 0 2 2h24.4a18.2 18.2 0 0 1-.4-4zm-17-1a3 3 0 1 1 3-3 3 3 0 0 1-3 3zm41.1-1zm-6.8-16H29a2 2 0 0 1 0-4h16a2 2 0 0 1 0 4 17.2 17.2 0 0 1 8 2.2V20H1v12h32.5a17.4 17.4 0 0 1 10.8-4zM10 29a3 3 0 1 1 3-3 3 3 0 0 1-3 3z"
    fill="#2e2c2d"></path>
  </symbol>
  <symbol xmlns="http://www.w3.org/2000/svg" viewBox="0 0 64 64" id="schedule-server-1">
    <title>Schedule Server</title>
    <desc>A solid styled icon from Orion Icon Library.</desc>
    <path data-name="layer2"
    d="M46 30a16 16 0 1 0 16 16 16 16 0 0 0-16-16zm8 20H44V38a2 2 0 1 1 4 0v8h6a2 2 0 0 1 0 4z"
    fill="#2e2c2d"></path>
    <path data-name="layer1" d="M54 4a2 2 0 0 0-2-2H4a2 2 0 0 0-2 2v12h52zm-43 9a3 3 0 1 1 3-3 3 3 0 0 1-3 3zm35-1H30a2 2 0 0 1 0-4h16a2 2 0 0 1 0 4zM26 46a19.9 19.9 0 0 1 2.7-10H2v12a2 2 0 0 0 2 2h22.4a20 20 0 0 1-.4-4zm-15-1a3 3 0 1 1 3-3 3 3 0 0 1-3 3zm26.3-17H30a2 2 0 0 1 0-4h16a2 2 0 0 1 2 2 19.8 19.8 0 0 1 6 1.6V20H2v12h29.7a20.1 20.1 0 0 1 5.6-4zM11 29a3 3 0 1 1 3-3 3 3 0 0 1-3 3z"
    fill="#2e2c2d"></path>
  </symbol>
  <symbol xmlns="http://www.w3.org/2000/svg" viewBox="0 0 64 64" id="usb-logo-1">
    <title>USB Logo</title>
    <desc>A solid styled icon from Orion Icon Library.</desc>
    <path data-name="layer1"
    d="M48.981 16h-10v10h3v4.485a1.984 1.984 0 0 1-1.283 1.902c-1.207.644-4.35 2.216-6.717 3.39V7.83l3.106 3.105a2 2 0 1 0 2.828-2.828L31.981.171l-7.933 7.935a2 2 0 1 0 2.828 2.828l3.105-3.105v31.948c-2.365-1.174-5.51-2.746-6.716-3.39a1.985 1.985 0 0 1-1.284-1.902v-4.889a5.009 5.009 0 1 0-4-.04v4.929a5.993 5.993 0 0 0 3.4 5.431c1.62.865 6.41 3.242 8.6 4.326v6.053a7 7 0 1 0 4 0V40.242c2.192-1.084 6.98-3.461 8.6-4.326a5.993 5.993 0 0 0 3.4-5.431V26h3z"
    fill="#2e2c2d"></path>
  </symbol>
  <symbol xmlns="http://www.w3.org/2000/svg" viewBox="0 0 64 64" id="bluetooth-1">
    <title>Bluetooth</title>
    <desc>A solid styled icon from Orion Icon Library.</desc>
    <path data-name="layer1"
    d="M50.673 19.278L33.396 2h-3.723v22.616l-12.052-11.53-4.243 4.312 15.306 14.845-15.357 14.844 4.302 4.311L29.673 39.87V62h4.208l16.792-16.793-13.397-12.964zm-15-6.793l6.723 6.722-6.723 6.506zm6.723 32.793L35.673 52V38.772z"
    fill="#2e2c2d"></path>
  </symbol>
  <symbol xmlns="http://www.w3.org/2000/svg" viewBox="0 0 64 64" id="wifi-1">
    <title>Wifi</title>
    <desc>A solid styled icon from Orion Icon Library.</desc>
    <path data-name="layer2"
    d="M32 46.766a6.08 6.08 0 0 0-4.481 1.976 1 1 0 0 0 .024 1.375l3.743 3.817a1 1 0 0 0 1.427 0l3.744-3.817a1 1 0 0 0 .024-1.375A6.085 6.085 0 0 0 32 46.766zm-13.573-6.915l3.951 4.515a14.616 14.616 0 0 1 19.243 0l3.952-4.515a20.616 20.616 0 0 0-27.146 0z"
    fill="#2e2c2d"></path>
    <path data-name="layer1" d="M10.168 30.407l3.954 4.514a27.162 27.162 0 0 1 35.759.002l3.952-4.515a33.163 33.163 0 0 0-43.665-.001z"
    fill="#2e2c2d"></path>
    <path data-name="layer1" d="M32 9.766A45.566 45.566 0 0 0 1.98 21.041l3.951 4.515a39.603 39.603 0 0 1 52.136-.001l3.951-4.516A45.567 45.567 0 0 0 32 9.766z"
    fill="#2e2c2d"></path>
  </symbol>
</svg>