<svg width="0" height="0" class="hidden">
  <symbol xmlns="http://www.w3.org/2000/svg" viewBox="0 0 64 64" id="time-1">
    <title>Time</title>
    <desc>A solid styled icon from Orion Icon Library.</desc>
    <path data-name="layer1"
    d="M32 0a32 32 0 1 0 32 32A32 32 0 0 0 32 0zm13.663 41.253a1.5 1.5 0 0 1-2.05.544L30 33.9V9.5a1.5 1.5 0 0 1 3 0v22.669L45.119 39.2a1.5 1.5 0 0 1 .544 2.053z"
    fill="#2e2c2d"></path>
  </symbol>
  <symbol xmlns="http://www.w3.org/2000/svg" viewBox="0 0 64 64" id="clock-1">
    <title>Clock</title>
    <desc>A solid styled icon from Orion Icon Library.</desc>
    <path data-name="layer2"
    d="M32 0a32 32 0 1 0 32 32A32 32 0 0 0 32 0zm0 59a27 27 0 1 1 27-27 27.031 27.031 0 0 1-27 27z"
    fill="#2e2c2d"></path>
    <path data-name="layer1" d="M32 7a25 25 0 1 0 25 25A25.028 25.028 0 0 0 32 7zm11.453 33.8a1.5 1.5 0 0 1-2.058.515L30 34.483V15.5a1.5 1.5 0 0 1 3 0v17.285l9.938 5.962a1.5 1.5 0 0 1 .515 2.053z"
    fill="#2e2c2d"></path>
  </symbol>
  <symbol xmlns="http://www.w3.org/2000/svg" viewBox="0 0 64 64" id="timekeeping-1">
    <title>Timekeeping</title>
    <desc>A solid styled icon from Orion Icon Library.</desc>
    <path data-name="layer1"
    d="M32 0a32 32 0 1 0 32 32A32 32 0 0 0 32 0zm2.536 35.492a4.839 4.839 0 0 1-.668.275c-.111.035-.219.076-.333.1-.093.023-.189.038-.284.055a4.459 4.459 0 0 1-5.167-5.244c.018-.095.044-.186.068-.278a4.455 4.455 0 0 1 .149-.479c.043-.112.087-.223.138-.33s.119-.227.183-.337.141-.25.225-.365l.018-.022a4.546 4.546 0 0 1 1.483-1.3l.049-.027a4.538 4.538 0 0 1 .6-.269 4.221 4.221 0 0 1 3 0 4.538 4.538 0 0 1 .6.269l.049.027a4.546 4.546 0 0 1 1.483 1.3l.018.022c.084.116.152.242.225.365s.128.221.183.337.1.218.138.33a4.455 4.455 0 0 1 .149.479c.024.092.05.183.068.278a4.348 4.348 0 0 1-.286 2.6 4.5 4.5 0 0 1-2.088 2.214zM32.5 6A1.5 1.5 0 0 1 34 7.5v17.682a6.284 6.284 0 0 0-3 0V7.5A1.5 1.5 0 0 1 32.5 6zm15.257 36.319a1.5 1.5 0 0 1-2.076.438L36.386 36.7a6.533 6.533 0 0 0 1.934-2.321l9 5.866a1.5 1.5 0 0 1 .437 2.074z"
    fill="#2e2c2d"></path>
  </symbol>
  <symbol xmlns="http://www.w3.org/2000/svg" viewBox="0 0 64 64" id="wall-clock-1">
    <title>Wall Clock</title>
    <desc>A solid styled icon from Orion Icon Library.</desc>
    <path data-name="layer1"
    d="M32 0a32 32 0 1 0 32 32A32 32 0 0 0 32 0zm-1 5.333a1 1 0 1 1 2 0v5.333a1 1 0 1 1-2 0zM10.667 33H5.333a1 1 0 1 1 0-2h5.334a1 1 0 1 1 0 2zM33 58.667a1 1 0 0 1-2 0v-5.334a1 1 0 0 1 2 0zm17.127-40.54L37.544 30.711a6 6 0 1 1-11.309.644l-6.918-5.661a1.5 1.5 0 0 1 1.9-2.322l6.562 5.369a5.977 5.977 0 0 1 7.936-.444l12.291-12.291a1.5 1.5 0 0 1 2.121 2.121zM58.667 33h-5.334a1 1 0 0 1 0-2h5.334a1 1 0 0 1 0 2z"
    fill="#2e2c2d"></path>
    <circle data-name="layer1" cx="32" cy="33" r="3" fill="#2e2c2d"></circle>
  </symbol>
  <symbol xmlns="http://www.w3.org/2000/svg" viewBox="0 0 64 64" id="alarm-clock-1">
    <title>Alarm Clock</title>
    <desc>A solid styled icon from Orion Icon Library.</desc>
    <path data-name="layer2"
    d="M22 1.035A16.287 16.287 0 0 0 1.035 22zm20 0A16.287 16.287 0 0 1 62.965 22zM11.318 53.854l-6.732 6.732a2 2 0 1 0 2.828 2.828l6.8-6.8a28.255 28.255 0 0 1-2.896-2.76zm41.364 0a28.255 28.255 0 0 1-2.9 2.758l6.8 6.8a2 2 0 0 0 2.828-2.828z"
    fill="#2e2c2d"></path>
    <path data-name="layer1" d="M32 9a26 26 0 1 0 26 26A26 26 0 0 0 32 9zm10.5 29H30V17.5a1.5 1.5 0 0 1 3 0V35h9.5a1.5 1.5 0 0 1 0 3z"
    fill="#2e2c2d"></path>
  </symbol>
  <symbol xmlns="http://www.w3.org/2000/svg" viewBox="0 0 64 64" id="alarm-sound-1">
    <title>Alarm Sound</title>
    <desc>A solid styled icon from Orion Icon Library.</desc>
    <path data-name="layer2"
    d="M32 17a15 15 0 1 0 15 15 15 15 0 0 0-15-15zm4.561 20.561a1.5 1.5 0 0 1-2.121 0L30 33.121V24.5a1.5 1.5 0 0 1 3 0v7.379l3.561 3.561a1.5 1.5 0 0 1 0 2.121z"
    fill="#2e2c2d"></path>
    <path data-name="layer1" d="M54.5 34a1.5 1.5 0 0 1-1.5-1.5 21.99 21.99 0 0 0-8.624-16.845 1.5 1.5 0 1 1 1.813-2.391A24.748 24.748 0 0 1 56 32.5a1.5 1.5 0 0 1-1.5 1.5zm-45 0A1.5 1.5 0 0 1 8 32.5a24.748 24.748 0 0 1 9.807-19.231 1.5 1.5 0 0 1 1.813 2.391A21.99 21.99 0 0 0 11 32.5 1.5 1.5 0 0 1 9.5 34zm53 0a1.5 1.5 0 0 1-1.5-1.5A30 30 0 0 0 50.037 9.933a1.5 1.5 0 0 1 1.9-2.322A33.074 33.074 0 0 1 64 32.5a1.5 1.5 0 0 1-1.5 1.5zm-61 0A1.5 1.5 0 0 1 0 32.5 33.09 33.09 0 0 1 11.962 7.693a1.5 1.5 0 0 1 1.909 2.314A30.018 30.018 0 0 0 3 32.5 1.5 1.5 0 0 1 1.5 34z"
    fill="#2e2c2d"></path>
  </symbol>
  <symbol xmlns="http://www.w3.org/2000/svg" viewBox="0 0 64 64" id="timing-1">
    <title>Timing</title>
    <desc>A solid styled icon from Orion Icon Library.</desc>
    <path data-name="layer1"
    d="M32 0a32 32 0 1 0 32 32A32 32 0 0 0 32 0zm13.481 46.006L29.836 35.337c-.062-.039-.121-.081-.18-.123l-.178-.121.018-.009A4.045 4.045 0 0 1 28 30.975l3.843-22.689a.262.262 0 0 1 .519 0l3.917 23.572 9.567 13.786a.26.26 0 0 1-.365.362z"
    fill="#2e2c2d"></path>
  </symbol>
  <symbol xmlns="http://www.w3.org/2000/svg" viewBox="0 0 64 64" id="hour-1">
    <title>Hour</title>
    <desc>A solid styled icon from Orion Icon Library.</desc>
    <circle data-name="layer2"
    cx="32" cy="33.067" r="2.133" fill="#2e2c2d"></circle>
    <path data-name="layer1" d="M54.467 32a1 1 0 0 1 1-1h8.508A31.829 31.829 0 0 0 60.2 16.872l-4.608 2.661a1 1 0 1 1-1-1.732l4.6-2.659A32.157 32.157 0 0 0 48.857 4.8L46.2 9.406a1 1 0 1 1-1.732-1L47.127 3.8A31.828 31.828 0 0 0 33 .025v8.508a1 1 0 0 1-2 0V.025A31.829 31.829 0 0 0 16.872 3.8l2.661 4.608a1 1 0 0 1-1.732 1L15.143 4.8A32.159 32.159 0 0 0 4.8 15.142l4.6 2.659a1 1 0 0 1-1 1.732l-4.6-2.661A31.829 31.829 0 0 0 .025 31h8.508a1 1 0 0 1 0 2H.025A31.829 31.829 0 0 0 3.8 47.128l4.608-2.661a1 1 0 1 1 1 1.732L4.8 48.858A32.158 32.158 0 0 0 15.142 59.2l2.658-4.6a1 1 0 1 1 1.732 1l-2.66 4.6A31.828 31.828 0 0 0 31 63.975v-8.508a1 1 0 0 1 2 0v8.508A31.828 31.828 0 0 0 47.128 60.2l-2.661-4.608a1 1 0 1 1 1.732-1l2.658 4.6A32.158 32.158 0 0 0 59.2 48.858l-4.6-2.659a1 1 0 1 1 1-1.732l4.6 2.661A31.829 31.829 0 0 0 63.975 33h-8.508a1 1 0 0 1-1-1zm-7.54-11.733L36.05 31.14a4.449 4.449 0 0 1 .45 1.927 4.5 4.5 0 0 1-9 0 4.456 4.456 0 0 1 .3-1.591l-7.339-5.706a1.5 1.5 0 1 1 1.879-2.34l7.414 5.76a4.352 4.352 0 0 1 4.175-.172l10.877-10.872a1.5 1.5 0 0 1 2.121 2.121z"
    fill="#2e2c2d"></path>
    <circle data-name="layer1" cx="32" cy="33.066" r="1.5" fill="#2e2c2d"></circle>
  </symbol>
  <symbol xmlns="http://www.w3.org/2000/svg" viewBox="0 0 64 64" id="appointment-1">
    <title>Appointment</title>
    <desc>A solid styled icon from Orion Icon Library.</desc>
    <path data-name="layer1"
    d="M56.6 32a1 1 0 0 1 1-1h6.375A31.988 31.988 0 0 0 33 .025V6.4a1 1 0 0 1-2 0V.025A31.988 31.988 0 0 0 .025 31H6.4a1 1 0 0 1 0 2H.025A31.988 31.988 0 0 0 31 63.975V57.6a1 1 0 0 1 2 0v6.375A31.988 31.988 0 0 0 63.975 33H57.6a1 1 0 0 1-1-1zm-6.473-11.739L32.1 38.287 19.316 27.828a1.5 1.5 0 1 1 1.9-2.322l10.684 8.74L48.006 18.14a1.5 1.5 0 0 1 2.121 2.121z"
    fill="#2e2c2d"></path>
  </symbol>
  <symbol viewBox="0 0 64 64" xmlns="http://www.w3.org/2000/svg" id="sand-clock-1">
    <title>Sand Clock</title>
    <desc>A solid styled icon from Orion Icon Library.</desc>
    <path fill="#2e2c2d"
    d="M48 60v-5c-4 0-9.943-5.646-12.992-8.016a5.114 5.114 0 0 0-6.024.016C25.959 49.392 20 55 16 55v5zM32 37c.422 0 2.083-3.854 4.52-5.462l5.526-3.881a13.953 13.953 0 0 0 2.118-1.857c-9.5 3.83-16.091-3-24.081.2l-.041.009a13.944 13.944 0 0 0 1.911 1.651s4.142 2.915 5.526 3.881C30.021 33.313 31.234 37 32 37z"
    data-name="layer1"></path>
    <path fill="#2e2c2d" d="M24.776 23.114a31.456 31.456 0 0 1 6.7.953 30.71 30.71 0 0 0 6.5.931 14.283 14.283 0 0 0 5.441-1.057l2.95-1.19A13.987 13.987 0 0 0 48 16.2V4H16v12.2a13.985 13.985 0 0 0 2.588 8.087l.9-.207a14.361 14.361 0 0 1 5.288-.966zm17.271 13.942l-5.3-3.666s-.629.538-.75.688a17.465 17.465 0 0 0-2 3.359A2.109 2.109 0 0 1 32 39a2.249 2.249 0 0 1-2.013-1.477 13.259 13.259 0 0 0-2.278-3.231c-.229-.219-.729-.771-.729-.771l-5.026 3.535A14 14 0 0 0 16 48.513V53c2.625 0 7.252-3.851 10.016-6.152a90.624 90.624 0 0 1 1.728-1.417 7.109 7.109 0 0 1 8.492-.026c.569.442 1.23.99 1.93 1.57C40.884 49.229 45.435 53 48 53v-4.487a14 14 0 0 0-5.953-11.457z"
    data-name="layer2"></path>
    <path fill="#2e2c2d" d="M51 64H13a1 1 0 0 1 0-2h38a1 1 0 0 1 0 2zm0-62H13a1 1 0 0 1 0-2h38a1 1 0 0 1 0 2z"
    data-name="layer1"></path>
  </symbol>
  <symbol xmlns="http://www.w3.org/2000/svg" viewBox="0 0 64 64" id="stopwatch-1">
    <title>Stopwatch</title>
    <desc>A solid styled icon from Orion Icon Library.</desc>
    <circle data-name="layer2"
    cx="32.5" cy="35.281" r="2" fill="#2e2c2d"></circle>
    <path data-name="layer2" d="M32.915 8a28 28 0 1 0 28 28 28 28 0 0 0-28-28zM34 40.026v5.823a1.5 1.5 0 1 1-3 0v-5.823a4.966 4.966 0 0 1 0-9.489V13.506a1.5 1.5 0 0 1 3 0v17.03a4.966 4.966 0 0 1 0 9.489z"
    fill="#2e2c2d"></path>
    <path data-name="layer1" d="M36 6.158V1.09a1.048 1.048 0 0 0-1-1.084h-6a1.048 1.048 0 0 0-1 1.084v5.319a29.9 29.9 0 0 1 8-.252zm18.385 8.918l1.934-1.934 1.8 1.8a1 1 0 0 0 1.414 0l2.5-2.5a1 1 0 0 0 0-1.414L55.612 4.6a1 1 0 0 0-1.414 0l-2.5 2.5a1 1 0 0 0 0 1.414l1.8 1.8L51.4 12.4a30.257 30.257 0 0 1 2.985 2.676z"
    fill="#2e2c2d"></path>
  </symbol>
  <symbol xmlns="http://www.w3.org/2000/svg" viewBox="0 0 64 64" id="time-limit-1">
    <title>Time Limit</title>
    <desc>A solid styled icon from Orion Icon Library.</desc>
    <circle data-name="layer1"
    cx="31.494" cy="32" r="1.5" fill="#2e2c2d"></circle>
    <path data-name="layer1" d="M32 0a32 32 0 1 0 32 32A32 32 0 0 0 32 0zm-.09 56a24 24 0 1 1 18.067-39.781l-.018-6.24a1 1 0 0 1 1-1A1.059 1.059 0 0 1 52 10v10H42a1.027 1.027 0 0 1-1.015-1.018 1 1 0 0 1 1-1h6.88A22 22 0 1 0 31.91 54a1 1 0 0 1 0 2zm3.084-24a3.458 3.458 0 0 1-.359 1.514l7.337 6.253a1.5 1.5 0 1 1-1.945 2.283l-7.785-6.635a3.491 3.491 0 0 1-2.248-6.564V15.027a1.5 1.5 0 0 1 1.5-1.5A1.482 1.482 0 0 1 33 15v14a3.276 3.276 0 0 1 1.994 3zm8.459 21.046a23.88 23.88 0 0 1-6.211 2.36 1.03 1.03 0 0 1-.223.024 1 1 0 0 1-.221-1.976 21.825 21.825 0 0 0 5.691-2.161 1 1 0 0 1 .963 1.752zm7.791-6.824a24.092 24.092 0 0 1-4.187 4.4 1 1 0 1 1-1.264-1.551 22.148 22.148 0 0 0 3.841-4.03 1 1 0 1 1 1.609 1.186zm2.186-3.585a1 1 0 0 1-.9.556.988.988 0 0 1-.443-.1 1 1 0 0 1-.451-1.34 21.883 21.883 0 0 0 1.287-3.219 1 1 0 1 1 1.91.592 23.823 23.823 0 0 1-1.403 3.511z"
    fill="#2e2c2d"></path>
  </symbol>
  <symbol xmlns="http://www.w3.org/2000/svg" viewBox="0 0 64 64" id="deadline-1">
    <title>Deadline</title>
    <desc>A solid styled icon from Orion Icon Library.</desc>
    <path data-name="layer1"
    d="M32 0a32 32 0 1 0 32 32A32 32 0 0 0 32 0zM19.462 20.293a1.008 1.008 0 0 1 1.245 0l13.918 10.082A3.739 3.739 0 1 1 30 36.254a3.916 3.916 0 0 1-.629-.629L19.293 21.707a1.007 1.007 0 0 1 .169-1.414zM32 57a25 25 0 0 1-17.678-42.678 1 1 0 0 1 1.414 1.414A23 23 0 1 0 33 9.021V18.4a1 1 0 0 1-2 0V7h1a25 25 0 0 1 0 50z"
    fill="#2e2c2d"></path>
  </symbol>
  <symbol xmlns="http://www.w3.org/2000/svg" viewBox="0 0 64 64" id="watch-1">
    <title>Watch</title>
    <desc>A solid styled icon from Orion Icon Library.</desc>
    <path data-name="layer2"
    d="M32 11a21 21 0 1 0 21 21 21 21 0 0 0-21-21zm12.065 14.056L32.108 37.133l-9.1-8.007a1.5 1.5 0 1 1 1.982-2.252l6.975 6.138 9.969-10.067a1.5 1.5 0 1 1 2.131 2.111z"
    fill="#2e2c2d"></path>
    <path data-name="layer1" d="M47.778 15.288L43.446 1.427A2.033 2.033 0 0 0 41.505 0h-19a2.052 2.052 0 0 0-1.955 1.44l-4.328 13.848a22.938 22.938 0 0 1 31.555 0zM16.241 48.73l4.3 13.776a2.071 2.071 0 0 0 1.976 1.453H41.5a2.041 2.041 0 0 0 1.948-1.432l4.311-13.8a22.938 22.938 0 0 1-31.518 0zM57 28h-2.355a22.687 22.687 0 0 1 0 8H57a1 1 0 0 0 1-1v-6a1 1 0 0 0-1-1z"
    fill="#2e2c2d"></path>
  </symbol>
  <symbol viewBox="0 0 64 64" xmlns="http://www.w3.org/2000/svg" id="hourglass-1">
    <title>Hourglass</title>
    <desc>A solid styled icon from Orion Icon Library.</desc>
    <path fill="#2e2c2d"
    d="M50 59H14a1 1 0 0 0-1 1v3a1 1 0 0 0 1 1h36a1 1 0 0 0 1-1v-3a1 1 0 0 0-1-1zM14 5h36a1 1 0 0 0 1-1V1a1 1 0 0 0-1-1H14a1 1 0 0 0-1 1v3a1 1 0 0 0 1 1z"
    data-name="layer2"></path>
    <path fill="#2e2c2d" d="M44.974 26.394A15 15 0 0 0 49 16.2V7h-2v9.2a13 13 0 0 1-3.392 8.735c-4.6 1.788-8.535.937-12.345.109-3.484-.759-7.081-1.537-10.956-.2A13.006 13.006 0 0 1 17 16.2V7h-2v9.2a15.018 15.018 0 0 0 6.378 12.274l5.522 3.882-5.526 3.882A15.018 15.018 0 0 0 15 48.513V57h34v-8.487a15.018 15.018 0 0 0-6.378-12.274l-5.61-3.939a60.694 60.694 0 0 0 7.962-5.906zm-3.5 11.481A13.013 13.013 0 0 1 47 48.513v5.355c-2.889-.671-6.79-3.9-9.473-6.122a82.472 82.472 0 0 0-1.906-1.552 6.1 6.1 0 0 0-7.257.021c-.5.394-1.075.873-1.709 1.4-2.731 2.276-6.708 5.585-9.655 6.254v-5.356a13.013 13.013 0 0 1 5.528-10.638l5.525-3.882c.022-.015.037-.037.059-.053a6.612 6.612 0 0 1 2.765 3.126C31.1 37.5 31.354 38 32 38c.705 0 .935-.584 1.072-.934a6.853 6.853 0 0 1 2.534-3.379 1.992 1.992 0 0 0 .339.306z"
    data-name="layer1"></path>
  </symbol>
</svg>