<svg viewBox="0 0 64 64" xmlns="http://www.w3.org/2000/svg"><g fill="#2e2c2d"><circle cx="16" cy="45" r="4"/><circle cx="48" cy="45" r="4"/><path d="m48 37h-7.5c-1.9 1.7-5.1 4-8.5 4s-6.7-2.3-8.5-4h-7.5a8 8 0 0 1 7.4 5.1 10.5 10.5 0 0 0 1.4 2.9 8.5 8.5 0 0 0 14.4 0 10.5 10.5 0 0 0 1.4-2.9 8 8 0 0 1 7.4-5.1zm-7 2.8v-.8c0-.3 0 .5-.1.8zm-38-2.8c-1.5 0-.9 1.6-.9 1.6s3.4 2.4 6.4 3.5a8 8 0 0 1 7.5-5.1zm58 0h-13a8 8 0 0 1 7.4 5.1c3-1 5.5-2.3 6.4-3.5s.7-1.6-.8-1.6zm-29 0c2.7 0 5.9-2.9 7.1-4.2a8.9 8.9 0 0 0 -5.1-3.5v-12.3a2 2 0 0 0 -4 0v12.3a9 9 0 0 0 -5.1 3.6c1.2 1.2 4.4 4.1 7.1 4.1z"/></g></svg>