<svg viewBox="0 0 64 64" xmlns="http://www.w3.org/2000/svg"><g fill="#2e2c2d"><path d="m36.438 2.251a24.5 24.5 0 0 1 8.844 9.15 16.893 16.893 0 0 1 5.2-3.1 29.849 29.849 0 0 0 -14.044-6.05zm17.483 9.201a12.762 12.762 0 0 0 -6.728 3.7 26.632 26.632 0 0 1 11.887 3.848 30.017 30.017 0 0 0 -5.159-7.548zm-8.378 13.334a36.273 36.273 0 0 0 -1.358-5.807c-.942-.018-1.9-.01-2.892.047-14.048.8-30.716 9.342-35.919 26.713a30.01 30.01 0 0 0 23.419 16.01c12.727-3.625 18.94-21.949 16.75-36.963z"/><path d="m61.541 27.6c-1.806-4.38-6.634-7.285-13.048-8.269a41.808 41.808 0 0 1 1.007 4.877c1.95 13.373-2.078 29.2-11.641 37.137a30.006 30.006 0 0 0 24.141-29.422 15.459 15.459 0 0 0 -.459-4.323zm-20.476-12.568c.518-.032 1.024-.032 1.535-.049-2.9-6.047-8.432-12.2-18.933-11.871v-.012a30 30 0 0 0 -20.433 37.34c6.98-16.412 23.566-24.591 37.831-25.408z"/></g></svg>