<svg viewBox="0 0 64 64" xmlns="http://www.w3.org/2000/svg"><g fill="#2e2c2d"><path d="m63.9 2.4a2 2 0 0 0 -2.5-1.3l-60 18a2 2 0 0 0 .6 3.9h.6l27.4-8.3v8.3h4v-9.5l28.6-8.6a2 2 0 0 0 1.3-2.5zm-24.3 50.6a.4.4 0 0 0 .4-.4v-29.6h-6v30zm-15.6-.4a.4.4 0 0 0 .4.4h5.6v-30h-6z"/><path d="m51.7 29a8.5 8.5 0 0 0 -7.7-6v29.6a4.4 4.4 0 0 1 -4.4 4.4h-15.2a4.4 4.4 0 0 1 -4.4-4.4v-29.5a8.5 8.5 0 0 0 -7.6 5.9l-3.3 8.7a14.5 14.5 0 0 0 0 10.6l3.3 8.7c1.3 3.6 3.3 6 8.7 6h21.9c5.4 0 7.4-2.4 8.7-6l3.3-8.7a14.5 14.5 0 0 0 0-10.6z"/></g></svg>