<svg viewBox="0 0 64 64" xmlns="http://www.w3.org/2000/svg"><g fill="#2e2c2d"><path d="m48.827 38h13.173v-4h-9.174z"/><path d="m5.998 26.002-3.998 3.998h10.83l7.998 8h22.344l7.998-8h10.83l-3.998-3.998z"/><path d="m11.174 34h-9.174v4h13.172z"/><path d="m62 20h-9.333l-6.667-10h-28l-6.667 10h-9.333a2 2 0 0 0 0 4h6.7l1.348-2h43.945l1.337 2h6.67a2 2 0 1 0 0-4zm-60 22v3a2.992 2.992 0 0 0 1.986 2.812v4.188a2 2 0 0 0 2 2h8a2 2 0 0 0 2-2v-4h32.014v4a2 2 0 0 0 2 2h8a2 2 0 0 0 2-2v-4.184a2.992 2.992 0 0 0 2-2.816v-3z"/></g></svg>