<svg viewBox="0 0 64 64" xmlns="http://www.w3.org/2000/svg"><g fill="#2e2c2d"><circle cx="33" cy="5.001" r="4"/><path d="m11 37.001h44v-3.992c0-2.608.326-4.805-2-5.633v-6.377h-40v6.377c-2.326.828-2 3.025-2 5.633zm32-10.998a3 3 0 1 1 -3 3 3.001 3.001 0 0 1 3-3zm-20 0a3 3 0 1 1 -3 3 3.001 3.001 0 0 1 3-3zm30-17.996a3 3 0 0 0 -3-3h-9a8 8 0 0 1 -16 0h-9a3 3 0 0 0 -3 3v8.992h40zm4.012 51.267-7.348-4.312a6 6 0 0 0 5.336-5.961v-8h-44.016v8a6 6 0 0 0 5.349 5.963l-7.344 4.31a2 2 0 0 0 2.023 3.452l13.165-7.726h17.646l13.165 7.725a2 2 0 0 0 2.024-3.452z"/></g></svg>