<svg viewBox="0 0 64 64" xmlns="http://www.w3.org/2000/svg"><g fill="#2e2c2d"><path d="m4 23.4a2 2 0 0 0 1.6-.8l10.3 1.5a18 18 0 0 1 8.1-8.2l-1.5-10.3a2 2 0 0 0 -1.2-3.6h-7.8a11.5 11.5 0 0 0 -11.5 11.5v7.9a2 2 0 0 0 2 2zm9.5-17.4h3.6a30.1 30.1 0 0 0 -11.1 11.1v-3.6a7.5 7.5 0 0 1 7.5-7.5zm46.5 34.6a2 2 0 0 0 -1.7.9l-10.2-1.5a18 18 0 0 1 -8.2 8.1l1.5 10.3a2 2 0 0 0 1.3 3.6h7.8a11.5 11.5 0 0 0 11.5-11.5v-7.9a2 2 0 0 0 -2-2zm-9.5 17.4h-3.6a30.1 30.1 0 0 0 11.1-11v3.5a7.5 7.5 0 0 1 -7.5 7.5z"/><path d="m61.4 37.9a30.1 30.1 0 0 0 0-11.7l-11.9 1.7a17.5 17.5 0 0 1 0 8.3z"/><path d="m48.1 24 10.3-1.4a2 2 0 0 0 3.6-1.2v-7.9a11.5 11.5 0 0 0 -11.5-11.5h-7.8a2 2 0 0 0 -1.1 3.6l-1.6 10.3a18 18 0 0 1 8.1 8.1zm9.9-10.5v3.6a30.1 30.1 0 0 0 -11.1-11.1h3.6a7.5 7.5 0 0 1 7.5 7.5z"/><path d="m26.1 2.6 1.7 11.9a17.4 17.4 0 0 1 8.4 0l1.7-11.9a30.1 30.1 0 0 0 -11.8 0zm5.9 47.4a18 18 0 0 1 -4.1-.5l-1.7 11.9a30.1 30.1 0 0 0 11.6 0l-1.7-11.9a18 18 0 0 1 -4.1.5z"/><path d="m15.9 40-10.2 1.6a2 2 0 0 0 -3.7 1v7.9a11.5 11.5 0 0 0 11.5 11.5h7.8a2 2 0 0 0 1.3-3.5l1.5-10.3a18 18 0 0 1 -8.2-8.2zm-9.9 10.5v-3.6a30.1 30.1 0 0 0 11.1 11.1h-3.6a7.5 7.5 0 0 1 -7.5-7.5z"/><path d="m2.6 26.1a30.2 30.2 0 0 0 0 11.9l11.9-1.8a17.5 17.5 0 0 1 0-8.2z"/></g></svg>