<svg viewBox="0 0 64 64" xmlns="http://www.w3.org/2000/svg"><g fill="#2e2c2d"><circle cx="32" cy="18.5" r="5"/><path d="m32 31.5a2 2 0 0 0 -2 2v28a2 2 0 1 0 4 0v-28a2 2 0 0 0 -2-2z"/><path d="m54 6.5h-8a9.9 9.9 0 0 0 -6 1.9 8 8 0 0 0 -16 0 9.9 9.9 0 0 0 -6-1.9h-8a2 2 0 0 0 0 4h8a5.9 5.9 0 0 1 3.1.8 6 6 0 0 0 .3 10.7h.8a7.9 7.9 0 0 0 -2.2 5.5v16a8 8 0 0 0 6 7.7v-17.7a6 6 0 1 1 12 0v17.8a8 8 0 0 0 6-7.7v-16a7.9 7.9 0 0 0 -2.3-5.6h.9a6 6 0 0 0 .3-10.7 5.9 5.9 0 0 1 3.1-.8h8a2 2 0 0 0 0-4zm-22 21a9 9 0 0 1 -8.4-5.7v-.3l-.2-.5a8.9 8.9 0 0 1 -.4-2.5 9 9 0 1 1 17.6 2.5l-.2.5v.3a9 9 0 0 1 -8.4 5.7z"/></g></svg>