<svg viewBox="0 0 64 64" xmlns="http://www.w3.org/2000/svg"><g fill="#2e2c2d"><path d="m63 19c0-4.5-2.6-8-6-8s-6 3.5-6 8 1.6 6.5 4 7.6v24.4a2 2 0 1 0 4 0v-24.4c2.4-1.1 4-4.1 4-7.6zm-52-6a2 2 0 0 0 -4 0v6a2 2 0 0 1 -2 2v-8a2 2 0 1 0 -4 0v38a2 2 0 0 0 4 0v-26a6 6 0 0 0 6-6z"/><path d="m30 15a19 19 0 1 0 19 19 19 19 0 0 0 -19-19zm8.3 28.9a13 13 0 0 1 -21.2-8.7 2 2 0 0 1 4-.4 9 9 0 0 0 14.7 6 2 2 0 1 1 2.6 3.1zm2.7-8a2 2 0 0 1 -2-2 9 9 0 0 0 -16-5.7 2 2 0 0 1 -3.1-2.5 13 13 0 0 1 23.1 8.2 2 2 0 0 1 -2 2z"/></g></svg>