<svg viewBox="0 0 64 64" xmlns="http://www.w3.org/2000/svg"><g fill="#2e2c2d"><path d="m8.9 38.1a4 4 0 0 1 -5.7 0 4 4 0 0 1 0-5.7l7.1-7.1a4 4 0 0 1 5.7 0 4 4 0 0 1 0 5.7zm11.3 11.3a4 4 0 0 1 -5.7 0 4 4 0 0 1 0-5.7l7.1-7.1a4 4 0 0 1 5.7 0 4 4 0 0 1 0 5.7zm11.3 11.4a4 4 0 0 1 -5.7 0 4 4 0 0 1 0-5.7l7.1-7.1a4 4 0 0 1 5.7 0 4 4 0 0 1 0 5.7z"/><path d="m30.1 45.2a7.9 7.9 0 0 1 5.7-2.3l2.1.3 20.6-20.7a12 12 0 0 0 -17-17l-20.6 20.7a8 8 0 0 1 .3 2.1 7.9 7.9 0 0 1 -2.3 5.6 8 8 0 0 1 11.2 11.3m18.4-24a4 4 0 1 1 0-5.7 4 4 0 0 1 0 5.7z"/></g></svg>