<svg viewBox="0 0 64 64" xmlns="http://www.w3.org/2000/svg"><g fill="#2e2c2d"><circle cx="32.029" cy="10.992" r="3"/><path d="m56 8h-8c-.947 0-2.305-1.18-3.741-2.43-2.702-2.35-6.403-5.57-12.259-5.57-5.89 0-9.638 3.246-12.373 5.617-1.416 1.227-2.753 2.383-3.627 2.383h-8a2 2 0 1 0 0 4h8a5.487 5.487 0 0 0 2.166-.475c3.455 2.518 9.834 7.559 9.834 10.475h-4a6.002 6.002 0 0 0 -6 6v13.002a12 12 0 0 0 12 12v8.998a2 2 0 0 0 4 0v-8.998a12 12 0 0 0 12-12v-13.002a6.002 6.002 0 0 0 -6-6h-4c0-3.158 6.295-8.037 9.766-10.486a5.694 5.694 0 0 0 2.234.486h8a2 2 0 1 0 0-4zm-22 24a2 2 0 0 1 -4 0v-10h4zm-1.97-14.008a7 7 0 1 1 7-7 7.009 7.009 0 0 1 -7 7z"/></g></svg>