<svg viewBox="0 0 64 64" xmlns="http://www.w3.org/2000/svg"><g style="stroke-width:3;stroke-miterlimit:10;stroke:#2e2c2d;fill:none;stroke-linejoin:round;stroke-linecap:round"><path d="m40 58s12 0 12-14h4.4a3.6 3.6 0 0 0 3.6-3.6v-10.8a3.6 3.6 0 0 0 -3.6-3.6h-4.4v-4c0-11.045-7.955-20-19-20h-2c-11.047 0-19 8.955-19 20v4h-4.4a3.6 3.6 0 0 0 -3.6 3.6v10.8a3.6 3.6 0 0 0 3.6 3.6h2.4"/><path d="m40 58a4 4 0 0 0 -4-4h-4a4 4 0 0 0 -4 4 4 4 0 0 0 4 4h4a4 4 0 0 0 4-4z"/><path d="m40 24-6 14h14m-4-6v12m-26-18.45a6 6 0 0 1 8.637 8.277l-8.637 10.173h12"/></g></svg>