<svg viewBox="0 0 64 64" xmlns="http://www.w3.org/2000/svg"><g style="stroke-width:3;stroke-miterlimit:10;stroke:#2e2c2d;fill:none;stroke-linejoin:round;stroke-linecap:round"><path d="m48.455 42.519c.656.449 1.723 1.058 1.52 2.462a7.167 7.167 0 0 1 -6.756 5.019c-4.492 0-10-3.542-14.84-8.379s-8.379-10.348-8.379-14.84a7.167 7.167 0 0 1 5.02-6.755c1.4-.2 2.012.863 2.461 1.52s3.008 4.6 3.4 5.2a2.416 2.416 0 0 1 -.639 3.266c-1.451 1.175-2.871 1.626 2.623 7.119s5.943 4.075 7.119 2.623a2.417 2.417 0 0 1 3.266-.639c.609.398 4.55 2.954 5.205 3.404z"/><path d="m4 20h8m-8 10h8m-8 10h8m-8 10h8m42-38v-10h-40.967a5.017 5.017 0 0 0 -5.033 5 5.017 5.017 0 0 0 5.033 5h44.967v50h-45a5 5 0 0 1 -5-5v-50a5 5 0 0 1 5-5"/></g></svg>