<svg viewBox="0 0 64 64" xmlns="http://www.w3.org/2000/svg"><g style="fill:none;stroke:#2e2c2d;stroke-miterlimit:10;stroke-width:3;stroke-linejoin:round;stroke-linecap:round"><path d="m52.5 24.9a22.1 22.1 0 0 1 0 16m-41 0a22.1 22.1 0 0 1 0-16m48-4a30.1 30.1 0 0 1 0 24m-55 0a30.1 30.1 0 0 1 0-24"/><rect height="52" rx="6" width="28" x="18" y="9"/><path d="m24 3v5.9m-6 8.1h28m-28 16h28"/><circle cx="26" cy="41" r="1"/><circle cx="32" cy="41" r="1"/><circle cx="38" cy="41" r="1"/><circle cx="26" cy="47" r="1"/><circle cx="32" cy="47" r="1"/><circle cx="38" cy="47" r="1"/><circle cx="26" cy="53" r="1"/><circle cx="32" cy="53" r="1"/><circle cx="38" cy="53" r="1"/></g></svg>