<svg viewBox="0 0 64 64" xmlns="http://www.w3.org/2000/svg"><g style="fill:none;stroke:#2e2c2d;stroke-miterlimit:10;stroke-width:3;stroke-linejoin:round;stroke-linecap:round"><path d="m48.5 36.5c.7.4 1.7 1.1 1.5 2.5a7.2 7.2 0 0 1 -6.8 5c-4.5 0-10-3.5-14.8-8.4s-8.4-10.3-8.4-14.8a7.2 7.2 0 0 1 5-6.8c1.4-.2 2 .9 2.5 1.5l3.4 5.2a2.4 2.4 0 0 1 -.6 3.3c-1.5 1.2-2.9 1.6 2.6 7.1s5.9 4.1 7.1 2.6a2.4 2.4 0 0 1 3.3-.6z"/><path d="m34 2a28 28 0 0 0 -24.7 41.2l-6.1 17.6 17.5-6.1a28 28 0 1 0 13.3-52.7z"/></g></svg>