<svg viewBox="0 0 64 64" xmlns="http://www.w3.org/2000/svg"><g style="fill:none;stroke:#2e2c2d;stroke-miterlimit:10;stroke-width:3;stroke-linejoin:round;stroke-linecap:round"><path d="m24 40.5v3.5c0 2 .6 5-10.4 7a14.6 14.6 0 0 0 -11.6 11h59a14.3 14.3 0 0 0 -11.4-11c-10.6-2-9.6-5-9.6-7v-5"/><path d="m46.4 33h4.6a3.3 3.3 0 0 0 3-3v-7a3.3 3.3 0 0 0 -3-3h-5m-28 0h-6a3.3 3.3 0 0 0 -3 3v7a3.3 3.3 0 0 0 3 3h5.2"/><path d="m46 18c-20 0-20-14-20-14s1 12-8 15m18 43 9.6-12m-27.7 0 10.1 12m-10.1-12a10.8 10.8 0 0 1 -4.9-4c4-4 5-20 5-20m28 0s0 16 4 20a10.7 10.7 0 0 1 -4.7 4"/><path d="m26 42c-4.7-2.9-8-8.8-8-16v-10c0-10.4 7.4-14 14-14s14 3.6 14 14v16c0 4-4 7-6 7"/><path d="m40 38.9a2.9 2.9 0 0 0 -2.9-2.9h-2.2a2.9 2.9 0 0 0 -2.9 2.9 3 3 0 0 0 2.9 3.1h2.1a3 3 0 0 0 3-3.1z"/></g></svg>