<svg viewBox="0 0 64 64" xmlns="http://www.w3.org/2000/svg"><g style="fill:none;stroke:#2e2c2d;stroke-miterlimit:10;stroke-width:3;stroke-linejoin:round;stroke-linecap:round"><path d="m35.4 37.6c2.6 1 3.7-.7 4.6-1.9a2.9 2.9 0 0 1 3.9-.8l6.2 4.1c.8.5 2.1 1.3 1.8 3a8.6 8.6 0 0 1 -8.1 6c-3.8 0-8.3-2.2-12.6-5.5m-5.2-4.6c-5.8-5.8-10-12.4-10-17.8a8.6 8.6 0 0 1 6-8.1c1.7-.2 2.4 1 3 1.8l4.1 6.2a2.9 2.9 0 0 1 -.8 3.9c-1.3 1.1-3.4 2.4-1.2 6a21.6 21.6 0 0 0 3.1 3.8"/><path d="m53.2 10.8-42.4 42.4"/><circle cx="32" cy="32" r="30"/></g></svg>