<svg viewBox="0 0 64 64" xmlns="http://www.w3.org/2000/svg"><g style="fill:none;stroke:#2e2c2d;stroke-linecap:round;stroke-miterlimit:10;stroke-width:3;stroke-linejoin:round"><path d="m32 10h20m6 8v-10l-6-6h-26v16"/><rect height="52" rx="4" width="18" x="2" y="10"/><path d="m8 2v8m9 52h41a4 4 0 0 0 4-4v-36a4 4 0 0 0 -4-4h-38"/><path d="m30 24h22v8h-22z"/><circle cx="33" cy="39" r="1"/><circle cx="41" cy="39" r="1"/><circle cx="49" cy="39" r="1"/><circle cx="33" cy="47" r="1"/><circle cx="41" cy="47" r="1"/><circle cx="49" cy="47" r="1"/><circle cx="33" cy="55" r="1"/><circle cx="41" cy="55" r="1"/><circle cx="49" cy="55" r="1"/></g></svg>