<svg viewBox="0 0 64 64" xmlns="http://www.w3.org/2000/svg"><g style="fill:none;stroke:#2e2c2d;stroke-miterlimit:10;stroke-width:3;stroke-linejoin:round;stroke-linecap:round"><path d="m52 26.3v26.7a6 6 0 0 1 -6 6h-28a6 6 0 0 1 -6-6v-26.7"/><rect height="4" rx="1" width="4" x="20" y="30"/><rect height="4" rx="1" width="4" x="30" y="30"/><rect height="4" rx="1" width="4" x="40" y="30"/><rect height="4" rx="1" width="4" x="20" y="39"/><rect height="4" rx="1" width="4" x="30" y="39"/><rect height="4" rx="1" width="4" x="40" y="39"/><rect height="4" rx="1" width="4" x="20" y="48"/><rect height="4" rx="1" width="4" x="30" y="48"/><rect height="4" rx="1" width="4" x="40" y="48"/><path d="m17.8 24.7a3.9 3.9 0 0 0 3-4.4c-.3-3-1.4-7.3 11.2-7.3s11.5 4.3 11.2 7.3a3.9 3.9 0 0 0 3 4.4l9.9 2c1.3.2 3.2.8 4.6-1.1a11.4 11.4 0 0 0 -2-13.4c-5.2-5-15.6-7.2-26.7-7.2s-21.5 2.2-26.7 7.3a11.4 11.4 0 0 0 -2 13.4c1.4 1.8 3.3 1.3 4.6 1.1z"/></g></svg>