<svg viewBox="0 0 64 64" xmlns="http://www.w3.org/2000/svg"><g fill="none" stroke="#2e2c2d" stroke-linecap="round" stroke-linejoin="round" stroke-width="3"><path d="m33.8 28h8.2v7l7.6-7h12.4v-26h-38v18"/><circle cx="43" cy="14" r="1"/><circle cx="35" cy="14" r="1"/><circle cx="51" cy="14" r="1"/><path d="m37.4 54.3c-8.2-1.4-7.4-3.5-7.4-4.9v-2.5a13.9 13.9 0 0 0 4-10.1v-6.7c0-7.3-5.3-10.1-10-10.1s-10 2.8-10 10.1v6.7a13.8 13.8 0 0 0 4.1 10.1v2.5c0 1.4.7 3.5-7.4 4.9s-8.7 5.7-8.7 7.7h44c0-2-1.3-6.4-8.6-7.7z"/></g></svg>