<svg viewBox="0 0 64 64" xmlns="http://www.w3.org/2000/svg"><g style="fill:none;stroke:#2e2c2d;stroke-miterlimit:10;stroke-width:3;stroke-linejoin:round;stroke-linecap:round"><path d="m49.6 49.7c1.1 1 2.9 2.4 2.1 4.9s-5.5 8.5-13.7 7.2-17.3-9.3-24.8-19.5-12.3-21.2-11.1-29.4 9.1-10.9 11.1-10.9 3.4 2.1 4.1 3.5l4.7 10.4a4.5 4.5 0 0 1 -2.1 5.8c-3 1.7-7.8 3.7.7 15.3s11.8 7.5 14.4 5.2a4.5 4.5 0 0 1 6.1-.2z"/><path d="m55 5a2.7 2.7 0 0 0 -3-3 2.8 2.8 0 0 0 -3 3l1 21a2.2 2.2 0 0 0 2 2 2.1 2.1 0 0 0 2-2z"/><circle cx="52" cy="35" r="2"/></g></svg>