<svg viewBox="0 0 64 64" xmlns="http://www.w3.org/2000/svg"><g style="fill:none;stroke:#2e2c2d;stroke-miterlimit:10;stroke-width:3;stroke-linejoin:round;stroke-linecap:round"><path d="m36 37.9 2 1c3.7 1.4 5.3-1 6.6-2.7a4.2 4.2 0 0 1 5.7-1.1l9 5.9c1.1.8 3 1.8 2.6 4.3s-3.9 8.7-11.7 8.7c-5.5 0-12-3.1-18.2-7.9l-2-1.6-.6-.5m-4.9-4.5c-8.4-8.4-14.5-18-14.5-25.7s6.9-11.5 8.7-11.8 3.5 1.5 4.3 2.7l5.9 9a4.2 4.2 0 0 1 -1.1 5.7c-2 1.6-4.9 3.4-1.7 8.6a31.2 31.2 0 0 0 4.5 5.4"/><path d="m62 2-60 60"/></g></svg>