<svg viewBox="0 0 64 64" xmlns="http://www.w3.org/2000/svg"><g style="fill:none;stroke:#2e2c2d;stroke-miterlimit:10;stroke-width:3;stroke-linejoin:round;stroke-linecap:round"><path d="m15 24a3.9 3.9 0 0 0 3-4.5c-.3-3 1.4-7.5 14-7.5s14.3 4.4 14 7.5 2.9 4.3 4 4.5 4.8 1.5 6.1 1.8 3.2.8 4.6-1.1a11.2 11.2 0 0 0 -2-13.2c-5.2-5.2-15.6-7.5-26.7-7.5s-21.5 2.3-26.7 7.4a11.2 11.2 0 0 0 -2 13.2c1.4 1.8 3.3 1.3 4.6 1.1z"/><path d="m56 60v-12a22 22 0 0 0 -22-22h-4a22 22 0 0 0 -22 22v12zm-30-40v6.4m12-6.4v6.4"/><path d="m21 35h2v2h-2zm10 0h2v2h-2zm10 0h2v2h-2zm-20 8h2v2h-2zm10 0h2v2h-2zm10 0h2v2h-2zm-20 8h2v2h-2zm10 0h2v2h-2zm10 0h2v2h-2z"/></g></svg>