<svg viewBox="0 0 64 64" xmlns="http://www.w3.org/2000/svg"><g style="fill:none;stroke:#2e2c2d;stroke-miterlimit:10;stroke-width:3;stroke-linejoin:round;stroke-linecap:round"><path d="m29.9 53.9a14.6 14.6 0 0 0 -2.1-17.7 14.6 14.6 0 0 0 -17.7-2.1z"/><path d="m20.4 54.1a10.5 10.5 0 0 1 -10.5-10.5m-7.9.3a18.1 18.1 0 0 0 18.1 18.1"/><path d="m34.9 40.4a2 2 0 0 1 -2.8 0l-8.5-8.4a2 2 0 0 1 0-2.8l12.7-12.8a2 2 0 0 1 2.8 0l8.5 8.5a2 2 0 0 1 0 2.8zm-26.833-29.652 8.486-8.485 12.727 12.727-8.485 8.485zm32.463 32.6 8.484-8.485 12.728 12.727-8.485 8.485zm-15.53-24.148 4.2 4.3m11.3 11.3 4.3 4.2"/><path d="m43.4 20.7 6.7-6.7"/></g></svg>