<svg viewBox="0 0 64 64" xmlns="http://www.w3.org/2000/svg"><g style="fill:none;stroke:#2e2c2d;stroke-linecap:round;stroke-miterlimit:10;stroke-width:3;stroke-linejoin:round"><path d="m47.5 50c1 .7 2.8 1.7 2.4 3.9a11.5 11.5 0 0 1 -10.8 8c-7.2 0-16-5.7-23.7-13.4s-13.4-16.5-13.4-23.7a11.5 11.5 0 0 1 8-10.8c2.2-.3 3.2 1.4 3.9 2.4l5.4 8.3a3.9 3.9 0 0 1 -1 5.2c-2.3 1.9-6.2 4.2 2.6 13s11.1 4.9 13 2.6a3.9 3.9 0 0 1 5.2-1z"/><path d="m59.4 2h-28.8a2.6 2.6 0 0 0 -2.6 2.6v18.8a2.6 2.6 0 0 0 2.6 2.6h7.4v7l7-7h14.4a2.6 2.6 0 0 0 2.6-2.6v-18.8a2.6 2.6 0 0 0 -2.6-2.6z"/><circle cx="45" cy="14" r="1"/><circle cx="37" cy="14" r="1"/><circle cx="53" cy="14" r="1"/></g></svg>