<svg viewBox="0 0 64 64" xmlns="http://www.w3.org/2000/svg"><g style="fill:none;stroke:#2e2c2d;stroke-miterlimit:10;stroke-width:3;stroke-linejoin:round;stroke-linecap:round"><path d="m46 33h5a3.3 3.3 0 0 0 3-3v-7a3.3 3.3 0 0 0 -3-3h-5m-29 0h-5a3.3 3.3 0 0 0 -3 3v7a3.3 3.3 0 0 0 3 3h6.2"/><path d="m25.4 42.3c-4.7-2.9-8.4-9.1-8.4-16.3v-10c0-10.4 7.8-14 14.4-14s14.6 3.6 14.6 14v16c0 4-4 7-7 7"/><path d="m24 41.3v2.7c0 2 .4 5-10.6 7a14.2 14.2 0 0 0 -11.4 11h59a14.6 14.6 0 0 0 -11.6-11c-10.7-2-10.4-5-10.4-7v-5"/><path d="m39 39a3 3 0 0 0 -3-3h-2a3 3 0 0 0 -3 3 3 3 0 0 0 3 3h2a3 3 0 0 0 3-3z"/><path d="m21.4 48.5 10 12.5 10.2-12.5m-24.6-30.5c12 0 12-8 20-8s9 7 9 7"/></g></svg>