<svg viewBox="0 0 64 64" xmlns="http://www.w3.org/2000/svg"><g style="fill:none;stroke:#2e2c2d;stroke-linecap:round;stroke-miterlimit:10;stroke-width:3;stroke-linejoin:round"><circle cx="32" cy="32" r="13"/><path d="m54.725 35.558a23.163 23.163 0 0 0 0-7.116l5.113-4.942a1.818 1.818 0 0 0 .311-2.216l-4.944-8.563a1.818 1.818 0 0 0 -2.075-.839l-6.979 2a22.954 22.954 0 0 0 -5.965-3.37l-1.786-7.135a1.818 1.818 0 0 0 -1.76-1.377h-9.888a1.818 1.818 0 0 0 -1.764 1.377l-1.848 7.394a22.975 22.975 0 0 0 -5.453 3.229l-7.424-2.124a1.818 1.818 0 0 0 -2.075.839l-4.944 8.567a1.818 1.818 0 0 0 .31 2.218l5.652 5.464a22.509 22.509 0 0 0 0 6.075l-5.652 5.461a1.818 1.818 0 0 0 -.311 2.216l4.944 8.563a1.818 1.818 0 0 0 2.075.839l7.425-2.118a22.97 22.97 0 0 0 5.454 3.232l1.848 7.394a1.818 1.818 0 0 0 1.763 1.374h9.888a1.818 1.818 0 0 0 1.76-1.377l1.782-7.128a22.955 22.955 0 0 0 5.965-3.371l6.979 2a1.818 1.818 0 0 0 2.075-.839l4.944-8.563a1.818 1.818 0 0 0 -.311-2.216z"/></g></svg>