<svg viewBox="0 0 64 64" xmlns="http://www.w3.org/2000/svg"><g style="fill:none;stroke:#2e2c2d;stroke-linecap:round;stroke-miterlimit:10;stroke-width:3;stroke-linejoin:round"><circle cx="26" cy="38" r="9"/><circle cx="45" cy="19" r="6"/><path d="m30 16v-.5a1.5 1.5 0 0 0 -1.5-1.5h-5a1.5 1.5 0 0 0 -1.5 1.5v3.93a18.874 18.874 0 0 0 -6.3 2.617l-2.785-2.785a1.5 1.5 0 0 0 -2.121 0l-3.532 3.538a1.5 1.5 0 0 0 0 2.121l2.785 2.779a18.872 18.872 0 0 0 -2.617 6.3h-3.93a1.5 1.5 0 0 0 -1.5 1.5v5a1.5 1.5 0 0 0 1.5 1.5h3.93a18.874 18.874 0 0 0 2.617 6.3l-2.785 2.782a1.5 1.5 0 0 0 0 2.121l3.538 3.535a1.5 1.5 0 0 0 2.121 0l2.779-2.784a18.874 18.874 0 0 0 6.3 2.616v3.93a1.5 1.5 0 0 0 1.5 1.5h5a1.5 1.5 0 0 0 1.5-1.5v-3.93a18.874 18.874 0 0 0 6.3-2.617l2.785 2.785a1.5 1.5 0 0 0 2.121 0l3.532-3.538a1.5 1.5 0 0 0 0-2.121l-2.784-2.779a18.874 18.874 0 0 0 2.616-6.3h3.93a1.5 1.5 0 0 0 1.5-1.5v-5a1.5 1.5 0 0 0 -1.5-1.5h-.5"/><path d="m60.5 16h-2.862a12.911 12.911 0 0 0 -1.671-3.96l2-2a1.5 1.5 0 0 0 0-2.121l-1.889-1.883a1.5 1.5 0 0 0 -2.121 0l-2 2a12.911 12.911 0 0 0 -3.957-1.674v-2.862a1.5 1.5 0 0 0 -1.5-1.5h-3a1.5 1.5 0 0 0 -1.5 1.5v2.862a12.911 12.911 0 0 0 -3.96 1.671l-2-2a1.5 1.5 0 0 0 -2.121 0l-1.883 1.889a1.5 1.5 0 0 0 0 2.121l2 2a12.911 12.911 0 0 0 -1.674 3.957h-2.862a1.5 1.5 0 0 0 -1.5 1.5v3a1.5 1.5 0 0 0 1.5 1.5h2.862a12.911 12.911 0 0 0 1.671 3.96l-2 2a1.5 1.5 0 0 0 0 2.121l1.886 1.886a1.5 1.5 0 0 0 2.121 0l2-2a12.911 12.911 0 0 0 3.96 1.671v2.862a1.5 1.5 0 0 0 1.5 1.5h3a1.5 1.5 0 0 0 1.5-1.5v-2.862a12.911 12.911 0 0 0 3.96-1.671l2 2a1.5 1.5 0 0 0 2.121 0l1.886-1.886a1.5 1.5 0 0 0 0-2.121l-2-2a12.911 12.911 0 0 0 1.671-3.96h2.862a1.5 1.5 0 0 0 1.5-1.5v-3a1.5 1.5 0 0 0 -1.5-1.5z"/></g></svg>