<svg viewBox="0 0 64 64" xmlns="http://www.w3.org/2000/svg"><path d="m12.999 47.988 38.001.012a11.059 11.059 0 0 0 11-11.257v-10.623a11.106 11.106 0 0 0 -11-11.12h-5v6h5a5.038 5.038 0 0 1 5 5.12v10.623a5.055 5.055 0 0 1 -5 5.257h-38a5.156 5.156 0 0 1 -5-5.257v-10.623a5.146 5.146 0 0 1 5.25-5.12h14.382l-4.755 4.76 4.246 4.24 12.12-12.133-12.243-11.867-4.12 4.003 5.003 4.997h-14.633a11.152 11.152 0 0 0 -11.25 11.12v10.623a11.213 11.213 0 0 0 10.999 11.245z" style="fill:none;stroke:#2e2c2d;stroke-miterlimit:10;stroke-width:3;stroke-linejoin:round;stroke-linecap:round"/></svg>