<svg viewBox="0 0 64 64" xmlns="http://www.w3.org/2000/svg"><g style="stroke-width:3;stroke-miterlimit:10;stroke-linecap:round;stroke:#2e2c2d;fill:none;stroke-linejoin:round"><path d="m39.2 22a3 3 0 0 0 .2 4.2l3.2 2.8h-21.2l3.1-2.8a3 3 0 0 0 -4-4.5l-11.5 10.3 11.5 10.2a3 3 0 0 0 4-4.5l-3.1-2.7h21.2l-3.1 2.8a3 3 0 0 0 4 4.5l11.5-10.3-11.5-10.2a3 3 0 0 0 -4.3.2z"/><path d="m5 13a3 3 0 0 0 -3 3v32a3 3 0 0 0 6 0v-32a3 3 0 0 0 -3-3zm54 0a3 3 0 0 0 -3 3v32a3 3 0 0 0 6 0v-32a3 3 0 0 0 -3-3z"/></g></svg>