<svg viewBox="0 0 64 64" xmlns="http://www.w3.org/2000/svg"><g style="stroke-width:3;stroke-miterlimit:10;stroke-linecap:round;stroke:#2e2c2d;fill:none;stroke-linejoin:round"><path d="m42 39.2a3 3 0 0 0 -4.2.2l-2.8 3.2v-21.2l2.8 3.1a3 3 0 0 0 4.5-4l-10.3-11.5-10.2 11.5a3 3 0 0 0 4.5 4l2.7-3.1v21.2l-2.8-3.1a3 3 0 0 0 -4.5 4l10.3 11.5 10.2-11.5a3 3 0 0 0 -.2-4.3z"/><path d="m51 5a3 3 0 0 0 -3-3h-32a3 3 0 0 0 0 6h32a3 3 0 0 0 3-3zm0 54a3 3 0 0 0 -3-3h-32a3 3 0 0 0 0 6h32a3 3 0 0 0 3-3z"/></g></svg>