<svg viewBox="0 0 64 64" xmlns="http://www.w3.org/2000/svg"><path d="m32.6 16.1a15.1 15.1 0 0 1 11.4-5.1h5.8l-2.9-2.9 4.1-4.1 10 10-9.9 10.1-4.2-4.2 2.9-2.9h-6.4a7.9 7.9 0 0 0 -6.1 2.8l-6.7 9.2a17.2 17.2 0 0 1 -2.8 3 17.2 17.2 0 0 1 2.8 3l6.7 9.2a7.9 7.9 0 0 0 6.1 2.8h6.3l-2.9-2.9 4.2-4.2 10 10.1-10 10-4.1-4.1 2.9-2.9h-6.4a14 14 0 0 1 -10.8-5.1l-6.9-9.5a8.3 8.3 0 0 0 -6.7-3.4h-17v-6h17a8.3 8.3 0 0 0 6.7-3.4z" style="stroke-width:3;stroke-miterlimit:10;stroke-linecap:round;stroke:#2e2c2d;fill:none;stroke-linejoin:round"/></svg>