<svg viewBox="0 0 64 64" xmlns="http://www.w3.org/2000/svg"><g style="fill:none;stroke:#2e2c2d;stroke-linecap:round;stroke-miterlimit:10;stroke-width:3;stroke-linejoin:round"><circle cx="32" cy="32" r="14"/><path d="m58.906 27a3.127 3.127 0 0 1 -2.977-2.258 24.834 24.834 0 0 0 -1.875-4.519 3.131 3.131 0 0 1 .505-3.71 3.1 3.1 0 0 0 0-4.376l-2.693-2.698a3.1 3.1 0 0 0 -4.376 0 3.131 3.131 0 0 1 -3.71.505 24.834 24.834 0 0 0 -4.519-1.875 3.127 3.127 0 0 1 -2.261-2.975 3.1 3.1 0 0 0 -3.094-3.094h-3.812a3.1 3.1 0 0 0 -3.094 3.094 3.127 3.127 0 0 1 -2.258 2.977 24.834 24.834 0 0 0 -4.519 1.875 3.131 3.131 0 0 1 -3.71-.505 3.1 3.1 0 0 0 -4.376 0l-2.695 2.7a3.1 3.1 0 0 0 0 4.376 3.131 3.131 0 0 1 .505 3.71 24.834 24.834 0 0 0 -1.875 4.519 3.127 3.127 0 0 1 -2.978 2.254 3.1 3.1 0 0 0 -3.094 3.094v3.811a3.1 3.1 0 0 0 3.094 3.095 3.127 3.127 0 0 1 2.977 2.258 24.833 24.833 0 0 0 1.875 4.519 3.131 3.131 0 0 1 -.505 3.71 3.1 3.1 0 0 0 0 4.376l2.7 2.7a3.1 3.1 0 0 0 4.376 0 3.131 3.131 0 0 1 3.71-.505 24.834 24.834 0 0 0 4.519 1.875 3.127 3.127 0 0 1 2.254 2.973 3.1 3.1 0 0 0 3.094 3.094h3.811a3.1 3.1 0 0 0 3.095-3.094 3.127 3.127 0 0 1 2.258-2.977 24.834 24.834 0 0 0 4.519-1.875 3.131 3.131 0 0 1 3.71.505 3.1 3.1 0 0 0 4.376 0l2.7-2.695a3.1 3.1 0 0 0 0-4.376 3.131 3.131 0 0 1 -.505-3.71 24.833 24.833 0 0 0 1.875-4.519 3.127 3.127 0 0 1 2.973-2.259 3.1 3.1 0 0 0 3.094-3.094v-3.812a3.1 3.1 0 0 0 -3.094-3.094z"/></g></svg>