<svg viewBox="0 0 64 64" xmlns="http://www.w3.org/2000/svg"><path d="m46 16.021c-6.844 0-10.687 4.3-13.8 9.242l-3.264 5.556c-3.676 6.35-6.139 10.181-10.936 10.181-6 0-10-3.764-10-8.996a9.881 9.881 0 0 1 10-10.004c2 0 4.913 1.27 7.286 4.245l3.65 4.574.467-.808c.907-1.571 1.817-3.19 2.798-4.748l.034-.06-2.158-2.7c-3.491-4.375-8.077-6.503-12.077-6.503v.021a16.07 16.07 0 0 0 -16 15.984c0 8.539 7 14.995 16 14.995s12.819-7.434 16.602-13.992c3.941-6.836 6.398-10.987 11.398-10.987 6 0 10 3.75 10 8.983a9.875 9.875 0 0 1 -10 9.996c-2 0-4.99-1.28-7.354-4.226l-3.184 5.32a15.096 15.096 0 0 0 10.538 4.885v.021a16.08 16.08 0 0 0 16-15.996c0-8.541-7-14.983-16-14.983z" style="fill:none;stroke:#2e2c2d;stroke-miterlimit:10;stroke-width:3;stroke-linejoin:round;stroke-linecap:round"/></svg>