<svg viewBox="0 0 64 64" xmlns="http://www.w3.org/2000/svg"><g style="fill:none;stroke:#2e2c2d;stroke-miterlimit:10;stroke-width:3;stroke-linejoin:round;stroke-linecap:round"><path d="m13 48h-3v-32h18.11l-3.103 2.758a3 3 0 0 0 3.986 4.485l11.523-10.243-11.523-10.242a3 3 0 0 0 -3.986 4.485l3.102 2.757h-21.109a3 3 0 0 0 -3 3v38a3 3 0 0 0 3 3h6a3 3 0 0 0 0-6z"/><path d="m55 10h-6a3 3 0 0 0 0 6h3v32h-18.11l3.103-2.757a3 3 0 0 0 -3.986-4.485l-11.523 10.242 11.523 10.243a3 3 0 0 0 3.986-4.485l-3.102-2.758h21.109a3 3 0 0 0 3-3v-38a3 3 0 0 0 -3-3z"/></g></svg>