<svg viewBox="0 0 64 64" xmlns="http://www.w3.org/2000/svg"><g style="fill:none;stroke:#2e2c2d;stroke-miterlimit:10;stroke-width:3;stroke-linejoin:round;stroke-linecap:round"><path d="m15.088 47.998a5.222 5.222 0 0 1 -5.088-5.248v-21.5a5.255 5.255 0 0 1 5.25-5.25h10.86l-3.103 2.758a3 3 0 0 0 3.986 4.485l11.523-10.243-11.523-10.242a3 3 0 0 0 -3.986 4.485l3.102 2.757h-10.859a11.263 11.263 0 0 0 -11.25 11.25v21.5a11.195 11.195 0 0 0 10.908 11.245c.03.001.061.003.092.003a3 3 0 0 0 .088-6z"/><path d="m47.089 10.006a3 3 0 1 0 -.178 5.997 5.223 5.223 0 0 1 5.089 5.247v21.5a5.256 5.256 0 0 1 -5.25 5.25h-10.862l3.105-2.76a3 3 0 1 0 -3.986-4.485l-11.523 10.243 11.523 10.242a3 3 0 1 0 3.986-4.485l-3.1-2.755h10.857a11.263 11.263 0 0 0 11.25-11.25v-21.5a11.193 11.193 0 0 0 -10.911-11.244z"/></g></svg>