<svg viewBox="0 0 64 64" xmlns="http://www.w3.org/2000/svg"><path d="m46.4 16.8c-8.9 0-13.2 7.5-17 14.1s-6.7 11.1-11.8 11.1-9.6-4.7-9.6-10 4-9.2 10-9.2a6.1 6.1 0 0 1 2.7.6l-3.5.6 1 5.9 11.8-2.9-3-13-5.1 1.1.9 2.6a15.4 15.4 0 0 0 -4.7-1c-9.1.1-16.1 6.7-16.1 15.3s7.1 16 15.7 16 13.2-7.5 17-14.1 6.7-11.1 11.8-11.1a9.3 9.3 0 0 1 9.5 9.2 9.8 9.8 0 0 1 -10 10c-2 0-4.9-1.3-7.2-4.2l-4.8 3.7c3.5 4.4 8 6.5 12 6.5a16 16 0 0 0 16-16 15.3 15.3 0 0 0 -15.6-15.2z" style="stroke-width:3;stroke-miterlimit:10;stroke-linecap:round;stroke:#2e2c2d;fill:none;stroke-linejoin:round"/></svg>