<svg viewBox="0 0 64 64" xmlns="http://www.w3.org/2000/svg"><g style="fill:none;stroke:#2e2c2d;stroke-miterlimit:10;stroke-width:3;stroke-linejoin:round;stroke-linecap:round"><path d="m59 42a3 3 0 0 0 -3 3v6.757l-13-13a3 3 0 0 0 -4.243 4.243l13 13h-6.757a3 3 0 0 0 0 6h17v-17a3 3 0 0 0 -3-3z"/><path d="m45 2a3 3 0 0 0 0 6h6.758l-13 13a3 3 0 0 0 4.242 4.243l13-13v6.757a3 3 0 0 0 6 0v-17z"/><path d="m12.243 8h6.757a3 3 0 0 0 0-6h-17v17a3 3 0 0 0 6 0v-6.757l13 13a3 3 0 1 0 4.242-4.243z"/><path d="m21 38.757-13 13v-6.757a3 3 0 0 0 -6 0v17h17a3 3 0 0 0 0-6h-6.757l13-13a3 3 0 0 0 -4.243-4.243z"/></g></svg>