<svg viewBox="0 0 64 64" xmlns="http://www.w3.org/2000/svg"><path d="m61 50-9.9 10.1a3 3 0 0 1 -4.2-4.2l2.9-2.9h-6.4a14 14 0 0 1 -10.8-5.1h-.1l-6.8-9.3a8.3 8.3 0 0 0 -6.7-3.6h-14a3 3 0 0 1 0-6h14a8.3 8.3 0 0 0 6.7-3.4l6.8-9.3h.1a14 14 0 0 1 10.8-5.3h6.3l-2.8-2.9a3 3 0 0 1 4.2-4.2l9.9 10.1-9.9 10.1a3 3 0 1 1 -4.2-4.2l2.9-2.9h-6.4a8 8 0 0 0 -6.1 2.9l-6.7 9.2a13.6 13.6 0 0 1 -2.9 2.9 13.6 13.6 0 0 1 2.8 2.9l6.7 9.2a8 8 0 0 0 6.2 2.9h6.3l-2.9-2.9a3 3 0 1 1 4.2-4.2z" style="stroke-width:3;stroke-miterlimit:10;stroke-linecap:round;stroke:#2e2c2d;fill:none;stroke-linejoin:round"/></svg>