<svg viewBox="0 0 64 64" xmlns="http://www.w3.org/2000/svg"><path d="m12.999 47.986 38.001.014a11.06 11.06 0 0 0 11-11.26v-9.5a11.09 11.09 0 0 0 -10.998-11.24h-1.002a2.998 2.998 0 1 0 0 5.995l.912-.002a5.222 5.222 0 0 1 5.088 5.247v9.5a5.057 5.057 0 0 1 -5 5.26h-38a5.159 5.159 0 0 1 -5-5.26v-9.5a5.256 5.256 0 0 1 5.25-5.25l14.505.008-4.878 4.882a3 3 0 1 0 4.246 4.24l12.12-12.133-12.123-12.11a3 3 0 1 0 -4.24 4.246l4.883 4.877h-14.763a11.043 11.043 0 0 0 -11 11.24v9.5a11.214 11.214 0 0 0 10.999 11.246z" style="fill:none;stroke:#2e2c2d;stroke-miterlimit:10;stroke-width:3;stroke-linejoin:round;stroke-linecap:round"/></svg>