<svg viewBox="0 0 64 64" xmlns="http://www.w3.org/2000/svg"><g style="fill:none;stroke:#2e2c2d;stroke-miterlimit:10;stroke-width:3;stroke-linejoin:round;stroke-linecap:round"><path d="m62 34-10.167-10.77-8.83 10.88 4.66 3.782 1.856-2.288a20.918 20.918 0 0 1 -19.072 18.417l.458 5.983a26.956 26.956 0 0 0 24.645-24.291l2.293 2.372z"/><path d="m14.086 46.16.935 2.667a20.82 20.82 0 0 1 -4.621-25.297l-5.303-2.805a26.814 26.814 0 0 0 7.692 34.01l-3.842 1.335 1.053 5.93 14.533-4.172-4.785-13.653zm31.17-25.94 4.725-3.802a26.787 26.787 0 0 0 -21.147-10.418h-.003a26.95 26.95 0 0 0 -8.805 1.681l1.51-3.671-5.536-2.062-5.947 14.697 14.503 3.03 1.221-5.868-2.737-.775a21.03 21.03 0 0 1 5.79-1.032h.002a20.926 20.926 0 0 1 16.423 8.22z"/></g></svg>