<svg viewBox="0 0 64 64" xmlns="http://www.w3.org/2000/svg"><g style="fill:none;stroke:#2e2c2d;stroke-miterlimit:10;stroke-width:3;stroke-linejoin:round;stroke-linecap:round"><path d="m8.854 38.002a15.012 15.012 0 0 1 14.146-20.002h20.712l-5.632 4.693a3 3 0 0 0 3.84 4.61l14.765-12.303-14.764-12.305a3 3 0 1 0 -3.842 4.608l5.637 4.697h-20.716a21.011 21.011 0 0 0 -19.803 28.002 3 3 0 0 0 5.657-2z"/><path d="m60.805 24a3 3 0 1 0 -5.657 2 15.015 15.015 0 0 1 -14.148 20h-20.716l5.637-4.697a3 3 0 0 0 -3.842-4.61l-14.765 12.307 14.766 12.303a3 3 0 0 0 3.84-4.61l-5.633-4.693h20.713a21.014 21.014 0 0 0 19.805-28z"/></g></svg>