<svg viewBox="0 0 64 64" xmlns="http://www.w3.org/2000/svg"><g style="fill:none;stroke:#2e2c2d;stroke-miterlimit:10;stroke-width:3;stroke-linejoin:round;stroke-linecap:round"><path d="m8 18h35.715l-5.635 4.695a3 3 0 1 0 3.84 4.61l14.765-12.303-14.764-12.306a3 3 0 1 0 -3.842 4.609l5.636 4.697-38.715-.002a3 3 0 0 0 -3 3v21a3 3 0 0 0 6 0z"/><path d="m59 25a3 3 0 0 0 -3 3v18h-35.714l5.634-4.695a3 3 0 1 0 -3.84-4.61l-14.766 12.305 14.766 12.305a3 3 0 1 0 3.84-4.61l-5.634-4.695h38.714a3 3 0 0 0 3-3v-21a3 3 0 0 0 -3-3z"/></g></svg>