<svg viewBox="0 0 64 64" xmlns="http://www.w3.org/2000/svg"><path d="m24.224 28.593-12.26 11.273-9.964-13.866 4.63-3.103 3.332 4.11a26.995 26.995 0 0 1 26.038-21.007c14.52 0 26 12.488 26 27a25.791 25.791 0 0 1 -26 26 26.925 26.925 0 0 1 -18.953-7.719l4.244-4.241a20.968 20.968 0 0 0 14.709 5.96 19.786 19.786 0 0 0 20-20c0-11.203-8.788-21-20-21a20.979 20.979 0 0 0 -20.126 16.12l4.288-3.943z" style="fill:none;stroke:#2e2c2d;stroke-miterlimit:10;stroke-width:3;stroke-linejoin:round;stroke-linecap:round"/></svg>