<svg viewBox="0 0 64 64" xmlns="http://www.w3.org/2000/svg"><g style="fill:none;stroke:#2e2c2d;stroke-linecap:round;stroke-miterlimit:10;stroke-width:3;stroke-linejoin:round"><circle cx="32" cy="32" r="10"/><path d="m61 27h-6.551a22.857 22.857 0 0 0 -3.041-7.336l4.634-4.634a1 1 0 0 0 0-1.414l-5.657-5.658a1 1 0 0 0 -1.414 0l-4.634 4.634a22.857 22.857 0 0 0 -7.337-3.04v-6.552a1 1 0 0 0 -1-1h-8a1 1 0 0 0 -1 1v6.552a22.857 22.857 0 0 0 -7.336 3.041l-4.635-4.635a1 1 0 0 0 -1.414 0l-5.657 5.657a1 1 0 0 0 0 1.414l4.634 4.634a22.857 22.857 0 0 0 -3.04 7.337h-6.552a1 1 0 0 0 -1 1v8a1 1 0 0 0 1 1h6.552a22.856 22.856 0 0 0 3.041 7.336l-4.635 4.635a1 1 0 0 0 0 1.414l5.657 5.657a1 1 0 0 0 1.414 0l4.634-4.634a22.86 22.86 0 0 0 7.337 3.041v6.551a1 1 0 0 0 1 1h8a1 1 0 0 0 1-1v-6.551a22.86 22.86 0 0 0 7.336-3.041l4.634 4.634a1 1 0 0 0 1.414 0l5.657-5.657a1 1 0 0 0 0-1.414l-4.634-4.634a22.856 22.856 0 0 0 3.042-7.337h6.551a1 1 0 0 0 1-1v-8a1 1 0 0 0 -1-1z"/></g></svg>