<svg viewBox="0 0 64 64" xmlns="http://www.w3.org/2000/svg"><g style="fill:none;stroke:#2e2c2d;stroke-linecap:round;stroke-miterlimit:10;stroke-width:3;stroke-linejoin:round"><circle cx="32.106" cy="32.035" r="14"/><path d="m60.2 27.264-4.908-1.27a23.845 23.845 0 0 0 -2.534-6.086l2.606-4.426a2.4 2.4 0 0 0 -.371-2.915l-3.411-3.411a2.4 2.4 0 0 0 -2.915-.371l-4.423 2.6a23.848 23.848 0 0 0 -6.1-2.54l-1.302-5.045a2.4 2.4 0 0 0 -2.324-1.8h-4.825a2.4 2.4 0 0 0 -2.323 1.8l-1.3 5.028a23.843 23.843 0 0 0 -6.141 2.544l-4.521-2.662a2.4 2.4 0 0 0 -2.915.371l-3.412 3.412a2.4 2.4 0 0 0 -.371 2.915l2.662 4.52a23.848 23.848 0 0 0 -2.512 6.027l-5.06 1.309a2.4 2.4 0 0 0 -1.8 2.324v4.825a2.4 2.4 0 0 0 1.8 2.323l5.02 1.3a23.846 23.846 0 0 0 2.571 6.21l-2.6 4.423a2.4 2.4 0 0 0 .371 2.915l3.412 3.412a2.4 2.4 0 0 0 2.915.371l4.426-2.607a23.845 23.845 0 0 0 6.2 2.565l1.255 4.875a2.4 2.4 0 0 0 2.323 1.8h4.825a2.4 2.4 0 0 0 2.324-1.8l1.267-4.9a23.85 23.85 0 0 0 6.154-2.563l4.329 2.549a2.4 2.4 0 0 0 2.915-.371l3.412-3.412a2.4 2.4 0 0 0 .371-2.915l-2.549-4.329a23.845 23.845 0 0 0 2.591-6.259l4.869-1.26a2.4 2.4 0 0 0 1.799-2.327v-4.825a2.4 2.4 0 0 0 -1.8-2.324z"/></g></svg>