<svg viewBox="0 0 64 64" xmlns="http://www.w3.org/2000/svg"><g style="stroke-width:3;stroke-miterlimit:10;stroke-linecap:round;stroke:#2e2c2d;fill:none;stroke-linejoin:round"><path d="m51 7-4.4 4.2 2.9 2.8h-5.5c-3.4 0-8.3.6-11.5 5.3l-15.9 22c-2.1 2.8-2.8 2.7-6.6 2.7h-8v6h8c4.2 0 7.5.1 11.4-5.1l16-22h.1c.9-1.4 2.3-2.8 6.5-2.8h5.6l-3 3 4.2 4.2 10.2-10.2z"/><path d="m26.6 37.7 6 7.2c3.2 4.7 8.3 5.1 11.6 5.1h5.4l-3 3 4.4 4 10-9.9-10.1-10.1-4.2 4.2 2.7 2.8h-5.4c-4.2 0-5.6-1.2-6.5-2.5l-7.2-8.7m-3.3-5.8-5.6-7.7c-3.9-5.2-7.2-5.3-11.4-5.3h-8v6h8c3.8 0 4.5.1 6.6 2.9l6.7 9.2"/></g></svg>