<svg viewBox="0 0 64 64" xmlns="http://www.w3.org/2000/svg"><g style="fill:none;stroke:#2e2c2d;stroke-miterlimit:10;stroke-width:3;stroke-linejoin:round;stroke-linecap:round"><path d="m53.121 36.879a3 3 0 0 0 -4.242 4.242l2.879 2.879h-10.316l-9.442-12-4 5 9.657 11.874a3 3 0 0 0 2.343 1.126h11.758l-2.88 2.879a3 3 0 1 0 4.243 4.242l8-8a2.999 2.999 0 0 0 0-4.242zm-48.121-16.879h9.558l9.442 12 4-5-9.657-11.874a3 3 0 0 0 -2.343-1.126h-11a3 3 0 0 0 0 6z"/><path d="m51.758 20-2.88 2.879a3 3 0 1 0 4.243 4.242l8-8a2.999 2.999 0 0 0 0-4.242l-8-8a3 3 0 1 0 -4.242 4.242l2.879 2.879h-11.758a3 3 0 0 0 -2.343 1.126l-23.099 28.874h-9.558a3 3 0 0 0 0 6h11a3 3 0 0 0 2.343-1.126l23.099-28.874z"/></g></svg>