<svg viewBox="0 0 64 64" xmlns="http://www.w3.org/2000/svg"><g style="stroke-width:3;stroke-miterlimit:10;stroke-linecap:round;stroke:#2e2c2d;fill:none;stroke-linejoin:round"><path d="m27.2 38.2 6.4 6.5c3.9 3.9 8 5.3 11.4 5.3h6.8l-2.9 2.9a3 3 0 1 0 4.2 4.2l8-8a3 3 0 0 0 0-4.2l-8-8a3 3 0 0 0 -4.2 4.2l2.9 2.9h-6.8c-4.2 0-5.5-1.5-6.5-2.7l-7.1-8.9m-3.4-5.4-5.6-7.8c-3.9-5.2-7.2-5.2-11.4-5.2h-6a3 3 0 1 0 0 6h7c3.8 0 3.5 0 5.7 2.9l6.3 9.1"/><path d="m38.5 22.7c.9-1.4 2.3-2.7 6.5-2.7h6.8l-2.9 2.9a3 3 0 1 0 4.2 4.2l8-8a3 3 0 0 0 0-4.2l-8-8a3 3 0 1 0 -4.2 4.2l2.9 2.9h-6.8c-3.4 0-8.3.5-11.5 5.3l-15.9 21.9c-2.1 2.8-1.8 2.8-5.6 2.8h-7a3 3 0 0 0 0 6h6c4.2 0 7.5 0 11.4-5.2l16-22z"/></g></svg>