<svg viewBox="0 0 64 64" xmlns="http://www.w3.org/2000/svg"><g fill="#2e2c2d"><path d="m60.9 7.2c-11.3-5.8-19.2-7.5-24.1-5.1a8.9 8.9 0 0 0 -4.8 6.8 8.9 8.9 0 0 0 -4.8-6.8c-4.9-2.4-12.8-.7-24.1 5.1a2 2 0 1 0 1.8 3.6c13.1-6.8 18.5-6.1 20.5-5.1a5 5 0 0 1 2.6 4 2 2 0 0 0 .2.6 11.5 11.5 0 0 0 -2.5 2.4h.3a9.4 9.4 0 0 0 12 0h.2a11.5 11.5 0 0 0 -2.4-2.4 2 2 0 0 0 .2-.6 5.1 5.1 0 0 1 2.6-4c2-1 7.4-1.7 20.5 5.1a2 2 0 0 0 1.8-3.6z"/><path d="m49.1 18.1 3.1 7.7a2 2 0 0 0 1.8 1.2h.7a2 2 0 0 0 1.1-2.6l-4-10a2 2 0 0 0 -3-.9l-7.5 5.3c-.3-.9-.7-1.7-1.1-2.5a12.9 12.9 0 0 1 -8.2 2.7 13.3 13.3 0 0 1 -8.3-2.9c-.4.8-.7 1.6-1.1 2.5l-7.5-5.3a2 2 0 0 0 -3 .9l-4 10a2 2 0 0 0 1.1 2.6h.8a2 2 0 0 0 1.9-1.3l3.1-7.7 5.9 4.2.6.3c-.2.8-.4 1.6-.5 2.5h22.1c-.2-.8-.3-1.7-.5-2.5l.6-.3zm6.9 14.5a2 2 0 0 0 -2.7-1.5l-9.3 3.8a55.4 55.4 0 0 0 -.3-5.9h-9.7v31.6c2.6-1 5-3.8 6.7-7.8h9.7l1.6 8.6a2 2 0 0 0 2 1.6h.4a2 2 0 0 0 1.6-2.4l-2-10a2 2 0 0 0 -2-1.6h-9.9a47.4 47.4 0 0 0 1.8-10h1l7.7-3.1 1.4 7.5a2 2 0 0 0 2 1.6h.4a2 2 0 0 0 1.6-2.4zm-35.7-3.6a54.8 54.8 0 0 0 -.3 5.9l-9.3-3.7a2 2 0 0 0 -2.7 1.4l-2 10a2 2 0 0 0 1.6 2.4h.4a2 2 0 0 0 2-1.6l1.5-7.6 7.7 3.1h1a47.4 47.4 0 0 0 1.7 10h-9.9a2 2 0 0 0 -2 1.6l-2 10a2 2 0 0 0 1.6 2.4h.4a2 2 0 0 0 2-1.6l1.6-8.3h9.7c1.8 4 4.1 6.8 6.7 7.8v-31.8z"/></g></svg>