<svg viewBox="0 0 64 64" xmlns="http://www.w3.org/2000/svg"><g fill="#2e2c2d"><path d="m53.7 32.3a18.2 18.2 0 0 0 -2.7-2.3v-3.8a13.4 13.4 0 0 1 -3.2 2.2 17.9 17.9 0 0 0 -19.2 3.6h-.6c-9.4 0-19-2-23-5.8v7.8c0 1.8 7.5 5.1 18.8 5.8a17.8 17.8 0 0 0 -.7 4c-7.7-.6-14.8-2.5-18.1-5.6v6.8c0 4 8.6 7.4 19.9 7.9a18 18 0 1 0 28.8-20.6zm-24.2 20.7a13.9 13.9 0 0 1 -2.5-8c0-.4 0-.7.1-1.1a14 14 0 0 1 22.3-10.1l-3.5 3.5-5.4 5.4-10.3 10.3zm11.5 6a13.9 13.9 0 0 1 -8.4-2.8l3.2-3.2 13.7-13.7 2.7-2.7a14 14 0 0 1 -11.2 22.4z"/><ellipse cx="28" cy="9" rx="23" ry="8"/><path d="m28 28c13.6 0 23-3.9 23-6v-6.2c-5 3.5-14 5.2-23 5.2s-18-1.7-23-5.2v6.2c0 2 9.4 6 23 6z"/></g></svg>