<svg viewBox="0 0 64 64" xmlns="http://www.w3.org/2000/svg"><path d="m57.8 33.3h-.1a18.1 18.1 0 0 0 -4.7-3.4v-9.9h-52v12h32.7a18.1 18.1 0 0 0 -3.7 4h-29v12a2 2 0 0 0 2 2h24.5a18 18 0 1 0 30.3-16.7zm-47.8-4.3a3 3 0 1 1 3-3 3 3 0 0 1 -3 3zm19-1a2 2 0 0 1 0-4h16a2 2 0 0 1 0 4zm-1.1 12.3a17.7 17.7 0 0 0 -.7 2.7 2 2 0 0 1 -.3-1 2 2 0 0 1 1-1.7zm-17.9 4.7a3 3 0 1 1 3-3 3 3 0 0 1 -3 3zm21.6 5a13.7 13.7 0 0 1 -.6-4 14.1 14.1 0 0 1 .2-2 13.8 13.8 0 0 1 1.2-4 13.9 13.9 0 0 1 21-5.2l-1.2 1.2-5.3 5.3-2.7 2.7-6 6-4.4 4.4a14 14 0 0 1 -2.2-4.4zm13.4 10a13.9 13.9 0 0 1 -8.4-2.8l7.2-7.2 9.2-9.2 3.2-3.2a14 14 0 0 1 -11.2 22.4zm8-56a2 2 0 0 0 -2-2h-48a2 2 0 0 0 -2 2v12h52zm-43 9a3 3 0 1 1 3-3 3 3 0 0 1 -3 3zm35-1h-16a2 2 0 0 1 0-4h16a2 2 0 0 1 0 4z" fill="#2e2c2d"/></svg>