<svg viewBox="0 0 64 64" xmlns="http://www.w3.org/2000/svg"><g fill="#2e2c2d"><path d="m55 30-20.7 20.7-4.4 11.3 11.4-4.3 20.7-20.7z"/><ellipse cx="25" cy="10" rx="23" ry="8"/><path d="m25 29c13.6 0 23-3.9 23-6v-6.2c-5 3.6-14 5.2-23 5.2s-18-1.7-23-5.2v6.2c0 2 9.4 6 23 6zm5.5 20.3a4 4 0 0 1 .9-1.4l3.7-3.7a63.6 63.6 0 0 1 -10.1.8c-9.4 0-19-2-23-5.8v6.8c0 4.3 9.8 7.8 22.1 8h4.6z"/><path d="m25 41a60.1 60.1 0 0 0 15.3-1.8l7.7-7.8v-4.2c-4.1 3.8-13.6 5.8-23 5.8s-19-2-23-5.8v7.8c0 2 9.4 6 23 6z"/></g></svg>