<svg viewBox="0 0 64 64" xmlns="http://www.w3.org/2000/svg"><g fill="#2e2c2d"><path d="m46 31-16 30h32zm-2 12a2 2 0 1 1 4 0v6a2 2 0 1 1 -4 0zm2 14a2 2 0 0 1 -1.4-.6 2 2 0 0 1 0-2.8 2.1 2.1 0 0 1 2.8 0 2 2 0 0 1 0 2.8 2 2 0 0 1 -1.4.6z"/><ellipse cx="25" cy="11" rx="23" ry="8"/><path d="m25 30c13.6 0 23-3.9 23-6v-6.2c-5 3.5-14 5.2-23 5.2s-18-1.7-23-5.2v6.2c0 2 9.4 6 23 6zm8.8 15.4a64.9 64.9 0 0 1 -8.8.6c-9.4 0-19-2-23-5.8v6.8c0 4.3 9.8 7.8 22.1 8h4.5z"/><path d="m25 42a64.4 64.4 0 0 0 11.1-1l4.9-9.2a55.6 55.6 0 0 1 -16 2.2c-9.4 0-19-2-23-5.8v7.8c0 2 9.4 6 23 6z"/></g></svg>