<svg viewBox="0 0 64 64" xmlns="http://www.w3.org/2000/svg"><g fill="#2e2c2d"><path d="m62.4 47a2 2 0 0 0 -2.8 0l-1.5 1.5a14.1 14.1 0 0 0 -4-10 13.9 13.9 0 0 0 -16.4-2.4 2 2 0 1 0 1.9 3.5 9.9 9.9 0 0 1 11.7 1.7 10.1 10.1 0 0 1 2.7 6.9l-1.2-1.2a2 2 0 0 0 -2.8 2.8l6.2 6.3 6.2-6.3a2 2 0 0 0 0-2.8zm-13.5 10.2a9.9 9.9 0 0 1 -11.7-1.7 10.1 10.1 0 0 1 -2.9-6.9l1.2 1.2a2 2 0 0 0 2.9-2.8l-6.2-6.3-6.2 6.3a2 2 0 0 0 2.8 2.8l1.5-1.5a14.1 14.1 0 0 0 4 10 13.9 13.9 0 0 0 9.9 4.1 13.7 13.7 0 0 0 6.6-1.7 2 2 0 1 0 -1.9-3.5z"/><ellipse cx="24" cy="9.6" rx="23" ry="8"/><path d="m24 28.6c13.6 0 23-3.9 23-6v-6.2c-5 3.6-14 5.2-23 5.2s-18-1.7-23-5.2v6.2c0 2 9.4 6 23 6z"/><path d="m24 40.6h2.8l2.6-2.6a4 4 0 0 1 2.8-1.2h.5a6 6 0 0 1 3-4.2 17.8 17.8 0 0 1 8.5-2.2l2.8.3v-3.9c-4 3.8-13.6 5.8-23 5.8s-19-2-23-5.8v7.8c0 2 9.4 6 23 6zm-.8 12.1a6 6 0 0 1 -.4-8.1c-9-.2-18-2.1-21.8-5.8v6.8c0 4.3 9.8 7.8 22.1 8h1.2z"/></g></svg>