<svg viewBox="0 0 64 64" xmlns="http://www.w3.org/2000/svg"><g fill="#2e2c2d"><path d="m61.4 46.5a2 2 0 0 0 -2.8 0l-1.3 1.3a13.7 13.7 0 1 0 -13.6 14.1 2 2 0 0 0 0-4 10 10 0 1 1 9.7-10l-1.5-1.5a2 2 0 1 0 -2.9 2.9l6.2 6.3 6.2-6.3a2 2 0 0 0 0-2.8z"/><ellipse cx="25" cy="10.1" rx="23" ry="8"/><path d="m43.7 29.9a17.2 17.2 0 0 1 4.3.6v-3.2a14.7 14.7 0 0 1 -4.3 2.6zm-17.7 18a18.3 18.3 0 0 1 .3-2.9h-1.3c-9.4 0-19-2-23-5.8v6.8c0 4.3 9.8 7.8 22.1 8h2.9a18.2 18.2 0 0 1 -1-6.1zm-1-6.9h2.4a18 18 0 0 1 7.5-8.7 63.8 63.8 0 0 1 -9.9.8c-9.4 0-19-2-23-5.8v7.8c0 2 9.4 5.9 23 5.9zm0-11.9c13.6 0 23-3.9 23-6v-6.2c-5 3.6-14 5.2-23 5.2s-18-1.7-23-5.2v6.2c0 2 9.4 6 23 6z"/></g></svg>