<svg viewBox="0 0 64 64" xmlns="http://www.w3.org/2000/svg"><g fill="#2e2c2d"><path d="m42 30a16 16 0 1 0 16 16 16 16 0 0 0 -16-16zm7.4 20.6a2 2 0 1 1 -2.8 2.8l-4.6-4.6-4.6 4.6a2 2 0 0 1 -2.8-2.8l4.6-4.6-4.6-4.6a2 2 0 0 1 2.8-2.8l4.6 4.6 4.6-4.6a2 2 0 0 1 2.8 2.8l-4.6 4.6z"/><ellipse cx="29" cy="10" rx="23" ry="8"/><path d="m29 29h2.6a19.7 19.7 0 0 1 14.7-2.4c3.6-1.3 5.7-2.6 5.7-3.6v-6.2c-5 3.5-14 5.2-23 5.2s-18-1.7-23-5.2v6.2c0 2 9.4 6 23 6zm-7 17c0-.5 0-.9.1-1.4-6.9-.7-13.1-2.6-16.1-5.4v6.8c0 3.8 7.5 6.9 17.6 7.8a19.9 19.9 0 0 1 -1.6-7.8zm.7-5.3a20 20 0 0 1 4.1-7.7c-8.6-.3-17.1-2.3-20.8-5.8v7.8c0 1.7 6.6 4.7 16.7 5.7z"/></g></svg>