<svg viewBox="0 0 64 64" xmlns="http://www.w3.org/2000/svg"><g fill="#2e2c2d"><path d="m46 30a16 16 0 1 0 16 16 16 16 0 0 0 -16-16zm8 20h-10v-12a2 2 0 1 1 4 0v8h6a2 2 0 0 1 0 4z"/><path d="m54 4a2 2 0 0 0 -2-2h-48a2 2 0 0 0 -2 2v12h52zm-43 9a3 3 0 1 1 3-3 3 3 0 0 1 -3 3zm35-1h-16a2 2 0 0 1 0-4h16a2 2 0 0 1 0 4zm-20 34a19.9 19.9 0 0 1 2.7-10h-26.7v12a2 2 0 0 0 2 2h22.4a20 20 0 0 1 -.4-4zm-15-1a3 3 0 1 1 3-3 3 3 0 0 1 -3 3zm26.3-17h-7.3a2 2 0 0 1 0-4h16a2 2 0 0 1 2 2 19.8 19.8 0 0 1 6 1.6v-7.6h-52v12h29.7a20.1 20.1 0 0 1 5.6-4zm-26.3 1a3 3 0 1 1 3-3 3 3 0 0 1 -3 3z"/></g></svg>