<svg viewBox="0 0 64 64" xmlns="http://www.w3.org/2000/svg"><g fill="#2e2c2d"><path d="m62.4 59.6-7.6-7.6a12 12 0 1 0 -2.8 2.8l7.6 7.6a2 2 0 1 0 2.8-2.8zm-25.4-14.6a8 8 0 1 1 8 8 8 8 0 0 1 -8-8z"/><path d="m40.5 29.7a15.9 15.9 0 0 1 4.5-.7h2v-3a17.5 17.5 0 0 1 -6.5 3.7z"/><ellipse cx="24" cy="9" rx="23" ry="8"/><path d="m29 45c0-.4 0-.8.1-1.3l-5.1.3c-9.4 0-19-2-23-5.8v6.8c0 4.3 9.8 7.8 22.1 8h8a15.9 15.9 0 0 1 -2.1-8zm-5-17c13.6 0 23-3.9 23-6v-6.2c-5 3.5-14 5.2-23 5.2s-18-1.7-23-5.2v6.2c0 2 9.4 6 23 6z"/><path d="m24 40 5.9-.3a16.1 16.1 0 0 1 10.1-9.9 55.7 55.7 0 0 1 -16 2.2c-9.4 0-19-2-23-5.8v7.8c0 2 9.4 6 23 6z"/></g></svg>