<svg viewBox="0 0 64 64" xmlns="http://www.w3.org/2000/svg"><g fill="#2e2c2d"><path d="m58.613 45.082a11.793 11.793 0 0 0 .187-2.082 11.92 11.92 0 0 0 -.223-2.254l3.086-1.781-4-6.93-3.133 1.809a12.012 12.012 0 0 0 -3.73-2.144v-3.7h-8v3.7a12 12 0 0 0 -3.7 2.117l-3.082-1.781-4 6.93 3.013 1.734a11.747 11.747 0 0 0 -.231 2.3 11.911 11.911 0 0 0 .2 2.125l-3.312 1.91 4 6.93 3.281-1.894a12.012 12.012 0 0 0 3.831 2.229v3.7h8v-3.7a12.1 12.1 0 0 0 3.871-2.262l3.329 1.927 4-6.93zm-11.771 2.918a5 5 0 1 1 5-5 5 5 0 0 1 -5 5z"/><path d="m28.22 49.034a4 4 0 0 1 1.466-5.464l.366-.212a16.231 16.231 0 0 1 -.05-.941 4 4 0 0 1 -1.446-5.451l4-6.93a3.983 3.983 0 0 1 5.089-1.65c.385-.236.778-.458 1.184-.662a3.989 3.989 0 0 1 3.971-3.724h8a3.983 3.983 0 0 1 3.2 1.621v-5.621h-52v30h26.777z"/><path d="m2 6v10h52v-10zm6 7a2 2 0 1 1 2-2 2 2 0 0 1 -2 2zm6 0a2 2 0 1 1 2-2 2 2 0 0 1 -2 2zm6 0a2 2 0 1 1 2-2 2 2 0 0 1 -2 2z"/></g></svg>