<svg viewBox="0 0 64 64" xmlns="http://www.w3.org/2000/svg"><path d="m26.3 57.4 15.7-20.4h15a5 5 0 1 0 0-10h-15l-15.7-20.4s-1.1-1.6-2.3-1.6h-4.2a1.4 1.4 0 0 0 -1.3.7c-.2.5.3 1.9.5 2.4l6.2 18.9h-11.2l-5.5-7.3a1.6 1.6 0 0 0 -1.4-.7h-3.1c-.4 0-1.3.1-.8 1.4s4.8 11.6 4.8 11.6-4.3 10.2-4.8 11.6.4 1.4.8 1.4h3.1a1.6 1.6 0 0 0 1.4-.7l5.5-7.3h11.2l-6.2 18.9c-.2.5-.7 1.9-.5 2.4a1.3 1.3 0 0 0 1.3.7h4.2c1.2 0 2.3-1.6 2.3-1.6z" fill="none" stroke="#2e2c2d" stroke-linecap="round" stroke-linejoin="round" stroke-width="3"/></svg>