<svg viewBox="0 0 64 64" xmlns="http://www.w3.org/2000/svg"><g fill="none" stroke="#2e2c2d" stroke-linecap="round" stroke-linejoin="round" stroke-width="3"><path d="m8 26.5s1-12.2 1.4-15.2a5.7 5.7 0 0 1 5.5-5.3h34.2a5.7 5.7 0 0 1 5.5 5.3c.4 3 1.4 15.2 1.4 15.2"/><path d="m16 50v7a3 3 0 0 1 -3 3h-4a3 3 0 0 1 -3-3v-7m52 0v7a3 3 0 0 1 -3 3h-4a3 3 0 0 1 -3-3v-7"/><path d="m62 50v-15.8a5 5 0 0 0 -1.3-3.5l-2-2c-1.2-1.2-2.7-2.7-4.7-2.7h-44c-2 0-3.4 1.5-4.7 2.7l-2 2a5 5 0 0 0 -1.3 3.5v15.8z"/><rect height="6" rx="2" width="10" x="10" y="36"/><rect height="6" rx="2" width="10" x="44" y="36"/><path d="m28 40h8"/></g></svg>