<svg viewBox="0 0 64 64" xmlns="http://www.w3.org/2000/svg"><g fill="none" stroke="#2e2c2d" stroke-linecap="round" stroke-linejoin="round" stroke-width="3"><path d="m32 8v16m0 6v32m-6-16h-4v8h-2"/><path d="m20 54a2 2 0 0 1 -1.9 2h-4.2a2 2 0 0 1 -1.9-2v-2a2 2 0 0 1 1.9-2h4.2a2 2 0 0 1 1.9 2z"/><path d="m38 46h6v-8h2"/><path d="m46 38a2 2 0 0 1 1.9-2h4.2a2 2 0 0 1 1.9 2v2a2 2 0 0 1 -1.9 2h-4.2a2 2 0 0 1 -1.9-2z"/><path d="m32 16c-9.4 0-9.6-8-11-8h-13m24 8c9.4 0 9.6-8 11-8h13m-30 40v-18a6 6 0 0 1 6-6 6 6 0 0 1 6 6v18"/><path d="m39 3.6c0 1.6-5.3 4.4-7 4.4s-7-2.9-7-4.6c0-1.6 1.3-1.4 3-1.4h8c1.7 0 3-.1 3 1.6z"/></g></svg>