<svg viewBox="0 0 64 64" xmlns="http://www.w3.org/2000/svg"><g fill="none" stroke="#2e2c2d" stroke-linecap="round" stroke-linejoin="round" stroke-width="3"><path d="m9 46.001-5.998-14h24.998l-6-10.001h24.002l5.998 8 8.777 2.982c1.21.411 1.357 2.057.098 3.32l-8.11 8.14"/><path d="m31.879 22 5.039 8h15.082"/><path d="m18 43.999c-4 0-4 2.001-8 2.001s-4-2.001-8-2.001m32 0c-4 0-4 2.001-8 2.001s-4-2.001-8-2.001m32 0c-4 0-4 2.001-8 2.001s-4-2.001-8-2.001m28.002 1a7.758 7.758 0 0 1 -4.002 1.001c-4 0-4-2.001-8-2.001"/></g></svg>