<svg viewBox="0 0 64 64" xmlns="http://www.w3.org/2000/svg"><g fill="none" stroke="#2e2c2d" stroke-linecap="round" stroke-linejoin="round" stroke-width="3"><path d="m16 53-10 9m42-9 10 9"/><path d="m54 32c-1-2.9-8-26-8-26s-.6-4-6-4h-16c-5.4 0-6 4-6 4s-7 23.1-8 26a33.4 33.4 0 0 0 -2 10c0 3.7 1.5 6.8 6.8 10.2s11.6 3.8 17.2 3.8 12-.5 17.2-3.8 6.8-6.5 6.8-10.2a33.3 33.3 0 0 0 -2-10z"/><path d="m42.8 21.6c-.8-3.2-2.6-9.6-2.6-9.6s-.6-2-2.2-2h-12c-1.5 0-2.2 2-2.2 2l-2.7 9.6c-.9 3.2-.9 5 .8 6.4s5.9 4 10 4 8.3-2.6 10-4 1.7-3.6.9-6.4zm-26.8 20.4 8 4m24-4-8 4"/></g></svg>