<svg viewBox="0 0 64 64" xmlns="http://www.w3.org/2000/svg"><g fill="none" stroke="#2e2c2d" stroke-linecap="round" stroke-linejoin="round" stroke-width="3"><path d="m28 12.998v-7.998h8v7.998"/><path d="m18 29.458v-14.55a1.91 1.91 0 0 1 1.91-1.91h24.18a1.91 1.91 0 0 1 1.91 1.91v14.55"/><path d="m10 30.997 22-3.998 22 3.998m-28-9.999h12m-24.863 9.429c1.422 14.578 6.855 23.646 6.855 23.646m30.856-23.646c-1.422 14.578-6.856 23.646-6.856 23.646"/><path d="m8 52.99a5.996 5.996 0 0 0 11.992.083 5.996 5.996 0 0 0 11.992-.082m.016-.001a5.996 5.996 0 0 0 11.992.083 5.996 5.996 0 0 0 11.992-.082"/><circle cx="24" cy="40.996" r="2"/><circle cx="40" cy="40.996" r="2"/><path d="m16.723 46.692a5.001 5.001 0 1 1 -2.604-9.62m33.141 9.614a5.001 5.001 0 1 0 2.62-9.613"/></g></svg>