<svg viewBox="0 0 64 64" xmlns="http://www.w3.org/2000/svg"><g fill="none" stroke="#2e2c2d" stroke-linecap="round" stroke-linejoin="round" stroke-width="3"><path d="m27.9 45.4c-.9-4.3-3.7-14.7-3.2-21.4s4.4-22.7-10-22c-4.2.3-14.2 1.6-12.5 16.4s8 33.5 15.5 35.3 11-4 10.2-8.3zm22.7-33.2c-14.4-2.3-12.3 13.6-12.6 20.2s-4.3 16.3-5.7 20.4 1.5 10 9.3 9.1 16.3-18.3 19.7-32.5-6.5-16.5-10.7-17.2z"/><path d="m14 10c.8 2.1-1.5 5.3-4 8s-7.5 12.1 0 20m12-4s5.2-13.4-8.2-21.4m36.6 7.2c-1 2 .9 5.3 3.1 8.3s6.2 12.7-2.3 19.6m-11.7-5.2s-3.7-13.7 10.8-20"/></g></svg>