<svg viewBox="0 0 64 64" xmlns="http://www.w3.org/2000/svg"><g fill="none" stroke="#2e2c2d" stroke-linecap="round" stroke-linejoin="round" stroke-width="3"><path d="m18.999 56.005-9.998 5.997m36.001-5.997 9.996 5.997"/><path d="m28 6.01h-13a3 3 0 0 0 -3 3v19.369c-2.326.827-2 3.024-2 5.633v15.992a6 6 0 0 0 6 6h32a6 6 0 0 0 6-6v-15.992c0-2.609.326-4.806-2-5.633v-19.37a3 3 0 0 0 -3-3h-13m-26 33.995h44"/><circle cx="32" cy="6.003" r="4"/><circle cx="22" cy="30.006" r="2"/><circle cx="42" cy="30.006" r="2"/><path d="m12 20.002h40"/></g></svg>