<svg viewBox="0 0 64 64" xmlns="http://www.w3.org/2000/svg"><g fill="none" stroke="#2e2c2d" stroke-linecap="round" stroke-linejoin="round" stroke-width="3"><path d="m4 20.859v-7.359a9.519 9.519 0 0 1 9.518-9.519h7.482m39 16.753v-7.234a9.519 9.519 0 0 0 -9.517-9.519h-7.248m-39.235 39.16v7.34a9.518 9.518 0 0 0 9.518 9.519h7.388m39.094-16.888v7.369a9.518 9.518 0 0 1 -9.517 9.519h-7.307"/><circle cx="32.002" cy="32" r="30"/><circle cx="32.002" cy="32" r="18"/><path d="m26.05 14.941-2.05-11.862m13.951 11.873 2.049-11.736m-13.939 45.836-2.005 11.845m13.886-11.845 2.058 11.789m9.095-34.766 11.766-1.99m-11.746 13.9 11.699 2.043m-45.989-13.967-11.764-1.99m11.827 13.914-11.698 2.043"/></g></svg>