<svg viewBox="0 0 64 64" xmlns="http://www.w3.org/2000/svg"><g fill="none" stroke="#2e2c2d" stroke-linecap="round" stroke-linejoin="round" stroke-width="3"><path d="m23.743 24.667c-6.24-.762-10.203-1.926-15.021 4.909-4.819 6.842-5.722 12.424-5.722 12.424l10.423-2.046m10.664 10.664-2.087 10.381s5.622-.86 12.462-5.678c6.84-4.819 5.674-8.783 4.91-15.024"/><circle cx="49" cy="14.999" r="4"/><circle cx="39" cy="25" r="4"/><path d="m61.929 2.113s-14.424-2.301-30.592 13.865c-9.781 9.78-17.914 23.976-17.914 23.976l10.664 10.664s14.195-8.134 23.976-17.915c16.165-16.166 13.867-30.59 13.867-30.59z"/></g></svg>