<svg viewBox="0 0 64 64" xmlns="http://www.w3.org/2000/svg"><g fill="none" stroke="#2e2c2d" stroke-linecap="round" stroke-linejoin="round" stroke-width="3"><circle cx="46" cy="18" r="4"/><path d="m8.8 38.2a4 4 0 0 1 -5.7 0 4 4 0 0 1 0-5.7l7.1-7.1a4 4 0 0 1 5.7 0 4 4 0 0 1 0 5.7zm22.7 22.6a4 4 0 0 1 -5.7 0 4 4 0 0 1 0-5.7l7.1-7.1a4 4 0 0 1 5.7 0 4 4 0 0 1 0 5.7z"/><path d="m18.7 39.6-5.6-5.6 28.3-28.4a12 12 0 0 1 16.9.1 12 12 0 0 1 .1 16.9l-28.4 28.3-5.7-5.7"/><path d="m20.1 49.5a4 4 0 0 1 -5.7 0 4 4 0 0 1 0-5.7l7.1-7.1a4 4 0 0 1 5.7 0 4 4 0 0 1 0 5.7z"/></g></svg>