<svg viewBox="0 0 64 64" xmlns="http://www.w3.org/2000/svg"><g fill="none" stroke="#2e2c2d" stroke-linecap="round" stroke-linejoin="round" stroke-width="3"><circle cx="32" cy="22" r="4"/><path d="m22 26h-3.1a2.9 2.9 0 0 0 -2.9 2.9v12.2a2.9 2.9 0 0 1 -2.4 2.9h-2.7a2.9 2.9 0 0 0 -2.9 2.9v11.1h8m26-32h3.1a2.9 2.9 0 0 1 2.9 2.9v12.2a2.9 2.9 0 0 0 2.4 2.9h2.6a2.9 2.9 0 0 1 3 2.9v11.1h-8m-20 0h8m6-6v-32.2c0-10.9-10-17.8-10-17.8s-10 6.9-10 17.8v32.2"/><path d="m28 62v-4a6 6 0 1 0 -12 0v4zm20 0v-4a6 6 0 1 0 -12 0v4z"/></g></svg>