<svg viewBox="0 0 64 64" xmlns="http://www.w3.org/2000/svg"><g fill="none" stroke="#2e2c2d" stroke-linecap="round" stroke-linejoin="round" stroke-width="3"><path d="m8 62 11.7-6.1m36.3 6.1-11.7-6.1"/><path d="m42.3 40h3.7l4 14-18 6-18-6 4-14h3.6"/><path d="m36.3 22.9h1.3a8.2 8.2 0 0 0 4.4-1.3 4.8 4.8 0 0 0 7.8-5 4.5 4.5 0 0 0 -.8-8.8l-1.5.3a3 3 0 0 0 -4.3-1.9 4.9 4.9 0 0 0 -9.5-.6 4.2 4.2 0 1 0 -3.8 6.4 8.5 8.5 0 0 0 -.5 2"/><path d="m32 46v14"/><circle cx="32" cy="34" r="12"/><circle cx="32" cy="34" r="4"/><path d="m28 14v8.7m8 0v-8.7m-10 0h12"/></g></svg>