<svg viewBox="0 0 64 64" xmlns="http://www.w3.org/2000/svg"><g fill="none" stroke="#2e2c2d" stroke-linecap="round" stroke-linejoin="round" stroke-width="3"><path d="m18 52v6a2 2 0 0 1 -2 2h-8a2 2 0 0 1 -2-2v-6m52 0v6a2 2 0 0 1 -2 2h-8a2 2 0 0 1 -2-2v-6m-22-22v4m8-4v4m8-4v4"/><path d="m4 42v-14.6c0-3.8 5.7-7.4 5.7-7.4l6.3-16h32l6.3 16s5.7 3.6 5.7 7.4v14.6"/><rect height="10" rx="2" width="60" x="2" y="42"/><path d="m4 28h10a2 2 0 0 1 2 2v4a2 2 0 0 1 -2 2h-10m56-8h-10a2 2 0 0 0 -2 2v4a2 2 0 0 0 2 2h10m-50.3-16h44.6m-43.8-2h-6.5m49.5 0h6.5"/></g></svg>