<svg viewBox="0 0 64 64" xmlns="http://www.w3.org/2000/svg"><g fill="none" stroke="#2e2c2d" stroke-linecap="round" stroke-linejoin="round" stroke-width="3"><path d="m48 25h-28m28 16h-28m-10-31a5 5 0 0 1 5-5 5 5 0 0 1 5 5v41.3m18-41.3a5 5 0 0 1 5-5 5 5 0 0 1 5 5v41.2"/><path d="m18 51c-4 0-4 2-8 2s-4-2-8-2m32 0c-4 0-4 2-8 2s-4-2-8-2m32 0c-4 0-4 2-8 2s-4-2-8-2m28 1a7.8 7.8 0 0 1 -4 1c-4 0-4-2-8-2m-32 8c-4 0-4 2-8 2s-4-2-8-2m32 0c-4 0-4 2-8 2s-4-2-8-2m32 0c-4 0-4 2-8 2s-4-2-8-2m28 1a7.7 7.7 0 0 1 -4 1c-4 0-4-2-8-2"/></g></svg>