<?xml version="1.0" encoding="utf-8"?>
<!-- Generator: Adobe Illustrator 23.0.1, SVG Export Plug-In . SVG Version: 6.00 Build 0)  -->
<svg version="1.1" id="Layer_1" xmlns="http://www.w3.org/2000/svg" xmlns:xlink="http://www.w3.org/1999/xlink" x="0px" y="0px"
	 viewBox="0 0 270.27 25.44" style="enable-background:new 0 0 270.27 25.44;" xml:space="preserve">
<polyline points="242.53,0 251.29,0 263.73,17.68 263.82,17.68 263.82,0 270.27,0 270.27,25.44 261.84,25.44 249.06,7.33 
	248.98,7.33 248.98,25.44 242.53,25.44 242.53,0 "/>
<polyline points="0,0 19.63,0 19.63,5.18 6.45,5.18 6.45,10.35 18.64,10.35 18.64,15.53 6.45,15.53 6.45,25.44 0,25.44 0,0 "/>
<path d="M34.51,0h11.32c5.99,0,11.04,1.79,11.04,7.72c0,3.56-2.19,6.32-6.32,6.97l7.44,10.74h-7.73l-6.12-10.17h-3.18v10.17h-6.44V0
	 M40.95,10.53h3.8c2.36,0,5.41-0.07,5.41-2.84c0-2.54-2.65-2.94-5-2.94h-4.22V10.53z"/>
<polyline points="73.36,0 93.24,0 93.24,5.18 79.81,5.18 79.81,9.92 92.5,9.92 92.5,15.09 79.81,15.09 79.81,20.27 93.99,20.27 
	93.99,25.44 73.36,25.44 73.36,0 "/>
<polyline points="113.8,0 133.68,0 133.68,5.18 120.25,5.18 120.25,9.92 132.93,9.92 132.93,15.09 120.25,15.09 120.25,20.27 
	134.42,20.27 134.42,25.44 113.8,25.44 113.8,0 "/>
<polyline points="153,0 162.76,0 169.49,16.6 169.58,16.6 176.36,0 186.08,0 186.08,25.44 179.62,25.44 179.62,5.92 179.54,5.92 
	171.85,25.44 166.93,25.44 159.54,5.92 159.46,5.92 159.46,25.44 153,25.44 153,0 "/>
<path d="M211.26,0h5.33l12.72,25.44h-7.27l-2.53-5.39h-11.36l-2.44,5.39h-7.11L211.26,0 M213.75,7.4l-3.55,7.91h7.15L213.75,7.4z"/>
</svg>
