<svg xmlns="http://www.w3.org/2000/svg" viewBox="0 0 64 64" aria-labelledby="title"
aria-describedby="desc" role="img" xmlns:xlink="http://www.w3.org/1999/xlink">
  <title>Back Arrow</title>
  <desc>A solid styled icon from Orion Icon Library.</desc>
  <path data-name="layer1"
  d="M32 64A32 32 0 1 0 0 32a32 32 0 0 0 32 32zM20.634 24.54a2 2 0 0 1 2.732 2.921L18.511 32H42a4 4 0 0 0 0-8 2 2 0 0 1 0-4 8 8 0 0 1 0 16H18.509l4.857 4.54a2 2 0 0 1-2.732 2.921L10.513 34z"
  fill="#2e2c2d"></path>
</svg>