<svg xmlns="http://www.w3.org/2000/svg" viewBox="0 0 64 64" aria-labelledby="title"
aria-describedby="desc" role="img" xmlns:xlink="http://www.w3.org/1999/xlink">
  <title>Forward Arrow</title>
  <desc>A solid styled icon from Orion Icon Library.</desc>
  <path data-name="layer1"
  d="M32 0a32 32 0 1 0 32 32A32 32 0 0 0 32 0zm11.366 39.463a2 2 0 0 1-2.732-2.922l4.855-4.539H22a4 4 0 0 0 0 8 2 2 0 0 1 0 4 8 8 0 0 1 0-16h23.491l-4.857-4.541a2 2 0 0 1 2.732-2.922L53.487 30z"
  fill="#2e2c2d"></path>
</svg>