<svg xmlns="http://www.w3.org/2000/svg" viewBox="0 0 64 64" aria-labelledby="title"
aria-describedby="desc" role="img" xmlns:xlink="http://www.w3.org/1999/xlink">
  <title>Shield Crossmark</title>
  <desc>A solid styled icon from Orion Icon Library.</desc>
  <path data-name="layer1"
  d="M4 .024v23.987a43.785 43.785 0 0 0 27.227 39.646l.762.319.764-.315A43.62 43.62 0 0 0 60 24.011V.024zm39.41 36.573a2 2 0 1 1-2.828 2.828l-8.584-8.583-8.588 8.589a2 2 0 0 1-2.828-2.828l8.588-8.59-8.588-8.588a2 2 0 0 1 2.828-2.828l8.588 8.589 8.584-8.583a2 2 0 0 1 2.828 2.828l-8.584 8.583z"
  fill="#2e2c2d"></path>
</svg>