<svg viewBox="0 0 64 64" xmlns="http://www.w3.org/2000/svg"><g fill="#2e2c2d"><path d="m20 42a5 5 0 0 1 -5 5 2 2 0 0 0 0 4 9 9 0 0 0 9-9 2 2 0 0 0 -4 0zm34 0a5 5 0 0 1 -5 5 2 2 0 0 0 0 4 9 9 0 0 0 9-9 2 2 0 0 0 -4 0z"/><path d="m62.8 36.2-10.5-23.3-.3-.6h-.1a9.7 9.7 0 0 0 -8.4-5.3 9.5 9.5 0 0 0 -9.4 8.2 12.2 12.2 0 0 0 -4.2 0 9.5 9.5 0 0 0 -9.4-8.2 9.7 9.7 0 0 0 -8.5 5.2l-.3.6-10.5 23.4a15 15 0 1 0 28.8 5.8v-10.7a8.1 8.1 0 0 1 4 0v10.7a15 15 0 1 0 28.8-5.8zm-47.8 16.8a11 11 0 1 1 11-11 11 11 0 0 1 -11 11zm34 0a11 11 0 1 1 11-11 11 11 0 0 1 -11 11z"/></g></svg>