<svg viewBox="0 0 64 64" xmlns="http://www.w3.org/2000/svg"><g fill="#2e2c2d"><path d="m14.884 28h-12.97a2 2 0 0 1 0-4h12.97a2 2 0 1 1 0 4zm9-11.031a2 2 0 0 1 -2-2v-12.97a2 2 0 0 1 4 0v12.97a2 2 0 0 1 -2 2zm-8 3.031a1.994 1.994 0 0 1 -1.414-.586l-9.17-9.171a2 2 0 1 1 2.828-2.829l9.171 9.171a2 2 0 0 1 -1.414 3.414zm45.97 20h-12.97a2 2 0 0 1 0-4h12.97a2 2 0 0 1 0 4zm-21.97 24a2 2 0 0 1 -2-2v-12.97a2 2 0 1 1 4 0v12.97a2 2 0 0 1 -2 2zm17.171-6.83a1.993 1.993 0 0 1 -1.414-.586l-9.17-9.17a2 2 0 1 1 2.827-2.829l9.171 9.17a2 2 0 0 1 -1.414 3.415z"/><path d="m26.954 41.088a4.673 4.673 0 0 1 0 6.608l-8.262 8.262a4.675 4.675 0 0 1 -6.609 0l-3.955-3.956a4.673 4.673 0 0 1 -.001-6.61l8.262-8.26a4.673 4.673 0 0 1 6.609 0l2.246-4.218a9.35 9.35 0 0 0 -12.16.913l-8.262 8.263a9.347 9.347 0 0 0 0 13.218l3.957 3.956a9.346 9.346 0 0 0 13.218 0l8.262-8.264a9.351 9.351 0 0 0 .893-12.186zm10.263-18.176a4.673 4.673 0 0 1 0-6.608l8.261-8.262a4.675 4.675 0 0 1 6.609 0l3.956 3.956a4.673 4.673 0 0 1 0 6.61l-8.26 8.26a4.673 4.673 0 0 1 -6.61 0l-2.246 4.218a9.351 9.351 0 0 0 12.16-.913l8.261-8.262a9.347 9.347 0 0 0 0-13.217l-3.956-3.957a9.346 9.346 0 0 0 -13.219 0l-8.261 8.263a9.351 9.351 0 0 0 -.894 12.187z"/></g></svg>