<svg viewBox="0 0 64 64" xmlns="http://www.w3.org/2000/svg"><path d="m63.258 31.047c-.411-.758-10.309-18.563-31.258-18.563s-30.847 17.806-31.258 18.563l-.517.953.517.953c.411.758 10.309 18.563 31.258 18.563s30.847-17.806 31.258-18.563l.517-.953zm-31.074 3.437a2 2 0 0 1 0 4 7.207 7.207 0 0 1 -7.2-7.199 6.742 6.742 0 0 1 .962-3.597 2.433 2.433 0 0 1 2.734-.729 2 2 0 0 1 .73 2.732 3.2 3.2 0 0 0 2.774 4.793zm-.184 13.032c-15.892 0-24.87-12.002-27.155-15.516 2.235-3.436 10.862-14.964 26.078-15.49a15 15 0 1 0 2.154 0c15.218.526 23.843 12.057 26.078 15.49-2.288 3.517-11.265 15.516-27.155 15.516z" fill="#2e2c2d"/></svg>