<svg viewBox="0 0 64 64" xmlns="http://www.w3.org/2000/svg"><g fill="#2e2c2d"><path d="m34.032 19.357-25.6 25.6 1.068 1.062-6.07 6.069 2.828 2.829-4.672 4.669a2 2 0 1 0 2.828 2.828l4.668-4.669 2.828 2.829 6.07-6.071 1.063 1.063 25.6-25.6z"/><path d="m26.123 20.781a1.994 1.994 0 0 0 1.414-.586l14.188-14.187a3.381 3.381 0 0 1 2.4-1 3.378 3.378 0 0 1 2.4 1l.424.424-10.1 10.1 10.62 10.608 15.531-15.53-10.611-10.61-2.6 2.6-.423-.423a7.347 7.347 0 0 0 -5.232-2.17 7.352 7.352 0 0 0 -5.234 2.173l-14.191 14.187a2 2 0 0 0 1.414 3.414z"/></g></svg>