<svg viewBox="0 0 64 64" xmlns="http://www.w3.org/2000/svg"><g fill="#2e2c2d"><path d="m53.4 0-2.6 2.6-.4-.4a7.4 7.4 0 0 0 -10.5 0l-14.2 14.2a2 2 0 1 0 2.8 2.8l14.2-14.2a3.5 3.5 0 0 1 4.8 0l.4.4-10 10.1 10.6 10.6 15.5-15.5z"/><path d="m11.4 42 1.3 1.3h-.9a8.9 8.9 0 0 0 -6.4 2.6l-.8.9a8.9 8.9 0 0 0 -1.4 2.6c-2 4.7-3 11.8-3 12.1l-.2 2.5 2.6-.3c.3 0 7.6-1 12.3-3.1a8.7 8.7 0 0 0 2.3-1.2l1-.8a8.9 8.9 0 0 0 2.6-6.4v-.9l1.3 1.3 23.6-23.6-10.7-10.6zm3.9 13.8-.5.4-1.3.7h-.1a30.8 30.8 0 0 1 -5 1.6l3.4-3.5a2 2 0 0 0 -2.8-2.8l-3.5 3.5a32.4 32.4 0 0 1 1.5-4.9v-.2a5.2 5.2 0 0 1 .8-1.5l.4-.4a5 5 0 1 1 7.1 7.1z"/></g></svg>