<svg viewBox="0 0 64 64" xmlns="http://www.w3.org/2000/svg"><g fill="#2e2c2d"><path d="m62.6.2a2 2 0 0 0 -2.2.4l-10.5 10.6v-6.5a2 2 0 0 0 -.2-.9 2 2 0 0 0 -2.7-1c-6.8 3.3-14.8 10.5-15.1 26.4l-4.5 4.5a2 2 0 1 0 2.8 2.8l4.5-4.5c8.7 0 29.2-1 29.2-30a2 2 0 0 0 -1.3-1.8zm-23.7 27.6 20.7-20.7c-1.5 15.7-10.3 19.9-20.7 20.7z"/><path d="m22.1 48.5v-3.5a1 1 0 0 1 1-1h1a1.1 1.1 0 0 0 1-1v-4a1 1 0 0 0 -1-1h-12a1 1 0 0 0 -1 1v4a1 1 0 0 0 1 1h1a1 1 0 0 1 1 1v3.5a18.6 18.6 0 0 0 -14 15.5h36a18.6 18.6 0 0 0 -14-15.5z"/></g></svg>