<svg viewBox="0 0 64 64" xmlns="http://www.w3.org/2000/svg"><g fill="#2e2c2d"><path d="m54 21h-10a8 8 0 0 0 -8 8v5h4v-5a4 4 0 0 1 4-4h10a4 4 0 0 1 4 4v6a4 4 0 0 1 -4 4h-10a3.99 3.99 0 0 1 -3.858-3h-4.073a7.997 7.997 0 0 0 7.931 7h10a8 8 0 0 0 8-8v-6a8 8 0 0 0 -8-8zm-34 18h-10a4 4 0 0 1 -4-4v-6a4 4 0 0 1 4-4h10a4 4 0 0 1 4 4v5h4v-5a8 8 0 0 0 -8-8h-10a8 8 0 0 0 -8 8v6a8 8 0 0 0 8 8h10a7.997 7.997 0 0 0 7.93-7h-4.072a3.99 3.99 0 0 1 -3.858 3z"/><path d="m48.273 32a2 2 0 0 1 -2 2h-28.997a2 2 0 0 1 -2-2 2 2 0 0 1 2-2h28.997a2 2 0 0 1 2 2z"/></g></svg>