<svg viewBox="0 0 64 64" xmlns="http://www.w3.org/2000/svg"><g fill="#2e2c2d"><path d="m59.263 9.694-4.957-4.957a9.347 9.347 0 0 0 -13.218 0l-8.262 8.263a9.348 9.348 0 0 0 0 13.218l.825.826 1.501 1.5 3.305-3.304-1.5-1.5-.826-.827a4.674 4.674 0 0 1 -.001-6.609l8.262-8.262a4.675 4.675 0 0 1 6.609 0l4.957 4.958a4.674 4.674 0 0 1 0 6.608l-8.262 8.262a4.674 4.674 0 0 1 -5.864.605l-3.341 3.34a9.349 9.349 0 0 0 12.51-.64l8.262-8.262a9.346 9.346 0 0 0 0-13.218zm-31.393 38.003-8.262 8.261a4.675 4.675 0 0 1 -6.609 0l-4.957-4.957a4.671 4.671 0 0 1 0-6.609l8.262-8.261a4.674 4.674 0 0 1 6.61 0l.824.826 1.5 1.5 3.305-3.304-1.501-1.501-.824-.826a9.348 9.348 0 0 0 -13.219 0l-8.262 8.262a9.346 9.346 0 0 0 0 13.218l4.957 4.957a9.348 9.348 0 0 0 13.22 0l8.259-8.263a9.351 9.351 0 0 0 .64-12.51l-3.34 3.34a4.674 4.674 0 0 1 -.605 5.866z"/><path d="m45.444 18.556a2.338 2.338 0 0 1 0 3.305l-23.956 23.955a2.336 2.336 0 0 1 -3.304 0 2.337 2.337 0 0 1 0-3.305l23.956-23.955a2.338 2.338 0 0 1 3.304 0z"/></g></svg>