<svg viewBox="0 0 64 64" xmlns="http://www.w3.org/2000/svg"><g fill="#2e2c2d"><path d="m19.6 19 12.1-5-31.7-14 14.8 30.9z"/><path d="m62.8 40.2 1.2-1.3-7.6-7.6a2 2 0 0 0 -2.8 2.8l2.8 2.9h-15.4v-15.4l2.7 2.7a2 2 0 1 0 2.8-2.8l-7.5-7.5-1.4 1.4-6.1 6.1a2 2 0 1 0 2.8 2.8l2.7-2.7v15.4h-15.3l2.8-2.8a2 2 0 1 0 -2.8-2.8l-7.7 7.5 1.2 1.2.4.4 5.9 5.9a2 2 0 1 0 2.8-2.8l-2.6-2.6h15.3v15.4l-2.7-2.7a2 2 0 1 0 -2.8 2.8l6.1 6.1 1.4 1.4 1.4-1.4 6.1-6.1a2 2 0 0 0 -2.8-2.8l-2.7 2.7v-15.4h15.3l-2.7 2.7a2 2 0 1 0 2.8 2.8l5.9-5.9z"/></g></svg>