<svg viewBox="0 0 64 64" xmlns="http://www.w3.org/2000/svg"><g fill="#2e2c2d"><path d="m37.227 10.768 2.936-2.936 16.002 16.003-2.936 2.936zm6.588 12.244-23.184 23.188a7.326 7.326 0 0 0 .014 10.332l1.414 1.414 28.341-28.346zm-25.998 36.344a11.312 11.312 0 0 1 -3.117-10.056 11.386 11.386 0 0 1 -2.055.192 11.242 11.242 0 0 1 -8-3.314l-.788-.788-3.857 18.61 18.6-3.856zm16.583-45.756-28.343 28.339 1.414 1.414a7.316 7.316 0 0 0 10.346 0l23.169-23.17z"/><path d="m63.942 11.143a12.507 12.507 0 0 0 -3.774-7.313 12 12 0 0 0 -8.35-3.83 9.37 9.37 0 0 0 -6.712 2.889l-2.116 2.111 16 16 2.114-2.114a9.256 9.256 0 0 0 2.838-7.743z"/></g></svg>