<svg viewBox="0 0 64 64" xmlns="http://www.w3.org/2000/svg"><g fill="#2e2c2d"><path d="m39.998 39.29a7.987 7.987 0 0 0 6.002 2.71h8a8 8 0 0 0 8-8v-4a8 8 0 0 0 -8-8h-8a7.999 7.999 0 0 0 -6.93 4l3.32 2.276a4.002 4.002 0 0 1 3.611-2.277h7.999a4 4 0 0 1 4 4v3.998a4 4 0 0 1 -4 4h-7.999a3.996 3.996 0 0 1 -3.42-1.926zm-18.683-3.056a3.994 3.994 0 0 1 -3.316 1.763h-7.999a4 4 0 0 1 -4-4v-3.997a4 4 0 0 1 4-4h7.998a3.998 3.998 0 0 1 3.314 1.76l3.617-1.76a7.998 7.998 0 0 0 -6.929-4h-8a8 8 0 0 0 -8 8v4a8 8 0 0 0 8 8h8a7.984 7.984 0 0 0 6.002-2.71z"/><path d="m23 19a1.994 1.994 0 0 1 -1.414-.586l-9-9a2 2 0 0 1 2.828-2.828l9 9a2 2 0 0 1 -1.414 3.414zm18 0a2 2 0 0 1 -1.414-3.415l9-8.999a2 2 0 0 1 2.828 2.829l-9 8.999a1.994 1.994 0 0 1 -1.414.586zm-9-1a2 2 0 0 1 -2-2v-14a2 2 0 0 1 4 0v14a2 2 0 0 1 -2 2zm-18 40a2 2 0 0 1 -1.414-3.415l9-9a2 2 0 0 1 2.828 2.829l-9 9a1.993 1.993 0 0 1 -1.414.586zm36 0a1.993 1.993 0 0 1 -1.414-.586l-9-9a2 2 0 1 1 2.828-2.829l9 9a2 2 0 0 1 -1.414 3.415zm-18 6a2 2 0 0 1 -2-2v-14a2 2 0 0 1 4 0v14a2 2 0 0 1 -2 2z"/></g></svg>