<svg viewBox="0 0 64 64" xmlns="http://www.w3.org/2000/svg"><path d="m60.8 23.2a11 11 0 0 0 -18.8 7.6 37.9 37.9 0 0 0 -5.1-3.1 41.7 41.7 0 0 0 -3.6-5.7 11 11 0 0 0 7.5-18.8 11 11 0 0 0 -15.6 15.6l.2.2a46.6 46.6 0 0 1 5.4 6.5 24.5 24.5 0 0 0 -10.7-.5c-5.9 1.1-14.2 5.2-19.9 18.2a2 2 0 0 0 1.8 2.8l.8-.2 29-13.5-11.7 29a2 2 0 0 0 1.9 2.7l.8-.2c12.3-5.4 16.1-13.2 17.2-18.8a24.5 24.5 0 0 0 -.7-11.3 41.3 41.3 0 0 1 5.7 4.9l.2.2a11 11 0 0 0 15.6-15.6zm-32.7-17.1a7 7 0 1 1 -2 5 7 7 0 0 1 2-5zm29.9 29.8a7 7 0 1 1 0-9.9 7 7 0 0 1 0 9.9z" fill="#2e2c2d"/></svg>