<svg viewBox="0 0 64 64" xmlns="http://www.w3.org/2000/svg"><g fill="#2e2c2d"><path d="m61.225.588-9.945 4.058a1 1 0 0 0 -.6.735l-.95 4.883a1 1 0 0 1 -.275.516l-14.662 14.66 3.835 3.835 14.707-14.706a1 1 0 0 1 .523-.276l4.843-.908a1 1 0 0 0 .73-.578l4.291-9.684a1 1 0 0 0 -.207-1.112l-1.2-1.2a1 1 0 0 0 -1.09-.223z"/><path d="m13.88 61.627 14.66-14.66a8.071 8.071 0 0 0 2.266-4.484l7.08-4.911a2.914 2.914 0 0 0 .473-4.566l-7.3-7.3a2.914 2.914 0 0 0 -4.566.473l-4.851 6.994a8.074 8.074 0 0 0 -4.612 2.284l-14.657 14.663a8.136 8.136 0 1 0 11.507 11.507z"/></g></svg>