<svg viewBox="0 0 64 64" xmlns="http://www.w3.org/2000/svg"><g fill="#2e2c2d"><path d="m63.946 11.455-7.438 4.7a1.391 1.391 0 0 1 -1.634-.107l-3.067-2.556a1.391 1.391 0 0 1 -.447-.687l-.974-3.405a1.391 1.391 0 0 1 .646-1.59l8.5-4.867a12.52 12.52 0 0 0 -20.479 11.119 4.278 4.278 0 0 1 -1.174 3.587l-20.232 20.232a4.245 4.245 0 0 1 -3.562 1.175 12.311 12.311 0 0 0 -1.564-.1 12.436 12.436 0 0 0 -12.364 14.409l8.443-5.338a1.391 1.391 0 0 1 1.634.107l3.067 2.556a1.391 1.391 0 0 1 .447.687l.974 3.409a1.391 1.391 0 0 1 -.646 1.59l-9 5.155a12.449 12.449 0 0 0 8.246 2.444 12.516 12.516 0 0 0 11.611-14.151 4.208 4.208 0 0 1 1.15-3.56l20.16-20.164a4.229 4.229 0 0 1 3.572-1.172 12.52 12.52 0 0 0 14.185-12.406c0-.36-.024-.715-.054-1.067z"/><path d="m53.34 39.094a12.574 12.574 0 0 0 -3.517-.028 4.208 4.208 0 0 1 -3.56-1.15l-4.5-4.5-8.41 8.41 4.529 4.529a4.245 4.245 0 0 1 1.175 3.562 12.315 12.315 0 0 0 -.1 1.564 12.435 12.435 0 0 0 14.408 12.362l-5.338-8.443a1.391 1.391 0 0 1 .107-1.634l2.556-3.067a1.391 1.391 0 0 1 .687-.447l3.409-.974a1.391 1.391 0 0 1 1.59.646l5.155 9a12.449 12.449 0 0 0 2.444-8.246 12.591 12.591 0 0 0 -10.635-11.584zm-27.24-21.337a4.229 4.229 0 0 1 -1.172-3.572 12.52 12.52 0 0 0 -12.406-14.185c-.36 0-.714.024-1.067.054l4.7 7.438a1.391 1.391 0 0 1 -.107 1.634l-2.556 3.067a1.391 1.391 0 0 1 -.687.447l-3.405.974a1.391 1.391 0 0 1 -1.59-.646l-4.867-8.5a12.512 12.512 0 0 0 6.823 20.265 12.366 12.366 0 0 0 4.3.214 4.279 4.279 0 0 1 3.587 1.174l4.465 4.465 8.41-8.41z"/></g></svg>