<svg viewBox="0 0 64 64" xmlns="http://www.w3.org/2000/svg"><path d="m58 8h-14v-2.1a5.9 5.9 0 0 0 -5.9-5.9h-12.2a5.9 5.9 0 0 0 -5.9 5.9v2.1h-14a2 2 0 0 0 0 4h3.7l2.8 45.2a7 7 0 0 0 6.8 6.8h25.4a7 7 0 0 0 6.9-6.8l2.7-45.2h3.7a2 2 0 0 0 0-4zm-34-2.1a1.9 1.9 0 0 1 1.9-1.9h12.2a1.9 1.9 0 0 1 1.9 1.9v2.1h-16zm.1 50.1h-.1a2 2 0 0 1 -2-1.9l-2-36a2 2 0 0 1 4-.2l2 36a2 2 0 0 1 -1.9 2.1zm9.9-2a2 2 0 0 1 -4 0v-36a2 2 0 0 1 4 0zm8 .1a2 2 0 0 1 -2 1.9h-.1a2 2 0 0 1 -1.9-2.1l2-36a2 2 0 0 1 4 .2z" fill="#2e2c2d"/></svg>