<svg viewBox="0 0 64 64" xmlns="http://www.w3.org/2000/svg"><path d="m63.946 11.455-7.438 4.7a1.391 1.391 0 0 1 -1.634-.107l-3.067-2.556a1.391 1.391 0 0 1 -.447-.687l-.974-3.405a1.391 1.391 0 0 1 .646-1.59l8.5-4.867a12.52 12.52 0 0 0 -20.479 11.119 4.278 4.278 0 0 1 -1.174 3.587l-20.232 20.232a4.245 4.245 0 0 1 -3.562 1.175 12.311 12.311 0 0 0 -1.564-.1 12.436 12.436 0 0 0 -12.364 14.409l8.443-5.338a1.391 1.391 0 0 1 1.634.107l3.067 2.556a1.391 1.391 0 0 1 .447.687l.974 3.409a1.391 1.391 0 0 1 -.646 1.59l-9 5.155a12.449 12.449 0 0 0 8.246 2.444 12.516 12.516 0 0 0 11.611-14.151 4.208 4.208 0 0 1 1.15-3.56l20.16-20.164a4.229 4.229 0 0 1 3.572-1.172 12.52 12.52 0 0 0 14.185-12.406c0-.36-.024-.715-.054-1.067z" fill="#2e2c2d"/></svg>