<svg viewBox="0 0 64 64" xmlns="http://www.w3.org/2000/svg"><g fill="#2e2c2d"><path d="m44.4 18.4a2 2 0 1 0 -2.8-2.8l-11 11-15.5-15.6a24 24 0 0 0 33.9 33.9l-15.5-15.5z"/><path d="m54.3 5.7a16 16 0 0 0 -18.2-3.2 2 2 0 1 0 1.7 3.6 12 12 0 0 1 16 16 2 2 0 0 0 .9 2.7l.9.2a2 2 0 0 0 1.8-1.1 16 16 0 0 0 -3.1-18.2z"/><path d="m40.5 8.5a2 2 0 0 0 1 3.9 5 5 0 0 1 6.2 6.2 2 2 0 0 0 1.4 2.4h.5a2 2 0 0 0 1.9-1.5 9 9 0 0 0 -11-11z"/><path d="m15.2 48.6-10.2 14.4h32l-5.8-8.1a27.9 27.9 0 0 1 -16-6.3z"/></g></svg>