<svg viewBox="0 0 64 64" xmlns="http://www.w3.org/2000/svg"><g fill="#2e2c2d"><path d="m22 2a22.2 22.2 0 0 0 -22 22.4c0 .7 0 1.5.1 2.2v.3c1.8 17.6 21.9 31.1 21.9 31.1a65.3 65.3 0 0 0 7-5.8 20 20 0 0 1 14.9-25.8c.1-.7.1-1.3.1-2a22.2 22.2 0 0 0 -22-22.4zm0 32a10 10 0 1 1 10-10 10 10 0 0 1 -10 10z"/><path d="m48 30a16 16 0 1 0 16 16 16 16 0 0 0 -16-16zm7.5 20.6a2 2 0 1 1 -2.8 2.8l-4.6-4.6-4.6 4.6a2 2 0 0 1 -2.8-2.8l4.6-4.6-4.6-4.6a2 2 0 1 1 2.8-2.8l4.6 4.6 4.6-4.6a2 2 0 0 1 2.8 2.8l-4.5 4.6z"/></g></svg>