<svg viewBox="0 0 64 64" xmlns="http://www.w3.org/2000/svg"><path d="m40 4-16 6-22-6v36h4v4h-4v10l22 6 16-6 22 6v-50zm-22.6 40h-7.6v-4h7.6zm4-.1-.4-3.9a8 8 0 0 0 5.3-2.8l3 2.6a11.9 11.9 0 0 1 -7.9 4.1zm10.8-11.9v.3a12 12 0 0 1 -.6 3.6l-3.8-1.3a8 8 0 0 0 .4-2.3v-.3a11.9 11.9 0 0 1 1.1-5.1l3.7 1.7a7.9 7.9 0 0 0 -.8 3.4zm8-8a8 8 0 0 0 -5.4 2.1l-2.7-2.9a12 12 0 0 1 8.1-3.2zm14.2 4.3a2 2 0 0 1 -2.8 0l-3.5-3.5-3.6 3.6a2 2 0 0 1 -2.8-2.8l3.6-3.6-3.5-3.5a2 2 0 0 1 2.8-2.8l3.5 3.5 3.4-3.4a2 2 0 1 1 2.8 2.8l-3.4 3.4 3.5 3.5a2 2 0 0 1 0 2.8z" fill="#2e2c2d"/></svg>