<svg viewBox="0 0 64 64" xmlns="http://www.w3.org/2000/svg"><g fill="#2e2c2d"><path d="m21 51h-1.4a6.7 6.7 0 0 1 -6.7-6.7 6.8 6.8 0 0 1 .1-1.1 2 2 0 1 0 -4-.6 10.7 10.7 0 0 0 10.6 12.5l2.1-.2a2 2 0 1 0 -.7-3.9z"/><path d="m20.7 58.8h-1.2a14.6 14.6 0 0 1 -14.5-14.4v-.8a2 2 0 1 0 -4-.2v1a18.6 18.6 0 0 0 18.5 18.5h1.5a2 2 0 0 0 -.3-4z"/><path d="m50.2 24-10.1-10.1a2 2 0 0 0 -2.9 0l-17.2 17.3a2 2 0 0 0 0 2.9l3.6 3.6-4.3 4.3a2 2 0 1 0 2.8 2.8l4.3-4.3 3.6 3.6a2 2 0 0 0 2.9 0l17.3-17.2a2 2 0 0 0 0-2.9zm-29.5.7 10.1-10-13-13a2 2 0 0 0 -2.9 0l-7.1 7.2a2 2 0 0 0 0 2.9zm41.7 21.6-13-13-10.1 10 13 13a2 2 0 0 0 2.9 0l7.2-7.2a2 2 0 0 0 0-2.8z"/></g></svg>