<svg width="0" height="0" class="hidden">
  <symbol xmlns="http://www.w3.org/2000/svg" viewBox="0 0 64 64" id="calls-1">
    <title>Calls</title>
    <desc>A solid styled icon from Orion Icon Library.</desc>
    <path data-name="layer1"
    d="M48.5 40.2a4.8 4.8 0 0 0-6.5 1.3c-2.4 2.9-5.3 7.7-16.2-3.2S19.6 24.4 22.5 22a4.8 4.8 0 0 0 1.3-6.5L17 5.1c-.9-1.3-2.1-3.4-4.9-3S2 6.6 2 15.6s7.1 20 16.8 29.7S39.5 62 48.4 62s13.2-8 13.5-10-1.7-4-3-4.9z"
    fill="#2e2c2d"></path>
  </symbol>
  <symbol xmlns="http://www.w3.org/2000/svg" viewBox="0 0 64 64" id="incoming-call-1">
    <title>Incoming Call</title>
    <desc>A solid styled icon from Orion Icon Library.</desc>
    <path data-name="layer2"
    d="M57.9 48l-10.4-6.8a4.8 4.8 0 0 0-6.5 1.3c-2.3 2.9-5.3 7.7-16.2-3.2S18.6 25.4 21.5 23a4.8 4.8 0 0 0 1.3-6.5L16 6.1c-.9-1.3-2.1-3.4-4.9-3S1 7.6 1 16.6s7.1 20 16.8 29.7S38.5 63 47.4 63s13.2-8 13.5-10-1.7-4.1-3-5z"
    fill="#2e2c2d"></path>
    <path data-name="layer1" d="M62.4 1.6a2 2 0 0 0-2.8 0L39 22.2V7a2 2 0 0 0-4 0v22h22a2 2 0 0 0 0-4H41.8L62.4 4.4a2 2 0 0 0 0-2.8z"
    fill="#2e2c2d"></path>
  </symbol>
  <symbol xmlns="http://www.w3.org/2000/svg" viewBox="0 0 64 64" id="outgoing-call-1">
    <title>Outgoing Call</title>
    <desc>A solid styled icon from Orion Icon Library.</desc>
    <path data-name="layer2"
    d="M57.9 48l-10.4-6.8a4.8 4.8 0 0 0-6.5 1.3c-2.4 2.9-5.3 7.7-16.2-3.2S18.6 25.4 21.5 23a4.8 4.8 0 0 0 1.3-6.5L16 6.1c-.9-1.3-2.1-3.4-4.9-3S1 7.6 1 16.6s7.1 20 16.8 29.7S38.5 63 47.4 63 60.7 55 61 53s-1.8-4.1-3.1-5z"
    fill="#2e2c2d"></path>
    <path data-name="layer1" d="M41 1a2 2 0 0 0 0 4h15.2L35.6 25.6a2 2 0 1 0 2.8 2.8L59 7.8V23a2 2 0 1 0 4 0V1z"
    fill="#2e2c2d"></path>
  </symbol>
  <symbol xmlns="http://www.w3.org/2000/svg" viewBox="0 0 64 64" id="dial-call-1">
    <title>Dial Call</title>
    <desc>A solid styled icon from Orion Icon Library.</desc>
    <path data-name="layer2"
    d="M57.9 48l-10.4-6.8a4.8 4.8 0 0 0-6.5 1.3c-2.4 2.9-5.3 7.7-16.2-3.2S18.6 25.4 21.5 23a4.8 4.8 0 0 0 1.3-6.5L16 6.1c-.9-1.3-2.1-3.4-4.9-3S1 7.6 1 16.6s7.1 20 16.8 29.7S38.5 63 47.4 63s13.2-8 13.5-10-1.7-4.1-3-5z"
    fill="#2e2c2d"></path>
    <path data-name="layer1" d="M61 13H51V3a2 2 0 1 0-4 0v10H37a2 2 0 0 0 0 4h10v10a2 2 0 1 0 4 0V17h10a2 2 0 0 0 0-4z"
    fill="#2e2c2d"></path>
  </symbol>
  <symbol xmlns="http://www.w3.org/2000/svg" viewBox="0 0 64 64" id="hang-up-1">
    <title>Hang Up</title>
    <desc>A solid styled icon from Orion Icon Library.</desc>
    <path data-name="layer2"
    d="M57.9 47l-10.4-6.8a4.8 4.8 0 0 0-6.5 1.3c-2.4 2.9-5.3 7.7-16.2-3.2S18.6 24.4 21.5 22a4.8 4.8 0 0 0 1.3-6.5L16 5.1c-.9-1.3-2.1-3.4-4.9-3S1 6.6 1 15.6s7.1 20 16.8 29.7S38.5 62 47.4 62s13.2-8 13.5-10-1.7-4.1-3-5z"
    fill="#2e2c2d"></path>
    <path data-name="layer1" d="M61 12H37a2 2 0 1 0 0 4h24a2 2 0 0 0 0-4z"
    fill="#2e2c2d"></path>
  </symbol>
  <symbol xmlns="http://www.w3.org/2000/svg" viewBox="0 0 64 64" id="cancel-call-1">
    <title>Cancel Call</title>
    <desc>A solid styled icon from Orion Icon Library.</desc>
    <path data-name="layer2"
    d="M57.9 48l-10.4-6.8a4.8 4.8 0 0 0-6.5 1.3c-2.3 2.9-5.3 7.7-16.2-3.2S18.6 25.4 21.5 23a4.8 4.8 0 0 0 1.3-6.5L16 6.1c-.9-1.3-2.1-3.4-4.9-3S1 7.6 1 16.6s7.1 20 16.8 29.7S38.5 63 47.4 63s13.2-8 13.5-10-1.7-4.1-3-5z"
    fill="#2e2c2d"></path>
    <path data-name="layer1" d="M53.8 13l8.6-8.6a2 2 0 0 0-2.8-2.8L51 10.2l-8.6-8.6a2 2 0 0 0-2.8 2.8l8.6 8.6-8.6 8.6a2 2 0 1 0 2.8 2.8l8.6-8.6 8.6 8.6a2 2 0 0 0 2.8-2.8z"
    fill="#2e2c2d"></path>
  </symbol>
  <symbol xmlns="http://www.w3.org/2000/svg" viewBox="0 0 64 64" id="speaker-call-1">
    <title>Speaker Call</title>
    <desc>A solid styled icon from Orion Icon Library.</desc>
    <path data-name="layer2"
    d="M49.4 50.3l-8.8-5.8a4.1 4.1 0 0 0-5.6 1.1c-2 2.5-4.5 6.6-13.8-2.8S15.9 31 18.4 29a4.1 4.1 0 0 0 1.1-5.5l-5.8-8.8c-.8-1.1-1.8-2.9-4.2-2.6S1 15.9 1 23.5s6 17 14.2 25.2S32.8 63 40.5 63s11.2-6.8 11.5-8.5-1.5-3.5-2.6-4.2z"
    fill="#2e2c2d"></path>
    <path data-name="layer1" d="M29 1a2 2 0 0 0 0 4 30 30 0 0 1 30 30 2 2 0 1 0 4 0A34 34 0 0 0 29 1z"
    fill="#2e2c2d"></path>
    <path data-name="layer1" d="M29 11a2 2 0 1 0 0 4 20 20 0 0 1 20 20 2 2 0 1 0 4 0 24 24 0 0 0-24-24z"
    fill="#2e2c2d"></path>
    <path data-name="layer1" d="M38 35a2 2 0 1 0 4 0 13 13 0 0 0-13-13 2 2 0 0 0 0 4 9 9 0 0 1 9 9z"
    fill="#2e2c2d"></path>
  </symbol>
  <symbol xmlns="http://www.w3.org/2000/svg" viewBox="0 0 64 64" id="mute-1">
    <title>Mute</title>
    <desc>A solid styled icon from Orion Icon Library.</desc>
    <path data-name="layer1"
    d="M59.3 41l-9-5.9a4.2 4.2 0 0 0-5.7 1.1c-1.4 1.7-2.9 4.1-6.6 2.7l-3.3-1.7-5.8 6.3 1.2 1 2 1.6c6.2 4.8 12.6 7.9 18.1 7.9 7.8 0 11.5-6.9 11.8-8.7s-1.5-3.5-2.7-4.3zM63.4.6a2 2 0 0 0-2.8 0L29.2 32a26.8 26.8 0 0 1-3.1-4c-3.2-5.2-.3-7.1 1.7-8.6a4.2 4.2 0 0 0 1.1-5.7l-5.9-9c-.8-1.1-1.8-3-4.3-2.6S10 6 10 13.8 15.5 30 23.1 38L.6 60.6a2 2 0 1 0 2.8 2.8l60-60a2 2 0 0 0 0-2.8z"
    fill="#2e2c2d"></path>
  </symbol>
  <symbol viewBox="0 0 64 64" xmlns="http://www.w3.org/2000/svg" id="disconnect-call-1">
    <title>Disconnect Call</title>
    <desc>A solid styled icon from Orion Icon Library.</desc>
    <path fill="#2e2c2d"
    d="M50.144 39.023c-.787-.539-5.514-3.608-6.242-4.084a2.9 2.9 0 0 0-3.916.768c-.939 1.16-2.576 2.744-5.15 1.779l-4.5 4.332C34.676 45.149 40.027 48 43.863 48a8.6 8.6 0 0 0 8.105-6.023c.245-1.685-1.034-2.415-1.824-2.954z"
    data-name="layer1"></path>
    <path fill="#2e2c2d" d="M32 0a32 32 0 1 0 32 32A32 32 0 0 0 32 0zM4 32a27.977 27.977 0 0 1 46.32-21.148L28.875 32.3a17.383 17.383 0 0 1-1.758-2.3c-2.223-3.6-.174-4.893 1.178-5.986a2.9 2.9 0 0 0 .768-3.919c-.477-.726-3.547-5.452-4.084-6.241s-1.269-2.067-2.955-1.824A8.6 8.6 0 0 0 16 20.138c0 4.949 3.588 10.929 8.666 16.367L10.852 50.319A27.877 27.877 0 0 1 4 32zm28 28a27.869 27.869 0 0 1-18.32-6.852l39.468-39.467A27.977 27.977 0 0 1 32 60z"></path>
  </symbol>
  <symbol viewBox="0 0 64 64" xmlns="http://www.w3.org/2000/svg" id="audio-call-1">
    <title>Audio Call</title>
    <desc>A solid styled icon from Orion Icon Library.</desc>
    <path fill="#2e2c2d"
    d="M32 0a32 32 0 0 0 0 64c9.9 0 17.826-3.7 20.2-9.424a8.3 8.3 0 0 0-2.082-9.366l-.127-.127a6.072 6.072 0 0 0 .983-2.1c.242-1.687-1.037-2.415-1.826-2.955s-5.514-3.607-6.24-4.085a2.9 2.9 0 0 0-3.918.768c-1.41 1.742-2.152 3.645-8.744-2.947s-4.689-7.334-2.947-8.744a2.9 2.9 0 0 0 .768-3.919c-.479-.725-3.547-5.452-4.086-6.241s-1.268-2.066-2.955-1.824A8.6 8.6 0 0 0 15 21.141c0 5.391 4.25 12 10.055 17.809S37.473 49 42.863 49a8.132 8.132 0 0 0 4.237-1.15l.189.189a4.364 4.364 0 0 1 1.211 5.006C47.113 56.395 41.359 60 32 60a27.969 27.969 0 1 1 26.992-20.528 2 2 0 0 0 3.856 1.065A32.024 32.024 0 0 0 32 0z"></path>
  </symbol>
  <symbol xmlns="http://www.w3.org/2000/svg" viewBox="0 0 64 64" id="missed-call-1">
    <title>Missed Call</title>
    <desc>A solid styled icon from Orion Icon Library.</desc>
    <path data-name="layer2"
    d="M52.7 50.7L44.2 43a4.5 4.5 0 0 0-6.1.2c-2.6 2.3-5.9 6.3-14.4-5.3S20 24.4 23 22.7a4.5 4.5 0 0 0 2.1-5.8L20.3 6.5c-.6-1.4-1.4-3.5-4-3.5S6.5 5.7 5.2 13.9s3.7 19.2 11.1 29.4 16.6 18.2 24.8 19.5 13.2-5.4 13.7-7.2-1-3.9-2.1-4.9z"
    fill="#2e2c2d"></path>
    <path data-name="layer1" d="M57.8 32.2a4 4 0 0 0-5.7 0A4 4 0 1 0 59 35a4 4 0 0 0-1.2-2.8zm-2.9-5.3A2 2 0 0 0 57 25l1.1-20.7V4a3.1 3.1 0 1 0-6.2.3L53 25a2 2 0 0 0 1.9 1.9z"
    fill="#2e2c2d"></path>
  </symbol>
  <symbol xmlns="http://www.w3.org/2000/svg" viewBox="0 0 64 64" id="sms-message-1">
    <title>SMS Message</title>
    <desc>A solid styled icon from Orion Icon Library.</desc>
    <path data-name="layer2"
    d="M47.5 50l-8.3-5.4a3.9 3.9 0 0 0-5.2 1c-1.9 2.3-4.2 6.2-13-2.6s-4.9-11.1-2.6-13a3.9 3.9 0 0 0 1-5.2L14 16.5c-.7-1.1-1.7-2.8-3.9-2.4A11.5 11.5 0 0 0 2 24.8c0 7.2 5.7 16 13.4 23.7S32 62 39.2 62A11.5 11.5 0 0 0 50 54c.3-2.3-1.4-3.3-2.5-4z"
    fill="#2e2c2d"></path>
    <path data-name="layer1" d="M59.4 2H30.6A2.6 2.6 0 0 0 28 4.6v18.8a2.6 2.6 0 0 0 2.6 2.6H38v7l7-7h14.4a2.6 2.6 0 0 0 2.6-2.6V4.6A2.6 2.6 0 0 0 59.4 2zm-20 13.4a2 2 0 0 1-1.4.6 2 2 0 0 1-1.4-3.4 2.1 2.1 0 0 1 2.8 0 2 2 0 0 1 0 2.8zm7 0a2 2 0 0 1-1.4.6 2.1 2.1 0 0 1-1.4-.6 2 2 0 0 1 0-2.8 2.1 2.1 0 0 1 2.8 0A2 2 0 0 1 47 14a2 2 0 0 1-.6 1.4zm7 0a2 2 0 0 1-1.4.6 2.1 2.1 0 0 1-1.4-.6 2 2 0 0 1 0-2.8 2.1 2.1 0 0 1 2.8 0A2 2 0 0 1 54 14a2 2 0 0 1-.6 1.4z"
    fill="#2e2c2d"></path>
  </symbol>
  <symbol xmlns="http://www.w3.org/2000/svg" viewBox="0 0 64 64" id="helpline-24-1">
    <title>Helpline 24</title>
    <desc>A solid styled icon from Orion Icon Library.</desc>
    <path data-name="layer2"
    d="M51.3 49.8l-9.2-6a4.3 4.3 0 0 0-5.8 1.1c-2.1 2.6-4.6 6.8-14.3-2.9s-5.4-12.3-2.9-14.3a4.3 4.3 0 0 0 1.1-5.8l-6-9.2c-.8-1.2-1.9-3-4.3-2.7S1 14 1 22s6.3 17.7 14.8 26.2S34.1 63 42 63s11.7-7 12-8.9-1.6-3.5-2.7-4.3z"
    fill="#2e2c2d"></path>
    <path data-name="layer1" d="M61 15h-2v-4a2 2 0 1 0-4 0v4h-5l4.8-11.2a2 2 0 1 0-3.7-1.6L44 19h11v4a2 2 0 1 0 4 0v-4h2a2 2 0 0 0 0-4z"
    fill="#2e2c2d"></path>
    <path data-name="layer1" d="M26.7 25H43a2 2 0 0 0 0-4h-7.7l5.9-6.9a8 8 0 0 0-11.5-11 2 2 0 0 0 2.7 3A4 4 0 0 1 39 9a3.9 3.9 0 0 1-.9 2.5z"
    fill="#2e2c2d"></path>
  </symbol>
  <symbol xmlns="http://www.w3.org/2000/svg" viewBox="0 0 64 64" id="make-call-1">
    <title>Make Call</title>
    <desc>A solid styled icon from Orion Icon Library.</desc>
    <path data-name="layer2"
    d="M58.9 47l-10.4-6.8a4.8 4.8 0 0 0-6.5 1.3c-2.4 2.9-5.3 7.7-16.2-3.2S19.6 24.4 22.5 22a4.8 4.8 0 0 0 1.3-6.5L17 5.1c-.9-1.3-2.1-3.4-4.9-3S2 6.6 2 15.6s7.1 20 16.8 29.7S39.4 62 48.4 62s13.2-8 13.5-10-1.7-4.1-3-5z"
    fill="#2e2c2d"></path>
    <path data-name="layer1" d="M48 30a14 14 0 1 0-14-14 14 14 0 0 0 14 14zm-6-16h4v-4a2 2 0 1 1 4 0v4h4a2 2 0 0 1 0 4h-4v4a2 2 0 1 1-4 0v-4h-4a2 2 0 0 1 0-4z"
    fill="#2e2c2d"></path>
  </symbol>
  <symbol xmlns="http://www.w3.org/2000/svg" viewBox="0 0 64 64" id="end-call-1">
    <title>End Call</title>
    <desc>A solid styled icon from Orion Icon Library.</desc>
    <path data-name="layer2"
    d="M58.9 47l-10.4-6.8a4.8 4.8 0 0 0-6.5 1.3c-2.4 2.9-5.3 7.7-16.2-3.2S19.6 24.4 22.5 22a4.8 4.8 0 0 0 1.3-6.5L17 5.1c-.9-1.3-2.1-3.4-4.9-3S2 6.6 2 15.6s7.1 20 16.8 29.7S39.4 62 48.4 62s13.2-8 13.5-10-1.7-4.1-3-5z"
    fill="#2e2c2d"></path>
    <path data-name="layer1" d="M48 30a14 14 0 1 0-14-14 14 14 0 0 0 14 14zm-6-16h12a2 2 0 0 1 0 4H42a2 2 0 0 1 0-4z"
    fill="#2e2c2d"></path>
  </symbol>
  <symbol xmlns="http://www.w3.org/2000/svg" viewBox="0 0 64 64" id="refuse-call-1">
    <title>Refuse Call</title>
    <desc>A solid styled icon from Orion Icon Library.</desc>
    <path data-name="layer2"
    d="M58.9 47l-10.4-6.8a4.8 4.8 0 0 0-6.5 1.3c-2.3 2.9-5.3 7.7-16.2-3.2S19.6 24.4 22.5 22a4.8 4.8 0 0 0 1.3-6.5L17 5.1c-.9-1.3-2.1-3.4-4.9-3S2 6.6 2 15.6s7.1 20 16.8 29.7S39.4 62 48.4 62s13.2-8 13.5-10-1.7-4.1-3-5z"
    fill="#2e2c2d"></path>
    <path data-name="layer1" d="M48 30a14 14 0 1 0-14-14 14 14 0 0 0 14 14zm-6.4-17.6a2 2 0 1 1 2.8-2.8l3.6 3.6 3.6-3.6a2 2 0 0 1 2.8 2.8L50.8 16l3.6 3.6a2 2 0 1 1-2.8 2.8L48 18.8l-3.6 3.6a2 2 0 1 1-2.8-2.8l3.6-3.6z"
    fill="#2e2c2d"></path>
  </symbol>
  <symbol xmlns="http://www.w3.org/2000/svg" viewBox="0 0 64 64" id="landline-1">
    <title>Landline</title>
    <desc>A solid styled icon from Orion Icon Library.</desc>
    <path data-name="layer2"
    d="M58.7 12.3C53.5 7.2 43.1 5 32 5S10.5 7.2 5.3 12.3a11.4 11.4 0 0 0-2 13.4c1.4 1.8 3.3 1.3 4.6 1.1l9.9-2a3.9 3.9 0 0 0 3-4.4c-.3-3-1.4-7.3 11.2-7.3s11.5 4.3 11.2 7.3a3.9 3.9 0 0 0 3 4.4l9.9 2c1.3.2 3.2.8 4.6-1.1a11.4 11.4 0 0 0-2-13.4z"
    fill="#2e2c2d"></path>
    <path data-name="layer1" d="M45.4 28.6a7.9 7.9 0 0 1-6.2-8.8v-.5a9.1 9.1 0 0 0 .1-1.3c-.3-.2-2-1.1-7.4-1.1s-7 .9-7.4 1.1a9.1 9.1 0 0 0 .1 1.3v.5a7.9 7.9 0 0 1-6.2 8.8l-2.2.5-4.2.9v23a6 6 0 0 0 6 6h28a6 6 0 0 0 6-6V30l-4.3-.9zM23 53h-2a2 2 0 0 1 0-4h2a2 2 0 0 1 0 4zm0-8h-2a2 2 0 0 1 0-4h2a2 2 0 0 1 0 4zm0-8h-2a2 2 0 0 1 0-4h2a2 2 0 0 1 0 4zm10 16h-2a2 2 0 0 1 0-4h2a2 2 0 0 1 0 4zm0-8h-2a2 2 0 0 1 0-4h2a2 2 0 0 1 0 4zm0-8h-2a2 2 0 0 1 0-4h2a2 2 0 0 1 0 4zm10 16h-2a2 2 0 0 1 0-4h2a2 2 0 0 1 0 4zm0-8h-2a2 2 0 0 1 0-4h2a2 2 0 0 1 0 4zm0-8h-2a2 2 0 0 1 0-4h2a2 2 0 0 1 0 4z"
    fill="#2e2c2d"></path>
  </symbol>
  <symbol xmlns="http://www.w3.org/2000/svg" viewBox="0 0 64 64" id="telephone-1">
    <title>Telephone</title>
    <desc>A solid styled icon from Orion Icon Library.</desc>
    <path data-name="layer2"
    d="M58.7 12.4C53.5 7.3 43.1 5 32 5S10.5 7.3 5.3 12.4a11.2 11.2 0 0 0-2 13.2c1.4 1.8 3.3 1.3 4.6 1.1L15 25a3.9 3.9 0 0 0 3-4.5c-.3-3 1.4-7.5 14-7.5s14.3 4.4 14 7.5 2.9 4.3 4 4.5 4.8 1.5 6.1 1.8 3.2.8 4.6-1.1a11.2 11.2 0 0 0-2-13.3z"
    fill="#2e2c2d"></path>
    <path data-name="layer1" d="M40 27.8V21a2 2 0 1 0-4 0v6.1h-8V21a2 2 0 1 0-4 0v6.8A22 22 0 0 0 8 49v10h48V49a22 22 0 0 0-16-21.2zM32 51a8 8 0 1 1 8-8 8 8 0 0 1-8 8z"
    fill="#2e2c2d"></path>
  </symbol>
  <symbol xmlns="http://www.w3.org/2000/svg" viewBox="0 0 64 64" id="phone-1">
    <title>Phone</title>
    <desc>A solid styled icon from Orion Icon Library.</desc>
    <path data-name="layer2"
    d="M58.7 11.4C53.5 6.3 43.1 4 32 4S10.5 6.3 5.3 11.4a11.2 11.2 0 0 0-2 13.2c1.4 1.8 3.3 1.3 4.6 1.1L15 24a3.9 3.9 0 0 0 3-4.5c-.3-3 1.4-7.5 14-7.5s14.3 4.4 14 7.5 2.9 4.3 4 4.5 4.8 1.5 6.1 1.8 3.2.8 4.6-1.1a11.2 11.2 0 0 0-2-13.3z"
    fill="#2e2c2d"></path>
    <path data-name="layer1" d="M40 26.8V20a2 2 0 1 0-4 0v6.1h-8V20a2 2 0 0 0-4 0v6.8A22 22 0 0 0 8 48v12h48V48a22 22 0 0 0-16-21.2zM23 54h-2a2 2 0 0 1 0-4h2a2 2 0 0 1 0 4zm0-8h-2a2 2 0 0 1 0-4h2a2 2 0 0 1 0 4zm0-8h-2a2 2 0 0 1 0-4h2a2 2 0 0 1 0 4zm10 16h-2a2 2 0 0 1 0-4h2a2 2 0 0 1 0 4zm0-8h-2a2 2 0 0 1 0-4h2a2 2 0 0 1 0 4zm0-8h-2a2 2 0 0 1 0-4h2a2 2 0 0 1 0 4zm10 16h-2a2 2 0 0 1 0-4h2a2 2 0 0 1 0 4zm0-8h-2a2 2 0 0 1 0-4h2a2 2 0 0 1 0 4zm0-8h-2a2 2 0 0 1 0-4h2a2 2 0 0 1 0 4z"
    fill="#2e2c2d"></path>
  </symbol>
  <symbol xmlns="http://www.w3.org/2000/svg" viewBox="0 0 64 64" id="smartphone-1">
    <title>Smartphone</title>
    <desc>A solid styled icon from Orion Icon Library.</desc>
    <path data-name="layer1"
    d="M45 0H19a6 6 0 0 0-6 6v52a6 6 0 0 0 6 6h26a6 6 0 0 0 6-6V6a6 6 0 0 0-6-6zM34.1 59.1a3 3 0 0 1-2.1.9 3 3 0 0 1-2.1-5.1 3.1 3.1 0 0 1 4.2 0 3 3 0 0 1 0 4.2zM47 50H17V8h30z"
    fill="#2e2c2d"></path>
  </symbol>
  <symbol xmlns="http://www.w3.org/2000/svg" viewBox="0 0 64 64" id="receive-call-1">
    <title>Receive Call</title>
    <desc>A solid styled icon from Orion Icon Library.</desc>
    <path data-name="layer2"
    d="M62 30H32l9.4-8.5a2 2 0 1 0-2.7-3L23.8 32l14.9 13.5a2 2 0 1 0 2.7-3L32 34h30a2 2 0 0 0 0-4z"
    fill="#2e2c2d"></path>
    <path data-name="layer1" d="M32 44.8V50H4V8h28v11.2l4-3.6V6a6 6 0 0 0-6-6H6a6 6 0 0 0-6 6v52a6 6 0 0 0 6 6h24a6 6 0 0 0 6-6v-9.5zM20.1 59.1a3 3 0 0 1-2.1.9 3 3 0 0 1-2.1-5.1 3.1 3.1 0 0 1 4.2 0 3 3 0 0 1 0 4.2z"
    fill="#2e2c2d"></path>
  </symbol>
  <symbol xmlns="http://www.w3.org/2000/svg" viewBox="0 0 64 64" id="make-a-call-1">
    <title>Make A Call</title>
    <desc>A solid styled icon from Orion Icon Library.</desc>
    <path data-name="layer2"
    d="M49.2 18.5a2 2 0 1 0-2.7 3l9.3 8.5H26a2 2 0 1 0 0 4h29.8l-9.4 8.5a2 2 0 1 0 2.7 3L64 32z"
    fill="#2e2c2d"></path>
    <path data-name="layer1" d="M32 37.9V50H4V8h28v18h4V6a6 6 0 0 0-6-6H6a6 6 0 0 0-6 6v52a6 6 0 0 0 6 6h24a6 6 0 0 0 6-6V37.9h-4zM20.1 59.1a3 3 0 0 1-2.1.9 3 3 0 0 1-2.1-5.1 3.1 3.1 0 0 1 4.2 0 3 3 0 0 1 0 4.2z"
    fill="#2e2c2d"></path>
  </symbol>
  <symbol xmlns="http://www.w3.org/2000/svg" viewBox="0 0 64 64" id="vibrate-phone-silent-1">
    <title>Vibrate Phone Silent</title>
    <desc>A solid styled icon from Orion Icon Library.</desc>
    <path data-name="layer2"
    d="M42 4H22a6 6 0 0 0-6 6v44a6 6 0 0 0 6 6h20a6 6 0 0 0 6-6V10a6 6 0 0 0-6-6zM31 56a2 2 0 0 1 0-4h2a2 2 0 0 1 0 4zm-11-8V12h24v36z"
    fill="#2e2c2d"></path>
    <path data-name="layer1" d="M51.8 20.1a2 2 0 0 0-1.1 2.6 20.1 20.1 0 0 1 0 14.5 2 2 0 0 0 1.1 2.6h.7a2 2 0 0 0 1.9-1.3 24.1 24.1 0 0 0 0-17.5 2 2 0 0 0-2.6-.9zm-39.6 0a2 2 0 0 0-2.6 1.1 24.1 24.1 0 0 0 0 17.5 2 2 0 0 0 1.9 1.3h.7a2 2 0 0 0 1.1-2.6 20.1 20.1 0 0 1 0-14.5 2 2 0 0 0-1.1-2.8zm49.1-2.9a2 2 0 0 0-3.7 1.6 28.1 28.1 0 0 1 0 22.4 2 2 0 0 0 1 2.6l.8.2a2 2 0 0 0 1.8-1.2 32.1 32.1 0 0 0 0-25.6zm-56-1a2 2 0 0 0-2.6 1 32.1 32.1 0 0 0 0 25.6A2 2 0 0 0 4.5 44l.8-.2a2 2 0 0 0 1-2.6 28.1 28.1 0 0 1 0-22.4 2 2 0 0 0-1-2.6z"
    fill="#2e2c2d"></path>
  </symbol>
  <symbol xmlns="http://www.w3.org/2000/svg" viewBox="0 0 64 64" id="message-app-1">
    <title>Message App</title>
    <desc>A solid styled icon from Orion Icon Library.</desc>
    <path data-name="layer2"
    d="M58.4 3H29.6A2.6 2.6 0 0 0 27 5.6v18.8a2.6 2.6 0 0 0 2.6 2.6H37v7l7-7h14.4a2.6 2.6 0 0 0 2.6-2.6V5.6A2.6 2.6 0 0 0 58.4 3zm-20 13.4a2 2 0 0 1-2.8 0 2 2 0 1 1 2.8-2.8A2 2 0 0 1 39 15a2 2 0 0 1-.6 1.4zm7 0a2 2 0 0 1-1.4.6 2 2 0 0 1-2-2 2.1 2.1 0 0 1 .6-1.4A2 2 0 0 1 46 15a2 2 0 0 1-.6 1.4zm7 0A2 2 0 0 1 49 15a2 2 0 0 1 .6-1.4 2.1 2.1 0 0 1 2.8 0A2 2 0 0 1 53 15a2 2 0 0 1-.6 1.4z"
    fill="#2e2c2d"></path>
    <path data-name="layer1" d="M37 39.7V50H7V8h16V5.6A6.6 6.6 0 0 1 26.1 0H9a6 6 0 0 0-6 6v52a6 6 0 0 0 6 6h26a6 6 0 0 0 6-6V35.7l-1.2 1.2zM24.1 59.1a3 3 0 0 1-2.1.9 3 3 0 0 1-2.1-5.1 3.1 3.1 0 0 1 4.2 0 3 3 0 0 1 0 4.2z"
    fill="#2e2c2d"></path>
  </symbol>
  <symbol xmlns="http://www.w3.org/2000/svg" viewBox="0 0 64 64" id="24h-assistance-1">
    <title>24h Assistance</title>
    <desc>A solid styled icon from Orion Icon Library.</desc>
    <path data-name="layer2"
    d="M62 30h-2v-4a2 2 0 0 0-4 0v4h-5l4.8-11.2a2 2 0 1 0-3.7-1.6L45 34h11v4a2 2 0 0 0 4 0v-4h2a2 2 0 0 0 0-4z"
    fill="#2e2c2d"></path>
    <path data-name="layer2" d="M44 36h-7.7l5.9-6.9a8 8 0 0 0-11.5-11 2 2 0 0 0 2.7 3 4 4 0 0 1 6.7 3 3.9 3.9 0 0 1-.9 2.5L27.7 40H44a2 2 0 0 0 0-4z"
    fill="#2e2c2d"></path>
    <path data-name="layer1" d="M34 50H4V8h30v4.2l2-.2 2 .2V6a6 6 0 0 0-6-6H6a6 6 0 0 0-6 6v52a6 6 0 0 0 6 6h26a6 6 0 0 0 6-6V44h-4zm-12.9 9.1a3 3 0 0 1-2.1.9 3 3 0 0 1-2.1-5.1 3.1 3.1 0 0 1 4.2 0 3 3 0 0 1 0 4.2z"
    fill="#2e2c2d"></path>
  </symbol>
  <symbol xmlns="http://www.w3.org/2000/svg" viewBox="0 0 64 64" id="email-1">
    <title>Email</title>
    <desc>A solid styled icon from Orion Icon Library.</desc>
    <path data-name="layer2"
    fill="#2e2c2d" d="M46 29.4L59.9 18H32.1L46 29.4z"></path>
    <path data-name="layer2" fill="#2e2c2d" d="M46 34.6l-17-14V40h34V20.6l-17 14z"></path>
    <path data-name="layer1" d="M35 50H5V8h30v6h4V6a6 6 0 0 0-6-6H7a6 6 0 0 0-6 6v52a6 6 0 0 0 6 6h26a6 6 0 0 0 6-6V44h-4zm-12.9 9.1a3 3 0 0 1-2.1.9 3 3 0 0 1-2.1-5.1 3.1 3.1 0 0 1 4.2 0 3 3 0 0 1 0 4.2z"
    fill="#2e2c2d"></path>
  </symbol>
  <symbol xmlns="http://www.w3.org/2000/svg" viewBox="0 0 64 64" id="connect-phone-1">
    <title>Connect Phone</title>
    <desc>A solid styled icon from Orion Icon Library.</desc>
    <path data-name="layer2"
    d="M33.5 39.4a2 2 0 0 0 2.8 0l7.1-7 1.4-1.4-1.4-1.4-7.1-7a2 2 0 0 0-2.8 2.8l3.6 3.6H24a2 2 0 0 0 0 4h13.1l-3.6 3.6a2 2 0 0 0 0 2.8z"
    fill="#2e2c2d"></path>
    <path data-name="layer1" d="M52.5 8H42v8h12v38H41.3a9.5 9.5 0 0 1-8.8 6h-6.3a5.5 5.5 0 0 0 5.3 4h21a5.5 5.5 0 0 0 5.5-5.5v-45A5.5 5.5 0 0 0 52.5 8z"
    fill="#2e2c2d"></path>
    <path data-name="layer1" d="M38 50.5v-7.4a6 6 0 0 1-3.1.9H34v2H10V8h24v10.1h.9a6 6 0 0 1 3.1.9V5.5A5.5 5.5 0 0 0 32.5 0h-21A5.5 5.5 0 0 0 6 5.5v45a5.5 5.5 0 0 0 5.5 5.5h21a5.5 5.5 0 0 0 5.5-5.5z"
    fill="#2e2c2d"></path>
  </symbol>
  <symbol xmlns="http://www.w3.org/2000/svg" viewBox="0 0 64 64" id="chats-1">
    <title>Chats</title>
    <desc>A solid styled icon from Orion Icon Library.</desc>
    <path data-name="layer1"
    d="M33.4 2.6A28 28 0 0 0 8.7 43.8L2.6 61.4l17.5-6.1A28 28 0 1 0 33.4 2.6zm16 37a7.2 7.2 0 0 1-6.8 5c-4.5 0-10-3.5-14.8-8.4s-8.4-10.3-8.4-14.8a7.2 7.2 0 0 1 5-6.8c1.4-.2 2 .9 2.5 1.5l3.4 5.2a2.4 2.4 0 0 1-.6 3.3c-1.5 1.2-2.9 1.6 2.6 7.1s5.9 4.1 7.1 2.6a2.4 2.4 0 0 1 3.3-.6l5.2 3.4c.6.5 1.7 1.1 1.5 2.5z"
    fill="#2e2c2d"></path>
  </symbol>
  <symbol xmlns="http://www.w3.org/2000/svg" viewBox="0 0 64 64" id="address-book-1">
    <title>Address Book</title>
    <desc>A solid styled icon from Orion Icon Library.</desc>
    <path data-name="layer1"
    d="M59 10h-2V0H14a7 7 0 0 0-7 6.9V18H5a2 2 0 1 0 0 4h2v6H5a2 2 0 1 0 0 4h2v6H5a2 2 0 1 0 0 4h2v6H5a2 2 0 1 0 0 4h2v5a7 7 0 0 0 7 7h47V12a2 2 0 0 0-2-2zm-8 35a7.2 7.2 0 0 1-6.8 5c-4.5 0-10-3.5-14.8-8.4S21 31.3 21 26.8a7.2 7.2 0 0 1 5-6.8c1.4-.2 2 .9 2.5 1.5l3.4 5.2a2.4 2.4 0 0 1-.6 3.3c-1.5 1.2-2.9 1.6 2.6 7.1s5.9 4.1 7.1 2.6a2.4 2.4 0 0 1 3.3-.6l5.2 3.4c.6.5 1.7 1.1 1.5 2.5zm2-35H14a3 3 0 0 1-3-3 3 3 0 0 1 3-3h39z"
    fill="#2e2c2d"></path>
  </symbol>
  <symbol xmlns="http://www.w3.org/2000/svg" viewBox="0 0 64 64" id="office-phone-1">
    <title>Office Phone</title>
    <desc>A solid styled icon from Orion Icon Library.</desc>
    <path data-name="layer2"
    d="M18 11h-6V3a2 2 0 1 0-4 0v8a4 4 0 0 0-4 4v44a4 4 0 0 0 4 4h10a4 4 0 0 0 4-4V15a4 4 0 0 0-4-4z"
    fill="#2e2c2d"></path>
    <path data-name="layer1" d="M56 15H26v46h30a4 4 0 0 0 4-4V19a4 4 0 0 0-4-4zM36.4 54.4a2 2 0 0 1-1.4.6 2.1 2.1 0 0 1-1.4-.6A2 2 0 0 1 33 53a2 2 0 0 1 .6-1.4 2.1 2.1 0 0 1 2.8 0A2 2 0 0 1 37 53a2 2 0 0 1-.6 1.4zm0-8a2 2 0 0 1-1.4.6 2.1 2.1 0 0 1-1.4-.6A2 2 0 0 1 33 45a2 2 0 0 1 .6-1.4 2.1 2.1 0 0 1 2.8 0A2 2 0 0 1 37 45a2 2 0 0 1-.6 1.4zm0-8a2 2 0 0 1-1.4.6 2.1 2.1 0 0 1-1.4-.6A2 2 0 0 1 33 37a2 2 0 0 1 .6-1.4 2.1 2.1 0 0 1 2.8 0A2 2 0 0 1 37 37a2 2 0 0 1-.6 1.4zm8 16a2 2 0 0 1-1.4.6 2 2 0 0 1-1.4-3.4 2.1 2.1 0 0 1 2.8 0 2 2 0 0 1 0 2.8zm0-8a2 2 0 0 1-1.4.6 2.1 2.1 0 0 1-1.4-.6A2 2 0 0 1 41 45a2 2 0 0 1 .6-1.4 2.1 2.1 0 0 1 2.8 0A2 2 0 0 1 45 45a2 2 0 0 1-.6 1.4zm0-8A2 2 0 0 1 41 37a2 2 0 0 1 .6-1.4 2.1 2.1 0 0 1 2.8 0A2 2 0 0 1 45 37a2 2 0 0 1-.6 1.4zm8 16a2 2 0 0 1-1.4.6 2.1 2.1 0 0 1-1.4-.6A2 2 0 0 1 49 53a2 2 0 0 1 .6-1.4 2.1 2.1 0 0 1 2.8 0A2 2 0 0 1 53 53a2 2 0 0 1-.6 1.4zm0-8a2 2 0 0 1-1.4.6 2 2 0 0 1-1.4-3.4 2.1 2.1 0 0 1 2.8 0A2 2 0 0 1 53 45a2 2 0 0 1-.6 1.4zm0-8a2 2 0 0 1-1.4.6 2.1 2.1 0 0 1-1.4-.6A2 2 0 0 1 49 37a2 2 0 0 1 .6-1.4 2.1 2.1 0 0 1 2.8 0 2 2 0 0 1 0 2.8zM54 31H32v-8h22z"
    fill="#2e2c2d"></path>
  </symbol>
  <symbol xmlns="http://www.w3.org/2000/svg" viewBox="0 0 64 64" id="fax-1">
    <title>Fax</title>
    <desc>A solid styled icon from Orion Icon Library.</desc>
    <path data-name="layer2"
    d="M16 11h-6V3a2 2 0 0 0-4 0v8a4 4 0 0 0-4 4v44a4 4 0 0 0 4 4h10a4 4 0 0 0 4-4V15a4 4 0 0 0-4-4z"
    fill="#2e2c2d"></path>
    <path data-name="layer1" fill="#2e2c2d" d="M58 9l-6-6H26v12h32V9zm0 10H24v44h34a4 4 0 0 0 4-4V23a4 4 0 0 0-4-4zM36.4 58.4a2 2 0 0 1-1.4.6 2.1 2.1 0 0 1-1.4-.6A2 2 0 0 1 33 57a2 2 0 0 1 .6-1.4 2.1 2.1 0 0 1 2.8 0 2 2 0 0 1 0 2.8zm0-8a2 2 0 0 1-1.4.6 2.1 2.1 0 0 1-1.4-.6A2 2 0 0 1 33 49a2 2 0 0 1 .6-1.4 2.1 2.1 0 0 1 2.8 0 2 2 0 0 1 0 2.8zm0-8a2 2 0 0 1-1.4.6 2.1 2.1 0 0 1-1.4-.6A2 2 0 0 1 33 41a2 2 0 0 1 .6-1.4 2.1 2.1 0 0 1 2.8 0A2 2 0 0 1 37 41a2 2 0 0 1-.6 1.4zm8 16a2 2 0 0 1-1.4.6 2.1 2.1 0 0 1-1.4-.6 2 2 0 0 1 0-2.8 2.1 2.1 0 0 1 2.8 0A2 2 0 0 1 45 57a2 2 0 0 1-.6 1.4zm0-8a2 2 0 0 1-1.4.6 2.1 2.1 0 0 1-1.4-.6A2 2 0 0 1 41 49a2 2 0 0 1 .6-1.4 2.1 2.1 0 0 1 2.8 0A2 2 0 0 1 45 49a2 2 0 0 1-.6 1.4zm0-8a2 2 0 0 1-2.8 0A2 2 0 0 1 41 41a2 2 0 0 1 .6-1.4 2.1 2.1 0 0 1 2.8 0 2 2 0 0 1 0 2.8zm8 16a2 2 0 0 1-1.4.6 2.1 2.1 0 0 1-1.4-.6 2 2 0 0 1 0-2.8 2.1 2.1 0 0 1 2.8 0A2 2 0 0 1 53 57a2 2 0 0 1-.6 1.4zm0-8a2 2 0 0 1-1.4.6 2.1 2.1 0 0 1-1.4-.6A2 2 0 0 1 49 49a2 2 0 0 1 .6-1.4 2.1 2.1 0 0 1 2.8 0A2 2 0 0 1 53 49a2 2 0 0 1-.6 1.4zm0-8a2 2 0 0 1-1.4.6 2.1 2.1 0 0 1-1.4-.6 2 2 0 0 1 0-2.8 2.1 2.1 0 0 1 2.8 0 2 2 0 0 1 0 2.8zM54 35H32v-8h22z"></path>
  </symbol>
  <symbol xmlns="http://www.w3.org/2000/svg" viewBox="0 0 64 64" id="cell-phone-1">
    <title>Cell Phone</title>
    <desc>A solid styled icon from Orion Icon Library.</desc>
    <path data-name="layer1"
    d="M41 11H25V3a2 2 0 0 0-4 0v8.3a6 6 0 0 0-4 5.7v40a6 6 0 0 0 6 6h18a6 6 0 0 0 6-6V17a6 6 0 0 0-6-6zM26.4 56.4a2 2 0 0 1-1.4.6 2 2 0 0 1-1.4-.6A2 2 0 0 1 23 55a2 2 0 0 1 .6-1.4 2.1 2.1 0 0 1 2.8 0A2.1 2.1 0 0 1 27 55a2 2 0 0 1-.6 1.4zm0-6a2 2 0 0 1-1.4.6 2 2 0 0 1-1.4-.6A2 2 0 0 1 23 49a2 2 0 0 1 .6-1.4 2.1 2.1 0 0 1 2.8 0A2.1 2.1 0 0 1 27 49a2 2 0 0 1-.6 1.4zm0-6a2 2 0 0 1-1.4.6 2 2 0 0 1-1.4-.6 2 2 0 0 1 0-2.8 2.1 2.1 0 0 1 2.8 0A2.1 2.1 0 0 1 27 43a2 2 0 0 1-.6 1.4zm7 12a2 2 0 0 1-1.4.6 2 2 0 0 1-1.4-.6A2 2 0 0 1 30 55a2 2 0 0 1 .6-1.4A2 2 0 0 1 34 55a2 2 0 0 1-.6 1.4zm0-6a2 2 0 0 1-1.4.6 2 2 0 0 1-1.4-.6A2 2 0 0 1 30 49a2 2 0 0 1 .6-1.4 2.1 2.1 0 0 1 2.8 0A2.1 2.1 0 0 1 34 49a2 2 0 0 1-.6 1.4zm0-6a2 2 0 0 1-1.4.6 2 2 0 0 1-1.4-3.4 2.1 2.1 0 0 1 2.8 0A2.1 2.1 0 0 1 34 43a2 2 0 0 1-.6 1.4zm7 12a2 2 0 0 1-2.8-2.8 2.1 2.1 0 0 1 2.8 0A2.1 2.1 0 0 1 41 55a2 2 0 0 1-.6 1.4zm0-6a2 2 0 0 1-2.8-2.8 2.1 2.1 0 0 1 2.8 0A2.1 2.1 0 0 1 41 49a2 2 0 0 1-.6 1.4zm0-6a2 2 0 0 1-2.8 0A2 2 0 0 1 37 43a2 2 0 0 1 .6-1.4 2.1 2.1 0 0 1 2.8 0A2.1 2.1 0 0 1 41 43a2 2 0 0 1-.6 1.4zM43 35H21V19h22z"
    fill="#2e2c2d"></path>
  </symbol>
  <symbol xmlns="http://www.w3.org/2000/svg" viewBox="0 0 64 64" id="call-cellular-1">
    <title>Call Cellular</title>
    <desc>A solid styled icon from Orion Icon Library.</desc>
    <path data-name="layer2"
    d="M51.8 23.1a2 2 0 0 0-1.1 2.6 20.1 20.1 0 0 1 0 14.5 2 2 0 0 0 1.1 2.6h.7a2 2 0 0 0 1.9-1.3 24.1 24.1 0 0 0 0-17.5 2 2 0 0 0-2.6-.9zm-39.6 0a2 2 0 0 0-2.6 1.1 24.1 24.1 0 0 0 0 17.5 2 2 0 0 0 1.9 1.3h.7a2 2 0 0 0 1.1-2.6 20.1 20.1 0 0 1 0-14.5 2 2 0 0 0-1.1-2.8zm49.1-3a2 2 0 1 0-3.7 1.6 28.1 28.1 0 0 1 0 22.4 2 2 0 0 0 1 2.6l.8.2a2 2 0 0 0 1.8-1.2 32.1 32.1 0 0 0 0-25.6zm-56-1a2 2 0 0 0-2.6 1 32.1 32.1 0 0 0 0 25.6 2 2 0 0 0 1.8 1.2l.8-.2a2 2 0 0 0 1-2.6 28.1 28.1 0 0 1 0-22.4 2 2 0 0 0-1-2.6z"
    fill="#2e2c2d"></path>
    <path data-name="layer1" d="M40 7H26V3a2 2 0 1 0-4 0v4.3a8 8 0 0 0-6 7.7v40a8 8 0 0 0 8 8h16a8 8 0 0 0 8-8V15a8 8 0 0 0-8-8zm4 28H20V15h24zM24.6 45.6a2.1 2.1 0 0 1 2.8 0A2 2 0 0 1 28 47a2 2 0 1 1-3.4-1.4zM24 41a2 2 0 0 1 .6-1.4 2.1 2.1 0 0 1 2.8 0A2 2 0 0 1 28 41a2 2 0 0 1-2 2 2 2 0 0 1-2-2zm.6 10.6a2.1 2.1 0 0 1 2.8 0A2 2 0 0 1 28 53a2 2 0 1 1-3.4-1.4zm6-6a2.1 2.1 0 0 1 2.8 0A2 2 0 0 1 34 47a2 2 0 0 1-2 2 2 2 0 0 1-2-2 2 2 0 0 1 .6-1.4zM30 41a2 2 0 0 1 .6-1.4 2.1 2.1 0 0 1 2.8 0A2 2 0 0 1 34 41a2 2 0 0 1-2 2 2 2 0 0 1-2-2zm.6 10.6a2.1 2.1 0 0 1 2.8 0A2 2 0 0 1 34 53a2 2 0 0 1-2 2 2 2 0 0 1-2-2 2 2 0 0 1 .6-1.4zm6-6a2.1 2.1 0 0 1 2.8 0A2 2 0 0 1 40 47a2 2 0 0 1-2 2 2 2 0 0 1-2-2 2 2 0 0 1 .6-1.4zM36 41a2 2 0 0 1 .6-1.4 2.1 2.1 0 0 1 2.8 0A2 2 0 0 1 40 41a2 2 0 0 1-2 2 2 2 0 0 1-2-2zm.6 10.6a2.1 2.1 0 0 1 2.8 0A2 2 0 0 1 40 53a2 2 0 0 1-2 2 2 2 0 0 1-2-2 2 2 0 0 1 .6-1.4z"
    fill="#2e2c2d"></path>
  </symbol>
  <symbol xmlns="http://www.w3.org/2000/svg" viewBox="0 0 64 64" id="telephone-operator-1">
    <title>Telephone Operator</title>
    <desc>A solid styled icon from Orion Icon Library.</desc>
    <path data-name="layer1"
    d="M63.6 61.6A16.5 16.5 0 0 0 50.3 49c-8.4-1.6-8.4-3.4-8.4-4.6v-3.9a9.9 9.9 0 0 0 5.9-7.3h3.5a2.6 2.6 0 0 0 2.7-2.6v-8a2.6 2.6 0 0 0-2.6-2.6H48v-3.6C48 5.1 40 0 32 0S16 5.1 16 16.4V20h-3.3a2.6 2.6 0 0 0-2.7 2.6v7.9a2.6 2.6 0 0 0 2.6 2.6H17a20.1 20.1 0 0 0 5 8.5v2.9c0 .1.1 3-8.4 4.5A16.5 16.5 0 0 0 .4 61.6L0 64h64zM20 19.9c6-.5 9-2.9 11.5-5S35.1 12 38 12a5.6 5.6 0 0 1 6 5.1V32c0 2.8-3.1 4.9-4 4.9h-.7a2.9 2.9 0 0 0-2.2-.9h-2.2a2.9 2.9 0 0 0-2.9 2.9 3 3 0 0 0 2.9 3.1H37l.9-.2v2.5a6.2 6.2 0 0 0 1.3 4.3l-7.2 10-7.3-9.9a6 6 0 0 0 1.3-4.3 2 2 0 0 0 1-3.7c-4.3-2.6-7-8.3-7-14.6z"
    fill="#2e2c2d"></path>
  </symbol>
  <symbol xmlns="http://www.w3.org/2000/svg" viewBox="0 0 64 64" id="customer-support-1">
    <title>Customer Support</title>
    <desc>A solid styled icon from Orion Icon Library.</desc>
    <path data-name="layer1"
    d="M63.6 61.6A16.5 16.5 0 0 0 50.3 49h-.5l1.5-1.5 1.5-1.5-1.4-1.4c-1.6-1.6-2.6-6.5-3.1-11.4h3a2.6 2.6 0 0 0 2.7-2.6v-8a2.6 2.6 0 0 0-2.6-2.6H48v-3.6C48 5.1 40 0 32 0a17.7 17.7 0 0 0-6.7 1.3h-.2C20 3.6 16 8.4 16 16.4V20h-3.3a2.6 2.6 0 0 0-2.7 2.6v7.9a2.6 2.6 0 0 0 2.6 2.6h3c-.5 4.9-1.5 9.8-3 11.4L11.2 46l1.4 1.4 1.5 1.5h-.5A16.5 16.5 0 0 0 .4 61.6L0 64h64zM28.9 60l-7.3-9.1c3.6-1.7 4.5-3.8 4.4-6.5a2 2 0 0 0 1-3.7c-4.3-2.6-7-8.3-7-14.6v-4.3h.3c4.3-1.1 6.2-5.2 7.1-9.3 2.7 3.6 7.7 7.1 16.6 7.5v12c0 2.8-3.1 4.9-4 4.9h-.7a2.9 2.9 0 0 0-2.2-.9h-2.2a2.9 2.9 0 0 0-2.9 2.9 3 3 0 0 0 2.9 3.1H37l.9-.2v2.5c-.1 2.8.8 5 4.6 6.7l-7.4 9z"
    fill="#2e2c2d"></path>
  </symbol>
  <symbol xmlns="http://www.w3.org/2000/svg" viewBox="0 0 64 64" id="support-1">
    <title>Support</title>
    <desc>A solid styled icon from Orion Icon Library.</desc>
    <path data-name="layer1"
    d="M56.4 27H54v-4c0-12.5-9-22-21-22h-2c-12 0-21 9.5-21 22v4H7.6A3.6 3.6 0 0 0 4 30.6v10.8A3.6 3.6 0 0 0 7.6 45H18V27h-4v-4c0-10.3 7.3-18 17-18h2c9.7 0 17 7.7 17 18v4h-4v18h4c0 11.6-9 12-10 12h-.6a4 4 0 0 0-3.4-2h-4a4 4 0 0 0 0 8h4a4 4 0 0 0 3.4-2h.6c.1 0 14-.2 14-16h2.4a3.6 3.6 0 0 0 3.6-3.6V30.6a3.6 3.6 0 0 0-3.6-3.6z"
    fill="#2e2c2d"></path>
  </symbol>
  <symbol viewBox="0 0 64 64" xmlns="http://www.w3.org/2000/svg" id="microphone-1">
    <title>Microphone</title>
    <desc>A solid styled icon from Orion Icon Library.</desc>
    <path fill="#2e2c2d"
    d="M32 44a12.014 12.014 0 0 0 12-12V13a12 12 0 1 0-24 0v19a12.014 12.014 0 0 0 12 12z"
    data-name="layer2"></path>
    <path fill="#2e2c2d" d="M50 21a2 2 0 0 0-2 2v9a16 16 0 1 1-32 0v-9a2 2 0 1 0-4 0v9a20.027 20.027 0 0 0 18 19.9V60h-8a2 2 0 0 0 0 4h20a2 2 0 0 0 0-4h-8v-8.1A20.026 20.026 0 0 0 52 32v-9a2 2 0 0 0-2-2z"
    data-name="layer1"></path>
  </symbol>
  <symbol viewBox="0 0 64 64" xmlns="http://www.w3.org/2000/svg" id="mute-mic-1">
    <title>Mute Mic</title>
    <desc>A solid styled icon from Orion Icon Library.</desc>
    <path fill="#2e2c2d"
    d="M45 33v-9.869l-19.471 19.7L28.2 44A12.006 12.006 0 0 0 45 33z" data-name="layer1"></path>
    <path fill="#2e2c2d" d="M51 21a2 2 0 0 0-2 2v10a16 16 0 0 1-24.891 13.307 2 2 0 0 0-2.225 3.324A19.869 19.869 0 0 0 31 52.889V60h-8a2 2 0 0 0 0 4h20a2 2 0 0 0 0-4h-8v-7.1A20.027 20.027 0 0 0 53 33V23a2 2 0 0 0-2-2zm7.414-19.414a2 2 0 0 0-2.828 0L44.959 12.213A11.992 11.992 0 0 0 21 13v20a12.029 12.029 0 0 0 .344 2.828L18.172 39A16.018 16.018 0 0 1 17 33V23a2 2 0 1 0-4 0v10a19.972 19.972 0 0 0 2.152 9.02l-9.566 9.566a2 2 0 1 0 2.828 2.828l29.18-29.181L45 17.83 58.414 4.414a2 2 0 0 0 0-2.828z"
    data-name="layer1"></path>
  </symbol>
  <symbol xmlns="http://www.w3.org/2000/svg" viewBox="0 0 64 64" id="low-signal-1">
    <title>Low Signal</title>
    <desc>A solid styled icon from Orion Icon Library.</desc>
    <path data-name="layer2"
    fill="#2e2c2d" d="M12 57H4V43h8"></path>
    <path data-name="layer1" fill="#2e2c2d" d="M52 53h8v4h-8zm-12 0h8v4h-8zm-12 0h8v4h-8zm-12 0h8v4h-8z"></path>
  </symbol>
  <symbol xmlns="http://www.w3.org/2000/svg" viewBox="0 0 64 64" id="bad-reception-1">
    <title>Bad Reception</title>
    <desc>A solid styled icon from Orion Icon Library.</desc>
    <path data-name="layer2"
    fill="#2e2c2d" d="M16 35h8v22h-8zM4 43h8v14H4z"></path>
    <path data-name="layer1" fill="#2e2c2d" d="M52 53h8v4h-8zm-12 0h8v4h-8zm-12 0h8v4h-8z"></path>
  </symbol>
  <symbol xmlns="http://www.w3.org/2000/svg" viewBox="0 0 64 64" id="medium-signal-1">
    <title>Medium Signal</title>
    <desc>A solid styled icon from Orion Icon Library.</desc>
    <path data-name="layer2"
    fill="#2e2c2d" d="M28 27h8v30h-8zm-12 8h8v22h-8zM4 43h8v14H4z"></path>
    <path data-name="layer1" fill="#2e2c2d" d="M52 53h8v4h-8zm-12 0h8v4h-8z"></path>
  </symbol>
  <symbol xmlns="http://www.w3.org/2000/svg" viewBox="0 0 64 64" id="mobile-phone-signal-1">
    <title>Mobile Phone Signal</title>
    <desc>A solid styled icon from Orion Icon Library.</desc>
    <path data-name="layer2"
    fill="#2e2c2d" d="M40 19h8v38h-8zm-12 8h8v30h-8zm-12 8h8v22h-8zM4 43h8v14H4z"></path>
    <path data-name="layer1" fill="#2e2c2d" d="M52 53h8v4h-8z"></path>
  </symbol>
  <symbol xmlns="http://www.w3.org/2000/svg" viewBox="0 0 64 64" id="signal-bars-1">
    <title>Signal Bars</title>
    <desc>A solid styled icon from Orion Icon Library.</desc>
    <path data-name="layer2"
    fill="#2e2c2d" d="M52 11h8v46h-8zm-12 8h8v38h-8z"></path>
    <path data-name="layer1" fill="#2e2c2d" d="M28 27h8v30h-8zm-12 8h8v22h-8zM4 43h8v14H4z"></path>
  </symbol>
  <symbol xmlns="http://www.w3.org/2000/svg" viewBox="0 0 64 64" id="alert-1">
    <title>Alert</title>
    <desc>A solid styled icon from Orion Icon Library.</desc>
    <path data-name="layer1"
    d="M62 6a2 2 0 0 0-2 2v2.6L4 27.4V26a2 2 0 1 0-4 0v12a2 2 0 1 0 4 0v-1.4l17 5.1V45a11 11 0 0 0 21.5 3.2L60 53.4V56a2 2 0 1 0 4 0V8a2 2 0 0 0-2-2zM32 52a7 7 0 0 1-7-7v-2.1L38.7 47a7 7 0 0 1-6.7 5z"
    fill="#2e2c2d"></path>
  </symbol>
  <symbol xmlns="http://www.w3.org/2000/svg" viewBox="0 0 64 64" id="megaphone-1">
    <title>Megaphone</title>
    <desc>A solid styled icon from Orion Icon Library.</desc>
    <path data-name="layer1"
    d="M56 21V7a55 55 0 0 1-30 10h-8v20c0 6.1 0 15.4 11.3 19.9h.7a2 2 0 0 0 .7-3.9C22 49.6 22 42.9 22 37h4a50.4 50.4 0 0 1 30 10V33a6 6 0 1 0 0-12zM2 23v8a6 6 0 0 0 6 6h6V17H8a6 6 0 0 0-6 6z"
    fill="#2e2c2d"></path>
  </symbol>
  <symbol xmlns="http://www.w3.org/2000/svg" viewBox="0 0 64 64" id="video-call-1">
    <title>Video Call</title>
    <desc>A solid styled icon from Orion Icon Library.</desc>
    <rect data-name="layer2"
    x="4" y="16" width="36" height="32" rx="4" ry="4" fill="#2e2c2d"></rect>
    <path data-name="layer1" fill="#2e2c2d" d="M58 18l-14 8v12l14 8h2V18h-2z"></path>
  </symbol>
  <symbol xmlns="http://www.w3.org/2000/svg" viewBox="0 0 64 64" id="video-camera-1">
    <title>Video Camera</title>
    <desc>A solid styled icon from Orion Icon Library.</desc>
    <path data-name="layer1"
    d="M52 2H12A10 10 0 0 0 2 12v40a10 10 0 0 0 10 10h40a10 10 0 0 0 10-10V12A10 10 0 0 0 52 2zm0 39l-12-5v5.5a1.5 1.5 0 0 1-1.5 1.5h-23a1.5 1.5 0 0 1-1.5-1.5v-19a1.5 1.5 0 0 1 1.5-1.5h23a1.5 1.5 0 0 1 1.5 1.5V28l12-5z"
    fill="#2e2c2d"></path>
  </symbol>
  <symbol xmlns="http://www.w3.org/2000/svg" viewBox="0 0 64 64" id="take-video-1">
    <title>Take Video</title>
    <desc>A solid styled icon from Orion Icon Library.</desc>
    <path data-name="layer1"
    d="M32 2a30 30 0 1 0 30 30A30 30 0 0 0 32 2zm18 39l-10-6v5.7a1.3 1.3 0 0 1-1.3 1.3H17.3a1.3 1.3 0 0 1-1.3-1.3V23.3a1.3 1.3 0 0 1 1.3-1.3h21.4a1.3 1.3 0 0 1 1.3 1.3V29l10-6z"
    fill="#2e2c2d"></path>
  </symbol>
  <symbol xmlns="http://www.w3.org/2000/svg" viewBox="0 0 64 64" id="wifi-signal-1">
    <title>Wifi Signal</title>
    <desc>A solid styled icon from Orion Icon Library.</desc>
    <circle data-name="layer2"
    cx="8" cy="56" r="6" fill="#2e2c2d"></circle>
    <path data-name="layer1" d="M8 0a2 2 0 0 0 0 4 52.1 52.1 0 0 1 52 52 2 2 0 0 0 4 0A56.1 56.1 0 0 0 8 0z"
    fill="#2e2c2d"></path>
    <path data-name="layer1" d="M8 16a2 2 0 0 0 0 4 36 36 0 0 1 36 36 2 2 0 0 0 4 0A40 40 0 0 0 8 16z"
    fill="#2e2c2d"></path>
    <path data-name="layer1" d="M8 32a2 2 0 0 0 0 4 20 20 0 0 1 20 20 2 2 0 1 0 4 0A24 24 0 0 0 8 32z"
    fill="#2e2c2d"></path>
  </symbol>
  <symbol xmlns="http://www.w3.org/2000/svg" viewBox="0 0 64 64" id="reception-1">
    <title>Reception</title>
    <desc>A solid styled icon from Orion Icon Library.</desc>
    <circle data-name="layer2"
    cx="32" cy="56" r="6" fill="#2e2c2d"></circle>
    <path data-name="layer1" d="M63.1 9.4a56 56 0 0 0-62.2 0 2 2 0 0 0 2.2 3.3 52 52 0 0 1 57.8 0 2 2 0 0 0 2.2-3.3zm-8.3 13.7a40 40 0 0 0-45.5 0 2 2 0 0 0 2.3 3.3 36 36 0 0 1 41 0 2 2 0 1 0 2.3-3.3zm-8.5 13.6a24 24 0 0 0-28.6 0 2 2 0 1 0 2.4 3.2 20 20 0 0 1 23.8 0 2 2 0 0 0 2.4-3.2z"
    fill="#2e2c2d"></path>
  </symbol>
  <symbol xmlns="http://www.w3.org/2000/svg" viewBox="0 0 64 64" id="rfid-signal-1">
    <title>RFID Signal</title>
    <desc>A solid styled icon from Orion Icon Library.</desc>
    <circle data-name="layer2"
    cx="32" cy="32" r="4" fill="#2e2c2d"></circle>
    <path data-name="layer1" d="M25.8 24.2a2 2 0 1 0-2.4-3.2 14 14 0 0 0 0 22 2 2 0 0 0 2.5-3.1 10 10 0 0 1 0-15.7zM40.7 21a2 2 0 0 0-2.5 3.1 10 10 0 0 1 0 15.7 2 2 0 1 0 2.5 3.2 14 14 0 0 0 0-22z"
    fill="#2e2c2d"></path>
    <path data-name="layer1" d="M13 32a19 19 0 0 1 6.5-14.3 2 2 0 1 0-2.6-3 23 23 0 0 0 0 34.7 2 2 0 0 0 2.6-3A19 19 0 0 1 13 32zm34.1-17.3a2 2 0 1 0-2.6 3 19 19 0 0 1 0 28.6 2 2 0 1 0 2.6 3 23 23 0 0 0 0-34.7z"
    fill="#2e2c2d"></path>
    <path data-name="layer1" d="M4 32a28.1 28.1 0 0 1 9.1-20.7 2 2 0 1 0-2.7-3 32 32 0 0 0 0 47.3 2 2 0 1 0 2.7-3A28.1 28.1 0 0 1 4 32zM53.5 8.3a2 2 0 1 0-2.7 3 28 28 0 0 1 0 41.4 2 2 0 1 0 2.7 3 32 32 0 0 0 0-47.3z"
    fill="#2e2c2d"></path>
  </symbol>
  <symbol xmlns="http://www.w3.org/2000/svg" viewBox="0 0 64 64" id="cellular-signal-1">
    <title>Cellular Signal</title>
    <desc>A solid styled icon from Orion Icon Library.</desc>
    <path data-name="layer2"
    d="M32 20.1a8 8 0 0 0-2 15.7v22.3a2 2 0 0 0 4 0V35.8a8 8 0 0 0-2-15.7z"
    fill="#2e2c2d"></path>
    <path data-name="layer1" d="M46.4 11.5a2 2 0 0 0-2.6 3 18 18 0 0 1 0 27.2 2 2 0 1 0 2.6 3 22 22 0 0 0 0-33.2zM14 28.1a18 18 0 0 1 6.2-13.6 2 2 0 0 0-2.6-3 22 22 0 0 0 0 33.2 2 2 0 0 0 2.6-3A18 18 0 0 1 14 28.1z"
    fill="#2e2c2d"></path>
    <path data-name="layer1" d="M53.5 4.4a2 2 0 0 0-2.7 3 28 28 0 0 1 0 41.4 2 2 0 1 0 2.7 3 32 32 0 0 0 0-47.3zM4 28.1a28.1 28.1 0 0 1 9.2-20.7 2 2 0 0 0-2.7-3 32 32 0 0 0 0 47.3 2 2 0 1 0 2.7-3A28.1 28.1 0 0 1 4 28.1z"
    fill="#2e2c2d"></path>
  </symbol>
  <symbol xmlns="http://www.w3.org/2000/svg" viewBox="0 0 64 64" id="radio-tower-1">
    <title>Radio Tower</title>
    <desc>A solid styled icon from Orion Icon Library.</desc>
    <circle data-name="layer1"
    cx="32" cy="33" r="8" fill="#2e2c2d"></circle>
    <path data-name="layer2" d="M32 11a22 22 0 0 0-15.6 37.6 2 2 0 0 0 2.8-2.8 18 18 0 1 1 25.5 0 2 2 0 0 0 2.8 2.8A22 22 0 0 0 32 11z"
    fill="#2e2c2d"></path>
    <path data-name="layer2" d="M32 1A32 32 0 0 0 9.4 55.6a2 2 0 0 0 2.8-2.8A28 28 0 1 1 60 33a27.8 27.8 0 0 1-8.2 19.8 2 2 0 0 0 2.8 2.8A32 32 0 0 0 32 1z"
    fill="#2e2c2d"></path>
    <path data-name="layer1" d="M32 47c-6.6 0-12 7.2-12 16h24c0-8.8-5.4-16-12-16z"
    fill="#2e2c2d"></path>
  </symbol>
  <symbol xmlns="http://www.w3.org/2000/svg" viewBox="0 0 64 64" id="satellite-1">
    <title>Satellite</title>
    <desc>A solid styled icon from Orion Icon Library.</desc>
    <path data-name="layer1"
    d="M10.1 34.1l19.8 19.8a14.6 14.6 0 0 0-2.1-17.7 14.6 14.6 0 0 0-17.7-2.1z"
    fill="#2e2c2d"></path>
    <path data-name="layer2" d="M20.4 52.1a8.5 8.5 0 0 1-8.5-8.5 2 2 0 1 0-4 0 12.5 12.5 0 0 0 12.5 12.5 2 2 0 0 0 0-4z"
    fill="#2e2c2d"></path>
    <path data-name="layer2" d="M20.1 60A16.1 16.1 0 0 1 4 43.9a2 2 0 1 0-4 0A20.1 20.1 0 0 0 20.1 64a2 2 0 0 0 0-4z"
    fill="#2e2c2d"></path>
    <path data-name="layer1" d="M62.5 46.8L49.7 34.1a1 1 0 0 0-1.4 0l-2.8 2.8-3.5-3.5 5.7-5.7a2 2 0 0 0 0-2.8l-2.8-2.8 6.7-6.7a2 2 0 0 0-2.8-2.8L42 19.3l-2.9-2.9a2 2 0 0 0-2.8 0l-5.7 5.7-3.5-3.5 2.8-2.8a1 1 0 0 0 0-1.4L17.2 1.5a1 1 0 0 0-1.4 0L7.3 10a1 1 0 0 0 0 1.4L20 24.2a1 1 0 0 0 1.4 0l2.8-2.8 3.5 3.5-4.2 4.2a2 2 0 0 0 0 2.8l4.2 4.2 4.3 4.3a2 2 0 0 0 2.8 0l4.2-4.2 3.5 3.5-2.8 2.8a1 1 0 0 0 0 1.4l12.9 12.8a1 1 0 0 0 1.4 0l8.5-8.5a1 1 0 0 0 0-1.4z"
    fill="#2e2c2d"></path>
  </symbol>
  <symbol xmlns="http://www.w3.org/2000/svg" viewBox="0 0 64 64" id="dish-radio-antenna-1">
    <title>Dish Radio Antenna</title>
    <desc>A solid styled icon from Orion Icon Library.</desc>
    <path data-name="layer1"
    d="M42.8 21.4a2 2 0 0 0-2.8-2.8l-6.7 6.7L15.1 7.2a26.3 26.3 0 0 0 37.1 37.1L36 28.1z"
    fill="#2e2c2d"></path>
    <path data-name="layer2" d="M47.4 20a2 2 0 1 0 4 0 10 10 0 0 0-10-10 2 2 0 0 0 0 4 6 6 0 0 1 6 6z"
    fill="#2e2c2d"></path>
    <path data-name="layer2" d="M41.4 2a2 2 0 0 0 0 4 14 14 0 0 1 14 14 2 2 0 1 0 4 0 18 18 0 0 0-18-18z"
    fill="#2e2c2d"></path>
    <path data-name="layer1" d="M12.4 47.3L4.6 62h27.9l-3.1-6.3a30 30 0 0 1-17-8.4z"
    fill="#2e2c2d"></path>
  </symbol>
  <symbol viewBox="0 0 64 64" xmlns="http://www.w3.org/2000/svg" id="share-1">
    <title>Share</title>
    <desc>A solid styled icon from Orion Icon Library.</desc>
    <path fill="#2e2c2d"
    d="M52 42a9.972 9.972 0 0 0-7.873 3.85 2.02 2.02 0 0 0-.176-.11L21.838 34.683a2.029 2.029 0 0 0-.193-.073 9.737 9.737 0 0 0 .013-5.165l22.488-11.266a10.107 10.107 0 1 0-1.792-3.579L19.881 25.859a10 10 0 1 0-.006 12.291 1.73 1.73 0 0 0 .174.11l22.113 11.057c.065.031.131.046.2.07A9.994 9.994 0 1 0 52 42z"></path>
  </symbol>
  <symbol xmlns="http://www.w3.org/2000/svg" viewBox="0 0 64 64" id="envelope-1">
    <title>Envelope</title>
    <desc>A solid styled icon from Orion Icon Library.</desc>
    <path data-name="layer2"
    fill="#2e2c2d" d="M59.1 12H5l27 24.7L59.1 12z"></path>
    <path data-name="layer1" fill="#2e2c2d" d="M32 42.1L2 14.7V52h60V14.7L32 42.1z"></path>
  </symbol>
  <symbol xmlns="http://www.w3.org/2000/svg" viewBox="0 0 64 64" id="mail-1">
    <title>Mail</title>
    <desc>A solid styled icon from Orion Icon Library.</desc>
    <path data-name="layer1"
    fill="#2e2c2d" d="M2 14.7v34.4l17.2-17.5L2 14.7zm42.8 16.9L62 49.1V14.7L44.8 31.6z"></path>
    <path data-name="layer2" fill="#2e2c2d" d="M59.1 12H5l27 26.6L59.1 12z"></path>
    <path data-name="layer1" fill="#2e2c2d" d="M32 44.2l-10-9.8L4.7 52h54.6L42 34.4l-10 9.8z"></path>
  </symbol>
  <symbol xmlns="http://www.w3.org/2000/svg" viewBox="0 0 64 64" id="open-mail-1">
    <title>Open Mail</title>
    <desc>A solid styled icon from Orion Icon Library.</desc>
    <path data-name="layer1"
    fill="#2e2c2d" d="M2 30.4v28.7l16.8-16.9L2 30.4zm43.2 11.8L62 59.1V30.7L45.2 42.2z"></path>
    <path data-name="layer2" d="M42.3 39.4l18.3-12.6L32 2.8 3.6 26.6l18.1 12.8c4.8-4.5 15.9-4.5 20.6 0z"
    fill="#2e2c2d"></path>
    <path data-name="layer1" d="M24.3 42.3L4.8 62h54.4L39.7 42.3c-3.2-3.1-12.2-3.1-15.4 0z"
    fill="#2e2c2d"></path>
  </symbol>
  <symbol xmlns="http://www.w3.org/2000/svg" viewBox="0 0 64 64" id="read-email-1">
    <title>Read Email</title>
    <desc>A solid styled icon from Orion Icon Library.</desc>
    <path data-name="layer2"
    fill="#2e2c2d" d="M45.2 42.2L62 59.1V30.6L45.2 42.2zM2 30.2v28.9l16.8-16.9L2 30.2zm22.3 12.1L4.8 62h54.4L39.7 42.3c-3.2-3.1-12.2-3.1-15.4 0zM58 24.6v3.9l2.5-1.8-2.5-2.1zm-52 0l-2.3 1.9L6 28.1v-3.5z"></path>
    <path data-name="layer1" d="M42.2 39.3L54 31.2V2H10v29.2l11.6 8.1c4.8-4.4 15.9-4.4 20.6 0zM46 22H24v-4h22zM18 10h10v4H18zm0 16h28v4H18z"
    fill="#2e2c2d"></path>
  </symbol>
  <symbol xmlns="http://www.w3.org/2000/svg" viewBox="0 0 64 64" id="new-email-1">
    <title>New Email</title>
    <desc>A solid styled icon from Orion Icon Library.</desc>
    <path data-name="layer1"
    fill="#2e2c2d" d="M51.7 5H4.3L28 23.1 51.7 5z"></path>
    <path data-name="layer2" d="M48 29a15 15 0 1 0 15 15 15 15 0 0 0-15-15zm7 17h-5v5a2 2 0 0 1-4 0v-5h-5a2 2 0 0 1 0-4h5v-5a2 2 0 0 1 4 0v5h5a2 2 0 0 1 0 4z"
    fill="#2e2c2d"></path>
    <path data-name="layer1" d="M48 25a18.9 18.9 0 0 1 7 1.4V7.5L28 28.2 1 7.5V41h28.3A19 19 0 0 1 48 25z"
    fill="#2e2c2d"></path>
  </symbol>
  <symbol xmlns="http://www.w3.org/2000/svg" viewBox="0 0 64 64" id="delete-email-1">
    <title>Delete Email</title>
    <desc>A solid styled icon from Orion Icon Library.</desc>
    <path data-name="layer1"
    fill="#2e2c2d" d="M51.7 5H4.3L28 23.1 51.7 5z"></path>
    <path data-name="layer2" d="M48 29a15 15 0 1 0 15 15 15 15 0 0 0-15-15zm7 17H41a2 2 0 1 1 0-4h14a2 2 0 0 1 0 4z"
    fill="#2e2c2d"></path>
    <path data-name="layer1" d="M48 25a18.9 18.9 0 0 1 7 1.4V7.5L28 28.2 1 7.5V41h28.3A19 19 0 0 1 48 25z"
    fill="#2e2c2d"></path>
  </symbol>
  <symbol xmlns="http://www.w3.org/2000/svg" viewBox="0 0 64 64" id="deleted-email-1">
    <title>Deleted Email</title>
    <desc>A solid styled icon from Orion Icon Library.</desc>
    <path data-name="layer1"
    fill="#2e2c2d" d="M51.7 5H4.3L28 23.1 51.7 5z"></path>
    <path data-name="layer2" d="M48 29a15 15 0 1 0 15 15 15 15 0 0 0-15-15zm6.4 18.5a2 2 0 1 1-2.8 2.8L48 46.8l-3.5 3.5a2 2 0 1 1-2.8-2.8l3.5-3.5-3.5-3.5a2 2 0 1 1 2.8-2.8l3.5 3.5 3.5-3.5a2 2 0 1 1 2.8 2.8L50.8 44z"
    fill="#2e2c2d"></path>
    <path data-name="layer1" d="M48 25a18.9 18.9 0 0 1 7 1.4V7.5L28 28.2 1 7.5V41h28.3A19 19 0 0 1 48 25z"
    fill="#2e2c2d"></path>
  </symbol>
  <symbol xmlns="http://www.w3.org/2000/svg" viewBox="0 0 64 64" id="email-sent-1">
    <title>Email Sent</title>
    <desc>A solid styled icon from Orion Icon Library.</desc>
    <path data-name="layer1"
    fill="#2e2c2d" d="M51.7 5H4.3L28 23.1 51.7 5z"></path>
    <path data-name="layer2" d="M48 29a15 15 0 1 0 15 15 15 15 0 0 0-15-15zm7.4 13.4l-8 8a2 2 0 0 1-2.8 0l-4-4a2 2 0 1 1 2.8-2.8l2.6 2.6 6.6-6.6a2 2 0 1 1 2.8 2.8z"
    fill="#2e2c2d"></path>
    <path data-name="layer1" d="M48 25a18.9 18.9 0 0 1 7 1.4V7.5L28 28.2 1 7.5V41h28.3A19 19 0 0 1 48 25z"
    fill="#2e2c2d"></path>
  </symbol>
  <symbol xmlns="http://www.w3.org/2000/svg" viewBox="0 0 64 64" id="spam-email-1">
    <title>Spam Email</title>
    <desc>A solid styled icon from Orion Icon Library.</desc>
    <path data-name="layer1"
    d="M57.6 32.4L56 31V8.5L29 29.2 2 8.5V42h30.1c0 .3-.1.7-.1 1a15 15 0 1 0 25.6-10.6zM37.9 49.2a11 11 0 0 1 15.3-15.3zM47 54a10.9 10.9 0 0 1-6.2-1.9l15.3-15.3A11 11 0 0 1 47 54z"
    fill="#2e2c2d"></path>
    <path data-name="layer1" fill="#2e2c2d" d="M52.7 6H5.3L29 24.1 52.7 6z"></path>
  </symbol>
  <symbol xmlns="http://www.w3.org/2000/svg" viewBox="0 0 64 64" id="search-email-1">
    <title>Search Email</title>
    <desc>A solid styled icon from Orion Icon Library.</desc>
    <path data-name="layer1"
    fill="#2e2c2d" d="M51.7 6H4.3L28 24.1 51.7 6z"></path>
    <path data-name="layer1" d="M62.4 54.6L54.8 47a11.9 11.9 0 0 0 .2-13.6V8.5L28 29.2 1 8.5V42h32.2A12 12 0 0 0 52 49.8l7.6 7.6a2 2 0 0 0 2.8-2.8zM45 48a8 8 0 1 1 8-8 8 8 0 0 1-8 8z"
    fill="#2e2c2d"></path>
  </symbol>
  <symbol xmlns="http://www.w3.org/2000/svg" viewBox="0 0 64 64" id="search-inbox-1">
    <title>Search Inbox</title>
    <desc>A solid styled icon from Orion Icon Library.</desc>
    <path data-name="layer1"
    d="M62.4 59.3l-7.6-7.6a11.9 11.9 0 0 0 .2-13.6V23.2l-15.4 9.7 1 .7a12 12 0 0 0-3.6 2.3l-9-6.7L5.1 46.7h28.1A12 12 0 0 0 52 54.5l7.6 7.6a2 2 0 1 0 2.8-2.8zm-9.7-12.6a8 8 0 1 1 .3-2 8 8 0 0 1-.3 2z"
    fill="#2e2c2d"></path>
    <path data-name="layer1" fill="#2e2c2d" d="M28 24.2l8.2 6.1 17.1-10.8L28 1.3 2.7 19.5l17.2 10.9 8.1-6.2zM1 23.1v21.7L16.5 33 1 23.1z"></path>
  </symbol>
  <symbol xmlns="http://www.w3.org/2000/svg" viewBox="0 0 64 64" id="sync-email-1">
    <title>Sync Email</title>
    <desc>A solid styled icon from Orion Icon Library.</desc>
    <path data-name="layer2"
    d="M39.3 40.6a2 2 0 0 0-2.8-.1l-.7.6A10 10 0 0 1 52.4 37a2 2 0 0 0 2.8-2.8 14 14 0 0 0-23.4 6.3l-.4-.6A2 2 0 1 0 28 42l4.8 7.1 6.3-5.7a2 2 0 0 0 .2-2.8zm23.4 4.7l-4.8-7.1-6.3 5.7a2 2 0 0 0 2.7 3l.8-.8a10 10 0 0 1-16.8 5 2 2 0 1 0-2.8 2.8A14 14 0 0 0 59 47l.4.5a2 2 0 0 0 3.3-2.2z"
    fill="#2e2c2d"></path>
    <path data-name="layer1" fill="#2e2c2d" d="M51.3 6H4.9L28 24.1 51.3 6z"></path>
    <path data-name="layer1" d="M29.8 34.9a18 18 0 0 1 25.2-6V8.2l-27 21L1 8.1V42h22.8a6 6 0 0 1 5.9-7.1z"
    fill="#2e2c2d"></path>
  </symbol>
  <symbol xmlns="http://www.w3.org/2000/svg" viewBox="0 0 64 64" id="write-email-1">
    <title>Write Email</title>
    <desc>A solid styled icon from Orion Icon Library.</desc>
    <path data-name="layer2"
    fill="#2e2c2d" d="M55.1 28L35.7 47.3l7 7L62.1 35l-7-7zM29.9 60l9.4-3.5-5.8-5.8-3.6 9.3z"></path>
    <path data-name="layer1" fill="#2e2c2d" d="M52.6 6H5.2l23.7 18.1L52.6 6z"></path>
    <path data-name="layer1" d="M52.2 25.2A4 4 0 0 1 55 24h.9V8.5l-27 20.6-27-20.6V42h33.4z"
    fill="#2e2c2d"></path>
  </symbol>
  <symbol xmlns="http://www.w3.org/2000/svg" viewBox="0 0 64 64" id="secured-email-1">
    <title>Secured Email</title>
    <desc>A solid styled icon from Orion Icon Library.</desc>
    <path data-name="layer2"
    d="M59 38v-5a9 9 0 1 0-18 0v5h-4v20h26V38zm-7 12a2 2 0 0 1-4 0v-4a2 2 0 0 1 4 0zm3-12H45v-5a5 5 0 1 1 10 0z"
    fill="#2e2c2d"></path>
    <path data-name="layer1" fill="#2e2c2d" d="M51.7 6H4.3L28 24.1 51.7 6z"></path>
    <path data-name="layer1" d="M37 33a13 13 0 0 1 18-12V8.5L28 29.2 1 8.5V42h32v-8h4z"
    fill="#2e2c2d"></path>
  </symbol>
  <symbol xmlns="http://www.w3.org/2000/svg" viewBox="0 0 64 64" id="read-receipt-email-1">
    <title>Read Receipt Email</title>
    <desc>A solid styled icon from Orion Icon Library.</desc>
    <path data-name="layer2"
    d="M38 30v10.1A19.8 19.8 0 0 0 50 58c8.8-3.6 12-12.3 12-17.9V30zm19.5 9.3l-8.3 9.3-5.2-5.2a2 2 0 1 1 2.9-2.8l2.1 2.2 5.5-6.1a2 2 0 0 1 3 2.7z"
    fill="#2e2c2d"></path>
    <path data-name="layer1" fill="#2e2c2d" d="M52.7 6H5.3L29 24.1 52.7 6z"></path>
    <path data-name="layer1" d="M34 30v-4h22V8.5L29 29.2 2 8.5V42h32.1c-.1-.6-.1-1.2-.1-1.9z"
    fill="#2e2c2d"></path>
  </symbol>
  <symbol xmlns="http://www.w3.org/2000/svg" viewBox="0 0 64 64" id="snooze-email-1">
    <title>Snooze Email</title>
    <desc>A solid styled icon from Orion Icon Library.</desc>
    <path data-name="layer1"
    fill="#2e2c2d" d="M52.7 6H5.3L29 24.1 52.7 6z"></path>
    <path data-name="layer2" d="M48 28a14 14 0 1 0 14 14 14 14 0 0 0-14-14zm5 18h-8V35a2 2 0 0 1 4 0v7h4a2 2 0 0 1 0 4z"
    fill="#2e2c2d"></path>
    <path data-name="layer1" d="M48 24a17.9 17.9 0 0 1 8 1.9V8.5L29 29.2 2 8.5V42h28a18 18 0 0 1 18-18z"
    fill="#2e2c2d"></path>
  </symbol>
  <symbol xmlns="http://www.w3.org/2000/svg" viewBox="0 0 64 64" id="incoming-email-server-1">
    <title>Incoming Email Server</title>
    <desc>A solid styled icon from Orion Icon Library.</desc>
    <path data-name="layer1"
    fill="#2e2c2d" d="M52.7 6H5.3L29 24.1 52.7 6z"></path>
    <path data-name="layer2" d="M46 30a16 16 0 1 0 16 16 16 16 0 0 0-16-16zm7.3 18.5L46 55.8l-7.3-7.3a2 2 0 0 1 2.8-2.8l2.5 2.4V38a2 2 0 1 1 4 0v10.1l2.5-2.5a2 2 0 0 1 2.8 2.8z"
    fill="#2e2c2d"></path>
    <path data-name="layer1" d="M46 26a19.9 19.9 0 0 1 10 2.7V8.5L29 29.2 2 8.5V42h24.4A20 20 0 0 1 46 26z"
    fill="#2e2c2d"></path>
  </symbol>
  <symbol xmlns="http://www.w3.org/2000/svg" viewBox="0 0 64 64" id="outgoing-email-server-1">
    <title>Outgoing Email Server</title>
    <desc>A solid styled icon from Orion Icon Library.</desc>
    <path data-name="layer1"
    fill="#2e2c2d" d="M52.7 6H5.3L29 24.1 52.7 6z"></path>
    <path data-name="layer2" d="M46 30a16 16 0 1 0 16 16 16 16 0 0 0-16-16zm7.3 16.4a2 2 0 0 1-2.8 0L48 43.9V54a2 2 0 1 1-4 0V43.9l-2.5 2.5a2 2 0 1 1-2.8-2.8l7.3-7.4 7.3 7.3a2 2 0 0 1 0 2.9z"
    fill="#2e2c2d"></path>
    <path data-name="layer1" d="M46 26a19.9 19.9 0 0 1 10 2.7V8.5L29 29.2 2 8.5V42h24.4A20 20 0 0 1 46 26z"
    fill="#2e2c2d"></path>
  </symbol>
  <symbol xmlns="http://www.w3.org/2000/svg" viewBox="0 0 64 64" id="paper-plane-1">
    <title>Paper Plane</title>
    <desc>A solid styled icon from Orion Icon Library.</desc>
    <path data-name="layer2"
    fill="#2e2c2d" d="M4.1 28.4l21.2 8.4L55.8 5.9 4.1 28.4zm25 10.3l22.2 13.7 8.6-45-30.8 31.3z"></path>
    <path data-name="layer1" fill="#2e2c2d" d="M27.3 58.1l7.8-11.2-7.8-4.8v16z"></path>
  </symbol>
  <symbol xmlns="http://www.w3.org/2000/svg" viewBox="0 0 64 64" id="sent-email-1">
    <title>Sent Email</title>
    <desc>A solid styled icon from Orion Icon Library.</desc>
    <path data-name="layer2"
    fill="#2e2c2d" d="M5.2 27.5L23.1 38 56 5.2 5.2 27.5z"></path>
    <path data-name="layer1" fill="#2e2c2d" d="M25.9 40.9l10.9 17.9 22-50.7-32.9 32.8z"></path>
  </symbol>
  <symbol xmlns="http://www.w3.org/2000/svg" viewBox="0 0 64 64" id="send-email-1">
    <title>Send Email</title>
    <desc>A solid styled icon from Orion Icon Library.</desc>
    <path data-name="layer2"
    fill="#2e2c2d" d="M23 18.5l-6.3 26.6 15.9-12.4L23 18.5zM45.7 34L55 45.5l6.1-25.8L45.7 34zm-4.3-1.4l.3-.3h.1L59.2 16h-33l12.6 18.9zm-1.6 6.9a2 2 0 0 1-1.4.5h-.2a2 2 0 0 1-1.4-.9l-2-3L19.5 48h32.4l-9.2-11.2z"></path>
    <path data-name="layer1" d="M13.9 22H2a2 2 0 0 0 0 4h11.9a2 2 0 0 0 0-4zM12 30H2a2 2 0 0 0 0 4h10a2 2 0 0 0 0-4zm-2 8H2a2 2 0 0 0 0 4h8a2 2 0 0 0 0-4z"
    fill="#2e2c2d"></path>
  </symbol>
  <symbol xmlns="http://www.w3.org/2000/svg" viewBox="0 0 64 64" id="post-box-1">
    <title>Post Box</title>
    <desc>A solid styled icon from Orion Icon Library.</desc>
    <path data-name="layer2"
    fill="#2e2c2d" d="M14 54h36v8H14z"></path>
    <path data-name="layer1" d="M17 14v36h30V14h1.7l2.5-5a30 30 0 0 0-38.5 0l2.5 5zm23 30H24V30h16zm-2-20H26a2 2 0 0 1 0-4h12a2 2 0 0 1 0 4z"
    fill="#2e2c2d"></path>
  </symbol>
  <symbol xmlns="http://www.w3.org/2000/svg" viewBox="0 0 64 64" id="postal-box-1">
    <title>Postal Box</title>
    <desc>A solid styled icon from Orion Icon Library.</desc>
    <path data-name="layer2"
    fill="#2e2c2d" d="M2.6 40h3.2V24H.2l2.4 16z"></path>
    <path data-name="layer1" d="M51.8 18h-30v-6h10V4h-14v14h-8v26h22v18a2 2 0 1 0 4 0V44h26V28a10 10 0 0 0-10-10z"
    fill="#2e2c2d"></path>
  </symbol>
  <symbol xmlns="http://www.w3.org/2000/svg" viewBox="0 0 64 64" id="message-1">
    <title>Message</title>
    <desc>A solid styled icon from Orion Icon Library.</desc>
    <path data-name="layer1"
    fill="#2e2c2d" d="M2 6.5v40h18v11l12-11h30v-40H2z"></path>
  </symbol>
  <symbol xmlns="http://www.w3.org/2000/svg" viewBox="0 0 64 64" id="text-message-1">
    <title>Text Message</title>
    <desc>A solid styled icon from Orion Icon Library.</desc>
    <path data-name="layer1"
    d="M2 6.5v40h18v11l12-11h30v-40zm20.1 22.1a3 3 0 0 1-4.2-4.2 3.1 3.1 0 0 1 4.2 0 3 3 0 0 1 0 4.3zm12 0a3 3 0 0 1-4.2 0 3 3 0 0 1 0-4.2 3.1 3.1 0 0 1 4.2 0 3 3 0 0 1 0 4.3zm12 0a3 3 0 1 1-4.2-4.2 3.1 3.1 0 0 1 4.2 0 3 3 0 0 1 0 4.2z"
    fill="#2e2c2d"></path>
  </symbol>
  <symbol xmlns="http://www.w3.org/2000/svg" viewBox="0 0 64 64" id="messaging-1">
    <title>Messaging</title>
    <desc>A solid styled icon from Orion Icon Library.</desc>
    <path data-name="layer1"
    d="M2 6.5v40h18v11l12-11h30v-40zm36 32H14a2 2 0 1 1 0-4h24a2 2 0 0 1 0 4zm12-10H14a2 2 0 1 1 0-4h36a2 2 0 0 1 0 4zm0-10H14a2 2 0 1 1 0-4h36a2 2 0 0 1 0 4z"
    fill="#2e2c2d"></path>
  </symbol>
  <symbol xmlns="http://www.w3.org/2000/svg" viewBox="0 0 64 64" id="urgent-message-1">
    <title>Urgent Message</title>
    <desc>A solid styled icon from Orion Icon Library.</desc>
    <path data-name="layer1"
    d="M2 6.5v40h18v11l12-11h30v-40zm32.1 33.1a3 3 0 0 1-4.2 0 3 3 0 0 1 0-4.2 3.1 3.1 0 0 1 4.2 0 3 3 0 0 1 0 4.3zm1-23.8L34 30.4a2 2 0 0 1-4 0l-1.1-14.6a3.1 3.1 0 0 1 6.2-.5 3.4 3.4 0 0 1 0 .5z"
    fill="#2e2c2d"></path>
  </symbol>
  <symbol xmlns="http://www.w3.org/2000/svg" viewBox="0 0 64 64" id="speech-bubble-1">
    <title>Speech Bubble</title>
    <desc>A solid styled icon from Orion Icon Library.</desc>
    <path data-name="layer1"
    d="M42 7H22a20 20 0 0 0 0 40h2v10l12-10h6a20 20 0 0 0 0-40z" fill="#2e2c2d"></path>
  </symbol>
  <symbol xmlns="http://www.w3.org/2000/svg" viewBox="0 0 64 64" id="chat-1">
    <title>Chat</title>
    <desc>A solid styled icon from Orion Icon Library.</desc>
    <path data-name="layer1"
    d="M42 7H22a20 20 0 0 0 0 40h2v10l12-10h6a20 20 0 0 0 0-40zM22.1 29.1a3 3 0 1 1-4.2-4.2 3.1 3.1 0 0 1 4.2 0A3 3 0 0 1 23 27a3 3 0 0 1-.9 2.1zm12 0a3 3 0 0 1-4.2-4.2 3.1 3.1 0 0 1 4.2 0 3 3 0 0 1 0 4.3zm12 0A3 3 0 0 1 41 27a3 3 0 0 1 .9-2.1 3.1 3.1 0 0 1 4.2 0 3 3 0 0 1 0 4.2z"
    fill="#2e2c2d"></path>
  </symbol>
  <symbol xmlns="http://www.w3.org/2000/svg" viewBox="0 0 64 64" id="message-bubble-1">
    <title>Message Bubble</title>
    <desc>A solid styled icon from Orion Icon Library.</desc>
    <path data-name="layer1"
    d="M42 7H22a20 20 0 0 0 0 40h2v10l12-10h6a20 20 0 0 0 0-40zm-8 32H18a2 2 0 0 1 0-4h16a2 2 0 0 1 0 4zm12-10H18a2 2 0 0 1 0-4h28a2 2 0 0 1 0 4zm0-10H18a2 2 0 0 1 0-4h28a2 2 0 0 1 0 4z"
    fill="#2e2c2d"></path>
  </symbol>
  <symbol viewBox="0 0 64 64" xmlns="http://www.w3.org/2000/svg" id="important-message-1">
    <title>Important Message</title>
    <desc>A solid styled icon from Orion Icon Library.</desc>
    <path fill="#2e2c2d"
    d="M42 7H22a20 20 0 0 0 0 40h2v10l12-10h6a20 20 0 0 0 0-40zm-6.922 9.358L34 30.942a2.006 2.006 0 0 1-4 0l-1.078-14.584a3.087 3.087 0 0 1 6.156-.455 3.229 3.229 0 0 1 0 .455zM35 38.813a3 3 0 1 1-3-3 3 3 0 0 1 3 3z"
    data-name="layer1"></path>
  </symbol>
  <symbol xmlns="http://www.w3.org/2000/svg" viewBox="0 0 64 64" id="bubble-1">
    <title>Bubble</title>
    <desc>A solid styled icon from Orion Icon Library.</desc>
    <path data-name="layer1"
    d="M4.7 59.4l19.1-7.6a37.1 37.1 0 0 0 8.2.9c16.6 0 30-10.7 30-24s-13.4-24-30-24S2 15.4 2 28.6c0 6.7 3.5 12.8 9.1 17.2z"
    fill="#2e2c2d"></path>
  </symbol>
  <symbol xmlns="http://www.w3.org/2000/svg" viewBox="0 0 64 64" id="chat-bubble-1">
    <title>Chat Bubble</title>
    <desc>A solid styled icon from Orion Icon Library.</desc>
    <path data-name="layer1"
    d="M32 4.6c-16.6 0-30 10.7-30 24 0 6.7 3.5 12.8 9.1 17.2L4.7 59.4l19.1-7.6a37 37 0 0 0 8.2.9c16.6 0 30-10.7 30-24S48.6 4.6 32 4.6zm-9.9 26.2a3 3 0 1 1-4.2-4.2 3.1 3.1 0 0 1 4.2 0 3 3 0 0 1 0 4.2zm12 0a3 3 0 1 1-4.2-4.2 3.1 3.1 0 0 1 4.2 0 3 3 0 0 1 0 4.2zm12 0a3 3 0 0 1-2.1.9 3 3 0 0 1-2.1-5.1 3.1 3.1 0 0 1 4.2 0 3 3 0 0 1 0 4.2z"
    fill="#2e2c2d"></path>
  </symbol>
  <symbol xmlns="http://www.w3.org/2000/svg" viewBox="0 0 64 64" id="chat-message-1">
    <title>Chat Message</title>
    <desc>A solid styled icon from Orion Icon Library.</desc>
    <path data-name="layer1"
    d="M32 4.6c-16.6 0-30 10.7-30 24 0 6.7 3.5 12.8 9.1 17.2L4.7 59.4l19.1-7.6a37 37 0 0 0 8.2.9c16.6 0 30-10.7 30-24S48.6 4.6 32 4.6zm2 36H18a2 2 0 0 1 0-4h16a2 2 0 0 1 0 4zm12-10H18a2 2 0 0 1 0-4h28a2 2 0 0 1 0 4zm0-10H18a2 2 0 0 1 0-4h28a2 2 0 0 1 0 4z"
    fill="#2e2c2d"></path>
  </symbol>
  <symbol xmlns="http://www.w3.org/2000/svg" viewBox="0 0 64 64" id="important-chat-1">
    <title>Important Chat</title>
    <desc>A solid styled icon from Orion Icon Library.</desc>
    <path data-name="layer1"
    d="M32 4.6c-16.6 0-30 10.7-30 24 0 6.7 3.5 12.8 9.1 17.2L4.7 59.4l19.1-7.6a37 37 0 0 0 8.2.9c16.6 0 30-10.7 30-24S48.6 4.6 32 4.6zm2.1 37.1a3 3 0 1 1-4.2-4.2 3.1 3.1 0 0 1 4.2 0 3 3 0 0 1 0 4.2zm1-23.8L34 32.6a2 2 0 0 1-4 0L28.9 18a3.1 3.1 0 0 1 6.2-.5 3.2 3.2 0 0 1 0 .5z"
    fill="#2e2c2d"></path>
  </symbol>
  <symbol xmlns="http://www.w3.org/2000/svg" viewBox="0 0 64 64" id="new-comment-1">
    <title>New Comment</title>
    <desc>A solid styled icon from Orion Icon Library.</desc>
    <path data-name="layer2"
    d="M47 27a15 15 0 1 0 15 15 15 15 0 0 0-15-15zm7 17h-5v5a2 2 0 0 1-4 0v-5h-5a2 2 0 0 1 0-4h5v-5a2 2 0 0 1 4 0v5h5a2 2 0 0 1 0 4z"
    fill="#2e2c2d"></path>
    <path data-name="layer1" d="M47 23a18.9 18.9 0 0 1 9 2.3V7H2v36h14v9.9L26.8 43h1.3c0-.3-.1-.7-.1-1a19 19 0 0 1 19-19z"
    fill="#2e2c2d"></path>
  </symbol>
  <symbol xmlns="http://www.w3.org/2000/svg" viewBox="0 0 64 64" id="delete-conversation-1">
    <title>Delete Conversation</title>
    <desc>A solid styled icon from Orion Icon Library.</desc>
    <path data-name="layer2"
    d="M47 27a15 15 0 1 0 15 15 15 15 0 0 0-15-15zm6.4 18.5a2 2 0 1 1-2.8 2.8L47 44.8l-3.5 3.5a2 2 0 1 1-2.8-2.8l3.5-3.5-3.5-3.5a2 2 0 0 1 2.8-2.8l3.5 3.5 3.5-3.5a2 2 0 0 1 2.8 2.8L49.8 42z"
    fill="#2e2c2d"></path>
    <path data-name="layer1" d="M47 23a18.9 18.9 0 0 1 9 2.3V7H2v36h14v9.9L26.8 43h1.3c0-.3-.1-.7-.1-1a19 19 0 0 1 19-19z"
    fill="#2e2c2d"></path>
  </symbol>
  <symbol xmlns="http://www.w3.org/2000/svg" viewBox="0 0 64 64" id="delete-comment-1">
    <title>Delete Comment</title>
    <desc>A solid styled icon from Orion Icon Library.</desc>
    <path data-name="layer2"
    d="M47 27a15 15 0 1 0 15 15 15 15 0 0 0-15-15zm7 17H40a2 2 0 0 1 0-4h14a2 2 0 0 1 0 4z"
    fill="#2e2c2d"></path>
    <path data-name="layer1" d="M47 23a18.9 18.9 0 0 1 9 2.3V7H2v36h14v9.9L26.8 43h1.3c0-.3-.1-.7-.1-1a19 19 0 0 1 19-19z"
    fill="#2e2c2d"></path>
  </symbol>
  <symbol xmlns="http://www.w3.org/2000/svg" viewBox="0 0 64 64" id="approve-comment-1">
    <title>Approve Comment</title>
    <desc>A solid styled icon from Orion Icon Library.</desc>
    <path data-name="layer2"
    d="M47 23a18.9 18.9 0 0 1 9 2.3V7H2v36h14v9.9L26.8 43H28c0-.3-.1-.7-.1-1A19 19 0 0 1 47 23z"
    fill="#2e2c2d"></path>
    <path data-name="layer1" d="M47 27a15 15 0 1 0 15 15 15 15 0 0 0-15-15zm7.4 13.5l-8 8a2 2 0 0 1-2.8 0l-4-4a2 2 0 1 1 2.8-2.8l2.6 2.5 6.6-6.6a2 2 0 0 1 2.8 2.8z"
    fill="#2e2c2d"></path>
  </symbol>
  <symbol xmlns="http://www.w3.org/2000/svg" viewBox="0 0 64 64" id="moderate-comment-1">
    <title>Moderate Comment</title>
    <desc>A solid styled icon from Orion Icon Library.</desc>
    <path data-name="layer1"
    d="M57.6 31.4L56 30V7H2v36h14v9.9L26.8 43h5.3a15 15 0 1 0 25.5-11.6zM37.9 48.2a11 11 0 0 1 15.3-15.3zM47 53a10.9 10.9 0 0 1-6.2-1.9l15.3-15.3A11 11 0 0 1 47 53z"
    fill="#2e2c2d"></path>
  </symbol>
  <symbol xmlns="http://www.w3.org/2000/svg" viewBox="0 0 64 64" id="write-comment-1">
    <title>Write Comment</title>
    <desc>A solid styled icon from Orion Icon Library.</desc>
    <path data-name="layer2"
    fill="#2e2c2d" d="M35.686 47.295l19.338-19.27 7.016 7.04-19.338 19.271zM29.8 60l9.4-3.5-5.8-5.8-3.6 9.3z"></path>
    <path data-name="layer1" d="M52.2 25.1A4 4 0 0 1 55 24h1V7H2v36h14v9.9L26.8 43h7.5z"
    fill="#2e2c2d"></path>
  </symbol>
  <symbol xmlns="http://www.w3.org/2000/svg" viewBox="0 0 64 64" id="new-chat-1">
    <title>New Chat</title>
    <desc>A solid styled icon from Orion Icon Library.</desc>
    <path data-name="layer2"
    d="M47 29a15 15 0 1 0 15 15 15 15 0 0 0-15-15zm7 17h-5v5a2 2 0 1 1-4 0v-5h-5a2 2 0 0 1 0-4h5v-5a2 2 0 1 1 4 0v5h5a2 2 0 0 1 0 4z"
    fill="#2e2c2d"></path>
    <path data-name="layer1" d="M47 25a18.9 18.9 0 0 1 9 2.3v-.7C56 14.7 43.9 5 29 5S2 14.7 2 26.6c0 6.1 3.1 11.6 8.2 15.5L4.4 54.2l17.2-6.9a33.3 33.3 0 0 0 6.9.8A19 19 0 0 1 47 25z"
    fill="#2e2c2d"></path>
  </symbol>
  <symbol xmlns="http://www.w3.org/2000/svg" viewBox="0 0 64 64" id="delete-chat-1">
    <title>Delete Chat</title>
    <desc>A solid styled icon from Orion Icon Library.</desc>
    <path data-name="layer2"
    d="M47 29a15 15 0 1 0 15 15 15 15 0 0 0-15-15zm6.4 18.5a2 2 0 0 1-2.8 2.8L47 46.8l-3.5 3.5a2 2 0 0 1-2.8-2.8l3.5-3.5-3.5-3.5a2 2 0 0 1 2.8-2.8l3.5 3.5 3.5-3.5a2 2 0 0 1 2.8 2.8L49.8 44z"
    fill="#2e2c2d"></path>
    <path data-name="layer1" d="M47 25a18.9 18.9 0 0 1 9 2.3v-.7C56 14.7 43.9 5 29 5S2 14.7 2 26.6c0 6.1 3.1 11.5 8.2 15.5L4.4 54.2l17.2-6.9a33.3 33.3 0 0 0 6.9.8A19 19 0 0 1 47 25z"
    fill="#2e2c2d"></path>
  </symbol>
  <symbol xmlns="http://www.w3.org/2000/svg" viewBox="0 0 64 64" id="remove-chat-1">
    <title>Remove Chat</title>
    <desc>A solid styled icon from Orion Icon Library.</desc>
    <path data-name="layer2"
    d="M47 29a15 15 0 1 0 15 15 15 15 0 0 0-15-15zm7 17H40a2 2 0 0 1 0-4h14a2 2 0 1 1 0 4z"
    fill="#2e2c2d"></path>
    <path data-name="layer1" d="M47 25a18.9 18.9 0 0 1 9 2.3v-.7C56 14.7 43.9 5 29 5S2 14.7 2 26.6c0 6.1 3.1 11.6 8.2 15.5L4.4 54.2l17.2-6.9a33.4 33.4 0 0 0 6.9.8A18.9 18.9 0 0 1 47 25z"
    fill="#2e2c2d"></path>
  </symbol>
  <symbol xmlns="http://www.w3.org/2000/svg" viewBox="0 0 64 64" id="message-received-1">
    <title>Message Received</title>
    <desc>A solid styled icon from Orion Icon Library.</desc>
    <path data-name="layer2"
    d="M47 25a18.9 18.9 0 0 1 9 2.3v-.7C56 14.7 43.9 5 29 5S2 14.7 2 26.6c0 6.1 3.1 11.6 8.2 15.5L4.4 54.2l17.2-6.9a33.4 33.4 0 0 0 6.9.8A18.9 18.9 0 0 1 47 25z"
    fill="#2e2c2d"></path>
    <path data-name="layer1" d="M47 29a15 15 0 1 0 15 15 15 15 0 0 0-15-15zm7.5 13.5l-8 8a2 2 0 0 1-2.8 0l-4-4a2 2 0 1 1 2.8-2.8l2.6 2.6 6.6-6.6a2 2 0 1 1 2.8 2.8z"
    fill="#2e2c2d"></path>
  </symbol>
  <symbol viewBox="0 0 64 64" xmlns="http://www.w3.org/2000/svg" id="mute-chat-1">
    <title>Mute Chat</title>
    <desc>A solid styled icon from Orion Icon Library.</desc>
    <path fill="#2e2c2d"
    d="M32.561 48.007a14.991 14.991 0 1 0 25.062-14.585c-.008-.008-.012-.016-.02-.023a.214.214 0 0 0-.022-.018 15.032 15.032 0 0 0-2.306-1.881 17.442 17.442 0 0 0 .69-4.246l.012.006c.008-.221.023-.44.023-.662q0-.585-.041-1.161c0-.068-.014-.135-.018-.2a19.665 19.665 0 0 0-.1-.97c-.006-.046-.016-.09-.022-.136q-.073-.519-.178-1.031c0-.02-.01-.039-.014-.059a16.535 16.535 0 0 0-.26-1.082v-.007C52.7 12.254 41.914 5 29 5 14.09 5 2 14.672 2 26.6c0 6.07 3.135 11.551 8.172 15.475L4.41 54.24l17.207-6.863a40.8 40.8 0 0 0 10.944.63zm5.383 2.223A10.989 10.989 0 0 1 53.23 34.944zM47 55a10.938 10.938 0 0 1-6.229-1.942l15.288-15.285A10.99 10.99 0 0 1 47 55z"
    data-name="layer1"></path>
  </symbol>
  <symbol xmlns="http://www.w3.org/2000/svg" viewBox="0 0 64 64" id="new-message-1">
    <title>New Message</title>
    <desc>A solid styled icon from Orion Icon Library.</desc>
    <path data-name="layer2"
    d="M31.4 46.9l20.8-20.7A4 4 0 0 1 55 25h.9C54.9 13.9 43.2 5 29 5S2 14.7 2 26.6c0 6.1 3.1 11.5 8.2 15.5L4.4 54.2l17.2-6.9a33.3 33.3 0 0 0 7.4.8h1.6a4 4 0 0 1 .8-1.2z"
    fill="#2e2c2d"></path>
    <path data-name="layer1" fill="#2e2c2d" d="M55 29L35.7 48.3l7 7L62 36l-7-7zM29.9 61l9.3-3.5-5.7-5.8-3.6 9.3z"></path>
  </symbol>
  <symbol xmlns="http://www.w3.org/2000/svg" viewBox="0 0 64 64" id="comments-1">
    <title>Comments</title>
    <desc>A solid styled icon from Orion Icon Library.</desc>
    <path data-name="layer2"
    fill="#2e2c2d" d="M52 4.5H2v30h8v11l11.1-11H52v-30z"></path>
    <path data-name="layer1" fill="#2e2c2d" d="M56 26.5v12H28v10h16.9l11.1 11v-11h6v-22h-6z"></path>
  </symbol>
  <symbol xmlns="http://www.w3.org/2000/svg" viewBox="0 0 64 64" id="conversations-1">
    <title>Conversations</title>
    <desc>A solid styled icon from Orion Icon Library.</desc>
    <path data-name="layer2"
    d="M52 20.5a15 15 0 0 0-15-15H17a15 15 0 0 0-5 29.1v11.9l11-11h14a15 15 0 0 0 15-15z"
    fill="#2e2c2d"></path>
    <path data-name="layer1" d="M54.4 28A19 19 0 0 1 37 39.5h-8.9a11 11 0 0 0 10.9 10h5.9l9.1 9V49a11 11 0 0 0 .4-21z"
    fill="#2e2c2d"></path>
  </symbol>
  <symbol xmlns="http://www.w3.org/2000/svg" viewBox="0 0 64 64" id="chats-2">
    <title>Chats</title>
    <desc>A solid styled icon from Orion Icon Library.</desc>
    <path data-name="layer2"
    d="M50 24.7C50 14.1 39.3 5.5 26 5.5S2 14.1 2 24.7C2 30.1 4.8 35 9.3 38.4L4.1 49.3l15.3-6.1a29.6 29.6 0 0 0 6.6.7c13.3 0 24-8.6 24-19.2z"
    fill="#2e2c2d"></path>
    <path data-name="layer1" d="M62 41.1c0-5.1-3.4-9.5-8.6-11.8-2.3 9.5-11.7 16.9-23.3 18.3 2.9 4.2 8.5 7.1 14.9 7.1a21 21 0 0 0 4.7-.5L60 58.5l-3.1-7.7a12.4 12.4 0 0 0 5.1-9.7z"
    fill="#2e2c2d"></path>
  </symbol>
  <symbol xmlns="http://www.w3.org/2000/svg" viewBox="0 0 64 64" id="message-app-2">
    <title>Message App</title>
    <desc>A solid styled icon from Orion Icon Library.</desc>
    <path data-name="layer2"
    d="M37.4 54.3c-8.2-1.4-7.4-3.5-7.4-4.9v-2.5a13.9 13.9 0 0 0 4-10.1v-6.7C34 22.8 28.7 20 24 20s-10 2.8-10 10.1v6.7a13.8 13.8 0 0 0 4.1 10.1v2.5c0 1.4.7 3.5-7.4 4.9S2 60 2 62h44c0-2-1.3-6.4-8.6-7.7z"
    fill="#2e2c2d"></path>
    <path data-name="layer1" d="M24 2v14c6.2 0 12.9 3.8 13.9 12H42v7l7.6-7H62V2zm12.4 14.4a2.1 2.1 0 0 1-1.4.6 2 2 0 0 1-1.4-.6 2 2 0 0 1 0-2.8 2.1 2.1 0 0 1 2.8 0 2 2 0 0 1 0 2.8zm8 0a2 2 0 0 1-1.4.6 2 2 0 0 1-2-2 2 2 0 0 1 .6-1.4 2.1 2.1 0 0 1 2.8 0A2 2 0 0 1 45 15a2 2 0 0 1-.6 1.4zm8 0a2 2 0 0 1-1.4.6 2 2 0 0 1-1.4-3.4 2.1 2.1 0 0 1 2.8 0A2 2 0 0 1 53 15a2 2 0 0 1-.6 1.4z"
    fill="#2e2c2d"></path>
  </symbol>
  <symbol xmlns="http://www.w3.org/2000/svg" viewBox="0 0 64 64" id="chat-app-1">
    <title>Chat App</title>
    <desc>A solid styled icon from Orion Icon Library.</desc>
    <path data-name="layer2"
    d="M37.4 54.3c-8.2-1.4-7.4-3.5-7.4-4.9v-2.5a13.9 13.9 0 0 0 4-10.1v-6.7C34 22.8 28.7 20 24 20s-10 2.8-10 10.1v6.7a13.9 13.9 0 0 0 4.1 10.1v2.5c0 1.4.7 3.5-7.4 4.9S2 60 2 62h44c0-2-1.3-6.4-8.6-7.7z"
    fill="#2e2c2d"></path>
    <path data-name="layer1" d="M49 2H37a13 13 0 0 0-13 13c0 .3 0 .7.1 1 6.2 0 12.9 3.8 13.8 12H42v7l7.6-7A13 13 0 0 0 49 2zM36.4 16.4a2 2 0 0 1-2.8-2.8 2.1 2.1 0 0 1 2.8 0A2 2 0 0 1 37 15a2 2 0 0 1-.6 1.4zm8 0a2.1 2.1 0 0 1-1.4.6 2 2 0 0 1-2-2 2 2 0 0 1 .6-1.4 2.1 2.1 0 0 1 2.8 0A2 2 0 0 1 45 15a2 2 0 0 1-.6 1.4zm8 0a2 2 0 0 1-1.4.6 2 2 0 0 1-2-2 2 2 0 0 1 .6-1.4 2.1 2.1 0 0 1 2.8 0A2 2 0 0 1 53 15a2 2 0 0 1-.6 1.4z"
    fill="#2e2c2d"></path>
  </symbol>
  <symbol xmlns="http://www.w3.org/2000/svg" viewBox="0 0 64 64" id="messaging-app-1">
    <title>Messaging App</title>
    <desc>A solid styled icon from Orion Icon Library.</desc>
    <path data-name="layer2"
    d="M37.4 54.3c-8.2-1.4-7.4-3.5-7.4-4.9v-2.5a13.9 13.9 0 0 0 4-10.1v-6.7C34 22.8 28.7 20 24 20s-10 2.8-10 10.1v6.7a13.8 13.8 0 0 0 4.1 10.1v2.5c0 1.4.7 3.5-7.4 4.9S2 60 2 62h44c0-2-1.3-6.4-8.6-7.7z"
    fill="#2e2c2d"></path>
    <path data-name="layer1" d="M43 2c-9.7 0-17.7 6.1-18.8 14 6.7.1 13.8 4.5 13.8 14.1v3.3a20.9 20.9 0 0 0 4 .6v8l9.8-9.8c6-2.7 10.2-8 10.2-14.2 0-8.8-8.5-16-19-16zm-6.6 17.4a2 2 0 0 1-2.8 0 2 2 0 0 1 0-2.8 2.1 2.1 0 0 1 2.8 0A2 2 0 0 1 37 18a2 2 0 0 1-.6 1.4zm8 0a2 2 0 1 1-2.8-2.8 2.1 2.1 0 0 1 2.8 0 2 2 0 0 1 0 2.8zm8 0a2 2 0 0 1-2.8 0A2 2 0 0 1 49 18a2 2 0 0 1 .6-1.4 2.1 2.1 0 0 1 2.8 0A2 2 0 0 1 53 18a2 2 0 0 1-.6 1.4z"
    fill="#2e2c2d"></path>
  </symbol>
</svg>