<svg viewBox="0 0 64 64" xmlns="http://www.w3.org/2000/svg"><g style="stroke-width:3;stroke-miterlimit:10;stroke:#2e2c2d;fill:none;stroke-linejoin:round;stroke-linecap:round"><path d="m57.7 16.5a30 30 0 1 1 -14.3-12.2"/><path d="m32 12c0 4.2 6 1.7 6 6s-4.6 7.3-8 5-7.9-3.5-11.9 2.1-1.3 12 1.5 11.9 5.5-2.8 6.7.6 1.5 3.4 2.8 4.2 1.3 2.2.9 4.1 2 8 4 8 3.8-.8 4-4 2.6-3.3 3.8-4.2-.9-4.3 1.3-6.5 6.6-6.2 2.8-7.2-3.5-1.8-4-3.4-2-3.2 1-3.3a11.9 11.9 0 0 0 8.7-3.6c2.5-2.6 3.8-5.2 6.1-5.2a25.6 25.6 0 0 0 -6.5-7.5 30 30 0 0 0 -7.8-4.7c-6.7 3.2-11.4 3.5-11.4 7.7z"/></g></svg>