<svg viewBox="0 0 64 64" xmlns="http://www.w3.org/2000/svg"><g style="stroke-width:3;stroke-miterlimit:10;stroke:#2e2c2d;fill:none;stroke-linejoin:round;stroke-linecap:round"><path d="m55.9 28.3c.1-.8.1-1.5.1-2.3a24 24 0 0 0 -48 0c0 .8 0 1.6.1 2.3v.3c2 19 23.9 32.4 23.9 32.4s21.9-13.6 23.8-32.3z"/><path d="m44 24.7a6.7 6.7 0 0 0 -6.6-6.7 6.6 6.6 0 0 0 -5.4 2.9 6.6 6.6 0 0 0 -5.4-2.9 6.7 6.7 0 0 0 -6.6 6.7 6.9 6.9 0 0 0 0 .7c.8 7.2 12 14.6 12 14.6s9.9-6.8 11.7-13.4a6.8 6.8 0 0 0 .3-1.9z"/></g></svg>