<svg viewBox="0 0 64 64" xmlns="http://www.w3.org/2000/svg"><g fill="none" stroke="#2e2c2d" stroke-linecap="round" stroke-linejoin="round" stroke-width="3"><path d="m20.4 54-1.7.2a8.7 8.7 0 0 1 -8.7-10.1m9.9 17.7h-1.4a16.5 16.5 0 0 1 -16.5-16.4v-.9m22-4.4-4.3 4.3"/><path d="m31.9 45.1a2 2 0 0 1 -2.9 0l-10-10a2 2 0 0 1 0-2.9l17.2-17.3a2 2 0 0 1 2.9 0l10.1 10.1a2 2 0 0 1 0 2.9z"/><path d="m22.6 28.6-15.8-15.8a2 2 0 0 1 0-2.9l7.2-7.2a2 2 0 0 1 2.9 0l15.7 15.8m2.9 23 15.8 15.8a2 2 0 0 0 2.9 0l7.2-7.2a2 2 0 0 0 0-2.9l-15.8-15.7"/></g></svg>