<svg viewBox="0 0 64 64" xmlns="http://www.w3.org/2000/svg"><g fill="#2e2c2d"><path d="m57.806 28.37c-.027-.031-.049-.066-.079-.1s-.065-.052-.1-.079a18.077 18.077 0 0 0 -4.627-3.291v-5.9h-52v30h27.9a17.985 17.985 0 1 0 28.906-20.63zm-26.806 12.63a13.973 13.973 0 0 1 22.369-11.2l-19.569 19.568a13.9 13.9 0 0 1 -2.8-8.368zm14 14a13.91 13.91 0 0 1 -8.369-2.8l19.569-19.568a13.973 13.973 0 0 1 -11.2 22.368z"/><path d="m1 5v10h52v-10zm6 7a2 2 0 1 1 2-2 2 2 0 0 1 -2 2zm6 0a2 2 0 1 1 2-2 2 2 0 0 1 -2 2zm6 0a2 2 0 1 1 2-2 2 2 0 0 1 -2 2z"/></g></svg>