<svg viewBox="0 0 64 64" xmlns="http://www.w3.org/2000/svg"><g fill="#2e2c2d"><path d="m55 28-20.7 20.7-4.4 11.3 11.4-4.3 20.7-20.7z"/><path d="m54 4a2 2 0 0 0 -2-2h-48a2 2 0 0 0 -2 2v12h52zm-43 9a3 3 0 1 1 3-3 3 3 0 0 1 -3 3zm35-1h-16a2 2 0 0 1 0-4h16a2 2 0 0 1 0 4zm6.2 13.2a4 4 0 0 1 1.8-1v-4.2h-52v12h43.3zm-41.2 3.8a3 3 0 1 1 3-3 3 3 0 0 1 -3 3zm17-3a2 2 0 0 1 2-2h16a2 2 0 0 1 0 4h-16a2 2 0 0 1 -2-2zm2.5 21.3a4 4 0 0 1 .9-1.4l1.9-1.9h-3.3a2 2 0 0 1 0-4h7.4l4-4h-39.4v12a2 2 0 0 0 2 2h25.5zm-19.5-2.3a3 3 0 1 1 3-3 3 3 0 0 1 -3 3z"/></g></svg>