<svg viewBox="0 0 64 64" xmlns="http://www.w3.org/2000/svg"><path d="m20.7 22a6.6 6.6 0 0 0 -5.3 2.7 2 2 0 0 0 -1-.5c-5.7-1-6.4-3.8-6.4-6.2a2 2 0 0 0 -4 0c0 3.9 1.7 8.8 9.7 10.1h.3v5.9h-12a2 2 0 0 0 0 4h12.1a25.8 25.8 0 0 0 .6 4.1c-8.4 1.9-12.7 6.6-12.7 13.9a2 2 0 0 0 2 2 2 2 0 0 0 2-2c0-5.3 3.1-8.5 9.6-10.1h.3c2.4 5.6 7 9.9 14.1 11.7v-35.6zm41.3 12h-12v-5.9h.4c8-1.3 9.7-6.2 9.7-10.1a2 2 0 1 0 -4 0c0 2.4-.7 5.3-6.3 6.2a2 2 0 0 0 -1 .5 6.6 6.6 0 0 0 -5.5-2.7h-9.3v35.6c7.1-1.8 11.7-6.1 14.1-11.7h.3c6.5 1.6 9.6 4.8 9.6 10.1a2 2 0 0 0 2 2 2 2 0 0 0 2-2c-.1-7.3-4.3-12-12.7-13.9a25.9 25.9 0 0 0 .6-4.1h12.1a2 2 0 0 0 0-4zm-41.4-16h22.7l2.3.3a8.6 8.6 0 0 0 -8.2-6.3h-10.8a8.6 8.6 0 0 0 -8.3 6.3zm16.7-10a8 8 0 0 0 -10.6 0z" fill="#2e2c2d"/></svg>