<svg viewBox="0 0 64 64" xmlns="http://www.w3.org/2000/svg"><g fill="#2e2c2d"><path d="m46 32-16 30h32zm-2 12a2 2 0 1 1 4 0v6a2 2 0 1 1 -4 0zm2 14a2 2 0 0 1 -2-2 2 2 0 0 1 .6-1.4 2.1 2.1 0 0 1 2.8 0 2 2 0 0 1 0 2.8 2 2 0 0 1 -1.4.6z"/><path d="m31.9 50 3.2-6h-5.1a2 2 0 0 1 0-4h7.2l2.1-4h-37.3v12a2 2 0 0 0 2 2zm-20.9-5a3 3 0 1 1 3-3 3 3 0 0 1 -3 3zm43-41a2 2 0 0 0 -2-2h-48a2 2 0 0 0 -2 2v12h52zm-43 9a3 3 0 1 1 3-3 3 3 0 0 1 -3 3zm35-1h-16a2 2 0 0 1 0-4h16a2 2 0 0 1 0 4zm-3.5 18.1a4 4 0 0 1 7.1 0l1 1.9h3.4v-12h-52v12h39.5zm-31.5-1.1a3 3 0 1 1 3-3 3 3 0 0 1 -3 3zm17-3a2 2 0 0 1 2-2h16a2 2 0 0 1 0 4h-16a2 2 0 0 1 -2-2z"/></g></svg>