<svg viewBox="0 0 64 64" xmlns="http://www.w3.org/2000/svg"><g fill="#2e2c2d"><circle cx="21" cy="37" r="5"/><circle cx="43" cy="37" r="5"/><path d="m57.834 22a11.977 11.977 0 0 0 -11.178-9.94l-.344-.06h-28.312a12 12 0 0 0 -11.834 10l-4.016 21.555a7 7 0 0 0 12.656 5.355l2.633-3.646a8.993 8.993 0 0 1 -1.439-15.742v-3.522h-4v-4h4v-4h4v4h4v4h-4v2.06a8.85 8.85 0 0 1 1-.06 8.986 8.986 0 0 1 7.555 13.873h6.889a9 9 0 1 1 11.117 3.39l2.633 3.646a7 7 0 0 0 12.806-3.909c0-2-4.166-23-4.166-23zm-18.834 4a3 3 0 1 1 3-3 3 3 0 0 1 -3 3zm10 0a3 3 0 1 1 3-3 3 3 0 0 1 -3 3z"/></g></svg>