<svg viewBox="0 0 64 64" xmlns="http://www.w3.org/2000/svg"><path d="m59 14h-54a2 2 0 0 0 -2 2v32a2 2 0 0 0 2 2h54a2 2 0 0 0 2-2v-32a2 2 0 0 0 -2-2zm-20 8a2 2 0 0 1 2-2h2a2 2 0 0 1 2 2v2a2 2 0 0 1 -2 2h-2a2 2 0 0 1 -2-2zm0 10a2 2 0 0 1 2-2h2a2 2 0 0 1 2 2v2a2 2 0 0 1 -2 2h-2a2 2 0 0 1 -2-2zm-10-10a2 2 0 0 1 2-2h2a2 2 0 0 1 2 2v2a2 2 0 0 1 -2 2h-2a2 2 0 0 1 -2-2zm0 10a2 2 0 0 1 2-2h2a2 2 0 0 1 2 2v2a2 2 0 0 1 -2 2h-2a2 2 0 0 1 -2-2zm-10-10a2 2 0 0 1 2-2h2a2 2 0 0 1 2 2v2a2 2 0 0 1 -2 2h-2a2 2 0 0 1 -2-2zm0 10a2 2 0 0 1 2-2h2a2 2 0 0 1 2 2v2a2 2 0 0 1 -2 2h-2a2 2 0 0 1 -2-2zm-6 12h-2a2 2 0 1 1 0-4h2a2 2 0 0 1 0 4zm2-10a2 2 0 0 1 -2 2h-2a2 2 0 0 1 -2-2v-2a2 2 0 0 1 2-2h2a2 2 0 0 1 2 2zm0-10a2 2 0 0 1 -2 2h-2a2 2 0 0 1 -2-2v-2a2 2 0 0 1 2-2h2a2 2 0 0 1 2 2zm38 20h-32a2 2 0 0 1 0-4h32a2 2 0 1 1 0 4zm2-10a2 2 0 0 1 -2 2h-2a2 2 0 0 1 -2-2v-2a2 2 0 0 1 2-2h2a2 2 0 0 1 2 2zm0-10a2 2 0 0 1 -2 2h-2a2 2 0 0 1 -2-2v-2a2 2 0 0 1 2-2h2a2 2 0 0 1 2 2z" fill="#2e2c2d"/></svg>