<svg viewBox="0 0 64 64" xmlns="http://www.w3.org/2000/svg"><g fill="#2e2c2d"><path d="m32 42.556a29.961 29.961 0 0 0 -3.594 5.444h7.186a30.616 30.616 0 0 0 -3.538-5.386z"/><path d="m2 18v42h60v-42zm33.157 17.919c-1.449 1.443-1.311 2.883-.193 3.947a.315.315 0 0 1 .024.029c3.46 3.823 7.012 12.105 7.012 12.105h-20s3.7-8.644 7.233-12.346v-.007c.922-1.073.651-2.475-.435-3.775a52.66 52.66 0 0 1 -6.798-11.872h20a42.217 42.217 0 0 1 -6.817 11.894"/><path d="m2 4v10h60v-10zm6 7a2 2 0 1 1 2-2 2 2 0 0 1 -2 2zm6 0a2 2 0 1 1 2-2 2 2 0 0 1 -2 2zm6 0a2 2 0 1 1 2-2 2 2 0 0 1 -2 2z"/></g></svg>