<svg viewBox="0 0 64 64" xmlns="http://www.w3.org/2000/svg"><g fill="#2e2c2d"><path d="m2 20v38h60v-38zm36.614 30.313a13.692 13.692 0 0 1 -6.577 1.673 13.866 13.866 0 0 1 -9.856-4.092 14.12 14.12 0 0 1 -4.044-10.018l-1.516 1.53a2 2 0 1 1 -2.842-2.814l6.221-6.282 6.222 6.282a2 2 0 1 1 -2.842 2.814l-1.229-1.24a10.075 10.075 0 0 0 2.871 6.913 9.845 9.845 0 0 0 11.672 1.721 2 2 0 0 1 1.92 3.51zm11.607-10.908-6.221 6.284-6.22-6.283a2 2 0 1 1 2.842-2.814l1.228 1.24a10.08 10.08 0 0 0 -2.87-6.91 9.855 9.855 0 0 0 -11.672-1.722 2 2 0 1 1 -1.916-3.512 13.877 13.877 0 0 1 16.431 2.424 14.121 14.121 0 0 1 4.042 10.008l1.512-1.527a2 2 0 1 1 2.844 2.813z"/><path d="m2 6v10h60v-10zm6 7a2 2 0 1 1 2-2 2 2 0 0 1 -2 2zm6 0a2 2 0 1 1 2-2 2 2 0 0 1 -2 2zm6 0a2 2 0 1 1 2-2 2 2 0 0 1 -2 2z"/></g></svg>