<svg viewBox="0 0 64 64" xmlns="http://www.w3.org/2000/svg"><g fill="#2e2c2d"><path d="m62.408 43.586a2 2 0 0 0 -2.828.014l-1.514 1.527a14.123 14.123 0 0 0 -4.043-10.011 13.874 13.874 0 0 0 -16.43-2.424 2 2 0 1 0 1.916 3.508 9.856 9.856 0 0 1 11.672 1.73 10.087 10.087 0 0 1 2.869 6.91l-1.226-1.24a2 2 0 1 0 -2.844 2.813l6.22 6.287 6.223-6.283a2 2 0 0 0 -.015-2.831zm-13.508 10.225a9.862 9.862 0 0 1 -11.674-1.722 10.078 10.078 0 0 1 -2.867-6.915l1.228 1.24a2 2 0 1 0 2.838-2.814l-6.225-6.283-6.218 6.283a2 2 0 1 0 2.842 2.814l1.516-1.53a14.121 14.121 0 0 0 4.04 10.016 13.882 13.882 0 0 0 9.857 4.089 13.693 13.693 0 0 0 6.576-1.672 2 2 0 1 0 -1.918-3.51z"/><path d="m21.408 45.036a5.96 5.96 0 0 1 1.736-4.251l6.223-6.285a4 4 0 0 1 2.842-1.185 3.873 3.873 0 0 1 .451.045 5.989 5.989 0 0 1 3.021-4.18 17.76 17.76 0 0 1 8.488-2.159 18 18 0 0 1 8.831 2.349v-10.362h-52v30h21.947a5.95 5.95 0 0 1 -1.539-3.972z"/><path d="m1 5.008v10h52v-10zm6 6.992a2 2 0 1 1 2-2 2 2 0 0 1 -2 2zm6 0a2 2 0 1 1 2-2 2 2 0 0 1 -2 2zm6 0a2 2 0 1 1 2-2 2 2 0 0 1 -2 2z"/></g></svg>