<svg viewBox="0 0 64 64" xmlns="http://www.w3.org/2000/svg"><g fill="#2e2c2d"><path d="m62.478 43.579a2 2 0 0 0 -2.828.014l-1.273 1.285a13.659 13.659 0 1 0 -13.651 14.122 2 2 0 0 0 0-4 10.006 10.006 0 1 1 9.656-10v.094l-1.484-1.5a2 2 0 1 0 -2.844 2.813l6.219 6.284 6.223-6.283a2 2 0 0 0 -.018-2.829z"/><path d="m27.07 45a17.851 17.851 0 0 1 17.656-18 17.208 17.208 0 0 1 8.2 2.084v-10.084h-52v30h26.6a18.248 18.248 0 0 1 -.456-4z"/><path d="m.929 5v10h52v-10zm6.071 7a2 2 0 1 1 2-2 2 2 0 0 1 -2 2zm6 0a2 2 0 1 1 2-2 2 2 0 0 1 -2 2zm6 0a2 2 0 1 1 2-2 2 2 0 0 1 -2 2z"/></g></svg>