<svg viewBox="0 0 64 64" xmlns="http://www.w3.org/2000/svg"><g fill="#2e2c2d"><path d="m62.4 44.6a2 2 0 0 0 -2.8 0l-1.3 1.3a13.7 13.7 0 1 0 -13.7 14.1 2 2 0 0 0 0-4 10 10 0 1 1 9.7-10l-1.5-1.5a2 2 0 0 0 -2.8 2.9l6.2 6.3 6.2-6.3a2 2 0 0 0 0-2.8z"/><path d="m53 4a2 2 0 0 0 -2-2h-48a2 2 0 0 0 -2 2v12h52zm-43 9a3 3 0 1 1 3-3 3 3 0 0 1 -3 3zm35-1h-16a2 2 0 0 1 0-4h16a2 2 0 0 1 0 4zm-18 34a18.2 18.2 0 0 1 .3-3.1 2 2 0 0 1 -.3-.9 2 2 0 0 1 .8-1.6 18.1 18.1 0 0 1 2.2-4.4h-29v12a2 2 0 0 0 2 2h24.4a18.2 18.2 0 0 1 -.4-4zm-17-1a3 3 0 1 1 3-3 3 3 0 0 1 -3 3zm34.3-17h-15.3a2 2 0 0 1 0-4h16a2 2 0 0 1 0 4 17.2 17.2 0 0 1 8 2.2v-10.2h-52v12h32.5a17.4 17.4 0 0 1 10.8-4zm-34.3 1a3 3 0 1 1 3-3 3 3 0 0 1 -3 3z"/></g></svg>