<svg viewBox="0 0 64 64" xmlns="http://www.w3.org/2000/svg"><g fill="#2e2c2d"><path d="m36 30.5a6 6 0 0 1 7.9 0 2 2 0 0 0 2.6-3 10 10 0 0 0 -13.2 0 2 2 0 0 0 2.6 3z"/><path d="m51.6 21.3a18 18 0 0 0 -23.4.1 2 2 0 1 0 2.6 3 14 14 0 0 1 18.2-.1 2 2 0 1 0 2.6-3.1zm-5.6 13.7h-12a2 2 0 0 0 -2 2v24a2 2 0 0 0 2 2h12a2 2 0 0 0 2-2v-24a2 2 0 0 0 -2-2zm-4.6 9.4a2 2 0 1 1 -2.8-2.8 2.1 2.1 0 0 1 2.8 0 2 2 0 0 1 .6 1.4 2 2 0 0 1 -.6 1.4z"/><path d="m62 1h-60a2 2 0 0 0 -2 2v44a2 2 0 0 0 2 2h26v-4h-24v-40h56v40h-8v4h10a2 2 0 0 0 2-2v-44a2 2 0 0 0 -2-2z"/></g></svg>