<svg viewBox="0 0 64 64" xmlns="http://www.w3.org/2000/svg"><g fill="#2e2c2d"><path d="m42 29.9a16 16 0 1 0 16 16 16 16 0 0 0 -16-16zm8 20h-10v-12a2 2 0 0 1 4 0v8h6a2 2 0 0 1 0 4z"/><ellipse cx="29" cy="10.1" rx="23" ry="8"/><path d="m29 29.1h2.3a19.7 19.7 0 0 1 15.3-2.5c3.4-1.3 5.4-2.6 5.4-3.5v-6.2c-5 3.6-14 5.2-23 5.2s-18-1.7-23-5.2v6.2c0 2 9.4 6 23 6zm-7 16.8c0-.4 0-.8.1-1.2-6.9-.8-13.1-2.6-16.1-5.5v6.8c0 3.8 7.5 6.9 17.7 7.8a19.9 19.9 0 0 1 -1.7-7.9zm.7-5.2a19.9 19.9 0 0 1 4-7.7c-8.7-.3-17-2.2-20.7-5.8v7.8c0 1.8 6.6 4.8 16.7 5.7z"/></g></svg>