<svg viewBox="0 0 64 64" xmlns="http://www.w3.org/2000/svg"><g fill="#2e2c2d"><path d="m62.4 58.6-7.6-7.6a12 12 0 1 0 -2.8 2.8l7.6 7.6a2 2 0 0 0 2.8-2.8zm-25.4-14.6a8 8 0 1 1 8 8 8 8 0 0 1 -8-8z"/><path d="m45 28a15.9 15.9 0 0 1 8 2.2v-10.2h-52v12h33.5a15.9 15.9 0 0 1 10.5-4zm-35 1a3 3 0 1 1 3-3 3 3 0 0 1 -3 3zm17-3a2 2 0 0 1 2-2h16a2 2 0 0 1 0 4h-16a2 2 0 0 1 -2-2zm2 18a2 2 0 0 1 0-4h.5a15.9 15.9 0 0 1 1.6-4h-30.1v12a2 2 0 0 0 2 2h27.2a15.9 15.9 0 0 1 -1.2-6zm-19 1a3 3 0 1 1 3-3 3 3 0 0 1 -3 3zm43-41a2 2 0 0 0 -2-2h-48a2 2 0 0 0 -2 2v12h52zm-43 9a3 3 0 1 1 3-3 3 3 0 0 1 -3 3zm35-1h-16a2 2 0 0 1 0-4h16a2 2 0 0 1 0 4z"/></g></svg>