<svg viewBox="0 0 64 64" xmlns="http://www.w3.org/2000/svg"><g fill="#2e2c2d"><path d="m58.6 49.1a11.8 11.8 0 0 0 .2-2.1 11.9 11.9 0 0 0 -.2-2.3l3.1-1.7-4-6.9-3.1 1.8a12 12 0 0 0 -3.7-2.1v-3.8h-8v3.7a12 12 0 0 0 -3.7 2.1l-3.2-1.8-4 7 3 1.7a11.7 11.7 0 0 0 -.2 2.3 11.9 11.9 0 0 0 .2 2.1l-3.3 1.9 4 6.9 3.3-1.8a12 12 0 0 0 3.8 2.2v3.7h8v-3.7a12.1 12.1 0 0 0 3.9-2.3l3.3 2 4-7zm-11.8 2.9a5 5 0 1 1 5-5 5 5 0 0 1 -5 5z"/><ellipse cx="25" cy="10" rx="23" ry="8"/><path d="m28.2 53a4 4 0 0 1 1.5-5.5l1.1-.6-.8-.5a4 4 0 0 1 -1.5-1.6h-3.5c-9.4 0-19-2-23-5.8v7c0 4.3 9.8 7.8 22.1 8h4.6zm-3.2-24c13.6 0 23-3.9 23-6v-6.2c-5 3.5-14 5.2-23 5.2s-18-1.7-23-5.2v6.2c0 2 9.4 6 23 6zm0 12h3.6l4-7a4 4 0 0 1 2.3-1.8 63.9 63.9 0 0 1 -9.9.8c-9.4 0-19-2-23-5.8v7.8c0 2 9.4 6 23 6z"/></g></svg>