<svg viewBox="0 0 64 64" xmlns="http://www.w3.org/2000/svg"><g fill="#2e2c2d"><path d="m2 22v34h60v-34zm52 16h-4a2 2 0 0 1 -1.414-.586l-4.038-4.037-4.759 9.518a2 2 0 0 1 -3.417.268l-8.16-11.425-8.464 15.233a2 2 0 0 1 -1.748 1.029h-.127a2 2 0 0 1 -1.73-1.254l-3.497-8.746h-2.646a2 2 0 0 1 0-4h4a2 2 0 0 1 1.857 1.258l2.437 6.094 7.957-14.322a2 2 0 0 1 1.636-1.03 1.972 1.972 0 0 1 1.741.834l8.068 11.3 4.515-9.029a2 2 0 0 1 3.2-.52l5.417 5.415h3.172a2 2 0 0 1 0 4z"/><path d="m2 8v10h60v-10zm6 7a2 2 0 1 1 2-2 2 2 0 0 1 -2 2zm6 0a2 2 0 1 1 2-2 2 2 0 0 1 -2 2zm6 0a2 2 0 1 1 2-2 2 2 0 0 1 -2 2z"/></g></svg>