<svg viewBox="0 0 64 64" xmlns="http://www.w3.org/2000/svg"><g fill="#2e2c2d"><rect height="8" rx="2" width="8" x="16" y="11.5"/><rect height="8" rx="2" width="8" x="28" y="11.5"/><rect height="8" rx="2" width="8" x="40" y="11.5"/><rect height="8" rx="2" width="8" x="16" y="23.5"/><rect height="8" rx="2" width="8" x="28" y="23.5"/><path d="m52 2h-40a2 2 0 0 0 -2 2v56a2 2 0 0 0 2 2h40a2 2 0 0 0 2-2v-56a2 2 0 0 0 -2-2zm-18.6 55.4a2.1 2.1 0 0 1 -1.4.6 2 2 0 0 1 -1.4-3.4 2.1 2.1 0 0 1 2.8 0 2 2 0 0 1 0 2.8zm16.6-7.4h-36v-42h36z"/></g></svg>