<svg viewBox="0 0 64 64" xmlns="http://www.w3.org/2000/svg"><g fill="#2e2c2d"><path d="m43.43 35.6-10.016-10.223-1.414-1.444-1.414 1.444-10.014 10.223a2 2 0 0 0 2.857 2.8l6.571-6.71v29.31a2 2 0 0 0 4 0v-29.31l6.572 6.71a2 2 0 0 0 2.857-2.8z"/><path d="m21.828 38.983a1.721 1.721 0 0 0 .172.017h.01c-.063 0-.121-.011-.182-.017z"/><path d="m6 15v26h11.537a5.984 5.984 0 0 1 .178-8.2l10.014-10.222 1.414-1.444 2.857-2.918 2.857 2.918 1.414 1.444 10.014 10.222a5.988 5.988 0 0 1 .18 8.2h11.535v-26z"/><path d="m6 1v10h52v-10zm6 7a2 2 0 1 1 2-2 2 2 0 0 1 -2 2zm6 0a2 2 0 1 1 2-2 2 2 0 0 1 -2 2zm6 0a2 2 0 1 1 2-2 2 2 0 0 1 -2 2z"/></g></svg>