<svg viewBox="0 0 64 64" xmlns="http://www.w3.org/2000/svg"><path d="m48 35h-14v-7a7 7 0 0 1 7-7h5a10 10 0 0 0 10-10v-8a2 2 0 1 0 -4 0v8a6 6 0 0 1 -6 6h-5a11 11 0 0 0 -11 11v7h-14a14 14 0 1 0 11.5 22h9a14 14 0 1 0 11.5-22zm-26 16h-4v4h-4v-4h-4v-4h4v-4h4v4h4zm7.4-6.6a2 2 0 0 1 -2.8 0 2 2 0 0 1 -.6-1.4 2 2 0 0 1 .6-1.4 2.1 2.1 0 0 1 2.8 0 2 2 0 0 1 .6 1.4 2 2 0 0 1 -.6 1.4zm8 0a2 2 0 0 1 -1.4.6 2.1 2.1 0 0 1 -1.4-.6 2 2 0 0 1 -.6-1.4 2 2 0 0 1 .6-1.4 2.1 2.1 0 0 1 2.8 0 2 2 0 0 1 .6 1.4 2 2 0 0 1 -.6 1.4zm7.6 10.6a3 3 0 1 1 3-3 3 3 0 0 1 -3 3zm8-4a3 3 0 1 1 3-3 3 3 0 0 1 -3 3z" fill="#2e2c2d"/></svg>