<svg viewBox="0 0 64 64" xmlns="http://www.w3.org/2000/svg"><g fill="#2e2c2d"><path d="m43 17a4 4 0 0 1 8 0 2 2 0 0 0 4 0 8 8 0 0 0 -16 0 2 2 0 0 0 4 0z"/><path d="m47 1a16 16 0 0 0 -16 16 2 2 0 1 0 4 0 12 12 0 0 1 24 0 2 2 0 1 0 4 0 16 16 0 0 0 -16-16z"/><path d="m59 39h-10v-20a2 2 0 0 0 -4 0v20h-42a2 2 0 0 0 -2 2v14a2 2 0 0 0 2 2h2v4a2 2 0 0 0 4 0v-4h44v4a2 2 0 0 0 4 0v-4h2a2 2 0 0 0 2-2v-14a2 2 0 0 0 -2-2zm-49 12a3 3 0 1 1 3-3 3 3 0 0 1 -3 3zm10 0a3 3 0 1 1 3-3 3 3 0 0 1 -3 3zm10 0a3 3 0 1 1 3-3 3 3 0 0 1 -3 3z"/></g></svg>